<svg xmlns="http://www.w3.org/2000/svg" viewBox="0 0 284.70163 284.49919"><path d="M281.869,295.53575H29.46788c-8.57793,0-15.53171-10.15543-15.53171-22.68276V34.754c0-12.52735,6.95379-22.68278,15.53172-22.68278H281.86905c8.5779,0,15.53169,10.15541,15.53169,22.68274V272.853C297.40074,285.38032,290.447,295.53575,281.869,295.53575Z" transform="translate(-13.43617 -11.53655)" style="fill:#00bdf0;stroke:#231f20;stroke-miterlimit:10"/><rect x="0.73706" y="0.53462" width="283.46457" height="70.86614" rx="14.17323" style="fill:#00a8e7;stroke:#231f20;stroke-miterlimit:10"/><circle cx="170.57874" cy="33.09674" r="7.40339" style="fill:#fff;stroke:#231f20;stroke-miterlimit:10"/><circle cx="227.27165" cy="33.09961" r="7.40339" style="fill:#fff;stroke:#231f20;stroke-miterlimit:10"/><circle cx="113.88583" cy="33.48476" r="7.40339" style="fill:#fff;stroke:#231f20;stroke-miterlimit:10"/><circle cx="57.19291" cy="33.48476" r="7.40339" style="fill:#fff;stroke:#231f20;stroke-miterlimit:10"/><path d="M70.62908,14.53847s9.53079,12.50961,0,30.0977" transform="translate(-13.43617 -11.53655)" style="fill:none;stroke:#231f20;stroke-linecap:round;stroke-linejoin:round;stroke-width:6px"/><path d="M127.322,14.53655s9.53079,12.50961,0,30.0977" transform="translate(-13.43617 -11.53655)" style="fill:none;stroke:#231f20;stroke-linecap:round;stroke-linejoin:round;stroke-width:6px"/><path d="M184.01491,14.53655s9.53079,12.50961,0,30.0977" transform="translate(-13.43617 -11.53655)" style="fill:none;stroke:#231f20;stroke-linecap:round;stroke-linejoin:round;stroke-width:6px"/><path d="M240.70782,14.53655s9.53079,12.50961,0,30.0977" transform="translate(-13.43617 -11.53655)" style="fill:none;stroke:#231f20;stroke-linecap:round;stroke-linejoin:round;stroke-width:6px"/><rect x="57.19214" y="99.74722" width="28.34646" height="28.34646" rx="5.66929" style="fill:#d1d3d4;stroke:#231f20;stroke-linecap:round;stroke-linejoin:round"/><rect x="21.75907" y="99.74722" width="28.34646" height="28.34646" rx="5.66929" style="fill:#d1d3d4;stroke:#231f20;stroke-linecap:round;stroke-linejoin:round"/><rect x="92.62522" y="99.74722" width="28.34646" height="28.34646" rx="5.66929" style="fill:#d1d3d4;stroke:#231f20;stroke-linecap:round;stroke-linejoin:round"/><rect x="128.05829" y="99.74722" width="28.34646" height="28.34646" rx="5.66929" style="fill:#d1d3d4;stroke:#231f20;stroke-linecap:round;stroke-linejoin:round"/><rect x="163.49136" y="99.74722" width="28.34646" height="28.34646" rx="5.66929" style="fill:#fff;stroke:#231f20;stroke-linecap:round;stroke-linejoin:round"/><rect x="198.92443" y="99.74722" width="28.34646" height="28.34646" rx="5.66929" style="fill:#fff;stroke:#231f20;stroke-linecap:round;stroke-linejoin:round"/><rect x="234.3575" y="99.74722" width="28.34646" height="28.34646" rx="5.66929" style="fill:#fff;stroke:#231f20;stroke-linecap:round;stroke-linejoin:round"/><rect x="57.19138" y="142.26691" width="28.34646" height="28.34646" rx="5.66929" style="fill:#fff;stroke:#231f20;stroke-linecap:round;stroke-linejoin:round"/><rect x="21.75831" y="142.26691" width="28.34646" height="28.34646" rx="5.66929" style="fill:#fff;stroke:#231f20;stroke-linecap:round;stroke-linejoin:round"/><rect x="92.62445" y="142.26691" width="28.34646" height="28.34646" rx="5.66929" style="fill:#fff;stroke:#231f20;stroke-linecap:round;stroke-linejoin:round"/><rect x="128.05752" y="142.26691" width="28.34646" height="28.34646" rx="5.66929" style="fill:#fff;stroke:#231f20;stroke-linecap:round;stroke-linejoin:round"/><rect x="163.49059" y="142.26691" width="28.34646" height="28.34646" rx="5.66929" style="fill:#fff;stroke:#231f20;stroke-linecap:round;stroke-linejoin:round"/><rect x="198.92367" y="142.26691" width="28.34646" height="28.34646" rx="5.66929" style="fill:#fff;stroke:#231f20;stroke-linecap:round;stroke-linejoin:round"/><rect x="234.35674" y="142.26691" width="28.34646" height="28.34646" rx="5.66929" style="fill:#fff;stroke:#231f20;stroke-linecap:round;stroke-linejoin:round"/><rect x="57.18986" y="184.78659" width="28.34646" height="28.34646" rx="5.66929" style="fill:#fff;stroke:#231f20;stroke-linecap:round;stroke-linejoin:round"/><rect x="21.75679" y="184.78659" width="28.34646" height="28.34646" rx="5.66929" style="fill:#fff;stroke:#231f20;stroke-linecap:round;stroke-linejoin:round"/><rect x="92.62293" y="184.78659" width="28.34646" height="28.34646" rx="5.66929" style="fill:#fff;stroke:#231f20;stroke-linecap:round;stroke-linejoin:round"/><rect x="128.056" y="184.78659" width="28.34646" height="28.34646" rx="5.66929" style="fill:#fff;stroke:#231f20;stroke-linecap:round;stroke-linejoin:round"/><rect x="163.48907" y="184.78659" width="28.34646" height="28.34646" rx="5.66929" style="fill:#fff;stroke:#231f20;stroke-linecap:round;stroke-linejoin:round"/><rect x="198.92214" y="184.78659" width="28.34646" height="28.34646" rx="5.66929" style="fill:#fff;stroke:#231f20;stroke-linecap:round;stroke-linejoin:round"/><rect x="234.35521" y="184.78659" width="28.34646" height="28.34646" rx="5.66929" style="fill:#fff;stroke:#231f20;stroke-linecap:round;stroke-linejoin:round"/><rect x="57.19062" y="227.30628" width="28.34646" height="28.34646" rx="5.66929" style="fill:#fff;stroke:#231f20;stroke-linecap:round;stroke-linejoin:round"/><rect x="21.75755" y="227.30628" width="28.34646" height="28.34646" rx="5.66929" style="fill:#fff;stroke:#231f20;stroke-linecap:round;stroke-linejoin:round"/><rect x="92.62369" y="227.30628" width="28.34646" height="28.34646" rx="5.66929" style="fill:#fff;stroke:#231f20;stroke-linecap:round;stroke-linejoin:round"/><rect x="128.05676" y="227.30628" width="28.34646" height="28.34646" rx="5.66929" style="fill:#fff;stroke:#231f20;stroke-linecap:round;stroke-linejoin:round"/><rect x="163.48983" y="227.30628" width="28.34646" height="28.34646" rx="5.66929" style="fill:#fff;stroke:#231f20;stroke-linecap:round;stroke-linejoin:round"/><rect x="198.9229" y="227.30628" width="28.34646" height="28.34646" rx="5.66929" style="fill:#fff;stroke:#231f20;stroke-linecap:round;stroke-linejoin:round"/><rect x="234.35597" y="227.30628" width="28.34646" height="28.34646" rx="5.66929" style="fill:#d1d3d4;stroke:#231f20;stroke-linecap:round;stroke-linejoin:round"/></svg>