<svg xmlns="http://www.w3.org/2000/svg" xmlns:xlink="http://www.w3.org/1999/xlink" xmlns:lucid="lucid" width="1375.46" height="720"><g transform="translate(-203.10493827160494 -260)" lucid:page-tab-id="U4t6-HJnaE_A"><path d="M0 0h1870.87v1322.83H0z" fill="#fff"/><path d="M319.75 579.75c0 10.9-8.84 19.75-19.75 19.75-10.9 0-19.75-8.84-19.75-19.75 0-10.9 8.84-19.75 19.75-19.75 10.9 0 19.75 8.84 19.75 19.75z" stroke="#3a414a" fill="#fff"/><path d="M300 599.5v49.3a20.7 20.7 0 0 0 3.2 11.07L340 718m-40-63.2L260 718m0-98.75h80" stroke="#3a414a" fill="none"/><path d="M260 566a6 6 0 0 1 6-6h68a6 6 0 0 1 6 6v168a6 6 0 0 1-6 6h-68a6 6 0 0 1-6-6z" fill="none"/><use xlink:href="#a" transform="matrix(1,0,0,1,180,718) translate(87.31481481481481 17.77777777777778)"/><use xlink:href="#b" transform="matrix(1,0,0,1,180,718) translate(44.10493827160494 44.44444444444444)"/><use xlink:href="#c" transform="matrix(1,0,0,1,180,718) translate(87.31481481481481 44.44444444444444)"/><path d="M638.07 540c0 33.14-35.82 60-80 60-44.2 0-80-26.86-80-60s35.8-60 80-60c44.18 0 80 26.86 80 60z" stroke="#3a414a" fill="#fff"/><use xlink:href="#d" transform="matrix(1,0,0,1,478.06619313837837,480) translate(25.10499999999999 63.15)"/><path d="M958.07 400.97c0 33.14-35.82 60-80 60-44.2 0-80-26.86-80-60s35.8-60 80-60c44.18 0 80 26.86 80 60z" stroke="#3a414a" fill="#fff"/><use xlink:href="#e" transform="matrix(1,0,0,1,798.0661888484105,340.96995213512855) translate(25.105 40.65)"/><use xlink:href="#f" transform="matrix(1,0,0,1,798.0661888484105,340.96995213512855) translate(65.50500000000001 62.25)"/><use xlink:href="#g" transform="matrix(1,0,0,1,798.0661888484105,340.96995213512855) translate(37.10499999999999 83.85000000000001)"/><path d="M1193.5 340c0 33.14-35.82 60-80 60s-80-26.86-80-60 35.82-60 80-60 80 26.86 80 60z" stroke="#3a414a" fill="#fff"/><use xlink:href="#h" transform="matrix(1,0,0,1,1033.4992597145524,280) translate(50.07999999999999 51.9)"/><use xlink:href="#i" transform="matrix(1,0,0,1,1033.4992597145524,280) translate(58.57999999999999 73.5)"/><path d="M1193.5 460.97c0 33.14-35.82 60-80 60s-80-26.86-80-60 35.82-60 80-60 80 26.86 80 60z" stroke="#3a414a" fill="#fff"/><use xlink:href="#j" transform="matrix(1,0,0,1,1033.4992597145524,400.96995213512855) translate(50.07999999999999 51.9)"/><use xlink:href="#k" transform="matrix(1,0,0,1,1033.4992597145524,400.96995213512855) translate(41.55499999999999 73.5)"/><path d="M657 540.5h-2.05v-1H657zm8.15 0h-4.08v-1h4.08zm8.16 0h-4.07v-1h4.08zm5.84 0h-1.75v-1h1.74zm39.36-15.56v4h-1v-4zm0-8v4h-1v-4zm0-8v4h-1v-4zm0-8v4h-1v-4zm.02-8v4h-1v-4zm0-8v4h-1v-4zm.02-31.98v4h-1v-4zm0-8v4h-1v-4zm0-8v4h-1v-4zm0-8v4h-1v-4zm.02-8v4h-1v-4zm0-8v4h-1v-4zm.35-7.87l-.06.17-.2.84-.07.9v1.97h-1v-2.02l.07-1 .24-1 .1-.24zm6.28-3.56h-2l-.8.2-.8.33-.18.1-.52-.85.23-.14.96-.4 1-.24h2.12zm8.22 0h-4.1v-1h4.1zm8.2 0h-4.1v-1h4.1zm8.23-.02h-4.1v-1h4.1zm8.2 0h-4.1v-1h4.1zm8.23-.02h-4.1v-1h4.1zm8.2 0h-4.1v-1h4.1zm8.23-.02h-4.12v-1h4.1zm8.2 0h-4.1v-1h4.1zm6.17 0H795v-1h2.07z" stroke="#3a414a" stroke-width=".05" fill="#3a414a"/><path d="M654.45 544.64L640.18 540l14.27-4.64z" fill="#3a414a"/><path d="M654.95 545.32L638.57 540l16.38-5.32zM641.8 540l12.15 3.95v-7.9z" stroke="#3a414a" stroke-width=".05" fill="#3a414a"/><path d="M797.57 400.96v.5h-.52v-1h.53z" fill="#3a414a"/><path d="M797.6 400.96v.53h-.57v-1.06h.58zm-.52-.47v.94h.47v-.95z" stroke="#3a414a" stroke-width=".05" fill="#3a414a"/><use xlink:href="#l" transform="matrix(1,0,0,1,679.1279193884562,459.81830940089753) translate(0 14.222222222222223)"/><path d="M960.6 401.47h-1.53v-1h1.53zm5.12 0h-3.07v-1h3.07zm5.13 0h-3.08v-1h3.08zm5.12 0h-3.08v-1h3.07zm5.12 0H978v-1h3.07zm5.1 0h-3.06v-1h3.07zm4.97-.16l-.36.1-1 .07h-1.54v-1h1.52l.88-.07.28-.07zm3.77-2.37l-.55.64-.78.66-.72.44-.52-.85.65-.4.65-.56.5-.58zm1.28-4.5v1.54l-.24 1-.14.35-.93-.38.12-.27.2-.82v-1.4zm0-4.88v2.93h-1v-2.93zm.02-4.9v2.94h-1v-2.95zm.04-24.46v1.35h-1v-1.36zm0-4.9v2.93h-1v-2.94zm0-4.9v2.94h-1v-2.94zm.15-4.57l-.07.3-.06.87v1.44h-1v-1.48l.07-1 .1-.36zm2.06-3.24l-.6.5-.55.64-.4.65-.85-.53.44-.72.66-.77.64-.55zm3.94-1.06h-1.52l-.82.2-.27.12-.38-.93.34-.14 1-.25h1.63zm5.26-.02h-3.16v-1h3.15zm5.26-.03h-3.16v-1h3.15zm3.68-.02h-1.58v-1h1.58z" stroke="#3a414a" stroke-width=".05" fill="#3a414a"/><path d="M959.08 401.47h-.53l.02-.5v-.5h.5z" fill="#3a414a"/><path d="M959.1 401.5h-.57v-1.06h.57zm-.5-1V400.97l-.02.46h.47v-.95z" stroke="#3a414a" stroke-width=".05" fill="#3a414a"/><path d="M1031.4 340.98l-14.26 4.63v-9.26z" fill="#3a414a"/><path d="M1033.02 340.98l-16.38 5.32v-10.65zm-15.38 3.94l12.15-3.94-12.16-3.95z" stroke="#3a414a" stroke-width=".05" fill="#3a414a"/><use xlink:href="#m" transform="matrix(1,0,0,1,954.3876630399723,361.5480301056909) translate(0 14.222222222222223)"/><path d="M1016.62 460.47v1h-1.58v-1zm-3.68-.02v1h-3.16v-1zm-5.26-.02v1l-3.16-.02v-1zm-7.6-.23l.82.2h1.52v1h-1.64l-1-.25-.35-.14.4-.9zm-2.75-2l.56.66.57.5-.65.75-.63-.53-.68-.78-.44-.72.86-.53zm-1.05-3.25l.07.88.07.28-.97.25-.1-.36-.07-1v-1.5h1zm0-3.4h-1v-2.94h1zm0-4.9h-1v-2.94h1zm-.02-4.9h-1v-.1h1zm-.03-21.45h-1v-1.05h1zm0-3h-1v-2.95h1zm0-4.9h-1l-.02-2.94h1zm-.26-7.44l.24 1v1.54h-1v-1.4l-.2-.83-.1-.27.92-.38zm-2.37-3.25l.78.67.55.64-.77.66-.5-.58-.65-.56-.63-.4.52-.85zm-2.8-1.15l.36.08-.23.98-.3-.06-.87-.07h-1.5v-1h1.54zm-30.2.92h-1.53v-1h1.53zm5.12 0h-3.07v-1h3.07zm5.12 0h-3.07v-1h3.07zm5.12 0h-3.07v-1h3.06zm5.12 0H978v-1h3.08zm5.12 0h-3.07v-1h3.07z" stroke="#3a414a" stroke-width=".05" fill="#3a414a"/><path d="M959.08 401.47h-.53l.02-.5v-.5h.5z" fill="#3a414a"/><path d="M959.1 401.5h-.57v-1.06h.57zm-.5-1V400.97l-.02.46h.47v-.95z" stroke="#3a414a" stroke-width=".05" fill="#3a414a"/><path d="M1031.38 460.97l-14.26 4.64v-9.27z" fill="#3a414a"/><path d="M1033 460.97l-16.38 5.32v-10.65zm-15.38 3.95l12.14-3.95-12.14-3.95z" stroke="#3a414a" stroke-width=".05" fill="#3a414a"/><use xlink:href="#m" transform="matrix(1,0,0,1,954.3753168740741,420.30328546846187) translate(0 14.222222222222223)"/><path d="M958.07 540.97c0 33.14-35.82 60-80 60-44.2 0-80-26.86-80-60s35.8-60 80-60c44.18 0 80 26.86 80 60z" stroke="#3a414a" fill="#fff"/><use xlink:href="#e" transform="matrix(1,0,0,1,798.0661888484105,480.96995213512855) translate(25.105 40.65)"/><use xlink:href="#n" transform="matrix(1,0,0,1,798.0661888484105,480.96995213512855) translate(32.055 62.25)"/><use xlink:href="#o" transform="matrix(1,0,0,1,798.0661888484105,480.96995213512855) translate(66.055 62.25)"/><use xlink:href="#p" transform="matrix(1,0,0,1,798.0661888484105,480.96995213512855) translate(50.03 83.85000000000001)"/><path d="M656.47 540.5h-1.52v-1h1.52zm5.08 0h-3.05v-1h3.05zm5.08 0h-3.05v-1h3.05zm5.07 0h-3.04v-1h3.04zm5.08 0h-3.05v-1h3.05zm2.36 0h-.33v-1h.34zm83.94 0h-3.04v-1h3.04zm5.08 0h-3.05v-1h3.06zm5.08 0h-3.05v-1h3.04zm5.07 0h-3.03v-1h3.04zm5.1 0h-3.06v-1h3.05zm5.07 0h-3.05v-1h3.05zm5.07 0h-3.04v-1h3.04zm3.56 0h-1.53v-1h1.53zm-39.1 0h-.98v-1h1z" stroke="#3a414a" stroke-width=".05" fill="#3a414a"/><path d="M654.45 544.64L640.18 540l14.27-4.64z" fill="#3a414a"/><path d="M654.95 545.32L638.57 540l16.38-5.32zM641.8 540l12.15 3.95v-7.9z" stroke="#3a414a" stroke-width=".05" fill="#3a414a"/><path d="M797.58 540.5h-.5v-1h.53z" fill="#3a414a"/><path d="M797.6 540.52h-.54v-1.04h.58zm-.5-1v.96h.46l.03-.96z" stroke="#3a414a" stroke-width=".05" fill="#3a414a"/><use xlink:href="#l" transform="matrix(1,0,0,1,679.1429476108598,529.3333333333334) translate(0 14.222222222222223)"/><path d="M638.07 760c0 33.14-35.82 60-80 60-44.2 0-80-26.86-80-60s35.8-60 80-60c44.18 0 80 26.86 80 60z" stroke="#3a414a" fill="#fff"/><use xlink:href="#q" transform="matrix(1,0,0,1,478.06619313837837,700) translate(58.029999999999994 63.15)"/><path d="M958.07 760c0 33.14-35.82 60-80 60-44.2 0-80-26.86-80-60s35.8-60 80-60c44.18 0 80 26.86 80 60z" stroke="#3a414a" fill="#fff"/><use xlink:href="#r" transform="matrix(1,0,0,1,798.0661888484105,700) translate(58.03 40.65)"/><use xlink:href="#f" transform="matrix(1,0,0,1,798.0661888484105,700) translate(65.50500000000001 62.25)"/><use xlink:href="#g" transform="matrix(1,0,0,1,798.0661888484105,700) translate(37.10499999999999 83.85000000000001)"/><path d="M1193.5 700c0 33.14-35.82 60-80 60s-80-26.86-80-60 35.82-60 80-60 80 26.86 80 60z" stroke="#3a414a" fill="#fff"/><use xlink:href="#h" transform="matrix(1,0,0,1,1033.4992597145524,640) translate(50.07999999999999 51.9)"/><use xlink:href="#i" transform="matrix(1,0,0,1,1033.4992597145524,640) translate(58.57999999999999 73.5)"/><path d="M1193.5 820c0 33.14-35.82 60-80 60s-80-26.86-80-60 35.82-60 80-60 80 26.86 80 60z" stroke="#3a414a" fill="#fff"/><use xlink:href="#j" transform="matrix(1,0,0,1,1033.4992597145524,760) translate(50.07999999999999 51.9)"/><use xlink:href="#k" transform="matrix(1,0,0,1,1033.4992597145524,760) translate(41.55499999999999 73.5)"/><path d="M656.92 760.5h-1.97v-1h1.97zm7.9 0h-3.95v-1h3.95zm7.9 0h-3.95v-1h3.94zm6.4 0h-2.46v-1h2.47zm88.34 0h-3.95v-1h3.96zm7.9 0h-3.95v-1h3.95zm7.9 0h-3.96v-1h3.95zm7.88 0h-3.94v-1h3.94zm5.93 0h-1.98v-1h1.97zm-37.5 0H757v-1h2.56z" stroke="#3a414a" stroke-width=".05" fill="#3a414a"/><path d="M654.45 764.64L640.18 760l14.27-4.64z" fill="#3a414a"/><path d="M654.95 765.32L638.57 760l16.38-5.32zM641.8 760l12.15 3.95v-7.9z" stroke="#3a414a" stroke-width=".05" fill="#3a414a"/><path d="M797.57 760v.5h-.52v-1h.53z" fill="#3a414a"/><path d="M797.6 760v.53h-.57v-1.05h.58zm-.52-.48v.96h.47v-.96z" stroke="#3a414a" stroke-width=".05" fill="#3a414a"/><use xlink:href="#l" transform="matrix(1,0,0,1,679.1279193884562,749.3333333333334) translate(0 14.222222222222223)"/><path d="M960.6 760.5h-1.53v-1h1.53zm5.12 0h-3.07v-1h3.07zm5.13 0h-3.08v-1h3.08zm5.12 0h-3.08v-1h3.07zm5.12 0H978v-1h3.07zm5.1 0h-3.06v-1h3.07zm4.97-.16l-.36.08-1 .08h-1.54v-1h1.52l.88-.07.28-.07zm3.77-2.38l-.55.64-.78.66-.72.44-.52-.85.65-.4.65-.56.5-.6zm1.28-4.46v1.5l-.24 1-.14.35-.93-.38.12-.27.2-.82v-1.38zm0-4.8v2.88h-1v-2.88zm.02-4.8v2.9l-1-.02v-2.87zm0-1.9h-1v-.8h1zm.04-26.87V718h-1v-2.87zm0-4.8v2.88h-1v-2.87zm.15-4.5l-.07.3-.06.87v1.4h-1v-1.44l.07-1 .1-.36zm2.06-3.24l-.6.5-.55.64-.4.65-.85-.53.44-.72.66-.77.64-.55zm3.94-1.06h-1.52l-.82.2-.27.12-.38-.93.34-.14 1-.25h1.63zm5.26-.02h-3.16v-1h3.15zm5.26-.03h-3.16v-1h3.15zm3.68-.02h-1.58v-1h1.58z" stroke="#3a414a" stroke-width=".05" fill="#3a414a"/><path d="M959.08 760.5h-.53l.02-.5v-.5h.5z" fill="#3a414a"/><path d="M959.1 760.52h-.57v-1.04h.57zm-.5-1v.5l-.02.46h.47v-.96z" stroke="#3a414a" stroke-width=".05" fill="#3a414a"/><path d="M1031.4 700.98l-14.26 4.63v-9.26z" fill="#3a414a"/><path d="M1033.02 700.98l-16.38 5.32v-10.65zm-15.38 3.94l12.15-3.94-12.16-3.95z" stroke="#3a414a" stroke-width=".05" fill="#3a414a"/><use xlink:href="#m" transform="matrix(1,0,0,1,954.3876630399723,719.8809554350207) translate(0 14.222222222222223)"/><path d="M1016.62 819.5v1h-1.58v-1zm-3.68-.02v1h-3.16v-1zm-5.26-.02v1l-3.16-.02v-1zm-7.6-.23l.82.2h1.52v1h-1.64l-1-.25-.35-.14.4-.92zm-2.75-2l.56.66.57.48-.65.76-.63-.54-.68-.78-.44-.7.86-.54zm-1.05-3.25l.07.88.07.28-.97.24-.1-.36-.07-1v-1.5h1zm0-3.4h-1v-2.94h1zm0-4.9h-1v-2.94h1zm-.02-4.9h-1v-.1h1zm-.03-21.45h-1v-1.05h1zm0-3h-1v-2.95h1zm0-4.9h-1l-.02-2.94h1zm-.26-7.44l.24 1v1.53h-1v-1.4l-.2-.83-.1-.27.92-.38zm-2.37-3.26l.78.66.55.64-.77.65-.5-.6-.65-.55-.63-.4.52-.85zm-2.8-1.16l.36.08-.23.98-.3-.07-.87-.07h-1.5v-1h1.54zm-30.2.92h-1.53v-1h1.53zm5.12 0h-3.07v-1h3.07zm5.12 0h-3.07v-1h3.07zm5.12 0h-3.07v-1h3.06zm5.12 0H978v-1h3.08zm5.12 0h-3.07v-1h3.07z" stroke="#3a414a" stroke-width=".05" fill="#3a414a"/><path d="M959.08 760.5h-.53l.02-.5v-.5h.5z" fill="#3a414a"/><path d="M959.1 760.52h-.57v-1.04h.57zm-.5-1v.5l-.02.46h.47v-.96z" stroke="#3a414a" stroke-width=".05" fill="#3a414a"/><path d="M1031.38 820l-14.26 4.64v-9.28z" fill="#3a414a"/><path d="M1033 820l-16.38 5.32v-10.64zm-15.38 3.95l12.14-3.95-12.14-3.95z" stroke="#3a414a" stroke-width=".05" fill="#3a414a"/><use xlink:href="#m" transform="matrix(1,0,0,1,954.3753168740741,779.3333333333334) translate(0 14.222222222222223)"/><path d="M958.07 900c0 33.14-35.82 60-80 60-44.2 0-80-26.86-80-60s35.8-60 80-60c44.18 0 80 26.86 80 60z" stroke="#3a414a" fill="#fff"/><use xlink:href="#r" transform="matrix(1,0,0,1,798.0661888484105,840) translate(58.03 40.65)"/><use xlink:href="#n" transform="matrix(1,0,0,1,798.0661888484105,840) translate(32.055 62.25)"/><use xlink:href="#o" transform="matrix(1,0,0,1,798.0661888484105,840) translate(66.055 62.25)"/><use xlink:href="#p" transform="matrix(1,0,0,1,798.0661888484105,840) translate(50.03 83.85000000000001)"/><path d="M797.1 898.53v1h-1.48v-1zm-3.45 0v1h-2.96v-1zm-4.93 0v1h-2.96v-1zm-4.93 0l-.02 1-2.95-.02v-1zm-4.95-.02v1h-2.95v-1zm-4.93 0v1h-2.95v-1zm-4.93 0v1h-2.96v-1zm-4.94 0v1h-2.96v-1zm-4.93 0v1h-2.96v-1zm-4.93 0v1l-2.96-.02v-1zm-4.93-.02v1h-2.96l.02-1zm-4.93 0v1h-2.96v-1zm-4.93 0v1h-2.95v-1zm-4.92 0v1l-2.96-.02v-1zm-4.93-.02v1h-2.96v-1zm-7.17-.2l.82.2h1.42v1h-1.54l-1-.25-.35-.13.38-.92zm-2.75-2l.56.66.57.5-.65.75-.64-.54-.66-.78-.44-.7.86-.54zm-1.05-3.25l.07.9.07.27-.97.24-.1-.35-.07-1v-1.5h1zm0-3.42h-1v-2.95h1zm0-4.92h-1v-2.95h1zm0-4.92h-1v-2.95h1zm0-4.92h-1v-2.95h1zm0-4.92h-1v-2.96h1zm0-4.92h-1l-.02-2.96h1zm-.02-4.93h-1v-2.95h1zm0-4.92h-1v-2.95h1zm0-4.92h-1v-2.94h1zm0-4.9h-1v-2.96h1zm0-4.93h-1v-.2h1zm-.02-21.52h-1v-1.12h1zm0-3.1h-1v-2.95h1zm0-4.92h-1v-2.95h1zm0-4.92h-1v-2.94h1zm0-4.9h-1v-2.96h1zm0-4.93h-1l-.02-2.95h1zm-.02-4.92h-1v-2.96h1zm0-4.92h-1v-2.96h1zm0-4.93h-1v-2.95h1zm0-4.92h-1v-2.95h1zm0-4.92h-1v-.8h1zm-62-10.96h-1.57v-1h1.56zm5.18 0h-3.1v-1h3.1zm5.2 0h-3.12v-1h3.12zm5.2 0h-3.13v-1h3.12zm5.18 0h-3.1v-1h3.1z" stroke="#3a414a" stroke-width=".05" fill="#3a414a"/><path d="M654.45 764.64L640.18 760l14.27-4.64z" fill="#3a414a"/><path d="M654.95 765.32L638.57 760l16.38-5.32zM641.8 760l12.15 3.95v-7.9z" stroke="#3a414a" stroke-width=".05" fill="#3a414a"/><path d="M797.58 899.53h-.5v-1h.53z" fill="#3a414a"/><path d="M797.6 899.56h-.54v-1.05h.58zm-.5-1v.95h.46l.03-.94z" stroke="#3a414a" stroke-width=".05" fill="#3a414a"/><use xlink:href="#l" transform="matrix(1,0,0,1,679.1429476197823,818.8483594196754) translate(0 14.222222222222223)"/><path d="M1517.6 590.5l-163.4.07-.83.2-.8.33-.74.45-.65.56-.56.67-.45.73-.33.8-.2.84-.07.88-.08 298.98-.25 1-.4.95-.52.87-.67.78-.77.66-.88.53-.94.38-1 .24-1 .08h-384v-1h383.97l.88-.07.84-.2.8-.33.73-.45.65-.56.56-.67.47-.73.33-.8.2-.82.07-298.9.07-1 .24-1 .4-.93.53-.87.67-.78.77-.66.87-.53.96-.38 1-.25 163.54-.07z" stroke="#3a414a" stroke-width=".05" fill="#3a414a"/><path d="M959.08 900.5h-.53l.02-.5v-.5h.5z" fill="#3a414a"/><path d="M959.1 900.52h-.57v-1.04h.57zm-.5-1v.5l-.02.46h.47v-.96zM1521.1 590.5h-3.5v-1h3.5z" stroke="#3a414a" stroke-width=".05" fill="#3a414a"/><path d="M1538.32 519.75c0 10.9-8.85 19.75-19.75 19.75s-19.75-8.84-19.75-19.75c0-10.9 8.84-19.75 19.75-19.75 10.9 0 19.75 8.84 19.75 19.75z" stroke="#3a414a" fill="#fff"/><path d="M1518.57 539.5v49.3a20.7 20.7 0 0 0 3.2 11.07l36.8 58.13m-40-63.2l-40 63.2m0-98.75h80" stroke="#3a414a" fill="none"/><path d="M1478.57 506a6 6 0 0 1 6-6h68a6 6 0 0 1 6 6v168a6 6 0 0 1-6 6h-68a6 6 0 0 1-6-6z" fill="none"/><use xlink:href="#s" transform="matrix(1,0,0,1,1398.5661931383784,658) translate(90.98765432098766 17.77777777777778)"/><path d="M300.5 655.73h82.28a6 6 0 0 0 6-6V546a6 6 0 0 1 6-6h82.3M300.5 655.73H297" stroke="#3a414a" fill="none"/><path d="M477.57 540v.5h-.52v-1h.53z" stroke="#3a414a" stroke-width=".05" fill="#3a414a"/><path d="M300.5 655.73h82.28a6 6 0 0 1 6 6V754a6 6 0 0 0 6 6h82.3M300.5 655.73H297" stroke="#3a414a" fill="none"/><path d="M477.57 760v.5h-.52v-1h.53z" stroke="#3a414a" stroke-width=".05" fill="#3a414a"/><path d="M1194.5 700h148.57a6 6 0 0 0 6-6v-98a6 6 0 0 1 6-6h162.53" stroke="#3a414a" fill="none"/><path d="M1194.5 700.5h-.52l.02-.5v-.5h.5z" stroke="#3a414a" stroke-width=".05" fill="#3a414a"/><path d="M1517.6 590h3.5M1194.5 820h148.57a6 6 0 0 0 6-6V596a6 6 0 0 1 6-6h162.53" stroke="#3a414a" fill="none"/><path d="M1194.5 820.5h-.52l.02-.5v-.5h.5z" stroke="#3a414a" stroke-width=".05" fill="#3a414a"/><path d="M1517.6 590h3.5M1194.5 340h148.57a6 6 0 0 1 6 6v243.5" stroke="#3a414a" fill="none"/><path d="M1194.5 340.5h-.52l.02-.5v-.5h.5z" stroke="#3a414a" stroke-width=".05" fill="#3a414a"/><path d="M1349.07 589.5v.5M1194.5 460.97H1344a6 6 0 0 1 6 6V589.5" stroke="#3a414a" fill="none"/><path d="M1194.5 461.47h-.52l.02-.5v-.5h.5z" stroke="#3a414a" stroke-width=".05" fill="#3a414a"/><path d="M1350 589.5v.5M959.07 540.97h384a6 6 0 0 1 6 6v42.53" stroke="#3a414a" fill="none"/><path d="M959.08 541.47h-.53l.02-.5v-.5h.5z" stroke="#3a414a" stroke-width=".05" fill="#3a414a"/><path d="M1349.07 589.5v.5" stroke="#3a414a" fill="none"/><defs><path fill="#3a414a" d="M232-93c-1 65-40 97-104 97C67 4 28-28 28-90v-158h33c8 89-33 224 67 224 102 0 64-133 71-224h33v155" id="t"/><path fill="#3a414a" d="M59-47c-2 24 18 29 38 22v24C64 9 27 4 27-40v-127H5v-23h24l9-43h21v43h35v23H59v120" id="u"/><path fill="#3a414a" d="M100-194c63 0 86 42 84 106H49c0 40 14 67 53 68 26 1 43-12 49-29l28 8c-11 28-37 45-77 45C44 4 14-33 15-96c1-61 26-98 85-98zm52 81c6-60-76-77-97-28-3 7-6 17-6 28h103" id="v"/><path fill="#3a414a" d="M117-194c89-4 53 116 60 194h-32v-121c0-31-8-49-39-48C34-167 62-67 57 0H25l-1-190h30c1 10-1 24 2 32 11-22 29-35 61-36" id="w"/><g id="a"><use transform="matrix(0.06172839506172839,0,0,0.06172839506172839,0,0)" xlink:href="#t"/><use transform="matrix(0.06172839506172839,0,0,0.06172839506172839,15.987654320987653,0)" xlink:href="#u"/><use transform="matrix(0.06172839506172839,0,0,0.06172839506172839,22.160493827160494,0)" xlink:href="#v"/><use transform="matrix(0.06172839506172839,0,0,0.06172839506172839,34.50617283950617,0)" xlink:href="#w"/><use transform="matrix(0.06172839506172839,0,0,0.06172839506172839,46.85185185185185,0)" xlink:href="#u"/><use transform="matrix(0.06172839506172839,0,0,0.06172839506172839,53.02469135802469,0)" xlink:href="#v"/></g><path fill="#3a414a" d="M100-194c62-1 85 37 85 99 1 63-27 99-86 99S16-35 15-95c0-66 28-99 85-99zM99-20c44 1 53-31 53-75 0-43-8-75-51-75s-53 32-53 75 10 74 51 75" id="x"/><g id="b"><use transform="matrix(0.06172839506172839,0,0,0.06172839506172839,0,0)" xlink:href="#w"/><use transform="matrix(0.06172839506172839,0,0,0.06172839506172839,12.345679012345679,0)" xlink:href="#x"/><use transform="matrix(0.06172839506172839,0,0,0.06172839506172839,24.691358024691358,0)" xlink:href="#w"/></g><path fill="#3a414a" d="M141-36C126-15 110 5 73 4 37 3 15-17 15-53c-1-64 63-63 125-63 3-35-9-54-41-54-24 1-41 7-42 31l-33-3c5-37 33-52 76-52 45 0 72 20 72 64v82c-1 20 7 32 28 27v20c-31 9-61-2-59-35zM48-53c0 20 12 33 32 33 41-3 63-29 60-74-43 2-92-5-92 41" id="y"/><path fill="#3a414a" d="M84 4C-5 8 30-112 23-190h32v120c0 31 7 50 39 49 72-2 45-101 50-169h31l1 190h-30c-1-10 1-25-2-33-11 22-28 36-60 37" id="z"/><path fill="#3a414a" d="M24-231v-30h32v30H24zM24 0v-190h32V0H24" id="A"/><path fill="#3a414a" d="M96-169c-40 0-48 33-48 73s9 75 48 75c24 0 41-14 43-38l32 2c-6 37-31 61-74 61-59 0-76-41-82-99-10-93 101-131 147-64 4 7 5 14 7 22l-32 3c-4-21-16-35-41-35" id="B"/><g id="c"><use transform="matrix(0.06172839506172839,0,0,0.06172839506172839,0,0)" xlink:href="#y"/><use transform="matrix(0.06172839506172839,0,0,0.06172839506172839,12.345679012345679,0)" xlink:href="#z"/><use transform="matrix(0.06172839506172839,0,0,0.06172839506172839,24.691358024691358,0)" xlink:href="#u"/><use transform="matrix(0.06172839506172839,0,0,0.06172839506172839,30.864197530864196,0)" xlink:href="#v"/><use transform="matrix(0.06172839506172839,0,0,0.06172839506172839,43.20987654320987,0)" xlink:href="#w"/><use transform="matrix(0.06172839506172839,0,0,0.06172839506172839,55.55555555555555,0)" xlink:href="#u"/><use transform="matrix(0.06172839506172839,0,0,0.06172839506172839,61.72839506172839,0)" xlink:href="#A"/><use transform="matrix(0.06172839506172839,0,0,0.06172839506172839,66.60493827160494,0)" xlink:href="#B"/><use transform="matrix(0.06172839506172839,0,0,0.06172839506172839,77.71604938271605,0)" xlink:href="#y"/><use transform="matrix(0.06172839506172839,0,0,0.06172839506172839,90.06172839506173,0)" xlink:href="#u"/><use transform="matrix(0.06172839506172839,0,0,0.06172839506172839,96.23456790123457,0)" xlink:href="#x"/></g><path d="M233-177c-1 41-23 64-60 70L243 0h-38l-65-103H63V0H30v-248c88 3 205-21 203 71zM63-129c60-2 137 13 137-47 0-61-80-42-137-45v92" id="C"/><path d="M100-194c63 0 86 42 84 106H49c0 40 14 67 53 68 26 1 43-12 49-29l28 8c-11 28-37 45-77 45C44 4 14-33 15-96c1-61 26-98 85-98zm52 81c6-60-76-77-97-28-3 7-6 17-6 28h103" id="D"/><path d="M177-190C167-65 218 103 67 71c-23-6-38-20-44-43l32-5c15 47 100 32 89-28v-30C133-14 115 1 83 1 29 1 15-40 15-95c0-56 16-97 71-98 29-1 48 16 59 35 1-10 0-23 2-32h30zM94-22c36 0 50-32 50-73 0-42-14-75-50-75-39 0-46 34-46 75s6 73 46 73" id="E"/><path d="M24-231v-30h32v30H24zM24 0v-190h32V0H24" id="F"/><path d="M135-143c-3-34-86-38-87 0 15 53 115 12 119 90S17 21 10-45l28-5c4 36 97 45 98 0-10-56-113-15-118-90-4-57 82-63 122-42 12 7 21 19 24 35" id="G"/><path d="M59-47c-2 24 18 29 38 22v24C64 9 27 4 27-40v-127H5v-23h24l9-43h21v43h35v23H59v120" id="H"/><path d="M114-163C36-179 61-72 57 0H25l-1-190h30c1 12-1 29 2 39 6-27 23-49 58-41v29" id="I"/><path d="M141-36C126-15 110 5 73 4 37 3 15-17 15-53c-1-64 63-63 125-63 3-35-9-54-41-54-24 1-41 7-42 31l-33-3c5-37 33-52 76-52 45 0 72 20 72 64v82c-1 20 7 32 28 27v20c-31 9-61-2-59-35zM48-53c0 20 12 33 32 33 41-3 63-29 60-74-43 2-92-5-92 41" id="J"/><path d="M9 0v-24l116-142H16v-24h144v24L44-24h123V0H9" id="K"/><path d="M100-194c62-1 85 37 85 99 1 63-27 99-86 99S16-35 15-95c0-66 28-99 85-99zM99-20c44 1 53-31 53-75 0-43-8-75-51-75s-53 32-53 75 10 74 51 75" id="L"/><path d="M117-194c89-4 53 116 60 194h-32v-121c0-31-8-49-39-48C34-167 62-67 57 0H25l-1-190h30c1 10-1 24 2 32 11-22 29-35 61-36" id="M"/><g id="d"><use transform="matrix(0.05,0,0,0.05,0,0)" xlink:href="#C"/><use transform="matrix(0.05,0,0,0.05,12.950000000000001,0)" xlink:href="#D"/><use transform="matrix(0.05,0,0,0.05,22.950000000000003,0)" xlink:href="#E"/><use transform="matrix(0.05,0,0,0.05,32.95,0)" xlink:href="#F"/><use transform="matrix(0.05,0,0,0.05,36.900000000000006,0)" xlink:href="#G"/><use transform="matrix(0.05,0,0,0.05,45.900000000000006,0)" xlink:href="#H"/><use transform="matrix(0.05,0,0,0.05,50.900000000000006,0)" xlink:href="#I"/><use transform="matrix(0.05,0,0,0.05,56.85,0)" xlink:href="#J"/><use transform="matrix(0.05,0,0,0.05,66.85000000000001,0)" xlink:href="#K"/><use transform="matrix(0.05,0,0,0.05,75.85000000000001,0)" xlink:href="#F"/><use transform="matrix(0.05,0,0,0.05,79.80000000000001,0)" xlink:href="#L"/><use transform="matrix(0.05,0,0,0.05,89.80000000000001,0)" xlink:href="#M"/><use transform="matrix(0.05,0,0,0.05,99.80000000000001,0)" xlink:href="#D"/></g><g id="e"><use transform="matrix(0.05,0,0,0.05,0,0)" xlink:href="#C"/><use transform="matrix(0.05,0,0,0.05,12.950000000000001,0)" xlink:href="#D"/><use transform="matrix(0.05,0,0,0.05,22.950000000000003,0)" xlink:href="#E"/><use transform="matrix(0.05,0,0,0.05,32.95,0)" xlink:href="#F"/><use transform="matrix(0.05,0,0,0.05,36.900000000000006,0)" xlink:href="#G"/><use transform="matrix(0.05,0,0,0.05,45.900000000000006,0)" xlink:href="#H"/><use transform="matrix(0.05,0,0,0.05,50.900000000000006,0)" xlink:href="#I"/><use transform="matrix(0.05,0,0,0.05,56.85,0)" xlink:href="#J"/><use transform="matrix(0.05,0,0,0.05,66.85000000000001,0)" xlink:href="#K"/><use transform="matrix(0.05,0,0,0.05,75.85000000000001,0)" xlink:href="#F"/><use transform="matrix(0.05,0,0,0.05,79.80000000000001,0)" xlink:href="#L"/><use transform="matrix(0.05,0,0,0.05,89.80000000000001,0)" xlink:href="#M"/><use transform="matrix(0.05,0,0,0.05,99.80000000000001,0)" xlink:href="#D"/></g><path d="M96-169c-40 0-48 33-48 73s9 75 48 75c24 0 41-14 43-38l32 2c-6 37-31 61-74 61-59 0-76-41-82-99-10-93 101-131 147-64 4 7 5 14 7 22l-32 3c-4-21-16-35-41-35" id="N"/><g id="f"><use transform="matrix(0.05,0,0,0.05,0,0)" xlink:href="#N"/><use transform="matrix(0.05,0,0,0.05,9,0)" xlink:href="#L"/><use transform="matrix(0.05,0,0,0.05,19,0)" xlink:href="#M"/></g><path d="M85-194c31 0 48 13 60 33l-1-100h32l1 261h-30c-2-10 0-23-3-31C134-8 116 4 85 4 32 4 16-35 15-94c0-66 23-100 70-100zm9 24c-40 0-46 34-46 75 0 40 6 74 45 74 42 0 51-32 51-76 0-42-9-74-50-73" id="O"/><path d="M24 0v-261h32V0H24" id="P"/><g id="g"><use transform="matrix(0.05,0,0,0.05,0,0)" xlink:href="#N"/><use transform="matrix(0.05,0,0,0.05,9,0)" xlink:href="#I"/><use transform="matrix(0.05,0,0,0.05,14.949999999999998,0)" xlink:href="#D"/><use transform="matrix(0.05,0,0,0.05,24.95,0)" xlink:href="#O"/><use transform="matrix(0.05,0,0,0.05,34.95,0)" xlink:href="#D"/><use transform="matrix(0.05,0,0,0.05,44.95,0)" xlink:href="#M"/><use transform="matrix(0.05,0,0,0.05,54.95,0)" xlink:href="#K"/><use transform="matrix(0.05,0,0,0.05,63.95,0)" xlink:href="#F"/><use transform="matrix(0.05,0,0,0.05,67.9,0)" xlink:href="#J"/><use transform="matrix(0.05,0,0,0.05,77.9,0)" xlink:href="#P"/><use transform="matrix(0.05,0,0,0.05,81.85000000000001,0)" xlink:href="#F"/></g><path d="M33 0v-248h34V0H33" id="Q"/><g id="h"><use transform="matrix(0.05,0,0,0.05,0,0)" xlink:href="#Q"/><use transform="matrix(0.05,0,0,0.05,5,0)" xlink:href="#M"/><use transform="matrix(0.05,0,0,0.05,15,0)" xlink:href="#G"/><use transform="matrix(0.05,0,0,0.05,24,0)" xlink:href="#D"/><use transform="matrix(0.05,0,0,0.05,34,0)" xlink:href="#I"/><use transform="matrix(0.05,0,0,0.05,39.95,0)" xlink:href="#F"/><use transform="matrix(0.05,0,0,0.05,43.900000000000006,0)" xlink:href="#I"/><use transform="matrix(0.05,0,0,0.05,49.85000000000001,0)" xlink:href="#D"/></g><path d="M210-169c-67 3-38 105-44 169h-31v-121c0-29-5-50-35-48C34-165 62-65 56 0H25l-1-190h30c1 10-1 24 2 32 10-44 99-50 107 0 11-21 27-35 58-36 85-2 47 119 55 194h-31v-121c0-29-5-49-35-48" id="R"/><g id="i"><use transform="matrix(0.05,0,0,0.05,0,0)" xlink:href="#D"/><use transform="matrix(0.05,0,0,0.05,10,0)" xlink:href="#R"/><use transform="matrix(0.05,0,0,0.05,24.950000000000003,0)" xlink:href="#J"/><use transform="matrix(0.05,0,0,0.05,34.95,0)" xlink:href="#F"/><use transform="matrix(0.05,0,0,0.05,38.900000000000006,0)" xlink:href="#P"/></g><g id="j"><use transform="matrix(0.05,0,0,0.05,0,0)" xlink:href="#Q"/><use transform="matrix(0.05,0,0,0.05,5,0)" xlink:href="#M"/><use transform="matrix(0.05,0,0,0.05,15,0)" xlink:href="#G"/><use transform="matrix(0.05,0,0,0.05,24,0)" xlink:href="#D"/><use transform="matrix(0.05,0,0,0.05,34,0)" xlink:href="#I"/><use transform="matrix(0.05,0,0,0.05,39.95,0)" xlink:href="#F"/><use transform="matrix(0.05,0,0,0.05,43.900000000000006,0)" xlink:href="#I"/><use transform="matrix(0.05,0,0,0.05,49.85000000000001,0)" xlink:href="#D"/></g><path d="M115-194c55 1 70 41 70 98S169 2 115 4C84 4 66-9 55-30l1 105H24l-1-265h31l2 30c10-21 28-34 59-34zm-8 174c40 0 45-34 45-75s-6-73-45-74c-42 0-51 32-51 76 0 43 10 73 51 73" id="S"/><path d="M206 0h-36l-40-164L89 0H53L-1-190h32L70-26l43-164h34l41 164 42-164h31" id="T"/><g id="k"><use transform="matrix(0.05,0,0,0.05,0,0)" xlink:href="#S"/><use transform="matrix(0.05,0,0,0.05,10,0)" xlink:href="#J"/><use transform="matrix(0.05,0,0,0.05,20,0)" xlink:href="#G"/><use transform="matrix(0.05,0,0,0.05,29,0)" xlink:href="#G"/><use transform="matrix(0.05,0,0,0.05,38,0)" xlink:href="#T"/><use transform="matrix(0.05,0,0,0.05,50.95,0)" xlink:href="#L"/><use transform="matrix(0.05,0,0,0.05,60.95,0)" xlink:href="#I"/><use transform="matrix(0.05,0,0,0.05,66.9,0)" xlink:href="#O"/></g><path fill="#333" d="M15-91v-56l181-69v40L49-119l147 57v40" id="U"/><path fill="#333" d="M185-48c-13 30-37 53-82 52C43 2 14-33 14-96s30-98 90-98c62 0 83 45 84 108H66c0 31 8 55 39 56 18 0 30-7 34-22zm-45-69c5-46-57-63-70-21-2 6-4 13-4 21h74" id="V"/><path fill="#333" d="M144 0l-44-69L55 0H2l70-98-66-92h53l41 62 40-62h54l-67 91 71 99h-54" id="W"/><path fill="#333" d="M115-3C79 11 28 4 28-45v-112H4v-33h27l15-45h31v45h36v33H77v99c-1 23 16 31 38 25v30" id="X"/><path fill="#333" d="M135-194c87-1 58 113 63 194h-50c-7-57 23-157-34-157-59 0-34 97-39 157H25l-1-190h47c2 12-1 28 3 38 12-26 28-41 61-42" id="Y"/><path fill="#333" d="M88-194c31-1 46 15 58 34l-1-101h50l1 261h-48c-2-10 0-23-3-31C134-8 116 4 84 4 32 4 16-41 15-95c0-56 19-97 73-99zm17 164c33 0 40-30 41-66 1-37-9-64-41-64s-38 30-39 65c0 43 13 65 39 65" id="Z"/><path fill="#333" d="M15-22v-40l146-57-146-57v-40l181 69v56" id="aa"/><g id="l"><use transform="matrix(0.04938271604938272,0,0,0.04938271604938272,0,0)" xlink:href="#U"/><use transform="matrix(0.04938271604938272,0,0,0.04938271604938272,10.370370370370372,0)" xlink:href="#V"/><use transform="matrix(0.04938271604938272,0,0,0.04938271604938272,20.24691358024692,0)" xlink:href="#W"/><use transform="matrix(0.04938271604938272,0,0,0.04938271604938272,30.123456790123466,0)" xlink:href="#X"/><use transform="matrix(0.04938271604938272,0,0,0.04938271604938272,36.00000000000001,0)" xlink:href="#V"/><use transform="matrix(0.04938271604938272,0,0,0.04938271604938272,45.87654320987655,0)" xlink:href="#Y"/><use transform="matrix(0.04938271604938272,0,0,0.04938271604938272,56.69135802469136,0)" xlink:href="#Z"/><use transform="matrix(0.04938271604938272,0,0,0.04938271604938272,67.50617283950618,0)" xlink:href="#aa"/></g><path fill="#333" d="M25-224v-37h50v37H25zM25 0v-190h50V0H25" id="ab"/><path fill="#333" d="M190-63c-7 42-38 67-86 67-59 0-84-38-90-98-12-110 154-137 174-36l-49 2c-2-19-15-32-35-32-30 0-35 28-38 64-6 74 65 87 74 30" id="ac"/><path fill="#333" d="M25 0v-261h50V0H25" id="ad"/><path fill="#333" d="M85 4C-2 5 27-109 22-190h50c7 57-23 150 33 157 60-5 35-97 40-157h50l1 190h-47c-2-12 1-28-3-38-12 25-28 42-61 42" id="ae"/><g id="m"><use transform="matrix(0.04938271604938272,0,0,0.04938271604938272,0,0)" xlink:href="#U"/><use transform="matrix(0.04938271604938272,0,0,0.04938271604938272,10.370370370370372,0)" xlink:href="#ab"/><use transform="matrix(0.04938271604938272,0,0,0.04938271604938272,15.308641975308642,0)" xlink:href="#Y"/><use transform="matrix(0.04938271604938272,0,0,0.04938271604938272,26.12345679012346,0)" xlink:href="#ac"/><use transform="matrix(0.04938271604938272,0,0,0.04938271604938272,36,0)" xlink:href="#ad"/><use transform="matrix(0.04938271604938272,0,0,0.04938271604938272,40.93827160493827,0)" xlink:href="#ae"/><use transform="matrix(0.04938271604938272,0,0,0.04938271604938272,51.75308641975309,0)" xlink:href="#Z"/><use transform="matrix(0.04938271604938272,0,0,0.04938271604938272,62.567901234567906,0)" xlink:href="#V"/><use transform="matrix(0.04938271604938272,0,0,0.04938271604938272,72.44444444444446,0)" xlink:href="#aa"/></g><g id="n"><use transform="matrix(0.05,0,0,0.05,0,0)" xlink:href="#N"/><use transform="matrix(0.05,0,0,0.05,9,0)" xlink:href="#L"/><use transform="matrix(0.05,0,0,0.05,19,0)" xlink:href="#M"/></g><g id="o"><use transform="matrix(0.05,0,0,0.05,0,0)" xlink:href="#G"/><use transform="matrix(0.05,0,0,0.05,9,0)" xlink:href="#F"/><use transform="matrix(0.05,0,0,0.05,12.949999999999998,0)" xlink:href="#G"/><use transform="matrix(0.05,0,0,0.05,21.95,0)" xlink:href="#H"/><use transform="matrix(0.05,0,0,0.05,26.950000000000003,0)" xlink:href="#D"/><use transform="matrix(0.05,0,0,0.05,36.95,0)" xlink:href="#R"/><use transform="matrix(0.05,0,0,0.05,51.900000000000006,0)" xlink:href="#J"/></g><g id="p"><use transform="matrix(0.05,0,0,0.05,0,0)" xlink:href="#D"/><use transform="matrix(0.05,0,0,0.05,10,0)" xlink:href="#G"/><use transform="matrix(0.05,0,0,0.05,19,0)" xlink:href="#H"/><use transform="matrix(0.05,0,0,0.05,24,0)" xlink:href="#D"/><use transform="matrix(0.05,0,0,0.05,34,0)" xlink:href="#I"/><use transform="matrix(0.05,0,0,0.05,39.95,0)" xlink:href="#M"/><use transform="matrix(0.05,0,0,0.05,49.95,0)" xlink:href="#L"/></g><path d="M30 0v-248h33v221h125V0H30" id="af"/><g id="q"><use transform="matrix(0.05,0,0,0.05,0,0)" xlink:href="#af"/><use transform="matrix(0.05,0,0,0.05,10,0)" xlink:href="#L"/><use transform="matrix(0.05,0,0,0.05,20,0)" xlink:href="#E"/><use transform="matrix(0.05,0,0,0.05,30,0)" xlink:href="#F"/><use transform="matrix(0.05,0,0,0.05,33.95,0)" xlink:href="#M"/></g><g id="r"><use transform="matrix(0.05,0,0,0.05,0,0)" xlink:href="#af"/><use transform="matrix(0.05,0,0,0.05,10,0)" xlink:href="#L"/><use transform="matrix(0.05,0,0,0.05,20,0)" xlink:href="#E"/><use transform="matrix(0.05,0,0,0.05,30,0)" xlink:href="#F"/><use transform="matrix(0.05,0,0,0.05,33.95,0)" xlink:href="#M"/></g><path fill="#3a414a" d="M205 0l-28-72H64L36 0H1l101-248h38L239 0h-34zm-38-99l-47-123c-12 45-31 82-46 123h93" id="ag"/><path fill="#3a414a" d="M106-169C34-169 62-67 57 0H25v-261h32l-1 103c12-21 28-36 61-36 89 0 53 116 60 194h-32v-121c2-32-8-49-39-48" id="ah"/><path fill="#3a414a" d="M101-251c68 0 85 55 85 127S166 4 100 4C33 4 14-52 14-124c0-73 17-127 87-127zm-1 229c47 0 54-49 54-102s-4-102-53-102c-51 0-55 48-55 102 0 53 5 102 54 102" id="ai"/><g id="s"><use transform="matrix(0.06172839506172839,0,0,0.06172839506172839,0,0)" xlink:href="#ag"/><use transform="matrix(0.06172839506172839,0,0,0.06172839506172839,14.814814814814813,0)" xlink:href="#z"/><use transform="matrix(0.06172839506172839,0,0,0.06172839506172839,27.160493827160494,0)" xlink:href="#u"/><use transform="matrix(0.06172839506172839,0,0,0.06172839506172839,33.333333333333336,0)" xlink:href="#ah"/><use transform="matrix(0.06172839506172839,0,0,0.06172839506172839,45.67901234567901,0)" xlink:href="#ai"/></g></defs></g></svg>