<svg xmlns="http://www.w3.org/2000/svg" xmlns:xlink="http://www.w3.org/1999/xlink" xmlns:lucid="lucid" width="766.96" height="480"><g transform="translate(-343.7098765432099 -140)" lucid:page-tab-id="77t66vWDFbIC"><path d="M439.75 319.75c0 10.9-8.84 19.75-19.75 19.75-10.9 0-19.75-8.84-19.75-19.75 0-10.9 8.84-19.75 19.75-19.75 10.9 0 19.75 8.84 19.75 19.75z" stroke="#3a414a" fill="#fff"/><path d="M420 339.5v49.3a20.7 20.7 0 0 0 3.2 11.07L460 458m-40-63.2L380 458m0-98.75h80" stroke="#3a414a" fill="none"/><path d="M380 306a6 6 0 0 1 6-6h68a6 6 0 0 1 6 6v168a6 6 0 0 1-6 6h-68a6 6 0 0 1-6-6z" fill="none"/><use xlink:href="#a" transform="matrix(1,0,0,1,300,458) translate(87.31481481481481 17.77777777777778)"/><use xlink:href="#b" transform="matrix(1,0,0,1,300,458) translate(65.70987654320987 44.44444444444444)"/><use xlink:href="#c" transform="matrix(1,0,0,1,300,458) translate(76.82098765432099 71.11111111111111)"/><path d="M758.07 380c0 33.14-35.82 60-80 60-44.2 0-80-26.86-80-60s35.8-60 80-60c44.18 0 80 26.86 80 60z" stroke="#3a414a" fill="#fff"/><use xlink:href="#d" transform="matrix(1,0,0,1,598.0661931383784,320) translate(16.18 63.15)"/><use xlink:href="#e" transform="matrix(1,0,0,1,598.0661931383784,320) translate(70.97999999999999 63.15)"/><path d="M597.07 380H421" stroke="#3a414a" fill="none"/><path d="M597.57 380v.5h-.52v-1h.53z" stroke="#3a414a" stroke-width=".05" fill="#3a414a"/><path d="M421 380h-3.5" stroke="#3a414a" fill="none"/><path d="M1090.67 220c0 33.14-35.82 60-80 60s-80-26.86-80-60 35.82-60 80-60 80 26.86 80 60z" stroke="#3a414a" fill="#fff"/><use xlink:href="#f" transform="matrix(1,0,0,1,930.6695121964065,160) translate(36.00006172839505 47.26111111111111)"/><use xlink:href="#g" transform="matrix(1,0,0,1,930.6695121964065,160) translate(9.306234567901251 67.52777777777777)"/><use xlink:href="#h" transform="matrix(1,0,0,1,930.6695121964065,160) translate(82.3506790123457 67.52777777777777)"/><path d="M1090.67 540c0 33.14-35.82 60-80 60s-80-26.86-80-60 35.82-60 80-60 80 26.86 80 60z" stroke="#3a414a" fill="#fff"/><use xlink:href="#i" transform="matrix(1,0,0,1,930.6695121964065,479.9999999999999) translate(33.10499999999999 40.65)"/><use xlink:href="#j" transform="matrix(1,0,0,1,930.6695121964065,479.9999999999999) translate(43.57999999999999 62.25)"/><use xlink:href="#k" transform="matrix(1,0,0,1,930.6695121964065,479.9999999999999) translate(45.58 83.85000000000001)"/><path d="M760.55 380.5h-1.48v-1h1.48zm4.96 0h-2.96v-1h2.97zm4.97 0h-2.98v-1h2.97zm4.95 0h-2.97v-1h2.97zm4.96 0h-2.98v-1h2.98zm4.95 0h-2.97v-1h2.97zm4.96 0h-2.98v-1h2.97zm4.95 0h-2.98v-1h2.98zm4.95 0h-2.97v-1h2.97zm4.96 0h-2.97v-1h2.96zm4.96 0h-2.98v-1h2.98zm4.95 0h-2.97v-1h2.97zm4.96 0h-2.97v-1h2.97zm4.96 0h-3v-1h3zm4.94 0h-2.97v-1h2.97zm4.96 0h-2.98v-1h2.98zm4.84-.16l-.36.08-1 .08h-1.5v-1h1.47l.88-.07.28-.07zm3.77-2.38l-.53.64-.78.66-.73.44-.52-.85.65-.4.66-.56.5-.6zm1.3-4.5V375l-.25 1-.14.35-.9-.38.1-.27.2-.82v-1.43zm0-4.98v2.98h-1v-2.98zm0-4.96v2.98h-1v-2.98zm0-4.96v2.97h-1v-2.97zm0-4.97v2.97h-1v-2.98zm0-4.97v2.98h-1v-2.97zm0-4.97v2.98h-1v-2.98zm0-4.96v2.98h-1v-2.98zm0-4.97v2.98h-1v-2.97zm.02-4.96v2.98h-1v-2.98zm0-4.97v2.98h-1v-2.98zm0-4.96v2.98h-1v-2.98zm0-4.97v2.98h-1v-2.98zm0-1.98h-1v-1.23h1zm.02-22.85v.28h-1v-.28zm0-4.96v2.97h-1v-2.98zm0-4.98v2.98h-1v-2.98zm0-4.96v2.98h-1v-2.98zm0-4.97v2.97h-1v-2.98zm0-4.97v2.98h-1v-2.97zm0-4.97v2.98h-1v-2.98zm0-4.96v2.98h-1v-2.98zm.02-4.97v2.98h-1v-2.97zm0-4.96v2.98h-1v-2.98zm0-4.97v2.98h-1v-2.98zm0-4.96v2.98h-1v-2.98zm0-4.96v2.97h-1v-2.98zm.14-4.62l-.06.28-.07.88v1.47h-1v-1.52l.08-1 .08-.36zm2.06-3.24l-.58.5-.56.65-.4.65-.85-.53.44-.72.67-.78.64-.54zm3.85-1.05h-1.4l-.83.2-.27.1-.38-.9.34-.15 1-.25h1.55zm4.97 0h-2.97v-1h2.96zm4.95 0h-2.97v-1h2.96zm4.95 0h-2.97v-1h2.97zm4.95-.02h-2.97v-1h2.97zm4.95 0h-2.97v-1h2.97zm4.95 0h-2.97v-1h2.97zm4.95-.02h-2.97v-1h2.97zm4.95 0h-2.97v-1h2.97zm4.95 0h-2.97v-1h2.97zm4.95 0h-2.97v-1h2.97zm4.95-.02h-2.97v-1h2.97zm4.95 0h-2.97v-1h2.97zm3.47 0h-1.5v-1h1.5z" stroke="#3a414a" stroke-width=".05" fill="#3a414a"/><path d="M759.08 380.5h-.53l.02-.5v-.5h.5z" fill="#3a414a"/><path d="M759.1 380.52h-.57v-1.04h.57zm-.5-1v.5l-.02.46h.47v-.96z" stroke="#3a414a" stroke-width=".05" fill="#3a414a"/><path d="M928.55 220l-14.26 4.64v-9.28z" fill="#3a414a"/><path d="M930.17 220l-16.38 5.32v-10.64zm-15.38 3.95l12.13-3.95-12.14-3.95z" stroke="#3a414a" stroke-width=".05" fill="#3a414a"/><use xlink:href="#l" transform="matrix(1,0,0,1,802.9604452599851,289.33333333333337) translate(0.005000000000002558 14.222222222222223)"/><path d="M913.86 541.66v1h-1.5v-1zm-3.47 0v1h-2.98v-1zm-4.96 0v1l-2.98-.02v-1zm-4.96-.02v1h-2.97v-1zm-4.95 0v1h-2.97v-1zm-4.95 0v1h-2.98v-1zm-4.96-.02v1h-2.97v-1zm-4.95 0v1h-2.97v-1zm-4.95 0v1h-2.98v-1zm-4.96 0v1l-2.97-.02v-1zm-4.95-.02v1h-2.96v-1zm-4.94 0v1h-2.98v-1zm-4.96 0v1h-2.97v-1zm-7.2-.22l.82.2h1.43v1h-1.54l-1-.24-.35-.14.4-.93zm-2.74-2l.56.66.57.5-.66.76-.63-.55-.66-.77-.44-.72.86-.52zm-1.06-3.24l.07.88.07.28-.97.23-.1-.36-.07-1v-1.53h1zm0-3.5h-1v-3.03h1zm0-5.05h-1v-3.03h1zm0-5.04h-1v-3.02h1zm0-5.04h-1v-3.02h1zm0-5.04h-1v-3.02h1zm0-5.03h-1v-3.02h1zm0-5.04h-1v-3h1zm-.02-5.03h-1v-3.02h1zm0-5.03h-1v-3.02h1zm0-5.04h-1v-3.02h1zm0-5.04h-1v-3.02h1zm0-5.03h-1v-3.02h1zm0-5.04h-1v-.46h1zm-.02-21.8h-1v-1.38h1zm0-3.4h-1v-3h1zm0-5.03h-1v-3.02h1zm0-5.03h-1v-3.02h1zm0-5.04h-1v-3.02h1zm0-5.04h-1v-3.02h1zm0-5.03h-1v-3.02h1zm0-5.04h-1l-.02-3.03h1zm-.02-5.05h-1v-3.02h1zm0-5.03h-1v-3.02h1zm0-5.04h-1v-3.02h1zm0-5.03h-1v-3.03h1zm0-5.04h-1v-3h1zm-.25-7.6l.23 1v1.57h-1v-1.45l-.2-.82-.1-.27.92-.38zm-2.37-3.26l.77.66.55.64-.76.65-.5-.6-.66-.55-.65-.4.5-.85zm-2.8-1.16l.35.08-.23.98-.3-.07-.87-.07h-1.46v-1h1.5zm-78.88.92h-1.48v-1h1.48zm4.96 0h-2.96v-1h2.97zm4.97 0h-2.97v-1h2.97zm4.96 0h-2.98v-1h2.98zm4.96 0h-3v-1h3zm4.95 0h-2.98v-1h2.98zm4.96 0h-2.97v-1h2.98zm4.96 0h-2.97v-1h2.96zm4.96 0h-2.97v-1h2.97zm4.96 0h-2.97v-1h2.98zm4.96 0h-2.98v-1h2.98zm4.96 0h-2.98v-1h2.98zm4.96 0h-2.98v-1h2.98zm4.96 0h-2.98v-1h2.98zm4.95 0H827v-1h2.97zm4.96 0h-2.97v-1h2.97z" stroke="#3a414a" stroke-width=".05" fill="#3a414a"/><path d="M759.08 380.5h-.53l.02-.5v-.5h.5z" fill="#3a414a"/><path d="M759.1 380.52h-.57v-1.04h.57zm-.5-1v.5l-.02.46h.47v-.96z" stroke="#3a414a" stroke-width=".05" fill="#3a414a"/><path d="M928.62 542.16l-14.26 4.63v-9.28z" fill="#3a414a"/><path d="M930.24 542.16l-16.38 5.32v-10.65zm-15.38 3.94l12.14-3.94-12.14-3.95z" stroke="#3a414a" stroke-width=".05" fill="#3a414a"/><g><use xlink:href="#l" transform="matrix(1,0,0,1,802.9961108207028,450.4110104527203) translate(0.005000000000002558 14.222222222222223)"/></g><defs><path fill="#3a414a" d="M232-93c-1 65-40 97-104 97C67 4 28-28 28-90v-158h33c8 89-33 224 67 224 102 0 64-133 71-224h33v155" id="m"/><path fill="#3a414a" d="M59-47c-2 24 18 29 38 22v24C64 9 27 4 27-40v-127H5v-23h24l9-43h21v43h35v23H59v120" id="n"/><path fill="#3a414a" d="M100-194c63 0 86 42 84 106H49c0 40 14 67 53 68 26 1 43-12 49-29l28 8c-11 28-37 45-77 45C44 4 14-33 15-96c1-61 26-98 85-98zm52 81c6-60-76-77-97-28-3 7-6 17-6 28h103" id="o"/><path fill="#3a414a" d="M117-194c89-4 53 116 60 194h-32v-121c0-31-8-49-39-48C34-167 62-67 57 0H25l-1-190h30c1 10-1 24 2 32 11-22 29-35 61-36" id="p"/><g id="a"><use transform="matrix(0.06172839506172839,0,0,0.06172839506172839,0,0)" xlink:href="#m"/><use transform="matrix(0.06172839506172839,0,0,0.06172839506172839,15.987654320987653,0)" xlink:href="#n"/><use transform="matrix(0.06172839506172839,0,0,0.06172839506172839,22.160493827160494,0)" xlink:href="#o"/><use transform="matrix(0.06172839506172839,0,0,0.06172839506172839,34.50617283950617,0)" xlink:href="#p"/><use transform="matrix(0.06172839506172839,0,0,0.06172839506172839,46.85185185185185,0)" xlink:href="#n"/><use transform="matrix(0.06172839506172839,0,0,0.06172839506172839,53.02469135802469,0)" xlink:href="#o"/></g><path fill="#3a414a" d="M141-36C126-15 110 5 73 4 37 3 15-17 15-53c-1-64 63-63 125-63 3-35-9-54-41-54-24 1-41 7-42 31l-33-3c5-37 33-52 76-52 45 0 72 20 72 64v82c-1 20 7 32 28 27v20c-31 9-61-2-59-35zM48-53c0 20 12 33 32 33 41-3 63-29 60-74-43 2-92-5-92 41" id="q"/><path fill="#3a414a" d="M84 4C-5 8 30-112 23-190h32v120c0 31 7 50 39 49 72-2 45-101 50-169h31l1 190h-30c-1-10 1-25-2-33-11 22-28 36-60 37" id="r"/><path fill="#3a414a" d="M24-231v-30h32v30H24zM24 0v-190h32V0H24" id="s"/><path fill="#3a414a" d="M96-169c-40 0-48 33-48 73s9 75 48 75c24 0 41-14 43-38l32 2c-6 37-31 61-74 61-59 0-76-41-82-99-10-93 101-131 147-64 4 7 5 14 7 22l-32 3c-4-21-16-35-41-35" id="t"/><path fill="#3a414a" d="M100-194c62-1 85 37 85 99 1 63-27 99-86 99S16-35 15-95c0-66 28-99 85-99zM99-20c44 1 53-31 53-75 0-43-8-75-51-75s-53 32-53 75 10 74 51 75" id="u"/><g id="b"><use transform="matrix(0.06172839506172839,0,0,0.06172839506172839,0,0)" xlink:href="#q"/><use transform="matrix(0.06172839506172839,0,0,0.06172839506172839,12.345679012345679,0)" xlink:href="#r"/><use transform="matrix(0.06172839506172839,0,0,0.06172839506172839,24.691358024691358,0)" xlink:href="#n"/><use transform="matrix(0.06172839506172839,0,0,0.06172839506172839,30.864197530864196,0)" xlink:href="#o"/><use transform="matrix(0.06172839506172839,0,0,0.06172839506172839,43.20987654320987,0)" xlink:href="#p"/><use transform="matrix(0.06172839506172839,0,0,0.06172839506172839,55.55555555555555,0)" xlink:href="#n"/><use transform="matrix(0.06172839506172839,0,0,0.06172839506172839,61.72839506172839,0)" xlink:href="#s"/><use transform="matrix(0.06172839506172839,0,0,0.06172839506172839,66.60493827160494,0)" xlink:href="#t"/><use transform="matrix(0.06172839506172839,0,0,0.06172839506172839,77.71604938271605,0)" xlink:href="#q"/><use transform="matrix(0.06172839506172839,0,0,0.06172839506172839,90.06172839506173,0)" xlink:href="#n"/><use transform="matrix(0.06172839506172839,0,0,0.06172839506172839,96.23456790123457,0)" xlink:href="#u"/></g><path fill="#3a414a" d="M135-143c-3-34-86-38-87 0 15 53 115 12 119 90S17 21 10-45l28-5c4 36 97 45 98 0-10-56-113-15-118-90-4-57 82-63 122-42 12 7 21 19 24 35" id="v"/><path fill="#3a414a" d="M85-194c31 0 48 13 60 33l-1-100h32l1 261h-30c-2-10 0-23-3-31C134-8 116 4 85 4 32 4 16-35 15-94c0-66 23-100 70-100zm9 24c-40 0-46 34-46 75 0 40 6 74 45 74 42 0 51-32 51-76 0-42-9-74-50-73" id="w"/><path fill="#3a414a" d="M114-163C36-179 61-72 57 0H25l-1-190h30c1 12-1 29 2 39 6-27 23-49 58-41v29" id="x"/><g id="c"><use transform="matrix(0.06172839506172839,0,0,0.06172839506172839,0,0)" xlink:href="#v"/><use transform="matrix(0.06172839506172839,0,0,0.06172839506172839,11.11111111111111,0)" xlink:href="#n"/><use transform="matrix(0.06172839506172839,0,0,0.06172839506172839,17.28395061728395,0)" xlink:href="#q"/><use transform="matrix(0.06172839506172839,0,0,0.06172839506172839,29.629629629629626,0)" xlink:href="#p"/><use transform="matrix(0.06172839506172839,0,0,0.06172839506172839,41.9753086419753,0)" xlink:href="#w"/><use transform="matrix(0.06172839506172839,0,0,0.06172839506172839,54.32098765432098,0)" xlink:href="#q"/><use transform="matrix(0.06172839506172839,0,0,0.06172839506172839,66.66666666666666,0)" xlink:href="#x"/><use transform="matrix(0.06172839506172839,0,0,0.06172839506172839,74.01234567901234,0)" xlink:href="#w"/></g><path d="M101-234c-31-9-42 10-38 44h38v23H63V0H32v-167H5v-23h27c-7-52 17-82 69-68v24" id="y"/><path d="M24-231v-30h32v30H24zM24 0v-190h32V0H24" id="z"/><path d="M24 0v-261h32V0H24" id="A"/><path d="M59-47c-2 24 18 29 38 22v24C64 9 27 4 27-40v-127H5v-23h24l9-43h21v43h35v23H59v120" id="B"/><path d="M114-163C36-179 61-72 57 0H25l-1-190h30c1 12-1 29 2 39 6-27 23-49 58-41v29" id="C"/><path d="M141-36C126-15 110 5 73 4 37 3 15-17 15-53c-1-64 63-63 125-63 3-35-9-54-41-54-24 1-41 7-42 31l-33-3c5-37 33-52 76-52 45 0 72 20 72 64v82c-1 20 7 32 28 27v20c-31 9-61-2-59-35zM48-53c0 20 12 33 32 33 41-3 63-29 60-74-43 2-92-5-92 41" id="D"/><path d="M100-194c63 0 86 42 84 106H49c0 40 14 67 53 68 26 1 43-12 49-29l28 8c-11 28-37 45-77 45C44 4 14-33 15-96c1-61 26-98 85-98zm52 81c6-60-76-77-97-28-3 7-6 17-6 28h103" id="E"/><g id="d"><use transform="matrix(0.05,0,0,0.05,0,0)" xlink:href="#y"/><use transform="matrix(0.05,0,0,0.05,5,0)" xlink:href="#z"/><use transform="matrix(0.05,0,0,0.05,8.95,0)" xlink:href="#A"/><use transform="matrix(0.05,0,0,0.05,12.899999999999999,0)" xlink:href="#B"/><use transform="matrix(0.05,0,0,0.05,17.9,0)" xlink:href="#C"/><use transform="matrix(0.05,0,0,0.05,23.849999999999998,0)" xlink:href="#D"/><use transform="matrix(0.05,0,0,0.05,33.849999999999994,0)" xlink:href="#C"/><use transform="matrix(0.05,0,0,0.05,39.8,0)" xlink:href="#E"/></g><path d="M96-169c-40 0-48 33-48 73s9 75 48 75c24 0 41-14 43-38l32 2c-6 37-31 61-74 61-59 0-76-41-82-99-10-93 101-131 147-64 4 7 5 14 7 22l-32 3c-4-21-16-35-41-35" id="F"/><path d="M117-194c89-4 53 116 60 194h-32v-121c0-31-8-49-39-48C34-167 62-67 57 0H25l-1-190h30c1 10-1 24 2 32 11-22 29-35 61-36" id="G"/><path d="M85-194c31 0 48 13 60 33l-1-100h32l1 261h-30c-2-10 0-23-3-31C134-8 116 4 85 4 32 4 16-35 15-94c0-66 23-100 70-100zm9 24c-40 0-46 34-46 75 0 40 6 74 45 74 42 0 51-32 51-76 0-42-9-74-50-73" id="H"/><g id="e"><use transform="matrix(0.05,0,0,0.05,0,0)" xlink:href="#F"/><use transform="matrix(0.05,0,0,0.05,9,0)" xlink:href="#D"/><use transform="matrix(0.05,0,0,0.05,19,0)" xlink:href="#A"/><use transform="matrix(0.05,0,0,0.05,22.95,0)" xlink:href="#E"/><use transform="matrix(0.05,0,0,0.05,32.95,0)" xlink:href="#G"/><use transform="matrix(0.05,0,0,0.05,42.95,0)" xlink:href="#H"/><use transform="matrix(0.05,0,0,0.05,52.95,0)" xlink:href="#D"/><use transform="matrix(0.05,0,0,0.05,62.95,0)" xlink:href="#C"/><use transform="matrix(0.05,0,0,0.05,68.9,0)" xlink:href="#z"/></g><path d="M108 0H70L1-190h34L89-25l56-165h34" id="I"/><path d="M135-143c-3-34-86-38-87 0 15 53 115 12 119 90S17 21 10-45l28-5c4 36 97 45 98 0-10-56-113-15-118-90-4-57 82-63 122-42 12 7 21 19 24 35" id="J"/><path d="M84 4C-5 8 30-112 23-190h32v120c0 31 7 50 39 49 72-2 45-101 50-169h31l1 190h-30c-1-10 1-25-2-33-11 22-28 36-60 37" id="K"/><path d="M9 0v-24l116-142H16v-24h144v24L44-24h123V0H9" id="L"/><g id="f"><use transform="matrix(0.04691358024691358,0,0,0.04691358024691358,0,0)" xlink:href="#I"/><use transform="matrix(0.04691358024691358,0,0,0.04691358024691358,8.444444444444445,0)" xlink:href="#z"/><use transform="matrix(0.04691358024691358,0,0,0.04691358024691358,12.150617283950618,0)" xlink:href="#J"/><use transform="matrix(0.04691358024691358,0,0,0.04691358024691358,20.595061728395063,0)" xlink:href="#K"/><use transform="matrix(0.04691358024691358,0,0,0.04691358024691358,29.97777777777778,0)" xlink:href="#D"/><use transform="matrix(0.04691358024691358,0,0,0.04691358024691358,39.3604938271605,0)" xlink:href="#A"/><use transform="matrix(0.04691358024691358,0,0,0.04691358024691358,43.06666666666667,0)" xlink:href="#z"/><use transform="matrix(0.04691358024691358,0,0,0.04691358024691358,46.77283950617284,0)" xlink:href="#L"/><use transform="matrix(0.04691358024691358,0,0,0.04691358024691358,55.217283950617286,0)" xlink:href="#L"/><use transform="matrix(0.04691358024691358,0,0,0.04691358024691358,63.66172839506173,0)" xlink:href="#D"/><use transform="matrix(0.04691358024691358,0,0,0.04691358024691358,73.04444444444445,0)" xlink:href="#C"/><use transform="matrix(0.04691358024691358,0,0,0.04691358024691358,78.62716049382716,0)" xlink:href="#E"/></g><g id="g"><use transform="matrix(0.04691358024691358,0,0,0.04691358024691358,0,0)" xlink:href="#F"/><use transform="matrix(0.04691358024691358,0,0,0.04691358024691358,8.444444444444445,0)" xlink:href="#D"/><use transform="matrix(0.04691358024691358,0,0,0.04691358024691358,17.82716049382716,0)" xlink:href="#A"/><use transform="matrix(0.04691358024691358,0,0,0.04691358024691358,21.533333333333335,0)" xlink:href="#E"/><use transform="matrix(0.04691358024691358,0,0,0.04691358024691358,30.91604938271605,0)" xlink:href="#G"/><use transform="matrix(0.04691358024691358,0,0,0.04691358024691358,40.29876543209877,0)" xlink:href="#H"/><use transform="matrix(0.04691358024691358,0,0,0.04691358024691358,49.681481481481484,0)" xlink:href="#D"/><use transform="matrix(0.04691358024691358,0,0,0.04691358024691358,59.0641975308642,0)" xlink:href="#C"/><use transform="matrix(0.04691358024691358,0,0,0.04691358024691358,64.64691358024692,0)" xlink:href="#z"/></g><path d="M115-194c55 1 70 41 70 98S169 2 115 4C84 4 66-9 55-30l1 105H24l-1-265h31l2 30c10-21 28-34 59-34zm-8 174c40 0 45-34 45-75s-6-73-45-74c-42 0-51 32-51 76 0 43 10 73 51 73" id="M"/><path d="M100-194c62-1 85 37 85 99 1 63-27 99-86 99S16-35 15-95c0-66 28-99 85-99zM99-20c44 1 53-31 53-75 0-43-8-75-51-75s-53 32-53 75 10 74 51 75" id="N"/><g id="h"><use transform="matrix(0.04691358024691358,0,0,0.04691358024691358,0,0)" xlink:href="#M"/><use transform="matrix(0.04691358024691358,0,0,0.04691358024691358,9.382716049382717,0)" xlink:href="#E"/><use transform="matrix(0.04691358024691358,0,0,0.04691358024691358,18.765432098765434,0)" xlink:href="#C"/><use transform="matrix(0.04691358024691358,0,0,0.04691358024691358,24.348148148148148,0)" xlink:href="#J"/><use transform="matrix(0.04691358024691358,0,0,0.04691358024691358,32.79259259259259,0)" xlink:href="#N"/><use transform="matrix(0.04691358024691358,0,0,0.04691358024691358,42.175308641975306,0)" xlink:href="#G"/><use transform="matrix(0.04691358024691358,0,0,0.04691358024691358,51.558024691358014,0)" xlink:href="#D"/><use transform="matrix(0.04691358024691358,0,0,0.04691358024691358,60.940740740740736,0)" xlink:href="#A"/><use transform="matrix(0.04691358024691358,0,0,0.04691358024691358,64.6469135802469,0)" xlink:href="#z"/></g><g id="i"><use transform="matrix(0.05,0,0,0.05,0,0)" xlink:href="#I"/><use transform="matrix(0.05,0,0,0.05,9,0)" xlink:href="#z"/><use transform="matrix(0.05,0,0,0.05,12.949999999999998,0)" xlink:href="#J"/><use transform="matrix(0.05,0,0,0.05,21.95,0)" xlink:href="#K"/><use transform="matrix(0.05,0,0,0.05,31.950000000000003,0)" xlink:href="#D"/><use transform="matrix(0.05,0,0,0.05,41.95,0)" xlink:href="#A"/><use transform="matrix(0.05,0,0,0.05,45.900000000000006,0)" xlink:href="#z"/><use transform="matrix(0.05,0,0,0.05,49.85000000000001,0)" xlink:href="#L"/><use transform="matrix(0.05,0,0,0.05,58.85,0)" xlink:href="#L"/><use transform="matrix(0.05,0,0,0.05,67.85000000000001,0)" xlink:href="#D"/><use transform="matrix(0.05,0,0,0.05,77.85000000000001,0)" xlink:href="#C"/><use transform="matrix(0.05,0,0,0.05,83.80000000000001,0)" xlink:href="#E"/></g><g id="j"><use transform="matrix(0.05,0,0,0.05,0,0)" xlink:href="#F"/><use transform="matrix(0.05,0,0,0.05,9,0)" xlink:href="#D"/><use transform="matrix(0.05,0,0,0.05,19,0)" xlink:href="#A"/><use transform="matrix(0.05,0,0,0.05,22.95,0)" xlink:href="#E"/><use transform="matrix(0.05,0,0,0.05,32.95,0)" xlink:href="#G"/><use transform="matrix(0.05,0,0,0.05,42.95,0)" xlink:href="#H"/><use transform="matrix(0.05,0,0,0.05,52.95,0)" xlink:href="#D"/><use transform="matrix(0.05,0,0,0.05,62.95,0)" xlink:href="#C"/><use transform="matrix(0.05,0,0,0.05,68.9,0)" xlink:href="#z"/></g><g id="k"><use transform="matrix(0.05,0,0,0.05,0,0)" xlink:href="#F"/><use transform="matrix(0.05,0,0,0.05,9,0)" xlink:href="#N"/><use transform="matrix(0.05,0,0,0.05,19,0)" xlink:href="#G"/><use transform="matrix(0.05,0,0,0.05,29,0)" xlink:href="#H"/><use transform="matrix(0.05,0,0,0.05,39,0)" xlink:href="#z"/><use transform="matrix(0.05,0,0,0.05,42.95,0)" xlink:href="#I"/><use transform="matrix(0.05,0,0,0.05,51.95,0)" xlink:href="#z"/><use transform="matrix(0.05,0,0,0.05,55.900000000000006,0)" xlink:href="#J"/><use transform="matrix(0.05,0,0,0.05,64.9,0)" xlink:href="#z"/></g><path fill="#333" d="M15-91v-56l181-69v40L49-119l147 57v40" id="O"/><path fill="#333" d="M25-224v-37h50v37H25zM25 0v-190h50V0H25" id="P"/><path fill="#333" d="M135-194c87-1 58 113 63 194h-50c-7-57 23-157-34-157-59 0-34 97-39 157H25l-1-190h47c2 12-1 28 3 38 12-26 28-41 61-42" id="Q"/><path fill="#333" d="M190-63c-7 42-38 67-86 67-59 0-84-38-90-98-12-110 154-137 174-36l-49 2c-2-19-15-32-35-32-30 0-35 28-38 64-6 74 65 87 74 30" id="R"/><path fill="#333" d="M25 0v-261h50V0H25" id="S"/><path fill="#333" d="M85 4C-2 5 27-109 22-190h50c7 57-23 150 33 157 60-5 35-97 40-157h50l1 190h-47c-2-12 1-28-3-38-12 25-28 42-61 42" id="T"/><path fill="#333" d="M88-194c31-1 46 15 58 34l-1-101h50l1 261h-48c-2-10 0-23-3-31C134-8 116 4 84 4 32 4 16-41 15-95c0-56 19-97 73-99zm17 164c33 0 40-30 41-66 1-37-9-64-41-64s-38 30-39 65c0 43 13 65 39 65" id="U"/><path fill="#333" d="M185-48c-13 30-37 53-82 52C43 2 14-33 14-96s30-98 90-98c62 0 83 45 84 108H66c0 31 8 55 39 56 18 0 30-7 34-22zm-45-69c5-46-57-63-70-21-2 6-4 13-4 21h74" id="V"/><path fill="#333" d="M15-22v-40l146-57-146-57v-40l181 69v56" id="W"/><g id="l"><use transform="matrix(0.04938271604938272,0,0,0.04938271604938272,0,0)" xlink:href="#O"/><use transform="matrix(0.04938271604938272,0,0,0.04938271604938272,10.370370370370372,0)" xlink:href="#P"/><use transform="matrix(0.04938271604938272,0,0,0.04938271604938272,15.308641975308642,0)" xlink:href="#Q"/><use transform="matrix(0.04938271604938272,0,0,0.04938271604938272,26.12345679012346,0)" xlink:href="#R"/><use transform="matrix(0.04938271604938272,0,0,0.04938271604938272,36,0)" xlink:href="#S"/><use transform="matrix(0.04938271604938272,0,0,0.04938271604938272,40.93827160493827,0)" xlink:href="#T"/><use transform="matrix(0.04938271604938272,0,0,0.04938271604938272,51.75308641975309,0)" xlink:href="#U"/><use transform="matrix(0.04938271604938272,0,0,0.04938271604938272,62.567901234567906,0)" xlink:href="#V"/><use transform="matrix(0.04938271604938272,0,0,0.04938271604938272,72.44444444444446,0)" xlink:href="#W"/></g></defs></g></svg>