<svg xmlns="http://www.w3.org/2000/svg" xmlns:xlink="http://www.w3.org/1999/xlink" xmlns:lucid="lucid" width="1331.02" height="1320"><g transform="translate(-160 -100)" lucid:page-tab-id="99t6mrEsXCkB"><path d="M590 460.25c0 10.9-8.83 19.75-19.74 19.75-10.9 0-19.75-8.84-19.75-19.75 0-10.9 8.85-19.75 19.76-19.75 10.9 0 19.75 8.84 19.75 19.75z" stroke="#3a414a" fill="#fff"/><path d="M570.26 480v49.3a20.7 20.7 0 0 0 3.2 11.07l36.8 58.13m-40-63.2l-40 63.2m0-98.75h80" stroke="#3a414a" fill="none"/><path d="M530.26 446.5a6 6 0 0 1 6-6h68a6 6 0 0 1 6 6v168a6 6 0 0 1-6 6h-68a6 6 0 0 1-6-6z" fill="none"/><use xlink:href="#a" transform="matrix(1,0,0,1,450.2578727039736,598.5000042769698) translate(87.31481481481481 17.77777777777778)"/><use xlink:href="#b" transform="matrix(1,0,0,1,450.2578727039736,598.5000042769698) translate(44.10493827160494 44.44444444444444)"/><use xlink:href="#c" transform="matrix(1,0,0,1,450.2578727039736,598.5000042769698) translate(87.31481481481481 44.44444444444444)"/><use xlink:href="#d" transform="matrix(1,0,0,1,450.2578727039736,598.5000042769698) translate(120 71.11111111111111)"/><path d="M827.12 530.5c0 33.14-35.82 60-80 60-44.2 0-80-26.86-80-60s35.8-60 80-60c44.18 0 80 26.86 80 60z" stroke="#3a414a" fill="#fff"/><use xlink:href="#e" transform="matrix(1,0,0,1,667.1154861308737,470.5000042769698) translate(36.58 40.65)"/><use xlink:href="#f" transform="matrix(1,0,0,1,667.1154861308737,470.5000042769698) translate(46.57999999999999 62.25)"/><use xlink:href="#g" transform="matrix(1,0,0,1,667.1154861308737,470.5000042769698) translate(53.004999999999995 83.85000000000001)"/><path d="M340 180c0 33.14-35.82 60-80 60s-80-26.86-80-60 35.82-60 80-60 80 26.86 80 60z" stroke="#3a414a" fill="#fff"/><use xlink:href="#h" transform="matrix(1,0,0,1,180,120) translate(23.12999999999999 51.9)"/><use xlink:href="#i" transform="matrix(1,0,0,1,180,120) translate(122.93 51.9)"/><use xlink:href="#j" transform="matrix(1,0,0,1,180,120) translate(41.62999999999999 73.5)"/><path d="M533.78 180c0 33.14-35.82 60-80 60-44.2 0-80-26.86-80-60s35.8-60 80-60c44.18 0 80 26.86 80 60z" stroke="#3a414a" fill="#fff"/><use xlink:href="#k" transform="matrix(1,0,0,1,373.77501090084047,120) translate(10.679999999999987 63.15)"/><use xlink:href="#l" transform="matrix(1,0,0,1,373.77501090084047,120) translate(94.53 63.15)"/><path d="M1308.88 180c0 33.14-35.82 60-80 60-44.2 0-80-26.86-80-60s35.8-60 80-60c44.18 0 80 26.86 80 60z" stroke="#3a414a" fill="#fff"/><use xlink:href="#m" transform="matrix(1,0,0,1,1148.8750545042021,120) translate(61.055 63.15)"/><path d="M727.55 180c0 33.14-35.82 60-80 60s-80-26.86-80-60 35.82-60 80-60 80 26.86 80 60z" stroke="#3a414a" fill="#fff"/><use xlink:href="#n" transform="matrix(1,0,0,1,567.5500218016809,120) translate(21.07999999999999 51.9)"/><use xlink:href="#o" transform="matrix(1,0,0,1,567.5500218016809,120) translate(84.93 51.9)"/><use xlink:href="#p" transform="matrix(1,0,0,1,567.5500218016809,120) translate(50.055 73.5)"/><path d="M921.33 180c0 33.14-35.82 60-80 60-44.2 0-80-26.86-80-60s35.8-60 80-60c44.18 0 80 26.86 80 60z" stroke="#3a414a" fill="#fff"/><use xlink:href="#q" transform="matrix(1,0,0,1,761.3250327025213,120) translate(34.57999999999999 63.15)"/><path d="M1115.1 180c0 33.14-35.82 60-80 60s-80-26.86-80-60 35.82-60 80-60 80 26.86 80 60z" stroke="#3a414a" fill="#fff"/><use xlink:href="#r" transform="matrix(1,0,0,1,955.1000436033617,120) translate(27.07999999999999 51.9)"/><use xlink:href="#s" transform="matrix(1,0,0,1,955.1000436033617,120) translate(47.254999999999995 73.5)"/><path d="M666.12 530.5H571.3" stroke="#3a414a" fill="none"/><path d="M666.62 530.5v.5h-.52v-1h.53z" stroke="#3a414a" stroke-width=".05" fill="#3a414a"/><path d="M571.3 530.5h-3.5" stroke="#3a414a" fill="none"/><path d="M747.62 453.62h-1v-1.48h1zm0-3.45h-1v-2.95h1zm0-4.92h-1v-2.95h1zm-.02-4.92h-1v-2.95h1zm0-4.92h-1v-2.94h1zm0-4.9h-1v-2.96h1zm0-4.93h-1v-2.95h1zm0-4.92h-1v-2.95h1zm-.02-4.92h-1v-2.95h1zm0-4.92l-1 .02v-2.96h1zm0-4.9h-1v-2.96h1zm0-4.93h-1v-2.95h1zm0-4.9h-1v-2.97h1zm-.02-4.93h-1v-2.96h1zm0-4.92h-1v-2.96h1zm0-4.92h-1v-2.95h1zm0-4.92h-1v-2.95h1zm0-4.92h-1l-.02-2.95h1zm-.26-7.47l.24 1v1.54h-1v-1.42l-.2-.82-.1-.27.92-.38zm-2.36-3.26l.77.66.56.64-.76.65-.5-.6-.65-.55-.65-.4.52-.85zm-3.8-1.24l1 .08.35.08-.24.98-.28-.07-.88-.07h-1.5v-1zm-3.53 0v1h-3v-1zm-5 0v1h-3v-1zm-5 0v1h-3.02v-1zm-5.03 0v1h-3v-1zm-5 0v1h-3v-1zm-5.02 0v1h-3v-1zm-5 0v1h-3.02v-1zm-5.02 0v1h-3v-1zm-5 0v1h-3.02v-1zm-5.02 0v1h-3v-1zm-5 0v1h-3v-1zm-5 0v1h-3.02v-1zm-5.03 0v1h-3v-1zm-5 0v1h-3v-1zm-5.02 0v1h-3v-1zm-5 0v1h-3.02v-1zm-5.02 0v1h-3v-1zm-5 0v1h-3.02v-1zm-5.02 0v1l-3-.02v-1zm-5-.02v1h-3v-1zm-5 0v1h-3.02v-1zm-5.03 0v1h-3v-1zm-5 0v1h-3v-1zm-5.02 0v1h-3v-1zm-5 0v1h-3.02v-1zm-5.02 0v1h-3v-1zm-5 0v1h-3.02v-1zm-5.02 0v1h-3v-1zm-5 0v1h-3v-1zm-5 0v1h-3.02v-1zm-5.03 0v1h-3v-1zm-5 0v1h-3v-1zm-5.02 0v1h-3v-1zm-5 0v1h-3.02v-1zm-5.02 0v1h-3v-1zm-5 0v1h-3.02v-1zm-5.02 0v1h-3v-1zm-5 0v1h-3v-1zm-5 0v1h-3.02v-1zm-5.02 0v1h-3v-1zm-5.02 0v1h-3v-1zm-5 0v1h-3v-1zm-5.02 0v1h-3v-1zm-5 0v1h-3.02v-1zm-5.02 0v1l-3-.02v-1zm-5-.02v1h-3.02v-1zm-5.02 0v1h-3v-1zm-5 0v1h-3.02v-1zm-5.02 0v1h-3v-1zm-5.02 0v1h-3v-1zm-5 0v1h-3v-1zm-5.02 0v1h-3v-1zm-5 0v1H474v-1zm-5.02 0v1h-3v-1zm-5 0v1H464v-1zm-5.02 0v1h-3v-1zm-5 0v1h-3.02v-1zm-5.02 0v1h-3v-1zm-5.02 0v1h-3v-1zm-5 0v1h-3v-1zm-5.02 0v1h-3v-1zm-5 0v1h-3.02v-1zm-5.02 0v1h-3v-1zm-5 0v1h-3.02v-1zm-5.02 0v1h-3v-1zm-5 0v1h-3.02v-1zm-5.02 0v1h-3v-1zm-5.02 0v1h-3v-1zm-5 0v1h-3v-1zm-5.02 0v1h-3v-1zm-5 0v1l-3.02-.02v-1zm-5.02-.02v1h-3v-1zm-5 0v1h-3.02v-1zm-5.02 0v1h-3v-1zm-5 0v1h-3.02v-1zm-5.02 0v1h-3v-1zm-5.02 0v1h-3v-1zm-5 0v1h-3v-1zm-5.02 0v1h-3v-1zm-5 0v1h-3.02v-1zm-5.02 0v1h-3v-1zm-5 0v1h-3.02v-1zm-5.02 0v1h-3v-1zm-5 0v1h-3.02v-1zm-5.02 0v1h-3v-1zm-5.02 0v1h-3v-1zm-5 0v1h-3v-1zm-5.02 0v1h-3v-1zm-5 0v1h-3.02v-1zm-5.02 0v1h-3v-1zm-5 0v1h-3.02v-1zm-5.02 0v1h-3v-1zm-5 0v1h-3.02v-1zm-5.02 0v1h-3v-1zm-7.28-.2l.82.2h1.44v1H265l-1-.26-.35-.14.38-.92zm-2.75-2l.56.65.6.48-.66.76-.64-.54-.66-.78-.44-.7.85-.54zm-1.05-3.26l.07.88.07.28-.98.24-.08-.36-.08-1v-1.5h1zm0-3.42h-1v-2.95h1zm0-4.9h-1v-2.96h1zm0-4.93h-1v-2.94h1zm0-4.9h-1v-2.96h1zm0-4.92h-1v-2.94h1zm0-4.9h-1v-2.95h1zm0-4.92h-1v-2.95h1zm0-4.9h-1v-2.96h1zm0-4.92h-1v-2.95h1zm0-4.92h-1v-2.94h1zm0-4.9h-1v-.28h1zm0-21.62h-1v-1h1zm0-2.95h-1v-2.95h1zm0-4.92h-1V269h1zm0-4.9h-1v-2.96h1zm0-4.92h-1v-2.95h1zm0-4.92h-1v-2.93h1zm0-4.9h-1v-2.95h1zm0-4.9h-1v-2.96h1zm0-4.93h-1V241h1z" stroke="#3a414a" stroke-width=".05" fill="#3a414a"/><path d="M260 240.5h.5v.5h-1v-.52z" fill="#3a414a"/><path d="M260 240.48h.52v.56h-1.04v-.58zm-.48.5h.96v-.46h-.96z" stroke="#3a414a" stroke-width=".05" fill="#3a414a"/><path d="M747.12 468.38l-4.64-14.26h9.27z" fill="#3a414a"/><path d="M747.12 470l-5.33-16.38h10.64zm-3.95-15.38l3.95 12.14 3.94-12.14z" stroke="#3a414a" stroke-width=".05" fill="#3a414a"/><use xlink:href="#t" transform="matrix(1,0,0,1,221.06172839506172,279.82199630952647) translate(0.005000000000002558 14.222222222222223)"/><path d="M747.62 468v1.5h-1V468zm0-4.96v2.98h-1v-3zm0-4.98v3h-1v-3zm0-4.97v2.97h-1v-2.98zm0-4.98v2.98h-1v-3zm0-4.98v3h-1v-3zm.02-4.97v2.98h-1v-2.98zm0-4.97v2.98h-1v-3zm0-4.98v3h-1v-3zm0-4.97v2.98h-1v-2.98zm0-4.97v2.98h-1v-3zm.02-4.98v3h-1v-3zm0-4.97v2.98h-1v-2.97zm0-4.97v2.98h-1v-2.98zm0-4.98v3h-1v-3zm0-4.97v3h-1v-3zm0-4.96v2.98h-1v-2.98zm.02-4.98v3h-1v-3zm0-4.97v2.97h-1v-2.98zm0-4.98v2.98h-1v-2.98zm0-4.98v3h-1v-3zm.32-4.5l-.1.26-.2.82v1.43h-1V365l.23-1 .14-.35zm2.53-2.9l-.65.4-.65.57-.5.6-.76-.66.55-.64.77-.66.7-.44zm4.1-.64h-1.5l-.87.07-.3.07-.22-.98.36-.08 1-.08h1.53zm5.03 0h-3.02v-1h3.02zm5.04 0h-3.02v-1h3.02zm5.03 0h-3.02v-1h3.03zm5.04 0h-3.03v-1h3.03zm5.03 0h-3.02v-1h3.02zm5.04 0h-3.03v-1h3.04zm5.03 0h-3.02v-1h3.02zm5.04 0h-3.02v-1h3.03zm5.04 0h-3.02v-1h3.02zm5.04 0h-3.03v-1h3.03zm5.03-.02h-3v-1h3zm5.05 0h-3.03v-1h3.03zm5.03 0h-3.02v-1h3.02zm5.04 0h-3.03v-1h3.02zm5.03 0h-3.02v-1h3.02zm5.04 0h-3.04v-1h3.03zm5.02 0h-3.02v-1h3.02zm5.04 0h-3.03v-1h3.03zm5.03 0h-3.03v-1h3.02zm5.03 0h-3.03v-1h3.03zm5.03 0h-3.02v-1h3.02zm5.04 0h-3.03v-1h3.03zm5.03 0h-3.02v-1h3.03zm5.04 0h-3.03v-1h3.03zm5.03 0h-3.02v-1h3.02zm5.04-.02h-3.03v-1h3.03zm5.03 0h-3.02v-1h3.02zm5.04 0h-3.02v-1h3.02zm5.04 0h-3.02v-1h3.02zm5.04 0h-3.03v-1h3.02zm5.03 0h-3v-1h3zm5.05 0h-3.03v-1h3.02zm5.03 0h-3.02v-1h3.02zm5.03 0h-3v-1h3zm5.05 0h-3.02v-1h3.02zm5.03 0h-3.02v-1h3.02zm5.04 0h-3.02v-1h3.02zm5.03 0h-3.02v-1h3.02zm5.04 0h-3.03v-1H951zm5.02 0H953v-1h3.02zm5.04-.02h-3.02v-1h3.02zm5.03 0h-3.03v-1h3.02zm5.03 0h-3.02v-1h3.03zm5.03 0h-3.02v-1h3.02zm5.04 0h-3.02v-1h3.02zm5.03 0h-3.02v-1h3.03zm5.04 0h-3.02v-1h3.02zm5.03 0h-3.02v-1h3.02zm5.04 0h-3.02v-1h3.02zm5.03 0h-3.02v-1h3.02zm5.04 0h-3v-1h3zm5.04 0h-3.02v-1h3.02zm5.04 0h-3.02v-1h3.02zm5.03 0h-3v-1h3zm4.95-.4l-.34.14-1 .25h-1.57v-1h1.45l.82-.2.27-.1zm3.35-2.93l-.44.72-.66.78-.64.54-.65-.76.6-.5.55-.65.4-.65zm.8-3.08l-.08 1-.08.36-.98-.24.07-.28.07-.88v-1.45h1zm0-3.46h-1v-2.95h1zm0-4.9h-1v-2.96h1zm0-4.93h-1v-2.94h1zm0-4.9h-1v-2.96h1zm0-4.92h-1v-2.94h1zm0-4.9h-1v-2.95h1zm0-4.92h-1v-2.95h1zm0-4.9h-1v-2.96h1zm0-4.92h-1v-2.95h1zm0-4.92h-1v-2.94h1zm0-4.9h-1v-2.96h1zm0-4.92h-1v-2.95h1zm0-4.92h-1v-2.84h1zm0-24.56h-1v-2.95h1zm0-4.9h-1v-2.96h1zm0-4.93h-1v-2.93h1zm0-4.9h-1v-2.95h1zm0-4.9h-1v-2.96h1zm0-4.93h-1V241h1z" stroke="#3a414a" stroke-width=".05" fill="#3a414a"/><path d="M1035.1 240.5h.5v.5h-1v-.52z" fill="#3a414a"/><path d="M1035.1 240.48h.53v.56h-1.05v-.58zm-.47.5h.95v-.46h-.95z" stroke="#3a414a" stroke-width=".05" fill="#3a414a"/><path d="M747.62 470.02l-.5-.02h-.5v-.5h1z" fill="#3a414a"/><path d="M747.64 470.04l-.52-.02h-.53v-.56h1.04zm-1-.53v.48h.95v-.47z" stroke="#3a414a" stroke-width=".05" fill="#3a414a"/><use xlink:href="#t" transform="matrix(1,0,0,1,996.1617719984233,267.42967928402544) translate(0.005000000000002558 14.222222222222223)"/><path d="M829.64 531h-1.52v-1h1.52zm5.06 0h-3.04v-1h3.04zm5.07 0h-3.04v-1h3.04zm5.07 0h-3.04v-1h3.04zm5.07 0h-3.03v-1h3.04zm2.84 0h-.8v-1h.8zm83.3-.06h-.48v-1h.5zm5.08 0h-3.04v-1h3.04zm5.07 0h-3.05v-1h3.04zm5.06 0h-3.04v-1h3.04zm5.06 0h-3.04v-1h3.04zm5.07 0h-3.05v-1h3.04zm4.95-.4l-.34.14-1 .25h-1.58v-1h1.46l.82-.2.27-.1zm3.35-2.93l-.44.72-.66.78-.64.54-.65-.76.6-.5.55-.65.4-.65zm.8-4.6v1.52l-.08 1-.08.36-.98-.24.07-.28.07-.88V523zm0-4.96v2.98h-1v-2.98zm0-4.97v2.98h-1v-2.98zm0-4.97v2.98h-1v-2.98zm.02-4.97v3l-1-.02v-2.97zm0-4.96v2.98h-1v-3zm0-4.97v2.98h-1v-2.98zm0-4.97v2.98h-1v-2.97zm0-4.97v2.98h-1v-2.98zm.02-4.97v2.97h-1v-2.98zm0-4.98v2.98h-1v-2.98zm0-4.97v2.98h-1v-2.98zm0-4.97v3l-1-.02v-2.98zm0-4.96v2.98h-1v-3zm.02-4.97v2.98h-1v-2.98zm0-4.97v2.98h-1v-2.98zm0-4.97v3h-1v-3zm0-4.96v2.98h-1v-2.98zm.32-4.5l-.1.26-.2.82v1.43h-1V435l.24-1 .14-.35zm2.54-2.9l-.65.4-.66.57-.48.6-.76-.66.54-.64.78-.66.7-.44zm4.07-.64H976l-.88.07-.28.07-.24-.98.36-.08 1-.08h1.5zm4.94 0h-2.97v-1h2.97zm4.96 0h-2.97v-1h2.97zm4.96 0h-2.98v-1h2.98zm4.95 0h-2.96v-1h2.97zm4.97 0h-2.98v-1h2.97zm4.95 0h-2.97v-1h2.97zm4.96 0h-2.97v-1h2.98zm4.96 0h-2.98v-1h2.98zm4.95 0h-2.98v-1h2.97zm4.95-.02h-2.97v-1h2.97zm4.96 0h-2.97v-1h2.98zm4.96 0H1034v-1h2.96zm4.96 0h-2.98v-1h2.98zm4.95 0h-2.97v-1h2.97zm4.96 0h-2.97v-1h2.97zm4.96 0h-3v-1h3zm4.94 0h-2.97v-1h2.97zm4.96 0h-2.97v-1h2.97zm4.96 0h-2.98v-1h2.98zm4.95 0h-2.96v-1h2.97zm4.97 0h-2.97v-1h2.97zm4.96 0h-2.98v-1h2.97zm4.95 0h-2.97v-1h2.98zm4.96-.02h-2.98v-1h2.98zm4.95 0h-2.98v-1h2.97zm4.95 0h-2.97v-1h2.97zm4.96 0h-2.97v-1h2.98zm4.96 0h-2.97v-1h2.96zm4.96 0h-2.97v-1h2.97zm4.96 0h-2.98v-1h2.97zm4.95 0h-2.97v-1h2.97zm4.96 0h-3v-1h3zm4.94 0h-2.97v-1h2.97zm4.96 0h-2.97v-1h2.97zm4.96 0h-2.98v-1h2.98zm4.95 0h-2.96v-1h2.97zm4.97-.02h-2.97v-1h2.97zm4.96 0h-2.98v-1h2.98zm4.95 0h-2.97v-1h2.98zm4.96 0h-2.98v-1h2.98zm4.95 0h-2.98v-1h2.97zm4.95 0h-2.97v-1h2.97zm4.96 0h-2.97v-1h2.98zm4.96 0h-2.97v-1h2.96zm4.96 0h-2.97v-1h2.97zm4.96 0h-2.98v-1h2.98zm4.95 0h-2.97v-1h2.97zm4.96 0h-3v-1h3zm4.94 0h-2.97v-1h2.97zm4.88-.4l-.34.14-1 .25h-1.55v-1h1.42l.82-.2.27-.1zm3.35-2.93l-.44.72-.66.78-.64.54-.65-.76.58-.5.56-.65.4-.65zm.8-3.08l-.07 1-.1.36-.96-.24.07-.28.08-.88v-1.5h1zm0-3.56h-1v-3.04h1zm0-5.07h-1v-3.05h1zm0-5.07h-1v-3.04h1zm0-5.07h-1v-3.04h1zm0-5.06h-1v-3.04h1zm0-5.07h-1v-3.03h1zm0-5.06h-1v-3.04h1zm0-5.06h-1v-3.03h1zm0-5.06h-1v-3.04h1zm0-5.06h-1v-3.04h1zm0-5.07h-1v-3.02h1zm0-5.05h-1v-3.04h1zm0-5.06h-1v-3.05h1zm0-5.08h-1v-3.04h1zm0-5.06h-1v-3.04h1zm0-5.07h-1v-3.05h1zm0-5.07h-1v-3.04h1zm0-5.07h-1v-3.03h1zm0-5.06h-1v-3.04h1zm0-5.06h-1v-3.04h1zm0-5.07h-1v-3.04h1zm0-5.06h-1v-3.03h1zm0-5.06h-1V306h1zm0-5.06h-1v-3.04h1zm0-5.06h-1v-3.04h1zm0-5.07h-1v-3.04h1zm0-5.06h-1v-3.05h1zm0-5.08h-1v-3.03h1zm0-5.06h-1v-3.04h1zm0-5.06h-1v-3.04h1zm0-5.07h-1v-3.04h1zm0-5.06h-1v-3.04h1zm0-5.07h-1v-1.52h1z" stroke="#3a414a" stroke-width=".05" fill="#3a414a"/><path d="M1233.5 256.38h-9.26l4.64-14.26z" fill="#3a414a"/><path d="M1234.2 256.88h-10.65l5.33-16.38zm-9.27-1h7.9l-3.95-12.14z" stroke="#3a414a" stroke-width=".05" fill="#3a414a"/><path d="M828.13 531h-.53l.02-.5v-.5h.5z" fill="#3a414a"/><path d="M828.15 531.03h-.58l.02-.52v-.4l-.02-.12h.57zm-.5-1V530.5l-.02.48h.47v-.95z" stroke="#3a414a" stroke-width=".05" fill="#3a414a"/><use xlink:href="#u" transform="matrix(1,0,0,1,852.7405066254623,519.8333376103031) translate(0.005000000000002558 14.222222222222223)"/><path d="M747.62 469.5h-1V468h1zm0-3.48h-1v-2.98h1zm0-4.97h-1v-3h1zm0-4.98h-1l-.02-2.98h1zm-.02-4.97h-1v-2.98h1zm0-4.97h-1v-3h1zm0-4.98h-1v-2.98h1zm0-4.97h-1v-2.98h1zm0-4.97h-1v-2.98h1zm-.02-4.97h-1v-2.98h1zm0-4.97h-1v-2.98h1zm0-4.97h-1v-3h1zm0-5h-1v-2.97h1zm0-4.96h-1v-2.98h1zm0-4.97h-1v-3h1zm-.02-4.98h-1v-3h1zm0-4.98h-1v-2.98h1zm0-4.97h-1v-3h1zm0-4.98h-1v-2.98h1zm0-4.97h-1v-2.98h1zm0-4.97h-1l-.02-3h1zm-.26-7.54l.24 1v1.55h-1v-1.43l-.2-.82-.1-.27.92-.38zm-2.36-3.26l.77.66.56.64-.76.65-.5-.6-.65-.55-.65-.4.52-.85zm-3.8-1.24l1 .08.35.08-.24.98-.28-.07-.88-.07h-1.46v-1zm-3.47 0v1h-2.95v-1zm-4.9 0v1h-2.96v-1zm-4.93 0v1h-2.95v-1zm-4.92-.02v1h-2.95v-1zm-4.9 0v1h-2.96v-1zm-4.93 0v1h-2.96v-1zm-4.93 0v1h-2.95v-1zm-4.9 0l-.02 1h-2.95v-1zm-4.93-.02v1h-2.95v-1zm-4.92 0v1h-2.95v-1zm-4.9 0l-.02 1h-2.95v-1zm-4.93 0v1h-2.96v-1zm-4.93 0v1h-2.95v-1zm-4.92-.02v1h-2.95v-1zm-4.9 0v1h-2.96v-1zm-4.93 0v1h-2.95v-1zm-4.92 0v1h-2.95v-1zm-7.15-.2l.82.2h1.42v1h-1.55l-1-.26-.35-.14.38-.92zm-2.75-2l.56.65.58.48-.65.76-.65-.54-.66-.78-.45-.7.85-.54zm-1.05-3.26l.07.88.07.28-1 .24-.07-.36-.08-1v-1.5h1zm0-3.42h-1v-2.95h1zm0-4.9h-1v-2.96h1zm0-4.93h-1v-2.94h1zm0-4.9h-1v-2.96h1zm0-4.92h-1v-2.94h1zm0-4.9h-1v-2.95h1zm0-4.92h-1v-2.95h1zm0-4.9h-1v-2.96h1zm0-4.92h-1v-2.95h1zm0-4.92h-1v-.18h1zm0-21.5h-1v-1.1h1zm0-3.06h-1v-2.95h1zm0-4.9h-1v-2.96h1zm0-4.93h-1V269h1zm0-4.9h-1v-2.96h1zm0-4.92h-1v-2.95h1zm0-4.92h-1v-2.93h1zm0-4.9h-1v-2.95h1zm0-4.9h-1v-2.96h1zm0-4.93h-1V241h1z" stroke="#3a414a" stroke-width=".05" fill="#3a414a"/><path d="M647.54 240.5h.5v.5h-1v-.52z" fill="#3a414a"/><path d="M647.54 240.48h.54v.56h-1.05v-.58zm-.46.5h.95v-.46h-.95z" stroke="#3a414a" stroke-width=".05" fill="#3a414a"/><path d="M747.62 470.02l-.5-.02h-.5v-.5h1z" fill="#3a414a"/><path d="M747.64 470.04l-.52-.02h-.53v-.56h1.04zm-1-.53v.48h.95v-.47z" stroke="#3a414a" stroke-width=".05" fill="#3a414a"/><use xlink:href="#t" transform="matrix(1,0,0,1,608.6117501967426,284.82939632545964) translate(0.005000000000002558 14.222222222222223)"/><path d="M747.62 468v1.5h-1V468zm0-4.96v2.98h-1v-3zm0-4.98v3h-1v-3zm0-4.97v2.97h-1v-2.98zm0-4.98v2.98h-1v-3zm0-4.98v3h-1v-3zm.02-4.97v2.98h-1v-2.98zm0-4.97v2.98h-1v-3zm0-4.98v3h-1v-3zm0-4.97v2.98h-1v-2.98zm0-4.97v2.98h-1v-3zm.02-4.98v3h-1v-3zm0-4.97v2.98h-1v-2.97zm0-4.97v2.98h-1v-2.98zm0-4.98v3h-1v-3zm0-4.97v3h-1v-3zm0-4.96v2.98h-1v-2.98zm.02-4.98v3h-1v-3zm0-4.97v2.97h-1v-2.98zm0-4.98v2.98h-1v-2.98zm0-4.98v3h-1v-3zm.32-4.5l-.1.26-.2.82v1.43h-1V365l.23-1 .14-.35zm2.53-2.9l-.65.4-.65.57-.5.6-.76-.66.55-.64.77-.66.7-.44zm4.05-.64h-1.44l-.88.07-.3.07-.22-.98.36-.08 1-.08h1.48zm4.9 0h-2.94v-1h2.93zm4.9 0h-2.95v-1h2.93zm4.88 0h-2.94v-1h2.94zm4.9-.02h-2.95v-1h2.95zm4.88 0h-2.94v-1h2.94zm4.9 0H781v-1h2.93zm4.88 0h-2.93v-1h2.92zm4.9-.02h-2.94v-1h2.93zm4.88 0h-2.93v-1h2.93zm4.9 0h-2.94v-1h2.93zm4.88 0h-2.93v-1h2.93zm4.9 0h-2.94v-1h2.94zm4.9-.02h-2.95v-1h2.94zm4.88 0h-2.94v-1h2.94zm4.9 0H825v-1h2.95zm4.88 0h-2.93v-1h2.94zm4.83-.4l-.34.14-1 .25h-1.53v-1h1.4l.82-.2.27-.1zm3.35-2.93l-.44.72-.66.78-.64.54-.65-.76.58-.5.57-.65.4-.65zm.8-3.08l-.07 1-.1.36-.96-.24.06-.28.07-.88v-1.45h1zm0-3.46h-1v-2.95h1zm0-4.9h-1v-2.96h1zm0-4.93h-1v-2.94h1zm0-4.9h-1v-2.96h1zm0-4.92h-1v-2.94h1zm0-4.9h-1v-2.95h1zm0-4.92h-1v-2.95h1zm0-4.9h-1v-2.96h1zm0-4.92h-1v-.03h1zm0-21.36h-1v-1.24h1zm0-3.2h-1v-2.96h1zm0-4.92h-1v-2.95h1zm0-4.9h-1v-2.96h1zm0-4.93h-1V269h1zm0-4.9h-1v-2.96h1zm0-4.92h-1v-2.95h1zm0-4.92h-1v-2.93h1zm0-4.9h-1v-2.95h1zm0-4.9h-1v-2.96h1zm0-4.93h-1V241h1z" stroke="#3a414a" stroke-width=".05" fill="#3a414a"/><path d="M841.32 240.5h.5v.5h-1v-.52z" fill="#3a414a"/><path d="M841.32 240.48h.53v.56h-1.05v-.58zm-.47.5h.95v-.46h-.95z" stroke="#3a414a" stroke-width=".05" fill="#3a414a"/><path d="M747.62 470.02l-.5-.02h-.5v-.5h1z" fill="#3a414a"/><path d="M747.64 470.04l-.52-.02h-.53v-.56h1.04zm-1-.53v.48h.95v-.47z" stroke="#3a414a" stroke-width=".05" fill="#3a414a"/><use xlink:href="#v" transform="matrix(1,0,0,1,802.3867610975831,289.8964943164405) translate(0.005000000000002558 14.222222222222223)"/><path d="M747.62 469.5h-1V468h1zm0-3.48h-1v-2.98h1zm0-4.97h-1v-3h1zm0-4.98h-1l-.02-2.98h1zm-.02-4.97h-1v-2.98h1zm0-4.97h-1v-3h1zm0-4.98h-1v-2.98h1zm0-4.97h-1v-2.98h1zm0-4.97h-1v-2.98h1zm-.02-4.97h-1v-2.98h1zm0-4.97h-1v-2.98h1zm0-4.97h-1v-3h1zm0-5h-1v-2.97h1zm0-4.96h-1v-2.98h1zm0-4.97h-1v-3h1zm-.02-4.98h-1v-3h1zm0-4.98h-1v-2.98h1zm0-4.97h-1v-3h1zm0-4.98h-1v-2.98h1zm0-4.97h-1v-2.98h1zm0-4.97h-1l-.02-3h1zm-.26-7.54l.24 1v1.55h-1v-1.43l-.2-.82-.1-.27.92-.38zm-2.36-3.26l.77.66.56.64-.76.65-.5-.6-.65-.55-.65-.4.52-.85zm-3.8-1.24l1 .08.35.08-.24.98-.28-.07-.88-.07h-1.5v-1zm-3.55 0v1h-3.04v-1zm-5.05 0v1h-3.03v-1zm-5.04 0v1h-3.02v-1zm-5.03 0v1h-3.03v-1zm-5.05 0v1h-3.02v-1zm-5.04 0v1h-3.02v-1zm-5.04 0v1h-3.02v-1zm-5.04 0v1h-3.02v-1zm-5.04 0v1h-3.02v-1zm-5.04 0v1h-3.02v-1zm-5.04 0v1h-3.02v-1zm-5.04-.02v1h-3.03l.02-1zm-5.04 0v1h-3.03v-1zm-5.04 0v1h-3.03v-1zm-5.04 0v1H664v-1zm-5.04 0v1h-3.03v-1zm-5.04 0v1h-3.03v-1zm-5.04 0v1h-3.03v-1zm-5.05 0v1h-3.02v-1zm-5.04 0v1h-3v-1zm-5.03 0v1h-3.02v-1zm-5.04 0v1h-3.02v-1zm-5.04 0v1h-3.03v-1zm-5.05 0v1h-3.02v-1zm-5.04 0v1h-3v-1zm-5.03 0v1h-3.02v-1zm-5.04-.02v1h-3.03v-1zm-5.04 0v1h-3.04v-1zm-5.05 0v1h-3.03v-1zm-5.04 0v1h-3.02v-1zm-5.03 0v1h-3.03v-1zm-5.04 0v1h-3.03v-1zm-5.05 0v1h-3.02v-1zm-5.04 0v1h-3.02v-1zm-5.04 0v1h-3.02v-1zm-5.04 0v1h-3.02v-1zm-5.04 0v1h-3.02v-1zm-5.04 0v1h-3.02v-1zm-5.04 0v1h-3.02v-1zm-5.04 0v1h-3.02v-1zm-5.04 0v1h-3.03v-1zm-5.04-.02v1h-3.03v-1zm-5.04 0v1h-3.03v-1zm-5.04 0v1h-3.03v-1zm-5.04 0v1h-3.03v-1zm-5.04 0v1h-3.03v-1zm-5.04 0v1h-3.03v-1zm-5.05 0v1h-3.02v-1zm-5.04 0v1h-3.02v-1zm-5.04 0v1h-3.03v-1zm-5.05 0v1h-3.02v-1zm-5.04 0v1h-3v-1zm-5.03 0v1h-3.02v-1zm-5.04 0v1h-3.02v-1zm-5.04 0v1h-3.04v-1zm-7.32-.2l.82.2h1.45v1h-1.57l-1-.26-.35-.14.38-.92zm-2.75-2l.56.65.57.48-.65.76-.64-.54-.66-.78-.44-.7.85-.54zm-1.05-3.26l.06.88.07.28-.96.24-.1-.36-.06-1v-1.5h1zm0-3.42h-1v-2.95h1zm0-4.9h-1v-2.96h1zm0-4.93h-1v-2.94h1zm0-4.9h-1v-2.96h1zm0-4.92h-1v-2.94h1zm0-4.9h-1v-2.95h1zm0-4.92h-1v-2.95h1zm0-4.9h-1v-2.96h1zm0-4.92h-1v-2.95h1zm0-24.96h-1v-2.56h1zm0-4.52h-1v-2.95h1zm0-4.9h-1v-2.96h1zm0-4.93h-1V269h1zm0-4.9h-1v-2.96h1zm0-4.92h-1v-2.95h1zm0-4.92h-1v-2.93h1zm0-4.9h-1v-2.95h1zm0-4.9h-1v-2.96h1zm0-4.93h-1V241h1z" stroke="#3a414a" stroke-width=".05" fill="#3a414a"/><path d="M453.77 240.5h.5v.5h-1v-.52z" fill="#3a414a"/><path d="M453.77 240.48h.53v.56h-1.05v-.58zm-.47.5h.95v-.46h-.95z" stroke="#3a414a" stroke-width=".05" fill="#3a414a"/><path d="M747.62 470.02l-.5-.02h-.5v-.5h1z" fill="#3a414a"/><path d="M747.64 470.04l-.52-.02h-.53v-.56h1.04zm-1-.53v.48h.95v-.47z" stroke="#3a414a" stroke-width=".05" fill="#3a414a"/><use xlink:href="#t" transform="matrix(1,0,0,1,414.8367392959022,286.3005455658119) translate(0.005000000000002558 14.222222222222223)"/><path d="M588.54 938.75c0 10.9-8.85 19.75-19.75 19.75-10.92 0-19.76-8.84-19.76-19.75 0-10.9 8.84-19.75 19.75-19.75 10.9 0 19.74 8.84 19.74 19.75z" stroke="#3a414a" fill="#fff"/><path d="M568.8 958.5v49.3a20.7 20.7 0 0 0 3.2 11.07l36.8 58.13m-40-63.2l-40 63.2m0-98.75h80" stroke="#3a414a" fill="none"/><path d="M528.8 925a6 6 0 0 1 6-6h68a6 6 0 0 1 6 6v168a6 6 0 0 1-6 6h-68a6 6 0 0 1-6-6z" fill="none"/><use xlink:href="#w" transform="matrix(1,0,0,1,448.785002617248,1076.9999914460604) translate(29.93827160493828 17.77777777777778)"/><use xlink:href="#x" transform="matrix(1,0,0,1,448.785002617248,1076.9999914460604) translate(101.48148148148148 17.77777777777778)"/><use xlink:href="#y" transform="matrix(1,0,0,1,448.785002617248,1076.9999914460604) translate(76.82098765432099 44.44444444444444)"/><path d="M567.8 997.93h-143a6 6 0 0 1-6-6V536.5a6 6 0 0 1 6-6h122M567.77 997.93h3.52" stroke="#3a414a" fill="none"/><path d="M568.8 530.5l-21.5 12.73v-25.46zM1214.7 849.25c0 33.14-35.8 60-80 60-44.17 0-80-26.86-80-60s35.83-60 80-60c44.2 0 80 26.86 80 60z" stroke="#3a414a" fill="#fff"/><use xlink:href="#z" transform="matrix(1,0,0,1,1054.7088134724945,789.2519599499974) translate(30.579999999999995 40.65)"/><use xlink:href="#A" transform="matrix(1,0,0,1,1054.7088134724945,789.2519599499974) translate(19.07999999999999 62.25)"/><use xlink:href="#B" transform="matrix(1,0,0,1,1054.7088134724945,789.2519599499974) translate(78.08 62.25)"/><use xlink:href="#C" transform="matrix(1,0,0,1,1054.7088134724945,789.2519599499974) translate(112.08 62.25)"/><use xlink:href="#D" transform="matrix(1,0,0,1,1054.7088134724945,789.2519599499974) translate(58.03 83.85000000000001)"/><path d="M1208.8 1000c0 33.14-35.83 60-80 60-44.2 0-80-26.86-80-60s35.8-60 80-60c44.17 0 80 26.86 80 60z" stroke="#3a414a" fill="#fff"/><use xlink:href="#E" transform="matrix(1,0,0,1,1048.7850026172482,940) translate(40.57999999999999 51.9)"/><use xlink:href="#F" transform="matrix(1,0,0,1,1048.7850026172482,940) translate(46.55499999999999 73.5)"/><path d="M1208.8 1179c0 33.14-35.83 60-80 60-44.2 0-80-26.86-80-60s35.8-60 80-60c44.17 0 80 26.86 80 60z" stroke="#3a414a" fill="#fff"/><use xlink:href="#r" transform="matrix(1,0,0,1,1048.7850026172482,1118.9999914460604) translate(27.07999999999999 51.9)"/><use xlink:href="#G" transform="matrix(1,0,0,1,1048.7850026172482,1118.9999914460604) translate(58.029999999999994 73.5)"/><path d="M827.12 1000c0 33.14-35.82 60-80 60-44.2 0-80-26.86-80-60s35.8-60 80-60c44.18 0 80 26.86 80 60z" stroke="#3a414a" fill="#fff"/><use xlink:href="#H" transform="matrix(1,0,0,1,667.1154861308737,940) translate(50.58 40.65)"/><use xlink:href="#I" transform="matrix(1,0,0,1,667.1154861308737,940) translate(30.10499999999999 62.25)"/><use xlink:href="#J" transform="matrix(1,0,0,1,667.1154861308737,940) translate(39.05499999999999 83.85000000000001)"/><path d="M666.12 1000H569.8" stroke="#3a414a" fill="none"/><path d="M666.62 1000v.5h-.52v-1h.53z" stroke="#3a414a" stroke-width=".05" fill="#3a414a"/><path d="M569.8 1000h-3.5" stroke="#3a414a" fill="none"/><path d="M845.45 1000.5H844v-1h1.45zm4.85 0h-2.9v-1h2.9zm4.85 0h-2.9v-1h2.9zm4.85 0h-2.9v-1h2.9zm4.85 0h-2.9v-1h2.9zm4.84 0h-2.9v-1h2.9zm4.84 0h-2.9v-1h2.9zm4.85 0h-2.92v-1h2.9zm4.76-.16l-.36.08-1 .08h-1.47v-1h1.44l.88-.07.28-.07zm3.77-2.38l-.55.64-.77.66-.7.44-.53-.85.65-.4.65-.56.5-.6zm1.28-4.52V995l-.23 1-.14.35-.93-.38.1-.27.2-.82v-1.44zm0-5v3h-1v-3zm.02-4.98v3h-1v-3zm0-4.98v3h-1v-3zm0-5v3h-1v-3zm0-4.98v3h-1v-3zm0-5v3h-1v-3zm0-4.98v3h-1v-3zm0-5v3h-1v-3zm.02-4.98v3h-1v-3zm0-5v3h-1v-3zm0-4.97v3h-1v-3zm0-5v3h-1v-3zm0-4.98v2.98h-1v-3zm0-5v3h-1v-3zm0-5v3h-1v-3zm0-4.98v3h-1v-3zm.02-5v3h-1v-3zm0-4.98v3h-1v-3zm0-5v3h-1v-3zm0-4.97v3h-1v-3zm0-5v3h-1v-3zm0-4.98v2.98h-1v-3zm0-5v3h-1v-3zm.02-5v3h-1v-3zm0-4.98v3h-1v-3zm0-5v3h-1v-3zm0-4.98v3h-1v-3zm.14-4.63l-.07.3-.07.87v1.48h-1v-1.52l.08-1 .1-.35zm2.06-3.23l-.58.5-.56.65-.4.65-.85-.52.43-.72.66-.78.63-.54zm3.87-1.04h-1.44l-.8.2-.28.1-.38-.92.34-.13 1-.24h1.56zm5 0h-3v-1h3zm5 0h-3v-1h3zm4.98 0h-3v-1h3zm5 0h-3v-1h3zm5-.02h-3v-1h3zm5 0h-3v-1h3zm2.52 0h-.53v-1h.53zm82.4-.03h-3v-1h3zm5 0h-3v-1h3zm5 0h-3v-1h3zm4.98 0h-3v-1h3zm5 0h-3v-1h3zm5 0h-3v-1h3zm5 0h-3v-1h3zm5 0h-3v-1h3zm4.98-.02h-3v-1h3zm3.5 0h-1.5v-1h1.5z" stroke="#3a414a" stroke-width=".05" fill="#3a414a"/><path d="M843.5 1004.64l-14.27-4.64 14.27-4.64z" fill="#3a414a"/><path d="M844 1005.32l-16.38-5.32 16.38-5.32zm-13.15-5.32l12.15 3.95v-7.9z" stroke="#3a414a" stroke-width=".05" fill="#3a414a"/><path d="M1054.2 849.25v.5h-.5v-1h.52z" fill="#3a414a"/><path d="M1054.23 849.25v.53h-.56v-1.05h.58zm-.5-.47v.95h.46v-.1l-.02-.4.02-.45z" stroke="#3a414a" stroke-width=".05" fill="#3a414a"/><use xlink:href="#t" transform="matrix(1,0,0,1,927.8467310123099,838.5852932833308) translate(0.005000000000002558 14.222222222222223)"/><path d="M829.6 1000.5h-1.48v-1h1.5zm5 0h-3v-1h3zm5 0h-3v-1h3zm5 0h-3v-1h3zm4.98 0h-3v-1h3zm5 0h-3v-1h3zm5 0h-3v-1h3zm4.98 0h-3v-1h3zm5 0h-3v-1h3zm5 0h-3v-1h3zm4.98 0h-3v-1h3zm5 0h-3v-1h3zm4.98 0h-3v-1h3zm5 0h-3v-1h3zm5 0h-3v-1h3zm4.98 0h-3v-1h3zm5 0h-3v-1h3zm5 0h-3v-1h3zm4.98 0h-3v-1h3zm2.37 0h-.37v-1h.37zm82.5 0h-3v-1h3zm5 0h-3v-1h3zm5 0h-3v-1h3zm4.98 0h-3v-1h3zm5 0h-3v-1h3zm4.98 0h-2.98v-1h3zm5 0h-3v-1h3zm5 0h-3v-1h3zm5 0h-3v-1h3zm3.48 0h-1.5v-1h1.5z" stroke="#3a414a" stroke-width=".05" fill="#3a414a"/><path d="M828.13 1000.5h-.53l.02-.5v-.5h.5z" fill="#3a414a"/><path d="M828.15 1000.52h-.58l.02-.5v-.4l-.02-.14h.57zm-.5-1v.5l-.02.46h.47v-.96z" stroke="#3a414a" stroke-width=".05" fill="#3a414a"/><path d="M1048.28 1000v.5h-.5v-1h.52z" fill="#3a414a"/><path d="M1048.3 1000v.4l.02.13h-.57v-1.05h.58zm-.5-.48v.96h.46v-.96z" stroke="#3a414a" stroke-width=".05" fill="#3a414a"/><use xlink:href="#t" transform="matrix(1,0,0,1,921.8467310123099,989.3333333333334) translate(0.005000000000002558 14.222222222222223)"/><path d="M1047.8 1178.5l-.02 1h-1.48v-1zm-3.5 0v1h-2.97v-1zm-4.96 0v1h-2.98v-1zm-4.96 0v1h-2.98v-1zm-4.97 0v1h-2.97v-1zm-4.95 0v1h-2.98v-1zm-4.97 0v1l-2.98-.02v-1zm-4.97-.02v1h-2.97v-1zm-4.95 0v1h-1.83v-1zm-79.7-.04v1h-2.73v-1zm-4.72 0v1h-2.98v-1zm-4.96 0v1h-2.98v-1zm-4.97 0v1h-2.98v-1zm-4.97 0v1h-2.98v-1zm-4.96 0v1h-2.98v-1zm-4.97 0v1h-2.98v-1zm-7.2-.2l.8.2h1.44v1h-1.55l-1.02-.26-.34-.14.38-.92zm-2.76-2l.56.65.58.48-.65.76-.64-.54-.67-.78-.44-.7.84-.54zm-1.06-3.26l.07.88.07.28-.97.24-.1-.36-.06-1-.02-1.5h1zm0-3.44h-1v-2.96h1zm0-4.94h-1v-2.96h1zm0-4.94h-1v-2.96h1zm0-4.94h-1v-2.96h1zm0-4.94h-1v-2.96h1zm0-4.93h-1v-2.97h1zm0-4.94h-1v-2.96h1zm0-4.93h-1V1132h1zm0-4.94h-1l-.02-2.97h1zm-.02-4.94h-1v-2.98h1zm0-4.95h-1v-2.96l1-.02zm0-4.94h-1v-2.95h1zm0-4.93h-1v-2.96h1zm0-4.94h-1v-2.96h1zm0-4.94h-1v-2.97h1zm0-4.95h-1v-2.96h1zm0-4.94h-1v-2.95h1zm0-4.93h-1v-2.96h1zm-.02-4.94h-1v-2.96h1zm0-4.94h-1v-2.97h1zm0-4.95h-1v-2.96h1zm0-4.93h-1v-2.97h1zm0-4.94h-1v-2.97h1zm0-4.94h-1v-2.97h1zm0-4.94h-1v-2.97h1zm0-4.94h-1v-2.97h1zm0-4.94h-1v-2.96h1zm-.02-4.94h-1v-2.96h1zm0-4.94h-1v-2.96h1zm0-4.94h-1v-2.96h1zm0-4.94h-1v-2.96h1zm0-4.94h-1v-2.96h1zm0-4.94h-1v-2.96h1zm-.25-7.5l.24 1.02v1.54h-1v-1.42l-.2-.82-.1-.27.93-.38zm-2.36-3.24l.78.66.55.64-.76.65-.5-.6-.65-.55-.65-.4.52-.85zm-2.8-1.16l.36.08-.23.98-.28-.07-.88-.07h-1.44v-1h1.47zm-38.35.92H844v-1h1.45zm4.85 0h-2.9v-1h2.9zm4.85 0h-2.9v-1h2.9zm4.85 0h-2.9v-1h2.9zm4.85 0h-2.9v-1h2.9zm4.84 0h-2.9v-1h2.9zm4.84 0h-2.9v-1h2.9zm4.85 0h-2.92v-1h2.9z" stroke="#3a414a" stroke-width=".05" fill="#3a414a"/><path d="M843.5 1004.64l-14.27-4.64 14.27-4.64z" fill="#3a414a"/><path d="M844 1005.32l-16.38-5.32 16.38-5.32zm-13.15-5.32l12.15 3.95v-7.9z" stroke="#3a414a" stroke-width=".05" fill="#3a414a"/><path d="M1048.28 1179v.5h-.5v-1h.52z" fill="#3a414a"/><path d="M1048.3 1179v.4l.02.12h-.57v-1.05h.58zm-.5-.48v.95h.46v-.96z" stroke="#3a414a" stroke-width=".05" fill="#3a414a"/><use xlink:href="#v" transform="matrix(1,0,0,1,929.8467310123099,1168.3333247793937) translate(0.005000000000002558 14.222222222222223)"/><path d="M1397.8 1108.75c0 10.9-8.85 19.75-19.76 19.75-10.9 0-19.75-8.84-19.75-19.75 0-10.9 8.84-19.75 19.74-19.75 10.9 0 19.75 8.84 19.75 19.75z" stroke="#3a414a" fill="#fff"/><path d="M1378.04 1128.5v49.3a20.7 20.7 0 0 0 3.2 11.07l36.8 58.13m-40-63.2l-40 63.2m0-98.75h80" stroke="#3a414a" fill="none"/><path d="M1338.04 1095a6 6 0 0 1 6-6h68a6 6 0 0 1 6 6v168a6 6 0 0 1-6 6h-68a6 6 0 0 1-6-6z" fill="none"/><use xlink:href="#K" transform="matrix(1,0,0,1,1258.0429153999075,1246.9999914460604) translate(28.796296296296305 17.77777777777778)"/><use xlink:href="#L" transform="matrix(1,0,0,1,1258.0429153999075,1246.9999914460604) translate(113.7962962962963 17.77777777777778)"/><use xlink:href="#M" transform="matrix(1,0,0,1,1258.0429153999075,1246.9999914460604) translate(193.98148148148147 17.77777777777778)"/><use xlink:href="#N" transform="matrix(1,0,0,1,1258.0429153999075,1246.9999914460604) translate(86.08024691358025 44.44444444444444)"/><path d="M1407.1 779c0 10.9-8.84 19.75-19.75 19.75-10.9 0-19.75-8.84-19.75-19.75 0-10.9 8.84-19.75 19.75-19.75 10.9 0 19.75 8.84 19.75 19.75z" stroke="#3a414a" fill="#fff"/><path d="M1387.35 798.75v49.3a20.7 20.7 0 0 0 3.2 11.07l36.8 58.13m-40-63.2l-40 63.2m0-98.75h80" stroke="#3a414a" fill="none"/><path d="M1347.35 765.25a6 6 0 0 1 6-6h68a6 6 0 0 1 6 6v168a6 6 0 0 1-6 6h-68a6 6 0 0 1-6-6z" fill="none"/><use xlink:href="#O" transform="matrix(1,0,0,1,1267.3511957556266,917.2519599499974) translate(63.27160493827161 17.77777777777778)"/><use xlink:href="#P" transform="matrix(1,0,0,1,1267.3511957556266,917.2519599499974) translate(115 17.77777777777778)"/><use xlink:href="#Q" transform="matrix(1,0,0,1,1267.3511957556266,917.2519599499974) translate(65.70987654320987 44.44444444444444)"/><use xlink:href="#R" transform="matrix(1,0,0,1,1267.3511957556266,917.2519599499974) translate(76.82098765432099 71.11111111111111)"/><path d="M1386.4 849.25h-170.7M1386.37 849.25h3.52" stroke="#3a414a" fill="none"/><path d="M1215.72 849.75h-.53v-1h.52z" stroke="#3a414a" stroke-width=".05" fill="#3a414a"/><path d="M1377.08 1179h-167.3M1377.06 1179h3.52" stroke="#3a414a" fill="none"/><path d="M1209.8 1179.5h-.53l.02-.5-.02-.4v-.1h.52z" stroke="#3a414a" stroke-width=".05" fill="#3a414a"/><path d="M1214.7 1340c0 33.14-35.8 60-80 60-44.17 0-80-26.86-80-60s35.83-60 80-60c44.2 0 80 26.86 80 60z" stroke="#3a414a" fill="#fff"/><g><use xlink:href="#S" transform="matrix(1,0,0,1,1054.7088134724945,1280) translate(40.57999999999999 51.9)"/><use xlink:href="#T" transform="matrix(1,0,0,1,1054.7088134724945,1280) translate(38.57999999999999 73.5)"/></g><path d="M1053.7 1339.5v1h-1.48v-1zm-3.46 0v1h-2.98v-1zm-4.96 0v1h-2.97v-1zm-4.96 0v1h-2.97v-1zm-4.95 0v1h-2.98v-1zm-4.96 0v1h-2.97v-1zm-4.95 0v1h-2.98v-1zm-84.28-.05v1h-2.98v-1zm-4.96 0v1h-2.96v-1zm-4.95 0v1h-2.97v-1zm-4.95 0v1h-2.98v-1zm-4.96 0v1h-2.98v-1zm-4.96 0v1l-2.98-.02v-1zm-4.96-.02v1h-2.97v-1zm-4.96 0v1h-2.97v-1zm-4.95 0v1h-2.97v-1zm-7.2-.2l.82.2h1.43v1H895l-1-.25-.35-.14.38-.92zm-2.75-2l.56.66.6.48-.66.76-.64-.54-.66-.78-.44-.7.85-.54zm-1.05-3.25l.07.88.07.28-.98.24-.08-.36-.08-1v-1.52h1zm0-3.47h-1v-2.98h1zm0-4.97h-1v-3h1zm0-5h-1v-2.98h1zm0-4.97h-1v-3h1zm0-4.98h-1v-3h1zm0-5h-1v-2.98h1zm0-4.97h-1v-2.98h1zm0-4.98h-1v-3h1zm0-4.98h-1v-3h1zm0-4.98h-1v-3h1zm0-5h-1v-2.98h1zm0-4.97h-1v-3h1zm0-5h-1v-3h1zm-.02-4.98h-1v-3h1zm0-4.98h-1v-3h1zm0-5h-1v-2.98h1zm0-4.97h-1v-3h1zm0-5h-1v-2.98h1zm0-4.97h-1v-3h1zm0-4.98h-1v-3h1zm0-5h-1v-2.98h1zm0-4.97h-1v-3h1zm0-5l-1 .02v-3h1zm0-4.97h-1v-3h1zm0-4.98h-1v-3h1zm0-5h-1v-2.98h1zm0-4.97h-1v-3h1zm0-4.98h-1v-3h1zm0-5h-1v-2.98h1zm0-4.97h-1v-3h1zm0-5h-1l-.02-2.98h1zm-.02-4.97h-1v-2.98h1zm0-4.97h-1v-3h1zm0-5h-1v-2.98h1zm0-4.97h-1v-3h1zm0-5h-1v-2.98h1zm0-4.97h-1v-3h1zm0-5h-1v-2.98h1zm0-4.98h-1v-3h1zm0-4.98h-1v-3h1zm0-5h-1v-2.98h1zm0-4.97h-1v-3h1zm0-4.98h-1v-3h1zm0-5h-1v-3h1zm0-4.98h-1v-3h1zm0-5l-1 .02v-3h1zm0-4.97h-1v-3h1zm0-4.98h-1v-3h1zm0-5h-1l-.02-2.98h1zm-.02-4.97h-1v-3h1zm0-4.98h-1v-3h1zm0-5h-1v-2.98h1zm0-4.97h-1v-3h1zm0-5h-1v-2.98h1zm0-4.97h-1v-3h1zm0-4.98h-1v-3h1zm0-5h-1v-2.98h1zm0-4.97h-1v-3h1zm0-5h-1v-2.98h1zm0-4.97h-1v-3h1zm0-4.98h-1v-3h1zm0-5h-1v-2.98h1zm0-4.97h-1v-2.98h1zm0-4.98h-1v-3h1zm0-4.98h-1v-3h1zm-.26-7.55l.25 1v1.56h-1v-1.44l-.2-.82-.1-.27.9-.38zm-2.36-3.26l.78.66.54.64-.76.65-.5-.6-.65-.55-.65-.4.53-.85zm-2.8-1.16l.36.08-.24.98-.28-.07-.88-.07h-1.5v-1h1.54zm-55.38.92h-1.52v-1h1.52zm5.08 0h-3.05v-1h3.05zm5.08 0h-3.05v-1h3.05zm5.08 0h-3.05v-1h3.05zm5.08 0h-3.05v-1h3.06zm5.08 0H852v-1h3.04zm5.08 0h-3.05v-1h3.05zm5.08 0h-3.05v-1h3.05zm5.08 0h-3.05v-1h3.05zm5.08 0h-3.04v-1h3.04zm5.08 0h-3.04v-1h3.04z" stroke="#3a414a" stroke-width=".05" fill="#3a414a"/><path d="M828.13 1000.5h-.53l.02-.5v-.5h.5z" fill="#3a414a"/><path d="M828.15 1000.52h-.58l.02-.5v-.4l-.02-.14h.57zm-.5-1v.5l-.02.46h.47v-.96z" stroke="#3a414a" stroke-width=".05" fill="#3a414a"/><path d="M1054.2 1340v.5h-.5v-1h.52z" fill="#3a414a"/><path d="M1054.23 1340v.53h-.56v-1.06h.58zm-.5-.47v.94h.46v-.08l-.02-.4.02-.47z" stroke="#3a414a" stroke-width=".05" fill="#3a414a"/><g><use xlink:href="#t" transform="matrix(1,0,0,1,942.8909502861552,1329.3333333333333) translate(0.005000000000002558 14.222222222222223)"/></g><path d="M1402.72 540.82c0 10.9-8.85 19.75-19.75 19.75s-19.75-8.84-19.75-19.75c0-10.9 8.84-19.75 19.75-19.75 10.9 0 19.75 8.84 19.75 19.75z" stroke="#3a414a" fill="#fff"/><path d="M1382.97 560.57v49.3a20.7 20.7 0 0 0 3.2 11.07l36.8 58.13m-40-63.2l-40 63.2m0-98.75h80" stroke="#3a414a" fill="none"/><path d="M1342.97 527.07a6 6 0 0 1 6-6h68a6 6 0 0 1 6 6v168a6 6 0 0 1-6 6h-68a6 6 0 0 1-6-6z" fill="none"/><g><use xlink:href="#U" transform="matrix(1,0,0,1,1262.9667176752182,679.0683690423186) translate(70.67901234567901 17.77777777777778)"/></g><path d="M1308.88 600c0 33.14-35.82 60-80 60-44.2 0-80-26.86-80-60s35.8-60 80-60c44.18 0 80 26.86 80 60z" stroke="#3a414a" fill="#fff"/><g><use xlink:href="#V" transform="matrix(1,0,0,1,1148.8750545042021,540) translate(34.55499999999999 63.15)"/></g><path d="M1381.97 600h-72.1M1381.95 600h3.52" stroke="#3a414a" fill="none"/><path d="M1309.9 600.5h-.54l.02-.5v-.5h.5zM1132 599.5v1h-1.53v-1zm-3.55 0v1h-3.04v-1zm-5.06 0v1h-3.05v-1zm-5.08 0v1h-3.03v-1zm-5.06 0v1h-3.04v-1zm-5.06 0v1h-3.04v-1zm-5.06 0v1l-3.04-.02v-1zm-5.07-.02v1h-3.03v-1zm-5.06 0v1h-3.03v-1zm-5.05 0v1h-3.04v-1zm-5.06 0v1h-3.05v-1zm-5.07 0v1h-3.04v-1zm-5.07 0v1h-3.03v-1zm-5.06 0v1h-3.04v-1zm-5.06 0v1h-3.04v-1zm-5.06-.02v1h-3.04v-1zm-5.07 0v1h-3.02v-1zm-5.05 0v1h-3.04v-1zm-5.06 0v1h-3.05v-1zm-5.07 0v1h-3.04v-1zm-5.06 0v1h-3.04v-1zm-5.07 0v1h-3.04v-1zm-5.06 0v1h-3.04v-1zm-5.06 0v1l-3.04-.02v-1zm-5.06-.02v1h-3.04v-1zm-5.07 0v1h-3.03v-1zm-5.06 0v1h-3.05v-1zm-5.07 0v1h-3.04v-1zm-5.06 0v1h-3.04v-1zm-5.07 0v1h-3.03v-1zm-5.06 0v1h-3.04v-1zm-7.34-.2l.82.2h1.46v1H975l-1-.26-.35-.14.38-.92zm-2.75-2l.56.65.6.48-.66.76-.64-.54-.66-.78-.44-.7.85-.54zm-1.05-3.26l.07.88.07.28-.98.24-.08-.36-.08-1v-1.48h1zm0-3.4h-1v-2.9h1zm0-4.86h-1v-2.92h1zm-.02-4.87h-1v-2.92h1zm0-4.87h-1v-2.92h1zm0-4.87h-1v-2.9h1zm-.02-4.86h-1v-2.92h1zm0-4.87h-1v-2.92h1zm0-4.87h-1v-2.92h1zm0-4.87h-1l-.02-2.92h1zm-.02-4.87h-1v-2.92h1zm0-4.87h-1v-2.93h1zm-.26-7.4l.25 1v1.52h-1v-1.4l-.2-.82-.1-.27.9-.38zm-2.36-3.26l.78.66.54.64-.76.65-.5-.6-.65-.55-.65-.4.53-.85zm-2.8-1.16l.36.08-.24.98-.28-.07-.88-.07h-1.5v-1h1.54zm-135.4.92h-1.5v-1h1.5zm5.04 0h-3.02v-1h3.02zm5.03 0h-3.03v-1h3.02zm5.02 0h-3.02v-1h3.02zm5.04 0h-3.02v-1h3.02zm2.98 0h-.97v-1h.97zm87.6 0h-3v-1h3zm5.04 0h-3.02v-1h3.02zm5.03 0h-3v-1h3zm5.04 0h-3.02v-1h3.02zm5.04 0h-3.02v-1h3.02z" stroke="#3a414a" stroke-width=".05" fill="#3a414a"/><path d="M828.13 531h-.53l.02-.5v-.5h.5z" fill="#3a414a"/><path d="M828.15 531.03h-.58l.02-.52v-.4l-.02-.12h.57zm-.5-1V530.5l-.02.48h.47v-.95z" stroke="#3a414a" stroke-width=".05" fill="#3a414a"/><path d="M1146.76 600l-14.27 4.64v-9.28z" fill="#3a414a"/><path d="M1148.38 600l-16.4 5.32v-10.64zm-15.4 3.95l12.16-3.95-12.15-3.95z" stroke="#3a414a" stroke-width=".05" fill="#3a414a"/><defs><path fill="#3a414a" d="M232-93c-1 65-40 97-104 97C67 4 28-28 28-90v-158h33c8 89-33 224 67 224 102 0 64-133 71-224h33v155" id="W"/><path fill="#3a414a" d="M59-47c-2 24 18 29 38 22v24C64 9 27 4 27-40v-127H5v-23h24l9-43h21v43h35v23H59v120" id="X"/><path fill="#3a414a" d="M100-194c63 0 86 42 84 106H49c0 40 14 67 53 68 26 1 43-12 49-29l28 8c-11 28-37 45-77 45C44 4 14-33 15-96c1-61 26-98 85-98zm52 81c6-60-76-77-97-28-3 7-6 17-6 28h103" id="Y"/><path fill="#3a414a" d="M117-194c89-4 53 116 60 194h-32v-121c0-31-8-49-39-48C34-167 62-67 57 0H25l-1-190h30c1 10-1 24 2 32 11-22 29-35 61-36" id="Z"/><g id="a"><use transform="matrix(0.06172839506172839,0,0,0.06172839506172839,0,0)" xlink:href="#W"/><use transform="matrix(0.06172839506172839,0,0,0.06172839506172839,15.987654320987653,0)" xlink:href="#X"/><use transform="matrix(0.06172839506172839,0,0,0.06172839506172839,22.160493827160494,0)" xlink:href="#Y"/><use transform="matrix(0.06172839506172839,0,0,0.06172839506172839,34.50617283950617,0)" xlink:href="#Z"/><use transform="matrix(0.06172839506172839,0,0,0.06172839506172839,46.85185185185185,0)" xlink:href="#X"/><use transform="matrix(0.06172839506172839,0,0,0.06172839506172839,53.02469135802469,0)" xlink:href="#Y"/></g><path fill="#3a414a" d="M100-194c62-1 85 37 85 99 1 63-27 99-86 99S16-35 15-95c0-66 28-99 85-99zM99-20c44 1 53-31 53-75 0-43-8-75-51-75s-53 32-53 75 10 74 51 75" id="aa"/><g id="b"><use transform="matrix(0.06172839506172839,0,0,0.06172839506172839,0,0)" xlink:href="#Z"/><use transform="matrix(0.06172839506172839,0,0,0.06172839506172839,12.345679012345679,0)" xlink:href="#aa"/><use transform="matrix(0.06172839506172839,0,0,0.06172839506172839,24.691358024691358,0)" xlink:href="#Z"/></g><path fill="#3a414a" d="M141-36C126-15 110 5 73 4 37 3 15-17 15-53c-1-64 63-63 125-63 3-35-9-54-41-54-24 1-41 7-42 31l-33-3c5-37 33-52 76-52 45 0 72 20 72 64v82c-1 20 7 32 28 27v20c-31 9-61-2-59-35zM48-53c0 20 12 33 32 33 41-3 63-29 60-74-43 2-92-5-92 41" id="ab"/><path fill="#3a414a" d="M84 4C-5 8 30-112 23-190h32v120c0 31 7 50 39 49 72-2 45-101 50-169h31l1 190h-30c-1-10 1-25-2-33-11 22-28 36-60 37" id="ac"/><path fill="#3a414a" d="M24-231v-30h32v30H24zM24 0v-190h32V0H24" id="ad"/><path fill="#3a414a" d="M96-169c-40 0-48 33-48 73s9 75 48 75c24 0 41-14 43-38l32 2c-6 37-31 61-74 61-59 0-76-41-82-99-10-93 101-131 147-64 4 7 5 14 7 22l-32 3c-4-21-16-35-41-35" id="ae"/><g id="c"><use transform="matrix(0.06172839506172839,0,0,0.06172839506172839,0,0)" xlink:href="#ab"/><use transform="matrix(0.06172839506172839,0,0,0.06172839506172839,12.345679012345679,0)" xlink:href="#ac"/><use transform="matrix(0.06172839506172839,0,0,0.06172839506172839,24.691358024691358,0)" xlink:href="#X"/><use transform="matrix(0.06172839506172839,0,0,0.06172839506172839,30.864197530864196,0)" xlink:href="#Y"/><use transform="matrix(0.06172839506172839,0,0,0.06172839506172839,43.20987654320987,0)" xlink:href="#Z"/><use transform="matrix(0.06172839506172839,0,0,0.06172839506172839,55.55555555555555,0)" xlink:href="#X"/><use transform="matrix(0.06172839506172839,0,0,0.06172839506172839,61.72839506172839,0)" xlink:href="#ad"/><use transform="matrix(0.06172839506172839,0,0,0.06172839506172839,66.60493827160494,0)" xlink:href="#ae"/><use transform="matrix(0.06172839506172839,0,0,0.06172839506172839,77.71604938271605,0)" xlink:href="#ab"/><use transform="matrix(0.06172839506172839,0,0,0.06172839506172839,90.06172839506173,0)" xlink:href="#X"/><use transform="matrix(0.06172839506172839,0,0,0.06172839506172839,96.23456790123457,0)" xlink:href="#aa"/></g><path d="M212-179c-10-28-35-45-73-45-59 0-87 40-87 99 0 60 29 101 89 101 43 0 62-24 78-52l27 14C228-24 195 4 139 4 59 4 22-46 18-125c-6-104 99-153 187-111 19 9 31 26 39 46" id="af"/><path d="M114-163C36-179 61-72 57 0H25l-1-190h30c1 12-1 29 2 39 6-27 23-49 58-41v29" id="ag"/><path d="M100-194c63 0 86 42 84 106H49c0 40 14 67 53 68 26 1 43-12 49-29l28 8c-11 28-37 45-77 45C44 4 14-33 15-96c1-61 26-98 85-98zm52 81c6-60-76-77-97-28-3 7-6 17-6 28h103" id="ah"/><path d="M141-36C126-15 110 5 73 4 37 3 15-17 15-53c-1-64 63-63 125-63 3-35-9-54-41-54-24 1-41 7-42 31l-33-3c5-37 33-52 76-52 45 0 72 20 72 64v82c-1 20 7 32 28 27v20c-31 9-61-2-59-35zM48-53c0 20 12 33 32 33 41-3 63-29 60-74-43 2-92-5-92 41" id="ai"/><path d="M9 0v-24l116-142H16v-24h144v24L44-24h123V0H9" id="aj"/><path d="M24-231v-30h32v30H24zM24 0v-190h32V0H24" id="ak"/><path d="M100-194c62-1 85 37 85 99 1 63-27 99-86 99S16-35 15-95c0-66 28-99 85-99zM99-20c44 1 53-31 53-75 0-43-8-75-51-75s-53 32-53 75 10 74 51 75" id="al"/><path d="M117-194c89-4 53 116 60 194h-32v-121c0-31-8-49-39-48C34-167 62-67 57 0H25l-1-190h30c1 10-1 24 2 32 11-22 29-35 61-36" id="am"/><path d="M0 4l72-265h28L28 4H0" id="an"/><g id="e"><use transform="matrix(0.05,0,0,0.05,0,0)" xlink:href="#af"/><use transform="matrix(0.05,0,0,0.05,12.950000000000001,0)" xlink:href="#ag"/><use transform="matrix(0.05,0,0,0.05,18.900000000000002,0)" xlink:href="#ah"/><use transform="matrix(0.05,0,0,0.05,28.900000000000002,0)" xlink:href="#ai"/><use transform="matrix(0.05,0,0,0.05,38.900000000000006,0)" xlink:href="#aj"/><use transform="matrix(0.05,0,0,0.05,47.900000000000006,0)" xlink:href="#ak"/><use transform="matrix(0.05,0,0,0.05,51.85,0)" xlink:href="#al"/><use transform="matrix(0.05,0,0,0.05,61.85,0)" xlink:href="#am"/><use transform="matrix(0.05,0,0,0.05,71.85000000000001,0)" xlink:href="#ah"/><use transform="matrix(0.05,0,0,0.05,81.85000000000001,0)" xlink:href="#an"/></g><path d="M210-169c-67 3-38 105-44 169h-31v-121c0-29-5-50-35-48C34-165 62-65 56 0H25l-1-190h30c1 10-1 24 2 32 10-44 99-50 107 0 11-21 27-35 58-36 85-2 47 119 55 194h-31v-121c0-29-5-49-35-48" id="ao"/><path d="M85-194c31 0 48 13 60 33l-1-100h32l1 261h-30c-2-10 0-23-3-31C134-8 116 4 85 4 32 4 16-35 15-94c0-66 23-100 70-100zm9 24c-40 0-46 34-46 75 0 40 6 74 45 74 42 0 51-32 51-76 0-42-9-74-50-73" id="ap"/><path d="M101-234c-31-9-42 10-38 44h38v23H63V0H32v-167H5v-23h27c-7-52 17-82 69-68v24" id="aq"/><path d="M96-169c-40 0-48 33-48 73s9 75 48 75c24 0 41-14 43-38l32 2c-6 37-31 61-74 61-59 0-76-41-82-99-10-93 101-131 147-64 4 7 5 14 7 22l-32 3c-4-21-16-35-41-35" id="ar"/><g id="f"><use transform="matrix(0.05,0,0,0.05,0,0)" xlink:href="#ao"/><use transform="matrix(0.05,0,0,0.05,14.950000000000001,0)" xlink:href="#al"/><use transform="matrix(0.05,0,0,0.05,24.950000000000003,0)" xlink:href="#ap"/><use transform="matrix(0.05,0,0,0.05,34.95,0)" xlink:href="#ak"/><use transform="matrix(0.05,0,0,0.05,38.900000000000006,0)" xlink:href="#aq"/><use transform="matrix(0.05,0,0,0.05,43.900000000000006,0)" xlink:href="#ak"/><use transform="matrix(0.05,0,0,0.05,47.85000000000001,0)" xlink:href="#ar"/><use transform="matrix(0.05,0,0,0.05,56.85,0)" xlink:href="#ai"/></g><path d="M108 0H70L1-190h34L89-25l56-165h34" id="as"/><path d="M59-47c-2 24 18 29 38 22v24C64 9 27 4 27-40v-127H5v-23h24l9-43h21v43h35v23H59v120" id="at"/><g id="g"><use transform="matrix(0.05,0,0,0.05,0,0)" xlink:href="#ah"/><use transform="matrix(0.05,0,0,0.05,10,0)" xlink:href="#as"/><use transform="matrix(0.05,0,0,0.05,19,0)" xlink:href="#ah"/><use transform="matrix(0.05,0,0,0.05,29,0)" xlink:href="#am"/><use transform="matrix(0.05,0,0,0.05,39,0)" xlink:href="#at"/><use transform="matrix(0.05,0,0,0.05,44,0)" xlink:href="#al"/></g><path d="M115-194c55 1 70 41 70 98S169 2 115 4C84 4 66-9 55-30l1 105H24l-1-265h31l2 30c10-21 28-34 59-34zm-8 174c40 0 45-34 45-75s-6-73-45-74c-42 0-51 32-51 76 0 43 10 73 51 73" id="au"/><path d="M135-143c-3-34-86-38-87 0 15 53 115 12 119 90S17 21 10-45l28-5c4 36 97 45 98 0-10-56-113-15-118-90-4-57 82-63 122-42 12 7 21 19 24 35" id="av"/><g id="h"><use transform="matrix(0.05,0,0,0.05,0,0)" xlink:href="#ak"/><use transform="matrix(0.05,0,0,0.05,3.95,0)" xlink:href="#ao"/><use transform="matrix(0.05,0,0,0.05,18.900000000000002,0)" xlink:href="#au"/><use transform="matrix(0.05,0,0,0.05,28.900000000000002,0)" xlink:href="#al"/><use transform="matrix(0.05,0,0,0.05,38.900000000000006,0)" xlink:href="#av"/><use transform="matrix(0.05,0,0,0.05,47.900000000000006,0)" xlink:href="#ak"/><use transform="matrix(0.05,0,0,0.05,51.85,0)" xlink:href="#aj"/><use transform="matrix(0.05,0,0,0.05,60.85,0)" xlink:href="#ak"/><use transform="matrix(0.05,0,0,0.05,64.80000000000001,0)" xlink:href="#al"/><use transform="matrix(0.05,0,0,0.05,74.80000000000001,0)" xlink:href="#am"/><use transform="matrix(0.05,0,0,0.05,84.80000000000001,0)" xlink:href="#ah"/></g><g id="i"><use transform="matrix(0.05,0,0,0.05,0,0)" xlink:href="#ap"/><use transform="matrix(0.05,0,0,0.05,10,0)" xlink:href="#ak"/></g><g id="j"><use transform="matrix(0.05,0,0,0.05,0,0)" xlink:href="#ag"/><use transform="matrix(0.05,0,0,0.05,5.95,0)" xlink:href="#ah"/><use transform="matrix(0.05,0,0,0.05,15.949999999999998,0)" xlink:href="#av"/><use transform="matrix(0.05,0,0,0.05,24.95,0)" xlink:href="#at"/><use transform="matrix(0.05,0,0,0.05,29.950000000000003,0)" xlink:href="#ag"/><use transform="matrix(0.05,0,0,0.05,35.9,0)" xlink:href="#ak"/><use transform="matrix(0.05,0,0,0.05,39.85,0)" xlink:href="#aj"/><use transform="matrix(0.05,0,0,0.05,48.85,0)" xlink:href="#ak"/><use transform="matrix(0.05,0,0,0.05,52.800000000000004,0)" xlink:href="#al"/><use transform="matrix(0.05,0,0,0.05,62.800000000000004,0)" xlink:href="#am"/><use transform="matrix(0.05,0,0,0.05,72.80000000000001,0)" xlink:href="#ak"/></g><g id="k"><use transform="matrix(0.05,0,0,0.05,0,0)" xlink:href="#ak"/><use transform="matrix(0.05,0,0,0.05,3.95,0)" xlink:href="#ao"/><use transform="matrix(0.05,0,0,0.05,18.900000000000002,0)" xlink:href="#au"/><use transform="matrix(0.05,0,0,0.05,28.900000000000002,0)" xlink:href="#al"/><use transform="matrix(0.05,0,0,0.05,38.900000000000006,0)" xlink:href="#av"/><use transform="matrix(0.05,0,0,0.05,47.900000000000006,0)" xlink:href="#at"/><use transform="matrix(0.05,0,0,0.05,52.900000000000006,0)" xlink:href="#ai"/><use transform="matrix(0.05,0,0,0.05,62.900000000000006,0)" xlink:href="#ag"/><use transform="matrix(0.05,0,0,0.05,68.85000000000001,0)" xlink:href="#ah"/></g><path d="M141-36C126-15 110 5 73 4 37 3 15-17 15-53c-1-64 63-63 125-63 3-35-9-54-41-54-24 1-41 7-42 31l-33-3c5-37 33-52 76-52 45 0 72 20 72 64v82c-1 20 7 32 28 27v20c-31 9-61-2-59-35zM48-53c0 20 12 33 32 33 41-3 63-29 60-74-43 2-92-5-92 41zm62-158l-58-49v-5h36c12 19 30 32 38 54h-16" id="aw"/><g id="l"><use transform="matrix(0.05,0,0,0.05,0,0)" xlink:href="#au"/><use transform="matrix(0.05,0,0,0.05,10,0)" xlink:href="#ag"/><use transform="matrix(0.05,0,0,0.05,15.949999999999998,0)" xlink:href="#ak"/><use transform="matrix(0.05,0,0,0.05,19.9,0)" xlink:href="#al"/><use transform="matrix(0.05,0,0,0.05,29.899999999999995,0)" xlink:href="#ag"/><use transform="matrix(0.05,0,0,0.05,35.85,0)" xlink:href="#ak"/><use transform="matrix(0.05,0,0,0.05,39.800000000000004,0)" xlink:href="#at"/><use transform="matrix(0.05,0,0,0.05,44.800000000000004,0)" xlink:href="#aw"/></g><path d="M24 0v-261h32V0H24" id="ax"/><g id="m"><use transform="matrix(0.05,0,0,0.05,0,0)" xlink:href="#at"/><use transform="matrix(0.05,0,0,0.05,5,0)" xlink:href="#ak"/><use transform="matrix(0.05,0,0,0.05,8.95,0)" xlink:href="#at"/><use transform="matrix(0.05,0,0,0.05,13.949999999999998,0)" xlink:href="#al"/><use transform="matrix(0.05,0,0,0.05,23.95,0)" xlink:href="#ax"/><use transform="matrix(0.05,0,0,0.05,27.899999999999995,0)" xlink:href="#al"/></g><g id="n"><use transform="matrix(0.05,0,0,0.05,0,0)" xlink:href="#ap"/><use transform="matrix(0.05,0,0,0.05,10,0)" xlink:href="#ah"/><use transform="matrix(0.05,0,0,0.05,20,0)" xlink:href="#aq"/><use transform="matrix(0.05,0,0,0.05,25,0)" xlink:href="#ak"/><use transform="matrix(0.05,0,0,0.05,28.950000000000003,0)" xlink:href="#am"/><use transform="matrix(0.05,0,0,0.05,38.95,0)" xlink:href="#ak"/><use transform="matrix(0.05,0,0,0.05,42.900000000000006,0)" xlink:href="#ag"/><use transform="matrix(0.05,0,0,0.05,48.85000000000001,0)" xlink:href="#ah"/></g><g id="o"><use transform="matrix(0.05,0,0,0.05,0,0)" xlink:href="#ah"/><use transform="matrix(0.05,0,0,0.05,10,0)" xlink:href="#as"/><use transform="matrix(0.05,0,0,0.05,19,0)" xlink:href="#ah"/><use transform="matrix(0.05,0,0,0.05,29,0)" xlink:href="#am"/><use transform="matrix(0.05,0,0,0.05,39,0)" xlink:href="#at"/><use transform="matrix(0.05,0,0,0.05,44,0)" xlink:href="#al"/></g><path d="M84 4C-5 8 30-112 23-190h32v120c0 31 7 50 39 49 72-2 45-101 50-169h31l1 190h-30c-1-10 1-25-2-33-11 22-28 36-60 37" id="ay"/><g id="p"><use transform="matrix(0.05,0,0,0.05,0,0)" xlink:href="#ag"/><use transform="matrix(0.05,0,0,0.05,5.95,0)" xlink:href="#ak"/><use transform="matrix(0.05,0,0,0.05,9.9,0)" xlink:href="#au"/><use transform="matrix(0.05,0,0,0.05,19.9,0)" xlink:href="#ah"/><use transform="matrix(0.05,0,0,0.05,29.899999999999995,0)" xlink:href="#at"/><use transform="matrix(0.05,0,0,0.05,34.9,0)" xlink:href="#ay"/><use transform="matrix(0.05,0,0,0.05,44.9,0)" xlink:href="#at"/><use transform="matrix(0.05,0,0,0.05,49.9,0)" xlink:href="#al"/></g><g id="q"><use transform="matrix(0.05,0,0,0.05,0,0)" xlink:href="#ap"/><use transform="matrix(0.05,0,0,0.05,10,0)" xlink:href="#ah"/><use transform="matrix(0.05,0,0,0.05,20,0)" xlink:href="#av"/><use transform="matrix(0.05,0,0,0.05,29,0)" xlink:href="#ar"/><use transform="matrix(0.05,0,0,0.05,38,0)" xlink:href="#ag"/><use transform="matrix(0.05,0,0,0.05,43.95,0)" xlink:href="#ak"/><use transform="matrix(0.05,0,0,0.05,47.900000000000006,0)" xlink:href="#aj"/><use transform="matrix(0.05,0,0,0.05,56.900000000000006,0)" xlink:href="#ak"/><use transform="matrix(0.05,0,0,0.05,60.85,0)" xlink:href="#al"/><use transform="matrix(0.05,0,0,0.05,70.85000000000001,0)" xlink:href="#am"/><use transform="matrix(0.05,0,0,0.05,80.85000000000001,0)" xlink:href="#ah"/></g><g id="r"><use transform="matrix(0.05,0,0,0.05,0,0)" xlink:href="#ak"/><use transform="matrix(0.05,0,0,0.05,3.95,0)" xlink:href="#ao"/><use transform="matrix(0.05,0,0,0.05,18.900000000000002,0)" xlink:href="#au"/><use transform="matrix(0.05,0,0,0.05,28.900000000000002,0)" xlink:href="#al"/><use transform="matrix(0.05,0,0,0.05,38.900000000000006,0)" xlink:href="#av"/><use transform="matrix(0.05,0,0,0.05,47.900000000000006,0)" xlink:href="#at"/><use transform="matrix(0.05,0,0,0.05,52.900000000000006,0)" xlink:href="#ai"/><use transform="matrix(0.05,0,0,0.05,62.900000000000006,0)" xlink:href="#aj"/><use transform="matrix(0.05,0,0,0.05,71.9,0)" xlink:href="#ak"/><use transform="matrix(0.05,0,0,0.05,75.85000000000001,0)" xlink:href="#al"/><use transform="matrix(0.05,0,0,0.05,85.85000000000001,0)" xlink:href="#am"/><use transform="matrix(0.05,0,0,0.05,95.85000000000001,0)" xlink:href="#ah"/></g><g id="s"><use transform="matrix(0.05,0,0,0.05,0,0)" xlink:href="#ap"/><use transform="matrix(0.05,0,0,0.05,10,0)" xlink:href="#ak"/><use transform="matrix(0.05,0,0,0.05,13.949999999999998,0)" xlink:href="#aq"/><use transform="matrix(0.05,0,0,0.05,18.6,0)" xlink:href="#aq"/><use transform="matrix(0.05,0,0,0.05,23.6,0)" xlink:href="#ak"/><use transform="matrix(0.05,0,0,0.05,27.55,0)" xlink:href="#ar"/><use transform="matrix(0.05,0,0,0.05,36.55,0)" xlink:href="#al"/><use transform="matrix(0.05,0,0,0.05,46.55,0)" xlink:href="#ax"/><use transform="matrix(0.05,0,0,0.05,50.5,0)" xlink:href="#at"/><use transform="matrix(0.05,0,0,0.05,55.5,0)" xlink:href="#aw"/></g><path fill="#333" d="M15-91v-56l181-69v40L49-119l147 57v40" id="az"/><path fill="#333" d="M185-48c-13 30-37 53-82 52C43 2 14-33 14-96s30-98 90-98c62 0 83 45 84 108H66c0 31 8 55 39 56 18 0 30-7 34-22zm-45-69c5-46-57-63-70-21-2 6-4 13-4 21h74" id="aA"/><path fill="#333" d="M144 0l-44-69L55 0H2l70-98-66-92h53l41 62 40-62h54l-67 91 71 99h-54" id="aB"/><path fill="#333" d="M115-3C79 11 28 4 28-45v-112H4v-33h27l15-45h31v45h36v33H77v99c-1 23 16 31 38 25v30" id="aC"/><path fill="#333" d="M135-194c87-1 58 113 63 194h-50c-7-57 23-157-34-157-59 0-34 97-39 157H25l-1-190h47c2 12-1 28 3 38 12-26 28-41 61-42" id="aD"/><path fill="#333" d="M88-194c31-1 46 15 58 34l-1-101h50l1 261h-48c-2-10 0-23-3-31C134-8 116 4 84 4 32 4 16-41 15-95c0-56 19-97 73-99zm17 164c33 0 40-30 41-66 1-37-9-64-41-64s-38 30-39 65c0 43 13 65 39 65" id="aE"/><path fill="#333" d="M15-22v-40l146-57-146-57v-40l181 69v56" id="aF"/><g id="t"><use transform="matrix(0.04938271604938272,0,0,0.04938271604938272,0,0)" xlink:href="#az"/><use transform="matrix(0.04938271604938272,0,0,0.04938271604938272,10.370370370370372,0)" xlink:href="#aA"/><use transform="matrix(0.04938271604938272,0,0,0.04938271604938272,20.24691358024692,0)" xlink:href="#aB"/><use transform="matrix(0.04938271604938272,0,0,0.04938271604938272,30.123456790123466,0)" xlink:href="#aC"/><use transform="matrix(0.04938271604938272,0,0,0.04938271604938272,36.00000000000001,0)" xlink:href="#aA"/><use transform="matrix(0.04938271604938272,0,0,0.04938271604938272,45.87654320987655,0)" xlink:href="#aD"/><use transform="matrix(0.04938271604938272,0,0,0.04938271604938272,56.69135802469136,0)" xlink:href="#aE"/><use transform="matrix(0.04938271604938272,0,0,0.04938271604938272,67.50617283950618,0)" xlink:href="#aF"/></g><path fill="#333" d="M25-224v-37h50v37H25zM25 0v-190h50V0H25" id="aG"/><path fill="#333" d="M190-63c-7 42-38 67-86 67-59 0-84-38-90-98-12-110 154-137 174-36l-49 2c-2-19-15-32-35-32-30 0-35 28-38 64-6 74 65 87 74 30" id="aH"/><path fill="#333" d="M25 0v-261h50V0H25" id="aI"/><path fill="#333" d="M85 4C-2 5 27-109 22-190h50c7 57-23 150 33 157 60-5 35-97 40-157h50l1 190h-47c-2-12 1-28-3-38-12 25-28 42-61 42" id="aJ"/><g id="u"><use transform="matrix(0.04938271604938272,0,0,0.04938271604938272,0,0)" xlink:href="#az"/><use transform="matrix(0.04938271604938272,0,0,0.04938271604938272,10.370370370370372,0)" xlink:href="#aG"/><use transform="matrix(0.04938271604938272,0,0,0.04938271604938272,15.308641975308642,0)" xlink:href="#aD"/><use transform="matrix(0.04938271604938272,0,0,0.04938271604938272,26.12345679012346,0)" xlink:href="#aH"/><use transform="matrix(0.04938271604938272,0,0,0.04938271604938272,36,0)" xlink:href="#aI"/><use transform="matrix(0.04938271604938272,0,0,0.04938271604938272,40.93827160493827,0)" xlink:href="#aJ"/><use transform="matrix(0.04938271604938272,0,0,0.04938271604938272,51.75308641975309,0)" xlink:href="#aE"/><use transform="matrix(0.04938271604938272,0,0,0.04938271604938272,62.567901234567906,0)" xlink:href="#aA"/><use transform="matrix(0.04938271604938272,0,0,0.04938271604938272,72.44444444444446,0)" xlink:href="#aF"/></g><g id="v"><use transform="matrix(0.04938271604938272,0,0,0.04938271604938272,0,0)" xlink:href="#az"/><use transform="matrix(0.04938271604938272,0,0,0.04938271604938272,10.370370370370372,0)" xlink:href="#aA"/><use transform="matrix(0.04938271604938272,0,0,0.04938271604938272,20.24691358024692,0)" xlink:href="#aB"/><use transform="matrix(0.04938271604938272,0,0,0.04938271604938272,30.123456790123466,0)" xlink:href="#aC"/><use transform="matrix(0.04938271604938272,0,0,0.04938271604938272,36.00000000000001,0)" xlink:href="#aA"/><use transform="matrix(0.04938271604938272,0,0,0.04938271604938272,45.87654320987655,0)" xlink:href="#aD"/><use transform="matrix(0.04938271604938272,0,0,0.04938271604938272,56.69135802469136,0)" xlink:href="#aE"/><use transform="matrix(0.04938271604938272,0,0,0.04938271604938272,67.50617283950618,0)" xlink:href="#aF"/></g><g id="w"><use transform="matrix(0.06172839506172839,0,0,0.06172839506172839,0,0)" xlink:href="#W"/><use transform="matrix(0.06172839506172839,0,0,0.06172839506172839,15.987654320987653,0)" xlink:href="#X"/><use transform="matrix(0.06172839506172839,0,0,0.06172839506172839,22.160493827160494,0)" xlink:href="#Y"/><use transform="matrix(0.06172839506172839,0,0,0.06172839506172839,34.50617283950617,0)" xlink:href="#Z"/><use transform="matrix(0.06172839506172839,0,0,0.06172839506172839,46.85185185185185,0)" xlink:href="#X"/><use transform="matrix(0.06172839506172839,0,0,0.06172839506172839,53.02469135802469,0)" xlink:href="#Y"/></g><g id="x"><use transform="matrix(0.06172839506172839,0,0,0.06172839506172839,0,0)" xlink:href="#ab"/><use transform="matrix(0.06172839506172839,0,0,0.06172839506172839,12.345679012345679,0)" xlink:href="#ac"/><use transform="matrix(0.06172839506172839,0,0,0.06172839506172839,24.691358024691358,0)" xlink:href="#X"/><use transform="matrix(0.06172839506172839,0,0,0.06172839506172839,30.864197530864196,0)" xlink:href="#Y"/><use transform="matrix(0.06172839506172839,0,0,0.06172839506172839,43.20987654320987,0)" xlink:href="#Z"/><use transform="matrix(0.06172839506172839,0,0,0.06172839506172839,55.55555555555555,0)" xlink:href="#X"/><use transform="matrix(0.06172839506172839,0,0,0.06172839506172839,61.72839506172839,0)" xlink:href="#ad"/><use transform="matrix(0.06172839506172839,0,0,0.06172839506172839,66.60493827160494,0)" xlink:href="#ae"/><use transform="matrix(0.06172839506172839,0,0,0.06172839506172839,77.71604938271605,0)" xlink:href="#ab"/><use transform="matrix(0.06172839506172839,0,0,0.06172839506172839,90.06172839506173,0)" xlink:href="#X"/><use transform="matrix(0.06172839506172839,0,0,0.06172839506172839,96.23456790123457,0)" xlink:href="#aa"/></g><path fill="#3a414a" d="M135-143c-3-34-86-38-87 0 15 53 115 12 119 90S17 21 10-45l28-5c4 36 97 45 98 0-10-56-113-15-118-90-4-57 82-63 122-42 12 7 21 19 24 35" id="aK"/><path fill="#3a414a" d="M85-194c31 0 48 13 60 33l-1-100h32l1 261h-30c-2-10 0-23-3-31C134-8 116 4 85 4 32 4 16-35 15-94c0-66 23-100 70-100zm9 24c-40 0-46 34-46 75 0 40 6 74 45 74 42 0 51-32 51-76 0-42-9-74-50-73" id="aL"/><path fill="#3a414a" d="M114-163C36-179 61-72 57 0H25l-1-190h30c1 12-1 29 2 39 6-27 23-49 58-41v29" id="aM"/><g id="y"><use transform="matrix(0.06172839506172839,0,0,0.06172839506172839,0,0)" xlink:href="#aK"/><use transform="matrix(0.06172839506172839,0,0,0.06172839506172839,11.11111111111111,0)" xlink:href="#X"/><use transform="matrix(0.06172839506172839,0,0,0.06172839506172839,17.28395061728395,0)" xlink:href="#ab"/><use transform="matrix(0.06172839506172839,0,0,0.06172839506172839,29.629629629629626,0)" xlink:href="#Z"/><use transform="matrix(0.06172839506172839,0,0,0.06172839506172839,41.9753086419753,0)" xlink:href="#aL"/><use transform="matrix(0.06172839506172839,0,0,0.06172839506172839,54.32098765432098,0)" xlink:href="#ab"/><use transform="matrix(0.06172839506172839,0,0,0.06172839506172839,66.66666666666666,0)" xlink:href="#aM"/><use transform="matrix(0.06172839506172839,0,0,0.06172839506172839,74.01234567901234,0)" xlink:href="#aL"/></g><g id="z"><use transform="matrix(0.05,0,0,0.05,0,0)" xlink:href="#ar"/><use transform="matrix(0.05,0,0,0.05,9,0)" xlink:href="#al"/><use transform="matrix(0.05,0,0,0.05,19,0)" xlink:href="#am"/><use transform="matrix(0.05,0,0,0.05,29,0)" xlink:href="#ap"/><use transform="matrix(0.05,0,0,0.05,39,0)" xlink:href="#ak"/><use transform="matrix(0.05,0,0,0.05,42.95,0)" xlink:href="#as"/><use transform="matrix(0.05,0,0,0.05,51.95,0)" xlink:href="#ak"/><use transform="matrix(0.05,0,0,0.05,55.900000000000006,0)" xlink:href="#av"/><use transform="matrix(0.05,0,0,0.05,64.9,0)" xlink:href="#ak"/><use transform="matrix(0.05,0,0,0.05,68.85000000000001,0)" xlink:href="#al"/><use transform="matrix(0.05,0,0,0.05,78.85000000000001,0)" xlink:href="#am"/><use transform="matrix(0.05,0,0,0.05,88.85000000000001,0)" xlink:href="#ah"/></g><g id="A"><use transform="matrix(0.05,0,0,0.05,0,0)" xlink:href="#ah"/><use transform="matrix(0.05,0,0,0.05,10,0)" xlink:href="#as"/><use transform="matrix(0.05,0,0,0.05,19,0)" xlink:href="#ah"/><use transform="matrix(0.05,0,0,0.05,29,0)" xlink:href="#am"/><use transform="matrix(0.05,0,0,0.05,39,0)" xlink:href="#at"/><use transform="matrix(0.05,0,0,0.05,44,0)" xlink:href="#al"/></g><g id="B"><use transform="matrix(0.05,0,0,0.05,0,0)" xlink:href="#ar"/><use transform="matrix(0.05,0,0,0.05,9,0)" xlink:href="#al"/><use transform="matrix(0.05,0,0,0.05,19,0)" xlink:href="#am"/></g><g id="C"><use transform="matrix(0.05,0,0,0.05,0,0)" xlink:href="#ai"/><use transform="matrix(0.05,0,0,0.05,10,0)" xlink:href="#ax"/><use transform="matrix(0.05,0,0,0.05,13.949999999999998,0)" xlink:href="#at"/><use transform="matrix(0.05,0,0,0.05,18.95,0)" xlink:href="#ag"/><use transform="matrix(0.05,0,0,0.05,24.9,0)" xlink:href="#ak"/></g><g id="D"><use transform="matrix(0.05,0,0,0.05,0,0)" xlink:href="#ay"/><use transform="matrix(0.05,0,0,0.05,10,0)" xlink:href="#at"/><use transform="matrix(0.05,0,0,0.05,15,0)" xlink:href="#ah"/><use transform="matrix(0.05,0,0,0.05,25,0)" xlink:href="#am"/><use transform="matrix(0.05,0,0,0.05,35,0)" xlink:href="#at"/><use transform="matrix(0.05,0,0,0.05,40,0)" xlink:href="#ak"/></g><g id="E"><use transform="matrix(0.05,0,0,0.05,0,0)" xlink:href="#ak"/><use transform="matrix(0.05,0,0,0.05,3.95,0)" xlink:href="#ao"/><use transform="matrix(0.05,0,0,0.05,18.900000000000002,0)" xlink:href="#au"/><use transform="matrix(0.05,0,0,0.05,28.900000000000002,0)" xlink:href="#al"/><use transform="matrix(0.05,0,0,0.05,38.900000000000006,0)" xlink:href="#av"/><use transform="matrix(0.05,0,0,0.05,47.900000000000006,0)" xlink:href="#at"/><use transform="matrix(0.05,0,0,0.05,52.900000000000006,0)" xlink:href="#ai"/><use transform="matrix(0.05,0,0,0.05,62.900000000000006,0)" xlink:href="#ag"/><use transform="matrix(0.05,0,0,0.05,68.85000000000001,0)" xlink:href="#ah"/></g><path d="M106-169C34-169 62-67 57 0H25v-261h32l-1 103c12-21 28-36 61-36 89 0 53 116 60 194h-32v-121c2-32-8-49-39-48" id="aN"/><g id="F"><use transform="matrix(0.05,0,0,0.05,0,0)" xlink:href="#am"/><use transform="matrix(0.05,0,0,0.05,10,0)" xlink:href="#al"/><use transform="matrix(0.05,0,0,0.05,20,0)" xlink:href="#at"/><use transform="matrix(0.05,0,0,0.05,25,0)" xlink:href="#ak"/><use transform="matrix(0.05,0,0,0.05,28.950000000000003,0)" xlink:href="#aq"/><use transform="matrix(0.05,0,0,0.05,33.95,0)" xlink:href="#ak"/><use transform="matrix(0.05,0,0,0.05,37.900000000000006,0)" xlink:href="#ar"/><use transform="matrix(0.05,0,0,0.05,46.900000000000006,0)" xlink:href="#aN"/><use transform="matrix(0.05,0,0,0.05,56.900000000000006,0)" xlink:href="#ah"/></g><path d="M177-190C167-65 218 103 67 71c-23-6-38-20-44-43l32-5c15 47 100 32 89-28v-30C133-14 115 1 83 1 29 1 15-40 15-95c0-56 16-97 71-98 29-1 48 16 59 35 1-10 0-23 2-32h30zM94-22c36 0 50-32 50-73 0-42-14-75-50-75-39 0-46 34-46 75s6 73 46 73" id="aO"/><g id="G"><use transform="matrix(0.05,0,0,0.05,0,0)" xlink:href="#ax"/><use transform="matrix(0.05,0,0,0.05,3.95,0)" xlink:href="#ay"/><use transform="matrix(0.05,0,0,0.05,13.949999999999998,0)" xlink:href="#al"/><use transform="matrix(0.05,0,0,0.05,23.95,0)" xlink:href="#aO"/><use transform="matrix(0.05,0,0,0.05,33.95,0)" xlink:href="#al"/></g><g id="H"><use transform="matrix(0.05,0,0,0.05,0,0)" xlink:href="#ap"/><use transform="matrix(0.05,0,0,0.05,10,0)" xlink:href="#ah"/><use transform="matrix(0.05,0,0,0.05,20,0)" xlink:href="#aq"/><use transform="matrix(0.05,0,0,0.05,25,0)" xlink:href="#ak"/><use transform="matrix(0.05,0,0,0.05,28.950000000000003,0)" xlink:href="#am"/><use transform="matrix(0.05,0,0,0.05,38.95,0)" xlink:href="#ak"/><use transform="matrix(0.05,0,0,0.05,42.900000000000006,0)" xlink:href="#ag"/><use transform="matrix(0.05,0,0,0.05,48.85000000000001,0)" xlink:href="#ah"/></g><g id="I"><use transform="matrix(0.05,0,0,0.05,0,0)" xlink:href="#ak"/><use transform="matrix(0.05,0,0,0.05,3.95,0)" xlink:href="#ao"/><use transform="matrix(0.05,0,0,0.05,18.900000000000002,0)" xlink:href="#au"/><use transform="matrix(0.05,0,0,0.05,28.900000000000002,0)" xlink:href="#al"/><use transform="matrix(0.05,0,0,0.05,38.900000000000006,0)" xlink:href="#av"/><use transform="matrix(0.05,0,0,0.05,47.900000000000006,0)" xlink:href="#at"/><use transform="matrix(0.05,0,0,0.05,52.900000000000006,0)" xlink:href="#ai"/><use transform="matrix(0.05,0,0,0.05,62.900000000000006,0)" xlink:href="#aj"/><use transform="matrix(0.05,0,0,0.05,71.9,0)" xlink:href="#ak"/><use transform="matrix(0.05,0,0,0.05,75.85000000000001,0)" xlink:href="#al"/><use transform="matrix(0.05,0,0,0.05,85.85000000000001,0)" xlink:href="#am"/><use transform="matrix(0.05,0,0,0.05,95.85000000000001,0)" xlink:href="#ak"/></g><g id="J"><use transform="matrix(0.05,0,0,0.05,0,0)" xlink:href="#ai"/><use transform="matrix(0.05,0,0,0.05,10,0)" xlink:href="#aO"/><use transform="matrix(0.05,0,0,0.05,20,0)" xlink:href="#aO"/><use transform="matrix(0.05,0,0,0.05,30,0)" xlink:href="#ak"/><use transform="matrix(0.05,0,0,0.05,33.95,0)" xlink:href="#ay"/><use transform="matrix(0.05,0,0,0.05,43.95,0)" xlink:href="#am"/><use transform="matrix(0.05,0,0,0.05,53.95,0)" xlink:href="#at"/><use transform="matrix(0.05,0,0,0.05,58.95,0)" xlink:href="#ak"/><use transform="matrix(0.05,0,0,0.05,62.900000000000006,0)" xlink:href="#as"/><use transform="matrix(0.05,0,0,0.05,71.9,0)" xlink:href="#ah"/></g><path fill="#3a414a" d="M185-189c-5-48-123-54-124 2 14 75 158 14 163 119 3 78-121 87-175 55-17-10-28-26-33-46l33-7c5 56 141 63 141-1 0-78-155-14-162-118-5-82 145-84 179-34 5 7 8 16 11 25" id="aP"/><path fill="#3a414a" d="M108 0H70L1-190h34L89-25l56-165h34" id="aQ"/><path fill="#3a414a" d="M9 0v-24l116-142H16v-24h144v24L44-24h123V0H9" id="aR"/><g id="K"><use transform="matrix(0.06172839506172839,0,0,0.06172839506172839,0,0)" xlink:href="#aP"/><use transform="matrix(0.06172839506172839,0,0,0.06172839506172839,14.814814814814813,0)" xlink:href="#Y"/><use transform="matrix(0.06172839506172839,0,0,0.06172839506172839,27.160493827160494,0)" xlink:href="#aM"/><use transform="matrix(0.06172839506172839,0,0,0.06172839506172839,34.50617283950617,0)" xlink:href="#aQ"/><use transform="matrix(0.06172839506172839,0,0,0.06172839506172839,45.61728395061728,0)" xlink:href="#ad"/><use transform="matrix(0.06172839506172839,0,0,0.06172839506172839,50.49382716049382,0)" xlink:href="#aR"/><use transform="matrix(0.06172839506172839,0,0,0.06172839506172839,61.60493827160494,0)" xlink:href="#ad"/><use transform="matrix(0.06172839506172839,0,0,0.06172839506172839,66.48148148148148,0)" xlink:href="#aa"/></g><g id="L"><use transform="matrix(0.06172839506172839,0,0,0.06172839506172839,0,0)" xlink:href="#Y"/><use transform="matrix(0.06172839506172839,0,0,0.06172839506172839,12.345679012345679,0)" xlink:href="#aK"/><use transform="matrix(0.06172839506172839,0,0,0.06172839506172839,23.45679012345679,0)" xlink:href="#X"/><use transform="matrix(0.06172839506172839,0,0,0.06172839506172839,29.62962962962963,0)" xlink:href="#Y"/><use transform="matrix(0.06172839506172839,0,0,0.06172839506172839,41.97530864197531,0)" xlink:href="#aM"/><use transform="matrix(0.06172839506172839,0,0,0.06172839506172839,49.32098765432099,0)" xlink:href="#Z"/><use transform="matrix(0.06172839506172839,0,0,0.06172839506172839,61.666666666666664,0)" xlink:href="#aa"/></g><g id="M"><use transform="matrix(0.06172839506172839,0,0,0.06172839506172839,0,0)" xlink:href="#aL"/><use transform="matrix(0.06172839506172839,0,0,0.06172839506172839,12.345679012345679,0)" xlink:href="#ad"/></g><path fill="#3a414a" d="M210-169c-67 3-38 105-44 169h-31v-121c0-29-5-50-35-48C34-165 62-65 56 0H25l-1-190h30c1 10-1 24 2 32 10-44 99-50 107 0 11-21 27-35 58-36 85-2 47 119 55 194h-31v-121c0-29-5-49-35-48" id="aS"/><path fill="#3a414a" d="M115-194c55 1 70 41 70 98S169 2 115 4C84 4 66-9 55-30l1 105H24l-1-265h31l2 30c10-21 28-34 59-34zm-8 174c40 0 45-34 45-75s-6-73-45-74c-42 0-51 32-51 76 0 43 10 73 51 73" id="aT"/><g id="N"><use transform="matrix(0.06172839506172839,0,0,0.06172839506172839,0,0)" xlink:href="#aS"/><use transform="matrix(0.06172839506172839,0,0,0.06172839506172839,18.456790123456788,0)" xlink:href="#ab"/><use transform="matrix(0.06172839506172839,0,0,0.06172839506172839,30.80246913580247,0)" xlink:href="#aT"/><use transform="matrix(0.06172839506172839,0,0,0.06172839506172839,43.148148148148145,0)" xlink:href="#aT"/><use transform="matrix(0.06172839506172839,0,0,0.06172839506172839,55.49382716049382,0)" xlink:href="#Y"/></g><path fill="#3a414a" d="M205 0l-28-72H64L36 0H1l101-248h38L239 0h-34zm-38-99l-47-123c-12 45-31 82-46 123h93" id="aU"/><path fill="#3a414a" d="M24 0v-261h32V0H24" id="aV"/><g id="O"><use transform="matrix(0.06172839506172839,0,0,0.06172839506172839,0,0)" xlink:href="#aU"/><use transform="matrix(0.06172839506172839,0,0,0.06172839506172839,14.814814814814813,0)" xlink:href="#aV"/><use transform="matrix(0.06172839506172839,0,0,0.06172839506172839,19.691358024691354,0)" xlink:href="#X"/><use transform="matrix(0.06172839506172839,0,0,0.06172839506172839,25.864197530864192,0)" xlink:href="#aM"/><use transform="matrix(0.06172839506172839,0,0,0.06172839506172839,33.20987654320987,0)" xlink:href="#aa"/></g><g id="P"><use transform="matrix(0.06172839506172839,0,0,0.06172839506172839,0,0)" xlink:href="#ac"/><use transform="matrix(0.06172839506172839,0,0,0.06172839506172839,12.345679012345679,0)" xlink:href="#X"/><use transform="matrix(0.06172839506172839,0,0,0.06172839506172839,18.51851851851852,0)" xlink:href="#Y"/><use transform="matrix(0.06172839506172839,0,0,0.06172839506172839,30.864197530864196,0)" xlink:href="#Z"/><use transform="matrix(0.06172839506172839,0,0,0.06172839506172839,43.20987654320987,0)" xlink:href="#X"/><use transform="matrix(0.06172839506172839,0,0,0.06172839506172839,49.382716049382715,0)" xlink:href="#Y"/></g><g id="Q"><use transform="matrix(0.06172839506172839,0,0,0.06172839506172839,0,0)" xlink:href="#ab"/><use transform="matrix(0.06172839506172839,0,0,0.06172839506172839,12.345679012345679,0)" xlink:href="#ac"/><use transform="matrix(0.06172839506172839,0,0,0.06172839506172839,24.691358024691358,0)" xlink:href="#X"/><use transform="matrix(0.06172839506172839,0,0,0.06172839506172839,30.864197530864196,0)" xlink:href="#Y"/><use transform="matrix(0.06172839506172839,0,0,0.06172839506172839,43.20987654320987,0)" xlink:href="#Z"/><use transform="matrix(0.06172839506172839,0,0,0.06172839506172839,55.55555555555555,0)" xlink:href="#X"/><use transform="matrix(0.06172839506172839,0,0,0.06172839506172839,61.72839506172839,0)" xlink:href="#ad"/><use transform="matrix(0.06172839506172839,0,0,0.06172839506172839,66.60493827160494,0)" xlink:href="#ae"/><use transform="matrix(0.06172839506172839,0,0,0.06172839506172839,77.71604938271605,0)" xlink:href="#ab"/><use transform="matrix(0.06172839506172839,0,0,0.06172839506172839,90.06172839506173,0)" xlink:href="#X"/><use transform="matrix(0.06172839506172839,0,0,0.06172839506172839,96.23456790123457,0)" xlink:href="#aa"/></g><g id="R"><use transform="matrix(0.06172839506172839,0,0,0.06172839506172839,0,0)" xlink:href="#aK"/><use transform="matrix(0.06172839506172839,0,0,0.06172839506172839,11.11111111111111,0)" xlink:href="#X"/><use transform="matrix(0.06172839506172839,0,0,0.06172839506172839,17.28395061728395,0)" xlink:href="#ab"/><use transform="matrix(0.06172839506172839,0,0,0.06172839506172839,29.629629629629626,0)" xlink:href="#Z"/><use transform="matrix(0.06172839506172839,0,0,0.06172839506172839,41.9753086419753,0)" xlink:href="#aL"/><use transform="matrix(0.06172839506172839,0,0,0.06172839506172839,54.32098765432098,0)" xlink:href="#ab"/><use transform="matrix(0.06172839506172839,0,0,0.06172839506172839,66.66666666666666,0)" xlink:href="#aM"/><use transform="matrix(0.06172839506172839,0,0,0.06172839506172839,74.01234567901234,0)" xlink:href="#aL"/></g><g id="S"><use transform="matrix(0.05,0,0,0.05,0,0)" xlink:href="#ak"/><use transform="matrix(0.05,0,0,0.05,3.95,0)" xlink:href="#ao"/><use transform="matrix(0.05,0,0,0.05,18.900000000000002,0)" xlink:href="#au"/><use transform="matrix(0.05,0,0,0.05,28.900000000000002,0)" xlink:href="#al"/><use transform="matrix(0.05,0,0,0.05,38.900000000000006,0)" xlink:href="#av"/><use transform="matrix(0.05,0,0,0.05,47.900000000000006,0)" xlink:href="#at"/><use transform="matrix(0.05,0,0,0.05,52.900000000000006,0)" xlink:href="#ai"/><use transform="matrix(0.05,0,0,0.05,62.900000000000006,0)" xlink:href="#ag"/><use transform="matrix(0.05,0,0,0.05,68.85000000000001,0)" xlink:href="#ah"/></g><g id="T"><use transform="matrix(0.05,0,0,0.05,0,0)" xlink:href="#ar"/><use transform="matrix(0.05,0,0,0.05,9,0)" xlink:href="#ai"/><use transform="matrix(0.05,0,0,0.05,19,0)" xlink:href="#ax"/><use transform="matrix(0.05,0,0,0.05,22.95,0)" xlink:href="#ah"/><use transform="matrix(0.05,0,0,0.05,32.95,0)" xlink:href="#am"/><use transform="matrix(0.05,0,0,0.05,42.95,0)" xlink:href="#ap"/><use transform="matrix(0.05,0,0,0.05,52.95,0)" xlink:href="#ai"/><use transform="matrix(0.05,0,0,0.05,62.95,0)" xlink:href="#ag"/><use transform="matrix(0.05,0,0,0.05,68.9,0)" xlink:href="#ak"/><use transform="matrix(0.05,0,0,0.05,72.85000000000001,0)" xlink:href="#al"/></g><path fill="#3a414a" d="M240 0l2-218c-23 76-54 145-80 218h-23L58-218 59 0H30v-248h44l77 211c21-75 51-140 76-211h43V0h-30" id="aW"/><path fill="#3a414a" d="M177-190C167-65 218 103 67 71c-23-6-38-20-44-43l32-5c15 47 100 32 89-28v-30C133-14 115 1 83 1 29 1 15-40 15-95c0-56 16-97 71-98 29-1 48 16 59 35 1-10 0-23 2-32h30zM94-22c36 0 50-32 50-73 0-42-14-75-50-75-39 0-46 34-46 75s6 73 46 73" id="aX"/><path fill="#3a414a" d="M30-248c118-7 216 8 213 122C240-48 200 0 122 0H30v-248zM63-27c89 8 146-16 146-99s-60-101-146-95v194" id="aY"/><path fill="#3a414a" d="M160-131c35 5 61 23 61 61C221 17 115-2 30 0v-248c76 3 177-17 177 60 0 33-19 50-47 57zm-97-11c50-1 110 9 110-42 0-47-63-36-110-37v79zm0 115c55-2 124 14 124-45 0-56-70-42-124-44v89" id="aZ"/><g id="U"><use transform="matrix(0.06172839506172839,0,0,0.06172839506172839,0,0)" xlink:href="#aW"/><use transform="matrix(0.06172839506172839,0,0,0.06172839506172839,18.456790123456788,0)" xlink:href="#aa"/><use transform="matrix(0.06172839506172839,0,0,0.06172839506172839,30.80246913580247,0)" xlink:href="#Z"/><use transform="matrix(0.06172839506172839,0,0,0.06172839506172839,43.148148148148145,0)" xlink:href="#aX"/><use transform="matrix(0.06172839506172839,0,0,0.06172839506172839,55.49382716049382,0)" xlink:href="#aa"/><use transform="matrix(0.06172839506172839,0,0,0.06172839506172839,67.8395061728395,0)" xlink:href="#aY"/><use transform="matrix(0.06172839506172839,0,0,0.06172839506172839,83.82716049382717,0)" xlink:href="#aZ"/></g><g id="V"><use transform="matrix(0.05,0,0,0.05,0,0)" xlink:href="#av"/><use transform="matrix(0.05,0,0,0.05,9,0)" xlink:href="#ai"/><use transform="matrix(0.05,0,0,0.05,19,0)" xlink:href="#ax"/><use transform="matrix(0.05,0,0,0.05,22.95,0)" xlink:href="#as"/><use transform="matrix(0.05,0,0,0.05,31.950000000000003,0)" xlink:href="#ai"/><use transform="matrix(0.05,0,0,0.05,41.95,0)" xlink:href="#at"/><use transform="matrix(0.05,0,0,0.05,46.95,0)" xlink:href="#ai"/><use transform="matrix(0.05,0,0,0.05,56.95,0)" xlink:href="#aO"/><use transform="matrix(0.05,0,0,0.05,66.95,0)" xlink:href="#aO"/><use transform="matrix(0.05,0,0,0.05,76.95,0)" xlink:href="#ak"/><use transform="matrix(0.05,0,0,0.05,80.9,0)" xlink:href="#al"/></g></defs></g></svg>