<svg xmlns="http://www.w3.org/2000/svg" xmlns:xlink="http://www.w3.org/1999/xlink" xmlns:lucid="lucid" width="775" height="667"><g transform="translate(-300 -420)" lucid:page-tab-id="TSu6Mv~-7GZR"><path d="M0 0h1870.87v1322.83H0z" fill="#fff"/><path d="M479.75 593.55c0 10.9-8.84 19.75-19.75 19.75-10.9 0-19.75-8.85-19.75-19.75S449.1 573.8 460 573.8c10.9 0 19.75 8.84 19.75 19.75z" stroke="#3a414a" fill="#fff"/><path d="M460 613.3v49.3a20.7 20.7 0 0 0 3.2 11.06L500 731.8m-40-63.2l-40 63.2m0-98.75h80" stroke="#3a414a" fill="none"/><path d="M420 579.8a6 6 0 0 1 6-6h68a6 6 0 0 1 6 6v168a6 6 0 0 1-6 6h-68a6 6 0 0 1-6-6z" fill="none"/><use xlink:href="#a" transform="matrix(1,0,0,1,340,731.7951119067184) translate(87.31481481481481 17.77777777777778)"/><use xlink:href="#b" transform="matrix(1,0,0,1,340,731.7951119067184) translate(44.10493827160494 44.44444444444444)"/><use xlink:href="#c" transform="matrix(1,0,0,1,340,731.7951119067184) translate(87.31481481481481 44.44444444444444)"/><path d="M720 653.8c0 33.13-35.82 60-80 60s-80-26.87-80-60c0-33.14 35.82-60 80-60s80 26.86 80 60z" stroke="#3a414a" fill="#fff"/><use xlink:href="#d" transform="matrix(1,0,0,1,560,593.7951119067184) translate(21.18 63.15)"/><use xlink:href="#e" transform="matrix(1,0,0,1,560,593.7951119067184) translate(75.97999999999999 63.15)"/><path d="M460 652.73h99.03M460 652.73h-3.5" stroke="#3a414a" fill="none"/><path d="M559.52 653.23h-.5v-1h.53z" stroke="#3a414a" stroke-width=".05" fill="#3a414a"/><path d="M1035 520c0 33.14-35.8 60-80 60-44.17 0-80-26.86-80-60s35.83-60 80-60c44.2 0 80 26.86 80 60z" stroke="#3a414a" fill="#fff"/><use xlink:href="#f" transform="matrix(1,0,0,1,875.0099917164075,460) translate(17.529999999999994 63.15)"/><use xlink:href="#g" transform="matrix(1,0,0,1,875.0099917164075,460) translate(48.48 63.15)"/><use xlink:href="#h" transform="matrix(1,0,0,1,875.0099917164075,460) translate(88.48 63.15)"/><path d="M1035 653.8c0 33.13-35.8 60-80 60-44.17 0-80-26.87-80-60 0-33.14 35.83-60 80-60 44.2 0 80 26.86 80 60z" stroke="#3a414a" fill="#fff"/><use xlink:href="#f" transform="matrix(1,0,0,1,875.0099917164075,593.7951119067184) translate(37.129999999999995 51.9)"/><use xlink:href="#i" transform="matrix(1,0,0,1,875.0099917164075,593.7951119067184) translate(68.08 51.9)"/><use xlink:href="#h" transform="matrix(1,0,0,1,875.0099917164075,593.7951119067184) translate(53.004999999999995 73.5)"/><path d="M738.7 654.3h-1.82v-1h1.82zm6.07 0h-3.64v-1h3.64zm5.62-.17l-.37.1-1 .07h-1.84v-1h1.8l.87-.07.28-.07zm3.75-2.38l-.54.64-.77.65-.7.44-.54-.86.64-.4.66-.56.5-.58zm1.3-4.5v1.54l-.26 1-.15.34-.92-.38.1-.27.2-.83v-1.4zm0-4.9v2.95h-1v-2.95zm0-4.9v2.94h-1v-2.96zm0-4.92v2.95h-1v-2.95zm0-4.9v2.94h-1v-2.95zm0-4.92v2.96h-1v-2.95zm0-4.9v2.95h-1v-2.95zm0-4.9v2.94h-1v-2.94zm0-4.9v2.93h-1V608zm0-4.92v2.94h-1v-2.94zm.02-4.9v2.93h-1v-2.93zm0-4.92v2.94h-1v-2.94zm0-4.9v2.93h-1v-2.95zm0-4.92v2.95l-1-.02v-2.94zm0-4.9v2.94h-1v-2.95zm0-4.92v2.95h-1v-2.95zm0-4.9v2.94h-1v-2.95zm.02-4.92v2.95h-1v-2.95zm0-4.9v2.94h-1v-2.95zm0-4.92v2.95h-1v-2.95zm0-4.9V552h-1v-2.95zm0-4.92v2.95h-1v-2.94zm0-4.9v2.94h-1v-2.95zm0-4.9v2.93h-1v-2.95zm0-4.92v2.94h-1v-2.94zm.15-4.58l-.07.28-.07.88v1.45h-1v-1.5l.1-1 .07-.35zm2.05-3.24l-.58.5-.56.65-.4.65-.85-.53.45-.72.66-.78.65-.54zm3.86-1.05h-1.43l-.82.2-.26.1-.38-.9.34-.15 1-.25h1.56zm4.95 0h-2.96v-1h2.97zm4.97 0h-2.98v-1h2.96zm4.95 0h-2.97v-1h2.97zm4.95 0h-2.97v-1h2.97zm84.22-.06h-2.98v-1h2.97zm4.94 0h-2.97v-1h2.97zm3.47 0h-1.48v-1h1.5z" stroke="#3a414a" stroke-width=".05" fill="#3a414a"/><path d="M736.38 658.43l-14.26-4.63 14.26-4.64z" fill="#3a414a"/><path d="M736.88 659.12l-16.38-5.32 16.38-5.33zm-13.14-5.32l12.14 3.94v-7.9z" stroke="#3a414a" stroke-width=".05" fill="#3a414a"/><path d="M874.5 520v.4l.02.1H874v-1h.53z" fill="#3a414a"/><path d="M874.53 520v.53h-.56v-1.05h.58zm-.5-.48v.96h.46v-.1l-.02-.4.02-.46z" stroke="#3a414a" stroke-width=".05" fill="#3a414a"/><use xlink:href="#j" transform="matrix(1,0,0,1,783.2337488464018,509.3333333333333) translate(0 14.222222222222223)"/><path d="M738.4 654.3h-1.52v-1h1.53zm5.1 0h-3.06v-1h3.05zm5.06 0h-3.04v-1h3.04zm5.08 0h-3.04v-1h3.04zm5.08 0h-3.04v-1h3.04zm5.08 0h-3.05v-1h3.05zm5.08 0h-3.05v-1h3.05zm5.08 0h-3.05v-1h3.06zm3.63 0H776v-1h1.6zm82.7 0h-3.05v-1h3.05zm5.08 0h-3.05v-1h3.05zm5.07 0h-3.04v-1h3.05zm3.56 0h-1.5v-1h1.5z" stroke="#3a414a" stroke-width=".05" fill="#3a414a"/><path d="M736.38 658.43l-14.26-4.63 14.26-4.64z" fill="#3a414a"/><path d="M736.88 659.12l-16.38-5.32 16.38-5.33zm-13.14-5.32l12.14 3.94v-7.9z" stroke="#3a414a" stroke-width=".05" fill="#3a414a"/><path d="M874.5 653.8v.4l.02.1H874v-1h.53z" fill="#3a414a"/><path d="M874.53 653.8v.52h-.56v-1.05h.58zm-.5-.48v.95h.46v-.08l-.02-.4.02-.48z" stroke="#3a414a" stroke-width=".05" fill="#3a414a"/><use xlink:href="#j" transform="matrix(1,0,0,1,777.5937569030347,643.1284452400517) translate(0 14.222222222222223)"/><path d="M479.75 839.75c0 10.9-8.84 19.75-19.75 19.75-10.9 0-19.75-8.84-19.75-19.75 0-10.9 8.84-19.75 19.75-19.75 10.9 0 19.75 8.84 19.75 19.75z" stroke="#3a414a" fill="#fff"/><path d="M460 859.5v49.3a20.7 20.7 0 0 0 3.2 11.07L500 978m-40-63.2L420 978m0-98.75h80" stroke="#3a414a" fill="none"/><path d="M420 826a6 6 0 0 1 6-6h68a6 6 0 0 1 6 6v168a6 6 0 0 1-6 6h-68a6 6 0 0 1-6-6z" fill="none"/><use xlink:href="#k" transform="matrix(1,0,0,1,340,978) translate(87.31481481481481 17.77777777777778)"/><use xlink:href="#l" transform="matrix(1,0,0,1,340,978) translate(65.70987654320987 44.44444444444444)"/><use xlink:href="#m" transform="matrix(1,0,0,1,340,978) translate(76.82098765432099 71.11111111111111)"/><path d="M720 900c0 33.14-35.82 60-80 60s-80-26.86-80-60 35.82-60 80-60 80 26.86 80 60z" stroke="#3a414a" fill="#fff"/><use xlink:href="#n" transform="matrix(1,0,0,1,560,840) translate(55.105 29.4)"/><use xlink:href="#o" transform="matrix(1,0,0,1,560,840) translate(36.529999999999994 51)"/><use xlink:href="#p" transform="matrix(1,0,0,1,560,840) translate(109.53 51)"/><use xlink:href="#q" transform="matrix(1,0,0,1,560,840) translate(17.07999999999999 72.60000000000001)"/><use xlink:href="#r" transform="matrix(1,0,0,1,560,840) translate(87.03 72.60000000000001)"/><use xlink:href="#s" transform="matrix(1,0,0,1,560,840) translate(37.355 94.20000000000002)"/><path d="M1035 787.6c0 33.13-35.8 60-80 60-44.17 0-80-26.87-80-60 0-33.15 35.83-60 80-60 44.2 0 80 26.85 80 60z" stroke="#3a414a" fill="#fff"/><g><use xlink:href="#f" transform="matrix(1,0,0,1,875.0099917164075,727.5902238134368) translate(45.58 63.15)"/><use xlink:href="#t" transform="matrix(1,0,0,1,875.0099917164075,727.5902238134368) translate(76.53 63.15)"/></g><path d="M874 788.1h-1.46v-1H874zm-3.43 0h-2.95v-1h2.95zm-4.9 0h-2.96v-1h2.96zm-4.93 0h-2.94v-1h2.94zm-83.52 0h-2.94v-1h2.94zm-4.9 0h-2.96v-1h2.95zm-4.92 0h-2.95v-1h2.95zm-7.25-1.08l.88.07h1.45v1h-1.5l-1-.1-.35-.07.24-.98zm-3.03-1.54l.66.56.65.4-.53.85-.7-.45-.8-.66-.53-.65.76-.65zm-1.54-3l.2.8.1.28-.9.38-.15-.34-.25-1v-1.54h1zm0-3.4h-1v-2.93h1zm0-4.9h-1v-2.94h1zm0-4.9h-1v-2.95h1zm0-4.92h-1v-2.94h1zm0-4.9h-1v-2.95h1zm0-4.9h-1v-2.96h1zm-.02-4.92h-1v-2.95h1zm0-4.9h-1v-2.96h1zm0-4.92h-1v-2.95h1zm0-4.9h-1v-2.96h1zm0-4.92h-1v-2.95h1zm0-4.9h-1v-2.96h1zm0-4.92h-1l-.02-2.95h1zm-.02-4.9h-1v-2.95h1zm0-4.92h-1v-2.94h1zm0-4.9h-1v-2.95h1zm0-4.92h-1v-2.94h1zm0-4.9h-1v-2.95h1zm0-4.92h-1v-2.94h1zm0-4.9h-1l-.02-2.95h1zm-.02-4.9h-1v-2.96h1zm0-4.92h-1v-2.95h1zm0-4.9h-1v-2.96h1zm0-4.92h-1v-2.95h1zm-.1-7.4l.1 1v1.5h-1v-1.47l-.08-.87-.07-.28.98-.23zm-1.8-3.58l.65.77.44.72-.84.5-.4-.64-.56-.65-.58-.5.65-.75zm-3.6-1.83l1 .24.34.15-.38.93-.27-.1-.8-.2-1.26-.02v-1zm-3.12-.02v1h-2.62v-1zm-4.35-.02v1l-2.62-.02v-1zm-4.36-.03v1h-1.32v-1z" stroke="#3a414a" stroke-width=".05" fill="#3a414a"/><path d="M874.5 787.58v.4l.02.1H874v-1h.53z" fill="#3a414a"/><path d="M874.53 787.58v.54h-.56v-1.05h.58zm-.5-.46v.95h.46v-.1l-.02-.4.02-.45z" stroke="#3a414a" stroke-width=".05" fill="#3a414a"/><path d="M736.38 658.43l-14.26-4.63 14.26-4.64z" fill="#3a414a"/><path d="M736.88 659.12l-16.38-5.32 16.38-5.33zm-13.14-5.32l12.14 3.94v-7.9z" stroke="#3a414a" stroke-width=".05" fill="#3a414a"/><g><use xlink:href="#u" transform="matrix(1,0,0,1,778.433334079164,776.9235571467701) translate(0 14.222222222222223)"/></g><path d="M559 900h-98" stroke="#3a414a" fill="none"/><path d="M559.5 900v.5h-.5v-1h.52z" stroke="#3a414a" stroke-width=".05" fill="#3a414a"/><path d="M461 900h-3.5M459 898.93h-93a6 6 0 0 1-6-6V669.8a6 6 0 0 1 6-6h77.15M459 898.93h3.5" stroke="#3a414a" fill="none"/><path d="M457.92 663.8l-14.27 4.63v-9.27z" stroke="#3a414a" fill="#3a414a"/><defs><path fill="#3a414a" d="M232-93c-1 65-40 97-104 97C67 4 28-28 28-90v-158h33c8 89-33 224 67 224 102 0 64-133 71-224h33v155" id="v"/><path fill="#3a414a" d="M59-47c-2 24 18 29 38 22v24C64 9 27 4 27-40v-127H5v-23h24l9-43h21v43h35v23H59v120" id="w"/><path fill="#3a414a" d="M100-194c63 0 86 42 84 106H49c0 40 14 67 53 68 26 1 43-12 49-29l28 8c-11 28-37 45-77 45C44 4 14-33 15-96c1-61 26-98 85-98zm52 81c6-60-76-77-97-28-3 7-6 17-6 28h103" id="x"/><path fill="#3a414a" d="M117-194c89-4 53 116 60 194h-32v-121c0-31-8-49-39-48C34-167 62-67 57 0H25l-1-190h30c1 10-1 24 2 32 11-22 29-35 61-36" id="y"/><g id="a"><use transform="matrix(0.06172839506172839,0,0,0.06172839506172839,0,0)" xlink:href="#v"/><use transform="matrix(0.06172839506172839,0,0,0.06172839506172839,15.987654320987653,0)" xlink:href="#w"/><use transform="matrix(0.06172839506172839,0,0,0.06172839506172839,22.160493827160494,0)" xlink:href="#x"/><use transform="matrix(0.06172839506172839,0,0,0.06172839506172839,34.50617283950617,0)" xlink:href="#y"/><use transform="matrix(0.06172839506172839,0,0,0.06172839506172839,46.85185185185185,0)" xlink:href="#w"/><use transform="matrix(0.06172839506172839,0,0,0.06172839506172839,53.02469135802469,0)" xlink:href="#x"/></g><path fill="#3a414a" d="M100-194c62-1 85 37 85 99 1 63-27 99-86 99S16-35 15-95c0-66 28-99 85-99zM99-20c44 1 53-31 53-75 0-43-8-75-51-75s-53 32-53 75 10 74 51 75" id="z"/><g id="b"><use transform="matrix(0.06172839506172839,0,0,0.06172839506172839,0,0)" xlink:href="#y"/><use transform="matrix(0.06172839506172839,0,0,0.06172839506172839,12.345679012345679,0)" xlink:href="#z"/><use transform="matrix(0.06172839506172839,0,0,0.06172839506172839,24.691358024691358,0)" xlink:href="#y"/></g><path fill="#3a414a" d="M141-36C126-15 110 5 73 4 37 3 15-17 15-53c-1-64 63-63 125-63 3-35-9-54-41-54-24 1-41 7-42 31l-33-3c5-37 33-52 76-52 45 0 72 20 72 64v82c-1 20 7 32 28 27v20c-31 9-61-2-59-35zM48-53c0 20 12 33 32 33 41-3 63-29 60-74-43 2-92-5-92 41" id="A"/><path fill="#3a414a" d="M84 4C-5 8 30-112 23-190h32v120c0 31 7 50 39 49 72-2 45-101 50-169h31l1 190h-30c-1-10 1-25-2-33-11 22-28 36-60 37" id="B"/><path fill="#3a414a" d="M24-231v-30h32v30H24zM24 0v-190h32V0H24" id="C"/><path fill="#3a414a" d="M96-169c-40 0-48 33-48 73s9 75 48 75c24 0 41-14 43-38l32 2c-6 37-31 61-74 61-59 0-76-41-82-99-10-93 101-131 147-64 4 7 5 14 7 22l-32 3c-4-21-16-35-41-35" id="D"/><g id="c"><use transform="matrix(0.06172839506172839,0,0,0.06172839506172839,0,0)" xlink:href="#A"/><use transform="matrix(0.06172839506172839,0,0,0.06172839506172839,12.345679012345679,0)" xlink:href="#B"/><use transform="matrix(0.06172839506172839,0,0,0.06172839506172839,24.691358024691358,0)" xlink:href="#w"/><use transform="matrix(0.06172839506172839,0,0,0.06172839506172839,30.864197530864196,0)" xlink:href="#x"/><use transform="matrix(0.06172839506172839,0,0,0.06172839506172839,43.20987654320987,0)" xlink:href="#y"/><use transform="matrix(0.06172839506172839,0,0,0.06172839506172839,55.55555555555555,0)" xlink:href="#w"/><use transform="matrix(0.06172839506172839,0,0,0.06172839506172839,61.72839506172839,0)" xlink:href="#C"/><use transform="matrix(0.06172839506172839,0,0,0.06172839506172839,66.60493827160494,0)" xlink:href="#D"/><use transform="matrix(0.06172839506172839,0,0,0.06172839506172839,77.71604938271605,0)" xlink:href="#A"/><use transform="matrix(0.06172839506172839,0,0,0.06172839506172839,90.06172839506173,0)" xlink:href="#w"/><use transform="matrix(0.06172839506172839,0,0,0.06172839506172839,96.23456790123457,0)" xlink:href="#z"/></g><path d="M101-234c-31-9-42 10-38 44h38v23H63V0H32v-167H5v-23h27c-7-52 17-82 69-68v24" id="E"/><path d="M24-231v-30h32v30H24zM24 0v-190h32V0H24" id="F"/><path d="M24 0v-261h32V0H24" id="G"/><path d="M59-47c-2 24 18 29 38 22v24C64 9 27 4 27-40v-127H5v-23h24l9-43h21v43h35v23H59v120" id="H"/><path d="M114-163C36-179 61-72 57 0H25l-1-190h30c1 12-1 29 2 39 6-27 23-49 58-41v29" id="I"/><path d="M141-36C126-15 110 5 73 4 37 3 15-17 15-53c-1-64 63-63 125-63 3-35-9-54-41-54-24 1-41 7-42 31l-33-3c5-37 33-52 76-52 45 0 72 20 72 64v82c-1 20 7 32 28 27v20c-31 9-61-2-59-35zM48-53c0 20 12 33 32 33 41-3 63-29 60-74-43 2-92-5-92 41" id="J"/><path d="M100-194c63 0 86 42 84 106H49c0 40 14 67 53 68 26 1 43-12 49-29l28 8c-11 28-37 45-77 45C44 4 14-33 15-96c1-61 26-98 85-98zm52 81c6-60-76-77-97-28-3 7-6 17-6 28h103" id="K"/><g id="d"><use transform="matrix(0.05,0,0,0.05,0,0)" xlink:href="#E"/><use transform="matrix(0.05,0,0,0.05,5,0)" xlink:href="#F"/><use transform="matrix(0.05,0,0,0.05,8.95,0)" xlink:href="#G"/><use transform="matrix(0.05,0,0,0.05,12.899999999999999,0)" xlink:href="#H"/><use transform="matrix(0.05,0,0,0.05,17.9,0)" xlink:href="#I"/><use transform="matrix(0.05,0,0,0.05,23.849999999999998,0)" xlink:href="#J"/><use transform="matrix(0.05,0,0,0.05,33.849999999999994,0)" xlink:href="#I"/><use transform="matrix(0.05,0,0,0.05,39.8,0)" xlink:href="#K"/></g><path d="M210-169c-67 3-38 105-44 169h-31v-121c0-29-5-50-35-48C34-165 62-65 56 0H25l-1-190h30c1 10-1 24 2 32 10-44 99-50 107 0 11-21 27-35 58-36 85-2 47 119 55 194h-31v-121c0-29-5-49-35-48" id="L"/><path d="M115-194c55 1 70 41 70 98S169 2 115 4C84 4 66-9 55-30l1 105H24l-1-265h31l2 30c10-21 28-34 59-34zm-8 174c40 0 45-34 45-75s-6-73-45-74c-42 0-51 32-51 76 0 43 10 73 51 73" id="M"/><path d="M177-190C167-65 218 103 67 71c-23-6-38-20-44-43l32-5c15 47 100 32 89-28v-30C133-14 115 1 83 1 29 1 15-40 15-95c0-56 16-97 71-98 29-1 48 16 59 35 1-10 0-23 2-32h30zM94-22c36 0 50-32 50-73 0-42-14-75-50-75-39 0-46 34-46 75s6 73 46 73" id="N"/><path d="M117-194c89-4 53 116 60 194h-32v-121c0-31-8-49-39-48C34-167 62-67 57 0H25l-1-190h30c1 10-1 24 2 32 11-22 29-35 61-36" id="O"/><g id="e"><use transform="matrix(0.05,0,0,0.05,0,0)" xlink:href="#F"/><use transform="matrix(0.05,0,0,0.05,3.95,0)" xlink:href="#L"/><use transform="matrix(0.05,0,0,0.05,18.900000000000002,0)" xlink:href="#M"/><use transform="matrix(0.05,0,0,0.05,28.900000000000002,0)" xlink:href="#K"/><use transform="matrix(0.05,0,0,0.05,38.900000000000006,0)" xlink:href="#N"/><use transform="matrix(0.05,0,0,0.05,48.900000000000006,0)" xlink:href="#O"/><use transform="matrix(0.05,0,0,0.05,58.900000000000006,0)" xlink:href="#F"/></g><g id="f"><use transform="matrix(0.05,0,0,0.05,0,0)" xlink:href="#M"/><use transform="matrix(0.05,0,0,0.05,10,0)" xlink:href="#K"/><use transform="matrix(0.05,0,0,0.05,20,0)" xlink:href="#I"/></g><path d="M85-194c31 0 48 13 60 33l-1-100h32l1 261h-30c-2-10 0-23-3-31C134-8 116 4 85 4 32 4 16-35 15-94c0-66 23-100 70-100zm9 24c-40 0-46 34-46 75 0 40 6 74 45 74 42 0 51-32 51-76 0-42-9-74-50-73" id="P"/><g id="g"><use transform="matrix(0.05,0,0,0.05,0,0)" xlink:href="#P"/><use transform="matrix(0.05,0,0,0.05,10,0)" xlink:href="#J"/><use transform="matrix(0.05,0,0,0.05,20,0)" xlink:href="#H"/><use transform="matrix(0.05,0,0,0.05,25,0)" xlink:href="#J"/></g><path d="M108 0H70L1-190h34L89-25l56-165h34" id="Q"/><path d="M100-194c62-1 85 37 85 99 1 63-27 99-86 99S16-35 15-95c0-66 28-99 85-99zM99-20c44 1 53-31 53-75 0-43-8-75-51-75s-53 32-53 75 10 74 51 75" id="R"/><g id="h"><use transform="matrix(0.05,0,0,0.05,0,0)" xlink:href="#K"/><use transform="matrix(0.05,0,0,0.05,10,0)" xlink:href="#Q"/><use transform="matrix(0.05,0,0,0.05,19,0)" xlink:href="#K"/><use transform="matrix(0.05,0,0,0.05,29,0)" xlink:href="#O"/><use transform="matrix(0.05,0,0,0.05,39,0)" xlink:href="#H"/><use transform="matrix(0.05,0,0,0.05,44,0)" xlink:href="#R"/></g><path d="M141-36C126-15 110 5 73 4 37 3 15-17 15-53c-1-64 63-63 125-63 3-35-9-54-41-54-24 1-41 7-42 31l-33-3c5-37 33-52 76-52 45 0 72 20 72 64v82c-1 20 7 32 28 27v20c-31 9-61-2-59-35zM48-53c0 20 12 33 32 33 41-3 63-29 60-74-43 2-92-5-92 41zm62-158l-58-49v-5h36c12 19 30 32 38 54h-16" id="S"/><g id="i"><use transform="matrix(0.05,0,0,0.05,0,0)" xlink:href="#M"/><use transform="matrix(0.05,0,0,0.05,10,0)" xlink:href="#I"/><use transform="matrix(0.05,0,0,0.05,15.949999999999998,0)" xlink:href="#F"/><use transform="matrix(0.05,0,0,0.05,19.9,0)" xlink:href="#R"/><use transform="matrix(0.05,0,0,0.05,29.899999999999995,0)" xlink:href="#I"/><use transform="matrix(0.05,0,0,0.05,35.85,0)" xlink:href="#F"/><use transform="matrix(0.05,0,0,0.05,39.800000000000004,0)" xlink:href="#H"/><use transform="matrix(0.05,0,0,0.05,44.800000000000004,0)" xlink:href="#S"/></g><path fill="#333" d="M15-91v-56l181-69v40L49-119l147 57v40" id="T"/><path fill="#333" d="M185-48c-13 30-37 53-82 52C43 2 14-33 14-96s30-98 90-98c62 0 83 45 84 108H66c0 31 8 55 39 56 18 0 30-7 34-22zm-45-69c5-46-57-63-70-21-2 6-4 13-4 21h74" id="U"/><path fill="#333" d="M144 0l-44-69L55 0H2l70-98-66-92h53l41 62 40-62h54l-67 91 71 99h-54" id="V"/><path fill="#333" d="M115-3C79 11 28 4 28-45v-112H4v-33h27l15-45h31v45h36v33H77v99c-1 23 16 31 38 25v30" id="W"/><path fill="#333" d="M135-194c87-1 58 113 63 194h-50c-7-57 23-157-34-157-59 0-34 97-39 157H25l-1-190h47c2 12-1 28 3 38 12-26 28-41 61-42" id="X"/><path fill="#333" d="M88-194c31-1 46 15 58 34l-1-101h50l1 261h-48c-2-10 0-23-3-31C134-8 116 4 84 4 32 4 16-41 15-95c0-56 19-97 73-99zm17 164c33 0 40-30 41-66 1-37-9-64-41-64s-38 30-39 65c0 43 13 65 39 65" id="Y"/><path fill="#333" d="M15-22v-40l146-57-146-57v-40l181 69v56" id="Z"/><g id="j"><use transform="matrix(0.04938271604938272,0,0,0.04938271604938272,0,0)" xlink:href="#T"/><use transform="matrix(0.04938271604938272,0,0,0.04938271604938272,10.370370370370372,0)" xlink:href="#U"/><use transform="matrix(0.04938271604938272,0,0,0.04938271604938272,20.24691358024692,0)" xlink:href="#V"/><use transform="matrix(0.04938271604938272,0,0,0.04938271604938272,30.123456790123466,0)" xlink:href="#W"/><use transform="matrix(0.04938271604938272,0,0,0.04938271604938272,36.00000000000001,0)" xlink:href="#U"/><use transform="matrix(0.04938271604938272,0,0,0.04938271604938272,45.87654320987655,0)" xlink:href="#X"/><use transform="matrix(0.04938271604938272,0,0,0.04938271604938272,56.69135802469136,0)" xlink:href="#Y"/><use transform="matrix(0.04938271604938272,0,0,0.04938271604938272,67.50617283950618,0)" xlink:href="#Z"/></g><g id="k"><use transform="matrix(0.06172839506172839,0,0,0.06172839506172839,0,0)" xlink:href="#v"/><use transform="matrix(0.06172839506172839,0,0,0.06172839506172839,15.987654320987653,0)" xlink:href="#w"/><use transform="matrix(0.06172839506172839,0,0,0.06172839506172839,22.160493827160494,0)" xlink:href="#x"/><use transform="matrix(0.06172839506172839,0,0,0.06172839506172839,34.50617283950617,0)" xlink:href="#y"/><use transform="matrix(0.06172839506172839,0,0,0.06172839506172839,46.85185185185185,0)" xlink:href="#w"/><use transform="matrix(0.06172839506172839,0,0,0.06172839506172839,53.02469135802469,0)" xlink:href="#x"/></g><g id="l"><use transform="matrix(0.06172839506172839,0,0,0.06172839506172839,0,0)" xlink:href="#A"/><use transform="matrix(0.06172839506172839,0,0,0.06172839506172839,12.345679012345679,0)" xlink:href="#B"/><use transform="matrix(0.06172839506172839,0,0,0.06172839506172839,24.691358024691358,0)" xlink:href="#w"/><use transform="matrix(0.06172839506172839,0,0,0.06172839506172839,30.864197530864196,0)" xlink:href="#x"/><use transform="matrix(0.06172839506172839,0,0,0.06172839506172839,43.20987654320987,0)" xlink:href="#y"/><use transform="matrix(0.06172839506172839,0,0,0.06172839506172839,55.55555555555555,0)" xlink:href="#w"/><use transform="matrix(0.06172839506172839,0,0,0.06172839506172839,61.72839506172839,0)" xlink:href="#C"/><use transform="matrix(0.06172839506172839,0,0,0.06172839506172839,66.60493827160494,0)" xlink:href="#D"/><use transform="matrix(0.06172839506172839,0,0,0.06172839506172839,77.71604938271605,0)" xlink:href="#A"/><use transform="matrix(0.06172839506172839,0,0,0.06172839506172839,90.06172839506173,0)" xlink:href="#w"/><use transform="matrix(0.06172839506172839,0,0,0.06172839506172839,96.23456790123457,0)" xlink:href="#z"/></g><path fill="#3a414a" d="M135-143c-3-34-86-38-87 0 15 53 115 12 119 90S17 21 10-45l28-5c4 36 97 45 98 0-10-56-113-15-118-90-4-57 82-63 122-42 12 7 21 19 24 35" id="aa"/><path fill="#3a414a" d="M85-194c31 0 48 13 60 33l-1-100h32l1 261h-30c-2-10 0-23-3-31C134-8 116 4 85 4 32 4 16-35 15-94c0-66 23-100 70-100zm9 24c-40 0-46 34-46 75 0 40 6 74 45 74 42 0 51-32 51-76 0-42-9-74-50-73" id="ab"/><path fill="#3a414a" d="M114-163C36-179 61-72 57 0H25l-1-190h30c1 12-1 29 2 39 6-27 23-49 58-41v29" id="ac"/><g id="m"><use transform="matrix(0.06172839506172839,0,0,0.06172839506172839,0,0)" xlink:href="#aa"/><use transform="matrix(0.06172839506172839,0,0,0.06172839506172839,11.11111111111111,0)" xlink:href="#w"/><use transform="matrix(0.06172839506172839,0,0,0.06172839506172839,17.28395061728395,0)" xlink:href="#A"/><use transform="matrix(0.06172839506172839,0,0,0.06172839506172839,29.629629629629626,0)" xlink:href="#y"/><use transform="matrix(0.06172839506172839,0,0,0.06172839506172839,41.9753086419753,0)" xlink:href="#ab"/><use transform="matrix(0.06172839506172839,0,0,0.06172839506172839,54.32098765432098,0)" xlink:href="#A"/><use transform="matrix(0.06172839506172839,0,0,0.06172839506172839,66.66666666666666,0)" xlink:href="#ac"/><use transform="matrix(0.06172839506172839,0,0,0.06172839506172839,74.01234567901234,0)" xlink:href="#ab"/></g><g id="n"><use transform="matrix(0.05,0,0,0.05,0,0)" xlink:href="#E"/><use transform="matrix(0.05,0,0,0.05,5,0)" xlink:href="#F"/><use transform="matrix(0.05,0,0,0.05,8.95,0)" xlink:href="#G"/><use transform="matrix(0.05,0,0,0.05,12.899999999999999,0)" xlink:href="#H"/><use transform="matrix(0.05,0,0,0.05,17.9,0)" xlink:href="#I"/><use transform="matrix(0.05,0,0,0.05,23.849999999999998,0)" xlink:href="#J"/><use transform="matrix(0.05,0,0,0.05,33.849999999999994,0)" xlink:href="#I"/><use transform="matrix(0.05,0,0,0.05,39.8,0)" xlink:href="#K"/></g><path d="M135-143c-3-34-86-38-87 0 15 53 115 12 119 90S17 21 10-45l28-5c4 36 97 45 98 0-10-56-113-15-118-90-4-57 82-63 122-42 12 7 21 19 24 35" id="ad"/><path d="M96-169c-40 0-48 33-48 73s9 75 48 75c24 0 41-14 43-38l32 2c-6 37-31 61-74 61-59 0-76-41-82-99-10-93 101-131 147-64 4 7 5 14 7 22l-32 3c-4-21-16-35-41-35" id="ae"/><g id="o"><use transform="matrix(0.05,0,0,0.05,0,0)" xlink:href="#ad"/><use transform="matrix(0.05,0,0,0.05,9,0)" xlink:href="#K"/><use transform="matrix(0.05,0,0,0.05,19,0)" xlink:href="#ae"/><use transform="matrix(0.05,0,0,0.05,28,0)" xlink:href="#R"/><use transform="matrix(0.05,0,0,0.05,38,0)" xlink:href="#O"/><use transform="matrix(0.05,0,0,0.05,48,0)" xlink:href="#P"/><use transform="matrix(0.05,0,0,0.05,58,0)" xlink:href="#R"/></g><g id="p"><use transform="matrix(0.05,0,0,0.05,0,0)" xlink:href="#G"/><use transform="matrix(0.05,0,0,0.05,3.95,0)" xlink:href="#K"/></g><g id="q"><use transform="matrix(0.05,0,0,0.05,0,0)" xlink:href="#M"/><use transform="matrix(0.05,0,0,0.05,10,0)" xlink:href="#K"/><use transform="matrix(0.05,0,0,0.05,20,0)" xlink:href="#I"/><use transform="matrix(0.05,0,0,0.05,25.950000000000003,0)" xlink:href="#ad"/><use transform="matrix(0.05,0,0,0.05,34.95,0)" xlink:href="#R"/><use transform="matrix(0.05,0,0,0.05,44.95,0)" xlink:href="#O"/><use transform="matrix(0.05,0,0,0.05,54.95,0)" xlink:href="#K"/></g><path d="M84 4C-5 8 30-112 23-190h32v120c0 31 7 50 39 49 72-2 45-101 50-169h31l1 190h-30c-1-10 1-25-2-33-11 22-28 36-60 37" id="af"/><g id="r"><use transform="matrix(0.05,0,0,0.05,0,0)" xlink:href="#F"/><use transform="matrix(0.05,0,0,0.05,3.95,0)" xlink:href="#O"/><use transform="matrix(0.05,0,0,0.05,13.949999999999998,0)" xlink:href="#ae"/><use transform="matrix(0.05,0,0,0.05,22.95,0)" xlink:href="#G"/><use transform="matrix(0.05,0,0,0.05,26.899999999999995,0)" xlink:href="#af"/><use transform="matrix(0.05,0,0,0.05,36.9,0)" xlink:href="#ad"/><use transform="matrix(0.05,0,0,0.05,45.9,0)" xlink:href="#K"/></g><path d="M47-170H22l-4-78h33" id="ag"/><g id="s"><use transform="matrix(0.05,0,0,0.05,0,0)" xlink:href="#O"/><use transform="matrix(0.05,0,0,0.05,10,0)" xlink:href="#K"/><use transform="matrix(0.05,0,0,0.05,20,0)" xlink:href="#G"/><use transform="matrix(0.05,0,0,0.05,23.95,0)" xlink:href="#G"/><use transform="matrix(0.05,0,0,0.05,27.899999999999995,0)" xlink:href="#ag"/><use transform="matrix(0.05,0,0,0.05,31.299999999999997,0)" xlink:href="#K"/><use transform="matrix(0.05,0,0,0.05,41.3,0)" xlink:href="#Q"/><use transform="matrix(0.05,0,0,0.05,50.3,0)" xlink:href="#K"/><use transform="matrix(0.05,0,0,0.05,60.29999999999999,0)" xlink:href="#O"/><use transform="matrix(0.05,0,0,0.05,70.3,0)" xlink:href="#H"/><use transform="matrix(0.05,0,0,0.05,75.3,0)" xlink:href="#R"/></g><g id="t"><use transform="matrix(0.05,0,0,0.05,0,0)" xlink:href="#H"/><use transform="matrix(0.05,0,0,0.05,5,0)" xlink:href="#F"/><use transform="matrix(0.05,0,0,0.05,8.95,0)" xlink:href="#H"/><use transform="matrix(0.05,0,0,0.05,13.949999999999998,0)" xlink:href="#R"/><use transform="matrix(0.05,0,0,0.05,23.95,0)" xlink:href="#G"/><use transform="matrix(0.05,0,0,0.05,27.899999999999995,0)" xlink:href="#R"/></g><g id="u"><use transform="matrix(0.04938271604938272,0,0,0.04938271604938272,0,0)" xlink:href="#T"/><use transform="matrix(0.04938271604938272,0,0,0.04938271604938272,10.370370370370372,0)" xlink:href="#U"/><use transform="matrix(0.04938271604938272,0,0,0.04938271604938272,20.24691358024692,0)" xlink:href="#V"/><use transform="matrix(0.04938271604938272,0,0,0.04938271604938272,30.123456790123466,0)" xlink:href="#W"/><use transform="matrix(0.04938271604938272,0,0,0.04938271604938272,36.00000000000001,0)" xlink:href="#U"/><use transform="matrix(0.04938271604938272,0,0,0.04938271604938272,45.87654320987655,0)" xlink:href="#X"/><use transform="matrix(0.04938271604938272,0,0,0.04938271604938272,56.69135802469136,0)" xlink:href="#Y"/><use transform="matrix(0.04938271604938272,0,0,0.04938271604938272,67.50617283950618,0)" xlink:href="#Z"/></g></defs></g></svg>