<svg xmlns="http://www.w3.org/2000/svg" xmlns:xlink="http://www.w3.org/1999/xlink" xmlns:lucid="lucid" width="1419" height="661"><g transform="translate(-234 -1080)" lucid:page-tab-id="TQu6DW3ZDYXn"><path d="M0 0h1870.87v2581.67H0z" fill="#fff"/><path d="M359.75 1339.75c0 10.9-8.84 19.75-19.75 19.75-10.9 0-19.75-8.84-19.75-19.75 0-10.9 8.84-19.75 19.75-19.75 10.9 0 19.75 8.84 19.75 19.75z" stroke="#3a414a" fill="#fff"/><path d="M340 1359.5v49.3a20.7 20.7 0 0 0 3.2 11.07L380 1478m-40-63.2l-40 63.2m0-98.75h80" stroke="#3a414a" fill="none"/><path d="M300 1326a6 6 0 0 1 6-6h68a6 6 0 0 1 6 6v168a6 6 0 0 1-6 6h-68a6 6 0 0 1-6-6z" fill="none"/><use xlink:href="#a" transform="matrix(1,0,0,1,220,1478) translate(29.93827160493828 17.77777777777778)"/><use xlink:href="#b" transform="matrix(1,0,0,1,220,1478) translate(101.48148148148148 17.77777777777778)"/><use xlink:href="#c" transform="matrix(1,0,0,1,220,1478) translate(76.82098765432099 44.44444444444444)"/><path d="M673 1240c0 33.14-35.82 60-80 60s-80-26.86-80-60 35.82-60 80-60 80 26.86 80 60z" stroke="#3a414a" fill="#fff"/><use xlink:href="#d" transform="matrix(1,0,0,1,513,1180) translate(20.629999999999992 43.410000000000004)"/><use xlink:href="#e" transform="matrix(1,0,0,1,513,1180) translate(34.029999999999994 65.01)"/><use xlink:href="#f" transform="matrix(1,0,0,1,513,1180) translate(68.03 65.01)"/><use xlink:href="#g" transform="matrix(1,0,0,1,513,1180) translate(43.58 86.61000000000001)"/><path d="M1559.75 1339.75c0 10.9-8.84 19.75-19.75 19.75-10.9 0-19.75-8.84-19.75-19.75 0-10.9 8.84-19.75 19.75-19.75 10.9 0 19.75 8.84 19.75 19.75z" stroke="#3a414a" fill="#fff"/><path d="M1540 1359.5v49.3a20.7 20.7 0 0 0 3.2 11.07L1580 1478m-40-63.2l-40 63.2m0-98.75h80" stroke="#3a414a" fill="none"/><path d="M1500 1326a6 6 0 0 1 6-6h68a6 6 0 0 1 6 6v168a6 6 0 0 1-6 6h-68a6 6 0 0 1-6-6z" fill="none"/><use xlink:href="#h" transform="matrix(1,0,0,1,1420,1478) translate(36.172839506172835 17.77777777777778)"/><use xlink:href="#i" transform="matrix(1,0,0,1,1420,1478) translate(113.88888888888887 17.77777777777778)"/><path d="M341 1398.93h93a6 6 0 0 0 6-6V1246a6 6 0 0 1 6-6h66M341 1398.93h-3.5" stroke="#3a414a" fill="none"/><path d="M512.5 1240v.5h-.5v-1h.52z" stroke="#3a414a" stroke-width=".05" fill="#3a414a"/><path d="M999.5 1160c0 33.14-35.82 60-80 60s-80-26.86-80-60 35.82-60 80-60 80 26.86 80 60z" stroke="#3a414a" fill="#fff"/><use xlink:href="#j" transform="matrix(1,0,0,1,839.4999871300965,1100) translate(42.105 31.410000000000004)"/><use xlink:href="#k" transform="matrix(1,0,0,1,839.4999871300965,1100) translate(17.104999999999997 53.01)"/><use xlink:href="#l" transform="matrix(1,0,0,1,839.4999871300965,1100) translate(38.529999999999994 74.61)"/><use xlink:href="#f" transform="matrix(1,0,0,1,839.4999871300965,1100) translate(63.529999999999994 74.61)"/><use xlink:href="#g" transform="matrix(1,0,0,1,839.4999871300965,1100) translate(43.57999999999999 96.21000000000001)"/><path d="M999.5 1320c0 33.14-35.82 60-80 60s-80-26.86-80-60 35.82-60 80-60 80 26.86 80 60z" stroke="#3a414a" fill="#fff"/><use xlink:href="#m" transform="matrix(1,0,0,1,839.4999871300965,1260) translate(42.055 31.410000000000004)"/><use xlink:href="#k" transform="matrix(1,0,0,1,839.4999871300965,1260) translate(17.104999999999997 53.01)"/><use xlink:href="#n" transform="matrix(1,0,0,1,839.4999871300965,1260) translate(43.529999999999994 74.61)"/><use xlink:href="#f" transform="matrix(1,0,0,1,839.4999871300965,1260) translate(58.529999999999994 74.61)"/><use xlink:href="#g" transform="matrix(1,0,0,1,839.4999871300965,1260) translate(43.57999999999999 96.21000000000001)"/><path d="M822.62 1319.5v1h-1.48v-1zm-3.44 0v1h-2.75v-1zm-85.57-.07v1h-.7v-1zm-2.66 0v1h-2.95v-1zm-7.14-.2l.82.2h1.4v1h-1.52l-1-.25-.35-.14.38-.92zm-2.75-2l.56.66.6.48-.66.76-.64-.54-.66-.78-.44-.7.85-.54zm-1.05-3.25l.07.88.07.28-.98.24-.08-.36-.08-1v-1.5h1zm0-3.43h-1v-2.95h1zm0-4.92h-1v-2.96h1zm0-4.93h-1l-.02-2.95h1zm-.02-4.92h-1v-2.95h1zm0-4.92h-1v-2.96h1zm0-4.93h-1v-2.95h1zm-.02-4.92h-1v-2.95h1zm0-4.92h-1v-2.95h1zm0-4.92h-1v-2.95h1zm0-4.93h-1v-2.95h1zm-.02-4.92h-1v-2.94h1zm0-4.9h-1v-2.97h1zm0-4.94h-1v-2.95h1zm-.26-7.47l.25 1v1.54h-1v-1.42l-.2-.82-.1-.27.9-.38zm-2.36-3.26l.78.66.54.64-.76.65-.5-.6-.65-.55-.65-.4.53-.85zm-2.8-1.16l.36.08-.24.98-.28-.07-.88-.07h-1.46v-1h1.5zm-39.04.92H674v-1h1.48zm4.94 0h-2.96v-1h2.96zm4.94 0h-2.97v-1h2.96zm4.93 0h-2.97v-1h2.96zm4.93 0h-2.96v-1h2.96zm4.94 0h-2.96v-1h2.97zm4.94 0h-2.96v-1h2.97zm4.94 0h-2.96v-1h2.96z" stroke="#3a414a" stroke-width=".05" fill="#3a414a"/><path d="M674 1240.5h-.52l.02-.5v-.5h.5z" fill="#3a414a"/><path d="M674.04 1240.53h-.58l.02-.52v-.53h.56zm-.52-1v.95h.47v-.94z" stroke="#3a414a" stroke-width=".05" fill="#3a414a"/><path d="M837.38 1320l-14.26 4.64v-9.28z" fill="#3a414a"/><path d="M839 1320l-16.38 5.32v-10.64zm-15.38 3.95l12.14-3.95-12.14-3.95z" stroke="#3a414a" stroke-width=".05" fill="#3a414a"/><use xlink:href="#o" transform="matrix(1,0,0,1,733.6109227380985,1309.3333333333333) translate(0.005000000000002558 14.222222222222223)"/><path d="M675.48 1240.5H674v-1h1.48zm4.94 0h-2.96v-1h2.96zm4.94 0h-2.97v-1h2.96zm4.93 0h-2.97v-1h2.96zm4.93 0h-2.96v-1h2.96zm4.94 0h-2.96v-1h2.97zm4.94 0h-2.96v-1h2.97zm4.94 0h-2.96v-1h2.96zm4.84-.16l-.36.08-1 .08h-1.5v-1h1.46l.88-.07.28-.07zm3.76-2.38l-.54.64-.78.66-.7.44-.54-.85.65-.4.66-.56.48-.6zm1.3-4.5v1.54l-.26 1-.14.35-.92-.38.1-.27.2-.82v-1.42zm0-4.92v2.95h-1v-2.96zm0-4.93v2.97h-1v-2.96zm0-4.9v2.94h-1v-2.95zm0-4.93v2.95h-1v-2.96zm0-4.93v2.96h-1v-2.96zm.02-4.92v2.95h-1v-2.95zm0-4.93v2.95h-1V1199zm0-4.93v2.95h-1v-2.95zm.02-4.93v2.96h-1v-2.96zm0-4.92v2.95h-1v-2.95zm0-4.92v2.95h-1v-2.96zm0-4.93v2.96h-1v-2.96zm.02-4.92v2.95h-1v-2.95zm.14-4.6l-.07.3-.07.87v1.46h-1v-1.5l.08-1 .08-.36zm2.05-3.23l-.6.5-.55.65-.4.65-.85-.53.44-.72.66-.78.64-.54zm3.83-1.05h-1.4l-.83.2-.27.1-.38-.9.34-.15 1-.25h1.53zm3.6 0H728v-1h1.63zm84.65-.06h-1.84v-1h1.84zm4.9 0h-2.94v-1h2.94zm3.44 0h-1.47v-1h1.47z" stroke="#3a414a" stroke-width=".05" fill="#3a414a"/><path d="M674 1240.5h-.52l.02-.5v-.5h.5z" fill="#3a414a"/><path d="M674.04 1240.53h-.58l.02-.52v-.53h.56zm-.52-1v.95h.47v-.94z" stroke="#3a414a" stroke-width=".05" fill="#3a414a"/><path d="M837.38 1160l-14.26 4.64v-9.28z" fill="#3a414a"/><path d="M839 1160l-16.38 5.32v-10.64zm-15.38 3.95l12.14-3.95-12.14-3.95z" stroke="#3a414a" stroke-width=".05" fill="#3a414a"/><use xlink:href="#o" transform="matrix(1,0,0,1,729.6264048161495,1149.3333333333333) translate(0.005000000000002558 14.222222222222223)"/><path d="M1539 1398.93h-183a6 6 0 0 1-6-6V1166a6 6 0 0 0-6-6h-343.5M1539 1398.93h3.5" stroke="#3a414a" fill="none"/><path d="M1000.5 1160.5h-.52l.02-.5v-.5h.5z" stroke="#3a414a" stroke-width=".05" fill="#3a414a"/><path d="M1539 1398.93h-183a6 6 0 0 1-6-6V1326a6 6 0 0 0-6-6h-343.5M1539 1398.93h3.5" stroke="#3a414a" fill="none"/><path d="M1000.5 1320.5h-.52l.02-.5v-.5h.5z" stroke="#3a414a" stroke-width=".05" fill="#3a414a"/><path d="M673 1580c0 33.14-35.82 60-80 60s-80-26.86-80-60 35.82-60 80-60 80 26.86 80 60z" stroke="#3a414a" fill="#fff"/><use xlink:href="#p" transform="matrix(1,0,0,1,513,1520) translate(27.605 40.65)"/><use xlink:href="#q" transform="matrix(1,0,0,1,513,1520) translate(18.130000000000003 62.25)"/><use xlink:href="#r" transform="matrix(1,0,0,1,513,1520) translate(37.080000000000005 62.25)"/><use xlink:href="#q" transform="matrix(1,0,0,1,513,1520) translate(64.98 62.25)"/><use xlink:href="#f" transform="matrix(1,0,0,1,513,1520) translate(83.93 62.25)"/><use xlink:href="#g" transform="matrix(1,0,0,1,513,1520) translate(43.58 83.85000000000001)"/><path d="M512 1580h-66a6 6 0 0 1-6-6v-169.07a6 6 0 0 0-6-6h-93" stroke="#3a414a" fill="none"/><path d="M512.5 1580v.5h-.5v-1h.52z" stroke="#3a414a" stroke-width=".05" fill="#3a414a"/><path d="M341 1398.93h-3.5" stroke="#3a414a" fill="none"/><path d="M1003.87 1501.64c0 34.04-36.8 61.64-82.18 61.64-45.4 0-82.2-27.6-82.2-61.64s36.8-61.64 82.2-61.64c45.38 0 82.17 27.6 82.17 61.64z" stroke="#3a414a" fill="#fff"/><use xlink:href="#s" transform="matrix(1,0,0,1,839.4999871300967,1440) translate(29.605 49.275)"/><use xlink:href="#t" transform="matrix(1,0,0,1,839.4999871300967,1440) translate(111.50500000000001 49.275)"/><use xlink:href="#u" transform="matrix(1,0,0,1,839.4999871300967,1440) translate(11.079999999999993 70.875)"/><path d="M999.5 1660c0 33.14-35.82 60-80 60s-80-26.86-80-60 35.82-60 80-60 80 26.86 80 60z" stroke="#3a414a" fill="#fff"/><use xlink:href="#v" transform="matrix(1,0,0,1,839.4999871300967,1600) translate(39.08 44.4)"/><use xlink:href="#t" transform="matrix(1,0,0,1,839.4999871300967,1600) translate(98.03 44.4)"/><use xlink:href="#u" transform="matrix(1,0,0,1,839.4999871300967,1600) translate(9.079999999999993 66)"/><path d="M691.3 1580.5h-1.42v-1h1.42zm4.72 0h-2.83v-1H696zm4.73 0h-2.84v-1h2.85zm4.72 0h-2.83v-1h2.83zm4.72 0h-2.84v-1h2.83zm4.68-.16l-.36.08-1 .08h-1.44v-1h1.4l.88-.07.28-.07zm3.76-2.38l-.54.64-.78.66-.7.44-.54-.85.65-.4.66-.56.48-.6zm1.3-4.57v1.6l-.26 1-.14.35-.92-.38.1-.27.2-.82v-1.5zm0-5.2v3.12h-1v-3.1zm0-5.17v3.1h-1v-3.1zm0-5.17v3.1h-1v-3.1zm0-5.18v3.1h-1v-3.1zm.02-5.18v3.1h-1v-3.1zm0-5.17v3.1h-1v-3.1zm0-5.18v3.1h-1v-3.1zm0-5.18v3.1h-1v-3.1zm.02-5.17v3.1h-1v-3.1zm0-5.18v3.1h-1v-3.1zm0-5.18v3.1h-1v-3.1zm.02-5.18v3.1h-1v-3.1zm.14-4.76l-.07.28-.07.88v1.53h-1v-1.58l.08-1 .08-.36zm2.05-3.24l-.6.5-.55.65-.4.66-.85-.52.44-.72.66-.78.64-.54zm3.85-1.05h-1.43l-.82.2-.27.12-.38-.92.34-.14 1-.25h1.55zm4.95 0h-2.97v-1H731zm4.96 0h-2.98v-1h2.97zm4.34 0h-2.36v-1h2.36zm79.87-.05h-2v-1h2zm4.95 0h-2.97v-1h2.97zm4.96 0h-2.97v-1h2.98zm4.95 0h-2.97v-1h2.97zm3.47 0H837v-1h1.5z" stroke="#3a414a" stroke-width=".05" fill="#3a414a"/><path d="M689.38 1584.64l-14.26-4.64 14.26-4.64z" fill="#3a414a"/><path d="M689.88 1585.32L673.5 1580l16.38-5.32zm-13.14-5.32l12.14 3.95v-7.9z" stroke="#3a414a" stroke-width=".05" fill="#3a414a"/><path d="M839 1501.64v.5h-.5v-1h.5z" fill="#3a414a"/><path d="M839.02 1501.64l.02.53h-.58v-1.05h.58zm-.5-.47v.95h.47l-.03-.48.02-.47z" stroke="#3a414a" stroke-width=".05" fill="#3a414a"/><use xlink:href="#w" transform="matrix(1,0,0,1,740.3021822185212,1490.9739583333333) translate(0.005000000000002558 14.222222222222223)"/><path d="M838.5 1659.5v1H837v-1zm-3.47 0v1h-2.97v-1zm-4.95 0v1h-2.97v-1zm-4.96 0v1h-2.97v-1zm-4.95 0v1h-2.97v-1zm-4.95-.02v1h-1.14v-1zm-79.26-.05v1h-2.98v-1zm-4.96 0v1h-2.97v-1zm-7.2-.2l.82.2h1.43v1h-1.55l-1-.25-.35-.14.38-.92zm-2.75-2l.56.66.6.48-.66.76-.64-.54-.66-.78-.44-.7.85-.54zm-1.05-3.25l.07.88.07.28-.98.24-.08-.36-.08-1v-1.5h1zm0-3.43h-1v-2.95h1zm0-4.92h-1v-2.96h1zm0-4.93h-1l-.02-2.95h1zm-.02-4.92h-1v-2.95h1zm0-4.92h-1v-2.96h1zm0-4.93h-1v-2.95h1zm-.02-4.92h-1v-2.95h1zm0-4.92h-1v-2.95h1zm0-4.92h-1v-2.95h1zm0-4.93h-1v-2.95h1zm-.02-4.92h-1v-2.94h1zm0-4.9h-1v-2.97h1zm0-4.94h-1v-2.95h1zm-.26-7.47l.25 1v1.54h-1v-1.42l-.2-.82-.1-.27.9-.38zm-2.36-3.26l.78.66.54.64-.76.65-.5-.6-.65-.55-.65-.4.53-.85zm-2.8-1.16l.36.08-.24.98-.28-.07-.88-.07h-1.4v-1h1.44zm-23.22.92h-1.42v-1h1.42zm4.72 0h-2.83v-1H696zm4.73 0h-2.84v-1h2.85zm4.72 0h-2.83v-1h2.83zm4.72 0h-2.84v-1h2.83z" stroke="#3a414a" stroke-width=".05" fill="#3a414a"/><path d="M689.38 1584.64l-14.26-4.64 14.26-4.64z" fill="#3a414a"/><path d="M689.88 1585.32L673.5 1580l16.38-5.32zm-13.14-5.32l12.14 3.95v-7.9z" stroke="#3a414a" stroke-width=".05" fill="#3a414a"/><path d="M839 1660v.5h-.5v-1h.52z" fill="#3a414a"/><path d="M839.02 1660v.53h-.56v-1.06h.58zm-.5-.47v.94h.46v-.95z" stroke="#3a414a" stroke-width=".05" fill="#3a414a"/><use xlink:href="#w" transform="matrix(1,0,0,1,736.2043270180068,1649.3333333333333) translate(0.005000000000002558 14.222222222222223)"/><path d="M1284.38 1501.64c0 34.04-36.8 61.64-82.2 61.64-45.38 0-82.18-27.6-82.18-61.64s36.8-61.64 82.2-61.64c45.38 0 82.17 27.6 82.17 61.64z" stroke="#3a414a" fill="#fff"/><g><use xlink:href="#x" transform="matrix(1,0,0,1,1120,1440) translate(33.08 45.4)"/><use xlink:href="#y" transform="matrix(1,0,0,1,1120,1440) translate(12.604999999999999 67)"/><use xlink:href="#r" transform="matrix(1,0,0,1,1120,1440) translate(41.555 67)"/><use xlink:href="#z" transform="matrix(1,0,0,1,1120,1440) translate(69.455 67)"/><use xlink:href="#f" transform="matrix(1,0,0,1,1120,1440) translate(93.455 67)"/><use xlink:href="#g" transform="matrix(1,0,0,1,1120,1440) translate(45.58 88.60000000000001)"/></g><path d="M1119 1502.14h-1.47v-1h1.47zm-3.44 0h-2.95v-1h2.96zm-85.16 0h-1.3v-1h1.3zm-3.26 0h-2.94v-1h2.94zm-4.9 0h-1.48v-1h1.47zm88.4 0h-2.37v-1h2.38z" stroke="#3a414a" stroke-width=".05" fill="#3a414a"/><path d="M1119.5 1501.64v.5h-.5v-1h.5z" fill="#3a414a"/><path d="M1119.52 1501.64l.02.53h-.58v-1.05h.58zm-.5-.47v.95h.47l-.03-.48.02-.47z" stroke="#3a414a" stroke-width=".05" fill="#3a414a"/><path d="M1020.26 1506.28l-14.27-4.64 14.26-4.63z" fill="#3a414a"/><path d="M1020.76 1506.96l-16.38-5.32 16.38-5.32zm-13.15-5.32l12.16 3.95v-7.9z" stroke="#3a414a" stroke-width=".05" fill="#3a414a"/><g><use xlink:href="#w" transform="matrix(1,0,0,1,1030.3950617283951,1490.9739583333333) translate(0.005000000000002558 14.222222222222223)"/></g><path d="M1284.38 1658.36c0 34.04-36.8 61.64-82.2 61.64-45.38 0-82.18-27.6-82.18-61.64s36.8-61.64 82.2-61.64c45.38 0 82.17 27.6 82.17 61.64z" stroke="#3a414a" fill="#fff"/><g><use xlink:href="#A" transform="matrix(1,0,0,1,1120,1596.71875) translate(28.579999999999995 45.4)"/><use xlink:href="#y" transform="matrix(1,0,0,1,1120,1596.71875) translate(12.104999999999999 67)"/><use xlink:href="#r" transform="matrix(1,0,0,1,1120,1596.71875) translate(41.055 67)"/><use xlink:href="#B" transform="matrix(1,0,0,1,1120,1596.71875) translate(68.955 67)"/><use xlink:href="#f" transform="matrix(1,0,0,1,1120,1596.71875) translate(93.955 67)"/><use xlink:href="#g" transform="matrix(1,0,0,1,1120,1596.71875) translate(45.58 88.60000000000001)"/></g><path d="M1119 1658.86h-1.47v-1h1.47zm-3.42 0h-2.94v-1h2.94zm-4.9 0h-2.92v-1h2.93zm-4.88 0h-2.93v-1h2.93zm-85 0h-1.04v-1h1.03zm-3 0h-1.47v-1h1.47zm83.1 0h-2.24v-1h2.25z" stroke="#3a414a" stroke-width=".05" fill="#3a414a"/><path d="M1119.5 1658.36v.5h-.5v-1h.5z" fill="#3a414a"/><path d="M1119.52 1658.36l.02.52h-.58v-1.05h.58zm-.5-.48v.95h.47l-.03-.47.02-.48z" stroke="#3a414a" stroke-width=".05" fill="#3a414a"/><path d="M1015.83 1663l-14.26-4.64 14.26-4.64z" fill="#3a414a"/><path d="M1016.33 1663.68l-16.38-5.32 16.38-5.32zm-13.14-5.32l12.13 3.95v-7.9z" stroke="#3a414a" stroke-width=".05" fill="#3a414a"/><g><use xlink:href="#w" transform="matrix(1,0,0,1,1020.7861528127571,1647.6927083333333) translate(0.005000000000002558 14.222222222222223)"/></g><path d="M1285.38 1501.64H1344a6 6 0 0 0 6-6v-90.7a6 6 0 0 1 6-6h183" stroke="#3a414a" fill="none"/><path d="M1285.4 1502.14h-.54l.02-.5-.02-.5h.53z" stroke="#3a414a" stroke-width=".05" fill="#3a414a"/><path d="M1539 1398.93h3.5M1285.38 1658.36H1344a6 6 0 0 0 6-6v-247.43a6 6 0 0 1 6-6h183" stroke="#3a414a" fill="none"/><path d="M1285.4 1658.86h-.54l.02-.5-.02-.5h.53z" stroke="#3a414a" stroke-width=".05" fill="#3a414a"/><path d="M1539 1398.93h3.5" stroke="#3a414a" fill="none"/><defs><path fill="#3a414a" d="M232-93c-1 65-40 97-104 97C67 4 28-28 28-90v-158h33c8 89-33 224 67 224 102 0 64-133 71-224h33v155" id="C"/><path fill="#3a414a" d="M59-47c-2 24 18 29 38 22v24C64 9 27 4 27-40v-127H5v-23h24l9-43h21v43h35v23H59v120" id="D"/><path fill="#3a414a" d="M100-194c63 0 86 42 84 106H49c0 40 14 67 53 68 26 1 43-12 49-29l28 8c-11 28-37 45-77 45C44 4 14-33 15-96c1-61 26-98 85-98zm52 81c6-60-76-77-97-28-3 7-6 17-6 28h103" id="E"/><path fill="#3a414a" d="M117-194c89-4 53 116 60 194h-32v-121c0-31-8-49-39-48C34-167 62-67 57 0H25l-1-190h30c1 10-1 24 2 32 11-22 29-35 61-36" id="F"/><g id="a"><use transform="matrix(0.06172839506172839,0,0,0.06172839506172839,0,0)" xlink:href="#C"/><use transform="matrix(0.06172839506172839,0,0,0.06172839506172839,15.987654320987653,0)" xlink:href="#D"/><use transform="matrix(0.06172839506172839,0,0,0.06172839506172839,22.160493827160494,0)" xlink:href="#E"/><use transform="matrix(0.06172839506172839,0,0,0.06172839506172839,34.50617283950617,0)" xlink:href="#F"/><use transform="matrix(0.06172839506172839,0,0,0.06172839506172839,46.85185185185185,0)" xlink:href="#D"/><use transform="matrix(0.06172839506172839,0,0,0.06172839506172839,53.02469135802469,0)" xlink:href="#E"/></g><path fill="#3a414a" d="M141-36C126-15 110 5 73 4 37 3 15-17 15-53c-1-64 63-63 125-63 3-35-9-54-41-54-24 1-41 7-42 31l-33-3c5-37 33-52 76-52 45 0 72 20 72 64v82c-1 20 7 32 28 27v20c-31 9-61-2-59-35zM48-53c0 20 12 33 32 33 41-3 63-29 60-74-43 2-92-5-92 41" id="G"/><path fill="#3a414a" d="M84 4C-5 8 30-112 23-190h32v120c0 31 7 50 39 49 72-2 45-101 50-169h31l1 190h-30c-1-10 1-25-2-33-11 22-28 36-60 37" id="H"/><path fill="#3a414a" d="M24-231v-30h32v30H24zM24 0v-190h32V0H24" id="I"/><path fill="#3a414a" d="M96-169c-40 0-48 33-48 73s9 75 48 75c24 0 41-14 43-38l32 2c-6 37-31 61-74 61-59 0-76-41-82-99-10-93 101-131 147-64 4 7 5 14 7 22l-32 3c-4-21-16-35-41-35" id="J"/><path fill="#3a414a" d="M100-194c62-1 85 37 85 99 1 63-27 99-86 99S16-35 15-95c0-66 28-99 85-99zM99-20c44 1 53-31 53-75 0-43-8-75-51-75s-53 32-53 75 10 74 51 75" id="K"/><g id="b"><use transform="matrix(0.06172839506172839,0,0,0.06172839506172839,0,0)" xlink:href="#G"/><use transform="matrix(0.06172839506172839,0,0,0.06172839506172839,12.345679012345679,0)" xlink:href="#H"/><use transform="matrix(0.06172839506172839,0,0,0.06172839506172839,24.691358024691358,0)" xlink:href="#D"/><use transform="matrix(0.06172839506172839,0,0,0.06172839506172839,30.864197530864196,0)" xlink:href="#E"/><use transform="matrix(0.06172839506172839,0,0,0.06172839506172839,43.20987654320987,0)" xlink:href="#F"/><use transform="matrix(0.06172839506172839,0,0,0.06172839506172839,55.55555555555555,0)" xlink:href="#D"/><use transform="matrix(0.06172839506172839,0,0,0.06172839506172839,61.72839506172839,0)" xlink:href="#I"/><use transform="matrix(0.06172839506172839,0,0,0.06172839506172839,66.60493827160494,0)" xlink:href="#J"/><use transform="matrix(0.06172839506172839,0,0,0.06172839506172839,77.71604938271605,0)" xlink:href="#G"/><use transform="matrix(0.06172839506172839,0,0,0.06172839506172839,90.06172839506173,0)" xlink:href="#D"/><use transform="matrix(0.06172839506172839,0,0,0.06172839506172839,96.23456790123457,0)" xlink:href="#K"/></g><path fill="#3a414a" d="M135-143c-3-34-86-38-87 0 15 53 115 12 119 90S17 21 10-45l28-5c4 36 97 45 98 0-10-56-113-15-118-90-4-57 82-63 122-42 12 7 21 19 24 35" id="L"/><path fill="#3a414a" d="M85-194c31 0 48 13 60 33l-1-100h32l1 261h-30c-2-10 0-23-3-31C134-8 116 4 85 4 32 4 16-35 15-94c0-66 23-100 70-100zm9 24c-40 0-46 34-46 75 0 40 6 74 45 74 42 0 51-32 51-76 0-42-9-74-50-73" id="M"/><path fill="#3a414a" d="M114-163C36-179 61-72 57 0H25l-1-190h30c1 12-1 29 2 39 6-27 23-49 58-41v29" id="N"/><g id="c"><use transform="matrix(0.06172839506172839,0,0,0.06172839506172839,0,0)" xlink:href="#L"/><use transform="matrix(0.06172839506172839,0,0,0.06172839506172839,11.11111111111111,0)" xlink:href="#D"/><use transform="matrix(0.06172839506172839,0,0,0.06172839506172839,17.28395061728395,0)" xlink:href="#G"/><use transform="matrix(0.06172839506172839,0,0,0.06172839506172839,29.629629629629626,0)" xlink:href="#F"/><use transform="matrix(0.06172839506172839,0,0,0.06172839506172839,41.9753086419753,0)" xlink:href="#M"/><use transform="matrix(0.06172839506172839,0,0,0.06172839506172839,54.32098765432098,0)" xlink:href="#G"/><use transform="matrix(0.06172839506172839,0,0,0.06172839506172839,66.66666666666666,0)" xlink:href="#N"/><use transform="matrix(0.06172839506172839,0,0,0.06172839506172839,74.01234567901234,0)" xlink:href="#M"/></g><path d="M135-143c-3-34-86-38-87 0 15 53 115 12 119 90S17 21 10-45l28-5c4 36 97 45 98 0-10-56-113-15-118-90-4-57 82-63 122-42 12 7 21 19 24 35" id="O"/><path d="M24-231v-30h32v30H24zM24 0v-190h32V0H24" id="P"/><path d="M117-194c89-4 53 116 60 194h-32v-121c0-31-8-49-39-48C34-167 62-67 57 0H25l-1-190h30c1 10-1 24 2 32 11-22 29-35 61-36" id="Q"/><path d="M96-169c-40 0-48 33-48 73s9 75 48 75c24 0 41-14 43-38l32 2c-6 37-31 61-74 61-59 0-76-41-82-99-10-93 101-131 147-64 4 7 5 14 7 22l-32 3c-4-21-16-35-41-35" id="R"/><path d="M114-163C36-179 61-72 57 0H25l-1-190h30c1 12-1 29 2 39 6-27 23-49 58-41v29" id="S"/><path d="M100-194c62-1 85 37 85 99 1 63-27 99-86 99S16-35 15-95c0-66 28-99 85-99zM99-20c44 1 53-31 53-75 0-43-8-75-51-75s-53 32-53 75 10 74 51 75" id="T"/><path d="M9 0v-24l116-142H16v-24h144v24L44-24h123V0H9" id="U"/><path d="M141-36C126-15 110 5 73 4 37 3 15-17 15-53c-1-64 63-63 125-63 3-35-9-54-41-54-24 1-41 7-42 31l-33-3c5-37 33-52 76-52 45 0 72 20 72 64v82c-1 20 7 32 28 27v20c-31 9-61-2-59-35zM48-53c0 20 12 33 32 33 41-3 63-29 60-74-43 2-92-5-92 41" id="V"/><g id="d"><use transform="matrix(0.05,0,0,0.05,0,0)" xlink:href="#O"/><use transform="matrix(0.05,0,0,0.05,9,0)" xlink:href="#P"/><use transform="matrix(0.05,0,0,0.05,12.949999999999998,0)" xlink:href="#Q"/><use transform="matrix(0.05,0,0,0.05,22.95,0)" xlink:href="#R"/><use transform="matrix(0.05,0,0,0.05,31.950000000000003,0)" xlink:href="#S"/><use transform="matrix(0.05,0,0,0.05,37.9,0)" xlink:href="#T"/><use transform="matrix(0.05,0,0,0.05,47.9,0)" xlink:href="#Q"/><use transform="matrix(0.05,0,0,0.05,57.900000000000006,0)" xlink:href="#Q"/><use transform="matrix(0.05,0,0,0.05,67.9,0)" xlink:href="#P"/><use transform="matrix(0.05,0,0,0.05,71.85000000000001,0)" xlink:href="#U"/><use transform="matrix(0.05,0,0,0.05,80.85000000000001,0)" xlink:href="#U"/><use transform="matrix(0.05,0,0,0.05,89.85000000000001,0)" xlink:href="#V"/><use transform="matrix(0.05,0,0,0.05,99.85000000000001,0)" xlink:href="#S"/><use transform="matrix(0.05,0,0,0.05,105.80000000000001,0)" xlink:href="#O"/><use transform="matrix(0.05,0,0,0.05,114.80000000000001,0)" xlink:href="#P"/></g><g id="e"><use transform="matrix(0.05,0,0,0.05,0,0)" xlink:href="#R"/><use transform="matrix(0.05,0,0,0.05,9,0)" xlink:href="#T"/><use transform="matrix(0.05,0,0,0.05,19,0)" xlink:href="#Q"/></g><path d="M143 4C61 4 22-44 18-125c-5-107 100-154 193-111 17 8 29 25 37 43l-32 9c-13-25-37-40-76-40-61 0-88 39-88 99 0 61 29 100 91 101 35 0 62-11 79-27v-45h-74v-28h105v86C228-13 192 4 143 4" id="W"/><path d="M177-190C167-65 218 103 67 71c-23-6-38-20-44-43l32-5c15 47 100 32 89-28v-30C133-14 115 1 83 1 29 1 15-40 15-95c0-56 16-97 71-98 29-1 48 16 59 35 1-10 0-23 2-32h30zM94-22c36 0 50-32 50-73 0-42-14-75-50-75-39 0-46 34-46 75s6 73 46 73" id="X"/><path d="M24 0v-261h32V0H24" id="Y"/><path d="M100-194c63 0 86 42 84 106H49c0 40 14 67 53 68 26 1 43-12 49-29l28 8c-11 28-37 45-77 45C44 4 14-33 15-96c1-61 26-98 85-98zm52 81c6-60-76-77-97-28-3 7-6 17-6 28h103" id="Z"/><g id="f"><use transform="matrix(0.05,0,0,0.05,0,0)" xlink:href="#W"/><use transform="matrix(0.05,0,0,0.05,14,0)" xlink:href="#T"/><use transform="matrix(0.05,0,0,0.05,24,0)" xlink:href="#T"/><use transform="matrix(0.05,0,0,0.05,34,0)" xlink:href="#X"/><use transform="matrix(0.05,0,0,0.05,44,0)" xlink:href="#Y"/><use transform="matrix(0.05,0,0,0.05,47.95,0)" xlink:href="#Z"/></g><path d="M212-179c-10-28-35-45-73-45-59 0-87 40-87 99 0 60 29 101 89 101 43 0 62-24 78-52l27 14C228-24 195 4 139 4 59 4 22-46 18-125c-6-104 99-153 187-111 19 9 31 26 39 46" id="aa"/><path d="M85-194c31 0 48 13 60 33l-1-100h32l1 261h-30c-2-10 0-23-3-31C134-8 116 4 85 4 32 4 16-35 15-94c0-66 23-100 70-100zm9 24c-40 0-46 34-46 75 0 40 6 74 45 74 42 0 51-32 51-76 0-42-9-74-50-73" id="ab"/><g id="g"><use transform="matrix(0.05,0,0,0.05,0,0)" xlink:href="#aa"/><use transform="matrix(0.05,0,0,0.05,12.950000000000001,0)" xlink:href="#V"/><use transform="matrix(0.05,0,0,0.05,22.950000000000003,0)" xlink:href="#Y"/><use transform="matrix(0.05,0,0,0.05,26.900000000000002,0)" xlink:href="#Z"/><use transform="matrix(0.05,0,0,0.05,36.900000000000006,0)" xlink:href="#Q"/><use transform="matrix(0.05,0,0,0.05,46.900000000000006,0)" xlink:href="#ab"/><use transform="matrix(0.05,0,0,0.05,56.900000000000006,0)" xlink:href="#V"/><use transform="matrix(0.05,0,0,0.05,66.9,0)" xlink:href="#S"/></g><path fill="#3a414a" d="M143 4C61 4 22-44 18-125c-5-107 100-154 193-111 17 8 29 25 37 43l-32 9c-13-25-37-40-76-40-61 0-88 39-88 99 0 61 29 100 91 101 35 0 62-11 79-27v-45h-74v-28h105v86C228-13 192 4 143 4" id="ac"/><path fill="#3a414a" d="M177-190C167-65 218 103 67 71c-23-6-38-20-44-43l32-5c15 47 100 32 89-28v-30C133-14 115 1 83 1 29 1 15-40 15-95c0-56 16-97 71-98 29-1 48 16 59 35 1-10 0-23 2-32h30zM94-22c36 0 50-32 50-73 0-42-14-75-50-75-39 0-46 34-46 75s6 73 46 73" id="ad"/><path fill="#3a414a" d="M24 0v-261h32V0H24" id="ae"/><g id="h"><use transform="matrix(0.06172839506172839,0,0,0.06172839506172839,0,0)" xlink:href="#ac"/><use transform="matrix(0.06172839506172839,0,0,0.06172839506172839,17.28395061728395,0)" xlink:href="#K"/><use transform="matrix(0.06172839506172839,0,0,0.06172839506172839,29.629629629629626,0)" xlink:href="#K"/><use transform="matrix(0.06172839506172839,0,0,0.06172839506172839,41.9753086419753,0)" xlink:href="#ad"/><use transform="matrix(0.06172839506172839,0,0,0.06172839506172839,54.32098765432098,0)" xlink:href="#ae"/><use transform="matrix(0.06172839506172839,0,0,0.06172839506172839,59.197530864197525,0)" xlink:href="#E"/></g><path fill="#3a414a" d="M212-179c-10-28-35-45-73-45-59 0-87 40-87 99 0 60 29 101 89 101 43 0 62-24 78-52l27 14C228-24 195 4 139 4 59 4 22-46 18-125c-6-104 99-153 187-111 19 9 31 26 39 46" id="af"/><g id="i"><use transform="matrix(0.06172839506172839,0,0,0.06172839506172839,0,0)" xlink:href="#af"/><use transform="matrix(0.06172839506172839,0,0,0.06172839506172839,15.987654320987653,0)" xlink:href="#G"/><use transform="matrix(0.06172839506172839,0,0,0.06172839506172839,28.333333333333332,0)" xlink:href="#ae"/><use transform="matrix(0.06172839506172839,0,0,0.06172839506172839,33.20987654320987,0)" xlink:href="#E"/><use transform="matrix(0.06172839506172839,0,0,0.06172839506172839,45.55555555555555,0)" xlink:href="#F"/><use transform="matrix(0.06172839506172839,0,0,0.06172839506172839,57.90123456790123,0)" xlink:href="#M"/><use transform="matrix(0.06172839506172839,0,0,0.06172839506172839,70.24691358024691,0)" xlink:href="#G"/><use transform="matrix(0.06172839506172839,0,0,0.06172839506172839,82.5925925925926,0)" xlink:href="#N"/></g><path d="M210-169c-67 3-38 105-44 169h-31v-121c0-29-5-50-35-48C34-165 62-65 56 0H25l-1-190h30c1 10-1 24 2 32 10-44 99-50 107 0 11-21 27-35 58-36 85-2 47 119 55 194h-31v-121c0-29-5-49-35-48" id="ag"/><path d="M115-194c55 1 70 41 70 98S169 2 115 4C84 4 66-9 55-30l1 105H24l-1-265h31l2 30c10-21 28-34 59-34zm-8 174c40 0 45-34 45-75s-6-73-45-74c-42 0-51 32-51 76 0 43 10 73 51 73" id="ah"/><path d="M59-47c-2 24 18 29 38 22v24C64 9 27 4 27-40v-127H5v-23h24l9-43h21v43h35v23H59v120" id="ai"/><g id="j"><use transform="matrix(0.05,0,0,0.05,0,0)" xlink:href="#P"/><use transform="matrix(0.05,0,0,0.05,3.95,0)" xlink:href="#ag"/><use transform="matrix(0.05,0,0,0.05,18.900000000000002,0)" xlink:href="#ah"/><use transform="matrix(0.05,0,0,0.05,28.900000000000002,0)" xlink:href="#T"/><use transform="matrix(0.05,0,0,0.05,38.900000000000006,0)" xlink:href="#S"/><use transform="matrix(0.05,0,0,0.05,44.85000000000001,0)" xlink:href="#ai"/><use transform="matrix(0.05,0,0,0.05,49.85000000000001,0)" xlink:href="#V"/><use transform="matrix(0.05,0,0,0.05,59.85,0)" xlink:href="#S"/><use transform="matrix(0.05,0,0,0.05,65.80000000000001,0)" xlink:href="#Z"/></g><path d="M108 0H70L1-190h34L89-25l56-165h34" id="aj"/><path d="M0 4l72-265h28L28 4H0" id="ak"/><g id="k"><use transform="matrix(0.05,0,0,0.05,0,0)" xlink:href="#Z"/><use transform="matrix(0.05,0,0,0.05,10,0)" xlink:href="#aj"/><use transform="matrix(0.05,0,0,0.05,19,0)" xlink:href="#Z"/><use transform="matrix(0.05,0,0,0.05,29,0)" xlink:href="#Q"/><use transform="matrix(0.05,0,0,0.05,39,0)" xlink:href="#ai"/><use transform="matrix(0.05,0,0,0.05,44,0)" xlink:href="#P"/><use transform="matrix(0.05,0,0,0.05,47.95,0)" xlink:href="#ak"/><use transform="matrix(0.05,0,0,0.05,52.95,0)" xlink:href="#R"/><use transform="matrix(0.05,0,0,0.05,61.95,0)" xlink:href="#V"/><use transform="matrix(0.05,0,0,0.05,71.95,0)" xlink:href="#Y"/><use transform="matrix(0.05,0,0,0.05,75.9,0)" xlink:href="#Z"/><use transform="matrix(0.05,0,0,0.05,85.9,0)" xlink:href="#Q"/><use transform="matrix(0.05,0,0,0.05,95.9,0)" xlink:href="#ab"/><use transform="matrix(0.05,0,0,0.05,105.9,0)" xlink:href="#V"/><use transform="matrix(0.05,0,0,0.05,115.9,0)" xlink:href="#S"/><use transform="matrix(0.05,0,0,0.05,121.85000000000001,0)" xlink:href="#P"/></g><g id="l"><use transform="matrix(0.05,0,0,0.05,0,0)" xlink:href="#ab"/><use transform="matrix(0.05,0,0,0.05,10,0)" xlink:href="#V"/></g><g id="m"><use transform="matrix(0.05,0,0,0.05,0,0)" xlink:href="#Z"/><use transform="matrix(0.05,0,0,0.05,10,0)" xlink:href="#O"/><use transform="matrix(0.05,0,0,0.05,19,0)" xlink:href="#ah"/><use transform="matrix(0.05,0,0,0.05,29,0)" xlink:href="#T"/><use transform="matrix(0.05,0,0,0.05,39,0)" xlink:href="#S"/><use transform="matrix(0.05,0,0,0.05,44.95,0)" xlink:href="#ai"/><use transform="matrix(0.05,0,0,0.05,49.95,0)" xlink:href="#V"/><use transform="matrix(0.05,0,0,0.05,59.95,0)" xlink:href="#S"/><use transform="matrix(0.05,0,0,0.05,65.9,0)" xlink:href="#Z"/></g><use transform="matrix(0.05,0,0,0.05,0,0)" xlink:href="#V" id="n"/><path fill="#333" d="M15-91v-56l181-69v40L49-119l147 57v40" id="al"/><path fill="#333" d="M25-224v-37h50v37H25zM25 0v-190h50V0H25" id="am"/><path fill="#333" d="M135-194c87-1 58 113 63 194h-50c-7-57 23-157-34-157-59 0-34 97-39 157H25l-1-190h47c2 12-1 28 3 38 12-26 28-41 61-42" id="an"/><path fill="#333" d="M190-63c-7 42-38 67-86 67-59 0-84-38-90-98-12-110 154-137 174-36l-49 2c-2-19-15-32-35-32-30 0-35 28-38 64-6 74 65 87 74 30" id="ao"/><path fill="#333" d="M25 0v-261h50V0H25" id="ap"/><path fill="#333" d="M85 4C-2 5 27-109 22-190h50c7 57-23 150 33 157 60-5 35-97 40-157h50l1 190h-47c-2-12 1-28-3-38-12 25-28 42-61 42" id="aq"/><path fill="#333" d="M88-194c31-1 46 15 58 34l-1-101h50l1 261h-48c-2-10 0-23-3-31C134-8 116 4 84 4 32 4 16-41 15-95c0-56 19-97 73-99zm17 164c33 0 40-30 41-66 1-37-9-64-41-64s-38 30-39 65c0 43 13 65 39 65" id="ar"/><path fill="#333" d="M185-48c-13 30-37 53-82 52C43 2 14-33 14-96s30-98 90-98c62 0 83 45 84 108H66c0 31 8 55 39 56 18 0 30-7 34-22zm-45-69c5-46-57-63-70-21-2 6-4 13-4 21h74" id="as"/><path fill="#333" d="M15-22v-40l146-57-146-57v-40l181 69v56" id="at"/><g id="o"><use transform="matrix(0.04938271604938272,0,0,0.04938271604938272,0,0)" xlink:href="#al"/><use transform="matrix(0.04938271604938272,0,0,0.04938271604938272,10.370370370370372,0)" xlink:href="#am"/><use transform="matrix(0.04938271604938272,0,0,0.04938271604938272,15.308641975308642,0)" xlink:href="#an"/><use transform="matrix(0.04938271604938272,0,0,0.04938271604938272,26.12345679012346,0)" xlink:href="#ao"/><use transform="matrix(0.04938271604938272,0,0,0.04938271604938272,36,0)" xlink:href="#ap"/><use transform="matrix(0.04938271604938272,0,0,0.04938271604938272,40.93827160493827,0)" xlink:href="#aq"/><use transform="matrix(0.04938271604938272,0,0,0.04938271604938272,51.75308641975309,0)" xlink:href="#ar"/><use transform="matrix(0.04938271604938272,0,0,0.04938271604938272,62.567901234567906,0)" xlink:href="#as"/><use transform="matrix(0.04938271604938272,0,0,0.04938271604938272,72.44444444444446,0)" xlink:href="#at"/></g><path d="M141 0L90-78 38 0H4l68-98-65-92h35l48 74 47-74h35l-64 92 68 98h-35" id="au"/><g id="p"><use transform="matrix(0.05,0,0,0.05,0,0)" xlink:href="#Z"/><use transform="matrix(0.05,0,0,0.05,10,0)" xlink:href="#au"/><use transform="matrix(0.05,0,0,0.05,19,0)" xlink:href="#ah"/><use transform="matrix(0.05,0,0,0.05,29,0)" xlink:href="#T"/><use transform="matrix(0.05,0,0,0.05,39,0)" xlink:href="#S"/><use transform="matrix(0.05,0,0,0.05,44.95,0)" xlink:href="#ai"/><use transform="matrix(0.05,0,0,0.05,49.95,0)" xlink:href="#ak"/><use transform="matrix(0.05,0,0,0.05,54.95,0)" xlink:href="#P"/><use transform="matrix(0.05,0,0,0.05,58.900000000000006,0)" xlink:href="#ag"/><use transform="matrix(0.05,0,0,0.05,73.85000000000001,0)" xlink:href="#ah"/><use transform="matrix(0.05,0,0,0.05,83.85000000000001,0)" xlink:href="#T"/><use transform="matrix(0.05,0,0,0.05,93.85000000000001,0)" xlink:href="#S"/><use transform="matrix(0.05,0,0,0.05,99.80000000000001,0)" xlink:href="#ai"/></g><g id="q"><use transform="matrix(0.05,0,0,0.05,0,0)" xlink:href="#ab"/><use transform="matrix(0.05,0,0,0.05,10,0)" xlink:href="#P"/></g><path d="M101-234c-31-9-42 10-38 44h38v23H63V0H32v-167H5v-23h27c-7-52 17-82 69-68v24" id="av"/><g id="r"><use transform="matrix(0.05,0,0,0.05,0,0)" xlink:href="#av"/><use transform="matrix(0.05,0,0,0.05,5,0)" xlink:href="#P"/><use transform="matrix(0.05,0,0,0.05,8.95,0)" xlink:href="#Y"/><use transform="matrix(0.05,0,0,0.05,12.899999999999999,0)" xlink:href="#Z"/></g><path d="M206 0h-36l-40-164L89 0H53L-1-190h32L70-26l43-164h34l41 164 42-164h31" id="aw"/><g id="s"><use transform="matrix(0.05,0,0,0.05,0,0)" xlink:href="#ab"/><use transform="matrix(0.05,0,0,0.05,10,0)" xlink:href="#T"/><use transform="matrix(0.05,0,0,0.05,20,0)" xlink:href="#aw"/><use transform="matrix(0.05,0,0,0.05,32.95,0)" xlink:href="#Q"/><use transform="matrix(0.05,0,0,0.05,42.95,0)" xlink:href="#Y"/><use transform="matrix(0.05,0,0,0.05,46.900000000000006,0)" xlink:href="#T"/><use transform="matrix(0.05,0,0,0.05,56.900000000000006,0)" xlink:href="#V"/><use transform="matrix(0.05,0,0,0.05,66.9,0)" xlink:href="#ab"/></g><g id="t"><use transform="matrix(0.05,0,0,0.05,0,0)" xlink:href="#av"/><use transform="matrix(0.05,0,0,0.05,5,0)" xlink:href="#P"/><use transform="matrix(0.05,0,0,0.05,8.95,0)" xlink:href="#Y"/><use transform="matrix(0.05,0,0,0.05,12.899999999999999,0)" xlink:href="#Z"/></g><g id="u"><use transform="matrix(0.05,0,0,0.05,0,0)" xlink:href="#R"/><use transform="matrix(0.05,0,0,0.05,9,0)" xlink:href="#V"/><use transform="matrix(0.05,0,0,0.05,19,0)" xlink:href="#Y"/><use transform="matrix(0.05,0,0,0.05,22.95,0)" xlink:href="#Z"/><use transform="matrix(0.05,0,0,0.05,32.95,0)" xlink:href="#Q"/><use transform="matrix(0.05,0,0,0.05,42.95,0)" xlink:href="#ab"/><use transform="matrix(0.05,0,0,0.05,52.95,0)" xlink:href="#V"/><use transform="matrix(0.05,0,0,0.05,62.95,0)" xlink:href="#S"/><use transform="matrix(0.05,0,0,0.05,68.9,0)" xlink:href="#P"/><use transform="matrix(0.05,0,0,0.05,72.85000000000001,0)" xlink:href="#T"/><use transform="matrix(0.05,0,0,0.05,82.85000000000001,0)" xlink:href="#ak"/><use transform="matrix(0.05,0,0,0.05,87.85000000000001,0)" xlink:href="#Z"/><use transform="matrix(0.05,0,0,0.05,97.85000000000001,0)" xlink:href="#aj"/><use transform="matrix(0.05,0,0,0.05,106.85000000000001,0)" xlink:href="#Z"/><use transform="matrix(0.05,0,0,0.05,116.85000000000001,0)" xlink:href="#Q"/><use transform="matrix(0.05,0,0,0.05,126.85000000000001,0)" xlink:href="#ai"/><use transform="matrix(0.05,0,0,0.05,131.85000000000002,0)" xlink:href="#T"/></g><path d="M84 4C-5 8 30-112 23-190h32v120c0 31 7 50 39 49 72-2 45-101 50-169h31l1 190h-30c-1-10 1-25-2-33-11 22-28 36-60 37" id="ax"/><g id="v"><use transform="matrix(0.05,0,0,0.05,0,0)" xlink:href="#ax"/><use transform="matrix(0.05,0,0,0.05,10,0)" xlink:href="#ah"/><use transform="matrix(0.05,0,0,0.05,20,0)" xlink:href="#Y"/><use transform="matrix(0.05,0,0,0.05,23.95,0)" xlink:href="#T"/><use transform="matrix(0.05,0,0,0.05,33.95,0)" xlink:href="#V"/><use transform="matrix(0.05,0,0,0.05,43.95,0)" xlink:href="#ab"/></g><path fill="#333" d="M144 0l-44-69L55 0H2l70-98-66-92h53l41 62 40-62h54l-67 91 71 99h-54" id="ay"/><path fill="#333" d="M115-3C79 11 28 4 28-45v-112H4v-33h27l15-45h31v45h36v33H77v99c-1 23 16 31 38 25v30" id="az"/><g id="w"><use transform="matrix(0.04938271604938272,0,0,0.04938271604938272,0,0)" xlink:href="#al"/><use transform="matrix(0.04938271604938272,0,0,0.04938271604938272,10.370370370370372,0)" xlink:href="#as"/><use transform="matrix(0.04938271604938272,0,0,0.04938271604938272,20.24691358024692,0)" xlink:href="#ay"/><use transform="matrix(0.04938271604938272,0,0,0.04938271604938272,30.123456790123466,0)" xlink:href="#az"/><use transform="matrix(0.04938271604938272,0,0,0.04938271604938272,36.00000000000001,0)" xlink:href="#as"/><use transform="matrix(0.04938271604938272,0,0,0.04938271604938272,45.87654320987655,0)" xlink:href="#an"/><use transform="matrix(0.04938271604938272,0,0,0.04938271604938272,56.69135802469136,0)" xlink:href="#ar"/><use transform="matrix(0.04938271604938272,0,0,0.04938271604938272,67.50617283950618,0)" xlink:href="#at"/></g><g id="x"><use transform="matrix(0.05,0,0,0.05,0,0)" xlink:href="#R"/><use transform="matrix(0.05,0,0,0.05,9,0)" xlink:href="#V"/><use transform="matrix(0.05,0,0,0.05,19,0)" xlink:href="#S"/><use transform="matrix(0.05,0,0,0.05,24.95,0)" xlink:href="#P"/><use transform="matrix(0.05,0,0,0.05,28.899999999999995,0)" xlink:href="#R"/><use transform="matrix(0.05,0,0,0.05,37.9,0)" xlink:href="#V"/><use transform="matrix(0.05,0,0,0.05,47.9,0)" xlink:href="#ag"/><use transform="matrix(0.05,0,0,0.05,62.85,0)" xlink:href="#Z"/><use transform="matrix(0.05,0,0,0.05,72.85,0)" xlink:href="#Q"/><use transform="matrix(0.05,0,0,0.05,82.85,0)" xlink:href="#ai"/><use transform="matrix(0.05,0,0,0.05,87.85,0)" xlink:href="#T"/></g><g id="y"><use transform="matrix(0.05,0,0,0.05,0,0)" xlink:href="#ab"/><use transform="matrix(0.05,0,0,0.05,10,0)" xlink:href="#Z"/><use transform="matrix(0.05,0,0,0.05,20,0)" xlink:href="#Y"/></g><g id="z"><use transform="matrix(0.05,0,0,0.05,0,0)" xlink:href="#O"/><use transform="matrix(0.05,0,0,0.05,9,0)" xlink:href="#ax"/></g><g id="A"><use transform="matrix(0.05,0,0,0.05,0,0)" xlink:href="#O"/><use transform="matrix(0.05,0,0,0.05,9,0)" xlink:href="#R"/><use transform="matrix(0.05,0,0,0.05,18,0)" xlink:href="#V"/><use transform="matrix(0.05,0,0,0.05,28,0)" xlink:href="#S"/><use transform="matrix(0.05,0,0,0.05,33.95,0)" xlink:href="#P"/><use transform="matrix(0.05,0,0,0.05,37.900000000000006,0)" xlink:href="#R"/><use transform="matrix(0.05,0,0,0.05,46.900000000000006,0)" xlink:href="#V"/><use transform="matrix(0.05,0,0,0.05,56.900000000000006,0)" xlink:href="#ag"/><use transform="matrix(0.05,0,0,0.05,71.85000000000001,0)" xlink:href="#Z"/><use transform="matrix(0.05,0,0,0.05,81.85000000000001,0)" xlink:href="#Q"/><use transform="matrix(0.05,0,0,0.05,91.85000000000001,0)" xlink:href="#ai"/><use transform="matrix(0.05,0,0,0.05,96.85000000000001,0)" xlink:href="#T"/></g><g id="B"><use transform="matrix(0.05,0,0,0.05,0,0)" xlink:href="#ab"/><use transform="matrix(0.05,0,0,0.05,10,0)" xlink:href="#V"/></g></defs></g></svg>