<svg xmlns="http://www.w3.org/2000/svg" xmlns:xlink="http://www.w3.org/1999/xlink" xmlns:lucid="lucid" width="1696" height="1259"><g transform="translate(-264 -20)" lucid:page-tab-id="M~u6vxSw7v~."><path d="M0 0h3677.73v1322.83H0z" fill="#fff"/><path d="M400.22 529.75c0 10.9-8.85 19.75-19.75 19.75s-19.75-8.84-19.75-19.75c0-10.9 8.84-19.75 19.75-19.75 10.9 0 19.75 8.84 19.75 19.75z" stroke="#3a414a" fill="#fff"/><path d="M380.47 549.5v49.3a20.7 20.7 0 0 0 3.2 11.07l36.8 58.13m-40-63.2l-40 63.2m0-98.75h80" stroke="#3a414a" fill="none"/><path d="M340.47 516a6 6 0 0 1 6-6h68a6 6 0 0 1 6 6v168a6 6 0 0 1-6 6h-68a6 6 0 0 1-6-6z" fill="none"/><use xlink:href="#a" transform="matrix(1,0,0,1,260.46608393881763,668) translate(29.93827160493828 17.77777777777778)"/><use xlink:href="#b" transform="matrix(1,0,0,1,260.46608393881763,668) translate(101.48148148148148 17.77777777777778)"/><use xlink:href="#c" transform="matrix(1,0,0,1,260.46608393881763,668) translate(76.82098765432099 44.44444444444444)"/><path d="M710.47 590c0 33.14-35.82 60-80 60-44.2 0-80-26.86-80-60s35.8-60 80-60c44.18 0 80 26.86 80 60z" stroke="#3a414a" fill="#fff"/><use xlink:href="#d" transform="matrix(1,0,0,1,550.4660839388176,530) translate(38.60499999999999 40.65)"/><use xlink:href="#e" transform="matrix(1,0,0,1,550.4660839388176,530) translate(30.10499999999999 62.25)"/><use xlink:href="#f" transform="matrix(1,0,0,1,550.4660839388176,530) translate(48.504999999999995 83.85000000000001)"/><path d="M380.47 588.93H549.5M380.48 588.93h-3.5" stroke="#3a414a" fill="none"/><path d="M549.98 589.43h-.5v-1h.53z" stroke="#3a414a" stroke-width=".05" fill="#3a414a"/><path d="M710.47 345c0 33.14-35.82 60-80 60-44.2 0-80-26.86-80-60s35.8-60 80-60c44.18 0 80 26.86 80 60z" stroke="#3a414a" fill="#fff"/><use xlink:href="#g" transform="matrix(1,0,0,1,550.4660839388176,285) translate(46.57999999999999 51.9)"/><use xlink:href="#h" transform="matrix(1,0,0,1,550.4660839388176,285) translate(41.55499999999999 73.5)"/><path d="M1104.8 260c0 33.14-35.8 60-80 60-44.17 0-80-26.86-80-60s35.83-60 80-60c44.2 0 80 26.86 80 60z" stroke="#3a414a" fill="#fff"/><use xlink:href="#g" transform="matrix(1,0,0,1,944.8091022333053,200) translate(46.57999999999999 51.9)"/><use xlink:href="#i" transform="matrix(1,0,0,1,944.8091022333053,200) translate(40.05499999999999 73.5)"/><path d="M1109.73 590c0 35.18-38.02 63.7-84.92 63.7s-84.9-28.52-84.9-63.7c0-35.18 38-63.7 84.9-63.7 46.9 0 84.93 28.52 84.93 63.7z" stroke="#3a414a" fill="#fff"/><use xlink:href="#j" transform="matrix(1,0,0,1,939.8872272333053,526.30859375) translate(55.605 25.41)"/><use xlink:href="#k" transform="matrix(1,0,0,1,939.8872272333053,526.30859375) translate(34.55499999999999 47.01)"/><use xlink:href="#l" transform="matrix(1,0,0,1,939.8872272333053,526.30859375) translate(125.45500000000001 47.01)"/><use xlink:href="#m" transform="matrix(1,0,0,1,939.8872272333053,526.30859375) translate(27.104999999999997 68.61)"/><use xlink:href="#n" transform="matrix(1,0,0,1,939.8872272333053,526.30859375) translate(113.905 68.61)"/><use xlink:href="#o" transform="matrix(1,0,0,1,939.8872272333053,526.30859375) translate(37.60499999999999 90.21000000000001)"/><use xlink:href="#p" transform="matrix(1,0,0,1,939.8872272333053,526.30859375) translate(93.45500000000001 90.21000000000001)"/><use xlink:href="#q" transform="matrix(1,0,0,1,939.8872272333053,526.30859375) translate(112.405 90.21000000000001)"/><use xlink:href="#r" transform="matrix(1,0,0,1,939.8872272333053,526.30859375) translate(67.555 111.81)"/><path d="M719.53 970c0 33.14-35.8 60-80 60-44.18 0-80-26.86-80-60s35.82-60 80-60c44.2 0 80 26.86 80 60z" stroke="#3a414a" fill="#fff"/><use xlink:href="#s" transform="matrix(1,0,0,1,559.5322813671638,910) translate(32.10499999999999 40.65)"/><use xlink:href="#t" transform="matrix(1,0,0,1,559.5322813671638,910) translate(103.95500000000001 40.65)"/><use xlink:href="#u" transform="matrix(1,0,0,1,559.5322813671638,910) translate(40.55499999999999 62.25)"/><use xlink:href="#v" transform="matrix(1,0,0,1,559.5322813671638,910) translate(105.505 62.25)"/><use xlink:href="#w" transform="matrix(1,0,0,1,559.5322813671638,910) translate(35.03 83.85000000000001)"/><path d="M630.97 529h-1v-1.53h1zm0-3.57h-1v-3.06h1zm0-5.1h-1v-3.06h1zm0-5.1h-1v-3.06h1zm0-5.1h-1v-3.06h1zm0-5.1h-1v-3.06h1zm0-5.1h-1v-3.06h1zm0-5.1h-1v-3.07h1zm0-5.1h-1v-3.07h1zm0-5.1h-1v-3.07h1zm0-5.1h-1v-1.36h1zm0-22.7h-1v-.77h1zm0-2.8h-1v-3.07h1zm0-5.1h-1v-3.07h1zm0-5.1h-1v-3.07h1zm0-5.1h-1v-3.07h1zm0-5.1h-1v-3.07h1zm0-5.12h-1v-3.05h1zm0-5.1h-1v-1.52h1z" stroke="#3a414a" stroke-width=".05" fill="#3a414a"/><path d="M635.1 421.38h-9.27l4.64-14.26z" fill="#3a414a"/><path d="M635.8 421.88h-10.66l5.33-16.38zm-9.28-1h7.9l-3.95-12.14z" stroke="#3a414a" stroke-width=".05" fill="#3a414a"/><path d="M630.97 529.52l-.5-.02h-.5v-.5h1z" fill="#3a414a"/><path d="M631 529.54l-.53-.02h-.53v-.56H631zm-1-.53v.48h.94v-.47z" stroke="#3a414a" stroke-width=".05" fill="#3a414a"/><use xlink:href="#x" transform="matrix(1,0,0,1,591.5278123338795,456.8333333333333) translate(0 14.222222222222223)"/><path d="M728.84 590.5h-1.5v-1h1.5zm4.96 0h-2.98v-1h2.98zm4.96 0h-2.97v-1h2.96zm4.97 0h-2.98v-1h2.98zm4.96 0h-3v-1h3zm4.95 0h-2.98v-1h2.98zm4.96 0h-2.96v-1h2.97zm4.98 0h-2.98v-1h2.98zm4.96 0h-2.98v-1h2.98zm4.96 0h-2.98v-1h2.98zm4.96 0h-2.97v-1h2.96zm4.97 0h-2.98v-1h2.98zm4.96 0h-3v-1h3zm4.95 0h-2.98v-1h2.98zm4.96 0h-2.96v-1h2.97zm4.98 0h-2.98v-1h2.98zm4.96 0h-2.98v-1h2.98zm4.96 0h-2.98v-1h2.98zm4.96 0h-2.97v-1h2.96zm4.85-.16l-.35.08-1 .08h-1.5v-1h1.47l.88-.07.28-.07zm3.78-2.38l-.55.64-.77.66-.72.44-.52-.85.65-.4.66-.56.5-.6zm1.28-4.52V585l-.24 1-.14.35-.92-.38.1-.27.2-.82v-1.44zm0-4.98v3h-1v-3zm0-4.98v3h-1v-3zm0-5v3h-1v-3zm0-4.97v3h-1v-3zm0-4.97v3h-1v-3zm0-5v3h-1v-3zm0-4.97v3h-1v-3zm0-4.98v3h-1v-3zm0-5v3h-1v-3zm.02-4.97v3h-1v-3zm0-4.97v3h-1v-3zm0-5v3h-1v-3zm0-4.97v3h-1v-3zm0-4.98v3h-1v-3zm0-5v3h-1v-3zm0-4.97v3h-1v-3zm0-4.97v3h-1v-3zm0-5v3h-1v-3zm0-4.97v3h-1v-3zm0-4.98v3h-1v-3zm0-5v3h-1v-3zm0-4.97v3h-1v-3zm0-4.97v3l-1-.02v-2.98zm0-5v3h-1v-3zm0-4.97v3h-1v-3zm0-5v3h-1v-3zm.02-4.97v2.98h-1v-3zm0-5v3h-1v-3zm0-4.98v3h-1v-3zm0-4.98v3h-1v-3zm0-4.98v3h-1v-3zm0-5v3h-1v-3zm0-4.97v2.98h-1v-3zm0-5v3h-1v-3zm0-4.98v3h-1v-3zm0-4.98v3h-1v-3zm0-4.98v3h-1v-3zm0-5v3h-1v-3zm0-4.97v2.98h-1v-3zm0-5v3h-1v-3zm0-4.98v3h-1v-3zm0-4.98v3h-1v-3zm0-4.98v3h-1v-3zm0-5v3h-1v-3zm.02-4.97v2.98h-1v-3zm0-5v3h-1v-3zm0-4.98v3h-1v-3zm0-4.98v3h-1v-3zm0-4.98v3h-1v-3zm0-5v3h-1v-3zm0-4.97v2.98h-1v-3zm0-5v3h-1v-3zm0-4.98v3h-1v-3zm0-4.98v3h-1v-3zm0-4.98v3h-1v-3zm0-5v3h-1v-3zm0-4.97v2.98h-1v-3zm0-5v3h-1v-3zm0-4.98v3h-1v-3zm0-4.98v3h-1v-3zm0-4.98v3h-1v-3zm.02-5v3h-1v-3zm0-4.97v2.98h-1v-3zm.13-4.64l-.06.28-.06.88v1.48h-1v-1.52l.08-1 .08-.36zm2.06-3.24l-.58.5-.56.65-.4.65-.86-.53.44-.72.66-.78.64-.54zm3.88-1.05h-1.44l-.82.2-.27.1-.38-.9.33-.15 1-.25h1.58zm5.06 0h-3.03v-1h3.03zm5.06 0h-3.03l-.02-1h3.03zm80.8-.06h-1.95v-1h1.95zm5.05 0h-3.03v-1h3.03zm5.05 0h-3.03v-1h3.02zm5.05 0h-3.03v-1h3.03zm3.54 0h-1.5v-1h1.5z" stroke="#3a414a" stroke-width=".05" fill="#3a414a"/><path d="M726.85 594.64L712.58 590l14.27-4.64z" fill="#3a414a"/><path d="M727.35 595.32L710.97 590l16.38-5.32zM714.2 590l12.15 3.95v-7.9z" stroke="#3a414a" stroke-width=".05" fill="#3a414a"/><path d="M944.3 260v.4l.02.1h-.52v-1h.52z" fill="#3a414a"/><path d="M944.33 260v.53h-.56v-1.05h.58zm-.5-.48v.96h.46v-.1l-.02-.4.02-.46z" stroke="#3a414a" stroke-width=".05" fill="#3a414a"/><use xlink:href="#x" transform="matrix(1,0,0,1,845.2931442032753,249.33333333333334) translate(0 14.222222222222223)"/><path d="M728.86 590.5h-1.5v-1h1.5zm5.04 0h-3.02v-1h3.02zm5.03 0h-3.02v-1h3.03zm5.04 0h-3.02v-1h3.02zm5.04 0h-3v-1h3zm5.04 0h-3.02v-1h3.02zm5.04 0h-3.02v-1h3.02zm5.04 0h-3.02v-1h3.02zm5.03 0h-3.02v-1h3.02zm5.04 0h-3.03v-1h3.02zm5.03 0h-3.03v-1h3.03zm5.03 0h-3.02v-1h3.02zm5.04 0h-3.02v-1h3.02zm5.04 0h-3.03v-1h3.04zm5.03 0h-3.02v-1h3.02zm5.04 0h-3v-1h3zm5.05 0h-3.03v-1h3.03zm5.03 0h-3.02v-1h3.02zm5.04 0h-3.02v-1h3.02zm5.04 0h-3.03v-1h3.03zm5.03 0h-3.03v-1h3.02zm5.03 0h-3.02v-1h3.03zm5.04 0h-3.03v-1h3.03zm5.03 0h-3.02v-1h3.02zm5.04 0h-3.02v-1h3.02zm5.04 0h-3.03v-1h3.03zm5.03 0h-3v-1h3z" stroke="#3a414a" stroke-width=".05" fill="#3a414a"/><path d="M726.85 594.64L712.58 590l14.27-4.64z" fill="#3a414a"/><path d="M727.35 595.32L710.97 590l16.38-5.32zM714.2 590l12.15 3.95v-7.9z" stroke="#3a414a" stroke-width=".05" fill="#3a414a"/><path d="M939.4 589.56v-.06z" fill="#3a414a"/><path d="M939.4 590l.02.52h-.02v-1.04h.03z" stroke="#3a414a" stroke-width=".05" fill="#3a414a"/><use xlink:href="#x" transform="matrix(1,0,0,1,861.5235101410007,579.3333333333334) translate(0 14.222222222222223)"/><path d="M1104.8 390c0 33.14-35.8 60-80 60-44.17 0-80-26.86-80-60s35.83-60 80-60c44.2 0 80 26.86 80 60z" stroke="#3a414a" fill="#fff"/><use xlink:href="#y" transform="matrix(1,0,0,1,944.8091022333053,330) translate(25.105 44.4)"/><use xlink:href="#z" transform="matrix(1,0,0,1,944.8091022333053,330) translate(108.95500000000001 44.4)"/><use xlink:href="#p" transform="matrix(1,0,0,1,944.8091022333053,330) translate(46.029999999999994 66)"/><use xlink:href="#A" transform="matrix(1,0,0,1,944.8091022333053,330) translate(64.97999999999999 66)"/><use xlink:href="#B" transform="matrix(1,0,0,1,944.8091022333053,330) translate(45.03 87.60000000000001)"/><path d="M728.85 590.5h-1.5v-1h1.5zm5.02 0h-3v-1h3zm5 0h-3v-1h3zm5.02 0h-3.02v-1h3zm5-.02h-3v-1h3zm5 0h-3v-1h3zm5.03 0h-3v-1h3zm5 0h-3v-1h3zm5.02 0h-3v-1h3zm5-.02h-3v-1h3zm5.02 0h-3v-1h3zm5 0h-3v-1h3zm5.03 0h-3v-1h3zm5 0h-3v-1h3zm5.02-.02h-3v-1h3zm5 0h-3v-1h3zm5.02 0h-3v-1h3zm5.02 0h-3v-1h3zm5 0h-3v-1h3zm4.93-.4l-.35.14-1 .25h-1.58v-1h1.45l.82-.2.26-.1zm3.34-2.93l-.44.72-.67.78-.63.54-.65-.76.58-.5.56-.65.38-.65zm.8-4.6v1.52l-.08 1-.1.36-.96-.24.07-.28.07-.88v-1.47zm0-4.96v2.98h-1v-2.98zm0-4.98v3h-1v-3zm0-4.97v2.98h-1v-3zm0-4.98v2.98h-1v-2.98zm0-4.97v2.98h-1v-2.98zm0-4.97v2.98h-1v-2.98zm0-4.98v3h-1v-3zm0-4.97v3l-1-.02v-2.97zm.02-4.97v2.98h-1v-2.98zm0-4.97v2.97h-1v-2.98zm0-4.98v2.98h-1v-2.98zm0-4.98v3h-1v-3zm0-4.97v2.98h-1v-2.98zm0-4.97v2.98h-1v-2.98zm0-4.97v2.98h-1v-2.97zm0-4.97v2.98h-1v-2.98zm0-4.98v3h-1v-3zm0-4.97v3h-1v-3zm.02-4.96v2.98h-1v-2.98zm0-4.97v2.98h-1v-2.98zm0-4.97v2.98h-1v-3zm0-4.98v3h-1v-3zm0-4.97v2.98h-1v-2.98zm0-4.97v2.98h-1v-2.98zm0-4.97v3h-1v-3zm0-4.97v3h-1v-3zm0-4.97v3h-1v-3zm0-4.97v2.97h-1v-2.98zm0-4.98v2.98h-1v-2.98zm.02-4.97v2.98h-1v-2.98zm0-4.98v3h-1v-3zm0-4.97v3h-1v-3zm0-4.97v2.98h-1v-2.97zm0-4.97v2.98h-1v-2.98zm0-4.97v2.97h-1v-2.98zm0-5v3h-1v-3zm0-4.96v3l-1-.02v-2.98zm.32-4.5l-.1.26-.2.82v1.43h-1V395l.23-1 .15-.35zm2.53-2.9l-.64.4-.65.57-.5.6-.75-.66.54-.64.78-.66.7-.44zm4.1-.64h-1.5l-.87.07-.28.07-.24-.98.36-.08 1-.08h1.52zm108.66 0h-1.5v-1h1.5zm-3.5 0h-3v-1h3zm-5 0h-3v-1h3zm-5 0h-3.02v-1h3zm-5.02 0h-3v-1h3zm-5 0h-3v-1h3zm-5.02 0h-.6v-1h.6z" stroke="#3a414a" stroke-width=".05" fill="#3a414a"/><path d="M944.3 390v.4l.02.1h-.52v-1h.52z" fill="#3a414a"/><path d="M944.33 390v.53h-.56v-1.05h.58zm-.5-.48v.96h.46v-.1l-.02-.4.02-.46z" stroke="#3a414a" stroke-width=".05" fill="#3a414a"/><path d="M726.85 594.64L712.58 590l14.27-4.64z" fill="#3a414a"/><path d="M727.35 595.32L710.97 590l16.38-5.32zM714.2 590l12.15 3.95v-7.9z" stroke="#3a414a" stroke-width=".05" fill="#3a414a"/><use xlink:href="#x" transform="matrix(1,0,0,1,836.7982711246949,379.3333333333333) translate(0 14.222222222222223)"/><path d="M839.75 59.75c0 10.9-8.84 19.75-19.75 19.75-10.9 0-19.75-8.84-19.75-19.75C800.25 48.85 809.1 40 820 40c10.9 0 19.75 8.84 19.75 19.75z" stroke="#3a414a" fill="#fff"/><path d="M820 79.5v49.3a20.7 20.7 0 0 0 3.2 11.07L860 198m-40-63.2L780 198m0-98.75h80" stroke="#3a414a" fill="none"/><path d="M780 46a6 6 0 0 1 6-6h68a6 6 0 0 1 6 6v168a6 6 0 0 1-6 6h-68a6 6 0 0 1-6-6z" fill="none"/><use xlink:href="#C" transform="matrix(1,0,0,1,700,198) translate(90.98765432098766 17.77777777777778)"/><path d="M630.47 284V136a6 6 0 0 1 6-6h182.56" stroke="#3a414a" fill="none"/><path d="M630.97 284.52l-.5-.02h-.5v-.5h1z" stroke="#3a414a" stroke-width=".05" fill="#3a414a"/><path d="M819.02 130h3.5" stroke="#3a414a" fill="none"/><path d="M400.95 899.75c0 10.9-8.84 19.75-19.75 19.75-10.9 0-19.75-8.84-19.75-19.75 0-10.9 8.84-19.75 19.75-19.75 10.9 0 19.75 8.84 19.75 19.75z" stroke="#3a414a" fill="#fff"/><path d="M381.2 919.5v49.3a20.7 20.7 0 0 0 3.2 11.07l36.8 58.13m-40-63.2l-40 63.2m0-98.75h80" stroke="#3a414a" fill="none"/><path d="M341.2 886a6 6 0 0 1 6-6h68a6 6 0 0 1 6 6v168a6 6 0 0 1-6 6h-68a6 6 0 0 1-6-6z" fill="none"/><use xlink:href="#a" transform="matrix(1,0,0,1,261.2017978535381,1038) translate(29.93827160493828 17.77777777777778)"/><use xlink:href="#b" transform="matrix(1,0,0,1,261.2017978535381,1038) translate(101.48148148148148 17.77777777777778)"/><use xlink:href="#D" transform="matrix(1,0,0,1,261.2017978535381,1038) translate(76.91358024691358 44.44444444444444)"/><path d="M558.53 970h-176.3" stroke="#3a414a" fill="none"/><path d="M559.03 970v.5h-.5v-1h.52z" stroke="#3a414a" stroke-width=".05" fill="#3a414a"/><path d="M382.25 970h-3.5M380.24 970H276a6 6 0 0 1-6-6V606a6 6 0 0 1 6-6h87.62M380.22 970h3.52" stroke="#3a414a" fill="none"/><path d="M378.38 600l-14.26 4.64v-9.28z" stroke="#3a414a" fill="#3a414a"/><path d="M1099.9 730c0 33.14-35.83 60-80 60-44.2 0-80-26.86-80-60s35.8-60 80-60c44.17 0 80 26.86 80 60z" stroke="#3a414a" fill="#fff"/><use xlink:href="#E" transform="matrix(1,0,0,1,939.8872272333053,670) translate(29.07999999999999 51.9)"/><use xlink:href="#F" transform="matrix(1,0,0,1,939.8872272333053,670) translate(25.029999999999994 73.5)"/><path d="M938.9 729.5v1h-1.5v-1zm-79.56-.05v1h-.95v-1zm-2.93 0v1h-2.95v-1zm-4.93 0v1h-2.96v-1zm-4.93 0v1h-2.97v-1zm-4.94-.02v1h-2.97v-1zm-4.94 0v1h-2.97v-1zm-7.18-.2l.82.2h1.42v1h-1.54l-1-.25-.35-.14.38-.92zm-2.75-2l.56.66.57.48-.65.76-.64-.54-.66-.78-.44-.7.85-.54zm-1.05-3.25l.07.88.06.28-.96.24-.08-.36-.08-1v-1.5h1zm0-3.45h-1v-2.98h1zm0-4.96h-1v-2.98h1zm0-4.96h-1v-2.96h1zm0-4.95h-1l-.02-2.97h1zm-.02-4.96h-1v-2.98h1zm0-4.97h-1v-2.97h1zm0-4.96h-1v-2.97h1zm0-4.96h-1v-2.96h1zm0-4.95h-1v-2.97h1zm0-4.95h-1v-2.98h1zm0-4.96h-1l-.02-2.98h1zm-.02-4.96h-1V663h1zm0-4.96h-1v-2.98h1zm0-4.96h-1v-2.98h1zm0-4.96h-1v-2.98h1zm0-4.96h-1v-2.97h1zm0-4.96h-1v-2.97h1zm0-4.96h-1l-.02-2.97h1zm-.02-4.96h-1v-2.97h1zm0-4.96h-1v-2.97h1zm0-4.96h-1v-2.97h1zm0-4.95h-1v-3h1zm0-4.97h-1v-2.98h1zm0-4.96h-1v-2.98h1zm0-4.96h-1l-.02-2.97h1zm-.26-7.5l.24 1v1.55h-1v-1.43l-.2-.82-.1-.27.92-.38zm-2.36-3.26l.77.66.55.64-.76.65-.5-.6-.65-.55-.64-.4.52-.85zm-2.8-1.16l.35.08-.23.98-.28-.07-.88-.07h-1.5v-1h1.54zm-91.32.92h-1.53v-1h1.53zm5.1 0h-3.06v-1h3.06zm5.1 0h-3.06v-1h3.06zm5.1 0h-3.06v-1h3.06zm5.1 0h-3.05v-1h3.06zm5.1 0h-3.05v-1h3.06zm5.1 0h-3.05v-1h3.06zm5.1 0h-3.05v-1h3.06zm5.1 0h-3.05v-1h3.06zm5.1 0h-3.05v-1h3.06zm5.12 0h-3.07v-1h3.07zm5.1 0h-3.06v-1H785zm5.1 0h-3.06v-1h3.06zm5.1 0h-3.06v-1h3.06zm5.1 0h-3.06v-1h3.06zm5.1 0h-3.06v-1h3.06zm5.1 0h-3.06v-1h3.06zm5.1 0h-3.06v-1h3.07z" stroke="#3a414a" stroke-width=".05" fill="#3a414a"/><path d="M726.85 594.64L712.58 590l14.27-4.64z" fill="#3a414a"/><path d="M727.35 595.32L710.97 590l16.38-5.32zM714.2 590l12.15 3.95v-7.9z" stroke="#3a414a" stroke-width=".05" fill="#3a414a"/><path d="M939.4 730v.5h-.53v-1h.53z" fill="#3a414a"/><path d="M939.4 730v.4l.02.13h-.57v-1.05h.58zm-.5-.48v.96h.47v-.96z" stroke="#3a414a" stroke-width=".05" fill="#3a414a"/><use xlink:href="#x" transform="matrix(1,0,0,1,859.33667633872,719.3333333333334) translate(0.005000000000002558 14.222222222222223)"/><path d="M1480 520c0 33.14-35.82 60-80 60s-80-26.86-80-60 35.82-60 80-60 80 26.86 80 60z" stroke="#3a414a" fill="#fff"/><use xlink:href="#G" transform="matrix(1,0,0,1,1320,460) translate(25.604999999999997 51.9)"/><use xlink:href="#n" transform="matrix(1,0,0,1,1320,460) translate(105.405 51.9)"/><use xlink:href="#H" transform="matrix(1,0,0,1,1320,460) translate(12.104999999999999 73.5)"/><use xlink:href="#I" transform="matrix(1,0,0,1,1320,460) translate(75.055 73.5)"/><path d="M1480.47 660c0 33.14-35.82 60-80 60-44.2 0-80-26.86-80-60s35.8-60 80-60c44.18 0 80 26.86 80 60z" stroke="#3a414a" fill="#fff"/><use xlink:href="#J" transform="matrix(1,0,0,1,1320.4677186328363,600) translate(40.57999999999999 31.410000000000004)"/><use xlink:href="#K" transform="matrix(1,0,0,1,1320.4677186328363,600) translate(37.05499999999999 53.01)"/><use xlink:href="#L" transform="matrix(1,0,0,1,1320.4677186328363,600) translate(40.10499999999999 74.61)"/><use xlink:href="#v" transform="matrix(1,0,0,1,1320.4677186328363,600) translate(105.95500000000001 74.61)"/><use xlink:href="#M" transform="matrix(1,0,0,1,1320.4677186328363,600) translate(52.529999999999994 96.21000000000001)"/><path d="M1128.08 590.5h-1.46v-1h1.46zm83.14-.46l-.35.14-1 .25h-1.53v-1h1.4l.82-.2.27-.1zm3.34-2.93l-.43.72-.67.78-.64.54-.65-.76.58-.5.56-.65.4-.65zm.8-4.57v1.5l-.07 1-.1.35-.97-.24.07-.28.07-.88v-1.45zm0-4.9v2.93h-1v-2.95zm.02-4.93v2.95h-1v-2.95zm0-4.9v2.94h-1v-2.95zm0-4.92v2.95h-1v-2.95zm.02-4.9v2.94h-1v-2.95zm0-4.92V556h-1v-2.94zm0-4.9v2.93h-1v-2.95zm.02-4.93v2.95h-1v-2.95zm0-4.9v2.94h-1v-2.95zm0-4.92v2.96h-1v-2.95zm.02-4.9v2.95h-1v-2.95zm.3-4.47l-.1.27-.2.82v1.42h-1V525l.24-1 .14-.35zm2.54-2.88l-.65.4-.65.56-.5.6-.76-.66.55-.64.77-.66.72-.44zm4.06-.65h-1.45l-.9.07-.28.07-.23-.98.35-.08 1-.08h1.5zm96.66 0h-1.47v-1h1.47zm-3.43 0h-2.95v-1h2.95zm-4.9 0h-2.96v-1h2.96zm-4.92 0h-2.94v-1h2.95zm-4.9 0h-2.95v-1h2.95zm-4.9 0h-2.96v-1h2.94zm-4.92 0h-2.94v-1h2.93zm-4.9 0h-2.95v-1h2.94zm-4.9 0h-2.96v-1h2.95zm-4.92 0h-2.93v-1h2.94zm-4.9 0h-2.94v-1h2.94zm-4.9 0h-2.95v-1h2.95zm-4.9 0h-2.95v-1h2.94zm-4.92 0h-2.94v-1h2.94zm-4.9 0h-2.95v-1h2.95zm-4.9 0h-2.95v-1h2.94zm-4.92 0h-2.94v-1h2.94zm-4.9 0h-2.95v-1h2.96zm-4.9 0h-2.95v-1h2.95zm-4.92 0h-2.94v-1h2.94z" stroke="#3a414a" stroke-width=".05" fill="#3a414a"/><path d="M1319.5 520v.5h-.5v-1h.52z" fill="#3a414a"/><path d="M1319.52 520v.53h-.56v-1.05h.58zm-.5-.48v.96h.46v-.96z" stroke="#3a414a" stroke-width=".05" fill="#3a414a"/><path d="M1126.1 594.64l-14.25-4.64 14.26-4.64z" fill="#3a414a"/><path d="M1126.6 595.32l-16.37-5.32 16.38-5.32zm-13.13-5.32l12.14 3.95v-7.9zM1319.47 660.5H1318v-1h1.47zm-3.45 0h-2.95v-1h2.95zm-4.9 0h-2.96v-1h2.95zm-4.93 0h-2.96v-1h2.95zm-4.93 0h-2.95v-1h2.95zm-4.92 0h-2.95v-1h2.95zm-4.92 0h-2.95v-1h2.95zm-4.92 0h-2.94v-1h2.95zm-4.9 0h-2.96v-1h2.96zm-4.92 0h-2.95v-1h2.95zm-4.92 0h-2.95v-1h2.96zm-4.92 0h-2.95v-1h2.94zm-4.92 0h-2.95v-1h2.95zm-4.92 0h-2.95v-1h2.95zm-4.9 0h-2.97v-1h2.96zm-4.93 0h-2.95v-1h2.95zm-4.92 0h-2.95v-1h2.95zm-4.92 0h-2.95v-1h2.95zm-4.92 0h-2.94v-1h2.95zm-4.9 0h-2.96v-1h2.95zm-7.26-1.07l.88.07h1.45v1h-1.5l-1-.08-.35-.08.24-.98zm-3.03-1.54l.67.55.65.4-.53.85-.72-.44-.78-.66-.54-.64.76-.65zm-1.53-3.02l.2.82.1.27-.9.38-.15-.34-.25-1v-1.53h1zm0-3.38h-1v-2.95h1zm0-4.9h-1v-2.96h1zm0-4.92h-1l-.02-2.95h1zm-.02-4.9h-1v-2.96h1zm0-4.93h-1v-2.94h1zm0-4.9h-1l-.02-2.95h1zm-.02-4.92h-1v-2.95h1zm0-4.9h-1v-2.96h1zm0-4.92h-1v-2.94h1zm-.02-4.9h-1v-2.95h1zm0-4.92h-1v-2.94h1zm-.08-7.4l.08 1v1.5h-1V596l-.07-.88-.07-.28.97-.24zm-1.82-3.58l.66.78.44.7-.85.54-.4-.65-.56-.66-.6-.48.66-.76zm-3.6-1.83l1 .25.35.14-.38.92-.27-.1-.82-.2h-1.4v-1zm-82-.07v1h-1.5l.02-1z" stroke="#3a414a" stroke-width=".05" fill="#3a414a"/><path d="M1319.97 660v.5h-.52v-1h.53z" fill="#3a414a"/><path d="M1320 660v.53h-.57v-1.05h.58zm-.52-.48v.96h.47v-.96z" stroke="#3a414a" stroke-width=".05" fill="#3a414a"/><path d="M1126.1 594.64l-14.25-4.64 14.26-4.64z" fill="#3a414a"/><path d="M1126.6 595.32l-16.37-5.32 16.38-5.32zm-13.13-5.32l12.14 3.95v-7.9z" stroke="#3a414a" stroke-width=".05" fill="#3a414a"/><use xlink:href="#x" transform="matrix(1,0,0,1,1129.158479590454,579.3333333333334) translate(0.005000000000002558 14.222222222222223)"/><path d="M1060 970c0 33.14-35.82 60-80 60s-80-26.86-80-60 35.82-60 80-60 80 26.86 80 60z" stroke="#3a414a" fill="#fff"/><use xlink:href="#N" transform="matrix(1,0,0,1,900,910) translate(21.154999999999994 63.15)"/><use xlink:href="#O" transform="matrix(1,0,0,1,900,910) translate(83.005 63.15)"/><path d="M722.56 970.5h-2.03v-1h2.03zm8.13 0h-4.07v-1h4.06zm8.12 0h-4.06v-1h4.06zm8.13 0h-4.06v-1h4.05zm8.13 0h-4.06v-1h4.06zm89.42 0h-4.06v-1h4.06zm8.13 0h-4.06v-1h4.06zm8.13 0h-4.06v-1h4.06zm8.13 0h-4.07v-1h4.06zm8.12 0h-4.07v-1h4.07zm6.1 0h-2.04v-1h2.04z" stroke="#3a414a" stroke-width=".05" fill="#3a414a"/><path d="M720.55 970.5h-.53v-1h.53z" fill="#3a414a"/><path d="M720.57 970.52H720v-1.04h.57zm-.52-1v.96h.47v-.96z" stroke="#3a414a" stroke-width=".05" fill="#3a414a"/><path d="M897.88 970l-14.26 4.64v-9.28z" fill="#3a414a"/><path d="M899.5 970l-16.38 5.32v-10.64zm-15.38 3.95l12.14-3.95-12.14-3.95z" stroke="#3a414a" stroke-width=".05" fill="#3a414a"/><use xlink:href="#P" transform="matrix(1,0,0,1,755.925925925926,959.3333333333334) translate(0.005000000000002558 14.222222222222223)"/><path d="M1000.22 1098.75c0 10.9-8.84 19.75-19.75 19.75-10.9 0-19.75-8.84-19.75-19.75 0-10.9 8.84-19.75 19.75-19.75 10.9 0 19.75 8.84 19.75 19.75z" stroke="#3a414a" fill="#fff"/><path d="M980.47 1118.5v49.3a20.7 20.7 0 0 0 3.2 11.07l36.8 58.13m-40-63.2l-40 63.2m0-98.75h80" stroke="#3a414a" fill="none"/><path d="M940.47 1085a6 6 0 0 1 6-6h68a6 6 0 0 1 6 6v168a6 6 0 0 1-6 6h-68a6 6 0 0 1-6-6z" fill="none"/><use xlink:href="#Q" transform="matrix(1,0,0,1,860.4677186328363,1236.9999914460595) translate(73.83024691358025 14.11111111111111)"/><path d="M1919.75 479.75c0 10.9-8.84 19.75-19.75 19.75-10.9 0-19.75-8.84-19.75-19.75 0-10.9 8.84-19.75 19.75-19.75 10.9 0 19.75 8.84 19.75 19.75z" stroke="#3a414a" fill="#fff"/><path d="M1900 499.5v49.3a20.7 20.7 0 0 0 3.2 11.07L1940 618m-40-63.2l-40 63.2m0-98.75h80" stroke="#3a414a" fill="none"/><path d="M1860 466a6 6 0 0 1 6-6h68a6 6 0 0 1 6 6v168a6 6 0 0 1-6 6h-68a6 6 0 0 1-6-6z" fill="none"/><use xlink:href="#R" transform="matrix(1,0,0,1,1780,618) translate(85.4753086419753 14.11111111111111)"/><path d="M1480.47 260c0 33.14-35.82 60-80 60-44.2 0-80-26.86-80-60s35.8-60 80-60c44.18 0 80 26.86 80 60z" stroke="#3a414a" fill="#fff"/><use xlink:href="#S" transform="matrix(1,0,0,1,1320.4677186328363,200) translate(20.07999999999999 51.9)"/><use xlink:href="#i" transform="matrix(1,0,0,1,1320.4677186328363,200) translate(40.05499999999999 73.5)"/><path d="M1480.47 390c0 33.14-35.82 60-80 60-44.2 0-80-26.86-80-60s35.8-60 80-60c44.18 0 80 26.86 80 60z" stroke="#3a414a" fill="#fff"/><use xlink:href="#T" transform="matrix(1,0,0,1,1320.4677186328363,330) translate(42.05499999999999 63.15)"/><path d="M1480.47 970c0 33.14-35.82 60-80 60-44.2 0-80-26.86-80-60s35.8-60 80-60c44.18 0 80 26.86 80 60z" stroke="#3a414a" fill="#fff"/><use xlink:href="#S" transform="matrix(1,0,0,1,1320.4677186328363,910) translate(20.079999999999995 43.410000000000004)"/><use xlink:href="#u" transform="matrix(1,0,0,1,1320.4677186328363,910) translate(40.55499999999999 65.01)"/><use xlink:href="#v" transform="matrix(1,0,0,1,1320.4677186328363,910) translate(105.505 65.01)"/><use xlink:href="#w" transform="matrix(1,0,0,1,1320.4677186328363,910) translate(35.03 86.61000000000001)"/><path d="M1062.5 970.5h-1.5v-1h1.5zm4.94 0h-2.97v-1h2.97zm4.95 0h-2.98v-1h2.97zm4.94 0h-2.97v-1h2.97zm4.95 0h-2.98v-1h2.97zm4.94 0h-2.97v-1h2.97zm4.95 0h-2.98v-1h2.97zm4.94 0h-2.97v-1h2.97zm4.95 0h-2.98v-1h2.97zm4.94 0h-2.97v-1h2.97zm4.95 0H1109v-1h2.97zm4.94 0h-2.97v-1h2.97zm4.95 0h-2.98v-1h2.97zm4.94 0h-2.97v-1h2.97zm4.95 0h-2.98v-1h2.97zm4.95 0h-2.97v-1h2.97zm4.95 0h-2.97v-1h2.97zm4.95 0h-2.97v-1h2.97zm4.95 0h-2.97v-1h2.97zm4.95 0h-2.97v-1h2.97zm4.95 0h-2.97v-1h2.97zm2.3 0h-.32v-1h.3zm86.8 0h-2.96v-1h2.97zm4.96 0h-2.97v-1h2.96zm4.95 0h-2.96v-1h2.97zm4.96 0h-2.97v-1h2.96zm4.95 0h-2.96v-1h2.97zm4.96 0h-2.97v-1h2.96zm4.96 0h-2.97v-1h2.97zm4.95 0h-2.97v-1h2.97zm4.95 0h-2.97v-1h2.97zm4.95 0h-2.97v-1h2.97zm4.95 0h-2.97v-1h2.97zm3.46 0h-1.48v-1h1.48z" stroke="#3a414a" stroke-width=".05" fill="#3a414a"/><path d="M1061 970.5h-.52l.02-.5v-.5h.5z" fill="#3a414a"/><path d="M1061.04 970.52h-.58l.02-.5v-.54h.56zm-.52-1v.96h.47v-.96z" stroke="#3a414a" stroke-width=".05" fill="#3a414a"/><path d="M1318.35 970l-14.27 4.64v-9.28z" fill="#3a414a"/><path d="M1319.97 970l-16.4 5.32v-10.64zm-15.4 3.95l12.16-3.95-12.15-3.95z" stroke="#3a414a" stroke-width=".05" fill="#3a414a"/><use xlink:href="#P" transform="matrix(1,0,0,1,1163.7925925925924,959.3333333333334) translate(0.005000000000002558 14.222222222222223)"/><path d="M1760 660c0 33.14-35.82 60-80 60s-80-26.86-80-60 35.82-60 80-60 80 26.86 80 60z" stroke="#3a414a" fill="#fff"/><g><use xlink:href="#S" transform="matrix(1,0,0,1,1600,600) translate(20.079999999999995 43.410000000000004)"/><use xlink:href="#U" transform="matrix(1,0,0,1,1600,600) translate(25.629999999999995 65.01)"/><use xlink:href="#L" transform="matrix(1,0,0,1,1600,600) translate(54.58 65.01)"/><use xlink:href="#v" transform="matrix(1,0,0,1,1600,600) translate(120.43 65.01)"/><use xlink:href="#M" transform="matrix(1,0,0,1,1600,600) translate(52.53 86.61000000000001)"/></g><path d="M1483 660.5h-1.53v-1h1.52zm5.07 0h-3.04v-1h3.04zm3.86 0h-1.82v-1h1.83zm87.63 0h-3.05v-1h3.06zm3.56 0h-1.53v-1h1.52z" stroke="#3a414a" stroke-width=".05" fill="#3a414a"/><path d="M1481.48 660.5h-.53l.02-.5v-.5h.5z" fill="#3a414a"/><path d="M1481.5 660.52h-.57v-1.04h.58zm-.5-1v.5l-.02.46h.48v-.96z" stroke="#3a414a" stroke-width=".05" fill="#3a414a"/><path d="M1597.88 660l-14.26 4.64v-9.28z" fill="#3a414a"/><path d="M1599.5 660l-16.38 5.32v-10.64zm-15.38 3.95l12.14-3.95-12.14-3.95z" stroke="#3a414a" stroke-width=".05" fill="#3a414a"/><g><use xlink:href="#P" transform="matrix(1,0,0,1,1491.925925925926,649.3333333333334) translate(0.005000000000002558 14.222222222222223)"/></g><path d="M1899 538.93h-202.77a6 6 0 0 1-6-6V266a6 6 0 0 0-6-6h-202.76M1899 538.93h3.5" stroke="#3a414a" fill="none"/><path d="M1481.48 260.5h-.53l.02-.5v-.5h.5z" stroke="#3a414a" stroke-width=".05" fill="#3a414a"/><path d="M1899 538.93h-63a6 6 0 0 0-6 6V654a6 6 0 0 1-6 6h-63M1899 538.93h3.5" stroke="#3a414a" fill="none"/><path d="M1761 660.5h-.52l.02-.5v-.5h.5z" stroke="#3a414a" stroke-width=".05" fill="#3a414a"/><path d="M1830.5 540.5l-.07 424.5-.25 1-.4.95-.52.87-.66.78-.78.66-.87.53-.94.38-.98.24-1 .08h-342.55v-1h342.5l.9-.07.83-.2.8-.33.73-.45.66-.56.55-.67.45-.73.33-.8.2-.82.07-424.38z" stroke="#3a414a" stroke-width=".05" fill="#3a414a"/><path d="M1481.48 970.5h-.53l.02-.5v-.5h.5z" fill="#3a414a"/><path d="M1481.5 970.52h-.57v-1.04h.58zm-.5-1v.5l-.02.46h.48v-.96zM1830.5 540.5h-1v-.5h1z" stroke="#3a414a" stroke-width=".05" fill="#3a414a"/><path d="M1481.47 390h202.76a6 6 0 0 1 6 6v136.93a6 6 0 0 0 6 6H1899" stroke="#3a414a" fill="none"/><path d="M1481.48 390.5h-.53l.02-.5v-.5h.5z" stroke="#3a414a" stroke-width=".05" fill="#3a414a"/><path d="M1899 538.93h3.5" stroke="#3a414a" fill="none"/><path d="M1107.3 390.5h-1.5v-1h1.5zm4.94 0h-2.97v-1h2.97zm4.94 0h-2.97v-1h2.98zm4.95 0h-2.97v-1h2.97zm4.94 0h-2.97v-1h2.97zm4.94 0h-2.95v-1h2.96zm4.96 0H1134v-1h2.96zm4.94 0h-2.96v-1h2.96zm4.95 0h-2.97v-1h2.97zm2.75 0h-.77v-1h.77zm86.25 0h-2.97v-1h2.97zm4.94 0h-2.98v-1h2.97zm4.93 0h-2.96v-1h2.96zm4.95 0h-2.97v-1h2.98zm4.94 0h-2.96v-1h2.96zm4.95 0h-2.97v-1h2.97zm4.94 0h-2.95v-1h2.96zm4.96 0h-2.97v-1h2.96zm4.94 0h-2.97v-1h2.97zm4.95 0h-2.97v-1h2.97zm4.94 0h-2.98v-1h2.97zm4.93 0h-2.96v-1h2.96zm4.95 0h-2.97v-1h2.98zm4.94 0h-2.96v-1h2.96zm3.46 0h-1.48v-1h1.48z" stroke="#3a414a" stroke-width=".05" fill="#3a414a"/><path d="M1105.82 390.5h-.53v-1h.52z" fill="#3a414a"/><path d="M1105.85 390.52h-.58v-1.04h.58zm-.52-1v.96h.47v-.96z" stroke="#3a414a" stroke-width=".05" fill="#3a414a"/><path d="M1318.35 390l-14.27 4.64v-9.28z" fill="#3a414a"/><path d="M1319.97 390l-16.4 5.32v-10.64zm-15.4 3.95l12.16-3.95-12.15-3.95z" stroke="#3a414a" stroke-width=".05" fill="#3a414a"/><g><use xlink:href="#P" transform="matrix(1,0,0,1,1149.5956523074576,379.3333333333333) translate(0.005000000000002558 14.222222222222223)"/></g><path d="M1107.3 260.5h-1.5v-1h1.5zm4.94 0h-2.97v-1h2.97zm4.94 0h-2.97v-1h2.98zm4.95 0h-2.97v-1h2.97zm4.94 0h-2.97v-1h2.97zm4.94 0h-2.95v-1h2.96zm4.96 0H1134v-1h2.96zm4.94 0h-2.96v-1h2.96zm4.95 0h-2.97v-1h2.97zm4.94 0h-2.97v-1h2.96zm4.94 0h-2.97v-1h2.97zm2.25 0h-.3v-1h.3zm86.73 0h-2.96v-1h2.96zm4.95 0h-2.97v-1h2.98zm4.94 0h-2.96v-1h2.96zm4.95 0h-2.97v-1h2.97zm4.94 0h-2.95v-1h2.96zm4.96 0h-2.97v-1h2.96zm4.94 0h-2.97v-1h2.97zm4.95 0h-2.97v-1h2.97zm4.94 0h-2.98v-1h2.97zm4.93 0h-2.96v-1h2.96zm4.95 0h-2.97v-1h2.98zm4.94 0h-2.96v-1h2.96zm3.46 0h-1.48v-1h1.48z" stroke="#3a414a" stroke-width=".05" fill="#3a414a"/><path d="M1105.82 260.5h-.53v-1h.52z" fill="#3a414a"/><path d="M1105.85 260.52h-.58v-1.04h.58zm-.52-1v.96h.47v-.96z" stroke="#3a414a" stroke-width=".05" fill="#3a414a"/><path d="M1318.35 260l-14.27 4.64v-9.28z" fill="#3a414a"/><path d="M1319.97 260l-16.4 5.32v-10.64zm-15.4 3.95l12.16-3.95-12.15-3.95z" stroke="#3a414a" stroke-width=".05" fill="#3a414a"/><g><use xlink:href="#P" transform="matrix(1,0,0,1,1158.9925925925927,249.33333333333334) translate(0.005000000000002558 14.222222222222223)"/></g><path d="M980.47 1078v-47" stroke="#3a414a" fill="none"/><path d="M980.97 1078.56l-.48-.06h-.53v-.5h1zM980.97 1031h-1v-.5h.99z" stroke="#3a414a" stroke-width=".05" fill="#3a414a"/><defs><path fill="#3a414a" d="M232-93c-1 65-40 97-104 97C67 4 28-28 28-90v-158h33c8 89-33 224 67 224 102 0 64-133 71-224h33v155" id="V"/><path fill="#3a414a" d="M59-47c-2 24 18 29 38 22v24C64 9 27 4 27-40v-127H5v-23h24l9-43h21v43h35v23H59v120" id="W"/><path fill="#3a414a" d="M100-194c63 0 86 42 84 106H49c0 40 14 67 53 68 26 1 43-12 49-29l28 8c-11 28-37 45-77 45C44 4 14-33 15-96c1-61 26-98 85-98zm52 81c6-60-76-77-97-28-3 7-6 17-6 28h103" id="X"/><path fill="#3a414a" d="M117-194c89-4 53 116 60 194h-32v-121c0-31-8-49-39-48C34-167 62-67 57 0H25l-1-190h30c1 10-1 24 2 32 11-22 29-35 61-36" id="Y"/><g id="a"><use transform="matrix(0.06172839506172839,0,0,0.06172839506172839,0,0)" xlink:href="#V"/><use transform="matrix(0.06172839506172839,0,0,0.06172839506172839,15.987654320987653,0)" xlink:href="#W"/><use transform="matrix(0.06172839506172839,0,0,0.06172839506172839,22.160493827160494,0)" xlink:href="#X"/><use transform="matrix(0.06172839506172839,0,0,0.06172839506172839,34.50617283950617,0)" xlink:href="#Y"/><use transform="matrix(0.06172839506172839,0,0,0.06172839506172839,46.85185185185185,0)" xlink:href="#W"/><use transform="matrix(0.06172839506172839,0,0,0.06172839506172839,53.02469135802469,0)" xlink:href="#X"/></g><path fill="#3a414a" d="M141-36C126-15 110 5 73 4 37 3 15-17 15-53c-1-64 63-63 125-63 3-35-9-54-41-54-24 1-41 7-42 31l-33-3c5-37 33-52 76-52 45 0 72 20 72 64v82c-1 20 7 32 28 27v20c-31 9-61-2-59-35zM48-53c0 20 12 33 32 33 41-3 63-29 60-74-43 2-92-5-92 41" id="Z"/><path fill="#3a414a" d="M84 4C-5 8 30-112 23-190h32v120c0 31 7 50 39 49 72-2 45-101 50-169h31l1 190h-30c-1-10 1-25-2-33-11 22-28 36-60 37" id="aa"/><path fill="#3a414a" d="M24-231v-30h32v30H24zM24 0v-190h32V0H24" id="ab"/><path fill="#3a414a" d="M96-169c-40 0-48 33-48 73s9 75 48 75c24 0 41-14 43-38l32 2c-6 37-31 61-74 61-59 0-76-41-82-99-10-93 101-131 147-64 4 7 5 14 7 22l-32 3c-4-21-16-35-41-35" id="ac"/><path fill="#3a414a" d="M100-194c62-1 85 37 85 99 1 63-27 99-86 99S16-35 15-95c0-66 28-99 85-99zM99-20c44 1 53-31 53-75 0-43-8-75-51-75s-53 32-53 75 10 74 51 75" id="ad"/><g id="b"><use transform="matrix(0.06172839506172839,0,0,0.06172839506172839,0,0)" xlink:href="#Z"/><use transform="matrix(0.06172839506172839,0,0,0.06172839506172839,12.345679012345679,0)" xlink:href="#aa"/><use transform="matrix(0.06172839506172839,0,0,0.06172839506172839,24.691358024691358,0)" xlink:href="#W"/><use transform="matrix(0.06172839506172839,0,0,0.06172839506172839,30.864197530864196,0)" xlink:href="#X"/><use transform="matrix(0.06172839506172839,0,0,0.06172839506172839,43.20987654320987,0)" xlink:href="#Y"/><use transform="matrix(0.06172839506172839,0,0,0.06172839506172839,55.55555555555555,0)" xlink:href="#W"/><use transform="matrix(0.06172839506172839,0,0,0.06172839506172839,61.72839506172839,0)" xlink:href="#ab"/><use transform="matrix(0.06172839506172839,0,0,0.06172839506172839,66.60493827160494,0)" xlink:href="#ac"/><use transform="matrix(0.06172839506172839,0,0,0.06172839506172839,77.71604938271605,0)" xlink:href="#Z"/><use transform="matrix(0.06172839506172839,0,0,0.06172839506172839,90.06172839506173,0)" xlink:href="#W"/><use transform="matrix(0.06172839506172839,0,0,0.06172839506172839,96.23456790123457,0)" xlink:href="#ad"/></g><path fill="#3a414a" d="M135-143c-3-34-86-38-87 0 15 53 115 12 119 90S17 21 10-45l28-5c4 36 97 45 98 0-10-56-113-15-118-90-4-57 82-63 122-42 12 7 21 19 24 35" id="ae"/><path fill="#3a414a" d="M85-194c31 0 48 13 60 33l-1-100h32l1 261h-30c-2-10 0-23-3-31C134-8 116 4 85 4 32 4 16-35 15-94c0-66 23-100 70-100zm9 24c-40 0-46 34-46 75 0 40 6 74 45 74 42 0 51-32 51-76 0-42-9-74-50-73" id="af"/><path fill="#3a414a" d="M114-163C36-179 61-72 57 0H25l-1-190h30c1 12-1 29 2 39 6-27 23-49 58-41v29" id="ag"/><g id="c"><use transform="matrix(0.06172839506172839,0,0,0.06172839506172839,0,0)" xlink:href="#ae"/><use transform="matrix(0.06172839506172839,0,0,0.06172839506172839,11.11111111111111,0)" xlink:href="#W"/><use transform="matrix(0.06172839506172839,0,0,0.06172839506172839,17.28395061728395,0)" xlink:href="#Z"/><use transform="matrix(0.06172839506172839,0,0,0.06172839506172839,29.629629629629626,0)" xlink:href="#Y"/><use transform="matrix(0.06172839506172839,0,0,0.06172839506172839,41.9753086419753,0)" xlink:href="#af"/><use transform="matrix(0.06172839506172839,0,0,0.06172839506172839,54.32098765432098,0)" xlink:href="#Z"/><use transform="matrix(0.06172839506172839,0,0,0.06172839506172839,66.66666666666666,0)" xlink:href="#ag"/><use transform="matrix(0.06172839506172839,0,0,0.06172839506172839,74.01234567901234,0)" xlink:href="#af"/></g><path d="M210-169c-67 3-38 105-44 169h-31v-121c0-29-5-50-35-48C34-165 62-65 56 0H25l-1-190h30c1 10-1 24 2 32 10-44 99-50 107 0 11-21 27-35 58-36 85-2 47 119 55 194h-31v-121c0-29-5-49-35-48" id="ah"/><path d="M100-194c62-1 85 37 85 99 1 63-27 99-86 99S16-35 15-95c0-66 28-99 85-99zM99-20c44 1 53-31 53-75 0-43-8-75-51-75s-53 32-53 75 10 74 51 75" id="ai"/><path d="M85-194c31 0 48 13 60 33l-1-100h32l1 261h-30c-2-10 0-23-3-31C134-8 116 4 85 4 32 4 16-35 15-94c0-66 23-100 70-100zm9 24c-40 0-46 34-46 75 0 40 6 74 45 74 42 0 51-32 51-76 0-42-9-74-50-73" id="aj"/><path d="M24-231v-30h32v30H24zM24 0v-190h32V0H24" id="ak"/><path d="M101-234c-31-9-42 10-38 44h38v23H63V0H32v-167H5v-23h27c-7-52 17-82 69-68v24" id="al"/><path d="M96-169c-40 0-48 33-48 73s9 75 48 75c24 0 41-14 43-38l32 2c-6 37-31 61-74 61-59 0-76-41-82-99-10-93 101-131 147-64 4 7 5 14 7 22l-32 3c-4-21-16-35-41-35" id="am"/><path d="M141-36C126-15 110 5 73 4 37 3 15-17 15-53c-1-64 63-63 125-63 3-35-9-54-41-54-24 1-41 7-42 31l-33-3c5-37 33-52 76-52 45 0 72 20 72 64v82c-1 20 7 32 28 27v20c-31 9-61-2-59-35zM48-53c0 20 12 33 32 33 41-3 63-29 60-74-43 2-92-5-92 41" id="an"/><path d="M114-163C36-179 61-72 57 0H25l-1-190h30c1 12-1 29 2 39 6-27 23-49 58-41v29" id="ao"/><path d="M100-194c63 0 86 42 84 106H49c0 40 14 67 53 68 26 1 43-12 49-29l28 8c-11 28-37 45-77 45C44 4 14-33 15-96c1-61 26-98 85-98zm52 81c6-60-76-77-97-28-3 7-6 17-6 28h103" id="ap"/><g id="d"><use transform="matrix(0.05,0,0,0.05,0,0)" xlink:href="#ah"/><use transform="matrix(0.05,0,0,0.05,14.950000000000001,0)" xlink:href="#ai"/><use transform="matrix(0.05,0,0,0.05,24.950000000000003,0)" xlink:href="#aj"/><use transform="matrix(0.05,0,0,0.05,34.95,0)" xlink:href="#ak"/><use transform="matrix(0.05,0,0,0.05,38.900000000000006,0)" xlink:href="#al"/><use transform="matrix(0.05,0,0,0.05,43.900000000000006,0)" xlink:href="#ak"/><use transform="matrix(0.05,0,0,0.05,47.85000000000001,0)" xlink:href="#am"/><use transform="matrix(0.05,0,0,0.05,56.85,0)" xlink:href="#an"/><use transform="matrix(0.05,0,0,0.05,66.85000000000001,0)" xlink:href="#ao"/><use transform="matrix(0.05,0,0,0.05,72.80000000000001,0)" xlink:href="#ap"/></g><path d="M115-194c55 1 70 41 70 98S169 2 115 4C84 4 66-9 55-30l1 105H24l-1-265h31l2 30c10-21 28-34 59-34zm-8 174c40 0 45-34 45-75s-6-73-45-74c-42 0-51 32-51 76 0 43 10 73 51 73" id="aq"/><path d="M135-143c-3-34-86-38-87 0 15 53 115 12 119 90S17 21 10-45l28-5c4 36 97 45 98 0-10-56-113-15-118-90-4-57 82-63 122-42 12 7 21 19 24 35" id="ar"/><path d="M59-47c-2 24 18 29 38 22v24C64 9 27 4 27-40v-127H5v-23h24l9-43h21v43h35v23H59v120" id="as"/><path d="M9 0v-24l116-142H16v-24h144v24L44-24h123V0H9" id="at"/><path d="M117-194c89-4 53 116 60 194h-32v-121c0-31-8-49-39-48C34-167 62-67 57 0H25l-1-190h30c1 10-1 24 2 32 11-22 29-35 61-36" id="au"/><g id="e"><use transform="matrix(0.05,0,0,0.05,0,0)" xlink:href="#ak"/><use transform="matrix(0.05,0,0,0.05,3.95,0)" xlink:href="#ah"/><use transform="matrix(0.05,0,0,0.05,18.900000000000002,0)" xlink:href="#aq"/><use transform="matrix(0.05,0,0,0.05,28.900000000000002,0)" xlink:href="#ai"/><use transform="matrix(0.05,0,0,0.05,38.900000000000006,0)" xlink:href="#ar"/><use transform="matrix(0.05,0,0,0.05,47.900000000000006,0)" xlink:href="#as"/><use transform="matrix(0.05,0,0,0.05,52.900000000000006,0)" xlink:href="#an"/><use transform="matrix(0.05,0,0,0.05,62.900000000000006,0)" xlink:href="#at"/><use transform="matrix(0.05,0,0,0.05,71.9,0)" xlink:href="#ak"/><use transform="matrix(0.05,0,0,0.05,75.85000000000001,0)" xlink:href="#ai"/><use transform="matrix(0.05,0,0,0.05,85.85000000000001,0)" xlink:href="#au"/><use transform="matrix(0.05,0,0,0.05,95.85000000000001,0)" xlink:href="#ak"/></g><path d="M84 4C-5 8 30-112 23-190h32v120c0 31 7 50 39 49 72-2 45-101 50-169h31l1 190h-30c-1-10 1-25-2-33-11 22-28 36-60 37" id="av"/><g id="f"><use transform="matrix(0.05,0,0,0.05,0,0)" xlink:href="#an"/><use transform="matrix(0.05,0,0,0.05,10,0)" xlink:href="#am"/><use transform="matrix(0.05,0,0,0.05,19,0)" xlink:href="#am"/><use transform="matrix(0.05,0,0,0.05,28,0)" xlink:href="#ai"/><use transform="matrix(0.05,0,0,0.05,38,0)" xlink:href="#av"/><use transform="matrix(0.05,0,0,0.05,48,0)" xlink:href="#au"/><use transform="matrix(0.05,0,0,0.05,58,0)" xlink:href="#as"/></g><g id="g"><use transform="matrix(0.05,0,0,0.05,0,0)" xlink:href="#ah"/><use transform="matrix(0.05,0,0,0.05,14.950000000000001,0)" xlink:href="#ai"/><use transform="matrix(0.05,0,0,0.05,24.950000000000003,0)" xlink:href="#aj"/><use transform="matrix(0.05,0,0,0.05,34.95,0)" xlink:href="#ak"/><use transform="matrix(0.05,0,0,0.05,38.900000000000006,0)" xlink:href="#al"/><use transform="matrix(0.05,0,0,0.05,43.900000000000006,0)" xlink:href="#ak"/><use transform="matrix(0.05,0,0,0.05,47.85000000000001,0)" xlink:href="#am"/><use transform="matrix(0.05,0,0,0.05,56.85,0)" xlink:href="#an"/></g><path d="M206 0h-36l-40-164L89 0H53L-1-190h32L70-26l43-164h34l41 164 42-164h31" id="aw"/><g id="h"><use transform="matrix(0.05,0,0,0.05,0,0)" xlink:href="#aq"/><use transform="matrix(0.05,0,0,0.05,10,0)" xlink:href="#an"/><use transform="matrix(0.05,0,0,0.05,20,0)" xlink:href="#ar"/><use transform="matrix(0.05,0,0,0.05,29,0)" xlink:href="#ar"/><use transform="matrix(0.05,0,0,0.05,38,0)" xlink:href="#aw"/><use transform="matrix(0.05,0,0,0.05,50.95,0)" xlink:href="#ai"/><use transform="matrix(0.05,0,0,0.05,60.95,0)" xlink:href="#ao"/><use transform="matrix(0.05,0,0,0.05,66.9,0)" xlink:href="#aj"/></g><g id="i"><use transform="matrix(0.05,0,0,0.05,0,0)" xlink:href="#av"/><use transform="matrix(0.05,0,0,0.05,10,0)" xlink:href="#ar"/><use transform="matrix(0.05,0,0,0.05,19,0)" xlink:href="#ap"/><use transform="matrix(0.05,0,0,0.05,29,0)" xlink:href="#ao"/><use transform="matrix(0.05,0,0,0.05,34.95,0)" xlink:href="#au"/><use transform="matrix(0.05,0,0,0.05,44.95,0)" xlink:href="#an"/><use transform="matrix(0.05,0,0,0.05,54.95,0)" xlink:href="#ah"/><use transform="matrix(0.05,0,0,0.05,69.9,0)" xlink:href="#ap"/></g><g id="j"><use transform="matrix(0.05,0,0,0.05,0,0)" xlink:href="#ak"/><use transform="matrix(0.05,0,0,0.05,3.95,0)" xlink:href="#au"/><use transform="matrix(0.05,0,0,0.05,13.949999999999998,0)" xlink:href="#ar"/><use transform="matrix(0.05,0,0,0.05,22.95,0)" xlink:href="#ap"/><use transform="matrix(0.05,0,0,0.05,32.95,0)" xlink:href="#ao"/><use transform="matrix(0.05,0,0,0.05,38.900000000000006,0)" xlink:href="#ak"/><use transform="matrix(0.05,0,0,0.05,42.85000000000001,0)" xlink:href="#ao"/><use transform="matrix(0.05,0,0,0.05,48.80000000000001,0)" xlink:href="#ap"/></g><g id="k"><use transform="matrix(0.05,0,0,0.05,0,0)" xlink:href="#aq"/><use transform="matrix(0.05,0,0,0.05,10,0)" xlink:href="#ao"/><use transform="matrix(0.05,0,0,0.05,15.949999999999998,0)" xlink:href="#ap"/><use transform="matrix(0.05,0,0,0.05,25.950000000000003,0)" xlink:href="#al"/><use transform="matrix(0.05,0,0,0.05,30.950000000000003,0)" xlink:href="#ap"/><use transform="matrix(0.05,0,0,0.05,40.95,0)" xlink:href="#ao"/><use transform="matrix(0.05,0,0,0.05,46.900000000000006,0)" xlink:href="#ap"/><use transform="matrix(0.05,0,0,0.05,56.900000000000006,0)" xlink:href="#au"/><use transform="matrix(0.05,0,0,0.05,66.9,0)" xlink:href="#at"/><use transform="matrix(0.05,0,0,0.05,75.9,0)" xlink:href="#ap"/></g><use transform="matrix(0.05,0,0,0.05,0,0)" xlink:href="#ap" id="l"/><g id="m"><use transform="matrix(0.05,0,0,0.05,0,0)" xlink:href="#ak"/><use transform="matrix(0.05,0,0,0.05,3.95,0)" xlink:href="#au"/><use transform="matrix(0.05,0,0,0.05,13.949999999999998,0)" xlink:href="#as"/><use transform="matrix(0.05,0,0,0.05,18.95,0)" xlink:href="#ap"/><use transform="matrix(0.05,0,0,0.05,28.950000000000003,0)" xlink:href="#ao"/><use transform="matrix(0.05,0,0,0.05,34.9,0)" xlink:href="#an"/><use transform="matrix(0.05,0,0,0.05,44.9,0)" xlink:href="#at"/><use transform="matrix(0.05,0,0,0.05,53.900000000000006,0)" xlink:href="#ak"/><use transform="matrix(0.05,0,0,0.05,57.85,0)" xlink:href="#ai"/><use transform="matrix(0.05,0,0,0.05,67.85,0)" xlink:href="#au"/><use transform="matrix(0.05,0,0,0.05,77.85,0)" xlink:href="#ak"/></g><g id="n"><use transform="matrix(0.05,0,0,0.05,0,0)" xlink:href="#am"/><use transform="matrix(0.05,0,0,0.05,9,0)" xlink:href="#ai"/><use transform="matrix(0.05,0,0,0.05,19,0)" xlink:href="#au"/></g><path d="M108 0H70L1-190h34L89-25l56-165h34" id="ax"/><g id="o"><use transform="matrix(0.05,0,0,0.05,0,0)" xlink:href="#ar"/><use transform="matrix(0.05,0,0,0.05,9,0)" xlink:href="#ap"/><use transform="matrix(0.05,0,0,0.05,19,0)" xlink:href="#ao"/><use transform="matrix(0.05,0,0,0.05,24.95,0)" xlink:href="#ax"/><use transform="matrix(0.05,0,0,0.05,33.95,0)" xlink:href="#ak"/><use transform="matrix(0.05,0,0,0.05,37.900000000000006,0)" xlink:href="#at"/><use transform="matrix(0.05,0,0,0.05,46.900000000000006,0)" xlink:href="#ak"/></g><g id="p"><use transform="matrix(0.05,0,0,0.05,0,0)" xlink:href="#aj"/><use transform="matrix(0.05,0,0,0.05,10,0)" xlink:href="#ak"/></g><path d="M126-127c33 6 58 20 58 59 0 88-139 92-164 29-3-8-5-16-6-25l32-3c6 27 21 44 54 44 32 0 52-15 52-46 0-38-36-46-79-43v-28c39 1 72-4 72-42 0-27-17-43-46-43-28 0-47 15-49 41l-32-3c6-42 35-63 81-64 48-1 79 21 79 65 0 36-21 52-52 59" id="ay"/><g id="q"><use transform="matrix(0.05,0,0,0.05,0,0)" xlink:href="#ay"/><use transform="matrix(0.05,0,0,0.05,10,0)" xlink:href="#ap"/></g><g id="r"><use transform="matrix(0.05,0,0,0.05,0,0)" xlink:href="#aq"/><use transform="matrix(0.05,0,0,0.05,10,0)" xlink:href="#an"/><use transform="matrix(0.05,0,0,0.05,20,0)" xlink:href="#ao"/><use transform="matrix(0.05,0,0,0.05,25.950000000000003,0)" xlink:href="#as"/><use transform="matrix(0.05,0,0,0.05,30.950000000000003,0)" xlink:href="#ak"/></g><g id="s"><use transform="matrix(0.05,0,0,0.05,0,0)" xlink:href="#ah"/><use transform="matrix(0.05,0,0,0.05,14.950000000000001,0)" xlink:href="#ai"/><use transform="matrix(0.05,0,0,0.05,24.950000000000003,0)" xlink:href="#aj"/><use transform="matrix(0.05,0,0,0.05,34.95,0)" xlink:href="#ak"/><use transform="matrix(0.05,0,0,0.05,38.900000000000006,0)" xlink:href="#al"/><use transform="matrix(0.05,0,0,0.05,43.900000000000006,0)" xlink:href="#ak"/><use transform="matrix(0.05,0,0,0.05,47.85000000000001,0)" xlink:href="#am"/><use transform="matrix(0.05,0,0,0.05,56.85,0)" xlink:href="#an"/></g><path d="M24 0v-261h32V0H24" id="az"/><g id="t"><use transform="matrix(0.05,0,0,0.05,0,0)" xlink:href="#aj"/><use transform="matrix(0.05,0,0,0.05,10,0)" xlink:href="#ap"/><use transform="matrix(0.05,0,0,0.05,20,0)" xlink:href="#az"/></g><g id="u"><use transform="matrix(0.05,0,0,0.05,0,0)" xlink:href="#ah"/><use transform="matrix(0.05,0,0,0.05,14.950000000000001,0)" xlink:href="#ap"/><use transform="matrix(0.05,0,0,0.05,24.950000000000003,0)" xlink:href="#as"/><use transform="matrix(0.05,0,0,0.05,29.950000000000003,0)" xlink:href="#ai"/><use transform="matrix(0.05,0,0,0.05,39.95,0)" xlink:href="#aj"/><use transform="matrix(0.05,0,0,0.05,49.95,0)" xlink:href="#ai"/></g><g id="v"><use transform="matrix(0.05,0,0,0.05,0,0)" xlink:href="#aj"/><use transform="matrix(0.05,0,0,0.05,10,0)" xlink:href="#ak"/></g><path d="M177-190C167-65 218 103 67 71c-23-6-38-20-44-43l32-5c15 47 100 32 89-28v-30C133-14 115 1 83 1 29 1 15-40 15-95c0-56 16-97 71-98 29-1 48 16 59 35 1-10 0-23 2-32h30zM94-22c36 0 50-32 50-73 0-42-14-75-50-75-39 0-46 34-46 75s6 73 46 73" id="aA"/><g id="w"><use transform="matrix(0.05,0,0,0.05,0,0)" xlink:href="#aq"/><use transform="matrix(0.05,0,0,0.05,10,0)" xlink:href="#an"/><use transform="matrix(0.05,0,0,0.05,20,0)" xlink:href="#aA"/><use transform="matrix(0.05,0,0,0.05,30,0)" xlink:href="#an"/><use transform="matrix(0.05,0,0,0.05,40,0)" xlink:href="#ah"/><use transform="matrix(0.05,0,0,0.05,54.95,0)" xlink:href="#ap"/><use transform="matrix(0.05,0,0,0.05,64.95,0)" xlink:href="#au"/><use transform="matrix(0.05,0,0,0.05,74.95,0)" xlink:href="#as"/><use transform="matrix(0.05,0,0,0.05,79.95,0)" xlink:href="#ai"/></g><path fill="#333" d="M15-91v-56l181-69v40L49-119l147 57v40" id="aB"/><path fill="#333" d="M185-48c-13 30-37 53-82 52C43 2 14-33 14-96s30-98 90-98c62 0 83 45 84 108H66c0 31 8 55 39 56 18 0 30-7 34-22zm-45-69c5-46-57-63-70-21-2 6-4 13-4 21h74" id="aC"/><path fill="#333" d="M144 0l-44-69L55 0H2l70-98-66-92h53l41 62 40-62h54l-67 91 71 99h-54" id="aD"/><path fill="#333" d="M115-3C79 11 28 4 28-45v-112H4v-33h27l15-45h31v45h36v33H77v99c-1 23 16 31 38 25v30" id="aE"/><path fill="#333" d="M135-194c87-1 58 113 63 194h-50c-7-57 23-157-34-157-59 0-34 97-39 157H25l-1-190h47c2 12-1 28 3 38 12-26 28-41 61-42" id="aF"/><path fill="#333" d="M88-194c31-1 46 15 58 34l-1-101h50l1 261h-48c-2-10 0-23-3-31C134-8 116 4 84 4 32 4 16-41 15-95c0-56 19-97 73-99zm17 164c33 0 40-30 41-66 1-37-9-64-41-64s-38 30-39 65c0 43 13 65 39 65" id="aG"/><path fill="#333" d="M15-22v-40l146-57-146-57v-40l181 69v56" id="aH"/><g id="x"><use transform="matrix(0.04938271604938272,0,0,0.04938271604938272,0,0)" xlink:href="#aB"/><use transform="matrix(0.04938271604938272,0,0,0.04938271604938272,10.370370370370372,0)" xlink:href="#aC"/><use transform="matrix(0.04938271604938272,0,0,0.04938271604938272,20.24691358024692,0)" xlink:href="#aD"/><use transform="matrix(0.04938271604938272,0,0,0.04938271604938272,30.123456790123466,0)" xlink:href="#aE"/><use transform="matrix(0.04938271604938272,0,0,0.04938271604938272,36.00000000000001,0)" xlink:href="#aC"/><use transform="matrix(0.04938271604938272,0,0,0.04938271604938272,45.87654320987655,0)" xlink:href="#aF"/><use transform="matrix(0.04938271604938272,0,0,0.04938271604938272,56.69135802469136,0)" xlink:href="#aG"/><use transform="matrix(0.04938271604938272,0,0,0.04938271604938272,67.50617283950618,0)" xlink:href="#aH"/></g><g id="y"><use transform="matrix(0.05,0,0,0.05,0,0)" xlink:href="#ak"/><use transform="matrix(0.05,0,0,0.05,3.95,0)" xlink:href="#ah"/><use transform="matrix(0.05,0,0,0.05,18.900000000000002,0)" xlink:href="#aq"/><use transform="matrix(0.05,0,0,0.05,28.900000000000002,0)" xlink:href="#ai"/><use transform="matrix(0.05,0,0,0.05,38.900000000000006,0)" xlink:href="#ar"/><use transform="matrix(0.05,0,0,0.05,47.900000000000006,0)" xlink:href="#as"/><use transform="matrix(0.05,0,0,0.05,52.900000000000006,0)" xlink:href="#an"/><use transform="matrix(0.05,0,0,0.05,62.900000000000006,0)" xlink:href="#ao"/><use transform="matrix(0.05,0,0,0.05,68.85000000000001,0)" xlink:href="#ap"/></g><g id="z"><use transform="matrix(0.05,0,0,0.05,0,0)" xlink:href="#ai"/><use transform="matrix(0.05,0,0,0.05,10,0)" xlink:href="#ao"/><use transform="matrix(0.05,0,0,0.05,15.949999999999998,0)" xlink:href="#ap"/></g><g id="A"><use transform="matrix(0.05,0,0,0.05,0,0)" xlink:href="#ar"/><use transform="matrix(0.05,0,0,0.05,9,0)" xlink:href="#ai"/><use transform="matrix(0.05,0,0,0.05,19,0)" xlink:href="#au"/><use transform="matrix(0.05,0,0,0.05,29,0)" xlink:href="#au"/><use transform="matrix(0.05,0,0,0.05,39,0)" xlink:href="#ai"/></g><g id="B"><use transform="matrix(0.05,0,0,0.05,0,0)" xlink:href="#ar"/><use transform="matrix(0.05,0,0,0.05,9,0)" xlink:href="#as"/><use transform="matrix(0.05,0,0,0.05,14,0)" xlink:href="#an"/><use transform="matrix(0.05,0,0,0.05,24,0)" xlink:href="#au"/><use transform="matrix(0.05,0,0,0.05,34,0)" xlink:href="#aj"/><use transform="matrix(0.05,0,0,0.05,44,0)" xlink:href="#an"/><use transform="matrix(0.05,0,0,0.05,54,0)" xlink:href="#ao"/><use transform="matrix(0.05,0,0,0.05,59.95,0)" xlink:href="#aj"/></g><path fill="#3a414a" d="M205 0l-28-72H64L36 0H1l101-248h38L239 0h-34zm-38-99l-47-123c-12 45-31 82-46 123h93" id="aI"/><path fill="#3a414a" d="M106-169C34-169 62-67 57 0H25v-261h32l-1 103c12-21 28-36 61-36 89 0 53 116 60 194h-32v-121c2-32-8-49-39-48" id="aJ"/><path fill="#3a414a" d="M101-251c68 0 85 55 85 127S166 4 100 4C33 4 14-52 14-124c0-73 17-127 87-127zm-1 229c47 0 54-49 54-102s-4-102-53-102c-51 0-55 48-55 102 0 53 5 102 54 102" id="aK"/><g id="C"><use transform="matrix(0.06172839506172839,0,0,0.06172839506172839,0,0)" xlink:href="#aI"/><use transform="matrix(0.06172839506172839,0,0,0.06172839506172839,14.814814814814813,0)" xlink:href="#aa"/><use transform="matrix(0.06172839506172839,0,0,0.06172839506172839,27.160493827160494,0)" xlink:href="#W"/><use transform="matrix(0.06172839506172839,0,0,0.06172839506172839,33.333333333333336,0)" xlink:href="#aJ"/><use transform="matrix(0.06172839506172839,0,0,0.06172839506172839,45.67901234567901,0)" xlink:href="#aK"/></g><path fill="#3a414a" d="M115-194c55 1 70 41 70 98S169 2 115 4C84 4 66-9 55-30l1 105H24l-1-265h31l2 30c10-21 28-34 59-34zm-8 174c40 0 45-34 45-75s-6-73-45-74c-42 0-51 32-51 76 0 43 10 73 51 73" id="aL"/><path fill="#3a414a" d="M210-169c-67 3-38 105-44 169h-31v-121c0-29-5-50-35-48C34-165 62-65 56 0H25l-1-190h30c1 10-1 24 2 32 10-44 99-50 107 0 11-21 27-35 58-36 85-2 47 119 55 194h-31v-121c0-29-5-49-35-48" id="aM"/><g id="D"><use transform="matrix(0.06172839506172839,0,0,0.06172839506172839,0,0)" xlink:href="#aL"/><use transform="matrix(0.06172839506172839,0,0,0.06172839506172839,12.345679012345679,0)" xlink:href="#ag"/><use transform="matrix(0.06172839506172839,0,0,0.06172839506172839,19.691358024691358,0)" xlink:href="#X"/><use transform="matrix(0.06172839506172839,0,0,0.06172839506172839,32.03703703703704,0)" xlink:href="#aM"/><use transform="matrix(0.06172839506172839,0,0,0.06172839506172839,50.49382716049382,0)" xlink:href="#ab"/><use transform="matrix(0.06172839506172839,0,0,0.06172839506172839,55.37037037037037,0)" xlink:href="#aa"/><use transform="matrix(0.06172839506172839,0,0,0.06172839506172839,67.71604938271605,0)" xlink:href="#aM"/></g><g id="E"><use transform="matrix(0.05,0,0,0.05,0,0)" xlink:href="#ar"/><use transform="matrix(0.05,0,0,0.05,9,0)" xlink:href="#ai"/><use transform="matrix(0.05,0,0,0.05,19,0)" xlink:href="#as"/><use transform="matrix(0.05,0,0,0.05,24,0)" xlink:href="#as"/><use transform="matrix(0.05,0,0,0.05,29,0)" xlink:href="#ai"/><use transform="matrix(0.05,0,0,0.05,39,0)" xlink:href="#ar"/><use transform="matrix(0.05,0,0,0.05,48,0)" xlink:href="#am"/><use transform="matrix(0.05,0,0,0.05,57,0)" xlink:href="#ao"/><use transform="matrix(0.05,0,0,0.05,62.95,0)" xlink:href="#ak"/><use transform="matrix(0.05,0,0,0.05,66.9,0)" xlink:href="#ax"/><use transform="matrix(0.05,0,0,0.05,75.9,0)" xlink:href="#ap"/><use transform="matrix(0.05,0,0,0.05,85.9,0)" xlink:href="#ao"/><use transform="matrix(0.05,0,0,0.05,91.85000000000001,0)" xlink:href="#ap"/></g><path d="M115-194c53 0 69 39 70 98 0 66-23 100-70 100C84 3 66-7 56-30L54 0H23l1-261h32v101c10-23 28-34 59-34zm-8 174c40 0 45-34 45-75 0-40-5-75-45-74-42 0-51 32-51 76 0 43 10 73 51 73" id="aN"/><g id="F"><use transform="matrix(0.05,0,0,0.05,0,0)" xlink:href="#an"/><use transform="matrix(0.05,0,0,0.05,10,0)" xlink:href="#aN"/><use transform="matrix(0.05,0,0,0.05,20,0)" xlink:href="#aN"/><use transform="matrix(0.05,0,0,0.05,30,0)" xlink:href="#ai"/><use transform="matrix(0.05,0,0,0.05,40,0)" xlink:href="#au"/><use transform="matrix(0.05,0,0,0.05,50,0)" xlink:href="#an"/><use transform="matrix(0.05,0,0,0.05,60,0)" xlink:href="#ah"/><use transform="matrix(0.05,0,0,0.05,74.95,0)" xlink:href="#ap"/><use transform="matrix(0.05,0,0,0.05,84.95,0)" xlink:href="#au"/><use transform="matrix(0.05,0,0,0.05,94.95,0)" xlink:href="#as"/><use transform="matrix(0.05,0,0,0.05,99.95,0)" xlink:href="#ai"/></g><g id="G"><use transform="matrix(0.05,0,0,0.05,0,0)" xlink:href="#ak"/><use transform="matrix(0.05,0,0,0.05,3.95,0)" xlink:href="#au"/><use transform="matrix(0.05,0,0,0.05,13.949999999999998,0)" xlink:href="#as"/><use transform="matrix(0.05,0,0,0.05,18.95,0)" xlink:href="#ap"/><use transform="matrix(0.05,0,0,0.05,28.950000000000003,0)" xlink:href="#ao"/><use transform="matrix(0.05,0,0,0.05,34.9,0)" xlink:href="#an"/><use transform="matrix(0.05,0,0,0.05,44.9,0)" xlink:href="#aA"/><use transform="matrix(0.05,0,0,0.05,54.900000000000006,0)" xlink:href="#ak"/><use transform="matrix(0.05,0,0,0.05,58.85,0)" xlink:href="#ao"/><use transform="matrix(0.05,0,0,0.05,64.8,0)" xlink:href="#ap"/></g><path d="M143 4C61 4 22-44 18-125c-5-107 100-154 193-111 17 8 29 25 37 43l-32 9c-13-25-37-40-76-40-61 0-88 39-88 99 0 61 29 100 91 101 35 0 62-11 79-27v-45h-74v-28h105v86C228-13 192 4 143 4" id="aO"/><g id="H"><use transform="matrix(0.05,0,0,0.05,0,0)" xlink:href="#aO"/><use transform="matrix(0.05,0,0,0.05,14,0)" xlink:href="#ai"/><use transform="matrix(0.05,0,0,0.05,24,0)" xlink:href="#ai"/><use transform="matrix(0.05,0,0,0.05,34,0)" xlink:href="#aA"/><use transform="matrix(0.05,0,0,0.05,44,0)" xlink:href="#az"/><use transform="matrix(0.05,0,0,0.05,47.95,0)" xlink:href="#ap"/></g><path d="M212-179c-10-28-35-45-73-45-59 0-87 40-87 99 0 60 29 101 89 101 43 0 62-24 78-52l27 14C228-24 195 4 139 4 59 4 22-46 18-125c-6-104 99-153 187-111 19 9 31 26 39 46" id="aP"/><g id="I"><use transform="matrix(0.05,0,0,0.05,0,0)" xlink:href="#aP"/><use transform="matrix(0.05,0,0,0.05,12.950000000000001,0)" xlink:href="#an"/><use transform="matrix(0.05,0,0,0.05,22.950000000000003,0)" xlink:href="#az"/><use transform="matrix(0.05,0,0,0.05,26.900000000000002,0)" xlink:href="#ap"/><use transform="matrix(0.05,0,0,0.05,36.900000000000006,0)" xlink:href="#au"/><use transform="matrix(0.05,0,0,0.05,46.900000000000006,0)" xlink:href="#aj"/><use transform="matrix(0.05,0,0,0.05,56.900000000000006,0)" xlink:href="#an"/><use transform="matrix(0.05,0,0,0.05,66.9,0)" xlink:href="#ao"/></g><g id="J"><use transform="matrix(0.05,0,0,0.05,0,0)" xlink:href="#ak"/><use transform="matrix(0.05,0,0,0.05,3.95,0)" xlink:href="#ah"/><use transform="matrix(0.05,0,0,0.05,18.900000000000002,0)" xlink:href="#aq"/><use transform="matrix(0.05,0,0,0.05,28.900000000000002,0)" xlink:href="#ai"/><use transform="matrix(0.05,0,0,0.05,38.900000000000006,0)" xlink:href="#ar"/><use transform="matrix(0.05,0,0,0.05,47.900000000000006,0)" xlink:href="#as"/><use transform="matrix(0.05,0,0,0.05,52.900000000000006,0)" xlink:href="#an"/><use transform="matrix(0.05,0,0,0.05,62.900000000000006,0)" xlink:href="#ao"/><use transform="matrix(0.05,0,0,0.05,68.85000000000001,0)" xlink:href="#ap"/></g><g id="K"><use transform="matrix(0.05,0,0,0.05,0,0)" xlink:href="#aq"/><use transform="matrix(0.05,0,0,0.05,10,0)" xlink:href="#ao"/><use transform="matrix(0.05,0,0,0.05,15.949999999999998,0)" xlink:href="#ap"/><use transform="matrix(0.05,0,0,0.05,25.950000000000003,0)" xlink:href="#al"/><use transform="matrix(0.05,0,0,0.05,30.950000000000003,0)" xlink:href="#ap"/><use transform="matrix(0.05,0,0,0.05,40.95,0)" xlink:href="#ao"/><use transform="matrix(0.05,0,0,0.05,46.900000000000006,0)" xlink:href="#ap"/><use transform="matrix(0.05,0,0,0.05,56.900000000000006,0)" xlink:href="#au"/><use transform="matrix(0.05,0,0,0.05,66.9,0)" xlink:href="#at"/><use transform="matrix(0.05,0,0,0.05,75.9,0)" xlink:href="#an"/></g><g id="L"><use transform="matrix(0.05,0,0,0.05,0,0)" xlink:href="#ar"/><use transform="matrix(0.05,0,0,0.05,9,0)" xlink:href="#ap"/><use transform="matrix(0.05,0,0,0.05,19,0)" xlink:href="#ao"/><use transform="matrix(0.05,0,0,0.05,24.95,0)" xlink:href="#ax"/><use transform="matrix(0.05,0,0,0.05,33.95,0)" xlink:href="#ak"/><use transform="matrix(0.05,0,0,0.05,37.900000000000006,0)" xlink:href="#at"/><use transform="matrix(0.05,0,0,0.05,46.900000000000006,0)" xlink:href="#ak"/><use transform="matrix(0.05,0,0,0.05,50.85000000000001,0)" xlink:href="#ai"/></g><g id="M"><use transform="matrix(0.05,0,0,0.05,0,0)" xlink:href="#ah"/><use transform="matrix(0.05,0,0,0.05,14.950000000000001,0)" xlink:href="#an"/><use transform="matrix(0.05,0,0,0.05,24.950000000000003,0)" xlink:href="#aq"/><use transform="matrix(0.05,0,0,0.05,34.95,0)" xlink:href="#aq"/><use transform="matrix(0.05,0,0,0.05,44.95,0)" xlink:href="#ap"/></g><g id="N"><use transform="matrix(0.05,0,0,0.05,0,0)" xlink:href="#ax"/><use transform="matrix(0.05,0,0,0.05,9,0)" xlink:href="#ap"/><use transform="matrix(0.05,0,0,0.05,19,0)" xlink:href="#ao"/><use transform="matrix(0.05,0,0,0.05,24.95,0)" xlink:href="#ak"/><use transform="matrix(0.05,0,0,0.05,28.899999999999995,0)" xlink:href="#al"/><use transform="matrix(0.05,0,0,0.05,33.9,0)" xlink:href="#ak"/><use transform="matrix(0.05,0,0,0.05,37.85,0)" xlink:href="#am"/><use transform="matrix(0.05,0,0,0.05,46.85,0)" xlink:href="#an"/></g><path d="M141-36C126-15 110 5 73 4 37 3 15-17 15-53c-1-64 63-63 125-63 3-35-9-54-41-54-24 1-41 7-42 31l-33-3c5-37 33-52 76-52 45 0 72 20 72 64v82c-1 20 7 32 28 27v20c-31 9-61-2-59-35zM48-53c0 20 12 33 32 33 41-3 63-29 60-74-43 2-92-5-92 41zm62-158l-58-49v-5h36c12 19 30 32 38 54h-16" id="aQ"/><g id="O"><use transform="matrix(0.05,0,0,0.05,0,0)" xlink:href="#ax"/><use transform="matrix(0.05,0,0,0.05,9,0)" xlink:href="#an"/><use transform="matrix(0.05,0,0,0.05,19,0)" xlink:href="#az"/><use transform="matrix(0.05,0,0,0.05,22.95,0)" xlink:href="#ak"/><use transform="matrix(0.05,0,0,0.05,26.899999999999995,0)" xlink:href="#aj"/><use transform="matrix(0.05,0,0,0.05,36.9,0)" xlink:href="#ak"/><use transform="matrix(0.05,0,0,0.05,40.85,0)" xlink:href="#as"/><use transform="matrix(0.05,0,0,0.05,45.85,0)" xlink:href="#aQ"/></g><path fill="#333" d="M25-224v-37h50v37H25zM25 0v-190h50V0H25" id="aR"/><path fill="#333" d="M190-63c-7 42-38 67-86 67-59 0-84-38-90-98-12-110 154-137 174-36l-49 2c-2-19-15-32-35-32-30 0-35 28-38 64-6 74 65 87 74 30" id="aS"/><path fill="#333" d="M25 0v-261h50V0H25" id="aT"/><path fill="#333" d="M85 4C-2 5 27-109 22-190h50c7 57-23 150 33 157 60-5 35-97 40-157h50l1 190h-47c-2-12 1-28-3-38-12 25-28 42-61 42" id="aU"/><g id="P"><use transform="matrix(0.04938271604938272,0,0,0.04938271604938272,0,0)" xlink:href="#aB"/><use transform="matrix(0.04938271604938272,0,0,0.04938271604938272,10.370370370370372,0)" xlink:href="#aR"/><use transform="matrix(0.04938271604938272,0,0,0.04938271604938272,15.308641975308642,0)" xlink:href="#aF"/><use transform="matrix(0.04938271604938272,0,0,0.04938271604938272,26.12345679012346,0)" xlink:href="#aS"/><use transform="matrix(0.04938271604938272,0,0,0.04938271604938272,36,0)" xlink:href="#aT"/><use transform="matrix(0.04938271604938272,0,0,0.04938271604938272,40.93827160493827,0)" xlink:href="#aU"/><use transform="matrix(0.04938271604938272,0,0,0.04938271604938272,51.75308641975309,0)" xlink:href="#aG"/><use transform="matrix(0.04938271604938272,0,0,0.04938271604938272,62.567901234567906,0)" xlink:href="#aC"/><use transform="matrix(0.04938271604938272,0,0,0.04938271604938272,72.44444444444446,0)" xlink:href="#aH"/></g><path fill="#3a414a" d="M185-189c-5-48-123-54-124 2 14 75 158 14 163 119 3 78-121 87-175 55-17-10-28-26-33-46l33-7c5 56 141 63 141-1 0-78-155-14-162-118-5-82 145-84 179-34 5 7 8 16 11 25" id="aV"/><path fill="#3a414a" d="M0 4l72-265h28L28 4H0" id="aW"/><path fill="#3a414a" d="M30-248c87 1 191-15 191 75 0 78-77 80-158 76V0H30v-248zm33 125c57 0 124 11 124-50 0-59-68-47-124-48v98" id="aX"/><path fill="#3a414a" d="M179-190L93 31C79 59 56 82 12 73V49c39 6 53-20 64-50L1-190h34L92-34l54-156h33" id="aY"/><path fill="#3a414a" d="M24 0v-261h32V0H24" id="aZ"/><g id="Q"><use transform="matrix(0.04320987654320988,0,0,0.04320987654320988,0,0)" xlink:href="#aV"/><use transform="matrix(0.04320987654320988,0,0,0.04320987654320988,10.370370370370372,0)" xlink:href="#W"/><use transform="matrix(0.04320987654320988,0,0,0.04320987654320988,14.691358024691363,0)" xlink:href="#ag"/><use transform="matrix(0.04320987654320988,0,0,0.04320987654320988,19.833333333333336,0)" xlink:href="#ab"/><use transform="matrix(0.04320987654320988,0,0,0.04320987654320988,23.246913580246915,0)" xlink:href="#aL"/><use transform="matrix(0.04320987654320988,0,0,0.04320987654320988,31.888888888888893,0)" xlink:href="#X"/><use transform="matrix(0.04320987654320988,0,0,0.04320987654320988,40.53086419753087,0)" xlink:href="#aW"/><use transform="matrix(0.04320987654320988,0,0,0.04320987654320988,44.851851851851855,0)" xlink:href="#aX"/><use transform="matrix(0.04320987654320988,0,0,0.04320987654320988,55.22222222222223,0)" xlink:href="#Z"/><use transform="matrix(0.04320987654320988,0,0,0.04320987654320988,63.8641975308642,0)" xlink:href="#aY"/><use transform="matrix(0.04320987654320988,0,0,0.04320987654320988,71.64197530864197,0)" xlink:href="#aL"/><use transform="matrix(0.04320987654320988,0,0,0.04320987654320988,80.28395061728395,0)" xlink:href="#Z"/><use transform="matrix(0.04320987654320988,0,0,0.04320987654320988,88.92592592592591,0)" xlink:href="#aZ"/></g><path fill="#3a414a" d="M240 0l2-218c-23 76-54 145-80 218h-23L58-218 59 0H30v-248h44l77 211c21-75 51-140 76-211h43V0h-30" id="ba"/><path fill="#3a414a" d="M177-190C167-65 218 103 67 71c-23-6-38-20-44-43l32-5c15 47 100 32 89-28v-30C133-14 115 1 83 1 29 1 15-40 15-95c0-56 16-97 71-98 29-1 48 16 59 35 1-10 0-23 2-32h30zM94-22c36 0 50-32 50-73 0-42-14-75-50-75-39 0-46 34-46 75s6 73 46 73" id="bb"/><path fill="#3a414a" d="M30-248c118-7 216 8 213 122C240-48 200 0 122 0H30v-248zM63-27c89 8 146-16 146-99s-60-101-146-95v194" id="bc"/><path fill="#3a414a" d="M160-131c35 5 61 23 61 61C221 17 115-2 30 0v-248c76 3 177-17 177 60 0 33-19 50-47 57zm-97-11c50-1 110 9 110-42 0-47-63-36-110-37v79zm0 115c55-2 124 14 124-45 0-56-70-42-124-44v89" id="bd"/><g id="R"><use transform="matrix(0.04320987654320988,0,0,0.04320987654320988,0,0)" xlink:href="#ba"/><use transform="matrix(0.04320987654320988,0,0,0.04320987654320988,12.919753086419755,0)" xlink:href="#ad"/><use transform="matrix(0.04320987654320988,0,0,0.04320987654320988,21.56172839506173,0)" xlink:href="#Y"/><use transform="matrix(0.04320987654320988,0,0,0.04320987654320988,30.203703703703713,0)" xlink:href="#bb"/><use transform="matrix(0.04320987654320988,0,0,0.04320987654320988,38.845679012345684,0)" xlink:href="#ad"/><use transform="matrix(0.04320987654320988,0,0,0.04320987654320988,47.48765432098766,0)" xlink:href="#bc"/><use transform="matrix(0.04320987654320988,0,0,0.04320987654320988,58.67901234567902,0)" xlink:href="#bd"/></g><g id="S"><use transform="matrix(0.05,0,0,0.05,0,0)" xlink:href="#an"/><use transform="matrix(0.05,0,0,0.05,10,0)" xlink:href="#aA"/><use transform="matrix(0.05,0,0,0.05,20,0)" xlink:href="#aA"/><use transform="matrix(0.05,0,0,0.05,30,0)" xlink:href="#ak"/><use transform="matrix(0.05,0,0,0.05,33.95,0)" xlink:href="#ai"/><use transform="matrix(0.05,0,0,0.05,43.95,0)" xlink:href="#ao"/><use transform="matrix(0.05,0,0,0.05,49.900000000000006,0)" xlink:href="#au"/><use transform="matrix(0.05,0,0,0.05,59.900000000000006,0)" xlink:href="#an"/><use transform="matrix(0.05,0,0,0.05,69.9,0)" xlink:href="#ah"/><use transform="matrix(0.05,0,0,0.05,84.85000000000001,0)" xlink:href="#ap"/><use transform="matrix(0.05,0,0,0.05,94.85000000000001,0)" xlink:href="#au"/><use transform="matrix(0.05,0,0,0.05,104.85000000000001,0)" xlink:href="#as"/><use transform="matrix(0.05,0,0,0.05,109.85000000000001,0)" xlink:href="#ai"/></g><g id="T"><use transform="matrix(0.05,0,0,0.05,0,0)" xlink:href="#ar"/><use transform="matrix(0.05,0,0,0.05,9,0)" xlink:href="#an"/><use transform="matrix(0.05,0,0,0.05,19,0)" xlink:href="#az"/><use transform="matrix(0.05,0,0,0.05,22.95,0)" xlink:href="#ax"/><use transform="matrix(0.05,0,0,0.05,31.950000000000003,0)" xlink:href="#an"/><use transform="matrix(0.05,0,0,0.05,41.95,0)" xlink:href="#aA"/><use transform="matrix(0.05,0,0,0.05,51.95,0)" xlink:href="#aA"/><use transform="matrix(0.05,0,0,0.05,61.95,0)" xlink:href="#ak"/><use transform="matrix(0.05,0,0,0.05,65.9,0)" xlink:href="#ai"/></g><g id="U"><use transform="matrix(0.05,0,0,0.05,0,0)" xlink:href="#aj"/><use transform="matrix(0.05,0,0,0.05,10,0)" xlink:href="#ap"/><use transform="matrix(0.05,0,0,0.05,20,0)" xlink:href="#az"/></g></defs></g></svg>