<svg xmlns="http://www.w3.org/2000/svg" xmlns:xlink="http://www.w3.org/1999/xlink" xmlns:lucid="lucid" width="1476" height="1253.34"><g transform="translate(1746 1233.3356307278518)" lucid:page-tab-id="DTu6~0l2-NkQ"><path d="M-1806.87-1258.83H64V64h-1870.87z" fill="#fff"/><path d="M-1610.25-340.25c0 10.9-8.84 19.75-19.75 19.75-10.9 0-19.75-8.84-19.75-19.75 0-10.9 8.84-19.75 19.75-19.75 10.9 0 19.75 8.84 19.75 19.75z" stroke="#3a414a" fill="#fff"/><path d="M-1630-320.5v49.3a20.7 20.7 0 0 0 3.2 11.07L-1590-202m-40-63.2l-40 63.2m0-98.75h80" stroke="#3a414a" fill="none"/><path d="M-1670-354a6 6 0 0 1 6-6h68a6 6 0 0 1 6 6v168a6 6 0 0 1-6 6h-68a6 6 0 0 1-6-6z" fill="none"/><use xlink:href="#a" transform="matrix(1,0,0,1,-1750,-202) translate(29.93827160493828 17.77777777777778)"/><use xlink:href="#b" transform="matrix(1,0,0,1,-1750,-202) translate(101.48148148148148 17.77777777777778)"/><use xlink:href="#c" transform="matrix(1,0,0,1,-1750,-202) translate(76.82098765432099 44.44444444444444)"/><path d="M-1611.6-983.35c0 10.9-8.83 19.75-19.74 19.75-10.9 0-19.75-8.84-19.75-19.75 0-10.9 8.86-19.75 19.76-19.75 10.9 0 19.75 8.84 19.75 19.75z" stroke="#3a414a" fill="#fff"/><path d="M-1631.34-963.6v49.3a20.7 20.7 0 0 0 3.2 11.07l36.8 58.13m-40-63.2l-40 63.2m0-98.75h80" stroke="#3a414a" fill="none"/><path d="M-1671.34-997.1a6 6 0 0 1 6-6h68a6 6 0 0 1 6 6v168a6 6 0 0 1-6 6h-68a6 6 0 0 1-6-6z" fill="none"/><use xlink:href="#a" transform="matrix(1,0,0,1,-1751.3357139147201,-845.1024440466408) translate(65.70987654320987 17.77777777777778)"/><use xlink:href="#d" transform="matrix(1,0,0,1,-1751.3357139147201,-845.1024440466408) translate(137.25308641975306 17.77777777777778)"/><use xlink:href="#e" transform="matrix(1,0,0,1,-1751.3357139147201,-845.1024440466408) translate(65.70987654320987 44.44444444444444)"/><use xlink:href="#f" transform="matrix(1,0,0,1,-1751.3357139147201,-845.1024440466408) translate(120 71.11111111111111)"/><path d="M-937.22-913.1c0 40.37-35.82 73.1-80 73.1s-80-32.73-80-73.1c0-40.38 35.82-73.1 80-73.1s80 32.72 80 73.1z" stroke="#3a414a" fill="#fff"/><use xlink:href="#g" transform="matrix(1,0,0,1,-1097.2185757178531,-986.2048880932816) translate(50.57999999999999 55.74375)"/><use xlink:href="#h" transform="matrix(1,0,0,1,-1097.2185757178531,-986.2048880932816) translate(15.62999999999999 77.34375)"/><use xlink:href="#i" transform="matrix(1,0,0,1,-1097.2185757178531,-986.2048880932816) translate(120.43 77.34375)"/><use xlink:href="#j" transform="matrix(1,0,0,1,-1097.2185757178531,-986.2048880932816) translate(38.58 98.94375000000001)"/><path d="M-937.22-1153.34c0 33.14-35.82 60-80 60s-80-26.86-80-60c0-33.13 35.82-60 80-60s80 26.87 80 60z" stroke="#3a414a" fill="#fff"/><use xlink:href="#k" transform="matrix(1,0,0,1,-1097.2185757178531,-1213.3356307278518) translate(46.58 40.65)"/><use xlink:href="#l" transform="matrix(1,0,0,1,-1097.2185757178531,-1213.3356307278518) translate(41.08 62.25)"/><use xlink:href="#i" transform="matrix(1,0,0,1,-1097.2185757178531,-1213.3356307278518) translate(94.98 62.25)"/><use xlink:href="#j" transform="matrix(1,0,0,1,-1097.2185757178531,-1213.3356307278518) translate(38.58 83.85000000000001)"/><path d="M-937.22-672.87c0 33.14-35.82 60-80 60s-80-26.86-80-60 35.82-60 80-60 80 26.86 80 60z" stroke="#3a414a" fill="#fff"/><use xlink:href="#m" transform="matrix(1,0,0,1,-1097.2185757178531,-732.8692573654298) translate(32.10499999999999 40.65)"/><use xlink:href="#i" transform="matrix(1,0,0,1,-1097.2185757178531,-732.8692573654298) translate(103.95500000000001 40.65)"/><use xlink:href="#n" transform="matrix(1,0,0,1,-1097.2185757178531,-732.8692573654298) translate(27.604999999999997 62.25)"/><use xlink:href="#o" transform="matrix(1,0,0,1,-1097.2185757178531,-732.8692573654298) translate(57.605 62.25)"/><use xlink:href="#i" transform="matrix(1,0,0,1,-1097.2185757178531,-732.8692573654298) translate(108.455 62.25)"/><use xlink:href="#j" transform="matrix(1,0,0,1,-1097.2185757178531,-732.8692573654298) translate(38.58 83.85000000000001)"/><path d="M-1016.72-1003.1h-1v-1.48h1zm0-3.46h-1v-2.97h1zm0-4.96h-1v-2.97h1zm0-4.96h-1v-2.97h1zm0-4.95h-1v-2.98h1zm0-4.96h-1v-2.97h1zm0-4.95h-1v-2.98h1zm0-4.96h-1v-2.98h1zm0-4.97h-1v-2.97h1zm0-4.95h-1v-2.98h1zm0-4.96h-1v-2.98h1zm0-4.96h-1v-2.98h1zm0-4.96h-1v-2.97h1zm0-4.96h-1v-2.97h1zm0-24.82h-1v-1.46h1z" stroke="#3a414a" stroke-width=".05" fill="#3a414a"/><path d="M-1017.22-988.32l-4.63-14.27h9.27z" fill="#3a414a"/><path d="M-1017.22-986.7l-5.32-16.4h10.64zm-3.95-15.4l3.95 12.16 3.95-12.15z" stroke="#3a414a" stroke-width=".05" fill="#3a414a"/><path d="M-1017.23-1092.84h.5v.52h-1v-.53z" fill="#3a414a"/><path d="M-1017.22-1092.86h.53v.56h-1.04v-.58zm-.47.5h.96v-.45h-.5l-.45-.03z" stroke="#3a414a" stroke-width=".05" fill="#3a414a"/><use xlink:href="#p" transform="matrix(1,0,0,1,-1056.1568473227915,-1090.8814212612099) translate(0 14.222222222222223)"/><path d="M-1016.72-733.87h-1v-1.5h1zm0-24.54h-1v-1.75h1zm0-3.73h-1v-2.98h1zm0-4.96h-1v-2.96h1zm0-4.95h-1v-2.97h1zm0-4.96h-1V-780h1zm0-4.96h-1v-2.98h1zm0-4.96h-1v-2.98h1zm0-4.96h-1v-2.97h1zm0-4.96h-1v-2.97h1zm0-4.96h-1v-2.97h1zm0-4.95h-1v-2.98h1zm0-4.96h-1v-3h1zm0-4.97h-1v-2.98h1zm0-4.96h-1v-1.5h1z" stroke="#3a414a" stroke-width=".05" fill="#3a414a"/><path d="M-1012.58-823.62h-9.27l4.63-14.26z" fill="#3a414a"/><path d="M-1011.9-823.12h-10.64l5.32-16.38zm-9.27-1h7.9l-3.95-12.14z" stroke="#3a414a" stroke-width=".05" fill="#3a414a"/><path d="M-1016.72-733.35l-.5-.02h-.5v-.5h1z" fill="#3a414a"/><path d="M-1016.7-733.33h-1.04v-.58h1.05zm-1-.53v.47h.5l.46.02v-.48z" stroke="#3a414a" stroke-width=".05" fill="#3a414a"/><use xlink:href="#p" transform="matrix(1,0,0,1,-1056.1568473227915,-758.4139537699058) translate(0 14.222222222222223)"/><path d="M-398.15-913.1c0 40.37-35.82 73.1-80 73.1-44.2 0-80-32.73-80-73.1 0-40.38 35.8-73.1 80-73.1 44.18 0 80 32.72 80 73.1z" stroke="#3a414a" fill="#fff"/><use xlink:href="#g" transform="matrix(1,0,0,1,-558.1523782895065,-986.2048880932816) translate(50.57999999999999 32.775)"/><use xlink:href="#q" transform="matrix(1,0,0,1,-558.1523782895065,-986.2048880932816) translate(56.05499999999999 54.375)"/><use xlink:href="#r" transform="matrix(1,0,0,1,-558.1523782895065,-986.2048880932816) translate(31.62999999999999 75.97500000000001)"/><use xlink:href="#s" transform="matrix(1,0,0,1,-558.1523782895065,-986.2048880932816) translate(22.880000000000003 97.57500000000002)"/><use xlink:href="#i" transform="matrix(1,0,0,1,-558.1523782895065,-986.2048880932816) translate(113.18 97.57500000000002)"/><use xlink:href="#j" transform="matrix(1,0,0,1,-558.1523782895065,-986.2048880932816) translate(38.57999999999999 119.17500000000001)"/><path d="M-918.83-912.6h-1.5v-1h1.5zm5.02 0h-3.02v-1h3zm5 0h-3v-1h3zm5.02 0h-3v-1h3zm5.02 0h-3v-1h3zm5 0h-3v-1h3zm5.03 0h-3v-1h3zm5.02 0h-3.02v-1h3zm5 0h-3v-1h3zm5.02 0h-3v-1h3zm5 0h-3v-1h3zm5.03 0h-3v-1h3zm5.02 0h-3v-1h3zm5 0h-3v-1h3zm5.03 0h-3v-1h3zm5.02 0h-3v-1h3zm5 0h-3v-1h3zm5.03 0h-3v-1h3zm5.02 0h-3v-1h3zm5 0h-3v-1h3zm5.03 0h-3v-1h3zm5.02 0h-3v-1h3zm5 0h-3v-1h3zm5.03 0h-3v-1h3zm5 0h-3v-1h3zm5.03 0h-3v-1h3zm5.02 0h-3v-1h3zm85.28 0h-3v-1h3zm5 0h-3v-1h3zm5.03 0h-3v-1h3zm5.03 0h-3v-1h3zm5 0h-3v-1h3zm5.03 0h-3v-1h3zm5 0h-3v-1h3zm5.03 0h-3.02v-1h3zm5 0h-3v-1h3zm5.02 0h-3v-1h3zm5.02 0h-3v-1h3zm5.02 0h-3v-1h3zm5 0h-3v-1h3zm5.03 0h-3.02v-1h3zm5 0h-3v-1h3zm5.02 0h-3v-1h3zm5.02 0h-3v-1h3zm5.02 0h-3v-1h3zm5 0h-3v-1h3zm5.03 0h-3.02v-1h3zm5 0h-3v-1h3zm5.02 0h-3v-1h3zm5.02 0h-3v-1h3zm5 0h-3v-1h3zm5.03 0h-3v-1h3zm5.02 0h-3.02v-1h3zm5 0h-3v-1h3zm5.02 0h-3v-1h3zm5.02 0h-3v-1h3zm3.5 0h-1.5v-1h1.5zm-148.98 0h-.6v-1h.6z" stroke="#3a414a" stroke-width=".05" fill="#3a414a"/><path d="M-920.83-908.47l-14.27-4.63 14.27-4.64z" fill="#3a414a"/><path d="M-920.33-907.78l-16.4-5.32 16.4-5.33zm-13.15-5.32l12.15 3.94v-7.9z" stroke="#3a414a" stroke-width=".05" fill="#3a414a"/><path d="M-558.65-913.1v.5h-.52v-1h.53z" fill="#3a414a"/><path d="M-558.63-913.1v.52h-.56v-1.05h.6zm-.5-.48v.95h.45v-.48l.02-.48z" stroke="#3a414a" stroke-width=".05" fill="#3a414a"/><use xlink:href="#p" transform="matrix(1,0,0,1,-786.6237486085179,-923.7691107357247) translate(0.005000000000002558 14.222222222222223)"/><path d="M-509.92-1140c0 33.14-35.8 60-80 60-44.18 0-80-26.86-80-60s35.82-60 80-60c44.2 0 80 26.86 80 60z" stroke="#3a414a" fill="#fff"/><use xlink:href="#m" transform="matrix(1,0,0,1,-669.915872861141,-1200) translate(16.679999999999986 63.15)"/><use xlink:href="#t" transform="matrix(1,0,0,1,-669.915872861141,-1200) translate(88.53 63.15)"/><path d="M-290-1136.44c0 33.14-35.82 60-80 60s-80-26.86-80-60 35.82-60 80-60 80 26.86 80 60z" stroke="#3a414a" fill="#fff"/><use xlink:href="#k" transform="matrix(1,0,0,1,-449.99999999999955,-1196.4380747744926) translate(46.58 40.65)"/><use xlink:href="#u" transform="matrix(1,0,0,1,-449.99999999999955,-1196.4380747744926) translate(27.07999999999999 62.25)"/><use xlink:href="#v" transform="matrix(1,0,0,1,-449.99999999999955,-1196.4380747744926) translate(122.93 62.25)"/><use xlink:href="#w" transform="matrix(1,0,0,1,-449.99999999999955,-1196.4380747744926) translate(61.05500000000001 83.85000000000001)"/><path d="M-398.15-666.2c0 33.13-35.82 60-80 60-44.2 0-80-26.87-80-60 0-33.14 35.8-60 80-60 44.18 0 80 26.86 80 60z" stroke="#3a414a" fill="#fff"/><use xlink:href="#m" transform="matrix(1,0,0,1,-558.1523782895065,-726.2048880932816) translate(11.329999999999993 63.15)"/><use xlink:href="#x" transform="matrix(1,0,0,1,-558.1523782895065,-726.2048880932816) translate(83.18 63.15)"/><path d="M-477.65-1003.1h-1v-1.63h1zm-.02-3.8h-1v-3.3h1zm0-5.48h-1l-.02-3.27h1zm-.03-5.46h-1v-3.27l1-.02zm-.27-8.17l.24 1v1.7h-1v-1.58l-.2-.82-.1-.27.92-.38zm-2.36-3.26l.77.66.55.64-.77.65-.5-.6-.65-.55-.65-.4.52-.85zm-3.8-1.24l1 .08.35.08-.23.98-.3-.07-.87-.07h-1.5v-1zm-3.55 0v1h-3.02v-1zm-5.03 0v1h-3.03v-1zm-5.05 0v1h-.45v-1zm-78.32-.07v1h-.23v-1zm-2.24 0v1h-3.03v-1zm-7.3-.2l.8.2h1.46v1h-1.57l-1.02-.25-.35-.14.4-.92zm-2.76-2l.56.66.57.48-.64.76-.64-.54-.68-.78-.43-.7.84-.54zm-1.06-3.25l.07.88.07.28-.97.24-.1-.36-.07-1v-1.45h1zm0-3.32h-1v-2.87h1zm0-4.78h-1v-2.87h1zm0-4.78h-1v-2.87h1zm0-4.78h-1v-2.86h1zm0-4.78h-1v-2.86h1zm0-4.77h-1v-2.87h1zm0-4.78h-1v-2.88h1zm0-4.8h-1v-2.86h1zm0-4.77h-1v-1.43h1z" stroke="#3a414a" stroke-width=".05" fill="#3a414a"/><path d="M-589.92-1079.5h.5v.5h-1v-.52z" fill="#3a414a"/><path d="M-589.92-1079.52h.53v.56h-1.04v-.58zm-.47.5h.96v-.46h-.95z" stroke="#3a414a" stroke-width=".05" fill="#3a414a"/><path d="M-478.15-988.32l-4.64-14.27h9.28z" fill="#3a414a"/><path d="M-478.15-986.7l-5.33-16.4h10.65zm-3.95-15.4l3.95 12.16 3.94-12.15z" stroke="#3a414a" stroke-width=".05" fill="#3a414a"/><use xlink:href="#p" transform="matrix(1,0,0,1,-576.0748412292346,-1040.6666666666667) translate(0.005000000000002558 14.222222222222223)"/><path d="M-477.65-1004.48v1.4h-1v-1.4zm.02-4.63v2.77h-1v-2.78zm0-4.65v2.78h-1v-2.78zm.03-4.63v2.78h-1v-2.78zm0-4.63v2.77h-1v-2.8zm.33-4.3l-.1.28-.2.82v1.33h-1v-1.45l.23-1 .15-.35zm2.53-2.87l-.64.4-.66.56-.5.57-.75-.65.55-.64.78-.66.7-.44zm4.12-.65h-1.5l-.9.07-.27.07-.23-.98.36-.08 1-.08h1.55zm5.1 0h-3.05v-1h3.06zm5.12 0h-3.06v-1h3.06zm5.1 0h-3.05v-1h3.06zm2.64-.02h-.58v-1h.58zm79-.44l-.33.14-.78.2v-1.04l.48-.1.27-.12zm3.36-2.94l-.44.72-.66.78-.64.54-.65-.76.6-.5.55-.65.4-.64zm.8-3.08l-.08 1-.08.35-.98-.23.07-.28.07-.88v-1.4h1zm0-3.36h-1v-2.86h1zm0-4.76h-1v-2.86h1zm0-4.77h-1v-2.84h1zm0-4.75h-1v-2.86h1zm0-4.76h-1v-2.87h1zm0-4.78h-1v-2.86h1zm0-4.76h-1v-2.86h1zm0-4.77h-1v-1.44h1z" stroke="#3a414a" stroke-width=".05" fill="#3a414a"/><path d="M-370-1075.94h.5v.5h-1v-.5z" fill="#3a414a"/><path d="M-370-1075.96h.52v.56h-1.04v-.58zm-.48.5h.96v-.46h-.96z" stroke="#3a414a" stroke-width=".05" fill="#3a414a"/><path d="M-478.15-988.32l-4.64-14.27h9.28z" fill="#3a414a"/><path d="M-478.15-986.7l-5.33-16.4h10.65zm-3.95-15.4l3.95 12.16 3.94-12.15z" stroke="#3a414a" stroke-width=".05" fill="#3a414a"/><use xlink:href="#p" transform="matrix(1,0,0,1,-452.66023552845144,-1041.9881481028856) translate(0.005000000000002558 14.222222222222223)"/><path d="M-477.65-727.2h-1v-1.52h1zm0-3.54h-1v-3.03h1zm0-5.05h-1v-3.02h1zm0-5.03h-1v-3.03h1zm0-25.54h-1v-2.73h1zm0-4.75h-1v-3.03h1zm0-5.05h-1v-3.03h1zm0-5.05h-1v-3.03h1zm0-5.05h-1v-3.02h1zm0-5.04h-1v-3.04h1zm0-5.06h-1v-3.03h1zm0-5.05h-1v-3.04h1zm0-5.06h-1v-3.03h1zm0-5.05h-1v-3.03h1zm0-5.05h-1v-3.03h1zm0-5.05h-1v-1.52h1z" stroke="#3a414a" stroke-width=".05" fill="#3a414a"/><path d="M-477.65-726.7h-1v-.52h1z" fill="#3a414a"/><path d="M-477.63-726.66l-.52-.02h-.53v-.56h1.05zm-1-.53v.47h.95v-.46z" stroke="#3a414a" stroke-width=".05" fill="#3a414a"/><path d="M-473.52-823.62h-9.27l4.65-14.26z" fill="#3a414a"/><path d="M-472.83-823.12h-10.65l5.33-16.38zm-9.27-1h7.9l-3.95-12.14z" stroke="#3a414a" stroke-width=".05" fill="#3a414a"/><use xlink:href="#p" transform="matrix(1,0,0,1,-517.0906498944448,-766.3706036745417) translate(0.005000000000002558 14.222222222222223)"/><path d="M-1276.35-913.1c0 40.37-35.8 73.1-80 73.1-44.18 0-80-32.73-80-73.1 0-40.38 35.82-73.1 80-73.1 44.2 0 80 32.72 80 73.1z" stroke="#3a414a" fill="#fff"/><use xlink:href="#y" transform="matrix(1,0,0,1,-1436.3457056311277,-986.2048880932816) translate(46.57999999999999 64.93125)"/><use xlink:href="#z" transform="matrix(1,0,0,1,-1436.3457056311277,-986.2048880932816) translate(38.57999999999999 86.53125)"/><path d="M-1098.22-912.6h-1.5v-1h1.5zm-3.53 0h-3.02v-1h3.02zm-5.03 0h-3.03v-1h3.02zm-5.04 0h-3.03v-1h3.03zm-5.04 0h-3.03v-1h3.04zm-5.04 0h-3.02v-1h3.02zm-5.04 0h-3.02v-1h3.02zm-5.04 0h-3.02v-1h3.02zm-5.04 0h-3.02v-1h3.02zm-5.04 0h-3.02v-1h3.02zm-85.66 0h-3.02v-1h3.02zm-5.04 0h-3.02v-1h3.02zm-5.03 0h-3.02v-1h3.03zm-5.03 0h-3.03v-1h3.03zm-5.04 0h-3.03v-1h3.03zm-5.04 0h-3.03v-1h3.02zm-5.05 0h-1.5v-1h1.5zm110.85 0h-.74v-1h.74z" stroke="#3a414a" stroke-width=".05" fill="#3a414a"/><path d="M-1097.72-913.1v.5h-.5v-1h.52z" fill="#3a414a"/><path d="M-1097.7-913.1v.52h-.56v-1.05h.58zm-.5-.48v.95h.46v-.96z" stroke="#3a414a" stroke-width=".05" fill="#3a414a"/><path d="M-1259.96-908.47l-14.27-4.63 14.27-4.64z" fill="#3a414a"/><path d="M-1259.46-907.78l-16.4-5.32 16.4-5.33zm-13.15-5.32l12.14 3.94v-7.9z" stroke="#3a414a" stroke-width=".05" fill="#3a414a"/><use xlink:href="#p" transform="matrix(1,0,0,1,-1225.7204122793285,-923.7691107357265) translate(0.005000000000002558 14.222222222222223)"/><path d="M-1437.35-913.1h-192.95" stroke="#3a414a" fill="none"/><path d="M-1436.85-913.1v.5h-.5v-1h.52z" stroke="#3a414a" stroke-width=".05" fill="#3a414a"/><path d="M-1630.28-913.1h-3.52M-1654.84-924.17H-1734a6 6 0 0 0-6 6V-276a6 6 0 0 0 6 6h103.03" stroke="#3a414a" fill="none"/><path d="M-1632.82-924.17l-21.52 12.73v-25.46z" stroke="#3a414a" fill="#fff"/><path d="M-1630.98-270h3.5" stroke="#3a414a" fill="none"/><path d="M-936.42-270c0 40.37-35.82 73.1-80 73.1s-80-32.73-80-73.1 35.82-73.1 80-73.1 80 32.73 80 73.1z" stroke="#3a414a" fill="#fff"/><use xlink:href="#g" transform="matrix(1,0,0,1,-1096.4203706580274,-343.1024440466408) translate(50.58 46.55625)"/><use xlink:href="#A" transform="matrix(1,0,0,1,-1096.4203706580274,-343.1024440466408) translate(30.10499999999999 68.15625)"/><use xlink:href="#B" transform="matrix(1,0,0,1,-1096.4203706580274,-343.1024440466408) translate(24.57999999999999 89.75625000000001)"/><use xlink:href="#i" transform="matrix(1,0,0,1,-1096.4203706580274,-343.1024440466408) translate(111.48 89.75625000000001)"/><use xlink:href="#j" transform="matrix(1,0,0,1,-1096.4203706580274,-343.1024440466408) translate(38.58 111.35625000000002)"/><path d="M-397.35-270c0 40.37-35.82 73.1-80 73.1-44.2 0-80-32.73-80-73.1s35.8-73.1 80-73.1c44.18 0 80 32.73 80 73.1z" stroke="#3a414a" fill="#fff"/><use xlink:href="#g" transform="matrix(1,0,0,1,-557.3541732296808,-343.1024440466408) translate(50.57999999999999 27.41)"/><use xlink:href="#q" transform="matrix(1,0,0,1,-557.3541732296808,-343.1024440466408) translate(56.05499999999999 49.01)"/><use xlink:href="#r" transform="matrix(1,0,0,1,-557.3541732296808,-343.1024440466408) translate(31.62999999999999 70.61)"/><use xlink:href="#C" transform="matrix(1,0,0,1,-557.3541732296808,-343.1024440466408) translate(42.07999999999999 92.21000000000001)"/><use xlink:href="#D" transform="matrix(1,0,0,1,-557.3541732296808,-343.1024440466408) translate(37.355000000000004 113.81)"/><path d="M-918.03-269.5h-1.5v-1h1.5zm5 0h-3v-1h3zm5.03 0h-3v-1h3zm5.02 0h-3v-1h3zm5 0h-3v-1h3zm5.03 0h-3v-1h3zm5.02 0h-3v-1h3zm5 0h-3v-1h3zm5.03 0h-3v-1h3zm5.02 0h-3v-1h3zm5 0h-3v-1h3zm5.03 0h-3v-1h3zm5.02 0h-3v-1h3zm5 0h-3v-1h3zm5.03 0h-3v-1h3zm5 0h-3v-1h3zm5.03 0h-3v-1h3zm5.02 0h-3v-1h3zm5 0h-3v-1h3zm5.03 0h-3v-1h3zm5.02 0h-3v-1h3zm5 0h-3v-1h3zm5.03 0h-3v-1h3zm5.02 0h-3v-1h3zm5 0h-3v-1h3zm5.03 0h-3v-1h3zm5.02 0h-3v-1h3zm85.27 0h-3v-1h3zm5.02 0h-3.02v-1h3zm5 0h-3v-1h3zm5.02 0h-3v-1h3zm5.02 0h-3v-1h3zm5.02 0h-3v-1h3zm5 0h-3v-1h3zm5.03 0h-3.02v-1h3zm5 0h-3v-1h3zm5.02 0h-3v-1h3zm5.02 0h-3v-1h3zm5.02 0h-3v-1h3zm5 0h-3v-1h3zm5.03 0h-3.02v-1h3zm5 0h-3v-1h3zm5.02 0h-3v-1h3zm5.02 0h-3v-1h3zm5 0h-3v-1h3zm5.03 0h-3v-1h3zm5.02 0h-3.02v-1h3zm5 0h-3v-1h3zm5.02 0h-3v-1h3zm5.02 0h-3v-1h3zm5 0h-3v-1h3zm5.03 0h-3v-1h3zm5.02 0h-3.02v-1h3zm5 0h-3v-1h3zm5.02 0h-3v-1h3zm5 0h-3v-1h3zm3.53 0h-1.5v-1h1.5zm-149 0h-.6v-1h.6z" stroke="#3a414a" stroke-width=".05" fill="#3a414a"/><path d="M-920.04-265.36L-934.3-270l14.26-4.64z" fill="#3a414a"/><path d="M-919.54-264.68l-16.38-5.32 16.38-5.32zm-13.14-5.32l12.14 3.95v-7.9z" stroke="#3a414a" stroke-width=".05" fill="#3a414a"/><path d="M-557.85-270v.5h-.52v-1h.53z" fill="#3a414a"/><path d="M-557.83-270v.52h-.56v-1.04h.6zm-.5-.48v.96h.45v-.5l.02-.46z" stroke="#3a414a" stroke-width=".05" fill="#3a414a"/><use xlink:href="#p" transform="matrix(1,0,0,1,-785.8255435486922,-280.6666666890839) translate(0.005000000000002558 14.222222222222223)"/><path d="M-1275.55-270c0 40.37-35.8 73.1-80 73.1-44.18 0-80-32.73-80-73.1s35.82-73.1 80-73.1c44.2 0 80 32.73 80 73.1z" stroke="#3a414a" fill="#fff"/><use xlink:href="#m" transform="matrix(1,0,0,1,-1435.5475005713015,-343.1024440466408) translate(39.07999999999999 55.74375)"/><use xlink:href="#E" transform="matrix(1,0,0,1,-1435.5475005713015,-343.1024440466408) translate(110.93 55.74375)"/><use xlink:href="#F" transform="matrix(1,0,0,1,-1435.5475005713015,-343.1024440466408) translate(41.05499999999999 77.34375)"/><use xlink:href="#z" transform="matrix(1,0,0,1,-1435.5475005713015,-343.1024440466408) translate(38.58 98.94375000000001)"/><path d="M-1097.42-269.5h-1.5v-1h1.5zm-3.53 0h-3.02v-1h3.02zm-5.04 0h-3v-1h3zm-5.03 0h-3.02v-1h3.02zm-5.03 0h-3.03v-1h3.04zm-5.04 0h-3.03v-1h3.03zm-5.04 0h-3.03v-1h3.03zm-5.04 0h-3.02v-1h3.02zm-5.04 0h-3.02v-1h3.02zm-5.04 0h-3.02v-1h3.02zm-85.66 0h-3.02v-1h3.02zm-5.04 0h-3.02v-1h3.02zm-5.04 0h-3.02v-1h3.02zm-5.04 0h-3.02v-1h3.02zm-5.03 0h-3.03v-1h3.03zm-5.04 0h-3.04v-1h3.03zm-5.05 0h-1.5v-1h1.5zm110.85 0h-.75v-1h.75z" stroke="#3a414a" stroke-width=".05" fill="#3a414a"/><path d="M-1096.92-270v.5h-.5v-1h.5z" fill="#3a414a"/><path d="M-1096.9-270v.52h-.56v-1.04h.58zm-.5-.48v.96h.46v-.96z" stroke="#3a414a" stroke-width=".05" fill="#3a414a"/><path d="M-1259.16-265.36l-14.27-4.64 14.27-4.64z" fill="#3a414a"/><path d="M-1258.66-264.68l-16.4-5.32 16.4-5.32zm-13.15-5.32l12.14 3.95v-7.9z" stroke="#3a414a" stroke-width=".05" fill="#3a414a"/><use xlink:href="#p" transform="matrix(1,0,0,1,-1224.9222072195028,-280.66666668908573) translate(0.005000000000002558 14.222222222222223)"/><path d="M-1436.55-270h-192.4" stroke="#3a414a" fill="none"/><path d="M-1436.05-270v.5h-.5v-1h.52z" stroke="#3a414a" stroke-width=".05" fill="#3a414a"/><path d="M-1628.95-270h-3.5" stroke="#3a414a" fill="none"/><path d="M-1060-480c0 33.14-35.82 60-80 60s-80-26.86-80-60 35.82-60 80-60 80 26.86 80 60z" stroke="#3a414a" fill="#fff"/><use xlink:href="#m" transform="matrix(1,0,0,1,-1220,-540) translate(21.604999999999997 51.9)"/><use xlink:href="#G" transform="matrix(1,0,0,1,-1220,-540) translate(93.45500000000001 51.9)"/><use xlink:href="#j" transform="matrix(1,0,0,1,-1220,-540) translate(38.57999999999999 73.5)"/><path d="M-936.42-60c0 33.14-35.82 60-80 60s-80-26.86-80-60 35.82-60 80-60 80 26.86 80 60z" stroke="#3a414a" fill="#fff"/><g><use xlink:href="#H" transform="matrix(1,0,0,1,-1096.4203706580274,-120) translate(46.57999999999999 29.4)"/><use xlink:href="#I" transform="matrix(1,0,0,1,-1096.4203706580274,-120) translate(22.604999999999997 51)"/><use xlink:href="#J" transform="matrix(1,0,0,1,-1096.4203706580274,-120) translate(59.504999999999995 51)"/><use xlink:href="#K" transform="matrix(1,0,0,1,-1096.4203706580274,-120) translate(78.455 51)"/><use xlink:href="#L" transform="matrix(1,0,0,1,-1096.4203706580274,-120) translate(127.405 51)"/><use xlink:href="#M" transform="matrix(1,0,0,1,-1096.4203706580274,-120) translate(14.62999999999999 72.60000000000001)"/><use xlink:href="#N" transform="matrix(1,0,0,1,-1096.4203706580274,-120) translate(42.57999999999999 72.60000000000001)"/><use xlink:href="#O" transform="matrix(1,0,0,1,-1096.4203706580274,-120) translate(57.57999999999999 72.60000000000001)"/><use xlink:href="#P" transform="matrix(1,0,0,1,-1096.4203706580274,-120) translate(137.48000000000002 72.60000000000001)"/><use xlink:href="#Q" transform="matrix(1,0,0,1,-1096.4203706580274,-120) translate(38.57999999999999 94.20000000000002)"/></g><path d="M-1015.92-360l-1 .02v-1.65h1zm-.02-3.84h-1v-3.3h1zm-.02-5.5h-1l-.02-3.3h1zm-.28-8.22l.25 1v1.72h-1v-1.6l-.2-.8-.1-.28.92-.38zm-2.36-3.25l.78.65.54.64-.76.64-.5-.58-.65-.56-.64-.4.53-.85zm-3.8-1.25l1 .08.36.08-.24 1-.28-.08-.88-.07h-1.45v-1zm-3.44 0v1h-2.94v-1zm-4.9 0v1h-2.93v-1zm-4.9 0v1h-2.92v-1zm-4.88 0v1l-2.94-.02v-1zm-4.9-.02v1h-2.93v-1zm-4.88 0v1h-2.94v-1zm-4.9 0v1h-2.93v-1zm-81.1.6l-.05-.04.06-.15zm-2.15-2.85l.56.66.6.5-.66.75-.64-.55-.66-.78-.44-.72.85-.52zm-1.05-3.25l.07.88.07.3-.98.22-.08-.35-.08-1v-1.6h1zm0-3.65h-1v-3.15h1zm0-5.24h-1v-3.15h1zm0-5.24h-1v-3.15h1zm0-5.24h-1v-3.15h1zm0-5.25h-1v-3.13h1zm0-5.23h-1V-419h1z" stroke="#3a414a" stroke-width=".05" fill="#3a414a"/><path d="M-1140-419.5h.5v.5h-1v-.52z" fill="#3a414a"/><path d="M-1140-419.52h.53v.56h-1.06v-.58zm-.47.5h.94v-.46h-.95z" stroke="#3a414a" stroke-width=".05" fill="#3a414a"/><path d="M-1016.42-345.22l-4.64-14.27h9.27z" fill="#3a414a"/><path d="M-1016.42-343.6l-5.32-16.4h10.64zm-3.95-15.4l3.95 12.16 3.95-12.15z" stroke="#3a414a" stroke-width=".05" fill="#3a414a"/><g><use xlink:href="#p" transform="matrix(1,0,0,1,-1136.2906319919712,-392.2178886923188) translate(0 14.222222222222223)"/></g><path d="M-1015.92-121h-1v-1.48h1zm0-3.44h-1v-2.95h1zm0-4.92h-1v-2.95h1zm0-4.92h-1v-2.95h1zm0-4.92h-1v-2.95h1zm0-4.9h-1v-2.96h1zm0-4.93h-1v-2.95h1zm0-4.92h-1v-.55h1zm0-21.88h-1v-.74h1zm0-2.7h-1v-1.48h1z" stroke="#3a414a" stroke-width=".05" fill="#3a414a"/><path d="M-1011.8-180.5h-9.26l4.64-14.28z" fill="#3a414a"/><path d="M-1011.1-180h-10.64l5.32-16.4zm-9.27-1h7.9l-3.95-12.16z" stroke="#3a414a" stroke-width=".05" fill="#3a414a"/><path d="M-1015.92-120.48l-.5-.02h-.5v-.5h1z" fill="#3a414a"/><path d="M-1015.9-120.46l-.5-.02h-.55v-.56h1.05zm-1-.53v.48h.95v-.47z" stroke="#3a414a" stroke-width=".05" fill="#3a414a"/><g><use xlink:href="#p" transform="matrix(1,0,0,1,-1055.3586422629658,-175.83107870718044) translate(0 14.222222222222223)"/></g><path d="M-393.18-480c0 33.14-35.82 60-80 60-44.2 0-80-26.86-80-60s35.8-60 80-60c44.18 0 80 26.86 80 60z" stroke="#3a414a" fill="#fff"/><g><use xlink:href="#m" transform="matrix(1,0,0,1,-553.1844501860251,-540) translate(22.10499999999999 63.15)"/><use xlink:href="#R" transform="matrix(1,0,0,1,-553.1844501860251,-540) translate(93.95500000000001 63.15)"/></g><path d="M-397.35-60c0 33.14-35.82 60-80 60-44.2 0-80-26.86-80-60s35.8-60 80-60c44.18 0 80 26.86 80 60z" stroke="#3a414a" fill="#fff"/><g><use xlink:href="#m" transform="matrix(1,0,0,1,-557.3541732296808,-120) translate(15.62999999999999 63.15)"/><use xlink:href="#S" transform="matrix(1,0,0,1,-557.3541732296808,-120) translate(87.48 63.15)"/></g><path d="M-472.68-359.6h-1v-1.5h1zm0-3.47h-1v-2.97h1zm0-4.95h-1V-371h1zm0-4.95h-1v-2.97h1zm0-4.95h-1v-2.97h1zm0-4.95h-1v-2.97h1zm0-25.16h-1v-2.56h1zm0-4.54h-1v-2.97h1zm0-4.95h-1V-419h1z" stroke="#3a414a" stroke-width=".05" fill="#3a414a"/><path d="M-473.2-419.5h.52v.5h-1v-.52z" fill="#3a414a"/><path d="M-473.2-419.52h.54v.56h-1.05v-.58zm-.46.5h.95v-.46h-.96z" stroke="#3a414a" stroke-width=".05" fill="#3a414a"/><path d="M-472.84-345.22l-4.98-14.15 9.27-.22z" fill="#3a414a"/><path d="M-472.8-343.6l-5.72-16.26 10.65-.25zm-4.32-15.3l4.24 12.06 3.66-12.24z" stroke="#3a414a" stroke-width=".05" fill="#3a414a"/><g><use xlink:href="#p" transform="matrix(1,0,0,1,-512.1227217909634,-408.02606746665714) translate(0.005000000000002558 14.222222222222223)"/></g><path d="M-476.85-121h-1v-1.48h1zm0-3.44h-1v-2.95h1zm0-4.92h-1v-2.95h1zm0-4.92h-1v-2.95h1zm0-4.92h-1v-2.95h1zm0-24.58h-1v-2.96h1zm0-4.92h-1v-2.95h1zm0-4.92h-1v-2.95h1zm0-4.92h-1V-180h1z" stroke="#3a414a" stroke-width=".05" fill="#3a414a"/><path d="M-476.85-120.48l-.5-.02h-.5v-.5h1z" fill="#3a414a"/><path d="M-476.83-120.46l-.52-.02h-.53v-.56h1.05zm-1-.53v.48h.95v-.47z" stroke="#3a414a" stroke-width=".05" fill="#3a414a"/><path d="M-472.72-180.5H-482l4.65-14.28z" fill="#3a414a"/><path d="M-472.03-180h-10.65l5.33-16.4zm-9.27-1h7.9l-3.95-12.16z" stroke="#3a414a" stroke-width=".05" fill="#3a414a"/><g><use xlink:href="#p" transform="matrix(1,0,0,1,-516.2924448346191,-163.76292012006505) translate(0.005000000000002558 14.222222222222223)"/></g><path d="M-820-480c0 33.14-35.82 60-80 60s-80-26.86-80-60 35.82-60 80-60 80 26.86 80 60z" stroke="#3a414a" fill="#fff"/><g><use xlink:href="#T" transform="matrix(1,0,0,1,-980,-540) translate(43.629999999999995 51.9)"/><use xlink:href="#j" transform="matrix(1,0,0,1,-980,-540) translate(38.57999999999999 73.5)"/></g><path d="M-1015.92-360h-1v-1.54h1zm0-3.62h-1v-3.1h1zm0-5.2h-1v-3.1h1zm.14-7.87l-.07.3-.07.87v1.54h-1v-1.57l.08-1 .08-.36zm2.05-3.23l-.58.5-.57.65-.4.65-.85-.53.44-.7.66-.8.64-.53zm3.88-1.05h-1.45l-.82.2-.27.1-.37-.9.34-.15 1-.25h1.58zm5 0h-3v-1h3zm5.03 0h-3v-1h3zm2.67 0h-.66v-1h.65zm82.62-.07h-3v-1h3zm5.02 0h-3.02v-1h3zm4.88-.17l-.36.1-1 .07h-1.52v-1h1.48l.88-.07.28-.07zm3.76-2.37l-.54.65-.78.66-.7.45-.54-.86.65-.4.66-.56.48-.58zm1.3-4.63v1.68l-.26 1-.14.35-.92-.38.1-.27.2-.82v-1.56zm0-5.4v3.24h-1v-3.23zm0-5.4v3.24h-1v-3.23zm.03-5.4v3.24h-1v-3.23zm0-5.4v3.25h-1v-3.24zm.02-5.4l-.02 3.25h-1v-3.24zm0-3.77v1.62h-1V-419z" stroke="#3a414a" stroke-width=".05" fill="#3a414a"/><path d="M-1016.42-345.22l-4.64-14.27h9.27z" fill="#3a414a"/><path d="M-1016.42-343.6l-5.32-16.4h10.64zm-3.95-15.4l3.95 12.16 3.95-12.15z" stroke="#3a414a" stroke-width=".05" fill="#3a414a"/><path d="M-900-419.5h.5v.5h-1v-.52z" fill="#3a414a"/><path d="M-900-419.52h.52v.56h-1.04v-.58zm-.48.5h.96v-.46h-.96z" stroke="#3a414a" stroke-width=".05" fill="#3a414a"/><g><use xlink:href="#p" transform="matrix(1,0,0,1,-997.148456933952,-392.2178886923188) translate(0.005000000000002558 14.222222222222223)"/></g><defs><path fill="#3a414a" d="M232-93c-1 65-40 97-104 97C67 4 28-28 28-90v-158h33c8 89-33 224 67 224 102 0 64-133 71-224h33v155" id="U"/><path fill="#3a414a" d="M59-47c-2 24 18 29 38 22v24C64 9 27 4 27-40v-127H5v-23h24l9-43h21v43h35v23H59v120" id="V"/><path fill="#3a414a" d="M100-194c63 0 86 42 84 106H49c0 40 14 67 53 68 26 1 43-12 49-29l28 8c-11 28-37 45-77 45C44 4 14-33 15-96c1-61 26-98 85-98zm52 81c6-60-76-77-97-28-3 7-6 17-6 28h103" id="W"/><path fill="#3a414a" d="M117-194c89-4 53 116 60 194h-32v-121c0-31-8-49-39-48C34-167 62-67 57 0H25l-1-190h30c1 10-1 24 2 32 11-22 29-35 61-36" id="X"/><g id="a"><use transform="matrix(0.06172839506172839,0,0,0.06172839506172839,0,0)" xlink:href="#U"/><use transform="matrix(0.06172839506172839,0,0,0.06172839506172839,15.987654320987653,0)" xlink:href="#V"/><use transform="matrix(0.06172839506172839,0,0,0.06172839506172839,22.160493827160494,0)" xlink:href="#W"/><use transform="matrix(0.06172839506172839,0,0,0.06172839506172839,34.50617283950617,0)" xlink:href="#X"/><use transform="matrix(0.06172839506172839,0,0,0.06172839506172839,46.85185185185185,0)" xlink:href="#V"/><use transform="matrix(0.06172839506172839,0,0,0.06172839506172839,53.02469135802469,0)" xlink:href="#W"/></g><path fill="#3a414a" d="M141-36C126-15 110 5 73 4 37 3 15-17 15-53c-1-64 63-63 125-63 3-35-9-54-41-54-24 1-41 7-42 31l-33-3c5-37 33-52 76-52 45 0 72 20 72 64v82c-1 20 7 32 28 27v20c-31 9-61-2-59-35zM48-53c0 20 12 33 32 33 41-3 63-29 60-74-43 2-92-5-92 41" id="Y"/><path fill="#3a414a" d="M84 4C-5 8 30-112 23-190h32v120c0 31 7 50 39 49 72-2 45-101 50-169h31l1 190h-30c-1-10 1-25-2-33-11 22-28 36-60 37" id="Z"/><path fill="#3a414a" d="M24-231v-30h32v30H24zM24 0v-190h32V0H24" id="aa"/><path fill="#3a414a" d="M96-169c-40 0-48 33-48 73s9 75 48 75c24 0 41-14 43-38l32 2c-6 37-31 61-74 61-59 0-76-41-82-99-10-93 101-131 147-64 4 7 5 14 7 22l-32 3c-4-21-16-35-41-35" id="ab"/><path fill="#3a414a" d="M100-194c62-1 85 37 85 99 1 63-27 99-86 99S16-35 15-95c0-66 28-99 85-99zM99-20c44 1 53-31 53-75 0-43-8-75-51-75s-53 32-53 75 10 74 51 75" id="ac"/><g id="b"><use transform="matrix(0.06172839506172839,0,0,0.06172839506172839,0,0)" xlink:href="#Y"/><use transform="matrix(0.06172839506172839,0,0,0.06172839506172839,12.345679012345679,0)" xlink:href="#Z"/><use transform="matrix(0.06172839506172839,0,0,0.06172839506172839,24.691358024691358,0)" xlink:href="#V"/><use transform="matrix(0.06172839506172839,0,0,0.06172839506172839,30.864197530864196,0)" xlink:href="#W"/><use transform="matrix(0.06172839506172839,0,0,0.06172839506172839,43.20987654320987,0)" xlink:href="#X"/><use transform="matrix(0.06172839506172839,0,0,0.06172839506172839,55.55555555555555,0)" xlink:href="#V"/><use transform="matrix(0.06172839506172839,0,0,0.06172839506172839,61.72839506172839,0)" xlink:href="#aa"/><use transform="matrix(0.06172839506172839,0,0,0.06172839506172839,66.60493827160494,0)" xlink:href="#ab"/><use transform="matrix(0.06172839506172839,0,0,0.06172839506172839,77.71604938271605,0)" xlink:href="#Y"/><use transform="matrix(0.06172839506172839,0,0,0.06172839506172839,90.06172839506173,0)" xlink:href="#V"/><use transform="matrix(0.06172839506172839,0,0,0.06172839506172839,96.23456790123457,0)" xlink:href="#ac"/></g><path fill="#3a414a" d="M135-143c-3-34-86-38-87 0 15 53 115 12 119 90S17 21 10-45l28-5c4 36 97 45 98 0-10-56-113-15-118-90-4-57 82-63 122-42 12 7 21 19 24 35" id="ad"/><path fill="#3a414a" d="M85-194c31 0 48 13 60 33l-1-100h32l1 261h-30c-2-10 0-23-3-31C134-8 116 4 85 4 32 4 16-35 15-94c0-66 23-100 70-100zm9 24c-40 0-46 34-46 75 0 40 6 74 45 74 42 0 51-32 51-76 0-42-9-74-50-73" id="ae"/><path fill="#3a414a" d="M114-163C36-179 61-72 57 0H25l-1-190h30c1 12-1 29 2 39 6-27 23-49 58-41v29" id="af"/><g id="c"><use transform="matrix(0.06172839506172839,0,0,0.06172839506172839,0,0)" xlink:href="#ad"/><use transform="matrix(0.06172839506172839,0,0,0.06172839506172839,11.11111111111111,0)" xlink:href="#V"/><use transform="matrix(0.06172839506172839,0,0,0.06172839506172839,17.28395061728395,0)" xlink:href="#Y"/><use transform="matrix(0.06172839506172839,0,0,0.06172839506172839,29.629629629629626,0)" xlink:href="#X"/><use transform="matrix(0.06172839506172839,0,0,0.06172839506172839,41.9753086419753,0)" xlink:href="#ae"/><use transform="matrix(0.06172839506172839,0,0,0.06172839506172839,54.32098765432098,0)" xlink:href="#Y"/><use transform="matrix(0.06172839506172839,0,0,0.06172839506172839,66.66666666666666,0)" xlink:href="#af"/><use transform="matrix(0.06172839506172839,0,0,0.06172839506172839,74.01234567901234,0)" xlink:href="#ae"/></g><g id="d"><use transform="matrix(0.06172839506172839,0,0,0.06172839506172839,0,0)" xlink:href="#X"/><use transform="matrix(0.06172839506172839,0,0,0.06172839506172839,12.345679012345679,0)" xlink:href="#ac"/><use transform="matrix(0.06172839506172839,0,0,0.06172839506172839,24.691358024691358,0)" xlink:href="#X"/></g><g id="e"><use transform="matrix(0.06172839506172839,0,0,0.06172839506172839,0,0)" xlink:href="#Y"/><use transform="matrix(0.06172839506172839,0,0,0.06172839506172839,12.345679012345679,0)" xlink:href="#Z"/><use transform="matrix(0.06172839506172839,0,0,0.06172839506172839,24.691358024691358,0)" xlink:href="#V"/><use transform="matrix(0.06172839506172839,0,0,0.06172839506172839,30.864197530864196,0)" xlink:href="#W"/><use transform="matrix(0.06172839506172839,0,0,0.06172839506172839,43.20987654320987,0)" xlink:href="#X"/><use transform="matrix(0.06172839506172839,0,0,0.06172839506172839,55.55555555555555,0)" xlink:href="#V"/><use transform="matrix(0.06172839506172839,0,0,0.06172839506172839,61.72839506172839,0)" xlink:href="#aa"/><use transform="matrix(0.06172839506172839,0,0,0.06172839506172839,66.60493827160494,0)" xlink:href="#ab"/><use transform="matrix(0.06172839506172839,0,0,0.06172839506172839,77.71604938271605,0)" xlink:href="#Y"/><use transform="matrix(0.06172839506172839,0,0,0.06172839506172839,90.06172839506173,0)" xlink:href="#V"/><use transform="matrix(0.06172839506172839,0,0,0.06172839506172839,96.23456790123457,0)" xlink:href="#ac"/></g><path d="M85-194c31 0 48 13 60 33l-1-100h32l1 261h-30c-2-10 0-23-3-31C134-8 116 4 85 4 32 4 16-35 15-94c0-66 23-100 70-100zm9 24c-40 0-46 34-46 75 0 40 6 74 45 74 42 0 51-32 51-76 0-42-9-74-50-73" id="ag"/><path d="M100-194c63 0 86 42 84 106H49c0 40 14 67 53 68 26 1 43-12 49-29l28 8c-11 28-37 45-77 45C44 4 14-33 15-96c1-61 26-98 85-98zm52 81c6-60-76-77-97-28-3 7-6 17-6 28h103" id="ah"/><path d="M101-234c-31-9-42 10-38 44h38v23H63V0H32v-167H5v-23h27c-7-52 17-82 69-68v24" id="ai"/><path d="M24-231v-30h32v30H24zM24 0v-190h32V0H24" id="aj"/><path d="M117-194c89-4 53 116 60 194h-32v-121c0-31-8-49-39-48C34-167 62-67 57 0H25l-1-190h30c1 10-1 24 2 32 11-22 29-35 61-36" id="ak"/><path d="M114-163C36-179 61-72 57 0H25l-1-190h30c1 12-1 29 2 39 6-27 23-49 58-41v29" id="al"/><g id="g"><use transform="matrix(0.05,0,0,0.05,0,0)" xlink:href="#ag"/><use transform="matrix(0.05,0,0,0.05,10,0)" xlink:href="#ah"/><use transform="matrix(0.05,0,0,0.05,20,0)" xlink:href="#ai"/><use transform="matrix(0.05,0,0,0.05,25,0)" xlink:href="#aj"/><use transform="matrix(0.05,0,0,0.05,28.950000000000003,0)" xlink:href="#ak"/><use transform="matrix(0.05,0,0,0.05,38.95,0)" xlink:href="#aj"/><use transform="matrix(0.05,0,0,0.05,42.900000000000006,0)" xlink:href="#al"/><use transform="matrix(0.05,0,0,0.05,48.85000000000001,0)" xlink:href="#ah"/></g><path d="M210-169c-67 3-38 105-44 169h-31v-121c0-29-5-50-35-48C34-165 62-65 56 0H25l-1-190h30c1 10-1 24 2 32 10-44 99-50 107 0 11-21 27-35 58-36 85-2 47 119 55 194h-31v-121c0-29-5-49-35-48" id="am"/><path d="M115-194c55 1 70 41 70 98S169 2 115 4C84 4 66-9 55-30l1 105H24l-1-265h31l2 30c10-21 28-34 59-34zm-8 174c40 0 45-34 45-75s-6-73-45-74c-42 0-51 32-51 76 0 43 10 73 51 73" id="an"/><path d="M100-194c62-1 85 37 85 99 1 63-27 99-86 99S16-35 15-95c0-66 28-99 85-99zM99-20c44 1 53-31 53-75 0-43-8-75-51-75s-53 32-53 75 10 74 51 75" id="ao"/><path d="M135-143c-3-34-86-38-87 0 15 53 115 12 119 90S17 21 10-45l28-5c4 36 97 45 98 0-10-56-113-15-118-90-4-57 82-63 122-42 12 7 21 19 24 35" id="ap"/><path d="M59-47c-2 24 18 29 38 22v24C64 9 27 4 27-40v-127H5v-23h24l9-43h21v43h35v23H59v120" id="aq"/><path d="M141-36C126-15 110 5 73 4 37 3 15-17 15-53c-1-64 63-63 125-63 3-35-9-54-41-54-24 1-41 7-42 31l-33-3c5-37 33-52 76-52 45 0 72 20 72 64v82c-1 20 7 32 28 27v20c-31 9-61-2-59-35zM48-53c0 20 12 33 32 33 41-3 63-29 60-74-43 2-92-5-92 41" id="ar"/><path d="M9 0v-24l116-142H16v-24h144v24L44-24h123V0H9" id="as"/><g id="h"><use transform="matrix(0.05,0,0,0.05,0,0)" xlink:href="#aj"/><use transform="matrix(0.05,0,0,0.05,3.95,0)" xlink:href="#am"/><use transform="matrix(0.05,0,0,0.05,18.900000000000002,0)" xlink:href="#an"/><use transform="matrix(0.05,0,0,0.05,28.900000000000002,0)" xlink:href="#ao"/><use transform="matrix(0.05,0,0,0.05,38.900000000000006,0)" xlink:href="#ap"/><use transform="matrix(0.05,0,0,0.05,47.900000000000006,0)" xlink:href="#aq"/><use transform="matrix(0.05,0,0,0.05,52.900000000000006,0)" xlink:href="#ar"/><use transform="matrix(0.05,0,0,0.05,62.900000000000006,0)" xlink:href="#as"/><use transform="matrix(0.05,0,0,0.05,71.9,0)" xlink:href="#aj"/><use transform="matrix(0.05,0,0,0.05,75.85000000000001,0)" xlink:href="#ao"/><use transform="matrix(0.05,0,0,0.05,85.85000000000001,0)" xlink:href="#ak"/><use transform="matrix(0.05,0,0,0.05,95.85000000000001,0)" xlink:href="#aj"/></g><path d="M24 0v-261h32V0H24" id="at"/><g id="i"><use transform="matrix(0.05,0,0,0.05,0,0)" xlink:href="#ag"/><use transform="matrix(0.05,0,0,0.05,10,0)" xlink:href="#ah"/><use transform="matrix(0.05,0,0,0.05,20,0)" xlink:href="#at"/></g><path d="M96-169c-40 0-48 33-48 73s9 75 48 75c24 0 41-14 43-38l32 2c-6 37-31 61-74 61-59 0-76-41-82-99-10-93 101-131 147-64 4 7 5 14 7 22l-32 3c-4-21-16-35-41-35" id="au"/><g id="j"><use transform="matrix(0.05,0,0,0.05,0,0)" xlink:href="#au"/><use transform="matrix(0.05,0,0,0.05,9,0)" xlink:href="#ar"/><use transform="matrix(0.05,0,0,0.05,19,0)" xlink:href="#at"/><use transform="matrix(0.05,0,0,0.05,22.95,0)" xlink:href="#ah"/><use transform="matrix(0.05,0,0,0.05,32.95,0)" xlink:href="#ak"/><use transform="matrix(0.05,0,0,0.05,42.95,0)" xlink:href="#ag"/><use transform="matrix(0.05,0,0,0.05,52.95,0)" xlink:href="#ar"/><use transform="matrix(0.05,0,0,0.05,62.95,0)" xlink:href="#al"/><use transform="matrix(0.05,0,0,0.05,68.9,0)" xlink:href="#aj"/><use transform="matrix(0.05,0,0,0.05,72.85000000000001,0)" xlink:href="#ao"/></g><g id="k"><use transform="matrix(0.05,0,0,0.05,0,0)" xlink:href="#am"/><use transform="matrix(0.05,0,0,0.05,14.950000000000001,0)" xlink:href="#ao"/><use transform="matrix(0.05,0,0,0.05,24.950000000000003,0)" xlink:href="#ag"/><use transform="matrix(0.05,0,0,0.05,34.95,0)" xlink:href="#aj"/><use transform="matrix(0.05,0,0,0.05,38.900000000000006,0)" xlink:href="#ai"/><use transform="matrix(0.05,0,0,0.05,43.900000000000006,0)" xlink:href="#aj"/><use transform="matrix(0.05,0,0,0.05,47.85000000000001,0)" xlink:href="#au"/><use transform="matrix(0.05,0,0,0.05,56.85,0)" xlink:href="#ar"/></g><g id="l"><use transform="matrix(0.05,0,0,0.05,0,0)" xlink:href="#au"/><use transform="matrix(0.05,0,0,0.05,9,0)" xlink:href="#ao"/><use transform="matrix(0.05,0,0,0.05,19,0)" xlink:href="#at"/><use transform="matrix(0.05,0,0,0.05,22.95,0)" xlink:href="#ao"/><use transform="matrix(0.05,0,0,0.05,32.95,0)" xlink:href="#al"/><use transform="matrix(0.05,0,0,0.05,38.900000000000006,0)" xlink:href="#ah"/></g><g id="m"><use transform="matrix(0.05,0,0,0.05,0,0)" xlink:href="#am"/><use transform="matrix(0.05,0,0,0.05,14.950000000000001,0)" xlink:href="#ao"/><use transform="matrix(0.05,0,0,0.05,24.950000000000003,0)" xlink:href="#ag"/><use transform="matrix(0.05,0,0,0.05,34.95,0)" xlink:href="#aj"/><use transform="matrix(0.05,0,0,0.05,38.900000000000006,0)" xlink:href="#ai"/><use transform="matrix(0.05,0,0,0.05,43.900000000000006,0)" xlink:href="#aj"/><use transform="matrix(0.05,0,0,0.05,47.85000000000001,0)" xlink:href="#au"/><use transform="matrix(0.05,0,0,0.05,56.85,0)" xlink:href="#ar"/></g><path d="M84 4C-5 8 30-112 23-190h32v120c0 31 7 50 39 49 72-2 45-101 50-169h31l1 190h-30c-1-10 1-25-2-33-11 22-28 36-60 37" id="av"/><g id="n"><use transform="matrix(0.05,0,0,0.05,0,0)" xlink:href="#ai"/><use transform="matrix(0.05,0,0,0.05,5,0)" xlink:href="#av"/><use transform="matrix(0.05,0,0,0.05,15,0)" xlink:href="#ao"/></g><g id="o"><use transform="matrix(0.05,0,0,0.05,0,0)" xlink:href="#ao"/><use transform="matrix(0.05,0,0,0.05,10,0)" xlink:href="#al"/><use transform="matrix(0.05,0,0,0.05,15.949999999999998,0)" xlink:href="#ar"/><use transform="matrix(0.05,0,0,0.05,25.950000000000003,0)" xlink:href="#al"/><use transform="matrix(0.05,0,0,0.05,31.899999999999995,0)" xlink:href="#aj"/><use transform="matrix(0.05,0,0,0.05,35.85,0)" xlink:href="#ao"/></g><path fill="#333" d="M15-91v-56l181-69v40L49-119l147 57v40" id="aw"/><path fill="#333" d="M185-48c-13 30-37 53-82 52C43 2 14-33 14-96s30-98 90-98c62 0 83 45 84 108H66c0 31 8 55 39 56 18 0 30-7 34-22zm-45-69c5-46-57-63-70-21-2 6-4 13-4 21h74" id="ax"/><path fill="#333" d="M144 0l-44-69L55 0H2l70-98-66-92h53l41 62 40-62h54l-67 91 71 99h-54" id="ay"/><path fill="#333" d="M115-3C79 11 28 4 28-45v-112H4v-33h27l15-45h31v45h36v33H77v99c-1 23 16 31 38 25v30" id="az"/><path fill="#333" d="M135-194c87-1 58 113 63 194h-50c-7-57 23-157-34-157-59 0-34 97-39 157H25l-1-190h47c2 12-1 28 3 38 12-26 28-41 61-42" id="aA"/><path fill="#333" d="M88-194c31-1 46 15 58 34l-1-101h50l1 261h-48c-2-10 0-23-3-31C134-8 116 4 84 4 32 4 16-41 15-95c0-56 19-97 73-99zm17 164c33 0 40-30 41-66 1-37-9-64-41-64s-38 30-39 65c0 43 13 65 39 65" id="aB"/><path fill="#333" d="M15-22v-40l146-57-146-57v-40l181 69v56" id="aC"/><g id="p"><use transform="matrix(0.04938271604938272,0,0,0.04938271604938272,0,0)" xlink:href="#aw"/><use transform="matrix(0.04938271604938272,0,0,0.04938271604938272,10.370370370370372,0)" xlink:href="#ax"/><use transform="matrix(0.04938271604938272,0,0,0.04938271604938272,20.24691358024692,0)" xlink:href="#ay"/><use transform="matrix(0.04938271604938272,0,0,0.04938271604938272,30.123456790123466,0)" xlink:href="#az"/><use transform="matrix(0.04938271604938272,0,0,0.04938271604938272,36.00000000000001,0)" xlink:href="#ax"/><use transform="matrix(0.04938271604938272,0,0,0.04938271604938272,45.87654320987655,0)" xlink:href="#aA"/><use transform="matrix(0.04938271604938272,0,0,0.04938271604938272,56.69135802469136,0)" xlink:href="#aB"/><use transform="matrix(0.04938271604938272,0,0,0.04938271604938272,67.50617283950618,0)" xlink:href="#aC"/></g><g id="q"><use transform="matrix(0.05,0,0,0.05,0,0)" xlink:href="#au"/><use transform="matrix(0.05,0,0,0.05,9,0)" xlink:href="#ar"/><use transform="matrix(0.05,0,0,0.05,19,0)" xlink:href="#am"/><use transform="matrix(0.05,0,0,0.05,33.95,0)" xlink:href="#an"/><use transform="matrix(0.05,0,0,0.05,43.95,0)" xlink:href="#aj"/></g><g id="r"><use transform="matrix(0.05,0,0,0.05,0,0)" xlink:href="#an"/><use transform="matrix(0.05,0,0,0.05,10,0)" xlink:href="#al"/><use transform="matrix(0.05,0,0,0.05,15.949999999999998,0)" xlink:href="#ah"/><use transform="matrix(0.05,0,0,0.05,25.950000000000003,0)" xlink:href="#au"/><use transform="matrix(0.05,0,0,0.05,34.95,0)" xlink:href="#ao"/><use transform="matrix(0.05,0,0,0.05,44.95,0)" xlink:href="#am"/><use transform="matrix(0.05,0,0,0.05,59.900000000000006,0)" xlink:href="#an"/><use transform="matrix(0.05,0,0,0.05,69.9,0)" xlink:href="#aj"/><use transform="matrix(0.05,0,0,0.05,73.85000000000001,0)" xlink:href="#at"/><use transform="matrix(0.05,0,0,0.05,77.80000000000001,0)" xlink:href="#ar"/><use transform="matrix(0.05,0,0,0.05,87.80000000000001,0)" xlink:href="#aq"/><use transform="matrix(0.05,0,0,0.05,92.80000000000001,0)" xlink:href="#aj"/></g><path d="M47-170H22l-4-78h33" id="aD"/><path d="M108 0H70L1-190h34L89-25l56-165h34" id="aE"/><g id="s"><use transform="matrix(0.05,0,0,0.05,0,0)" xlink:href="#ag"/><use transform="matrix(0.05,0,0,0.05,10,0)" xlink:href="#ah"/><use transform="matrix(0.05,0,0,0.05,20,0)" xlink:href="#at"/><use transform="matrix(0.05,0,0,0.05,23.95,0)" xlink:href="#at"/><use transform="matrix(0.05,0,0,0.05,27.899999999999995,0)" xlink:href="#aD"/><use transform="matrix(0.05,0,0,0.05,31.299999999999997,0)" xlink:href="#ah"/><use transform="matrix(0.05,0,0,0.05,41.3,0)" xlink:href="#aE"/><use transform="matrix(0.05,0,0,0.05,50.3,0)" xlink:href="#ah"/><use transform="matrix(0.05,0,0,0.05,60.29999999999999,0)" xlink:href="#ak"/><use transform="matrix(0.05,0,0,0.05,70.3,0)" xlink:href="#aq"/><use transform="matrix(0.05,0,0,0.05,75.3,0)" xlink:href="#ao"/></g><path d="M141-36C126-15 110 5 73 4 37 3 15-17 15-53c-1-64 63-63 125-63 3-35-9-54-41-54-24 1-41 7-42 31l-33-3c5-37 33-52 76-52 45 0 72 20 72 64v82c-1 20 7 32 28 27v20c-31 9-61-2-59-35zM48-53c0 20 12 33 32 33 41-3 63-29 60-74-43 2-92-5-92 41zm62-158l-58-49v-5h36c12 19 30 32 38 54h-16" id="aF"/><g id="t"><use transform="matrix(0.05,0,0,0.05,0,0)" xlink:href="#an"/><use transform="matrix(0.05,0,0,0.05,10,0)" xlink:href="#al"/><use transform="matrix(0.05,0,0,0.05,15.949999999999998,0)" xlink:href="#aj"/><use transform="matrix(0.05,0,0,0.05,19.9,0)" xlink:href="#ao"/><use transform="matrix(0.05,0,0,0.05,29.899999999999995,0)" xlink:href="#al"/><use transform="matrix(0.05,0,0,0.05,35.85,0)" xlink:href="#aj"/><use transform="matrix(0.05,0,0,0.05,39.800000000000004,0)" xlink:href="#aq"/><use transform="matrix(0.05,0,0,0.05,44.800000000000004,0)" xlink:href="#aF"/></g><g id="u"><use transform="matrix(0.05,0,0,0.05,0,0)" xlink:href="#ag"/><use transform="matrix(0.05,0,0,0.05,10,0)" xlink:href="#ah"/><use transform="matrix(0.05,0,0,0.05,20,0)" xlink:href="#ap"/><use transform="matrix(0.05,0,0,0.05,29,0)" xlink:href="#au"/><use transform="matrix(0.05,0,0,0.05,38,0)" xlink:href="#al"/><use transform="matrix(0.05,0,0,0.05,43.95,0)" xlink:href="#aj"/><use transform="matrix(0.05,0,0,0.05,47.900000000000006,0)" xlink:href="#as"/><use transform="matrix(0.05,0,0,0.05,56.900000000000006,0)" xlink:href="#aj"/><use transform="matrix(0.05,0,0,0.05,60.85,0)" xlink:href="#ao"/><use transform="matrix(0.05,0,0,0.05,70.85000000000001,0)" xlink:href="#ak"/><use transform="matrix(0.05,0,0,0.05,80.85000000000001,0)" xlink:href="#ah"/></g><use transform="matrix(0.05,0,0,0.05,0,0)" xlink:href="#ah" id="v"/><g id="w"><use transform="matrix(0.05,0,0,0.05,0,0)" xlink:href="#aq"/><use transform="matrix(0.05,0,0,0.05,5,0)" xlink:href="#aj"/><use transform="matrix(0.05,0,0,0.05,8.95,0)" xlink:href="#aq"/><use transform="matrix(0.05,0,0,0.05,13.949999999999998,0)" xlink:href="#ao"/><use transform="matrix(0.05,0,0,0.05,23.95,0)" xlink:href="#at"/><use transform="matrix(0.05,0,0,0.05,27.899999999999995,0)" xlink:href="#ao"/></g><g id="x"><use transform="matrix(0.05,0,0,0.05,0,0)" xlink:href="#ag"/><use transform="matrix(0.05,0,0,0.05,10,0)" xlink:href="#aj"/><use transform="matrix(0.05,0,0,0.05,13.949999999999998,0)" xlink:href="#ai"/><use transform="matrix(0.05,0,0,0.05,18.6,0)" xlink:href="#ai"/><use transform="matrix(0.05,0,0,0.05,23.6,0)" xlink:href="#aj"/><use transform="matrix(0.05,0,0,0.05,27.55,0)" xlink:href="#au"/><use transform="matrix(0.05,0,0,0.05,36.55,0)" xlink:href="#ao"/><use transform="matrix(0.05,0,0,0.05,46.55,0)" xlink:href="#at"/><use transform="matrix(0.05,0,0,0.05,50.5,0)" xlink:href="#aq"/><use transform="matrix(0.05,0,0,0.05,55.5,0)" xlink:href="#aF"/></g><g id="y"><use transform="matrix(0.05,0,0,0.05,0,0)" xlink:href="#am"/><use transform="matrix(0.05,0,0,0.05,14.950000000000001,0)" xlink:href="#ao"/><use transform="matrix(0.05,0,0,0.05,24.950000000000003,0)" xlink:href="#ag"/><use transform="matrix(0.05,0,0,0.05,34.95,0)" xlink:href="#aj"/><use transform="matrix(0.05,0,0,0.05,38.900000000000006,0)" xlink:href="#ai"/><use transform="matrix(0.05,0,0,0.05,43.900000000000006,0)" xlink:href="#aj"/><use transform="matrix(0.05,0,0,0.05,47.85000000000001,0)" xlink:href="#au"/><use transform="matrix(0.05,0,0,0.05,56.85,0)" xlink:href="#ar"/></g><g id="z"><use transform="matrix(0.05,0,0,0.05,0,0)" xlink:href="#au"/><use transform="matrix(0.05,0,0,0.05,9,0)" xlink:href="#ar"/><use transform="matrix(0.05,0,0,0.05,19,0)" xlink:href="#at"/><use transform="matrix(0.05,0,0,0.05,22.95,0)" xlink:href="#ah"/><use transform="matrix(0.05,0,0,0.05,32.95,0)" xlink:href="#ak"/><use transform="matrix(0.05,0,0,0.05,42.95,0)" xlink:href="#ag"/><use transform="matrix(0.05,0,0,0.05,52.95,0)" xlink:href="#ar"/><use transform="matrix(0.05,0,0,0.05,62.95,0)" xlink:href="#al"/><use transform="matrix(0.05,0,0,0.05,68.9,0)" xlink:href="#aj"/><use transform="matrix(0.05,0,0,0.05,72.85000000000001,0)" xlink:href="#ao"/></g><g id="A"><use transform="matrix(0.05,0,0,0.05,0,0)" xlink:href="#aj"/><use transform="matrix(0.05,0,0,0.05,3.95,0)" xlink:href="#am"/><use transform="matrix(0.05,0,0,0.05,18.900000000000002,0)" xlink:href="#an"/><use transform="matrix(0.05,0,0,0.05,28.900000000000002,0)" xlink:href="#ao"/><use transform="matrix(0.05,0,0,0.05,38.900000000000006,0)" xlink:href="#ap"/><use transform="matrix(0.05,0,0,0.05,47.900000000000006,0)" xlink:href="#aq"/><use transform="matrix(0.05,0,0,0.05,52.900000000000006,0)" xlink:href="#ar"/><use transform="matrix(0.05,0,0,0.05,62.900000000000006,0)" xlink:href="#as"/><use transform="matrix(0.05,0,0,0.05,71.9,0)" xlink:href="#aj"/><use transform="matrix(0.05,0,0,0.05,75.85000000000001,0)" xlink:href="#ao"/><use transform="matrix(0.05,0,0,0.05,85.85000000000001,0)" xlink:href="#ak"/><use transform="matrix(0.05,0,0,0.05,95.85000000000001,0)" xlink:href="#aj"/></g><path d="M177-190C167-65 218 103 67 71c-23-6-38-20-44-43l32-5c15 47 100 32 89-28v-30C133-14 115 1 83 1 29 1 15-40 15-95c0-56 16-97 71-98 29-1 48 16 59 35 1-10 0-23 2-32h30zM94-22c36 0 50-32 50-73 0-42-14-75-50-75-39 0-46 34-46 75s6 73 46 73" id="aG"/><g id="B"><use transform="matrix(0.05,0,0,0.05,0,0)" xlink:href="#ar"/><use transform="matrix(0.05,0,0,0.05,10,0)" xlink:href="#aG"/><use transform="matrix(0.05,0,0,0.05,20,0)" xlink:href="#aG"/><use transform="matrix(0.05,0,0,0.05,30,0)" xlink:href="#aj"/><use transform="matrix(0.05,0,0,0.05,33.95,0)" xlink:href="#av"/><use transform="matrix(0.05,0,0,0.05,43.95,0)" xlink:href="#ak"/><use transform="matrix(0.05,0,0,0.05,53.95,0)" xlink:href="#aq"/><use transform="matrix(0.05,0,0,0.05,58.95,0)" xlink:href="#aj"/><use transform="matrix(0.05,0,0,0.05,62.900000000000006,0)" xlink:href="#aE"/><use transform="matrix(0.05,0,0,0.05,71.9,0)" xlink:href="#ah"/></g><g id="C"><use transform="matrix(0.05,0,0,0.05,0,0)" xlink:href="#ar"/><use transform="matrix(0.05,0,0,0.05,10,0)" xlink:href="#aG"/><use transform="matrix(0.05,0,0,0.05,20,0)" xlink:href="#aG"/><use transform="matrix(0.05,0,0,0.05,30,0)" xlink:href="#aj"/><use transform="matrix(0.05,0,0,0.05,33.95,0)" xlink:href="#av"/><use transform="matrix(0.05,0,0,0.05,43.95,0)" xlink:href="#ak"/><use transform="matrix(0.05,0,0,0.05,53.95,0)" xlink:href="#aq"/><use transform="matrix(0.05,0,0,0.05,58.95,0)" xlink:href="#aj"/><use transform="matrix(0.05,0,0,0.05,62.900000000000006,0)" xlink:href="#aE"/><use transform="matrix(0.05,0,0,0.05,71.9,0)" xlink:href="#aj"/></g><g id="D"><use transform="matrix(0.05,0,0,0.05,0,0)" xlink:href="#ag"/><use transform="matrix(0.05,0,0,0.05,10,0)" xlink:href="#ah"/><use transform="matrix(0.05,0,0,0.05,20,0)" xlink:href="#at"/><use transform="matrix(0.05,0,0,0.05,23.95,0)" xlink:href="#at"/><use transform="matrix(0.05,0,0,0.05,27.899999999999995,0)" xlink:href="#aD"/><use transform="matrix(0.05,0,0,0.05,31.299999999999997,0)" xlink:href="#ah"/><use transform="matrix(0.05,0,0,0.05,41.3,0)" xlink:href="#aE"/><use transform="matrix(0.05,0,0,0.05,50.3,0)" xlink:href="#ah"/><use transform="matrix(0.05,0,0,0.05,60.29999999999999,0)" xlink:href="#ak"/><use transform="matrix(0.05,0,0,0.05,70.3,0)" xlink:href="#aq"/><use transform="matrix(0.05,0,0,0.05,75.3,0)" xlink:href="#ao"/></g><use transform="matrix(0.05,0,0,0.05,0,0)" xlink:href="#ao" id="E"/><g id="F"><use transform="matrix(0.05,0,0,0.05,0,0)" xlink:href="#au"/><use transform="matrix(0.05,0,0,0.05,9,0)" xlink:href="#al"/><use transform="matrix(0.05,0,0,0.05,14.949999999999998,0)" xlink:href="#ah"/><use transform="matrix(0.05,0,0,0.05,24.95,0)" xlink:href="#ar"/><use transform="matrix(0.05,0,0,0.05,34.95,0)" xlink:href="#as"/><use transform="matrix(0.05,0,0,0.05,43.95,0)" xlink:href="#aj"/><use transform="matrix(0.05,0,0,0.05,47.900000000000006,0)" xlink:href="#ao"/><use transform="matrix(0.05,0,0,0.05,57.900000000000006,0)" xlink:href="#ak"/><use transform="matrix(0.05,0,0,0.05,67.9,0)" xlink:href="#ah"/></g><g id="G"><use transform="matrix(0.05,0,0,0.05,0,0)" xlink:href="#ak"/><use transform="matrix(0.05,0,0,0.05,10,0)" xlink:href="#ao"/><use transform="matrix(0.05,0,0,0.05,20,0)" xlink:href="#am"/><use transform="matrix(0.05,0,0,0.05,34.95,0)" xlink:href="#ah"/></g><g id="H"><use transform="matrix(0.05,0,0,0.05,0,0)" xlink:href="#am"/><use transform="matrix(0.05,0,0,0.05,14.950000000000001,0)" xlink:href="#ao"/><use transform="matrix(0.05,0,0,0.05,24.950000000000003,0)" xlink:href="#ag"/><use transform="matrix(0.05,0,0,0.05,34.95,0)" xlink:href="#aj"/><use transform="matrix(0.05,0,0,0.05,38.900000000000006,0)" xlink:href="#ai"/><use transform="matrix(0.05,0,0,0.05,43.900000000000006,0)" xlink:href="#aj"/><use transform="matrix(0.05,0,0,0.05,47.85000000000001,0)" xlink:href="#au"/><use transform="matrix(0.05,0,0,0.05,56.85,0)" xlink:href="#ar"/></g><g id="I"><use transform="matrix(0.05,0,0,0.05,0,0)" xlink:href="#at"/><use transform="matrix(0.05,0,0,0.05,3.95,0)" xlink:href="#aj"/><use transform="matrix(0.05,0,0,0.05,7.9,0)" xlink:href="#ap"/><use transform="matrix(0.05,0,0,0.05,16.9,0)" xlink:href="#aq"/><use transform="matrix(0.05,0,0,0.05,21.9,0)" xlink:href="#ar"/></g><g id="J"><use transform="matrix(0.05,0,0,0.05,0,0)" xlink:href="#ag"/><use transform="matrix(0.05,0,0,0.05,10,0)" xlink:href="#aj"/></g><g id="K"><use transform="matrix(0.05,0,0,0.05,0,0)" xlink:href="#av"/><use transform="matrix(0.05,0,0,0.05,10,0)" xlink:href="#aq"/><use transform="matrix(0.05,0,0,0.05,15,0)" xlink:href="#ah"/><use transform="matrix(0.05,0,0,0.05,25,0)" xlink:href="#ak"/><use transform="matrix(0.05,0,0,0.05,35,0)" xlink:href="#aq"/><use transform="matrix(0.05,0,0,0.05,40,0)" xlink:href="#aj"/></g><use transform="matrix(0.05,0,0,0.05,0,0)" xlink:href="#ar" id="L"/><g id="M"><use transform="matrix(0.05,0,0,0.05,0,0)" xlink:href="#au"/><use transform="matrix(0.05,0,0,0.05,9,0)" xlink:href="#av"/><use transform="matrix(0.05,0,0,0.05,19,0)" xlink:href="#aj"/></g><path d="M100-194c63 0 86 42 84 106H49c0 40 14 67 53 68 26 1 43-12 49-29l28 8c-11 28-37 45-77 45C44 4 14-33 15-96c1-61 26-98 85-98zm52 81c6-60-76-77-97-28-3 7-6 17-6 28h103zm-36-98l-58-49v-5h36c12 19 30 32 38 54h-16" id="aH"/><use transform="matrix(0.05,0,0,0.05,0,0)" xlink:href="#aH" id="N"/><g id="O"><use transform="matrix(0.05,0,0,0.05,0,0)" xlink:href="#au"/><use transform="matrix(0.05,0,0,0.05,9,0)" xlink:href="#ao"/><use transform="matrix(0.05,0,0,0.05,19,0)" xlink:href="#ak"/><use transform="matrix(0.05,0,0,0.05,29,0)" xlink:href="#ag"/><use transform="matrix(0.05,0,0,0.05,39,0)" xlink:href="#aj"/><use transform="matrix(0.05,0,0,0.05,42.95,0)" xlink:href="#aE"/><use transform="matrix(0.05,0,0,0.05,51.95,0)" xlink:href="#aj"/><use transform="matrix(0.05,0,0,0.05,55.900000000000006,0)" xlink:href="#ap"/><use transform="matrix(0.05,0,0,0.05,64.9,0)" xlink:href="#ao"/></g><g id="P"><use transform="matrix(0.05,0,0,0.05,0,0)" xlink:href="#aj"/><use transform="matrix(0.05,0,0,0.05,3.95,0)" xlink:href="#at"/></g><g id="Q"><use transform="matrix(0.05,0,0,0.05,0,0)" xlink:href="#au"/><use transform="matrix(0.05,0,0,0.05,9,0)" xlink:href="#ar"/><use transform="matrix(0.05,0,0,0.05,19,0)" xlink:href="#at"/><use transform="matrix(0.05,0,0,0.05,22.95,0)" xlink:href="#ah"/><use transform="matrix(0.05,0,0,0.05,32.95,0)" xlink:href="#ak"/><use transform="matrix(0.05,0,0,0.05,42.95,0)" xlink:href="#ag"/><use transform="matrix(0.05,0,0,0.05,52.95,0)" xlink:href="#ar"/><use transform="matrix(0.05,0,0,0.05,62.95,0)" xlink:href="#al"/><use transform="matrix(0.05,0,0,0.05,68.9,0)" xlink:href="#aj"/><use transform="matrix(0.05,0,0,0.05,72.85000000000001,0)" xlink:href="#ao"/></g><g id="R"><use transform="matrix(0.05,0,0,0.05,0,0)" xlink:href="#at"/><use transform="matrix(0.05,0,0,0.05,3.95,0)" xlink:href="#av"/><use transform="matrix(0.05,0,0,0.05,13.949999999999998,0)" xlink:href="#ao"/><use transform="matrix(0.05,0,0,0.05,23.95,0)" xlink:href="#aG"/><use transform="matrix(0.05,0,0,0.05,33.95,0)" xlink:href="#ao"/></g><g id="S"><use transform="matrix(0.05,0,0,0.05,0,0)" xlink:href="#ak"/><use transform="matrix(0.05,0,0,0.05,10,0)" xlink:href="#ao"/><use transform="matrix(0.05,0,0,0.05,20,0)" xlink:href="#aq"/><use transform="matrix(0.05,0,0,0.05,25,0)" xlink:href="#aj"/><use transform="matrix(0.05,0,0,0.05,28.950000000000003,0)" xlink:href="#ai"/><use transform="matrix(0.05,0,0,0.05,33.95,0)" xlink:href="#aj"/><use transform="matrix(0.05,0,0,0.05,37.900000000000006,0)" xlink:href="#au"/><use transform="matrix(0.05,0,0,0.05,46.900000000000006,0)" xlink:href="#ar"/></g><g id="T"><use transform="matrix(0.05,0,0,0.05,0,0)" xlink:href="#ah"/><use transform="matrix(0.05,0,0,0.05,10,0)" xlink:href="#at"/><use transform="matrix(0.05,0,0,0.05,13.949999999999998,0)" xlink:href="#aj"/><use transform="matrix(0.05,0,0,0.05,17.9,0)" xlink:href="#am"/><use transform="matrix(0.05,0,0,0.05,32.85,0)" xlink:href="#aj"/><use transform="matrix(0.05,0,0,0.05,36.800000000000004,0)" xlink:href="#ak"/><use transform="matrix(0.05,0,0,0.05,46.800000000000004,0)" xlink:href="#ar"/><use transform="matrix(0.05,0,0,0.05,56.800000000000004,0)" xlink:href="#al"/><use transform="matrix(0.05,0,0,0.05,62.75,0)" xlink:href="#ah"/></g></defs></g></svg>