<svg xmlns="http://www.w3.org/2000/svg" xmlns:xlink="http://www.w3.org/1999/xlink" xmlns:lucid="lucid" width="772.09" height="1053.5"><g transform="translate(-394 -120)" lucid:page-tab-id="E5u6KYw_d36l"><path d="M0 0h1870.87v1322.83H0z" fill="#fff"/><path d="M519.75 543c0 10.9-8.84 19.75-19.75 19.75-10.9 0-19.75-8.84-19.75-19.75 0-10.9 8.84-19.75 19.75-19.75 10.9 0 19.75 8.84 19.75 19.75z" stroke="#3a414a" fill="#fff"/><path d="M500 562.75v49.3a20.7 20.7 0 0 0 3.2 11.07l36.8 58.13m-40-63.2l-40 63.2m0-98.75h80" stroke="#3a414a" fill="none"/><path d="M460 529.25a6 6 0 0 1 6-6h68a6 6 0 0 1 6 6v168a6 6 0 0 1-6 6h-68a6 6 0 0 1-6-6z" fill="none"/><use xlink:href="#a" transform="matrix(1,0,0,1,380,681.2519685039351) translate(65.70987654320987 17.77777777777778)"/><use xlink:href="#b" transform="matrix(1,0,0,1,380,681.2519685039351) translate(137.25308641975306 17.77777777777778)"/><use xlink:href="#c" transform="matrix(1,0,0,1,380,681.2519685039351) translate(65.70987654320987 44.44444444444444)"/><path d="M765.5 613.25c0 33.14-35.83 60-80 60-44.2 0-80-26.86-80-60s35.8-60 80-60c44.17 0 80 26.86 80 60z" stroke="#3a414a" fill="#fff"/><use xlink:href="#d" transform="matrix(1,0,0,1,605.4900125735603,553.2519685039351) translate(41.07999999999999 29.41)"/><use xlink:href="#e" transform="matrix(1,0,0,1,605.4900125735603,553.2519685039351) translate(42.05499999999999 51.01)"/><use xlink:href="#f" transform="matrix(1,0,0,1,605.4900125735603,553.2519685039351) translate(23.929999999999993 72.61)"/><use xlink:href="#g" transform="matrix(1,0,0,1,605.4900125735603,553.2519685039351) translate(112.13 72.61)"/><use xlink:href="#h" transform="matrix(1,0,0,1,605.4900125735603,553.2519685039351) translate(38.57999999999999 94.21000000000001)"/><path d="M604.5 613.25H500.02" stroke="#3a414a" fill="none"/><path d="M605 613.25v.5h-.52v-1h.53z" stroke="#3a414a" stroke-width=".05" fill="#3a414a"/><path d="M500.05 613.25h-.52" stroke="#3a414a" fill="none"/><path d="M1020 540c0 33.14-35.82 60-80 60s-80-26.86-80-60 35.82-60 80-60 80 26.86 80 60z" stroke="#3a414a" fill="#fff"/><use xlink:href="#i" transform="matrix(1,0,0,1,860,480) translate(19.62999999999999 51.9)"/><use xlink:href="#j" transform="matrix(1,0,0,1,860,480) translate(102.48 51.9)"/><use xlink:href="#k" transform="matrix(1,0,0,1,860,480) translate(37.355 73.5)"/><path d="M1020 680c0 33.14-35.82 60-80 60s-80-26.86-80-60 35.82-60 80-60 80 26.86 80 60z" stroke="#3a414a" fill="#fff"/><use xlink:href="#i" transform="matrix(1,0,0,1,860,620) translate(34.629999999999995 48.15)"/><use xlink:href="#l" transform="matrix(1,0,0,1,860,620) translate(117.48 48.15)"/><use xlink:href="#m" transform="matrix(1,0,0,1,860,620) translate(10.404999999999996 69.75)"/><use xlink:href="#k" transform="matrix(1,0,0,1,860,620) translate(64.305 69.75)"/><path d="M843.12 679.5v1h-1.52v-1zm-3.55 0v1l-3.04-.02v-1zm-5.06-.03v1h-3.03v-1zm-5.05 0v1l-3.04-.02v-1zm-5.06-.02v1h-3.05v-1zm-7.35-.22l.82.2h1.46v1h-1.58l-1-.25-.35-.14.38-.92zm-2.75-2l.56.66.58.48-.65.76-.65-.54-.66-.78-.45-.7.85-.54zm-1.06-3.25l.07.88.08.28-.97.24-.08-.36-.07-1v-1.54h1zm0-3.52h-1v-3.04h1zm0-5.07h-1v-3.04h1zm0-5.07h-1l-.02-3.04h1zm-.04-23.04h-1v-.26h1zm0-2.28h-1v-3.04h1zm0-5.06h-1l-.02-3.04h1zm-.02-5.07h-1v-3.04h1zm-.25-7.66l.24 1v1.6h-1v-1.47l-.2-.82-.1-.27.92-.38zm-2.36-3.25l.77.65.55.64-.77.64-.5-.58-.65-.56-.65-.4.52-.85zm-2.8-1.17l.35.1-.23.96-.3-.08-.87-.07h-1.5v-1h1.53zm-39.77.92h-1.5v-1h1.5zm5.03 0H770v-1h3.03zm5.03 0h-3.02v-1h3.02zm5.04 0h-3.02v-1h3.02zm5.03 0h-3.02v-1h3.03zm5.03 0h-3.02v-1h3.02zm5.03 0h-3.03v-1h3.02zm5.02 0h-3.02v-1h3.02z" stroke="#3a414a" stroke-width=".05" fill="#3a414a"/><path d="M766.5 613.75h-.53l.02-.5v-.4l-.02-.1h.52z" fill="#3a414a"/><path d="M766.53 613.78h-.58l.02-.52v-.53h.56zm-.52-1v.08l.02.4-.02.47h.48v-.95z" stroke="#3a414a" stroke-width=".05" fill="#3a414a"/><path d="M857.88 680l-14.26 4.64v-9.28z" fill="#3a414a"/><path d="M859.5 680l-16.38 5.32v-10.64zm-15.38 3.95l12.14-3.95-12.14-3.95z" stroke="#3a414a" stroke-width=".05" fill="#3a414a"/><use xlink:href="#n" transform="matrix(1,0,0,1,776.5135248052986,637.2926509186342) translate(0.005000000000002558 12.444444444444446)"/><path d="M768 613.75h-1.5v-1h1.5zm5.03 0H770v-1h3.03zm5.03 0h-3.02v-1h3.02zm5.04 0h-3.02v-1h3.02zm5.03 0h-3.02v-1h3.03zm5.03 0h-3.02v-1h3.02zm5.03 0h-3.03v-1h3.02zm5.02 0h-3.02v-1h3.02zm4.9-.16l-.36.07-1 .08h-1.52v-1h1.5l.87-.07.3-.07zm3.77-2.4l-.56.65-.77.66-.72.45-.52-.85.65-.4.65-.56.5-.58zm1.27-4.56v1.6l-.24 1.02-.14.34-.94-.38.1-.27.2-.82v-1.5zm0-5.2v3.12h-1v-3.1zm.02-5.17l-.02 3.1h-1v-3.1zm0-5.18v3.1h-1v-3.1zm0-2.08h-1v-3.06h1zm.02-23.84v2.1h-1v-2.1zm0-5.2v3.12h-1V560zm0-5.17v3.12h-1v-3.1zm.02-5.17v3.1h-1v-3.1zm.14-4.77l-.07.28-.06.88v1.54h-1v-1.58l.08-1 .1-.36zm2.06-3.24l-.58.5-.56.65-.4.65-.85-.53.44-.72.65-.78.64-.54zm3.9-1.05h-1.47l-.82.2-.27.1-.38-.9.34-.15 1-.25h1.58zm5.05-.02h-3.05v-1h3.04zm5.05 0h-3.04v-1h3.05zm5.06-.02h-3.02v-1h3.03zm5.07-.02l-3.03.02v-1h3.03zm3.55 0h-1.52v-1h1.5z" stroke="#3a414a" stroke-width=".05" fill="#3a414a"/><path d="M766.5 613.75h-.53l.02-.5v-.4l-.02-.1h.52z" fill="#3a414a"/><path d="M766.53 613.78h-.58l.02-.52v-.53h.56zm-.52-1v.08l.02.4-.02.47h.48v-.95z" stroke="#3a414a" stroke-width=".05" fill="#3a414a"/><path d="M857.88 540l-14.26 4.64v-9.28z" fill="#3a414a"/><path d="M859.5 540l-16.38 5.32v-10.64zm-15.38 3.95l12.14-3.95-12.14-3.95z" stroke="#3a414a" stroke-width=".05" fill="#3a414a"/><use xlink:href="#n" transform="matrix(1,0,0,1,776.5135248052986,567.2926509186342) translate(0.005000000000002558 12.444444444444446)"/><path d="M765.5 420c0 33.14-35.83 60-80 60-44.2 0-80-26.86-80-60s35.8-60 80-60c44.17 0 80 26.86 80 60z" stroke="#3a414a" fill="#fff"/><use xlink:href="#d" transform="matrix(1,0,0,1,605.4900125735603,360) translate(41.07999999999999 29.41)"/><use xlink:href="#o" transform="matrix(1,0,0,1,605.4900125735603,360) translate(62.555 51.01)"/><use xlink:href="#p" transform="matrix(1,0,0,1,605.4900125735603,360) translate(31.629999999999995 72.61)"/><use xlink:href="#k" transform="matrix(1,0,0,1,605.4900125735603,360) translate(37.355 94.21000000000001)"/><path d="M686 536.37h-1v-1.5h1zm0-3.53h-1v-3.02h1zm0-5.03h-1v-3h1zm0-5.02h-1v-1.07h1zm0-22.4h-1v-.76h1zm0-2.77h-1v-3h1zm0-5.02h-1v-3.02h1zm0-5.04h-1v-3.02h1zm0-5.03h-1V481h1z" stroke="#3a414a" stroke-width=".05" fill="#3a414a"/><path d="M685.48 480.5h.5v.5h-1v-.52z" fill="#3a414a"/><path d="M685.48 480.48h.54v.56h-1.05v-.58zm-.46.5h.95v-.46h-.95z" stroke="#3a414a" stroke-width=".05" fill="#3a414a"/><path d="M685.5 551.13l-4.65-14.26h9.28z" fill="#3a414a"/><path d="M685.5 552.75l-5.33-16.38h10.64zm-3.96-15.38l3.95 12.15 3.94-12.15z" stroke="#3a414a" stroke-width=".05" fill="#3a414a"/><use xlink:href="#q" transform="matrix(1,0,0,1,646.551740968622,500.3751458713133) translate(0.005000000000002558 14.222222222222223)"/><path d="M519.75 893.73c0 10.9-8.84 19.75-19.75 19.75-10.9 0-19.75-8.84-19.75-19.75 0-10.9 8.84-19.75 19.75-19.75 10.9 0 19.75 8.85 19.75 19.75z" stroke="#3a414a" fill="#fff"/><path d="M500 913.48v49.3a20.7 20.7 0 0 0 3.2 11.07l36.8 58.13m-40-63.2l-40 63.2m0-98.75h80" stroke="#3a414a" fill="none"/><path d="M460 879.98a6 6 0 0 1 6-6h68a6 6 0 0 1 6 6v168a6 6 0 0 1-6 6h-68a6 6 0 0 1-6-6z" fill="none"/><use xlink:href="#r" transform="matrix(1,0,0,1,380,1031.984251968519) translate(87.31481481481481 17.77777777777778)"/><use xlink:href="#s" transform="matrix(1,0,0,1,380,1031.984251968519) translate(65.70987654320987 44.44444444444444)"/><use xlink:href="#t" transform="matrix(1,0,0,1,380,1031.984251968519) translate(76.82098765432099 71.11111111111111)"/><path d="M499 952.92h-93a6 6 0 0 1-6-6V619.25a6 6 0 0 1 6-6h77.15M499 952.92h3.5" stroke="#3a414a" fill="none"/><path d="M497.92 613.25l-14.27 4.64v-9.28z" stroke="#3a414a" fill="#3a414a"/><path d="M765.5 953.98c0 33.14-35.83 60-80 60-44.2 0-80-26.86-80-60 0-33.13 35.8-60 80-60 44.17 0 80 26.87 80 60z" stroke="#3a414a" fill="#fff"/><use xlink:href="#d" transform="matrix(1,0,0,1,605.4900125735603,893.984251968519) translate(41.07999999999999 29.41)"/><use xlink:href="#o" transform="matrix(1,0,0,1,605.4900125735603,893.984251968519) translate(62.555 51.01)"/><use xlink:href="#p" transform="matrix(1,0,0,1,605.4900125735603,893.984251968519) translate(31.629999999999995 72.61)"/><use xlink:href="#k" transform="matrix(1,0,0,1,605.4900125735603,893.984251968519) translate(37.355 94.21000000000001)"/><path d="M580 200c0 33.14-35.82 60-80 60s-80-26.86-80-60 35.82-60 80-60 80 26.86 80 60z" stroke="#3a414a" fill="#fff"/><use xlink:href="#u" transform="matrix(1,0,0,1,420,140) translate(34.57999999999999 51.9)"/><use xlink:href="#k" transform="matrix(1,0,0,1,420,140) translate(37.355 73.5)"/><path d="M765.5 200c0 33.14-35.83 60-80 60-44.2 0-80-26.86-80-60s35.8-60 80-60c44.17 0 80 26.86 80 60z" stroke="#3a414a" fill="#fff"/><use xlink:href="#i" transform="matrix(1,0,0,1,605.4900125735603,140) translate(29.079999999999995 40.65)"/><use xlink:href="#v" transform="matrix(1,0,0,1,605.4900125735603,140) translate(111.93 40.65)"/><use xlink:href="#w" transform="matrix(1,0,0,1,605.4900125735603,140) translate(41.83 62.25)"/><use xlink:href="#x" transform="matrix(1,0,0,1,605.4900125735603,140) translate(108.18 62.25)"/><use xlink:href="#y" transform="matrix(1,0,0,1,605.4900125735603,140) translate(31.855 83.85000000000001)"/><path d="M950.98 200c0 33.14-35.82 60-80 60s-80-26.86-80-60 35.82-60 80-60 80 26.86 80 60z" stroke="#3a414a" fill="#fff"/><use xlink:href="#d" transform="matrix(1,0,0,1,790.9800251471206,140) translate(41.07999999999999 51.9)"/><use xlink:href="#z" transform="matrix(1,0,0,1,790.9800251471206,140) translate(47.254999999999995 73.5)"/><path d="M1146.1 1093.5c0 33.13-35.83 60-80 60-44.2 0-80-26.87-80-60 0-33.14 35.8-60 80-60 44.17 0 80 26.86 80 60z" stroke="#3a414a" fill="#fff"/><use xlink:href="#i" transform="matrix(1,0,0,1,986.0898482282469,1033.4960629921297) translate(16.604999999999997 63.15)"/><use xlink:href="#A" transform="matrix(1,0,0,1,986.0898482282469,1033.4960629921297) translate(99.45500000000001 63.15)"/><path d="M1146.1 953.5c0 33.13-35.83 60-80 60-44.2 0-80-26.87-80-60 0-33.14 35.8-60 80-60 44.17 0 80 26.86 80 60z" stroke="#3a414a" fill="#fff"/><use xlink:href="#d" transform="matrix(1,0,0,1,986.0898482282469,893.4960629921297) translate(41.07999999999999 31.410000000000004)"/><use xlink:href="#B" transform="matrix(1,0,0,1,986.0898482282469,893.4960629921297) translate(29.054999999999993 53.01)"/><use xlink:href="#C" transform="matrix(1,0,0,1,986.0898482282469,893.4960629921297) translate(78.005 53.01)"/><use xlink:href="#D" transform="matrix(1,0,0,1,986.0898482282469,893.4960629921297) translate(93.005 53.01)"/><use xlink:href="#x" transform="matrix(1,0,0,1,986.0898482282469,893.4960629921297) translate(120.95500000000001 53.01)"/><use xlink:href="#E" transform="matrix(1,0,0,1,986.0898482282469,893.4960629921297) translate(42.55499999999999 74.61)"/><use xlink:href="#F" transform="matrix(1,0,0,1,986.0898482282469,893.4960629921297) translate(51.33 96.21000000000001)"/><path d="M1146.1 813.5c0 33.13-35.83 60-80 60-44.2 0-80-26.87-80-60 0-33.14 35.8-60 80-60 44.17 0 80 26.86 80 60z" stroke="#3a414a" fill="#fff"/><use xlink:href="#d" transform="matrix(1,0,0,1,986.0898482282469,753.4960629921297) translate(41.08 40.65)"/><use xlink:href="#G" transform="matrix(1,0,0,1,986.0898482282469,753.4960629921297) translate(30.10499999999999 62.25)"/><use xlink:href="#H" transform="matrix(1,0,0,1,986.0898482282469,753.4960629921297) translate(46.55499999999999 83.85000000000001)"/><path d="M686 359h-1v-1.38h1zm0-3.22h-1v-2.76h1zm0-4.6h-1v-2.76h1zm0-4.6h-1v-2.76h1zm0-4.6h-1v-2.76h1zm-.1-7l.1 1v1.4h-1v-1.36l-.08-.88-.07-.28.98-.24zm-1.8-3.58l.65.78.44.7-.86.54-.4-.65-.56-.66-.58-.48.65-.76zm-3.6-1.83l1 .25.34.14-.38.92-.27-.1-.83-.2h-1.44v-1zm-3.56 0v1h-3v-1zm-4.98 0v1h-3v-1zm-5 0v1H664v-1zm-4.97 0v1h-3v-1zm-5 0v1h-3l.02-1zm-4.98 0v1h-3v-1zm-4.98 0v1h-3v-1zm-5 0v1h-2.98v-1zm-4.97 0v1l-3-.02v-1zm-4.98-.02v1h-3v-1zm-5 0v1h-3v-1zm-4.98 0v1h-3v-1zm-4.98 0v1h-3v-1zm-5 0v1h-2.98v-1zm-4.97 0v1h-3v-1zm-4.98 0l-.02 1h-3v-1zm-5 0v1h-3v-1zm-4.98 0v1h-3v-1zm-5-.02v1h-2.98v-1zm-4.97 0v1h-3v-1zm-4.98 0v1h-3v-1zm-5 0v1h-2.98v-1zm-4.97 0v1h-3v-1zm-4.98 0v1h-3v-1zm-5 0v1h-2.98v-1zm-4.97 0v1h-3v-1zm-5 0v1h-2.98v-1zm-4.97 0v1l-3-.02v-1zm-4.98-.02v1h-3v-1zm-5 0v1h-2.98v-1zm-4.97 0v1h-3v-1zm-4.98 0v1h-3v-1zm-5 0v1h-2.98v-1zm-4.97 0v1h-3v-1zm-7.34-.07l.88.07h1.48v1h-1.52l-1-.08-.36-.08.24-.98zm-3.03-1.54l.67.55.65.4-.53.85-.72-.44-.78-.66-.54-.64.76-.65zm-1.53-3.02l.2.82.1.27-.9.38-.15-.34-.25-1v-1.5h1zm0-3.3h-1v-2.9h1zm0-4.8h-1v-2.9h1zm-.02-4.82h-1v-1.3h1zm-.03-19.96h-1v-2.14h1zm0-4.06h-1v-2.9h1zm0-4.8h-1v-2.9h1zm-.02-4.82h-1v-1.44h1z" stroke="#3a414a" stroke-width=".05" fill="#3a414a"/><path d="M686 359.52l-.5-.02h-.5v-.5h1z" fill="#3a414a"/><path d="M686.02 359.54l-.52-.02h-.53v-.56h1.05zm-1-.53v.48h.95v-.47z" stroke="#3a414a" stroke-width=".05" fill="#3a414a"/><path d="M504.64 276.38h-9.28l4.64-14.26z" fill="#3a414a"/><path d="M505.32 276.88h-10.64L500 260.5zm-9.27-1h7.9L500 263.74z" stroke="#3a414a" stroke-width=".05" fill="#3a414a"/><use xlink:href="#n" transform="matrix(1,0,0,1,463.76851851851853,292.00000000000006) translate(0.005000000000002558 12.444444444444446)"/><path d="M686 359h-1v-1.54h1zm0-3.6h-1v-3.07h1zm0-5.12h-1v-3.08h1zm0-5.14h-1v-3.08h1zm0-5.13h-1v-3.07h1zm0-5.12h-1v-3.08h1zm0-5.13h-1v-3.08h1zm0-5.14h-1v-3.07h1zm0-5.12h-1v-3.08h1zm0-5.13h-1v-3.08h1zm0-25.66h-1v-3.1h1zm0-5.14h-1v-3.08h1zm0-5.14h-1v-1.54h1z" stroke="#3a414a" stroke-width=".05" fill="#3a414a"/><path d="M686 359.52l-.5-.02h-.5v-.5h1z" fill="#3a414a"/><path d="M686.02 359.54l-.52-.02h-.53v-.56h1.05zm-1-.53v.48h.95v-.47z" stroke="#3a414a" stroke-width=".05" fill="#3a414a"/><path d="M690.13 276.38h-9.28l4.64-14.26z" fill="#3a414a"/><path d="M690.8 276.88h-10.63l5.32-16.38zm-9.26-1h7.9l-3.95-12.14z" stroke="#3a414a" stroke-width=".05" fill="#3a414a"/><g><use xlink:href="#n" transform="matrix(1,0,0,1,649.2585310920788,290.66666666666674) translate(0.005000000000002558 12.444444444444446)"/></g><path d="M686 359h-1v-1.38h1zm0-3.22h-1v-2.76h1zm0-4.6h-1v-2.76h1zm0-4.6h-1v-2.76h1zm0-4.6h-1v-2.76h1zm.13-7.12l-.07.28-.07.88v1.36h-1v-1.4l.07-1 .08-.36zm2.05-3.24l-.58.5-.56.65-.4.65-.85-.53.43-.72.66-.78.63-.54zm3.87-1.05h-1.44l-.8.2-.28.1-.38-.9.34-.15 1-.25h1.57zm4.98 0h-3v-1h3zm4.98 0h-2.98v-1h3zm5 0h-3v-1h3zm4.98 0h-3v-1h3zm5 0h-3v-1h2.98zm4.97 0h-3v-1h3zm4.98 0h-3v-1h3zm5 0h-3v-1h3zm4.97-.02h-3v-1h3zm4.98 0h-3v-1h3zm5 0h-3v-1h3zm4.97 0h-3v-1h3zm4.98 0h-3v-1h3zm5 0h-3v-1h3zm4.97 0h-3v-1h3zm5 0h-3v-1h3zm4.97 0h-3v-1h3zm4.98 0h-3v-1h3zm5-.02h-3v-1h3zm4.97 0h-3v-1h3zm4.98 0h-3v-1h3zm5 0h-3v-1h3zm4.97 0h-3v-1h3zm4.98 0h-3v-1h3zm5 0h-3v-1h3zm4.97 0h-3v-1h3zm5 0h-3v-1h3zm4.97-.02l-3 .02v-1h3zm4.97 0h-3v-1h3zm5 0h-3v-1h3zm4.97 0h-3v-1h3zm4.98 0h-3v-1h3zm5 0h-3v-1h3zm4.97 0h-3v-1h3zm4.86-.16l-.36.08-1 .08h-1.5l-.02-1h1.48l.88-.07.28-.07zm3.76-2.38l-.54.64-.78.66-.7.44-.54-.85.65-.4.67-.56.5-.6zm1.3-4.46v1.5l-.26 1-.14.35-.92-.38.1-.27.2-.82v-1.38zm0-4.8v2.88h-1v-2.9zm0-4.8v2.87h-1v-2.88zm0-1.94h-1v-1.3h1zm.04-22.1V292h-1v-2.14zm0-4.8v2.88h-1v-2.9zm0-4.8v2.87h-1v-2.88zm.02-3.38v1.45h-1v-1.45z" stroke="#3a414a" stroke-width=".05" fill="#3a414a"/><path d="M686 359.52l-.5-.02h-.5v-.5h1z" fill="#3a414a"/><path d="M686.02 359.54l-.52-.02h-.53v-.56h1.05zm-1-.53v.48h.95v-.47z" stroke="#3a414a" stroke-width=".05" fill="#3a414a"/><path d="M875.62 276.38h-9.28l4.64-14.26z" fill="#3a414a"/><path d="M876.3 276.88h-10.64l5.32-16.38zm-9.27-1h7.9l-3.95-12.14z" stroke="#3a414a" stroke-width=".05" fill="#3a414a"/><g><use xlink:href="#n" transform="matrix(1,0,0,1,834.7485436656391,292.00000000000006) translate(0.005000000000002558 12.444444444444446)"/></g><path d="M500 952.92h104.52M499.5 952.92" stroke="#3a414a" fill="none"/><path d="M605 953.42h-.5v-1h.54zM767.93 954.48h-1.44v-1h1.43zm4.8 0h-2.9v-1h2.9zm4.78 0h-2.86v-1h2.87zm4.8 0h-2.87v-1h2.88zm4.8 0h-2.88v-1h2.88zm4.8 0H789v-1h2.9zm4.78 0h-2.87v-1h2.88zm4.8 0h-2.88v-1h2.88zm4.8 0h-2.9v-1h2.9zm4.78 0h-2.88v-1h2.88zm4.8 0h-2.88v-1h2.87zm4.8 0h-2.9v-1h2.9zm4.72-.16l-.36.1-1 .06h-1.46v-1h1.42l.88-.06.28-.07zm3.76-2.38l-.54.64-.78.66-.7.44-.54-.85.65-.4.66-.56.48-.58zm1.3-4.5v1.54l-.26 1-.14.35-.92-.38.1-.27.2-.82v-1.43zm0-5v3h-1v-3zm0-4.97v3h-1v-3zm0-4.97v2.98h-1v-2.98zm0-4.98v2.98h-1v-2.98zm0-4.98v3h-1v-3zm0-4.98v3h-1v-3zm0-4.98v3h-1v-3zm0-4.97v3h-1v-3zm0-4.97v2.98h-1v-2.97zm.02-4.98v3h-1v-3zm0-4.98v3h-1v-3zm0-4.98v2.98h-1v-3zm0-4.98v2.98h-1v-2.98zm0-4.98v3l-1-.02v-2.98zm0-4.98v3h-1v-3zm0-4.98v3h-1v-3zm.02-4.98v3h-1v-3zm0-4.97v2.98h-1v-2.97zm0-4.98v3l-1-.02v-2.98zm0-4.98v3h-1v-3zm0-4.98v2.98h-1v-3zm0-5v3h-1v-3zm0-4.96v2.98h-1v-2.98zm.02-4.98v3h-1v-3zm0-4.98v3h-1v-3zm.14-4.63l-.07.3-.07.87V821h-1v-1.52l.08-1 .08-.36zm2.05-3.24l-.6.5-.55.66-.4.65-.85-.5.44-.73.66-.77.64-.55zm3.85-1.03h-1.43l-.82.2-.27.1-.38-.92.34-.14 1-.23h1.55zm4.97 0h-2.98v-1h2.98zm4.97 0h-3v-1h3zm4.96 0h-2.98v-1h2.98zm4.97 0h-3v-1h3zm4.96 0h-3v-1h3zm4.96-.02h-2.98v-1h2.98zm4.97 0h-2.98v-1h2.98zm4.97 0h-2.98v-1h2.98zm4.97 0h-2.98v-1h2.97zm4.97 0h-3v-1h3zm3.13 0h-1.15v-1h1.15zm76.36-.05h-2.98v-1h2.98zm3.48 0h-1.48v-1h1.5z" stroke="#3a414a" stroke-width=".05" fill="#3a414a"/><path d="M766.5 954.48h-.53l.02-.5v-.4l-.02-.1h.52z" fill="#3a414a"/><path d="M766.53 954.5h-.58l.02-.5v-.54h.56zm-.52-1v.1l.02.4-.02.46h.48v-.95z" stroke="#3a414a" stroke-width=".05" fill="#3a414a"/><path d="M983.97 813.5l-14.26 4.63v-9.27z" fill="#3a414a"/><path d="M985.6 813.5l-16.4 5.32v-10.65zm-15.4 3.94l12.15-3.94-12.14-3.95z" stroke="#3a414a" stroke-width=".05" fill="#3a414a"/><g><use xlink:href="#n" transform="matrix(1,0,0,1,889.3685185185187,804.1627296587964) translate(0.005000000000002558 12.444444444444446)"/></g><path d="M767.98 954.48h-1.5v-1h1.5zm4.95 0h-2.97v-1h2.97zm4.96 0h-2.98v-1h2.97zm4.95 0h-2.98v-1h2.98zm4.96 0h-2.97v-1h2.98zm4.96 0h-2.97v-1h2.96zm4.96 0h-2.97v-1h2.97zm4.96 0h-2.98v-1h2.98zm4.95 0h-2.97v-1h2.97zm4.96 0h-2.98v-1h2.97zm4.95 0h-2.98v-1h2.98zm4.96 0h-2.97v-1h2.98zm4.96 0h-2.97v-1h2.96zm4.96 0h-2.98v-1h2.98zm4.96 0h-2.98v-1h2.98zm4.95 0h-2.97v-1h2.97zm4.96 0h-2.98v-1h2.97zm4.95 0h-2.98v-1h2.98zm4.95 0h-2.97v-1h2.97zm4.96 0h-2.97v-1h2.96zm4.96 0h-2.98v-1h2.98zm4.96 0h-2.98v-1h2.98zm3.16 0h-1.18v-1h1.18zm75.8-.48h-2.93v-1h2.95zm4.92 0h-2.94v-1h2.94zm4.9 0h-2.94v-1h2.95zm4.9 0h-2.93v-1h2.94zm3.45 0h-1.47v-1h1.48z" stroke="#3a414a" stroke-width=".05" fill="#3a414a"/><path d="M766.5 954.48h-.53l.02-.5v-.4l-.02-.1h.52z" fill="#3a414a"/><path d="M766.53 954.5h-.58l.02-.5v-.54h.56zm-.52-1v.1l.02.4-.02.46h.48v-.95z" stroke="#3a414a" stroke-width=".05" fill="#3a414a"/><path d="M983.97 953.5l-14.26 4.63v-9.27z" fill="#3a414a"/><path d="M985.6 953.5l-16.4 5.32v-10.65zm-15.4 3.94l12.15-3.94-12.14-3.95z" stroke="#3a414a" stroke-width=".05" fill="#3a414a"/><g><use xlink:href="#n" transform="matrix(1,0,0,1,875.2351851851851,944.1627296587964) translate(0.005000000000002558 12.444444444444446)"/></g><path d="M969.2 1093v1h-1.48v-1zm-3.47 0v1h-2.57v-1zm-75.03-.05v1h-2.48v-1zm-4.46 0v1h-3v-1zm-4.97 0v1h-2.98v-1zm-4.97 0v1h-2.98v-1zm-4.97 0v1h-2.98v-1zm-4.97 0v1h-2.98v-1zm-4.97 0v1h-3v-1zm-4.97-.02v1h-3v-1zm-4.97 0v1h-2.98v-1zm-4.97 0v1h-3v-1zm-4.98 0v1h-2.98v-1zm-7.22-.2l.82.2h1.43v1H835l-1-.25-.35-.14.38-.93zm-2.75-2l.56.65.6.5-.66.76-.64-.55-.66-.78-.44-.72.85-.52zm-1.05-3.25l.07.88.07.28-.98.23-.08-.36-.08-.98v-1.5h1zm0-3.44h-1v-2.97h1zm0-4.94h-1v-2.97h1zm0-4.94h-1v-2.97h1zm0-4.94h-1v-2.97h1zm0-4.94h-1l-.02-2.97h1zm-.02-4.94h-1v-2.97h1zm0-4.94h-1v-2.97h1zm0-4.95h-1v-2.96h1zm0-4.94h-1v-2.95h1zm0-4.93h-1v-2.96h1zm0-4.94h-1v-2.96h1zm0-4.94h-1v-2.97h1zm-.02-4.95h-1v-2.96h1zm0-4.94h-1v-2.95h1zm0-4.93h-1v-2.96h1zm0-4.94h-1v-2.96h1zm0-4.94h-1v-2.97h1zm0-4.95h-1v-2.96h1zm0-4.94h-1v-2.95h1zm-.02-4.93h-1v-2.96h1zm0-4.94h-1v-2.96h1zm0-4.94h-1v-2.97h1zm0-4.95h-1v-2.96l1-.02zm0-4.94h-1v-2.96h1zm0-4.93h-1v-2.97h1zm-.26-7.5l.25 1.02v1.53h-1v-1.43l-.2-.8-.1-.28.9-.4zm-2.36-3.25l.78.67.54.63-.76.64-.5-.57-.65-.56-.65-.4.53-.85zm-2.8-1.16l.36.1-.24.96-.28-.07-.88-.07h-1.42v-1h1.46zm-57.1.92h-1.43v-1h1.43zm4.8 0h-2.88v-1h2.88zm4.8 0h-2.88v-1h2.87zm4.8 0h-2.9v-1h2.9zm4.78 0h-2.88v-1h2.88zm4.8 0H789v-1h2.9zm4.78 0h-2.87v-1h2.88zm4.8 0h-2.88v-1h2.88zm4.8 0h-2.9v-1h2.9zm4.78 0h-2.88v-1h2.88zm4.8 0h-2.88v-1h2.87zm4.8 0h-2.9v-1h2.9z" stroke="#3a414a" stroke-width=".05" fill="#3a414a"/><path d="M766.5 954.48h-.53l.02-.5v-.4l-.02-.1h.52z" fill="#3a414a"/><path d="M766.53 954.5h-.58l.02-.5v-.54h.56zm-.52-1v.1l.02.4-.02.46h.48v-.95z" stroke="#3a414a" stroke-width=".05" fill="#3a414a"/><path d="M983.97 1093.5l-14.26 4.63v-9.27z" fill="#3a414a"/><path d="M985.6 1093.5l-16.4 5.32v-10.65zm-15.4 3.94l12.15-3.94-12.14-3.95z" stroke="#3a414a" stroke-width=".05" fill="#3a414a"/><g><use xlink:href="#n" transform="matrix(1,0,0,1,890.701851851852,1084.1627296587965) translate(0.005000000000002558 12.444444444444446)"/></g><defs><path fill="#3a414a" d="M232-93c-1 65-40 97-104 97C67 4 28-28 28-90v-158h33c8 89-33 224 67 224 102 0 64-133 71-224h33v155" id="I"/><path fill="#3a414a" d="M59-47c-2 24 18 29 38 22v24C64 9 27 4 27-40v-127H5v-23h24l9-43h21v43h35v23H59v120" id="J"/><path fill="#3a414a" d="M100-194c63 0 86 42 84 106H49c0 40 14 67 53 68 26 1 43-12 49-29l28 8c-11 28-37 45-77 45C44 4 14-33 15-96c1-61 26-98 85-98zm52 81c6-60-76-77-97-28-3 7-6 17-6 28h103" id="K"/><path fill="#3a414a" d="M117-194c89-4 53 116 60 194h-32v-121c0-31-8-49-39-48C34-167 62-67 57 0H25l-1-190h30c1 10-1 24 2 32 11-22 29-35 61-36" id="L"/><g id="a"><use transform="matrix(0.06172839506172839,0,0,0.06172839506172839,0,0)" xlink:href="#I"/><use transform="matrix(0.06172839506172839,0,0,0.06172839506172839,15.987654320987653,0)" xlink:href="#J"/><use transform="matrix(0.06172839506172839,0,0,0.06172839506172839,22.160493827160494,0)" xlink:href="#K"/><use transform="matrix(0.06172839506172839,0,0,0.06172839506172839,34.50617283950617,0)" xlink:href="#L"/><use transform="matrix(0.06172839506172839,0,0,0.06172839506172839,46.85185185185185,0)" xlink:href="#J"/><use transform="matrix(0.06172839506172839,0,0,0.06172839506172839,53.02469135802469,0)" xlink:href="#K"/></g><path fill="#3a414a" d="M100-194c62-1 85 37 85 99 1 63-27 99-86 99S16-35 15-95c0-66 28-99 85-99zM99-20c44 1 53-31 53-75 0-43-8-75-51-75s-53 32-53 75 10 74 51 75" id="M"/><g id="b"><use transform="matrix(0.06172839506172839,0,0,0.06172839506172839,0,0)" xlink:href="#L"/><use transform="matrix(0.06172839506172839,0,0,0.06172839506172839,12.345679012345679,0)" xlink:href="#M"/><use transform="matrix(0.06172839506172839,0,0,0.06172839506172839,24.691358024691358,0)" xlink:href="#L"/></g><path fill="#3a414a" d="M141-36C126-15 110 5 73 4 37 3 15-17 15-53c-1-64 63-63 125-63 3-35-9-54-41-54-24 1-41 7-42 31l-33-3c5-37 33-52 76-52 45 0 72 20 72 64v82c-1 20 7 32 28 27v20c-31 9-61-2-59-35zM48-53c0 20 12 33 32 33 41-3 63-29 60-74-43 2-92-5-92 41" id="N"/><path fill="#3a414a" d="M84 4C-5 8 30-112 23-190h32v120c0 31 7 50 39 49 72-2 45-101 50-169h31l1 190h-30c-1-10 1-25-2-33-11 22-28 36-60 37" id="O"/><path fill="#3a414a" d="M24-231v-30h32v30H24zM24 0v-190h32V0H24" id="P"/><path fill="#3a414a" d="M96-169c-40 0-48 33-48 73s9 75 48 75c24 0 41-14 43-38l32 2c-6 37-31 61-74 61-59 0-76-41-82-99-10-93 101-131 147-64 4 7 5 14 7 22l-32 3c-4-21-16-35-41-35" id="Q"/><g id="c"><use transform="matrix(0.06172839506172839,0,0,0.06172839506172839,0,0)" xlink:href="#N"/><use transform="matrix(0.06172839506172839,0,0,0.06172839506172839,12.345679012345679,0)" xlink:href="#O"/><use transform="matrix(0.06172839506172839,0,0,0.06172839506172839,24.691358024691358,0)" xlink:href="#J"/><use transform="matrix(0.06172839506172839,0,0,0.06172839506172839,30.864197530864196,0)" xlink:href="#K"/><use transform="matrix(0.06172839506172839,0,0,0.06172839506172839,43.20987654320987,0)" xlink:href="#L"/><use transform="matrix(0.06172839506172839,0,0,0.06172839506172839,55.55555555555555,0)" xlink:href="#J"/><use transform="matrix(0.06172839506172839,0,0,0.06172839506172839,61.72839506172839,0)" xlink:href="#P"/><use transform="matrix(0.06172839506172839,0,0,0.06172839506172839,66.60493827160494,0)" xlink:href="#Q"/><use transform="matrix(0.06172839506172839,0,0,0.06172839506172839,77.71604938271605,0)" xlink:href="#N"/><use transform="matrix(0.06172839506172839,0,0,0.06172839506172839,90.06172839506173,0)" xlink:href="#J"/><use transform="matrix(0.06172839506172839,0,0,0.06172839506172839,96.23456790123457,0)" xlink:href="#M"/></g><path d="M108 0H70L1-190h34L89-25l56-165h34" id="R"/><path d="M24-231v-30h32v30H24zM24 0v-190h32V0H24" id="S"/><path d="M135-143c-3-34-86-38-87 0 15 53 115 12 119 90S17 21 10-45l28-5c4 36 97 45 98 0-10-56-113-15-118-90-4-57 82-63 122-42 12 7 21 19 24 35" id="T"/><path d="M84 4C-5 8 30-112 23-190h32v120c0 31 7 50 39 49 72-2 45-101 50-169h31l1 190h-30c-1-10 1-25-2-33-11 22-28 36-60 37" id="U"/><path d="M141-36C126-15 110 5 73 4 37 3 15-17 15-53c-1-64 63-63 125-63 3-35-9-54-41-54-24 1-41 7-42 31l-33-3c5-37 33-52 76-52 45 0 72 20 72 64v82c-1 20 7 32 28 27v20c-31 9-61-2-59-35zM48-53c0 20 12 33 32 33 41-3 63-29 60-74-43 2-92-5-92 41" id="V"/><path d="M24 0v-261h32V0H24" id="W"/><path d="M9 0v-24l116-142H16v-24h144v24L44-24h123V0H9" id="X"/><g id="d"><use transform="matrix(0.05,0,0,0.05,0,0)" xlink:href="#R"/><use transform="matrix(0.05,0,0,0.05,9,0)" xlink:href="#S"/><use transform="matrix(0.05,0,0,0.05,12.949999999999998,0)" xlink:href="#T"/><use transform="matrix(0.05,0,0,0.05,21.95,0)" xlink:href="#U"/><use transform="matrix(0.05,0,0,0.05,31.950000000000003,0)" xlink:href="#V"/><use transform="matrix(0.05,0,0,0.05,41.95,0)" xlink:href="#W"/><use transform="matrix(0.05,0,0,0.05,45.900000000000006,0)" xlink:href="#S"/><use transform="matrix(0.05,0,0,0.05,49.85000000000001,0)" xlink:href="#X"/><use transform="matrix(0.05,0,0,0.05,58.85,0)" xlink:href="#X"/><use transform="matrix(0.05,0,0,0.05,67.85000000000001,0)" xlink:href="#V"/></g><path d="M115-194c55 1 70 41 70 98S169 2 115 4C84 4 66-9 55-30l1 105H24l-1-265h31l2 30c10-21 28-34 59-34zm-8 174c40 0 45-34 45-75s-6-73-45-74c-42 0-51 32-51 76 0 43 10 73 51 73" id="Y"/><path d="M100-194c62-1 85 37 85 99 1 63-27 99-86 99S16-35 15-95c0-66 28-99 85-99zM99-20c44 1 53-31 53-75 0-43-8-75-51-75s-53 32-53 75 10 74 51 75" id="Z"/><path d="M117-194c89-4 53 116 60 194h-32v-121c0-31-8-49-39-48C34-167 62-67 57 0H25l-1-190h30c1 10-1 24 2 32 11-22 29-35 61-36" id="aa"/><path d="M100-194c63 0 86 42 84 106H49c0 40 14 67 53 68 26 1 43-12 49-29l28 8c-11 28-37 45-77 45C44 4 14-33 15-96c1-61 26-98 85-98zm52 81c6-60-76-77-97-28-3 7-6 17-6 28h103" id="ab"/><g id="e"><use transform="matrix(0.05,0,0,0.05,0,0)" xlink:href="#Y"/><use transform="matrix(0.05,0,0,0.05,10,0)" xlink:href="#Z"/><use transform="matrix(0.05,0,0,0.05,20,0)" xlink:href="#T"/><use transform="matrix(0.05,0,0,0.05,29,0)" xlink:href="#S"/><use transform="matrix(0.05,0,0,0.05,32.95,0)" xlink:href="#X"/><use transform="matrix(0.05,0,0,0.05,41.95,0)" xlink:href="#S"/><use transform="matrix(0.05,0,0,0.05,45.900000000000006,0)" xlink:href="#Z"/><use transform="matrix(0.05,0,0,0.05,55.900000000000006,0)" xlink:href="#aa"/><use transform="matrix(0.05,0,0,0.05,65.9,0)" xlink:href="#ab"/></g><path d="M85-194c31 0 48 13 60 33l-1-100h32l1 261h-30c-2-10 0-23-3-31C134-8 116 4 85 4 32 4 16-35 15-94c0-66 23-100 70-100zm9 24c-40 0-46 34-46 75 0 40 6 74 45 74 42 0 51-32 51-76 0-42-9-74-50-73" id="ac"/><path d="M47-170H22l-4-78h33" id="ad"/><path d="M59-47c-2 24 18 29 38 22v24C64 9 27 4 27-40v-127H5v-23h24l9-43h21v43h35v23H59v120" id="ae"/><path d="M141-36C126-15 110 5 73 4 37 3 15-17 15-53c-1-64 63-63 125-63 3-35-9-54-41-54-24 1-41 7-42 31l-33-3c5-37 33-52 76-52 45 0 72 20 72 64v82c-1 20 7 32 28 27v20c-31 9-61-2-59-35zM48-53c0 20 12 33 32 33 41-3 63-29 60-74-43 2-92-5-92 41zm62-158l-58-49v-5h36c12 19 30 32 38 54h-16" id="af"/><g id="f"><use transform="matrix(0.05,0,0,0.05,0,0)" xlink:href="#ac"/><use transform="matrix(0.05,0,0,0.05,10,0)" xlink:href="#ab"/><use transform="matrix(0.05,0,0,0.05,20,0)" xlink:href="#W"/><use transform="matrix(0.05,0,0,0.05,23.95,0)" xlink:href="#W"/><use transform="matrix(0.05,0,0,0.05,27.899999999999995,0)" xlink:href="#ad"/><use transform="matrix(0.05,0,0,0.05,31.299999999999997,0)" xlink:href="#V"/><use transform="matrix(0.05,0,0,0.05,41.3,0)" xlink:href="#ae"/><use transform="matrix(0.05,0,0,0.05,46.3,0)" xlink:href="#ae"/><use transform="matrix(0.05,0,0,0.05,51.29999999999999,0)" xlink:href="#S"/><use transform="matrix(0.05,0,0,0.05,55.25,0)" xlink:href="#R"/><use transform="matrix(0.05,0,0,0.05,64.25,0)" xlink:href="#S"/><use transform="matrix(0.05,0,0,0.05,68.2,0)" xlink:href="#ae"/><use transform="matrix(0.05,0,0,0.05,73.2,0)" xlink:href="#af"/></g><g id="g"><use transform="matrix(0.05,0,0,0.05,0,0)" xlink:href="#aa"/><use transform="matrix(0.05,0,0,0.05,10,0)" xlink:href="#ab"/><use transform="matrix(0.05,0,0,0.05,20,0)" xlink:href="#W"/></g><path d="M96-169c-40 0-48 33-48 73s9 75 48 75c24 0 41-14 43-38l32 2c-6 37-31 61-74 61-59 0-76-41-82-99-10-93 101-131 147-64 4 7 5 14 7 22l-32 3c-4-21-16-35-41-35" id="ag"/><path d="M114-163C36-179 61-72 57 0H25l-1-190h30c1 12-1 29 2 39 6-27 23-49 58-41v29" id="ah"/><g id="h"><use transform="matrix(0.05,0,0,0.05,0,0)" xlink:href="#ag"/><use transform="matrix(0.05,0,0,0.05,9,0)" xlink:href="#V"/><use transform="matrix(0.05,0,0,0.05,19,0)" xlink:href="#W"/><use transform="matrix(0.05,0,0,0.05,22.95,0)" xlink:href="#ab"/><use transform="matrix(0.05,0,0,0.05,32.95,0)" xlink:href="#aa"/><use transform="matrix(0.05,0,0,0.05,42.95,0)" xlink:href="#ac"/><use transform="matrix(0.05,0,0,0.05,52.95,0)" xlink:href="#V"/><use transform="matrix(0.05,0,0,0.05,62.95,0)" xlink:href="#ah"/><use transform="matrix(0.05,0,0,0.05,68.9,0)" xlink:href="#S"/><use transform="matrix(0.05,0,0,0.05,72.85000000000001,0)" xlink:href="#Z"/></g><g id="i"><use transform="matrix(0.05,0,0,0.05,0,0)" xlink:href="#R"/><use transform="matrix(0.05,0,0,0.05,9,0)" xlink:href="#S"/><use transform="matrix(0.05,0,0,0.05,12.949999999999998,0)" xlink:href="#T"/><use transform="matrix(0.05,0,0,0.05,21.95,0)" xlink:href="#U"/><use transform="matrix(0.05,0,0,0.05,31.950000000000003,0)" xlink:href="#V"/><use transform="matrix(0.05,0,0,0.05,41.95,0)" xlink:href="#W"/><use transform="matrix(0.05,0,0,0.05,45.900000000000006,0)" xlink:href="#S"/><use transform="matrix(0.05,0,0,0.05,49.85000000000001,0)" xlink:href="#X"/><use transform="matrix(0.05,0,0,0.05,58.85,0)" xlink:href="#X"/><use transform="matrix(0.05,0,0,0.05,67.85000000000001,0)" xlink:href="#V"/></g><g id="j"><use transform="matrix(0.05,0,0,0.05,0,0)" xlink:href="#ae"/><use transform="matrix(0.05,0,0,0.05,5,0)" xlink:href="#S"/><use transform="matrix(0.05,0,0,0.05,8.95,0)" xlink:href="#ae"/><use transform="matrix(0.05,0,0,0.05,13.949999999999998,0)" xlink:href="#Z"/><use transform="matrix(0.05,0,0,0.05,23.95,0)" xlink:href="#W"/><use transform="matrix(0.05,0,0,0.05,27.899999999999995,0)" xlink:href="#Z"/></g><g id="k"><use transform="matrix(0.05,0,0,0.05,0,0)" xlink:href="#ac"/><use transform="matrix(0.05,0,0,0.05,10,0)" xlink:href="#ab"/><use transform="matrix(0.05,0,0,0.05,20,0)" xlink:href="#W"/><use transform="matrix(0.05,0,0,0.05,23.95,0)" xlink:href="#W"/><use transform="matrix(0.05,0,0,0.05,27.899999999999995,0)" xlink:href="#ad"/><use transform="matrix(0.05,0,0,0.05,31.299999999999997,0)" xlink:href="#ab"/><use transform="matrix(0.05,0,0,0.05,41.3,0)" xlink:href="#R"/><use transform="matrix(0.05,0,0,0.05,50.3,0)" xlink:href="#ab"/><use transform="matrix(0.05,0,0,0.05,60.29999999999999,0)" xlink:href="#aa"/><use transform="matrix(0.05,0,0,0.05,70.3,0)" xlink:href="#ae"/><use transform="matrix(0.05,0,0,0.05,75.3,0)" xlink:href="#Z"/></g><g id="l"><use transform="matrix(0.05,0,0,0.05,0,0)" xlink:href="#S"/><use transform="matrix(0.05,0,0,0.05,3.95,0)" xlink:href="#W"/></g><g id="m"><use transform="matrix(0.05,0,0,0.05,0,0)" xlink:href="#ag"/><use transform="matrix(0.05,0,0,0.05,9,0)" xlink:href="#Z"/><use transform="matrix(0.05,0,0,0.05,19,0)" xlink:href="#W"/><use transform="matrix(0.05,0,0,0.05,22.95,0)" xlink:href="#Z"/><use transform="matrix(0.05,0,0,0.05,32.95,0)" xlink:href="#ah"/><use transform="matrix(0.05,0,0,0.05,38.900000000000006,0)" xlink:href="#ab"/></g><path fill="#333" d="M15-91v-56l181-69v40L49-119l147 57v40" id="ai"/><path fill="#333" d="M25-224v-37h50v37H25zM25 0v-190h50V0H25" id="aj"/><path fill="#333" d="M135-194c87-1 58 113 63 194h-50c-7-57 23-157-34-157-59 0-34 97-39 157H25l-1-190h47c2 12-1 28 3 38 12-26 28-41 61-42" id="ak"/><path fill="#333" d="M190-63c-7 42-38 67-86 67-59 0-84-38-90-98-12-110 154-137 174-36l-49 2c-2-19-15-32-35-32-30 0-35 28-38 64-6 74 65 87 74 30" id="al"/><path fill="#333" d="M25 0v-261h50V0H25" id="am"/><path fill="#333" d="M85 4C-2 5 27-109 22-190h50c7 57-23 150 33 157 60-5 35-97 40-157h50l1 190h-47c-2-12 1-28-3-38-12 25-28 42-61 42" id="an"/><path fill="#333" d="M88-194c31-1 46 15 58 34l-1-101h50l1 261h-48c-2-10 0-23-3-31C134-8 116 4 84 4 32 4 16-41 15-95c0-56 19-97 73-99zm17 164c33 0 40-30 41-66 1-37-9-64-41-64s-38 30-39 65c0 43 13 65 39 65" id="ao"/><path fill="#333" d="M185-48c-13 30-37 53-82 52C43 2 14-33 14-96s30-98 90-98c62 0 83 45 84 108H66c0 31 8 55 39 56 18 0 30-7 34-22zm-45-69c5-46-57-63-70-21-2 6-4 13-4 21h74" id="ap"/><path fill="#333" d="M15-22v-40l146-57-146-57v-40l181 69v56" id="aq"/><g id="n"><use transform="matrix(0.04320987654320988,0,0,0.04320987654320988,0,0)" xlink:href="#ai"/><use transform="matrix(0.04320987654320988,0,0,0.04320987654320988,9.074074074074074,0)" xlink:href="#aj"/><use transform="matrix(0.04320987654320988,0,0,0.04320987654320988,13.395061728395063,0)" xlink:href="#ak"/><use transform="matrix(0.04320987654320988,0,0,0.04320987654320988,22.858024691358025,0)" xlink:href="#al"/><use transform="matrix(0.04320987654320988,0,0,0.04320987654320988,31.5,0)" xlink:href="#am"/><use transform="matrix(0.04320987654320988,0,0,0.04320987654320988,35.82098765432099,0)" xlink:href="#an"/><use transform="matrix(0.04320987654320988,0,0,0.04320987654320988,45.28395061728394,0)" xlink:href="#ao"/><use transform="matrix(0.04320987654320988,0,0,0.04320987654320988,54.74691358024691,0)" xlink:href="#ap"/><use transform="matrix(0.04320987654320988,0,0,0.04320987654320988,63.388888888888886,0)" xlink:href="#aq"/></g><g id="o"><use transform="matrix(0.05,0,0,0.05,0,0)" xlink:href="#V"/><use transform="matrix(0.05,0,0,0.05,10,0)" xlink:href="#W"/><use transform="matrix(0.05,0,0,0.05,13.949999999999998,0)" xlink:href="#ae"/><use transform="matrix(0.05,0,0,0.05,18.95,0)" xlink:href="#ah"/><use transform="matrix(0.05,0,0,0.05,24.9,0)" xlink:href="#ab"/></g><path d="M101-234c-31-9-42 10-38 44h38v23H63V0H32v-167H5v-23h27c-7-52 17-82 69-68v24" id="ar"/><path d="M210-169c-67 3-38 105-44 169h-31v-121c0-29-5-50-35-48C34-165 62-65 56 0H25l-1-190h30c1 10-1 24 2 32 10-44 99-50 107 0 11-21 27-35 58-36 85-2 47 119 55 194h-31v-121c0-29-5-49-35-48" id="as"/><g id="p"><use transform="matrix(0.05,0,0,0.05,0,0)" xlink:href="#S"/><use transform="matrix(0.05,0,0,0.05,3.95,0)" xlink:href="#aa"/><use transform="matrix(0.05,0,0,0.05,13.949999999999998,0)" xlink:href="#ar"/><use transform="matrix(0.05,0,0,0.05,18.95,0)" xlink:href="#Z"/><use transform="matrix(0.05,0,0,0.05,28.950000000000003,0)" xlink:href="#ah"/><use transform="matrix(0.05,0,0,0.05,34.9,0)" xlink:href="#as"/><use transform="matrix(0.05,0,0,0.05,49.85,0)" xlink:href="#V"/><use transform="matrix(0.05,0,0,0.05,59.85,0)" xlink:href="#X"/><use transform="matrix(0.05,0,0,0.05,68.85,0)" xlink:href="#S"/><use transform="matrix(0.05,0,0,0.05,72.8,0)" xlink:href="#Z"/><use transform="matrix(0.05,0,0,0.05,82.8,0)" xlink:href="#aa"/><use transform="matrix(0.05,0,0,0.05,92.8,0)" xlink:href="#S"/></g><path fill="#333" d="M144 0l-44-69L55 0H2l70-98-66-92h53l41 62 40-62h54l-67 91 71 99h-54" id="at"/><path fill="#333" d="M115-3C79 11 28 4 28-45v-112H4v-33h27l15-45h31v45h36v33H77v99c-1 23 16 31 38 25v30" id="au"/><g id="q"><use transform="matrix(0.04938271604938272,0,0,0.04938271604938272,0,0)" xlink:href="#ai"/><use transform="matrix(0.04938271604938272,0,0,0.04938271604938272,10.370370370370372,0)" xlink:href="#ap"/><use transform="matrix(0.04938271604938272,0,0,0.04938271604938272,20.24691358024692,0)" xlink:href="#at"/><use transform="matrix(0.04938271604938272,0,0,0.04938271604938272,30.123456790123466,0)" xlink:href="#au"/><use transform="matrix(0.04938271604938272,0,0,0.04938271604938272,36.00000000000001,0)" xlink:href="#ap"/><use transform="matrix(0.04938271604938272,0,0,0.04938271604938272,45.87654320987655,0)" xlink:href="#ak"/><use transform="matrix(0.04938271604938272,0,0,0.04938271604938272,56.69135802469136,0)" xlink:href="#ao"/><use transform="matrix(0.04938271604938272,0,0,0.04938271604938272,67.50617283950618,0)" xlink:href="#aq"/></g><g id="r"><use transform="matrix(0.06172839506172839,0,0,0.06172839506172839,0,0)" xlink:href="#I"/><use transform="matrix(0.06172839506172839,0,0,0.06172839506172839,15.987654320987653,0)" xlink:href="#J"/><use transform="matrix(0.06172839506172839,0,0,0.06172839506172839,22.160493827160494,0)" xlink:href="#K"/><use transform="matrix(0.06172839506172839,0,0,0.06172839506172839,34.50617283950617,0)" xlink:href="#L"/><use transform="matrix(0.06172839506172839,0,0,0.06172839506172839,46.85185185185185,0)" xlink:href="#J"/><use transform="matrix(0.06172839506172839,0,0,0.06172839506172839,53.02469135802469,0)" xlink:href="#K"/></g><g id="s"><use transform="matrix(0.06172839506172839,0,0,0.06172839506172839,0,0)" xlink:href="#N"/><use transform="matrix(0.06172839506172839,0,0,0.06172839506172839,12.345679012345679,0)" xlink:href="#O"/><use transform="matrix(0.06172839506172839,0,0,0.06172839506172839,24.691358024691358,0)" xlink:href="#J"/><use transform="matrix(0.06172839506172839,0,0,0.06172839506172839,30.864197530864196,0)" xlink:href="#K"/><use transform="matrix(0.06172839506172839,0,0,0.06172839506172839,43.20987654320987,0)" xlink:href="#L"/><use transform="matrix(0.06172839506172839,0,0,0.06172839506172839,55.55555555555555,0)" xlink:href="#J"/><use transform="matrix(0.06172839506172839,0,0,0.06172839506172839,61.72839506172839,0)" xlink:href="#P"/><use transform="matrix(0.06172839506172839,0,0,0.06172839506172839,66.60493827160494,0)" xlink:href="#Q"/><use transform="matrix(0.06172839506172839,0,0,0.06172839506172839,77.71604938271605,0)" xlink:href="#N"/><use transform="matrix(0.06172839506172839,0,0,0.06172839506172839,90.06172839506173,0)" xlink:href="#J"/><use transform="matrix(0.06172839506172839,0,0,0.06172839506172839,96.23456790123457,0)" xlink:href="#M"/></g><path fill="#3a414a" d="M135-143c-3-34-86-38-87 0 15 53 115 12 119 90S17 21 10-45l28-5c4 36 97 45 98 0-10-56-113-15-118-90-4-57 82-63 122-42 12 7 21 19 24 35" id="av"/><path fill="#3a414a" d="M85-194c31 0 48 13 60 33l-1-100h32l1 261h-30c-2-10 0-23-3-31C134-8 116 4 85 4 32 4 16-35 15-94c0-66 23-100 70-100zm9 24c-40 0-46 34-46 75 0 40 6 74 45 74 42 0 51-32 51-76 0-42-9-74-50-73" id="aw"/><path fill="#3a414a" d="M114-163C36-179 61-72 57 0H25l-1-190h30c1 12-1 29 2 39 6-27 23-49 58-41v29" id="ax"/><g id="t"><use transform="matrix(0.06172839506172839,0,0,0.06172839506172839,0,0)" xlink:href="#av"/><use transform="matrix(0.06172839506172839,0,0,0.06172839506172839,11.11111111111111,0)" xlink:href="#J"/><use transform="matrix(0.06172839506172839,0,0,0.06172839506172839,17.28395061728395,0)" xlink:href="#N"/><use transform="matrix(0.06172839506172839,0,0,0.06172839506172839,29.629629629629626,0)" xlink:href="#L"/><use transform="matrix(0.06172839506172839,0,0,0.06172839506172839,41.9753086419753,0)" xlink:href="#aw"/><use transform="matrix(0.06172839506172839,0,0,0.06172839506172839,54.32098765432098,0)" xlink:href="#N"/><use transform="matrix(0.06172839506172839,0,0,0.06172839506172839,66.66666666666666,0)" xlink:href="#ax"/><use transform="matrix(0.06172839506172839,0,0,0.06172839506172839,74.01234567901234,0)" xlink:href="#aw"/></g><g id="u"><use transform="matrix(0.05,0,0,0.05,0,0)" xlink:href="#ac"/><use transform="matrix(0.05,0,0,0.05,10,0)" xlink:href="#ab"/><use transform="matrix(0.05,0,0,0.05,20,0)" xlink:href="#T"/><use transform="matrix(0.05,0,0,0.05,29,0)" xlink:href="#ag"/><use transform="matrix(0.05,0,0,0.05,38,0)" xlink:href="#ah"/><use transform="matrix(0.05,0,0,0.05,43.95,0)" xlink:href="#S"/><use transform="matrix(0.05,0,0,0.05,47.900000000000006,0)" xlink:href="#X"/><use transform="matrix(0.05,0,0,0.05,56.900000000000006,0)" xlink:href="#S"/><use transform="matrix(0.05,0,0,0.05,60.85,0)" xlink:href="#Z"/><use transform="matrix(0.05,0,0,0.05,70.85000000000001,0)" xlink:href="#aa"/><use transform="matrix(0.05,0,0,0.05,80.85000000000001,0)" xlink:href="#ab"/></g><g id="v"><use transform="matrix(0.05,0,0,0.05,0,0)" xlink:href="#T"/><use transform="matrix(0.05,0,0,0.05,9,0)" xlink:href="#ab"/></g><g id="w"><use transform="matrix(0.05,0,0,0.05,0,0)" xlink:href="#W"/><use transform="matrix(0.05,0,0,0.05,3.95,0)" xlink:href="#ad"/><use transform="matrix(0.05,0,0,0.05,7.3500000000000005,0)" xlink:href="#ab"/><use transform="matrix(0.05,0,0,0.05,17.35,0)" xlink:href="#R"/><use transform="matrix(0.05,0,0,0.05,26.35,0)" xlink:href="#ab"/><use transform="matrix(0.05,0,0,0.05,36.35,0)" xlink:href="#aa"/><use transform="matrix(0.05,0,0,0.05,46.35,0)" xlink:href="#ae"/><use transform="matrix(0.05,0,0,0.05,51.35,0)" xlink:href="#Z"/></g><path d="M100-194c63 0 86 42 84 106H49c0 40 14 67 53 68 26 1 43-12 49-29l28 8c-11 28-37 45-77 45C44 4 14-33 15-96c1-61 26-98 85-98zm52 81c6-60-76-77-97-28-3 7-6 17-6 28h103zm-36-98l-58-49v-5h36c12 19 30 32 38 54h-16" id="ay"/><use transform="matrix(0.05,0,0,0.05,0,0)" xlink:href="#ay" id="x"/><path d="M115-194c53 0 69 39 70 98 0 66-23 100-70 100C84 3 66-7 56-30L54 0H23l1-261h32v101c10-23 28-34 59-34zm-8 174c40 0 45-34 45-75 0-40-5-75-45-74-42 0-51 32-51 76 0 43 10 73 51 73" id="az"/><g id="y"><use transform="matrix(0.05,0,0,0.05,0,0)" xlink:href="#U"/><use transform="matrix(0.05,0,0,0.05,10,0)" xlink:href="#aa"/><use transform="matrix(0.05,0,0,0.05,20,0)" xlink:href="#ad"/><use transform="matrix(0.05,0,0,0.05,23.4,0)" xlink:href="#V"/><use transform="matrix(0.05,0,0,0.05,33.4,0)" xlink:href="#az"/><use transform="matrix(0.05,0,0,0.05,43.4,0)" xlink:href="#S"/><use transform="matrix(0.05,0,0,0.05,47.35,0)" xlink:href="#ae"/><use transform="matrix(0.05,0,0,0.05,52.35,0)" xlink:href="#U"/><use transform="matrix(0.05,0,0,0.05,62.35,0)" xlink:href="#ac"/><use transform="matrix(0.05,0,0,0.05,72.35,0)" xlink:href="#S"/><use transform="matrix(0.05,0,0,0.05,76.3,0)" xlink:href="#aa"/><use transform="matrix(0.05,0,0,0.05,86.3,0)" xlink:href="#ab"/></g><g id="z"><use transform="matrix(0.05,0,0,0.05,0,0)" xlink:href="#ac"/><use transform="matrix(0.05,0,0,0.05,10,0)" xlink:href="#S"/><use transform="matrix(0.05,0,0,0.05,13.949999999999998,0)" xlink:href="#ar"/><use transform="matrix(0.05,0,0,0.05,18.6,0)" xlink:href="#ar"/><use transform="matrix(0.05,0,0,0.05,23.6,0)" xlink:href="#S"/><use transform="matrix(0.05,0,0,0.05,27.55,0)" xlink:href="#ag"/><use transform="matrix(0.05,0,0,0.05,36.55,0)" xlink:href="#Z"/><use transform="matrix(0.05,0,0,0.05,46.55,0)" xlink:href="#W"/><use transform="matrix(0.05,0,0,0.05,50.5,0)" xlink:href="#ae"/><use transform="matrix(0.05,0,0,0.05,55.5,0)" xlink:href="#af"/></g><path d="M177-190C167-65 218 103 67 71c-23-6-38-20-44-43l32-5c15 47 100 32 89-28v-30C133-14 115 1 83 1 29 1 15-40 15-95c0-56 16-97 71-98 29-1 48 16 59 35 1-10 0-23 2-32h30zM94-22c36 0 50-32 50-73 0-42-14-75-50-75-39 0-46 34-46 75s6 73 46 73" id="aA"/><g id="A"><use transform="matrix(0.05,0,0,0.05,0,0)" xlink:href="#W"/><use transform="matrix(0.05,0,0,0.05,3.95,0)" xlink:href="#U"/><use transform="matrix(0.05,0,0,0.05,13.949999999999998,0)" xlink:href="#Z"/><use transform="matrix(0.05,0,0,0.05,23.95,0)" xlink:href="#aA"/><use transform="matrix(0.05,0,0,0.05,33.95,0)" xlink:href="#Z"/></g><g id="B"><use transform="matrix(0.05,0,0,0.05,0,0)" xlink:href="#U"/><use transform="matrix(0.05,0,0,0.05,10,0)" xlink:href="#ae"/><use transform="matrix(0.05,0,0,0.05,15,0)" xlink:href="#ab"/><use transform="matrix(0.05,0,0,0.05,25,0)" xlink:href="#aa"/><use transform="matrix(0.05,0,0,0.05,35,0)" xlink:href="#ae"/><use transform="matrix(0.05,0,0,0.05,40,0)" xlink:href="#S"/></g><use transform="matrix(0.05,0,0,0.05,0,0)" xlink:href="#V" id="C"/><g id="D"><use transform="matrix(0.05,0,0,0.05,0,0)" xlink:href="#ag"/><use transform="matrix(0.05,0,0,0.05,9,0)" xlink:href="#U"/><use transform="matrix(0.05,0,0,0.05,19,0)" xlink:href="#S"/></g><g id="E"><use transform="matrix(0.05,0,0,0.05,0,0)" xlink:href="#ag"/><use transform="matrix(0.05,0,0,0.05,9,0)" xlink:href="#Z"/><use transform="matrix(0.05,0,0,0.05,19,0)" xlink:href="#aa"/><use transform="matrix(0.05,0,0,0.05,29,0)" xlink:href="#ac"/><use transform="matrix(0.05,0,0,0.05,39,0)" xlink:href="#S"/><use transform="matrix(0.05,0,0,0.05,42.95,0)" xlink:href="#R"/><use transform="matrix(0.05,0,0,0.05,51.95,0)" xlink:href="#S"/><use transform="matrix(0.05,0,0,0.05,55.900000000000006,0)" xlink:href="#T"/><use transform="matrix(0.05,0,0,0.05,64.9,0)" xlink:href="#Z"/></g><g id="F"><use transform="matrix(0.05,0,0,0.05,0,0)" xlink:href="#W"/><use transform="matrix(0.05,0,0,0.05,3.95,0)" xlink:href="#ad"/><use transform="matrix(0.05,0,0,0.05,7.3500000000000005,0)" xlink:href="#U"/><use transform="matrix(0.05,0,0,0.05,17.35,0)" xlink:href="#ae"/><use transform="matrix(0.05,0,0,0.05,22.35,0)" xlink:href="#ab"/><use transform="matrix(0.05,0,0,0.05,32.35,0)" xlink:href="#aa"/><use transform="matrix(0.05,0,0,0.05,42.35,0)" xlink:href="#ae"/><use transform="matrix(0.05,0,0,0.05,47.35,0)" xlink:href="#ab"/></g><g id="G"><use transform="matrix(0.05,0,0,0.05,0,0)" xlink:href="#S"/><use transform="matrix(0.05,0,0,0.05,3.95,0)" xlink:href="#as"/><use transform="matrix(0.05,0,0,0.05,18.900000000000002,0)" xlink:href="#Y"/><use transform="matrix(0.05,0,0,0.05,28.900000000000002,0)" xlink:href="#Z"/><use transform="matrix(0.05,0,0,0.05,38.900000000000006,0)" xlink:href="#T"/><use transform="matrix(0.05,0,0,0.05,47.900000000000006,0)" xlink:href="#ae"/><use transform="matrix(0.05,0,0,0.05,52.900000000000006,0)" xlink:href="#V"/><use transform="matrix(0.05,0,0,0.05,62.900000000000006,0)" xlink:href="#X"/><use transform="matrix(0.05,0,0,0.05,71.9,0)" xlink:href="#S"/><use transform="matrix(0.05,0,0,0.05,75.85000000000001,0)" xlink:href="#Z"/><use transform="matrix(0.05,0,0,0.05,85.85000000000001,0)" xlink:href="#aa"/><use transform="matrix(0.05,0,0,0.05,95.85000000000001,0)" xlink:href="#S"/></g><path d="M106-169C34-169 62-67 57 0H25v-261h32l-1 103c12-21 28-36 61-36 89 0 53 116 60 194h-32v-121c2-32-8-49-39-48" id="aB"/><g id="H"><use transform="matrix(0.05,0,0,0.05,0,0)" xlink:href="#aa"/><use transform="matrix(0.05,0,0,0.05,10,0)" xlink:href="#Z"/><use transform="matrix(0.05,0,0,0.05,20,0)" xlink:href="#ae"/><use transform="matrix(0.05,0,0,0.05,25,0)" xlink:href="#S"/><use transform="matrix(0.05,0,0,0.05,28.950000000000003,0)" xlink:href="#ar"/><use transform="matrix(0.05,0,0,0.05,33.95,0)" xlink:href="#S"/><use transform="matrix(0.05,0,0,0.05,37.900000000000006,0)" xlink:href="#ag"/><use transform="matrix(0.05,0,0,0.05,46.900000000000006,0)" xlink:href="#aB"/><use transform="matrix(0.05,0,0,0.05,56.900000000000006,0)" xlink:href="#ab"/></g></defs></g></svg>