<svg xmlns="http://www.w3.org/2000/svg" xmlns:xlink="http://www.w3.org/1999/xlink" xmlns:lucid="lucid" width="726.99" height="391.9"><g transform="translate(-388.9382716049383 -420)" lucid:page-tab-id="ePu6Q2JOlQUy"><path d="M0 0h1870.87v1322.83H0z" fill="#fff"/><path d="M519.75 563.55c0 10.9-8.84 19.75-19.75 19.75-10.9 0-19.75-8.85-19.75-19.75S489.1 543.8 500 543.8c10.9 0 19.75 8.84 19.75 19.75z" stroke="#3a414a" fill="#fff"/><path d="M500 583.3v49.3a20.7 20.7 0 0 0 3.2 11.06L540 701.8m-40-63.2l-40 63.2m0-98.75h80" stroke="#3a414a" fill="none"/><path d="M460 549.8a6 6 0 0 1 6-6h68a6 6 0 0 1 6 6v168a6 6 0 0 1-6 6h-68a6 6 0 0 1-6-6z" fill="none"/><use xlink:href="#a" transform="matrix(1,0,0,1,380,701.7951119067193) translate(29.93827160493828 17.77777777777778)"/><use xlink:href="#b" transform="matrix(1,0,0,1,380,701.7951119067193) translate(101.48148148148148 17.77777777777778)"/><use xlink:href="#c" transform="matrix(1,0,0,1,380,701.7951119067193) translate(76.82098765432099 44.44444444444444)"/><path d="M840 618.4c0 33.15-35.82 60-80 60s-80-26.85-80-60c0-33.12 35.82-60 80-60s80 26.88 80 60z" stroke="#3a414a" fill="#fff"/><use xlink:href="#d" transform="matrix(1,0,0,1,680,558.4135622634057) translate(46.58 40.65)"/><use xlink:href="#e" transform="matrix(1,0,0,1,680,558.4135622634057) translate(30.10499999999999 62.25)"/><use xlink:href="#f" transform="matrix(1,0,0,1,680,558.4135622634057) translate(46.55499999999999 83.85000000000001)"/><path d="M501 622.67l178.27.5M501 622.67h-3.5" stroke="#3a414a" fill="none"/><path d="M679.72 622.66l.1 1h-.57v-1z" stroke="#3a414a" stroke-width=".05" fill="#3a414a"/><path d="M1095.92 500c0 33.14-35.8 60-80 60-44.18 0-80-26.86-80-60s35.82-60 80-60c44.2 0 80 26.86 80 60z" stroke="#3a414a" fill="#fff"/><use xlink:href="#g" transform="matrix(1,0,0,1,935.9238108552463,440) translate(40.58 40.65)"/><use xlink:href="#h" transform="matrix(1,0,0,1,935.9238108552463,440) translate(15.579999999999993 62.25)"/><use xlink:href="#i" transform="matrix(1,0,0,1,935.9238108552463,440) translate(80.58 62.25)"/><use xlink:href="#j" transform="matrix(1,0,0,1,935.9238108552463,440) translate(42.08 83.85000000000001)"/><use xlink:href="#k" transform="matrix(1,0,0,1,935.9238108552463,440) translate(61.029999999999994 83.85000000000001)"/><path d="M1095.92 731.9c0 33.13-35.8 60-80 60-44.18 0-80-26.87-80-60 0-33.14 35.82-60 80-60 44.2 0 80 26.86 80 60z" stroke="#3a414a" fill="#fff"/><use xlink:href="#l" transform="matrix(1,0,0,1,935.9238108552463,671.8975559533601) translate(15.62999999999999 51.9)"/><use xlink:href="#m" transform="matrix(1,0,0,1,935.9238108552463,671.8975559533601) translate(106.48 51.9)"/><use xlink:href="#k" transform="matrix(1,0,0,1,935.9238108552463,671.8975559533601) translate(51.55499999999999 73.5)"/><path d="M858.4 618.9h-1.52v-1h1.5zm5 0h-3v-1h3zm5.02 0h-3v-1h3zm5.02 0h-3v-1h3zm5 0h-3v-1h3zm4.9-.15l-.36.1-1 .06h-1.52v-1h1.48l.88-.06.28-.06zm3.76-2.38l-.54.64-.78.67-.7.44-.53-.84.64-.4.65-.56.5-.58zm1.3-4.55v1.6l-.25 1-.15.34-.92-.38.1-.27.2-.8v-1.48zm0-5.1v3.05h-1v-3.06zm0-5.13v3.06h-1v-3.07zm0-5.12v3.07h-1v-3.07zm0-5.1v3.06h-1v-3.07zm0-5.12v3.07h-1v-3.07zm0-5.1v3.05h-1v-3.05zm0-5.13v3.07h-1v-3.07zm.02-5.1v3.06h-1v-3.08zm0-25.57v3.07h-1v-3.07zm.02-5.1v3.06h-1v-3.07zm0-5.12v3.07h-1v-3.06zm0-5.1v3.05h-1v-3.07zm0-5.13V528h-1v-3.07zm0-5.1v3.07h-1v-3.07zm.02-5.1v3.06h-1v-3.07zm0-5.12v3.07h-1v-3.07zm.14-4.72l-.07.28-.07.88v1.5h-1V506l.08-1 .1-.36zm2.05-3.24l-.58.5-.56.65-.38.65-.86-.53.44-.72.66-.78.64-.54zm3.95-1.05h-1.52l-.82.2-.27.1-.4-.9.35-.15 1-.25h1.64zm5.23 0h-3.14v-1h3.13zm5.24-.02h-3.14v-1h3.14zm5.24 0h-3.13v-1h3.14zm5.25-.02h-3.15v-1h3.14zm5.23 0h-3.14v-1h3.14zm5.24 0h-3.14v-1h3.14zm5.24-.02h-3.14v-1h3.14zm3.66 0h-1.57v-1h1.57z" stroke="#3a414a" stroke-width=".05" fill="#3a414a"/><path d="M856.38 623.05l-14.26-4.64 14.26-4.62z" fill="#3a414a"/><path d="M856.88 623.74l-16.38-5.33 16.38-5.3zm-13.14-5.33l12.14 3.96v-7.9z" stroke="#3a414a" stroke-width=".05" fill="#3a414a"/><path d="M935.42 500v.5h-.5v-1h.52z" fill="#3a414a"/><path d="M935.45 500v.53h-.56v-1.05h.56zm-.5-.48v.96h.45v-.96z" stroke="#3a414a" stroke-width=".05" fill="#3a414a"/><g><use xlink:href="#n" transform="matrix(1,0,0,1,849.0236338226849,548.5401144650361) translate(0 14.222222222222223)"/></g><path d="M935.66 723.26v1h-1.6v-1zm-3.7 0v1h-3.17v-1zm-5.28-.02v1h-3.17v-1zm-5.3 0v1h-3.16v-1zm-5.27 0v1l-3.16-.02v-1zm-5.27-.02v1h-3.18v-1zm-5.3 0v1l-3.16-.02v-1zm-5.27-.02v1h-3.17v-1zm-7.63-.2l.82.2h1.53v1h-1.65l-1-.26-.35-.14.38-.92zm-2.75-2l.56.65.58.5-.65.75-.64-.54-.66-.78-.44-.7.85-.54zm-1.05-3.26l.07.88.07.28-.98.24-.1-.36-.07-1v-1.5h1zm0-3.45h-1v-3h1zm0-4.98h-1v-2.97h1zm0-4.96h-1v-2.98h1zm-.02-4.96h-1v-2.98h1zm0-4.96h-1v-2.98h1zm0-4.97h-1v-2.97h1zm0-4.96h-1v-2.96h1zm0-4.95h-1v-2.98h1zm0-4.96h-1v-3h1zm0-4.98h-1v-1.36h1zm-.03-22.7h-1v-.12h1zm0-2.1h-1v-2.98h1zm0-4.97h-1v-2.98h1zm0-4.96h-1v-3h1zm0-4.97h-1v-2.98h1zm-.26-7.53l.26 1.02v1.54h-1v-1.43l-.2-.82-.1-.25.9-.4zm-2.35-3.25l.78.67.54.63-.76.65-.48-.57-.66-.56-.65-.4.53-.86zm-2.8-1.16l.35.08-.23.97-.28-.07-.9-.07h-1.5v-1h1.55zm-24.94.9h-1.52v-1h1.53zm5.1 0h-3.05v-1h3.05zm5.1 0h-3.06v-1h3.05zm5.08 0h-3.06v-1h3.06zm5.1 0h-3.07v-1h3.07z" stroke="#3a414a" stroke-width=".05" fill="#3a414a"/><path d="M856.38 623.05l-14.26-4.64 14.26-4.62z" fill="#3a414a"/><path d="M856.88 623.74l-16.38-5.33 16.38-5.3zm-13.14-5.33l12.14 3.96v-7.9z" stroke="#3a414a" stroke-width=".05" fill="#3a414a"/><path d="M936.23 723.28l-.15.98h-.43v-1h.6z" fill="#3a414a"/><path d="M936.26 723.28l-.16 1h-.48v-1.04h.65zm-.6 0v.96h.4l.15-.95z" stroke="#3a414a" stroke-width=".05" fill="#3a414a"/><g><use xlink:href="#n" transform="matrix(1,0,0,1,849.3907200143941,646.9288192028419) translate(0 14.222222222222223)"/></g><defs><path fill="#3a414a" d="M232-93c-1 65-40 97-104 97C67 4 28-28 28-90v-158h33c8 89-33 224 67 224 102 0 64-133 71-224h33v155" id="o"/><path fill="#3a414a" d="M59-47c-2 24 18 29 38 22v24C64 9 27 4 27-40v-127H5v-23h24l9-43h21v43h35v23H59v120" id="p"/><path fill="#3a414a" d="M100-194c63 0 86 42 84 106H49c0 40 14 67 53 68 26 1 43-12 49-29l28 8c-11 28-37 45-77 45C44 4 14-33 15-96c1-61 26-98 85-98zm52 81c6-60-76-77-97-28-3 7-6 17-6 28h103" id="q"/><path fill="#3a414a" d="M117-194c89-4 53 116 60 194h-32v-121c0-31-8-49-39-48C34-167 62-67 57 0H25l-1-190h30c1 10-1 24 2 32 11-22 29-35 61-36" id="r"/><g id="a"><use transform="matrix(0.06172839506172839,0,0,0.06172839506172839,0,0)" xlink:href="#o"/><use transform="matrix(0.06172839506172839,0,0,0.06172839506172839,15.987654320987653,0)" xlink:href="#p"/><use transform="matrix(0.06172839506172839,0,0,0.06172839506172839,22.160493827160494,0)" xlink:href="#q"/><use transform="matrix(0.06172839506172839,0,0,0.06172839506172839,34.50617283950617,0)" xlink:href="#r"/><use transform="matrix(0.06172839506172839,0,0,0.06172839506172839,46.85185185185185,0)" xlink:href="#p"/><use transform="matrix(0.06172839506172839,0,0,0.06172839506172839,53.02469135802469,0)" xlink:href="#q"/></g><path fill="#3a414a" d="M141-36C126-15 110 5 73 4 37 3 15-17 15-53c-1-64 63-63 125-63 3-35-9-54-41-54-24 1-41 7-42 31l-33-3c5-37 33-52 76-52 45 0 72 20 72 64v82c-1 20 7 32 28 27v20c-31 9-61-2-59-35zM48-53c0 20 12 33 32 33 41-3 63-29 60-74-43 2-92-5-92 41" id="s"/><path fill="#3a414a" d="M84 4C-5 8 30-112 23-190h32v120c0 31 7 50 39 49 72-2 45-101 50-169h31l1 190h-30c-1-10 1-25-2-33-11 22-28 36-60 37" id="t"/><path fill="#3a414a" d="M24-231v-30h32v30H24zM24 0v-190h32V0H24" id="u"/><path fill="#3a414a" d="M96-169c-40 0-48 33-48 73s9 75 48 75c24 0 41-14 43-38l32 2c-6 37-31 61-74 61-59 0-76-41-82-99-10-93 101-131 147-64 4 7 5 14 7 22l-32 3c-4-21-16-35-41-35" id="v"/><path fill="#3a414a" d="M100-194c62-1 85 37 85 99 1 63-27 99-86 99S16-35 15-95c0-66 28-99 85-99zM99-20c44 1 53-31 53-75 0-43-8-75-51-75s-53 32-53 75 10 74 51 75" id="w"/><g id="b"><use transform="matrix(0.06172839506172839,0,0,0.06172839506172839,0,0)" xlink:href="#s"/><use transform="matrix(0.06172839506172839,0,0,0.06172839506172839,12.345679012345679,0)" xlink:href="#t"/><use transform="matrix(0.06172839506172839,0,0,0.06172839506172839,24.691358024691358,0)" xlink:href="#p"/><use transform="matrix(0.06172839506172839,0,0,0.06172839506172839,30.864197530864196,0)" xlink:href="#q"/><use transform="matrix(0.06172839506172839,0,0,0.06172839506172839,43.20987654320987,0)" xlink:href="#r"/><use transform="matrix(0.06172839506172839,0,0,0.06172839506172839,55.55555555555555,0)" xlink:href="#p"/><use transform="matrix(0.06172839506172839,0,0,0.06172839506172839,61.72839506172839,0)" xlink:href="#u"/><use transform="matrix(0.06172839506172839,0,0,0.06172839506172839,66.60493827160494,0)" xlink:href="#v"/><use transform="matrix(0.06172839506172839,0,0,0.06172839506172839,77.71604938271605,0)" xlink:href="#s"/><use transform="matrix(0.06172839506172839,0,0,0.06172839506172839,90.06172839506173,0)" xlink:href="#p"/><use transform="matrix(0.06172839506172839,0,0,0.06172839506172839,96.23456790123457,0)" xlink:href="#w"/></g><path fill="#3a414a" d="M135-143c-3-34-86-38-87 0 15 53 115 12 119 90S17 21 10-45l28-5c4 36 97 45 98 0-10-56-113-15-118-90-4-57 82-63 122-42 12 7 21 19 24 35" id="x"/><path fill="#3a414a" d="M85-194c31 0 48 13 60 33l-1-100h32l1 261h-30c-2-10 0-23-3-31C134-8 116 4 85 4 32 4 16-35 15-94c0-66 23-100 70-100zm9 24c-40 0-46 34-46 75 0 40 6 74 45 74 42 0 51-32 51-76 0-42-9-74-50-73" id="y"/><path fill="#3a414a" d="M114-163C36-179 61-72 57 0H25l-1-190h30c1 12-1 29 2 39 6-27 23-49 58-41v29" id="z"/><g id="c"><use transform="matrix(0.06172839506172839,0,0,0.06172839506172839,0,0)" xlink:href="#x"/><use transform="matrix(0.06172839506172839,0,0,0.06172839506172839,11.11111111111111,0)" xlink:href="#p"/><use transform="matrix(0.06172839506172839,0,0,0.06172839506172839,17.28395061728395,0)" xlink:href="#s"/><use transform="matrix(0.06172839506172839,0,0,0.06172839506172839,29.629629629629626,0)" xlink:href="#r"/><use transform="matrix(0.06172839506172839,0,0,0.06172839506172839,41.9753086419753,0)" xlink:href="#y"/><use transform="matrix(0.06172839506172839,0,0,0.06172839506172839,54.32098765432098,0)" xlink:href="#s"/><use transform="matrix(0.06172839506172839,0,0,0.06172839506172839,66.66666666666666,0)" xlink:href="#z"/><use transform="matrix(0.06172839506172839,0,0,0.06172839506172839,74.01234567901234,0)" xlink:href="#y"/></g><path d="M210-169c-67 3-38 105-44 169h-31v-121c0-29-5-50-35-48C34-165 62-65 56 0H25l-1-190h30c1 10-1 24 2 32 10-44 99-50 107 0 11-21 27-35 58-36 85-2 47 119 55 194h-31v-121c0-29-5-49-35-48" id="A"/><path d="M100-194c62-1 85 37 85 99 1 63-27 99-86 99S16-35 15-95c0-66 28-99 85-99zM99-20c44 1 53-31 53-75 0-43-8-75-51-75s-53 32-53 75 10 74 51 75" id="B"/><path d="M85-194c31 0 48 13 60 33l-1-100h32l1 261h-30c-2-10 0-23-3-31C134-8 116 4 85 4 32 4 16-35 15-94c0-66 23-100 70-100zm9 24c-40 0-46 34-46 75 0 40 6 74 45 74 42 0 51-32 51-76 0-42-9-74-50-73" id="C"/><path d="M24-231v-30h32v30H24zM24 0v-190h32V0H24" id="D"/><path d="M101-234c-31-9-42 10-38 44h38v23H63V0H32v-167H5v-23h27c-7-52 17-82 69-68v24" id="E"/><path d="M96-169c-40 0-48 33-48 73s9 75 48 75c24 0 41-14 43-38l32 2c-6 37-31 61-74 61-59 0-76-41-82-99-10-93 101-131 147-64 4 7 5 14 7 22l-32 3c-4-21-16-35-41-35" id="F"/><path d="M141-36C126-15 110 5 73 4 37 3 15-17 15-53c-1-64 63-63 125-63 3-35-9-54-41-54-24 1-41 7-42 31l-33-3c5-37 33-52 76-52 45 0 72 20 72 64v82c-1 20 7 32 28 27v20c-31 9-61-2-59-35zM48-53c0 20 12 33 32 33 41-3 63-29 60-74-43 2-92-5-92 41" id="G"/><g id="d"><use transform="matrix(0.05,0,0,0.05,0,0)" xlink:href="#A"/><use transform="matrix(0.05,0,0,0.05,14.950000000000001,0)" xlink:href="#B"/><use transform="matrix(0.05,0,0,0.05,24.950000000000003,0)" xlink:href="#C"/><use transform="matrix(0.05,0,0,0.05,34.95,0)" xlink:href="#D"/><use transform="matrix(0.05,0,0,0.05,38.900000000000006,0)" xlink:href="#E"/><use transform="matrix(0.05,0,0,0.05,43.900000000000006,0)" xlink:href="#D"/><use transform="matrix(0.05,0,0,0.05,47.85000000000001,0)" xlink:href="#F"/><use transform="matrix(0.05,0,0,0.05,56.85,0)" xlink:href="#G"/></g><path d="M115-194c55 1 70 41 70 98S169 2 115 4C84 4 66-9 55-30l1 105H24l-1-265h31l2 30c10-21 28-34 59-34zm-8 174c40 0 45-34 45-75s-6-73-45-74c-42 0-51 32-51 76 0 43 10 73 51 73" id="H"/><path d="M135-143c-3-34-86-38-87 0 15 53 115 12 119 90S17 21 10-45l28-5c4 36 97 45 98 0-10-56-113-15-118-90-4-57 82-63 122-42 12 7 21 19 24 35" id="I"/><path d="M59-47c-2 24 18 29 38 22v24C64 9 27 4 27-40v-127H5v-23h24l9-43h21v43h35v23H59v120" id="J"/><path d="M9 0v-24l116-142H16v-24h144v24L44-24h123V0H9" id="K"/><path d="M117-194c89-4 53 116 60 194h-32v-121c0-31-8-49-39-48C34-167 62-67 57 0H25l-1-190h30c1 10-1 24 2 32 11-22 29-35 61-36" id="L"/><g id="e"><use transform="matrix(0.05,0,0,0.05,0,0)" xlink:href="#D"/><use transform="matrix(0.05,0,0,0.05,3.95,0)" xlink:href="#A"/><use transform="matrix(0.05,0,0,0.05,18.900000000000002,0)" xlink:href="#H"/><use transform="matrix(0.05,0,0,0.05,28.900000000000002,0)" xlink:href="#B"/><use transform="matrix(0.05,0,0,0.05,38.900000000000006,0)" xlink:href="#I"/><use transform="matrix(0.05,0,0,0.05,47.900000000000006,0)" xlink:href="#J"/><use transform="matrix(0.05,0,0,0.05,52.900000000000006,0)" xlink:href="#G"/><use transform="matrix(0.05,0,0,0.05,62.900000000000006,0)" xlink:href="#K"/><use transform="matrix(0.05,0,0,0.05,71.9,0)" xlink:href="#D"/><use transform="matrix(0.05,0,0,0.05,75.85000000000001,0)" xlink:href="#B"/><use transform="matrix(0.05,0,0,0.05,85.85000000000001,0)" xlink:href="#L"/><use transform="matrix(0.05,0,0,0.05,95.85000000000001,0)" xlink:href="#D"/></g><path d="M106-169C34-169 62-67 57 0H25v-261h32l-1 103c12-21 28-36 61-36 89 0 53 116 60 194h-32v-121c2-32-8-49-39-48" id="M"/><path d="M100-194c63 0 86 42 84 106H49c0 40 14 67 53 68 26 1 43-12 49-29l28 8c-11 28-37 45-77 45C44 4 14-33 15-96c1-61 26-98 85-98zm52 81c6-60-76-77-97-28-3 7-6 17-6 28h103" id="N"/><g id="f"><use transform="matrix(0.05,0,0,0.05,0,0)" xlink:href="#L"/><use transform="matrix(0.05,0,0,0.05,10,0)" xlink:href="#B"/><use transform="matrix(0.05,0,0,0.05,20,0)" xlink:href="#J"/><use transform="matrix(0.05,0,0,0.05,25,0)" xlink:href="#D"/><use transform="matrix(0.05,0,0,0.05,28.950000000000003,0)" xlink:href="#E"/><use transform="matrix(0.05,0,0,0.05,33.95,0)" xlink:href="#D"/><use transform="matrix(0.05,0,0,0.05,37.900000000000006,0)" xlink:href="#F"/><use transform="matrix(0.05,0,0,0.05,46.900000000000006,0)" xlink:href="#M"/><use transform="matrix(0.05,0,0,0.05,56.900000000000006,0)" xlink:href="#N"/></g><path d="M114-163C36-179 61-72 57 0H25l-1-190h30c1 12-1 29 2 39 6-27 23-49 58-41v29" id="O"/><g id="g"><use transform="matrix(0.05,0,0,0.05,0,0)" xlink:href="#D"/><use transform="matrix(0.05,0,0,0.05,3.95,0)" xlink:href="#A"/><use transform="matrix(0.05,0,0,0.05,18.900000000000002,0)" xlink:href="#H"/><use transform="matrix(0.05,0,0,0.05,28.900000000000002,0)" xlink:href="#B"/><use transform="matrix(0.05,0,0,0.05,38.900000000000006,0)" xlink:href="#I"/><use transform="matrix(0.05,0,0,0.05,47.900000000000006,0)" xlink:href="#J"/><use transform="matrix(0.05,0,0,0.05,52.900000000000006,0)" xlink:href="#G"/><use transform="matrix(0.05,0,0,0.05,62.900000000000006,0)" xlink:href="#O"/><use transform="matrix(0.05,0,0,0.05,68.85000000000001,0)" xlink:href="#N"/></g><path d="M145-31C134-9 116 4 85 4 32 4 16-35 15-94c0-59 17-99 70-100 32-1 48 14 60 33 0-11-1-24 2-32h30l-1 268h-32zM93-21c41 0 51-33 51-76s-8-73-50-73c-40 0-46 35-46 75s5 74 45 74" id="P"/><path d="M84 4C-5 8 30-112 23-190h32v120c0 31 7 50 39 49 72-2 45-101 50-169h31l1 190h-30c-1-10 1-25-2-33-11 22-28 36-60 37" id="Q"/><g id="h"><use transform="matrix(0.05,0,0,0.05,0,0)" xlink:href="#P"/><use transform="matrix(0.05,0,0,0.05,10,0)" xlink:href="#Q"/><use transform="matrix(0.05,0,0,0.05,20,0)" xlink:href="#G"/><use transform="matrix(0.05,0,0,0.05,30,0)" xlink:href="#L"/><use transform="matrix(0.05,0,0,0.05,40,0)" xlink:href="#C"/><use transform="matrix(0.05,0,0,0.05,50,0)" xlink:href="#B"/></g><path d="M108 0H70L1-190h34L89-25l56-165h34" id="R"/><g id="i"><use transform="matrix(0.05,0,0,0.05,0,0)" xlink:href="#O"/><use transform="matrix(0.05,0,0,0.05,5.95,0)" xlink:href="#D"/><use transform="matrix(0.05,0,0,0.05,9.9,0)" xlink:href="#F"/><use transform="matrix(0.05,0,0,0.05,18.9,0)" xlink:href="#N"/><use transform="matrix(0.05,0,0,0.05,28.899999999999995,0)" xlink:href="#R"/><use transform="matrix(0.05,0,0,0.05,37.9,0)" xlink:href="#N"/><use transform="matrix(0.05,0,0,0.05,47.9,0)" xlink:href="#O"/><use transform="matrix(0.05,0,0,0.05,53.85,0)" xlink:href="#N"/></g><path d="M24 0v-261h32V0H24" id="S"/><g id="j"><use transform="matrix(0.05,0,0,0.05,0,0)" xlink:href="#S"/><use transform="matrix(0.05,0,0,0.05,3.95,0)" xlink:href="#G"/></g><g id="k"><use transform="matrix(0.05,0,0,0.05,0,0)" xlink:href="#L"/><use transform="matrix(0.05,0,0,0.05,10,0)" xlink:href="#B"/><use transform="matrix(0.05,0,0,0.05,20,0)" xlink:href="#J"/><use transform="matrix(0.05,0,0,0.05,25,0)" xlink:href="#D"/><use transform="matrix(0.05,0,0,0.05,28.950000000000003,0)" xlink:href="#E"/><use transform="matrix(0.05,0,0,0.05,33.95,0)" xlink:href="#D"/><use transform="matrix(0.05,0,0,0.05,37.900000000000006,0)" xlink:href="#F"/><use transform="matrix(0.05,0,0,0.05,46.900000000000006,0)" xlink:href="#G"/></g><g id="l"><use transform="matrix(0.05,0,0,0.05,0,0)" xlink:href="#C"/><use transform="matrix(0.05,0,0,0.05,10,0)" xlink:href="#N"/><use transform="matrix(0.05,0,0,0.05,20,0)" xlink:href="#E"/><use transform="matrix(0.05,0,0,0.05,25,0)" xlink:href="#D"/><use transform="matrix(0.05,0,0,0.05,28.950000000000003,0)" xlink:href="#L"/><use transform="matrix(0.05,0,0,0.05,38.95,0)" xlink:href="#D"/><use transform="matrix(0.05,0,0,0.05,42.900000000000006,0)" xlink:href="#K"/><use transform="matrix(0.05,0,0,0.05,51.900000000000006,0)" xlink:href="#D"/><use transform="matrix(0.05,0,0,0.05,55.85,0)" xlink:href="#B"/><use transform="matrix(0.05,0,0,0.05,65.85000000000001,0)" xlink:href="#L"/><use transform="matrix(0.05,0,0,0.05,75.85000000000001,0)" xlink:href="#N"/></g><g id="m"><use transform="matrix(0.05,0,0,0.05,0,0)" xlink:href="#J"/><use transform="matrix(0.05,0,0,0.05,5,0)" xlink:href="#D"/><use transform="matrix(0.05,0,0,0.05,8.95,0)" xlink:href="#J"/><use transform="matrix(0.05,0,0,0.05,13.949999999999998,0)" xlink:href="#B"/><use transform="matrix(0.05,0,0,0.05,23.95,0)" xlink:href="#S"/><use transform="matrix(0.05,0,0,0.05,27.899999999999995,0)" xlink:href="#B"/></g><path fill="#333" d="M15-91v-56l181-69v40L49-119l147 57v40" id="T"/><path fill="#333" d="M185-48c-13 30-37 53-82 52C43 2 14-33 14-96s30-98 90-98c62 0 83 45 84 108H66c0 31 8 55 39 56 18 0 30-7 34-22zm-45-69c5-46-57-63-70-21-2 6-4 13-4 21h74" id="U"/><path fill="#333" d="M144 0l-44-69L55 0H2l70-98-66-92h53l41 62 40-62h54l-67 91 71 99h-54" id="V"/><path fill="#333" d="M115-3C79 11 28 4 28-45v-112H4v-33h27l15-45h31v45h36v33H77v99c-1 23 16 31 38 25v30" id="W"/><path fill="#333" d="M135-194c87-1 58 113 63 194h-50c-7-57 23-157-34-157-59 0-34 97-39 157H25l-1-190h47c2 12-1 28 3 38 12-26 28-41 61-42" id="X"/><path fill="#333" d="M88-194c31-1 46 15 58 34l-1-101h50l1 261h-48c-2-10 0-23-3-31C134-8 116 4 84 4 32 4 16-41 15-95c0-56 19-97 73-99zm17 164c33 0 40-30 41-66 1-37-9-64-41-64s-38 30-39 65c0 43 13 65 39 65" id="Y"/><path fill="#333" d="M15-22v-40l146-57-146-57v-40l181 69v56" id="Z"/><g id="n"><use transform="matrix(0.04938271604938272,0,0,0.04938271604938272,0,0)" xlink:href="#T"/><use transform="matrix(0.04938271604938272,0,0,0.04938271604938272,10.370370370370372,0)" xlink:href="#U"/><use transform="matrix(0.04938271604938272,0,0,0.04938271604938272,20.24691358024692,0)" xlink:href="#V"/><use transform="matrix(0.04938271604938272,0,0,0.04938271604938272,30.123456790123466,0)" xlink:href="#W"/><use transform="matrix(0.04938271604938272,0,0,0.04938271604938272,36.00000000000001,0)" xlink:href="#U"/><use transform="matrix(0.04938271604938272,0,0,0.04938271604938272,45.87654320987655,0)" xlink:href="#X"/><use transform="matrix(0.04938271604938272,0,0,0.04938271604938272,56.69135802469136,0)" xlink:href="#Y"/><use transform="matrix(0.04938271604938272,0,0,0.04938271604938272,67.50617283950618,0)" xlink:href="#Z"/></g></defs></g></svg>