<svg xmlns="http://www.w3.org/2000/svg" xmlns:xlink="http://www.w3.org/1999/xlink" xmlns:lucid="lucid" width="1317.19" height="244.67"><g transform="translate(-223.70987654320987 -320)" lucid:page-tab-id="xav6uJ03SfYZ"><path d="M0 0h1870.87v1322.83H0z" fill="#fff"/><path d="M319.75 359.75c0 10.9-8.84 19.75-19.75 19.75-10.9 0-19.75-8.84-19.75-19.75 0-10.9 8.84-19.75 19.75-19.75 10.9 0 19.75 8.84 19.75 19.75z" stroke="#3a414a" fill="#fff"/><path d="M300 379.5v49.3a20.7 20.7 0 0 0 3.2 11.07L340 498m-40-63.2L260 498m0-98.75h80" stroke="#3a414a" fill="none"/><path d="M260 346a6 6 0 0 1 6-6h68a6 6 0 0 1 6 6v168a6 6 0 0 1-6 6h-68a6 6 0 0 1-6-6z" fill="none"/><use xlink:href="#a" transform="matrix(1,0,0,1,180,498) translate(87.31481481481481 17.77777777777778)"/><use xlink:href="#b" transform="matrix(1,0,0,1,180,498) translate(65.70987654320987 44.44444444444444)"/><path d="M635 430c0 33.14-35.83 60-80 60-44.2 0-80-26.86-80-60s35.8-60 80-60c44.17 0 80 26.86 80 60z" stroke="#3a414a" fill="#fff"/><use xlink:href="#c" transform="matrix(1,0,0,1,474.9900082835926,370) translate(44.55499999999999 51.9)"/><use xlink:href="#d" transform="matrix(1,0,0,1,474.9900082835926,370) translate(41.55499999999999 73.5)"/><path d="M300 418.93h175.34M300 418.93h-3.5" stroke="#3a414a" fill="none"/><path d="M475.94 418.52l-.2.9h-.4v-1h.62z" stroke="#3a414a" stroke-width=".05" fill="#3a414a"/><path d="M1458.82 359.75c0 10.9-8.85 19.75-19.75 19.75s-19.75-8.84-19.75-19.75c0-10.9 8.84-19.75 19.75-19.75 10.9 0 19.75 8.84 19.75 19.75z" stroke="#3a414a" fill="#fff"/><path d="M1439.07 379.5v49.3a20.7 20.7 0 0 0 3.2 11.07l36.8 58.13m-40-63.2l-40 63.2m0-98.75h80" stroke="#3a414a" fill="none"/><path d="M1399.07 346a6 6 0 0 1 6-6h68a6 6 0 0 1 6 6v168a6 6 0 0 1-6 6h-68a6 6 0 0 1-6-6z" fill="none"/><use xlink:href="#e" transform="matrix(1,0,0,1,1319.0661974283462,498) translate(39.84567901234567 17.77777777777778)"/><use xlink:href="#f" transform="matrix(1,0,0,1,1319.0661974283462,498) translate(122.43827160493827 17.77777777777778)"/><use xlink:href="#g" transform="matrix(1,0,0,1,1319.0661974283462,498) translate(145.83333333333331 17.77777777777778)"/><use xlink:href="#h" transform="matrix(1,0,0,1,1319.0661974283462,498) translate(68.85802469135803 44.44444444444444)"/><path d="M637.5 430.5H636v-1h1.5zm5.04 0h-3.02v-1h3.02zm5.04 0h-3.02v-1h3.02zm5.04 0h-3.02v-1h3.02zm5.04 0h-3.02v-1h3.02zm5.04 0h-3.02v-1h3.02zm5.04 0h-3.02v-1h3.02zm2.44 0h-.42v-1h.42zm88.28 0h-3.02v-1h3.02zm5.04 0h-3.02v-1h3.02zm5.04 0h-3.02v-1h3.02zm5.05 0h-3.04v-1h3.03zm5.03 0h-3.03v-1h3.03zm5.04 0h-3.03v-1h3.03zm3.52 0h-1.52v-1h1.5zm-33.78 0H753v-1h.42z" stroke="#3a414a" stroke-width=".05" fill="#3a414a"/><path d="M636 430.5h-.53l.02-.5v-.4l-.02-.1h.52z" fill="#3a414a"/><path d="M636.03 430.52h-.58l.02-.5v-.54h.56zm-.52-1v.1l.02.4-.02.46h.48v-.96z" stroke="#3a414a" stroke-width=".05" fill="#3a414a"/><path d="M787.7 430v.5h-.52v-1h.53z" fill="#3a414a"/><path d="M787.72 430v.53h-.56v-1.05h.57zm-.5-.48v.96h.45v-.96z" stroke="#3a414a" stroke-width=".05" fill="#3a414a"/><use xlink:href="#i" transform="matrix(1,0,0,1,670.1842604051994,419.3333333333333) translate(0 14.222222222222223)"/><path d="M948.2 430c0 33.14-35.82 60-80 60-44.2 0-80-26.86-80-60s35.8-60 80-60c44.18 0 80 26.86 80 60z" stroke="#3a414a" fill="#fff"/><use xlink:href="#j" transform="matrix(1,0,0,1,788.1933273416209,370) translate(9.679999999999987 63.15)"/><use xlink:href="#k" transform="matrix(1,0,0,1,788.1933273416209,370) translate(107.48 63.15)"/><path d="M1261.4 430c0 33.14-35.82 60-80 60-44.2 0-80-26.86-80-60s35.8-60 80-60c44.18 0 80 26.86 80 60z" stroke="#3a414a" fill="#fff"/><use xlink:href="#l" transform="matrix(1,0,0,1,1101.3966463996494,370) translate(20.154999999999994 51.9)"/><use xlink:href="#m" transform="matrix(1,0,0,1,1101.3966463996494,370) translate(97.005 51.9)"/><use xlink:href="#n" transform="matrix(1,0,0,1,1101.3966463996494,370) translate(35.07999999999999 73.5)"/><use xlink:href="#o" transform="matrix(1,0,0,1,1101.3966463996494,370) translate(54.029999999999994 73.5)"/><path d="M950.7 430.5h-1.5v-1h1.5zm5 0h-3v-1h3zm5.02 0h-3v-1h3zm5 0h-3v-1h3zm5.02 0h-3v-1h3zm5.02 0h-3v-1h3zm5 0h-3v-1h3zm2.63 0h-.63v-1h.62zm87.58 0h-3v-1h3zm5 0h-3v-1h3zm5.02 0h-3v-1h3zm3.5 0h-1.5v-1h1.5z" stroke="#3a414a" stroke-width=".05" fill="#3a414a"/><path d="M949.2 430.5h-.52v-1h.53z" fill="#3a414a"/><path d="M949.23 430.52h-.58l.02-.5v-.54h.56zm-.52-1l.02.1v.4l-.02.46h.48v-.96z" stroke="#3a414a" stroke-width=".05" fill="#3a414a"/><path d="M1099.28 430l-14.27 4.64v-9.28z" fill="#3a414a"/><path d="M1100.9 430l-16.4 5.32v-10.64zm-15.4 3.95l12.16-3.95-12.15-3.95z" stroke="#3a414a" stroke-width=".05" fill="#3a414a"/><g><use xlink:href="#p" transform="matrix(1,0,0,1,1024.794986870635,417.2) translate(0.005 17.06666666666667)"/></g><g><use xlink:href="#i" transform="matrix(1,0,0,1,983.3875794632277,419.3333333333333) translate(0.005000000000002558 14.222222222222223)"/></g><path d="M1262.4 430h176.7" stroke="#3a414a" fill="none"/><path d="M1262.4 430.5h-.52l.02-.5v-.5h.5z" stroke="#3a414a" stroke-width=".05" fill="#3a414a"/><path d="M1439.1 430h3.5" stroke="#3a414a" fill="none"/><defs><path fill="#3a414a" d="M232-93c-1 65-40 97-104 97C67 4 28-28 28-90v-158h33c8 89-33 224 67 224 102 0 64-133 71-224h33v155" id="q"/><path fill="#3a414a" d="M59-47c-2 24 18 29 38 22v24C64 9 27 4 27-40v-127H5v-23h24l9-43h21v43h35v23H59v120" id="r"/><path fill="#3a414a" d="M100-194c63 0 86 42 84 106H49c0 40 14 67 53 68 26 1 43-12 49-29l28 8c-11 28-37 45-77 45C44 4 14-33 15-96c1-61 26-98 85-98zm52 81c6-60-76-77-97-28-3 7-6 17-6 28h103" id="s"/><path fill="#3a414a" d="M117-194c89-4 53 116 60 194h-32v-121c0-31-8-49-39-48C34-167 62-67 57 0H25l-1-190h30c1 10-1 24 2 32 11-22 29-35 61-36" id="t"/><g id="a"><use transform="matrix(0.06172839506172839,0,0,0.06172839506172839,0,0)" xlink:href="#q"/><use transform="matrix(0.06172839506172839,0,0,0.06172839506172839,15.987654320987653,0)" xlink:href="#r"/><use transform="matrix(0.06172839506172839,0,0,0.06172839506172839,22.160493827160494,0)" xlink:href="#s"/><use transform="matrix(0.06172839506172839,0,0,0.06172839506172839,34.50617283950617,0)" xlink:href="#t"/><use transform="matrix(0.06172839506172839,0,0,0.06172839506172839,46.85185185185185,0)" xlink:href="#r"/><use transform="matrix(0.06172839506172839,0,0,0.06172839506172839,53.02469135802469,0)" xlink:href="#s"/></g><path fill="#3a414a" d="M141-36C126-15 110 5 73 4 37 3 15-17 15-53c-1-64 63-63 125-63 3-35-9-54-41-54-24 1-41 7-42 31l-33-3c5-37 33-52 76-52 45 0 72 20 72 64v82c-1 20 7 32 28 27v20c-31 9-61-2-59-35zM48-53c0 20 12 33 32 33 41-3 63-29 60-74-43 2-92-5-92 41" id="u"/><path fill="#3a414a" d="M84 4C-5 8 30-112 23-190h32v120c0 31 7 50 39 49 72-2 45-101 50-169h31l1 190h-30c-1-10 1-25-2-33-11 22-28 36-60 37" id="v"/><path fill="#3a414a" d="M24-231v-30h32v30H24zM24 0v-190h32V0H24" id="w"/><path fill="#3a414a" d="M96-169c-40 0-48 33-48 73s9 75 48 75c24 0 41-14 43-38l32 2c-6 37-31 61-74 61-59 0-76-41-82-99-10-93 101-131 147-64 4 7 5 14 7 22l-32 3c-4-21-16-35-41-35" id="x"/><path fill="#3a414a" d="M100-194c62-1 85 37 85 99 1 63-27 99-86 99S16-35 15-95c0-66 28-99 85-99zM99-20c44 1 53-31 53-75 0-43-8-75-51-75s-53 32-53 75 10 74 51 75" id="y"/><g id="b"><use transform="matrix(0.06172839506172839,0,0,0.06172839506172839,0,0)" xlink:href="#u"/><use transform="matrix(0.06172839506172839,0,0,0.06172839506172839,12.345679012345679,0)" xlink:href="#v"/><use transform="matrix(0.06172839506172839,0,0,0.06172839506172839,24.691358024691358,0)" xlink:href="#r"/><use transform="matrix(0.06172839506172839,0,0,0.06172839506172839,30.864197530864196,0)" xlink:href="#s"/><use transform="matrix(0.06172839506172839,0,0,0.06172839506172839,43.20987654320987,0)" xlink:href="#t"/><use transform="matrix(0.06172839506172839,0,0,0.06172839506172839,55.55555555555555,0)" xlink:href="#r"/><use transform="matrix(0.06172839506172839,0,0,0.06172839506172839,61.72839506172839,0)" xlink:href="#w"/><use transform="matrix(0.06172839506172839,0,0,0.06172839506172839,66.60493827160494,0)" xlink:href="#x"/><use transform="matrix(0.06172839506172839,0,0,0.06172839506172839,77.71604938271605,0)" xlink:href="#u"/><use transform="matrix(0.06172839506172839,0,0,0.06172839506172839,90.06172839506173,0)" xlink:href="#r"/><use transform="matrix(0.06172839506172839,0,0,0.06172839506172839,96.23456790123457,0)" xlink:href="#y"/></g><path d="M114-163C36-179 61-72 57 0H25l-1-190h30c1 12-1 29 2 39 6-27 23-49 58-41v29" id="z"/><path d="M100-194c63 0 86 42 84 106H49c0 40 14 67 53 68 26 1 43-12 49-29l28 8c-11 28-37 45-77 45C44 4 14-33 15-96c1-61 26-98 85-98zm52 81c6-60-76-77-97-28-3 7-6 17-6 28h103" id="A"/><path d="M96-169c-40 0-48 33-48 73s9 75 48 75c24 0 41-14 43-38l32 2c-6 37-31 61-74 61-59 0-76-41-82-99-10-93 101-131 147-64 4 7 5 14 7 22l-32 3c-4-21-16-35-41-35" id="B"/><path d="M84 4C-5 8 30-112 23-190h32v120c0 31 7 50 39 49 72-2 45-101 50-169h31l1 190h-30c-1-10 1-25-2-33-11 22-28 36-60 37" id="C"/><path d="M115-194c55 1 70 41 70 98S169 2 115 4C84 4 66-9 55-30l1 105H24l-1-265h31l2 30c10-21 28-34 59-34zm-8 174c40 0 45-34 45-75s-6-73-45-74c-42 0-51 32-51 76 0 43 10 73 51 73" id="D"/><path d="M100-194c62-1 85 37 85 99 1 63-27 99-86 99S16-35 15-95c0-66 28-99 85-99zM99-20c44 1 53-31 53-75 0-43-8-75-51-75s-53 32-53 75 10 74 51 75" id="E"/><g id="c"><use transform="matrix(0.05,0,0,0.05,0,0)" xlink:href="#z"/><use transform="matrix(0.05,0,0,0.05,5.95,0)" xlink:href="#A"/><use transform="matrix(0.05,0,0,0.05,15.949999999999998,0)" xlink:href="#B"/><use transform="matrix(0.05,0,0,0.05,24.95,0)" xlink:href="#C"/><use transform="matrix(0.05,0,0,0.05,34.95,0)" xlink:href="#D"/><use transform="matrix(0.05,0,0,0.05,44.95,0)" xlink:href="#A"/><use transform="matrix(0.05,0,0,0.05,54.95,0)" xlink:href="#z"/><use transform="matrix(0.05,0,0,0.05,60.900000000000006,0)" xlink:href="#E"/></g><path d="M141-36C126-15 110 5 73 4 37 3 15-17 15-53c-1-64 63-63 125-63 3-35-9-54-41-54-24 1-41 7-42 31l-33-3c5-37 33-52 76-52 45 0 72 20 72 64v82c-1 20 7 32 28 27v20c-31 9-61-2-59-35zM48-53c0 20 12 33 32 33 41-3 63-29 60-74-43 2-92-5-92 41" id="F"/><path d="M135-143c-3-34-86-38-87 0 15 53 115 12 119 90S17 21 10-45l28-5c4 36 97 45 98 0-10-56-113-15-118-90-4-57 82-63 122-42 12 7 21 19 24 35" id="G"/><path d="M206 0h-36l-40-164L89 0H53L-1-190h32L70-26l43-164h34l41 164 42-164h31" id="H"/><path d="M85-194c31 0 48 13 60 33l-1-100h32l1 261h-30c-2-10 0-23-3-31C134-8 116 4 85 4 32 4 16-35 15-94c0-66 23-100 70-100zm9 24c-40 0-46 34-46 75 0 40 6 74 45 74 42 0 51-32 51-76 0-42-9-74-50-73" id="I"/><g id="d"><use transform="matrix(0.05,0,0,0.05,0,0)" xlink:href="#D"/><use transform="matrix(0.05,0,0,0.05,10,0)" xlink:href="#F"/><use transform="matrix(0.05,0,0,0.05,20,0)" xlink:href="#G"/><use transform="matrix(0.05,0,0,0.05,29,0)" xlink:href="#G"/><use transform="matrix(0.05,0,0,0.05,38,0)" xlink:href="#H"/><use transform="matrix(0.05,0,0,0.05,50.95,0)" xlink:href="#E"/><use transform="matrix(0.05,0,0,0.05,60.95,0)" xlink:href="#z"/><use transform="matrix(0.05,0,0,0.05,66.9,0)" xlink:href="#I"/></g><path fill="#3a414a" d="M135-143c-3-34-86-38-87 0 15 53 115 12 119 90S17 21 10-45l28-5c4 36 97 45 98 0-10-56-113-15-118-90-4-57 82-63 122-42 12 7 21 19 24 35" id="J"/><path fill="#3a414a" d="M210-169c-67 3-38 105-44 169h-31v-121c0-29-5-50-35-48C34-165 62-65 56 0H25l-1-190h30c1 10-1 24 2 32 10-44 99-50 107 0 11-21 27-35 58-36 85-2 47 119 55 194h-31v-121c0-29-5-49-35-48" id="K"/><g id="e"><use transform="matrix(0.06172839506172839,0,0,0.06172839506172839,0,0)" xlink:href="#J"/><use transform="matrix(0.06172839506172839,0,0,0.06172839506172839,11.11111111111111,0)" xlink:href="#w"/><use transform="matrix(0.06172839506172839,0,0,0.06172839506172839,15.987654320987653,0)" xlink:href="#J"/><use transform="matrix(0.06172839506172839,0,0,0.06172839506172839,27.098765432098766,0)" xlink:href="#r"/><use transform="matrix(0.06172839506172839,0,0,0.06172839506172839,33.27160493827161,0)" xlink:href="#s"/><use transform="matrix(0.06172839506172839,0,0,0.06172839506172839,45.617283950617285,0)" xlink:href="#K"/><use transform="matrix(0.06172839506172839,0,0,0.06172839506172839,64.07407407407408,0)" xlink:href="#u"/></g><path fill="#3a414a" d="M85-194c31 0 48 13 60 33l-1-100h32l1 261h-30c-2-10 0-23-3-31C134-8 116 4 85 4 32 4 16-35 15-94c0-66 23-100 70-100zm9 24c-40 0-46 34-46 75 0 40 6 74 45 74 42 0 51-32 51-76 0-42-9-74-50-73" id="L"/><g id="f"><use transform="matrix(0.06172839506172839,0,0,0.06172839506172839,0,0)" xlink:href="#L"/><use transform="matrix(0.06172839506172839,0,0,0.06172839506172839,12.345679012345679,0)" xlink:href="#w"/></g><path fill="#3a414a" d="M115-194c55 1 70 41 70 98S169 2 115 4C84 4 66-9 55-30l1 105H24l-1-265h31l2 30c10-21 28-34 59-34zm-8 174c40 0 45-34 45-75s-6-73-45-74c-42 0-51 32-51 76 0 43 10 73 51 73" id="M"/><g id="g"><use transform="matrix(0.06172839506172839,0,0,0.06172839506172839,0,0)" xlink:href="#M"/><use transform="matrix(0.06172839506172839,0,0,0.06172839506172839,12.345679012345679,0)" xlink:href="#y"/><use transform="matrix(0.06172839506172839,0,0,0.06172839506172839,24.691358024691358,0)" xlink:href="#J"/><use transform="matrix(0.06172839506172839,0,0,0.06172839506172839,35.80246913580247,0)" xlink:href="#r"/><use transform="matrix(0.06172839506172839,0,0,0.06172839506172839,41.97530864197531,0)" xlink:href="#u"/></g><path fill="#3a414a" d="M24 0v-261h32V0H24" id="N"/><path fill="#3a414a" d="M114-163C36-179 61-72 57 0H25l-1-190h30c1 12-1 29 2 39 6-27 23-49 58-41v29" id="O"/><g id="h"><use transform="matrix(0.06172839506172839,0,0,0.06172839506172839,0,0)" xlink:href="#s"/><use transform="matrix(0.06172839506172839,0,0,0.06172839506172839,12.345679012345679,0)" xlink:href="#N"/><use transform="matrix(0.06172839506172839,0,0,0.06172839506172839,17.22222222222222,0)" xlink:href="#s"/><use transform="matrix(0.06172839506172839,0,0,0.06172839506172839,29.5679012345679,0)" xlink:href="#r"/><use transform="matrix(0.06172839506172839,0,0,0.06172839506172839,35.74074074074074,0)" xlink:href="#r"/><use transform="matrix(0.06172839506172839,0,0,0.06172839506172839,41.91358024691358,0)" xlink:href="#O"/><use transform="matrix(0.06172839506172839,0,0,0.06172839506172839,49.25925925925926,0)" xlink:href="#y"/><use transform="matrix(0.06172839506172839,0,0,0.06172839506172839,61.60493827160494,0)" xlink:href="#t"/><use transform="matrix(0.06172839506172839,0,0,0.06172839506172839,73.95061728395062,0)" xlink:href="#w"/><use transform="matrix(0.06172839506172839,0,0,0.06172839506172839,78.82716049382717,0)" xlink:href="#x"/><use transform="matrix(0.06172839506172839,0,0,0.06172839506172839,89.93827160493828,0)" xlink:href="#u"/></g><path fill="#333" d="M15-91v-56l181-69v40L49-119l147 57v40" id="P"/><path fill="#333" d="M25-224v-37h50v37H25zM25 0v-190h50V0H25" id="Q"/><path fill="#333" d="M135-194c87-1 58 113 63 194h-50c-7-57 23-157-34-157-59 0-34 97-39 157H25l-1-190h47c2 12-1 28 3 38 12-26 28-41 61-42" id="R"/><path fill="#333" d="M190-63c-7 42-38 67-86 67-59 0-84-38-90-98-12-110 154-137 174-36l-49 2c-2-19-15-32-35-32-30 0-35 28-38 64-6 74 65 87 74 30" id="S"/><path fill="#333" d="M25 0v-261h50V0H25" id="T"/><path fill="#333" d="M85 4C-2 5 27-109 22-190h50c7 57-23 150 33 157 60-5 35-97 40-157h50l1 190h-47c-2-12 1-28-3-38-12 25-28 42-61 42" id="U"/><path fill="#333" d="M88-194c31-1 46 15 58 34l-1-101h50l1 261h-48c-2-10 0-23-3-31C134-8 116 4 84 4 32 4 16-41 15-95c0-56 19-97 73-99zm17 164c33 0 40-30 41-66 1-37-9-64-41-64s-38 30-39 65c0 43 13 65 39 65" id="V"/><path fill="#333" d="M185-48c-13 30-37 53-82 52C43 2 14-33 14-96s30-98 90-98c62 0 83 45 84 108H66c0 31 8 55 39 56 18 0 30-7 34-22zm-45-69c5-46-57-63-70-21-2 6-4 13-4 21h74" id="W"/><path fill="#333" d="M15-22v-40l146-57-146-57v-40l181 69v56" id="X"/><g id="i"><use transform="matrix(0.04938271604938272,0,0,0.04938271604938272,0,0)" xlink:href="#P"/><use transform="matrix(0.04938271604938272,0,0,0.04938271604938272,10.370370370370372,0)" xlink:href="#Q"/><use transform="matrix(0.04938271604938272,0,0,0.04938271604938272,15.308641975308642,0)" xlink:href="#R"/><use transform="matrix(0.04938271604938272,0,0,0.04938271604938272,26.12345679012346,0)" xlink:href="#S"/><use transform="matrix(0.04938271604938272,0,0,0.04938271604938272,36,0)" xlink:href="#T"/><use transform="matrix(0.04938271604938272,0,0,0.04938271604938272,40.93827160493827,0)" xlink:href="#U"/><use transform="matrix(0.04938271604938272,0,0,0.04938271604938272,51.75308641975309,0)" xlink:href="#V"/><use transform="matrix(0.04938271604938272,0,0,0.04938271604938272,62.567901234567906,0)" xlink:href="#W"/><use transform="matrix(0.04938271604938272,0,0,0.04938271604938272,72.44444444444446,0)" xlink:href="#X"/></g><path d="M24-231v-30h32v30H24zM24 0v-190h32V0H24" id="Y"/><path d="M117-194c89-4 53 116 60 194h-32v-121c0-31-8-49-39-48C34-167 62-67 57 0H25l-1-190h30c1 10-1 24 2 32 11-22 29-35 61-36" id="Z"/><path d="M210-169c-67 3-38 105-44 169h-31v-121c0-29-5-50-35-48C34-165 62-65 56 0H25l-1-190h30c1 10-1 24 2 32 10-44 99-50 107 0 11-21 27-35 58-36 85-2 47 119 55 194h-31v-121c0-29-5-49-35-48" id="aa"/><path d="M59-47c-2 24 18 29 38 22v24C64 9 27 4 27-40v-127H5v-23h24l9-43h21v43h35v23H59v120" id="ab"/><g id="j"><use transform="matrix(0.05,0,0,0.05,0,0)" xlink:href="#Y"/><use transform="matrix(0.05,0,0,0.05,3.95,0)" xlink:href="#Z"/><use transform="matrix(0.05,0,0,0.05,13.949999999999998,0)" xlink:href="#G"/><use transform="matrix(0.05,0,0,0.05,22.95,0)" xlink:href="#A"/><use transform="matrix(0.05,0,0,0.05,32.95,0)" xlink:href="#z"/><use transform="matrix(0.05,0,0,0.05,38.900000000000006,0)" xlink:href="#Y"/><use transform="matrix(0.05,0,0,0.05,42.85000000000001,0)" xlink:href="#aa"/><use transform="matrix(0.05,0,0,0.05,57.80000000000001,0)" xlink:href="#A"/><use transform="matrix(0.05,0,0,0.05,67.80000000000001,0)" xlink:href="#Z"/><use transform="matrix(0.05,0,0,0.05,77.80000000000001,0)" xlink:href="#ab"/><use transform="matrix(0.05,0,0,0.05,82.80000000000001,0)" xlink:href="#E"/></g><path d="M24 0v-261h32V0H24" id="ac"/><g id="k"><use transform="matrix(0.05,0,0,0.05,0,0)" xlink:href="#A"/><use transform="matrix(0.05,0,0,0.05,10,0)" xlink:href="#aa"/><use transform="matrix(0.05,0,0,0.05,24.950000000000003,0)" xlink:href="#F"/><use transform="matrix(0.05,0,0,0.05,34.95,0)" xlink:href="#Y"/><use transform="matrix(0.05,0,0,0.05,38.900000000000006,0)" xlink:href="#ac"/></g><path d="M9 0v-24l116-142H16v-24h144v24L44-24h123V0H9" id="ad"/><g id="l"><use transform="matrix(0.05,0,0,0.05,0,0)" xlink:href="#z"/><use transform="matrix(0.05,0,0,0.05,5.95,0)" xlink:href="#Y"/><use transform="matrix(0.05,0,0,0.05,9.9,0)" xlink:href="#B"/><use transform="matrix(0.05,0,0,0.05,18.9,0)" xlink:href="#A"/><use transform="matrix(0.05,0,0,0.05,28.899999999999995,0)" xlink:href="#ad"/><use transform="matrix(0.05,0,0,0.05,37.9,0)" xlink:href="#Y"/><use transform="matrix(0.05,0,0,0.05,41.85,0)" xlink:href="#E"/><use transform="matrix(0.05,0,0,0.05,51.85,0)" xlink:href="#Z"/><use transform="matrix(0.05,0,0,0.05,61.85,0)" xlink:href="#A"/></g><g id="m"><use transform="matrix(0.05,0,0,0.05,0,0)" xlink:href="#A"/><use transform="matrix(0.05,0,0,0.05,10,0)" xlink:href="#aa"/><use transform="matrix(0.05,0,0,0.05,24.950000000000003,0)" xlink:href="#F"/><use transform="matrix(0.05,0,0,0.05,34.95,0)" xlink:href="#Y"/><use transform="matrix(0.05,0,0,0.05,38.900000000000006,0)" xlink:href="#ac"/></g><g id="n"><use transform="matrix(0.05,0,0,0.05,0,0)" xlink:href="#I"/><use transform="matrix(0.05,0,0,0.05,10,0)" xlink:href="#Y"/></g><g id="o"><use transform="matrix(0.05,0,0,0.05,0,0)" xlink:href="#z"/><use transform="matrix(0.05,0,0,0.05,5.95,0)" xlink:href="#A"/><use transform="matrix(0.05,0,0,0.05,15.949999999999998,0)" xlink:href="#B"/><use transform="matrix(0.05,0,0,0.05,24.95,0)" xlink:href="#C"/><use transform="matrix(0.05,0,0,0.05,34.95,0)" xlink:href="#D"/><use transform="matrix(0.05,0,0,0.05,44.95,0)" xlink:href="#A"/><use transform="matrix(0.05,0,0,0.05,54.95,0)" xlink:href="#z"/><use transform="matrix(0.05,0,0,0.05,60.900000000000006,0)" xlink:href="#E"/></g></defs></g></svg>