<svg xmlns="http://www.w3.org/2000/svg" xmlns:xlink="http://www.w3.org/1999/xlink" xmlns:lucid="lucid" width="908.47" height="626.5"><g transform="translate(-228.93827160493828 -200)" lucid:page-tab-id="7.u6Mr.Xz1Xs"><path d="M0 0h1870.87v1322.83H0z" fill="#fff"/><path d="M359.75 436.25c0 10.9-8.84 19.75-19.75 19.75-10.9 0-19.75-8.84-19.75-19.75 0-10.9 8.84-19.75 19.75-19.75 10.9 0 19.75 8.85 19.75 19.75z" stroke="#3a414a" fill="#fff"/><path d="M340 456v49.3a20.7 20.7 0 0 0 3.2 11.07L380 574.5m-40-63.2l-40 63.2m0-98.75h80" stroke="#3a414a" fill="none"/><path d="M300 422.5a6 6 0 0 1 6-6h68a6 6 0 0 1 6 6v168a6 6 0 0 1-6 6h-68a6 6 0 0 1-6-6z" fill="none"/><use xlink:href="#a" transform="matrix(1,0,0,1,220,574.5039370078739) translate(29.93827160493828 17.77777777777778)"/><use xlink:href="#b" transform="matrix(1,0,0,1,220,574.5039370078739) translate(101.48148148148148 17.77777777777778)"/><use xlink:href="#c" transform="matrix(1,0,0,1,220,574.5039370078739) translate(76.82098765432099 44.44444444444444)"/><path d="M657.4 506.5c0 33.14-35.8 60-80 60-44.17 0-80-26.86-80-60 0-33.13 35.83-60 80-60 44.2 0 80 26.87 80 60z" stroke="#3a414a" fill="#fff"/><use xlink:href="#d" transform="matrix(1,0,0,1,497.41029107216673,446.5039370078739) translate(34.629999999999995 40.65)"/><use xlink:href="#e" transform="matrix(1,0,0,1,497.41029107216673,446.5039370078739) translate(117.48 40.65)"/><use xlink:href="#f" transform="matrix(1,0,0,1,497.41029107216673,446.5039370078739) translate(19.07999999999999 62.25)"/><use xlink:href="#g" transform="matrix(1,0,0,1,497.41029107216673,446.5039370078739) translate(103.03 62.25)"/><use xlink:href="#h" transform="matrix(1,0,0,1,497.41029107216673,446.5039370078739) translate(47.55499999999999 83.85000000000001)"/><path d="M496.4 506.5H341.05" stroke="#3a414a" fill="none"/><path d="M496.9 506.5v.4l.02.1h-.52v-1h.53z" stroke="#3a414a" stroke-width=".05" fill="#3a414a"/><path d="M341.05 506.5h-3.5" stroke="#3a414a" fill="none"/><path d="M1117.4 506.5c0 33.14-35.8 60-80 60-44.17 0-80-26.86-80-60 0-33.13 35.83-60 80-60 44.2 0 80 26.87 80 60z" stroke="#3a414a" fill="#fff"/><use xlink:href="#i" transform="matrix(1,0,0,1,957.410291072167,446.5039370078739) translate(42.129999999999995 44.4)"/><use xlink:href="#e" transform="matrix(1,0,0,1,957.410291072167,446.5039370078739) translate(109.97999999999999 44.4)"/><use xlink:href="#j" transform="matrix(1,0,0,1,957.410291072167,446.5039370078739) translate(9.104999999999999 66)"/><use xlink:href="#k" transform="matrix(1,0,0,1,957.410291072167,446.5039370078739) translate(136.955 66)"/><use xlink:href="#l" transform="matrix(1,0,0,1,957.410291072167,446.5039370078739) translate(42.35499999999999 87.60000000000001)"/><path d="M1117.4 736.5c0 38.66-35.8 70-80 70-44.17 0-80-31.34-80-70s35.83-70 80-70c44.2 0 80 31.34 80 70z" stroke="#3a414a" fill="#fff"/><use xlink:href="#i" transform="matrix(1,0,0,1,957.410291072167,666.5039370078739) translate(31.580000000000002 53.775)"/><use xlink:href="#m" transform="matrix(1,0,0,1,957.410291072167,666.5039370078739) translate(99.43 53.775)"/><use xlink:href="#n" transform="matrix(1,0,0,1,957.410291072167,666.5039370078739) translate(17.354999999999997 75.375)"/><use xlink:href="#o" transform="matrix(1,0,0,1,957.410291072167,666.5039370078739) translate(97.65500000000002 75.375)"/><use xlink:href="#p" transform="matrix(1,0,0,1,957.410291072167,666.5039370078739) translate(132.65500000000003 75.375)"/><use xlink:href="#q" transform="matrix(1,0,0,1,957.410291072167,666.5039370078739) translate(34.53 96.97500000000001)"/><use xlink:href="#r" transform="matrix(1,0,0,1,957.410291072167,666.5039370078739) translate(78.53 96.97500000000001)"/><path d="M675.8 507h-1.5v-1h1.5zm5.04 0h-3.02v-1h3.02zm5.04 0h-3.02v-1h3.02zm5.04 0h-3.02v-1h3.02zm5.04 0h-3.03v-1h3.03zm5.03 0h-3.03v-1H701zm5.03 0H703v-1h3.03zm5.04 0h-3.02v-1h3.02zm5.04 0h-3v-1h3zm5.05 0h-3.03v-1h3.03zm5.03 0h-3.02v-1h3.02zm5.04 0h-3.02v-1h3.02zm5.04 0h-3.02v-1h3.02zm5.04 0h-3.03v-1h3.03zm5.03 0h-3.02v-1h3.03zm5.04 0h-3.02v-1h3.02zm5.04 0h-3v-1h3zm5.05 0h-3.02v-1h3.02zm5.04 0h-3.04v-1h3.03zm5.02 0h-3.02v-1h3.02zm5.04 0h-3.02v-1h3.02zm5.04 0h-3.02v-1h3.02zm5.04 0h-3.03v-1h3.04zm5.03 0h-3.02v-1h3.02zm5.04 0h-3v-1h3zm5.05 0h-3.02v-1h3.02zm5.04 0h-3.03v-1h3.02zm5.03 0h-3.03v-1h3.03zm5.03 0h-3.02v-1h3.02zm5.04 0h-3.02v-1h3.02zm5.04 0h-3.02v-1h3.02zm5.04 0h-3.03v-1h3.03zm5.03 0h-3v-1h3zm5.05 0h-3.02v-1h3.02zm5.04 0h-3.03v-1h3.02zm4.37 0h-2.36v-1h2.37zm81.26 0h-3.02v-1h3.03zm5.04 0h-3.02v-1h3.02zm5.04 0h-3v-1h3zm5.05 0h-3.03v-1h3.03zm5.03 0h-3.02v-1h3.02zm3.53 0h-1.5v-1h1.5z" stroke="#3a414a" stroke-width=".05" fill="#3a414a"/><path d="M673.8 511.14l-14.27-4.64 14.26-4.63z" fill="#3a414a"/><path d="M674.3 511.83l-16.4-5.33 16.4-5.32zm-13.15-5.33l12.14 3.95v-7.9z" stroke="#3a414a" stroke-width=".05" fill="#3a414a"/><path d="M956.9 506.5v.4l.02.1h-.52v-1h.53z" fill="#3a414a"/><path d="M956.94 506.5v.53h-.57v-1.05h.58zm-.52-.47v.95h.47v-.95z" stroke="#3a414a" stroke-width=".05" fill="#3a414a"/><g><use xlink:href="#s" transform="matrix(1,0,0,1,851.4720194672286,495.8372703412072) translate(0.005000000000002558 14.222222222222223)"/></g><path d="M956.4 736v1h-1.48v-1zm-3.46 0v1h-2.98v-1zm-4.97 0v1H945v-1zm-4.96 0v1h-2.97v-1zm-4.95 0v1h-2.98v-1zm-84.38-.05v1h-2.98v-1zm-4.97 0v1h-2.97v-1zm-4.96 0v1h-2.98v-1zm-4.96 0v1h-2.98v-1zm-4.97 0v1h-2.96v-1zm-4.95 0v1h-2.98v-1zm-4.96 0v1l-3-.02v-1zm-4.98-.02v1h-2.97v-1zm-7.2-.2l.8.2h1.44v1h-1.55l-1-.24-.34-.15.38-.93zm-2.76-2l.56.66.58.5-.65.75-.64-.55-.65-.77-.44-.72.86-.5zm-1.05-3.25l.08.88.07.3-.98.22-.08-.36-.1-1v-1.5h1zm0-3.46h-1v-2.98h1zm0-4.98h-1v-2.98h1zm0-4.97h-1v-3h1zm0-4.98h-1v-3h1zm0-4.98h-1v-3h1zm0-4.98h-1v-2.98h1zm0-4.97h-1v-3h1zm0-4.98h-1v-3h1zm0-5h-1v-2.97h1zm0-4.96h-1v-3h1zm0-4.98h-1v-2.98h1zm0-4.97h-1v-3h1zm0-5h-1v-2.98h1zm0-4.97h-1v-2.98h1zm0-4.97h-1l-.02-3h1zm-.02-4.98h-1v-2.98h1zm0-4.97h-1v-2.98h1zm0-4.97h-1v-2.98h1zm0-4.98h-1v-2.98h1zm0-4.97h-1v-3h1zm0-4.98h-1v-2.98h1zm0-4.97h-1v-3h1zm0-4.98h-1v-2.98h1zm0-4.97h-1v-3h1zm0-4.98h-1v-3h1zm0-4.98h-1v-2.98h1zm0-4.97h-1l-.02-3h1zm-.02-4.98h-1v-2.98h1zm0-4.97h-1v-3h1zm0-4.98h-1v-2.98h1zm0-4.98h-1v-2.98h1zm0-4.97h-1v-3h1zm0-4.98h-1v-3h1zm0-4.98h-1v-3h1zm0-4.98h-1v-2.98h1zm0-4.98h-1v-2.98h1zm0-4.97h-1v-3h1zm0-5h-1v-2.97h1zm0-4.96h-1l-.02-3h1zm-.02-4.98h-1v-2.98h1zm0-4.97h-1v-3h1zm0-5h-1v-2.98h1zm0-4.97h-1v-2.98h1zm-.25-7.54l.24 1v1.56h-1v-1.44l-.2-.82-.1-.26.9-.4zm-2.37-3.26l.78.67.55.65-.76.64-.5-.58-.66-.56-.65-.4.52-.85zm-2.8-1.16l.36.1-.25.96-.28-.07-.88-.07h-1.52v-1h1.55zm-126.6.92h-1.54v-1h1.52zm5.07 0h-3.05v-1h3.05zm5.1 0h-3.06v-1H686zm5.07 0h-3.05v-1h3.05zm5.1 0h-3.06v-1h3.06zm5.07 0h-3.05v-1h3.04zm5.1 0h-3.06v-1h3.05zm5.07 0h-3.04v-1h3.05zm5.1 0h-3.05v-1h3.05zm5.08 0h-3.05v-1h3.05zm5.1 0h-3.06v-1h3.05zm5.07 0h-3.05v-1h3.05zm5.1 0h-3.07v-1h3.06zm5.07 0h-3.05v-1h3.05zm5.08 0h-3.05v-1H747zm5.1 0h-3.06v-1h3.05zm5.07 0h-3.05v-1h3.05zm5.1 0h-3.06v-1h3.06zm5.07 0h-3.05v-1h3.04zm5.1 0h-3.06v-1h3.05zm5.07 0h-3.04v-1h3.05zm5.1 0h-3.05v-1h3.05zm5.08 0h-3.05v-1h3.05zm5.1 0h-3.06v-1h3.05zm5.07 0h-3.05v-1h3.05z" stroke="#3a414a" stroke-width=".05" fill="#3a414a"/><path d="M673.8 511.14l-14.27-4.64 14.26-4.63z" fill="#3a414a"/><path d="M674.3 511.83l-16.4-5.33 16.4-5.32zm-13.15-5.33l12.14 3.95v-7.9z" stroke="#3a414a" stroke-width=".05" fill="#3a414a"/><path d="M956.9 736.5v.5h-.5v-1h.53z" fill="#3a414a"/><path d="M956.94 736.5v.53h-.57v-1.05h.58zm-.52-.47v.95h.47v-.95z" stroke="#3a414a" stroke-width=".05" fill="#3a414a"/><g><use xlink:href="#s" transform="matrix(1,0,0,1,855.2870484379675,725.8372703412073) translate(0.005000000000002558 14.222222222222223)"/></g><path d="M1117.4 280c0 33.14-35.8 60-80 60-44.17 0-80-26.86-80-60s35.83-60 80-60c44.2 0 80 26.86 80 60z" stroke="#3a414a" fill="#fff"/><g><use xlink:href="#t" transform="matrix(1,0,0,1,957.410291072167,220) translate(43.629999999999995 51.9)"/><use xlink:href="#l" transform="matrix(1,0,0,1,957.410291072167,220) translate(42.35499999999999 73.5)"/></g><path d="M659.9 507h-1.5v-1h1.5zm4.92 0h-2.96v-1h2.96zm4.93 0h-2.96v-1h2.95zm4.93 0h-2.96v-1h2.96zm4.93 0h-2.94v-1h2.95zm4.94 0h-2.95v-1h2.94zm4.94 0h-2.96v-1h2.96zm4.93 0h-2.95v-1h2.96zm4.94 0h-2.96v-1h2.96zm4.93 0h-2.96v-1h2.97zm4.93 0h-2.96v-1h2.96zm4.93 0h-2.96v-1h2.96zm4.93 0h-2.96v-1h2.96zm4.93 0h-2.97v-1H724zm4.92 0h-2.95v-1h2.95zm4.94 0h-2.96v-1h2.96zm4.93 0h-2.97v-1h2.96zm4.92 0h-2.96v-1h2.96zm4.93 0h-2.96v-1h2.95zm4.93 0h-2.96v-1h2.96zm4.93 0h-2.95v-1h2.96zm4.94 0h-2.96v-1h2.96zm4.93 0h-2.96v-1h2.97zm4.93 0h-2.96v-1h2.96zm4.93 0h-2.95v-1h2.95zm4.94 0h-2.96v-1h2.97zm4.93 0h-2.96v-1h2.96zm4.93 0h-2.96v-1h2.96zm4.93 0H795v-1h2.96zm4.83-.16l-.37.1-1 .06h-1.5v-1h1.46l.87-.07.28-.06zm3.75-2.38l-.54.64-.77.66-.7.44-.54-.85.64-.4.66-.56.5-.6zm1.3-4.52v1.56l-.26 1-.15.35-.92-.38.1-.27.2-.82v-1.44zm0-5v3h-1v-3zm0-5.02v3h-1v-3zm0-5v3h-1v-3zm0-5.02v3h-1v-3zm0-5v3h-1v-3zm0-5.02v3h-1v-3zm0-5v3h-1v-3zm0-5.02v3h-1v-3zm0-5v3h-1v-3zm0-5.02v3h-1v-3zm0-5v3h-1v-3zm0-5.02v3h-1v-3zm0-5v3h-1v-3zm0-5.02v3h-1v-3zm0-5v3h-1v-3.02zm0-5.03v3h-1v-3zm.02-5v3h-1v-3zm0-5.02v3h-1v-3zm0-5v3h-1v-3zm0-5.02v3h-1v-3zm0-5v3h-1v-3zm0-5.02v3.02h-1v-3zm0-5v3h-1v-3zm0-5v3h-1v-3zm0-5.02v3h-1v-3zm0-5v3h-1v-3zm0-5.02v3h-1v-3zm.02-5l-.02 3h-1v-3zm0-5.02v3h-1v-3zm0-5v3h-1v-3zm0-5.02v3h-1v-3zm0-5v3h-1v-3zm0-5.02v3h-1v-3zm0-5v3h-1v-3zm0-5.02v3h-1v-3zm0-5v3h-1v-3zm0-5.02v3h-1v-3zm0-5v3h-1v-3zm0-5.02v3h-1v-3zm0-5v3h-1v-3zm0-5.02v3h-1v-3zm0-5v3h-1v-3zm.15-4.66l-.07.28-.07.88v1.48h-1v-1.52l.1-1 .07-.36zm2.05-3.24l-.58.5-.56.65-.4.65-.85-.53.45-.72.66-.78.65-.54zm3.86-1.05h-1.43l-.82.2-.26.1-.38-.9.34-.15 1-.25h1.56zm4.96 0h-2.97v-1h2.97zm4.97 0h-3v-1h3zm4.95 0h-2.98v-1h2.98zm4.96 0h-2.96v-1h2.97zm4.98 0h-2.98v-1h2.98zm4.96 0h-2.98v-1h2.98zm2.73 0h-.74v-1h.74zm81.65-.06l-2.98.02v-1h2.98zm4.96 0h-2.98v-1h2.98zm4.97 0h-2.98v-1h2.98zm4.96 0h-2.97v-1H943zm4.97 0H945v-1h2.97zm4.97 0h-2.98v-1h2.98zm3.47 0h-1.48v-1h1.5z" stroke="#3a414a" stroke-width=".05" fill="#3a414a"/><path d="M658.42 507h-.53v-1h.52z" fill="#3a414a"/><path d="M658.45 507.03h-.58l.02-.52-.02-.4V506h.57zm-.52-1v.96h.47v-.95z" stroke="#3a414a" stroke-width=".05" fill="#3a414a"/><path d="M956.9 280v.4l.02.1h-.52v-1h.53z" fill="#3a414a"/><path d="M956.94 280v.53h-.57v-1.05h.58zm-.52-.48v.96h.47v-.96z" stroke="#3a414a" stroke-width=".05" fill="#3a414a"/><g><use xlink:href="#s" transform="matrix(1,0,0,1,846.4720194672286,269.3333333333333) translate(0.005000000000002558 14.222222222222223)"/></g><defs><path fill="#3a414a" d="M232-93c-1 65-40 97-104 97C67 4 28-28 28-90v-158h33c8 89-33 224 67 224 102 0 64-133 71-224h33v155" id="u"/><path fill="#3a414a" d="M59-47c-2 24 18 29 38 22v24C64 9 27 4 27-40v-127H5v-23h24l9-43h21v43h35v23H59v120" id="v"/><path fill="#3a414a" d="M100-194c63 0 86 42 84 106H49c0 40 14 67 53 68 26 1 43-12 49-29l28 8c-11 28-37 45-77 45C44 4 14-33 15-96c1-61 26-98 85-98zm52 81c6-60-76-77-97-28-3 7-6 17-6 28h103" id="w"/><path fill="#3a414a" d="M117-194c89-4 53 116 60 194h-32v-121c0-31-8-49-39-48C34-167 62-67 57 0H25l-1-190h30c1 10-1 24 2 32 11-22 29-35 61-36" id="x"/><g id="a"><use transform="matrix(0.06172839506172839,0,0,0.06172839506172839,0,0)" xlink:href="#u"/><use transform="matrix(0.06172839506172839,0,0,0.06172839506172839,15.987654320987653,0)" xlink:href="#v"/><use transform="matrix(0.06172839506172839,0,0,0.06172839506172839,22.160493827160494,0)" xlink:href="#w"/><use transform="matrix(0.06172839506172839,0,0,0.06172839506172839,34.50617283950617,0)" xlink:href="#x"/><use transform="matrix(0.06172839506172839,0,0,0.06172839506172839,46.85185185185185,0)" xlink:href="#v"/><use transform="matrix(0.06172839506172839,0,0,0.06172839506172839,53.02469135802469,0)" xlink:href="#w"/></g><path fill="#3a414a" d="M141-36C126-15 110 5 73 4 37 3 15-17 15-53c-1-64 63-63 125-63 3-35-9-54-41-54-24 1-41 7-42 31l-33-3c5-37 33-52 76-52 45 0 72 20 72 64v82c-1 20 7 32 28 27v20c-31 9-61-2-59-35zM48-53c0 20 12 33 32 33 41-3 63-29 60-74-43 2-92-5-92 41" id="y"/><path fill="#3a414a" d="M84 4C-5 8 30-112 23-190h32v120c0 31 7 50 39 49 72-2 45-101 50-169h31l1 190h-30c-1-10 1-25-2-33-11 22-28 36-60 37" id="z"/><path fill="#3a414a" d="M24-231v-30h32v30H24zM24 0v-190h32V0H24" id="A"/><path fill="#3a414a" d="M96-169c-40 0-48 33-48 73s9 75 48 75c24 0 41-14 43-38l32 2c-6 37-31 61-74 61-59 0-76-41-82-99-10-93 101-131 147-64 4 7 5 14 7 22l-32 3c-4-21-16-35-41-35" id="B"/><path fill="#3a414a" d="M100-194c62-1 85 37 85 99 1 63-27 99-86 99S16-35 15-95c0-66 28-99 85-99zM99-20c44 1 53-31 53-75 0-43-8-75-51-75s-53 32-53 75 10 74 51 75" id="C"/><g id="b"><use transform="matrix(0.06172839506172839,0,0,0.06172839506172839,0,0)" xlink:href="#y"/><use transform="matrix(0.06172839506172839,0,0,0.06172839506172839,12.345679012345679,0)" xlink:href="#z"/><use transform="matrix(0.06172839506172839,0,0,0.06172839506172839,24.691358024691358,0)" xlink:href="#v"/><use transform="matrix(0.06172839506172839,0,0,0.06172839506172839,30.864197530864196,0)" xlink:href="#w"/><use transform="matrix(0.06172839506172839,0,0,0.06172839506172839,43.20987654320987,0)" xlink:href="#x"/><use transform="matrix(0.06172839506172839,0,0,0.06172839506172839,55.55555555555555,0)" xlink:href="#v"/><use transform="matrix(0.06172839506172839,0,0,0.06172839506172839,61.72839506172839,0)" xlink:href="#A"/><use transform="matrix(0.06172839506172839,0,0,0.06172839506172839,66.60493827160494,0)" xlink:href="#B"/><use transform="matrix(0.06172839506172839,0,0,0.06172839506172839,77.71604938271605,0)" xlink:href="#y"/><use transform="matrix(0.06172839506172839,0,0,0.06172839506172839,90.06172839506173,0)" xlink:href="#v"/><use transform="matrix(0.06172839506172839,0,0,0.06172839506172839,96.23456790123457,0)" xlink:href="#C"/></g><path fill="#3a414a" d="M135-143c-3-34-86-38-87 0 15 53 115 12 119 90S17 21 10-45l28-5c4 36 97 45 98 0-10-56-113-15-118-90-4-57 82-63 122-42 12 7 21 19 24 35" id="D"/><path fill="#3a414a" d="M85-194c31 0 48 13 60 33l-1-100h32l1 261h-30c-2-10 0-23-3-31C134-8 116 4 85 4 32 4 16-35 15-94c0-66 23-100 70-100zm9 24c-40 0-46 34-46 75 0 40 6 74 45 74 42 0 51-32 51-76 0-42-9-74-50-73" id="E"/><path fill="#3a414a" d="M114-163C36-179 61-72 57 0H25l-1-190h30c1 12-1 29 2 39 6-27 23-49 58-41v29" id="F"/><g id="c"><use transform="matrix(0.06172839506172839,0,0,0.06172839506172839,0,0)" xlink:href="#D"/><use transform="matrix(0.06172839506172839,0,0,0.06172839506172839,11.11111111111111,0)" xlink:href="#v"/><use transform="matrix(0.06172839506172839,0,0,0.06172839506172839,17.28395061728395,0)" xlink:href="#y"/><use transform="matrix(0.06172839506172839,0,0,0.06172839506172839,29.629629629629626,0)" xlink:href="#x"/><use transform="matrix(0.06172839506172839,0,0,0.06172839506172839,41.9753086419753,0)" xlink:href="#E"/><use transform="matrix(0.06172839506172839,0,0,0.06172839506172839,54.32098765432098,0)" xlink:href="#y"/><use transform="matrix(0.06172839506172839,0,0,0.06172839506172839,66.66666666666666,0)" xlink:href="#F"/><use transform="matrix(0.06172839506172839,0,0,0.06172839506172839,74.01234567901234,0)" xlink:href="#E"/></g><path d="M108 0H70L1-190h34L89-25l56-165h34" id="G"/><path d="M24-231v-30h32v30H24zM24 0v-190h32V0H24" id="H"/><path d="M135-143c-3-34-86-38-87 0 15 53 115 12 119 90S17 21 10-45l28-5c4 36 97 45 98 0-10-56-113-15-118-90-4-57 82-63 122-42 12 7 21 19 24 35" id="I"/><path d="M84 4C-5 8 30-112 23-190h32v120c0 31 7 50 39 49 72-2 45-101 50-169h31l1 190h-30c-1-10 1-25-2-33-11 22-28 36-60 37" id="J"/><path d="M141-36C126-15 110 5 73 4 37 3 15-17 15-53c-1-64 63-63 125-63 3-35-9-54-41-54-24 1-41 7-42 31l-33-3c5-37 33-52 76-52 45 0 72 20 72 64v82c-1 20 7 32 28 27v20c-31 9-61-2-59-35zM48-53c0 20 12 33 32 33 41-3 63-29 60-74-43 2-92-5-92 41" id="K"/><path d="M24 0v-261h32V0H24" id="L"/><path d="M9 0v-24l116-142H16v-24h144v24L44-24h123V0H9" id="M"/><g id="d"><use transform="matrix(0.05,0,0,0.05,0,0)" xlink:href="#G"/><use transform="matrix(0.05,0,0,0.05,9,0)" xlink:href="#H"/><use transform="matrix(0.05,0,0,0.05,12.949999999999998,0)" xlink:href="#I"/><use transform="matrix(0.05,0,0,0.05,21.95,0)" xlink:href="#J"/><use transform="matrix(0.05,0,0,0.05,31.950000000000003,0)" xlink:href="#K"/><use transform="matrix(0.05,0,0,0.05,41.95,0)" xlink:href="#L"/><use transform="matrix(0.05,0,0,0.05,45.900000000000006,0)" xlink:href="#H"/><use transform="matrix(0.05,0,0,0.05,49.85000000000001,0)" xlink:href="#M"/><use transform="matrix(0.05,0,0,0.05,58.85,0)" xlink:href="#M"/><use transform="matrix(0.05,0,0,0.05,67.85000000000001,0)" xlink:href="#K"/></g><g id="e"><use transform="matrix(0.05,0,0,0.05,0,0)" xlink:href="#H"/><use transform="matrix(0.05,0,0,0.05,3.95,0)" xlink:href="#L"/></g><path d="M114-163C36-179 61-72 57 0H25l-1-190h30c1 12-1 29 2 39 6-27 23-49 58-41v29" id="N"/><path d="M100-194c63 0 86 42 84 106H49c0 40 14 67 53 68 26 1 43-12 49-29l28 8c-11 28-37 45-77 45C44 4 14-33 15-96c1-61 26-98 85-98zm52 81c6-60-76-77-97-28-3 7-6 17-6 28h103" id="O"/><path d="M100-194c62-1 85 37 85 99 1 63-27 99-86 99S16-35 15-95c0-66 28-99 85-99zM99-20c44 1 53-31 53-75 0-43-8-75-51-75s-53 32-53 75 10 74 51 75" id="P"/><path d="M96-169c-40 0-48 33-48 73s9 75 48 75c24 0 41-14 43-38l32 2c-6 37-31 61-74 61-59 0-76-41-82-99-10-93 101-131 147-64 4 7 5 14 7 22l-32 3c-4-21-16-35-41-35" id="Q"/><path d="M117-194c89-4 53 116 60 194h-32v-121c0-31-8-49-39-48C34-167 62-67 57 0H25l-1-190h30c1 10-1 24 2 32 11-22 29-35 61-36" id="R"/><path d="M59-47c-2 24 18 29 38 22v24C64 9 27 4 27-40v-127H5v-23h24l9-43h21v43h35v23H59v120" id="S"/><g id="f"><use transform="matrix(0.05,0,0,0.05,0,0)" xlink:href="#N"/><use transform="matrix(0.05,0,0,0.05,5.95,0)" xlink:href="#O"/><use transform="matrix(0.05,0,0,0.05,15.949999999999998,0)" xlink:href="#I"/><use transform="matrix(0.05,0,0,0.05,24.95,0)" xlink:href="#P"/><use transform="matrix(0.05,0,0,0.05,34.95,0)" xlink:href="#Q"/><use transform="matrix(0.05,0,0,0.05,43.95,0)" xlink:href="#P"/><use transform="matrix(0.05,0,0,0.05,53.95,0)" xlink:href="#R"/><use transform="matrix(0.05,0,0,0.05,63.95,0)" xlink:href="#S"/><use transform="matrix(0.05,0,0,0.05,68.95,0)" xlink:href="#P"/></g><path d="M85-194c31 0 48 13 60 33l-1-100h32l1 261h-30c-2-10 0-23-3-31C134-8 116 4 85 4 32 4 16-35 15-94c0-66 23-100 70-100zm9 24c-40 0-46 34-46 75 0 40 6 74 45 74 42 0 51-32 51-76 0-42-9-74-50-73" id="T"/><g id="g"><use transform="matrix(0.05,0,0,0.05,0,0)" xlink:href="#T"/><use transform="matrix(0.05,0,0,0.05,10,0)" xlink:href="#O"/><use transform="matrix(0.05,0,0,0.05,20,0)" xlink:href="#L"/><use transform="matrix(0.05,0,0,0.05,23.95,0)" xlink:href="#L"/><use transform="matrix(0.05,0,0,0.05,27.899999999999995,0)" xlink:href="#K"/></g><path d="M177-190C167-65 218 103 67 71c-23-6-38-20-44-43l32-5c15 47 100 32 89-28v-30C133-14 115 1 83 1 29 1 15-40 15-95c0-56 16-97 71-98 29-1 48 16 59 35 1-10 0-23 2-32h30zM94-22c36 0 50-32 50-73 0-42-14-75-50-75-39 0-46 34-46 75s6 73 46 73" id="U"/><g id="h"><use transform="matrix(0.05,0,0,0.05,0,0)" xlink:href="#U"/><use transform="matrix(0.05,0,0,0.05,10,0)" xlink:href="#H"/><use transform="matrix(0.05,0,0,0.05,13.949999999999998,0)" xlink:href="#P"/><use transform="matrix(0.05,0,0,0.05,23.95,0)" xlink:href="#N"/><use transform="matrix(0.05,0,0,0.05,29.899999999999995,0)" xlink:href="#R"/><use transform="matrix(0.05,0,0,0.05,39.9,0)" xlink:href="#K"/><use transform="matrix(0.05,0,0,0.05,49.9,0)" xlink:href="#S"/><use transform="matrix(0.05,0,0,0.05,54.900000000000006,0)" xlink:href="#K"/></g><g id="i"><use transform="matrix(0.05,0,0,0.05,0,0)" xlink:href="#H"/><use transform="matrix(0.05,0,0,0.05,3.95,0)" xlink:href="#R"/><use transform="matrix(0.05,0,0,0.05,13.949999999999998,0)" xlink:href="#T"/><use transform="matrix(0.05,0,0,0.05,23.95,0)" xlink:href="#H"/><use transform="matrix(0.05,0,0,0.05,27.899999999999995,0)" xlink:href="#Q"/><use transform="matrix(0.05,0,0,0.05,36.9,0)" xlink:href="#K"/><use transform="matrix(0.05,0,0,0.05,46.9,0)" xlink:href="#N"/><use transform="matrix(0.05,0,0,0.05,52.85,0)" xlink:href="#O"/></g><path d="M210-169c-67 3-38 105-44 169h-31v-121c0-29-5-50-35-48C34-165 62-65 56 0H25l-1-190h30c1 10-1 24 2 32 10-44 99-50 107 0 11-21 27-35 58-36 85-2 47 119 55 194h-31v-121c0-29-5-49-35-48" id="V"/><path d="M115-194c55 1 70 41 70 98S169 2 115 4C84 4 66-9 55-30l1 105H24l-1-265h31l2 30c10-21 28-34 59-34zm-8 174c40 0 45-34 45-75s-6-73-45-74c-42 0-51 32-51 76 0 43 10 73 51 73" id="W"/><g id="j"><use transform="matrix(0.05,0,0,0.05,0,0)" xlink:href="#Q"/><use transform="matrix(0.05,0,0,0.05,9,0)" xlink:href="#P"/><use transform="matrix(0.05,0,0,0.05,19,0)" xlink:href="#V"/><use transform="matrix(0.05,0,0,0.05,33.95,0)" xlink:href="#W"/><use transform="matrix(0.05,0,0,0.05,43.95,0)" xlink:href="#L"/><use transform="matrix(0.05,0,0,0.05,47.900000000000006,0)" xlink:href="#O"/><use transform="matrix(0.05,0,0,0.05,57.900000000000006,0)" xlink:href="#S"/><use transform="matrix(0.05,0,0,0.05,62.900000000000006,0)" xlink:href="#K"/><use transform="matrix(0.05,0,0,0.05,72.9,0)" xlink:href="#V"/><use transform="matrix(0.05,0,0,0.05,87.85000000000001,0)" xlink:href="#O"/><use transform="matrix(0.05,0,0,0.05,97.85000000000001,0)" xlink:href="#R"/><use transform="matrix(0.05,0,0,0.05,107.85000000000001,0)" xlink:href="#S"/><use transform="matrix(0.05,0,0,0.05,112.85000000000001,0)" xlink:href="#P"/></g><g id="k"><use transform="matrix(0.05,0,0,0.05,0,0)" xlink:href="#T"/><use transform="matrix(0.05,0,0,0.05,10,0)" xlink:href="#H"/></g><path d="M47-170H22l-4-78h33" id="X"/><path d="M141-36C126-15 110 5 73 4 37 3 15-17 15-53c-1-64 63-63 125-63 3-35-9-54-41-54-24 1-41 7-42 31l-33-3c5-37 33-52 76-52 45 0 72 20 72 64v82c-1 20 7 32 28 27v20c-31 9-61-2-59-35zM48-53c0 20 12 33 32 33 41-3 63-29 60-74-43 2-92-5-92 41zm62-158l-58-49v-5h36c12 19 30 32 38 54h-16" id="Y"/><g id="l"><use transform="matrix(0.05,0,0,0.05,0,0)" xlink:href="#J"/><use transform="matrix(0.05,0,0,0.05,10,0)" xlink:href="#R"/><use transform="matrix(0.05,0,0,0.05,20,0)" xlink:href="#X"/><use transform="matrix(0.05,0,0,0.05,23.4,0)" xlink:href="#K"/><use transform="matrix(0.05,0,0,0.05,33.4,0)" xlink:href="#S"/><use transform="matrix(0.05,0,0,0.05,38.4,0)" xlink:href="#S"/><use transform="matrix(0.05,0,0,0.05,43.4,0)" xlink:href="#H"/><use transform="matrix(0.05,0,0,0.05,47.35,0)" xlink:href="#G"/><use transform="matrix(0.05,0,0,0.05,56.35,0)" xlink:href="#H"/><use transform="matrix(0.05,0,0,0.05,60.300000000000004,0)" xlink:href="#S"/><use transform="matrix(0.05,0,0,0.05,65.30000000000001,0)" xlink:href="#Y"/></g><path d="M106-169C34-169 62-67 57 0H25v-261h32l-1 103c12-21 28-36 61-36 89 0 53 116 60 194h-32v-121c2-32-8-49-39-48" id="Z"/><g id="m"><use transform="matrix(0.05,0,0,0.05,0,0)" xlink:href="#Q"/><use transform="matrix(0.05,0,0,0.05,9,0)" xlink:href="#Z"/><use transform="matrix(0.05,0,0,0.05,19,0)" xlink:href="#O"/></g><g id="n"><use transform="matrix(0.05,0,0,0.05,0,0)" xlink:href="#J"/><use transform="matrix(0.05,0,0,0.05,10,0)" xlink:href="#R"/><use transform="matrix(0.05,0,0,0.05,20,0)" xlink:href="#X"/><use transform="matrix(0.05,0,0,0.05,23.4,0)" xlink:href="#K"/><use transform="matrix(0.05,0,0,0.05,33.4,0)" xlink:href="#S"/><use transform="matrix(0.05,0,0,0.05,38.4,0)" xlink:href="#S"/><use transform="matrix(0.05,0,0,0.05,43.4,0)" xlink:href="#H"/><use transform="matrix(0.05,0,0,0.05,47.35,0)" xlink:href="#G"/><use transform="matrix(0.05,0,0,0.05,56.35,0)" xlink:href="#H"/><use transform="matrix(0.05,0,0,0.05,60.300000000000004,0)" xlink:href="#S"/><use transform="matrix(0.05,0,0,0.05,65.30000000000001,0)" xlink:href="#Y"/></g><g id="o"><use transform="matrix(0.05,0,0,0.05,0,0)" xlink:href="#R"/><use transform="matrix(0.05,0,0,0.05,10,0)" xlink:href="#P"/><use transform="matrix(0.05,0,0,0.05,20,0)" xlink:href="#R"/></g><path d="M100-194c63 0 86 42 84 106H49c0 40 14 67 53 68 26 1 43-12 49-29l28 8c-11 28-37 45-77 45C44 4 14-33 15-96c1-61 26-98 85-98zm52 81c6-60-76-77-97-28-3 7-6 17-6 28h103zm-36-98l-58-49v-5h36c12 19 30 32 38 54h-16" id="aa"/><use transform="matrix(0.05,0,0,0.05,0,0)" xlink:href="#aa" id="p"/><g id="q"><use transform="matrix(0.05,0,0,0.05,0,0)" xlink:href="#I"/><use transform="matrix(0.05,0,0,0.05,9,0)" xlink:href="#S"/><use transform="matrix(0.05,0,0,0.05,14,0)" xlink:href="#K"/><use transform="matrix(0.05,0,0,0.05,24,0)" xlink:href="#S"/><use transform="matrix(0.05,0,0,0.05,29,0)" xlink:href="#K"/></g><g id="r"><use transform="matrix(0.05,0,0,0.05,0,0)" xlink:href="#I"/><use transform="matrix(0.05,0,0,0.05,9,0)" xlink:href="#G"/><use transform="matrix(0.05,0,0,0.05,18,0)" xlink:href="#P"/><use transform="matrix(0.05,0,0,0.05,28,0)" xlink:href="#L"/><use transform="matrix(0.05,0,0,0.05,31.950000000000003,0)" xlink:href="#S"/><use transform="matrix(0.05,0,0,0.05,36.95,0)" xlink:href="#K"/></g><path fill="#333" d="M15-91v-56l181-69v40L49-119l147 57v40" id="ab"/><path fill="#333" d="M185-48c-13 30-37 53-82 52C43 2 14-33 14-96s30-98 90-98c62 0 83 45 84 108H66c0 31 8 55 39 56 18 0 30-7 34-22zm-45-69c5-46-57-63-70-21-2 6-4 13-4 21h74" id="ac"/><path fill="#333" d="M144 0l-44-69L55 0H2l70-98-66-92h53l41 62 40-62h54l-67 91 71 99h-54" id="ad"/><path fill="#333" d="M115-3C79 11 28 4 28-45v-112H4v-33h27l15-45h31v45h36v33H77v99c-1 23 16 31 38 25v30" id="ae"/><path fill="#333" d="M135-194c87-1 58 113 63 194h-50c-7-57 23-157-34-157-59 0-34 97-39 157H25l-1-190h47c2 12-1 28 3 38 12-26 28-41 61-42" id="af"/><path fill="#333" d="M88-194c31-1 46 15 58 34l-1-101h50l1 261h-48c-2-10 0-23-3-31C134-8 116 4 84 4 32 4 16-41 15-95c0-56 19-97 73-99zm17 164c33 0 40-30 41-66 1-37-9-64-41-64s-38 30-39 65c0 43 13 65 39 65" id="ag"/><path fill="#333" d="M15-22v-40l146-57-146-57v-40l181 69v56" id="ah"/><g id="s"><use transform="matrix(0.04938271604938272,0,0,0.04938271604938272,0,0)" xlink:href="#ab"/><use transform="matrix(0.04938271604938272,0,0,0.04938271604938272,10.370370370370372,0)" xlink:href="#ac"/><use transform="matrix(0.04938271604938272,0,0,0.04938271604938272,20.24691358024692,0)" xlink:href="#ad"/><use transform="matrix(0.04938271604938272,0,0,0.04938271604938272,30.123456790123466,0)" xlink:href="#ae"/><use transform="matrix(0.04938271604938272,0,0,0.04938271604938272,36.00000000000001,0)" xlink:href="#ac"/><use transform="matrix(0.04938271604938272,0,0,0.04938271604938272,45.87654320987655,0)" xlink:href="#af"/><use transform="matrix(0.04938271604938272,0,0,0.04938271604938272,56.69135802469136,0)" xlink:href="#ag"/><use transform="matrix(0.04938271604938272,0,0,0.04938271604938272,67.50617283950618,0)" xlink:href="#ah"/></g><g id="t"><use transform="matrix(0.05,0,0,0.05,0,0)" xlink:href="#O"/><use transform="matrix(0.05,0,0,0.05,10,0)" xlink:href="#L"/><use transform="matrix(0.05,0,0,0.05,13.949999999999998,0)" xlink:href="#H"/><use transform="matrix(0.05,0,0,0.05,17.9,0)" xlink:href="#V"/><use transform="matrix(0.05,0,0,0.05,32.85,0)" xlink:href="#H"/><use transform="matrix(0.05,0,0,0.05,36.800000000000004,0)" xlink:href="#R"/><use transform="matrix(0.05,0,0,0.05,46.800000000000004,0)" xlink:href="#K"/><use transform="matrix(0.05,0,0,0.05,56.800000000000004,0)" xlink:href="#N"/><use transform="matrix(0.05,0,0,0.05,62.75,0)" xlink:href="#O"/></g></defs></g></svg>