<svg xmlns="http://www.w3.org/2000/svg" xmlns:xlink="http://www.w3.org/1999/xlink" xmlns:lucid="lucid" width="747.27" height="400"><g transform="translate(-463.7098765432099 -320)" lucid:page-tab-id="e1u65V7TnRCc"><path d="M0 0h1870.87v1322.83H0z" fill="#fff"/><path d="M559.75 459.75c0 10.9-8.84 19.75-19.75 19.75-10.9 0-19.75-8.84-19.75-19.75 0-10.9 8.84-19.75 19.75-19.75 10.9 0 19.75 8.84 19.75 19.75z" stroke="#3a414a" fill="#fff"/><path d="M540 479.5v49.3a20.7 20.7 0 0 0 3.2 11.07L580 598m-40-63.2L500 598m0-98.75h80" stroke="#3a414a" fill="none"/><path d="M500 446a6 6 0 0 1 6-6h68a6 6 0 0 1 6 6v168a6 6 0 0 1-6 6h-68a6 6 0 0 1-6-6z" fill="none"/><use xlink:href="#a" transform="matrix(1,0,0,1,420,598) translate(65.70987654320987 17.77777777777778)"/><use xlink:href="#b" transform="matrix(1,0,0,1,420,598) translate(137.25308641975306 17.77777777777778)"/><use xlink:href="#c" transform="matrix(1,0,0,1,420,598) translate(65.70987654320987 44.44444444444444)"/><path d="M885.5 520c0 33.14-35.83 60-80 60-44.2 0-80-26.86-80-60s35.8-60 80-60c44.17 0 80 26.86 80 60z" stroke="#3a414a" fill="#fff"/><use xlink:href="#d" transform="matrix(1,0,0,1,725.4900125735603,460) translate(41.07999999999999 31.410000000000004)"/><use xlink:href="#e" transform="matrix(1,0,0,1,725.4900125735603,460) translate(31.629999999999995 53.01)"/><use xlink:href="#f" transform="matrix(1,0,0,1,725.4900125735603,460) translate(35.879999999999995 74.61)"/><use xlink:href="#g" transform="matrix(1,0,0,1,725.4900125735603,460) translate(100.18 74.61)"/><use xlink:href="#h" transform="matrix(1,0,0,1,725.4900125735603,460) translate(55.029999999999994 96.21000000000001)"/><path d="M541 518.93h183.52M541 518.93h-3.5" stroke="#3a414a" fill="none"/><path d="M725 519.43h-.5v-1h.54z" stroke="#3a414a" stroke-width=".05" fill="#3a414a"/><path d="M1190.98 410c0 38.66-35.82 70-80 70s-80-31.34-80-70 35.82-70 80-70 80 31.34 80 70z" stroke="#3a414a" fill="#fff"/><use xlink:href="#d" transform="matrix(1,0,0,1,1030.9800251471206,340) translate(41.08 40.65)"/><use xlink:href="#i" transform="matrix(1,0,0,1,1030.9800251471206,340) translate(33.57999999999999 62.25)"/><use xlink:href="#f" transform="matrix(1,0,0,1,1030.9800251471206,340) translate(35.879999999999995 83.85000000000001)"/><use xlink:href="#g" transform="matrix(1,0,0,1,1030.9800251471206,340) translate(100.18 83.85000000000001)"/><use xlink:href="#h" transform="matrix(1,0,0,1,1030.9800251471206,340) translate(55.03 105.45000000000002)"/><path d="M888.03 520.5h-1.54v-1h1.53zm5.13 0h-3.08v-1h3.08zm5.13 0h-3.1v-1h3.1zm5.12-.02h-3.08v-1h3.08zm5.13 0h-3.08v-1h3.08zm5.13 0h-3.08v-1h3.08zm5.13-.02h-3.07v-1h3.08zm5.14 0h-3.08v-1h3.07zm5.13 0H926v-1h3.06zm5.12 0h-3.08v-1h3.07zm5.12-.02h-3.07v-1h3.07zm5.13 0h-3.07v-1h3.07zm5.13 0h-3.07v-1h3.08zm5-.4l-.34.14-1 .25h-1.6v-1h1.47l.83-.2.27-.1zm3.35-2.93l-.44.72-.67.78-.64.54-.66-.76.58-.5.56-.65.4-.65zm.8-4.58v1.5l-.07 1-.1.36-.96-.24.07-.28.07-.88v-1.46zm0-4.95v2.97h-1v-2.97zm0-4.95v2.97h-1v-2.98zm.02-4.94v2.96h-1v-2.97zm0-4.95v2.97h-1v-2.97zm0-4.95v2.97h-1v-2.97zm0-4.95v2.97h-1v-2.97zm0-4.94v2.96h-1v-2.97zm0-2h-1v-.23h1zm.03-22.75v1.18h-1v-1.18zm0-4.94v2.97h-1v-2.96zm0-4.94v2.97h-1v-2.97zm0-4.95v2.98h-1v-2.97zm.02-4.93v2.96h-1v-2.97zm0-4.95v2.97h-1v-2.98zm0-4.95v2.97h-1v-2.97zm0-4.95v2.97h-1v-2.98zm.32-4.5l-.1.28-.2.82v1.43h-1V415l.23-1 .14-.35zm2.53-2.87l-.65.4-.65.56-.5.6-.76-.66.54-.64.77-.66.73-.44zm4.08-.65h-1.48l-.88.07-.28.07-.24-.98.36-.08 1-.08h1.5zm48.37 0h-1.5v-1h1.5zm-3.5 0h-3v-1h3zm-4.98 0h-3v-1h3zm-5 0h-2.98v-1h3zm-4.97 0h-3v-1h3zm-5 0h-2.98v-1h3zm-4.97 0h-3v-1h3zm-5 0h-2.98v-1h3zm-4.98 0h-3v-1h3zm-4.98 0h-3v-1h3z" stroke="#3a414a" stroke-width=".05" fill="#3a414a"/><path d="M1028.86 410l-14.26 4.64v-9.28z" fill="#3a414a"/><path d="M1030.48 410l-16.38 5.32v-10.64zm-15.38 3.95l12.14-3.95-12.14-3.95z" stroke="#3a414a" stroke-width=".05" fill="#3a414a"/><path d="M886.5 520.5h-.53l.02-.5v-.4l-.02-.1h.52z" fill="#3a414a"/><path d="M886.53 520.52h-.58l.02-.5v-.54h.56zm-.52-1v.1l.02.4-.02.46h.48v-.96z" stroke="#3a414a" stroke-width=".05" fill="#3a414a"/><g><use xlink:href="#j" transform="matrix(1,0,0,1,916.8276114563,454.3333333333333) translate(0.005000000000002558 14.222222222222223)"/></g><path d="M1190.98 630c0 38.66-35.82 70-80 70s-80-31.34-80-70 35.82-70 80-70 80 31.34 80 70z" stroke="#3a414a" fill="#fff"/><g><use xlink:href="#d" transform="matrix(1,0,0,1,1030.9800251471206,560) translate(41.08 40.65)"/><use xlink:href="#k" transform="matrix(1,0,0,1,1030.9800251471206,560) translate(14.154999999999996 62.25)"/><use xlink:href="#l" transform="matrix(1,0,0,1,1030.9800251471206,560) translate(51.05499999999999 62.25)"/><use xlink:href="#m" transform="matrix(1,0,0,1,1030.9800251471206,560) translate(93.955 62.25)"/><use xlink:href="#n" transform="matrix(1,0,0,1,1030.9800251471206,560) translate(25.604999999999997 83.85000000000001)"/><use xlink:href="#o" transform="matrix(1,0,0,1,1030.9800251471206,560) translate(59.605 83.85000000000001)"/><use xlink:href="#p" transform="matrix(1,0,0,1,1030.9800251471206,560) translate(78.55499999999999 83.85000000000001)"/><use xlink:href="#q" transform="matrix(1,0,0,1,1030.9800251471206,560) translate(52.03 105.45000000000002)"/></g><path d="M1014.1 629.5v1h-1.53v-1zm-3.56 0v1h-3.05v-1zm-5.08 0v1l-3.05-.02v-1zm-5.08-.02v1h-3.05v-1zm-5.08 0v1h-3.05v-1zm-5.08 0v1l-3.05-.02v-1zm-5.08-.02v1h-3.05v-1zm-5.08 0v1H977v-1zm-5.08-.02v1h-3.05v-1zm-5.08 0v1h-3.05v-1zm-7.36-.2l.82.2h1.46v1h-1.58l-1-.26-.35-.14.37-.92zm-2.75-2l.55.65.58.48-.65.76-.64-.54-.66-.78-.44-.7.85-.54zm-1.06-3.26l.06.88.07.28-.97.24-.1-.36-.06-1v-1.5h1zm0-3.44h-1v-2.97h1zm0-4.95h-1v-2.98h1zm0-4.96h-1l-.02-2.96h1zm-.02-4.94h-1v-2.97h1zm0-4.95h-1v-2.97h1zm0-4.95h-1v-2.97h1zm0-4.94h-1v-2.97h1zm0-4.95h-1v-.23h1zm-.03-21.57h-1v-1.18h1zm0-3.16h-1v-2.96h1zm-.02-4.94h-1v-2.97h1zm0-4.95h-1v-2.97h1zm0-4.95h-1v-2.96h1zm0-4.94h-1v-2.98h1zm0-4.96h-1v-2.97h1zm0-4.95h-1l-.02-2.98h1zm-.26-7.5l.24 1v1.55h-1v-1.43l-.2-.82-.1-.27.92-.38zm-2.36-3.26l.77.66.55.64-.76.65-.5-.6-.65-.55-.65-.4.52-.85zm-2.8-1.16l.35.08-.22.98-.28-.07-.88-.07h-1.5v-1h1.53zm-65.25.92h-1.5v-1h1.5zm5.06 0h-3.03v-1h3.03zm5.06 0h-3.03v-1h3.02zm5.06 0h-3.04v-1h3.04zm5.06 0h-3.04v-1h3.04zm5.05 0h-3.04v-1h3.03zm5.05 0h-3.03v-1h3.03zm5.06 0h-3.03v-1h3.04zm5.07 0h-3.04v-1h3.04zm5.05 0h-3.03v-1h3.02zm5.06 0h-3.03v-1h3.03zm5.06 0h-3.04v-1h3.04zm5.05 0h-3.04v-1h3.03z" stroke="#3a414a" stroke-width=".05" fill="#3a414a"/><path d="M886.5 520.5h-.53l.02-.5v-.4l-.02-.1h.52z" fill="#3a414a"/><path d="M886.53 520.52h-.58l.02-.5v-.54h.56zm-.52-1v.1l.02.4-.02.46h.48v-.96z" stroke="#3a414a" stroke-width=".05" fill="#3a414a"/><path d="M1028.86 630l-14.26 4.64v-9.28z" fill="#3a414a"/><path d="M1030.48 630l-16.38 5.32v-10.64zm-15.38 3.95l12.14-3.95-12.14-3.95z" stroke="#3a414a" stroke-width=".05" fill="#3a414a"/><g><use xlink:href="#j" transform="matrix(1,0,0,1,916.8276114563,564.3333333333334) translate(0.005000000000002558 14.222222222222223)"/></g><defs><path fill="#3a414a" d="M232-93c-1 65-40 97-104 97C67 4 28-28 28-90v-158h33c8 89-33 224 67 224 102 0 64-133 71-224h33v155" id="r"/><path fill="#3a414a" d="M59-47c-2 24 18 29 38 22v24C64 9 27 4 27-40v-127H5v-23h24l9-43h21v43h35v23H59v120" id="s"/><path fill="#3a414a" d="M100-194c63 0 86 42 84 106H49c0 40 14 67 53 68 26 1 43-12 49-29l28 8c-11 28-37 45-77 45C44 4 14-33 15-96c1-61 26-98 85-98zm52 81c6-60-76-77-97-28-3 7-6 17-6 28h103" id="t"/><path fill="#3a414a" d="M117-194c89-4 53 116 60 194h-32v-121c0-31-8-49-39-48C34-167 62-67 57 0H25l-1-190h30c1 10-1 24 2 32 11-22 29-35 61-36" id="u"/><g id="a"><use transform="matrix(0.06172839506172839,0,0,0.06172839506172839,0,0)" xlink:href="#r"/><use transform="matrix(0.06172839506172839,0,0,0.06172839506172839,15.987654320987653,0)" xlink:href="#s"/><use transform="matrix(0.06172839506172839,0,0,0.06172839506172839,22.160493827160494,0)" xlink:href="#t"/><use transform="matrix(0.06172839506172839,0,0,0.06172839506172839,34.50617283950617,0)" xlink:href="#u"/><use transform="matrix(0.06172839506172839,0,0,0.06172839506172839,46.85185185185185,0)" xlink:href="#s"/><use transform="matrix(0.06172839506172839,0,0,0.06172839506172839,53.02469135802469,0)" xlink:href="#t"/></g><path fill="#3a414a" d="M100-194c62-1 85 37 85 99 1 63-27 99-86 99S16-35 15-95c0-66 28-99 85-99zM99-20c44 1 53-31 53-75 0-43-8-75-51-75s-53 32-53 75 10 74 51 75" id="v"/><g id="b"><use transform="matrix(0.06172839506172839,0,0,0.06172839506172839,0,0)" xlink:href="#u"/><use transform="matrix(0.06172839506172839,0,0,0.06172839506172839,12.345679012345679,0)" xlink:href="#v"/><use transform="matrix(0.06172839506172839,0,0,0.06172839506172839,24.691358024691358,0)" xlink:href="#u"/></g><path fill="#3a414a" d="M141-36C126-15 110 5 73 4 37 3 15-17 15-53c-1-64 63-63 125-63 3-35-9-54-41-54-24 1-41 7-42 31l-33-3c5-37 33-52 76-52 45 0 72 20 72 64v82c-1 20 7 32 28 27v20c-31 9-61-2-59-35zM48-53c0 20 12 33 32 33 41-3 63-29 60-74-43 2-92-5-92 41" id="w"/><path fill="#3a414a" d="M84 4C-5 8 30-112 23-190h32v120c0 31 7 50 39 49 72-2 45-101 50-169h31l1 190h-30c-1-10 1-25-2-33-11 22-28 36-60 37" id="x"/><path fill="#3a414a" d="M24-231v-30h32v30H24zM24 0v-190h32V0H24" id="y"/><path fill="#3a414a" d="M96-169c-40 0-48 33-48 73s9 75 48 75c24 0 41-14 43-38l32 2c-6 37-31 61-74 61-59 0-76-41-82-99-10-93 101-131 147-64 4 7 5 14 7 22l-32 3c-4-21-16-35-41-35" id="z"/><g id="c"><use transform="matrix(0.06172839506172839,0,0,0.06172839506172839,0,0)" xlink:href="#w"/><use transform="matrix(0.06172839506172839,0,0,0.06172839506172839,12.345679012345679,0)" xlink:href="#x"/><use transform="matrix(0.06172839506172839,0,0,0.06172839506172839,24.691358024691358,0)" xlink:href="#s"/><use transform="matrix(0.06172839506172839,0,0,0.06172839506172839,30.864197530864196,0)" xlink:href="#t"/><use transform="matrix(0.06172839506172839,0,0,0.06172839506172839,43.20987654320987,0)" xlink:href="#u"/><use transform="matrix(0.06172839506172839,0,0,0.06172839506172839,55.55555555555555,0)" xlink:href="#s"/><use transform="matrix(0.06172839506172839,0,0,0.06172839506172839,61.72839506172839,0)" xlink:href="#y"/><use transform="matrix(0.06172839506172839,0,0,0.06172839506172839,66.60493827160494,0)" xlink:href="#z"/><use transform="matrix(0.06172839506172839,0,0,0.06172839506172839,77.71604938271605,0)" xlink:href="#w"/><use transform="matrix(0.06172839506172839,0,0,0.06172839506172839,90.06172839506173,0)" xlink:href="#s"/><use transform="matrix(0.06172839506172839,0,0,0.06172839506172839,96.23456790123457,0)" xlink:href="#v"/></g><path d="M108 0H70L1-190h34L89-25l56-165h34" id="A"/><path d="M24-231v-30h32v30H24zM24 0v-190h32V0H24" id="B"/><path d="M135-143c-3-34-86-38-87 0 15 53 115 12 119 90S17 21 10-45l28-5c4 36 97 45 98 0-10-56-113-15-118-90-4-57 82-63 122-42 12 7 21 19 24 35" id="C"/><path d="M84 4C-5 8 30-112 23-190h32v120c0 31 7 50 39 49 72-2 45-101 50-169h31l1 190h-30c-1-10 1-25-2-33-11 22-28 36-60 37" id="D"/><path d="M141-36C126-15 110 5 73 4 37 3 15-17 15-53c-1-64 63-63 125-63 3-35-9-54-41-54-24 1-41 7-42 31l-33-3c5-37 33-52 76-52 45 0 72 20 72 64v82c-1 20 7 32 28 27v20c-31 9-61-2-59-35zM48-53c0 20 12 33 32 33 41-3 63-29 60-74-43 2-92-5-92 41" id="E"/><path d="M24 0v-261h32V0H24" id="F"/><path d="M9 0v-24l116-142H16v-24h144v24L44-24h123V0H9" id="G"/><g id="d"><use transform="matrix(0.05,0,0,0.05,0,0)" xlink:href="#A"/><use transform="matrix(0.05,0,0,0.05,9,0)" xlink:href="#B"/><use transform="matrix(0.05,0,0,0.05,12.949999999999998,0)" xlink:href="#C"/><use transform="matrix(0.05,0,0,0.05,21.95,0)" xlink:href="#D"/><use transform="matrix(0.05,0,0,0.05,31.950000000000003,0)" xlink:href="#E"/><use transform="matrix(0.05,0,0,0.05,41.95,0)" xlink:href="#F"/><use transform="matrix(0.05,0,0,0.05,45.900000000000006,0)" xlink:href="#B"/><use transform="matrix(0.05,0,0,0.05,49.85000000000001,0)" xlink:href="#G"/><use transform="matrix(0.05,0,0,0.05,58.85,0)" xlink:href="#G"/><use transform="matrix(0.05,0,0,0.05,67.85000000000001,0)" xlink:href="#E"/></g><path d="M117-194c89-4 53 116 60 194h-32v-121c0-31-8-49-39-48C34-167 62-67 57 0H25l-1-190h30c1 10-1 24 2 32 11-22 29-35 61-36" id="H"/><path d="M101-234c-31-9-42 10-38 44h38v23H63V0H32v-167H5v-23h27c-7-52 17-82 69-68v24" id="I"/><path d="M100-194c62-1 85 37 85 99 1 63-27 99-86 99S16-35 15-95c0-66 28-99 85-99zM99-20c44 1 53-31 53-75 0-43-8-75-51-75s-53 32-53 75 10 74 51 75" id="J"/><path d="M114-163C36-179 61-72 57 0H25l-1-190h30c1 12-1 29 2 39 6-27 23-49 58-41v29" id="K"/><path d="M210-169c-67 3-38 105-44 169h-31v-121c0-29-5-50-35-48C34-165 62-65 56 0H25l-1-190h30c1 10-1 24 2 32 10-44 99-50 107 0 11-21 27-35 58-36 85-2 47 119 55 194h-31v-121c0-29-5-49-35-48" id="L"/><g id="e"><use transform="matrix(0.05,0,0,0.05,0,0)" xlink:href="#B"/><use transform="matrix(0.05,0,0,0.05,3.95,0)" xlink:href="#H"/><use transform="matrix(0.05,0,0,0.05,13.949999999999998,0)" xlink:href="#I"/><use transform="matrix(0.05,0,0,0.05,18.95,0)" xlink:href="#J"/><use transform="matrix(0.05,0,0,0.05,28.950000000000003,0)" xlink:href="#K"/><use transform="matrix(0.05,0,0,0.05,34.9,0)" xlink:href="#L"/><use transform="matrix(0.05,0,0,0.05,49.85,0)" xlink:href="#E"/><use transform="matrix(0.05,0,0,0.05,59.85,0)" xlink:href="#G"/><use transform="matrix(0.05,0,0,0.05,68.85,0)" xlink:href="#B"/><use transform="matrix(0.05,0,0,0.05,72.8,0)" xlink:href="#J"/><use transform="matrix(0.05,0,0,0.05,82.8,0)" xlink:href="#H"/><use transform="matrix(0.05,0,0,0.05,92.8,0)" xlink:href="#B"/></g><path d="M47-170H22l-4-78h33" id="M"/><g id="f"><use transform="matrix(0.05,0,0,0.05,0,0)" xlink:href="#C"/><use transform="matrix(0.05,0,0,0.05,9,0)" xlink:href="#D"/><use transform="matrix(0.05,0,0,0.05,19,0)" xlink:href="#F"/><use transform="matrix(0.05,0,0,0.05,22.95,0)" xlink:href="#F"/><use transform="matrix(0.05,0,0,0.05,26.899999999999995,0)" xlink:href="#M"/><use transform="matrix(0.05,0,0,0.05,30.299999999999997,0)" xlink:href="#D"/><use transform="matrix(0.05,0,0,0.05,40.3,0)" xlink:href="#C"/><use transform="matrix(0.05,0,0,0.05,49.3,0)" xlink:href="#J"/></g><path d="M85-194c31 0 48 13 60 33l-1-100h32l1 261h-30c-2-10 0-23-3-31C134-8 116 4 85 4 32 4 16-35 15-94c0-66 23-100 70-100zm9 24c-40 0-46 34-46 75 0 40 6 74 45 74 42 0 51-32 51-76 0-42-9-74-50-73" id="N"/><path d="M100-194c63 0 86 42 84 106H49c0 40 14 67 53 68 26 1 43-12 49-29l28 8c-11 28-37 45-77 45C44 4 14-33 15-96c1-61 26-98 85-98zm52 81c6-60-76-77-97-28-3 7-6 17-6 28h103" id="O"/><g id="g"><use transform="matrix(0.05,0,0,0.05,0,0)" xlink:href="#N"/><use transform="matrix(0.05,0,0,0.05,10,0)" xlink:href="#O"/><use transform="matrix(0.05,0,0,0.05,20,0)" xlink:href="#F"/></g><path d="M59-47c-2 24 18 29 38 22v24C64 9 27 4 27-40v-127H5v-23h24l9-43h21v43h35v23H59v120" id="P"/><path d="M115-194c55 1 70 41 70 98S169 2 115 4C84 4 66-9 55-30l1 105H24l-1-265h31l2 30c10-21 28-34 59-34zm-8 174c40 0 45-34 45-75s-6-73-45-74c-42 0-51 32-51 76 0 43 10 73 51 73" id="Q"/><g id="h"><use transform="matrix(0.05,0,0,0.05,0,0)" xlink:href="#P"/><use transform="matrix(0.05,0,0,0.05,5,0)" xlink:href="#O"/><use transform="matrix(0.05,0,0,0.05,15,0)" xlink:href="#L"/><use transform="matrix(0.05,0,0,0.05,29.950000000000003,0)" xlink:href="#Q"/><use transform="matrix(0.05,0,0,0.05,39.95,0)" xlink:href="#J"/></g><path d="M177-190C167-65 218 103 67 71c-23-6-38-20-44-43l32-5c15 47 100 32 89-28v-30C133-14 115 1 83 1 29 1 15-40 15-95c0-56 16-97 71-98 29-1 48 16 59 35 1-10 0-23 2-32h30zM94-22c36 0 50-32 50-73 0-42-14-75-50-75-39 0-46 34-46 75s6 73 46 73" id="R"/><path d="M96-169c-40 0-48 33-48 73s9 75 48 75c24 0 41-14 43-38l32 2c-6 37-31 61-74 61-59 0-76-41-82-99-10-93 101-131 147-64 4 7 5 14 7 22l-32 3c-4-21-16-35-41-35" id="S"/><path d="M106-169C34-169 62-67 57 0H25v-261h32l-1 103c12-21 28-36 61-36 89 0 53 116 60 194h-32v-121c2-32-8-49-39-48" id="T"/><g id="i"><use transform="matrix(0.05,0,0,0.05,0,0)" xlink:href="#B"/><use transform="matrix(0.05,0,0,0.05,3.95,0)" xlink:href="#H"/><use transform="matrix(0.05,0,0,0.05,13.949999999999998,0)" xlink:href="#I"/><use transform="matrix(0.05,0,0,0.05,18.95,0)" xlink:href="#J"/><use transform="matrix(0.05,0,0,0.05,28.950000000000003,0)" xlink:href="#R"/><use transform="matrix(0.05,0,0,0.05,38.95,0)" xlink:href="#K"/><use transform="matrix(0.05,0,0,0.05,44.900000000000006,0)" xlink:href="#E"/><use transform="matrix(0.05,0,0,0.05,54.900000000000006,0)" xlink:href="#I"/><use transform="matrix(0.05,0,0,0.05,59.900000000000006,0)" xlink:href="#B"/><use transform="matrix(0.05,0,0,0.05,63.85,0)" xlink:href="#S"/><use transform="matrix(0.05,0,0,0.05,72.85000000000001,0)" xlink:href="#T"/><use transform="matrix(0.05,0,0,0.05,82.85000000000001,0)" xlink:href="#O"/></g><path fill="#333" d="M15-91v-56l181-69v40L49-119l147 57v40" id="U"/><path fill="#333" d="M25-224v-37h50v37H25zM25 0v-190h50V0H25" id="V"/><path fill="#333" d="M135-194c87-1 58 113 63 194h-50c-7-57 23-157-34-157-59 0-34 97-39 157H25l-1-190h47c2 12-1 28 3 38 12-26 28-41 61-42" id="W"/><path fill="#333" d="M190-63c-7 42-38 67-86 67-59 0-84-38-90-98-12-110 154-137 174-36l-49 2c-2-19-15-32-35-32-30 0-35 28-38 64-6 74 65 87 74 30" id="X"/><path fill="#333" d="M25 0v-261h50V0H25" id="Y"/><path fill="#333" d="M85 4C-2 5 27-109 22-190h50c7 57-23 150 33 157 60-5 35-97 40-157h50l1 190h-47c-2-12 1-28-3-38-12 25-28 42-61 42" id="Z"/><path fill="#333" d="M88-194c31-1 46 15 58 34l-1-101h50l1 261h-48c-2-10 0-23-3-31C134-8 116 4 84 4 32 4 16-41 15-95c0-56 19-97 73-99zm17 164c33 0 40-30 41-66 1-37-9-64-41-64s-38 30-39 65c0 43 13 65 39 65" id="aa"/><path fill="#333" d="M185-48c-13 30-37 53-82 52C43 2 14-33 14-96s30-98 90-98c62 0 83 45 84 108H66c0 31 8 55 39 56 18 0 30-7 34-22zm-45-69c5-46-57-63-70-21-2 6-4 13-4 21h74" id="ab"/><path fill="#333" d="M15-22v-40l146-57-146-57v-40l181 69v56" id="ac"/><g id="j"><use transform="matrix(0.04938271604938272,0,0,0.04938271604938272,0,0)" xlink:href="#U"/><use transform="matrix(0.04938271604938272,0,0,0.04938271604938272,10.370370370370372,0)" xlink:href="#V"/><use transform="matrix(0.04938271604938272,0,0,0.04938271604938272,15.308641975308642,0)" xlink:href="#W"/><use transform="matrix(0.04938271604938272,0,0,0.04938271604938272,26.12345679012346,0)" xlink:href="#X"/><use transform="matrix(0.04938271604938272,0,0,0.04938271604938272,36,0)" xlink:href="#Y"/><use transform="matrix(0.04938271604938272,0,0,0.04938271604938272,40.93827160493827,0)" xlink:href="#Z"/><use transform="matrix(0.04938271604938272,0,0,0.04938271604938272,51.75308641975309,0)" xlink:href="#aa"/><use transform="matrix(0.04938271604938272,0,0,0.04938271604938272,62.567901234567906,0)" xlink:href="#ab"/><use transform="matrix(0.04938271604938272,0,0,0.04938271604938272,72.44444444444446,0)" xlink:href="#ac"/></g><g id="k"><use transform="matrix(0.05,0,0,0.05,0,0)" xlink:href="#F"/><use transform="matrix(0.05,0,0,0.05,3.95,0)" xlink:href="#B"/><use transform="matrix(0.05,0,0,0.05,7.9,0)" xlink:href="#C"/><use transform="matrix(0.05,0,0,0.05,16.9,0)" xlink:href="#P"/><use transform="matrix(0.05,0,0,0.05,21.9,0)" xlink:href="#E"/></g><g id="l"><use transform="matrix(0.05,0,0,0.05,0,0)" xlink:href="#N"/><use transform="matrix(0.05,0,0,0.05,10,0)" xlink:href="#O"/><use transform="matrix(0.05,0,0,0.05,20,0)" xlink:href="#F"/><use transform="matrix(0.05,0,0,0.05,23.95,0)" xlink:href="#F"/><use transform="matrix(0.05,0,0,0.05,27.899999999999995,0)" xlink:href="#O"/></g><path d="M141-36C126-15 110 5 73 4 37 3 15-17 15-53c-1-64 63-63 125-63 3-35-9-54-41-54-24 1-41 7-42 31l-33-3c5-37 33-52 76-52 45 0 72 20 72 64v82c-1 20 7 32 28 27v20c-31 9-61-2-59-35zM48-53c0 20 12 33 32 33 41-3 63-29 60-74-43 2-92-5-92 41zm62-158l-58-49v-5h36c12 19 30 32 38 54h-16" id="ad"/><g id="m"><use transform="matrix(0.05,0,0,0.05,0,0)" xlink:href="#E"/><use transform="matrix(0.05,0,0,0.05,10,0)" xlink:href="#P"/><use transform="matrix(0.05,0,0,0.05,15,0)" xlink:href="#P"/><use transform="matrix(0.05,0,0,0.05,20,0)" xlink:href="#B"/><use transform="matrix(0.05,0,0,0.05,23.95,0)" xlink:href="#A"/><use transform="matrix(0.05,0,0,0.05,32.95,0)" xlink:href="#B"/><use transform="matrix(0.05,0,0,0.05,36.900000000000006,0)" xlink:href="#P"/><use transform="matrix(0.05,0,0,0.05,41.900000000000006,0)" xlink:href="#ad"/></g><g id="n"><use transform="matrix(0.05,0,0,0.05,0,0)" xlink:href="#S"/><use transform="matrix(0.05,0,0,0.05,9,0)" xlink:href="#J"/><use transform="matrix(0.05,0,0,0.05,19,0)" xlink:href="#H"/></g><g id="o"><use transform="matrix(0.05,0,0,0.05,0,0)" xlink:href="#F"/><use transform="matrix(0.05,0,0,0.05,3.95,0)" xlink:href="#E"/></g><g id="p"><use transform="matrix(0.05,0,0,0.05,0,0)" xlink:href="#Q"/><use transform="matrix(0.05,0,0,0.05,10,0)" xlink:href="#K"/><use transform="matrix(0.05,0,0,0.05,15.949999999999998,0)" xlink:href="#J"/><use transform="matrix(0.05,0,0,0.05,25.950000000000003,0)" xlink:href="#Q"/><use transform="matrix(0.05,0,0,0.05,35.95,0)" xlink:href="#K"/><use transform="matrix(0.05,0,0,0.05,41.900000000000006,0)" xlink:href="#B"/><use transform="matrix(0.05,0,0,0.05,45.85000000000001,0)" xlink:href="#E"/></g><path d="M33 0v-38h34V0H33" id="ae"/><g id="q"><use transform="matrix(0.05,0,0,0.05,0,0)" xlink:href="#N"/><use transform="matrix(0.05,0,0,0.05,10,0)" xlink:href="#D"/><use transform="matrix(0.05,0,0,0.05,20,0)" xlink:href="#K"/><use transform="matrix(0.05,0,0,0.05,25.950000000000003,0)" xlink:href="#E"/><use transform="matrix(0.05,0,0,0.05,35.95,0)" xlink:href="#P"/><use transform="matrix(0.05,0,0,0.05,40.95,0)" xlink:href="#E"/><use transform="matrix(0.05,0,0,0.05,50.95,0)" xlink:href="#ae"/></g></defs></g></svg>