<svg xmlns="http://www.w3.org/2000/svg" xmlns:xlink="http://www.w3.org/1999/xlink" xmlns:lucid="lucid" width="2187" height="1671"><g transform="translate(1807 1259)" lucid:page-tab-id="iKM6HDaz2bJS"><path d="M-1806.87-1258.83h3677.74v2581.66h-3677.74z" fill="#fff"/><path d="M-1620 200h-34a6 6 0 0 1-6-6v-1388a6 6 0 0 1 6-6h34zM-1620-1200v-34a6 6 0 0 1 6-6h1234v40zM-380-1240h714a6 6 0 0 1 6 6v34h-720z" stroke="#3a414a" fill="#fff"/><path d="M-1620-1200h1240V200h-1240zM340-1200V194a6 6 0 0 1-6 6h-714v-1400z" stroke="#3a414a" fill="none"/><use xlink:href="#a" transform="matrix(1,0,0,1,-1620,-1240) translate(587.3148148148148 24.444444444444443)"/><use xlink:href="#b" transform="matrix(1,0,0,1,-380,-1240) translate(330.98765432098764 24.444444444444443)"/><path d="M-1273.72-1135.52h-445.58v-1h445.58z" stroke="#3a414a" stroke-width=".05" fill="#3a414a"/><path fill="#3a414a"/><path stroke="#3a414a" stroke-width=".05" fill="#3a414a"/><path d="M-1258.96-1136.02l-14.26 4.63v-9.26z" fill="#3a414a"/><path d="M-1257.34-1136.02l-16.38 5.32v-10.65zm-15.38 3.94l12.14-3.94-12.14-3.95z" stroke="#3a414a" stroke-width=".05" fill="#3a414a"/><use xlink:href="#c" transform="matrix(1,0,0,1,-1759.697219010286,-1146.6893939393728) translate(0 14.222222222222223)"/><path d="M-1176.8-610.18v61.43" stroke="#3a414a" fill="none"/><path d="M-1176.3-610.17h-1v-.5h1z" stroke="#3a414a" stroke-width=".05" fill="#3a414a"/><path d="M-1176.8-534l-4.63-14.25h9.27z" stroke="#3a414a" fill="#3a414a"/><path d="M-1336.3-370.63h-1l.03-44.17h1zm93.38-129.12h-87.86l-.88.07-.84.2-.8.33-.73.46-.66.57-.55.65-.45.74-.33.8-.2.8-.02 37.67h-1l.03-37.77.24-1.02.4-.94.52-.87.66-.77.78-.67.87-.54.94-.4.98-.23 1-.08h87.9z" stroke="#3a414a" stroke-width=".05" fill="#3a414a"/><path d="M-1242.42-500.25l.06.5h-.57v-1h.57z" fill="#3a414a"/><path d="M-1242.4-500.25l.07.53h-.63v-1.05h.63zm-.5-.47v.95h.5l-.04-.48.05-.47z" stroke="#3a414a" stroke-width=".05" fill="#3a414a"/><path d="M-1336.8-355.87l-4.63-14.26h9.27z" fill="#3a414a"/><path d="M-1336.8-354.25l-5.32-16.38h10.65zm-3.95-15.38l3.95 12.14 3.95-12.13z" stroke="#3a414a" stroke-width=".05" fill="#3a414a"/><use xlink:href="#d" transform="matrix(1,0,0,1,-1436.354003377543,-457.4715484916834) translate(0.0049999999999954525 14.222222222222223)"/><use xlink:href="#e" transform="matrix(1,0,0,1,-1436.354003377543,-457.4715484916834) translate(121.23956790123455 14.222222222222223)"/><use xlink:href="#f" transform="matrix(1,0,0,1,-1436.354003377543,-457.4715484916834) translate(50.74574074074072 35.55555555555556)"/><path d="M-1336.8-264.8v54.17" stroke="#3a414a" fill="none"/><path d="M-1336.3-264.78h-1v-.52h1z" stroke="#3a414a" stroke-width=".05" fill="#3a414a"/><path d="M-1336.8-195.87l-4.63-14.26h9.27z" stroke="#3a414a" fill="#3a414a"/><path d="M-974.27-500.6h-115.4l-.02.1-.08.27-.26.3-.28.14-.25.05h-20.1v-1h20v-.1l.1-.25.16-.24.23-.17.27-.1h115.63zm805.86 0h-606.76v-1h606.75z" stroke="#3a414a" stroke-width=".05" fill="#3a414a"/><path d="M-1110.67-499.75h-.57l.06-.5-.06-.5h.57z" fill="#3a414a"/><path d="M-1110.64-499.72h-.62l.06-.53-.06-.52h.62zm-.57-1l.05.47-.06.48h.5v-.95z" stroke="#3a414a" stroke-width=".05" fill="#3a414a"/><path d="M-153.65-501.1l-14.26 4.63v-9.27z" fill="#3a414a"/><path d="M-152.03-501.1l-16.38 5.32v-10.65zm-15.38 3.94l12.13-3.95-12.14-3.96z" stroke="#3a414a" stroke-width=".05" fill="#3a414a"/><use xlink:href="#d" transform="matrix(1,0,0,1,-974.2707818156072,-522.4412879036581) translate(0.0049999999999954525 14.222222222222223)"/><use xlink:href="#g" transform="matrix(1,0,0,1,-974.2707818156072,-522.4412879036581) translate(121.23956790123455 14.222222222222223)"/><use xlink:href="#h" transform="matrix(1,0,0,1,-974.2707818156072,-522.4412879036581) translate(29.066728395061688 35.55555555555556)"/><use xlink:href="#i" transform="matrix(1,0,0,1,-974.2707818156072,-522.4412879036581) translate(100.12845679012344 35.55555555555556)"/><path d="M-859.9-1067.2l-54.04.02-.88.07-.84.2-.8.32-.73.45-.65.56-.56.65-.46.74-.33.8-.18.82-.08 14.7h-1l.08-14.82.24-1 .4-.96.52-.87.66-.78.78-.66.87-.54.93-.4 1-.23 1-.08 54.06-.02zm219.3-6.46l-.08 1-.24 1-.4.93-.52.87-.67.77-.78.68-.87.53-.95.4-1 .24-55.05.02v-1l54.92-.02.82-.2.8-.32.73-.46.65-.56.56-.65.45-.74.32-.78.2-.84.08-.88v-29.7h1z" stroke="#3a414a" stroke-width=".05" fill="#3a414a"/><path d="M-641.1-1103.9l.5-.02v.53h-1v-.52z" fill="#3a414a"/><path d="M-641.1-1103.93l.52-.02v.6h-1.05v-.6zm-.48.52h.95v-.5l-.47.02-.48-.02z" stroke="#3a414a" stroke-width=".05" fill="#3a414a"/><path d="M-919.96-1033.08l-4.63-14.27h9.28z" fill="#3a414a"/><path d="M-919.96-1031.47l-5.32-16.38h10.65zm-3.95-15.38l3.94 12.15 3.95-12.15z" stroke="#3a414a" stroke-width=".05" fill="#3a414a"/><use xlink:href="#j" transform="matrix(1,0,0,1,-859.9140110197037,-1089.0170259487934) translate(0.0049999999999954525 14.222222222222223)"/><use xlink:href="#g" transform="matrix(1,0,0,1,-859.9140110197037,-1089.0170259487934) translate(80.89388888888888 14.222222222222223)"/><use xlink:href="#f" transform="matrix(1,0,0,1,-859.9140110197037,-1089.0170259487934) translate(30.572901234567887 35.55555555555556)"/><path d="M34.06-1069.72l1 .08 1 .24.93.4.86.52.78.66.66.78.53.87.4.94.24 1 .07 13.3h-1l-.07-13.17-.2-.82-.33-.8-.45-.73-.57-.66-.66-.57-.73-.45-.8-.33-.84-.2-.88-.07-182.2-.02v-1zm-674.66-5.52l.06.88.2.84.34.8.45.73.56.67.66.56.74.45.8.33.82.2 183.1.03v1l-183.22-.02-1-.23-.96-.4-.87-.53-.77-.66-.66-.78-.54-.87-.4-.94-.23-1-.07-1v-28.2h1z" stroke="#3a414a" stroke-width=".05" fill="#3a414a"/><path d="M-641.1-1103.9l.5-.02v.53h-1v-.52z" fill="#3a414a"/><path d="M-641.1-1103.93l.52-.02v.6h-1.05v-.6zm-.48.52h.95v-.5l-.47.02-.48-.02z" stroke="#3a414a" stroke-width=".05" fill="#3a414a"/><path d="M40.04-1036.15l-4.63-14.27h9.28z" fill="#3a414a"/><path d="M40.04-1034.53l-5.32-16.4h10.65zm-3.95-15.4l3.94 12.16 3.95-12.15z" stroke="#3a414a" stroke-width=".05" fill="#3a414a"/><use xlink:href="#j" transform="matrix(1,0,0,1,-452.87697398267903,-1079.884450191197) translate(0 14.222222222222223)"/><use xlink:href="#k" transform="matrix(1,0,0,1,-452.87697398267903,-1079.884450191197) translate(80.88888888888889 14.222222222222223)"/><use xlink:href="#l" transform="matrix(1,0,0,1,-452.87697398267903,-1079.884450191197) translate(163.7037037037037 14.222222222222223)"/><use xlink:href="#m" transform="matrix(1,0,0,1,-452.87697398267903,-1079.884450191197) translate(234.76543209876544 14.222222222222223)"/><path d="M-1176.3-716.02h-1v-168.9h1zm0-190.24h-1v-184.8h1z" stroke="#3a414a" stroke-width=".05" fill="#3a414a"/><path d="M-1176.3-1091.03h-1v-.52h1z" fill="#3a414a"/><path d="M-1176.27-1091h-1.05v-.57h1.05zm-1-.52v.46h.95v-.46z" stroke="#3a414a" stroke-width=".05" fill="#3a414a"/><path d="M-1176.8-701.26l-4.63-14.26h9.27z" fill="#3a414a"/><path d="M-1176.8-699.64l-5.32-16.38h10.65zm-3.95-15.38l3.95 12.15 3.95-12.15z" stroke="#3a414a" stroke-width=".05" fill="#3a414a"/><use xlink:href="#n" transform="matrix(1,0,0,1,-1295.0453614457172,-906.2585424598177) translate(0 14.222222222222223)"/><use xlink:href="#o" transform="matrix(1,0,0,1,-1295.0453614457172,-906.2585424598177) translate(73.08641975308643 14.222222222222223)"/><use xlink:href="#p" transform="matrix(1,0,0,1,-1295.0453614457172,-906.2585424598177) translate(110.46913580246914 14.222222222222223)"/><use xlink:href="#q" transform="matrix(1,0,0,1,-1295.0453614457172,-906.2585424598177) translate(136.0987654320988 14.222222222222223)"/><use xlink:href="#r" transform="matrix(1,0,0,1,-1295.0453614457172,-906.2585424598177) translate(162.66666666666669 14.222222222222223)"/><path d="M-1043.56-1135.52h-52.2v-1h52.2zm320.45 0h-121.34v-1h121.33z" stroke="#3a414a" stroke-width=".05" fill="#3a414a"/><path d="M-1095.74-1135.52h-.52v-1h.52z" fill="#3a414a"/><path d="M-1095.72-1135.5h-.56v-1.05h.56zm-.5-1v.95h.45v-.95z" stroke="#3a414a" stroke-width=".05" fill="#3a414a"/><path d="M-708.34-1136.02l-14.27 4.63v-9.26z" fill="#3a414a"/><path d="M-706.72-1136.02l-16.4 5.32v-10.65zm-15.4 3.94l12.16-3.94-12.15-3.95z" stroke="#3a414a" stroke-width=".05" fill="#3a414a"/><use xlink:href="#n" transform="matrix(1,0,0,1,-1043.5555555555745,-1146.6893940486254) translate(0 14.222222222222223)"/><use xlink:href="#s" transform="matrix(1,0,0,1,-1043.5555555555745,-1146.6893940486254) translate(73.08641975308643 14.222222222222223)"/><use xlink:href="#q" transform="matrix(1,0,0,1,-1043.5555555555745,-1146.6893940486254) translate(98.71604938271606 14.222222222222223)"/><use xlink:href="#r" transform="matrix(1,0,0,1,-1043.5555555555745,-1146.6893940486254) translate(125.28395061728396 14.222222222222223)"/><path d="M-59.96-440.65V334a6 6 0 0 1-6 6H-226.3" stroke="#3a414a" fill="none"/><path d="M-59.46-440.63h-1v-.52h1z" stroke="#3a414a" stroke-width=".05" fill="#3a414a"/><path d="M-241.07 340l14.27-4.64v9.28z" stroke="#3a414a" fill="#3a414a"/><path d="M-919.96-942v16a6 6 0 0 0 6 6h690.9a3.12 3.12 0 0 1 3.1 3.12" stroke="#3a414a" fill="none"/><path d="M-919.46-942h-1v-.5h1z" stroke="#3a414a" stroke-width=".05" fill="#3a414a"/><path d="M-219.96-902.12l-4.63-14.26h9.28z" stroke="#3a414a" fill="#3a414a"/><path d="M-1336.8-104.8v74.3a6 6 0 0 0 6 6h1061.62a6 6 0 0 1 6 6v58.4" stroke="#3a414a" fill="none"/><path d="M-1336.3-104.78h-1v-.52h1z" stroke="#3a414a" stroke-width=".05" fill="#3a414a"/><path d="M-263.18 54.67l-4.64-14.26h9.27z" stroke="#3a414a" fill="#3a414a"/><path d="M-263.18 145.74V303.1" stroke="#3a414a" fill="none"/><path d="M-262.68 145.76h-1v-.52h1z" stroke="#3a414a" stroke-width=".05" fill="#3a414a"/><path d="M-263.18 317.88l-4.64-14.27h9.27z" stroke="#3a414a" fill="#3a414a"/><path d="M-608.8-111.05V334a6 6 0 0 0 6 6h302.73" stroke="#3a414a" fill="none"/><path d="M-608.3-111.03h-1v-.52h1z" stroke="#3a414a" stroke-width=".05" fill="#3a414a"/><path d="M-285.3 340l-14.27 4.64v-9.28z" stroke="#3a414a" fill="#3a414a"/><path d="M40.04-893.03V-756a6 6 0 0 1-6 6h-99.06a6 6 0 0 0-6 6v39.47" stroke="#3a414a" fill="none"/><path d="M40.54-893.02h-1v-.5h1z" stroke="#3a414a" stroke-width=".05" fill="#3a414a"/><path d="M-71.02-689.76l-4.64-14.27h9.27z" stroke="#3a414a" fill="#3a414a"/><path d="M-432.62-729.53l-170.17.03-.87.07-.84.2-.8.33-.74.45-.66.56-.56.67-.45.73-.34.8-.2.82-.07 20.35h-1l.06-20.47.25-1 .4-.95.53-.87.66-.78.77-.66.87-.53.94-.38 1-.24 1-.08 170.2-.03zm213.16-11.14h-1v-39.4h1z" stroke="#3a414a" stroke-width=".05" fill="#3a414a"/><path d="M-219.46-780.07h-1v-.5h1z" fill="#3a414a"/><path d="M-219.43-780.04h-1.05v-.56h1.05zm-1-.5v.45h.95v-.45z" stroke="#3a414a" stroke-width=".05" fill="#3a414a"/><path d="M-608.8-689.76l-4.65-14.27h9.27z" fill="#3a414a"/><path d="M-608.8-688.14l-5.33-16.4h10.64zm-3.96-15.4l3.95 12.16 3.94-12.15z" stroke="#3a414a" stroke-width=".05" fill="#3a414a"/><use xlink:href="#t" transform="matrix(1,0,0,1,-432.6159614436066,-740.6666666666666) translate(0.0049999999999954525 14.222222222222223)"/><use xlink:href="#u" transform="matrix(1,0,0,1,-432.6159614436066,-740.6666666666666) translate(86.62228395061729 14.222222222222223)"/><path d="M-819.43-661.14l.2.82.33.8.45.73.56.67.67.56.73.45.8.33.84.2.88.08h139.05v1h-139.1l-1-.08-.98-.24-.95-.4-.87-.52-.78-.67-.66-.77-.53-.87-.38-.94-.25-1.02-.02-22.58h1zm-5.57-78.92l1 .24.95.4.87.52.78.66.66.78.53.87.38.95.24 1 .08 1 .03 28.7h-1l-.03-28.67-.07-.88-.2-.84-.33-.8-.45-.73-.56-.66-.67-.56-.73-.44-.8-.33-.82-.2-345.66-.07-.88.07-.84.2-.8.33-.73.45-.66.57-.55.66-.45.74-.33.8-.2.8-.07 34.4h-1l.08-34.5.24-1.02.4-.94.52-.86.66-.78.78-.66.87-.53.94-.4.98-.23 1-.08z" stroke="#3a414a" stroke-width=".05" fill="#3a414a"/><path d="M-674.43-656.02l.06.5h-.57v-1h.57z" fill="#3a414a"/><path d="M-674.4-656.02l.05.52h-.62v-1.05h.62zm-.52-.48v.95h.52l-.06-.47.06-.48z" stroke="#3a414a" stroke-width=".05" fill="#3a414a"/><path d="M-1176.3-699.64h-1v-.5h1z" fill="#3a414a"/><path d="M-1176.27-699.6h-1.05v-.58h1.05zm-1-.53v.47h.95v-.47z" stroke="#3a414a" stroke-width=".05" fill="#3a414a"/><use xlink:href="#v" transform="matrix(1,0,0,1,-904.6172839507337,-704.9357397192642) translate(0.0049999999999954525 14.222222222222223)"/><use xlink:href="#o" transform="matrix(1,0,0,1,-904.6172839507337,-704.9357397192642) translate(65.93092592592593 14.222222222222223)"/><use xlink:href="#w" transform="matrix(1,0,0,1,-904.6172839507337,-704.9357397192642) translate(103.31364197530866 14.222222222222223)"/><path d="M-608.3-216.88h-1v-120.87h1zm0-142.2h-1V-623.4h1z" stroke="#3a414a" stroke-width=".05" fill="#3a414a"/><path d="M-608.8-623.9l.5-.02v.53h-1v-.52z" fill="#3a414a"/><path d="M-608.8-623.93l.5-.02v.6h-1.04v-.6zm-.5.52h.96v-.5l-.47.02-.5-.02z" stroke="#3a414a" stroke-width=".05" fill="#3a414a"/><path d="M-608.8-202.12l-4.65-14.26h9.27z" fill="#3a414a"/><path d="M-608.8-200.5l-5.33-16.38h10.64zm-3.96-15.38l3.95 12.14 3.94-12.14z" stroke="#3a414a" stroke-width=".05" fill="#3a414a"/><use xlink:href="#x" transform="matrix(1,0,0,1,-697.5025773519596,-359.08659374980925) translate(0.0049999999999954525 14.222222222222223)"/><use xlink:href="#y" transform="matrix(1,0,0,1,-697.5025773519596,-359.08659374980925) translate(105.48648148148149 14.222222222222223)"/><path d="M-469.57-661.02l-.25 1-.4.95-.52.87-.66.77-.78.67-.87.53-.94.4-.98.23-1 .08h-66.7v-1h66.66l.88-.07.84-.2.8-.32.73-.45.66-.56.55-.66.45-.73.33-.8.2-.8.03-151.62h1zm-5.43-326.4l1 .25.95.4.87.52.78.66.66.8.53.86.38.94.24 1 .08 1-.03 125.58h-1l.03-125.55-.07-.88-.2-.84-.33-.78-.45-.74-.56-.66-.67-.56-.73-.45-.8-.32-.82-.2-347.9-.07v-1z" stroke="#3a414a" stroke-width=".05" fill="#3a414a"/><path d="M-542.68-655.52h-.57l.06-.5-.05-.5h.57z" fill="#3a414a"/><path d="M-542.65-655.5h-.63l.06-.52-.06-.53h.63zm-.57-1l.05.48-.05.47h.52v-.95z" stroke="#3a414a" stroke-width=".05" fill="#3a414a"/><path d="M-823.53-982.35L-837.8-987l14.27-4.62z" fill="#3a414a"/><path d="M-823.03-981.67l-16.4-5.32 16.4-5.3zm-13.15-5.32l12.15 3.96v-7.9z" stroke="#3a414a" stroke-width=".05" fill="#3a414a"/><use xlink:href="#v" transform="matrix(1,0,0,1,-548.2962962962963,-855.4212960487815) translate(0.0049999999999954525 14.222222222222223)"/><use xlink:href="#z" transform="matrix(1,0,0,1,-548.2962962962963,-855.4212960487815) translate(65.93092592592593 14.222222222222223)"/><use xlink:href="#A" transform="matrix(1,0,0,1,-548.2962962962963,-855.4212960487815) translate(130.9185802469136 14.222222222222223)"/><use xlink:href="#B" transform="matrix(1,0,0,1,-548.2962962962963,-855.4212960487815) translate(2.3506790123456653 35.55555555555556)"/><use xlink:href="#C" transform="matrix(1,0,0,1,-548.2962962962963,-855.4212960487815) translate(99.04203703703703 35.55555555555556)"/><path d="M-1760-1136.02c0 11.04-8.95 20-20 20s-20-8.96-20-20c0-11.05 8.95-20 20-20s20 8.95 20 20z" stroke="#3a414a"/><path d="M-1239.25-1180c-9.7 0-17.6 7.88-17.6 17.6v52.76c0 9.72 7.9 17.6 17.6 17.6h124.9c9.72 0 17.6-7.88 17.6-17.6v-52.77c0-9.72-7.88-17.6-17.6-17.6z" stroke="#3a414a" fill="#fff"/><use xlink:href="#D" transform="matrix(1,0,0,1,-1248.8405113914298,-1171.9999999999786) translate(8.722222222222229 16.000000000000007)"/><use xlink:href="#E" transform="matrix(1,0,0,1,-1248.8405113914298,-1171.9999999999786) translate(25.305555555555557 40)"/><use xlink:href="#F" transform="matrix(1,0,0,1,-1248.8405113914298,-1171.9999999999786) translate(104.19444444444444 40)"/><use xlink:href="#G" transform="matrix(1,0,0,1,-1248.8405113914298,-1171.9999999999786) translate(56.97222222222223 64)"/><path d="M-1239.25-699.14c-9.7 0-17.6 7.88-17.6 17.6v52.77c0 9.7 7.9 17.6 17.6 17.6h124.9c9.72 0 17.6-7.9 17.6-17.6v-52.78c0-9.7-7.88-17.6-17.6-17.6z" stroke="#3a414a" fill="#fff"/><use xlink:href="#H" transform="matrix(1,0,0,1,-1248.8405113914298,-691.1382965863236) translate(11.500000000000007 40)"/><path d="M-1182.2-530.64a12.53 12.53 0 0 1 10.8 0l58.1 27.8a2.87 2.87 0 0 1 0 5.18l-58.1 27.8a12.53 12.53 0 0 1-10.8 0l-58.08-27.8a2.87 2.87 0 0 1 0-5.18zM-127.75-560.57c-13.13 0-23.78 10.65-23.78 23.8v71.34c0 13.13 10.65 23.78 23.78 23.78H7.83c13.13 0 23.78-10.65 23.78-23.78v-71.35c0-13.14-10.64-23.8-23.77-23.8z" stroke="#3a414a" fill="#fff"/><use xlink:href="#I" transform="matrix(1,0,0,1,-143.5291297527561,-552.5681818430533) translate(23.000000000000007 19.500000000000007)"/><use xlink:href="#J" transform="matrix(1,0,0,1,-143.5291297527561,-552.5681818430533) translate(7.9722222222222285 43.5)"/><use xlink:href="#K" transform="matrix(1,0,0,1,-143.5291297527561,-552.5681818430533) translate(95.63888888888889 43.5)"/><use xlink:href="#L" transform="matrix(1,0,0,1,-143.5291297527561,-552.5681818430533) translate(14.694444444444457 67.5)"/><use xlink:href="#M" transform="matrix(1,0,0,1,-143.5291297527561,-552.5681818430533) translate(25.805555555555564 67.5)"/><use xlink:href="#N" transform="matrix(1,0,0,1,-143.5291297527561,-552.5681818430533) translate(87.86111111111111 67.5)"/><use xlink:href="#O" transform="matrix(1,0,0,1,-143.5291297527561,-552.5681818430533) translate(108.91666666666666 67.5)"/><use xlink:href="#P" transform="matrix(1,0,0,1,-143.5291297527561,-552.5681818430533) translate(64.61111111111111 91.5)"/><path d="M-1399.25-353.75c-9.7 0-17.6 7.88-17.6 17.6v52.76c0 9.73 7.9 17.6 17.6 17.6h124.9c9.72 0 17.6-7.87 17.6-17.6v-52.76c0-9.7-7.88-17.6-17.6-17.6z" stroke="#3a414a" fill="#fff"/><g><use xlink:href="#Q" transform="matrix(1,0,0,1,-1408.8405113914296,-345.74999999997885) translate(20.361111111111114 16.000000000000007)"/><use xlink:href="#R" transform="matrix(1,0,0,1,-1408.8405113914296,-345.74999999997885) translate(40.36111111111112 40)"/><use xlink:href="#S" transform="matrix(1,0,0,1,-1408.8405113914296,-345.74999999997885) translate(93.52777777777777 40)"/><use xlink:href="#T" transform="matrix(1,0,0,1,-1408.8405113914296,-345.74999999997885) translate(29.77777777777778 64)"/></g><path d="M-1399.25-193.75c-9.7 0-17.6 7.88-17.6 17.6v52.76c0 9.73 7.9 17.6 17.6 17.6h124.9c9.72 0 17.6-7.87 17.6-17.6v-52.76c0-9.7-7.88-17.6-17.6-17.6z" stroke="#3a414a" fill="#fff"/><g><use xlink:href="#U" transform="matrix(1,0,0,1,-1408.8405113914296,-185.74999999997883) translate(28.694444444444457 28)"/><use xlink:href="#T" transform="matrix(1,0,0,1,-1408.8405113914296,-185.74999999997883) translate(29.77777777777778 52)"/></g><path d="M-646.52-1166.4a12.53 12.53 0 0 1 10.83 0l58.08 27.8a2.87 2.87 0 0 1 0 5.17l-58.07 27.8a12.53 12.53 0 0 1-10.82 0l-58.07-27.8a2.87 2.87 0 0 1 0-5.18zM-982.4-1030.97c-9.72 0-17.6 7.88-17.6 17.6v52.77c0 9.7 7.88 17.6 17.6 17.6h124.9c9.7 0 17.58-7.9 17.58-17.6v-52.78c0-9.7-7.87-17.6-17.6-17.6z" stroke="#3a414a" fill="#fff"/><g><use xlink:href="#Q" transform="matrix(1,0,0,1,-991.9999999999999,-1022.9659090909195) translate(20.361111111111114 16.000000000000007)"/><use xlink:href="#R" transform="matrix(1,0,0,1,-991.9999999999999,-1022.9659090909195) translate(40.36111111111112 40)"/><use xlink:href="#S" transform="matrix(1,0,0,1,-991.9999999999999,-1022.9659090909195) translate(93.52777777777777 40)"/><use xlink:href="#T" transform="matrix(1,0,0,1,-991.9999999999999,-1022.9659090909195) translate(29.77777777777778 64)"/></g><path d="M-12-1034.03c-15.46 0-28 12.53-28 28v84c0 15.46 12.54 28 28 28H92.08c15.47 0 28-12.54 28-28v-84c0-15.47-12.53-28-28-28z" stroke="#3a414a" fill="#fff"/><g><use xlink:href="#V" transform="matrix(1,0,0,1,-32.000000000024485,-1026.0340909090592) translate(28.138888888888893 54.5)"/><use xlink:href="#W" transform="matrix(1,0,0,1,-32.000000000024485,-1026.0340909090592) translate(2.5277777777778 78.5)"/><use xlink:href="#X" transform="matrix(1,0,0,1,-32.000000000024485,-1026.0340909090592) translate(78.08333333333334 78.5)"/></g><path d="M-243.18 340c0 11.05-8.96 20-20 20-11.05 0-20-8.95-20-20s8.95-20 20-20c11.04 0 20 8.95 20 20z" stroke="#3a414a"/><path d="M-276.22-900c-13.13 0-23.78 10.65-23.78 23.78v71.36c0 13.13 10.65 23.78 23.78 23.78h112.52c13.14 0 23.78-10.65 23.78-23.78v-71.36c0-13.13-10.64-23.78-23.78-23.78z" stroke="#3a414a" fill="#fff"/><g><use xlink:href="#V" transform="matrix(1,0,0,1,-292.0000000000245,-892.0000000000223) translate(28.138888888888893 43.5)"/><use xlink:href="#Y" transform="matrix(1,0,0,1,-292.0000000000245,-892.0000000000223) translate(24.83333333333335 67.5)"/></g><path d="M-325.64 56.8c-9.7 0-17.6 7.87-17.6 17.58v52.77c0 9.72 7.9 17.6 17.6 17.6h124.9c9.72 0 17.6-7.88 17.6-17.6V74.38c0-9.7-7.88-17.6-17.6-17.6z" stroke="#3a414a" fill="#fff"/><g><use xlink:href="#I" transform="matrix(1,0,0,1,-335.22651371199294,64.78977272731507) translate(11.500000000000007 16.000000000000007)"/><use xlink:href="#Z" transform="matrix(1,0,0,1,-335.22651371199294,64.78977272731507) translate(31.44444444444445 40)"/><use xlink:href="#Y" transform="matrix(1,0,0,1,-335.22651371199294,64.78977272731507) translate(24.83333333333335 64)"/></g><path d="M-383.18 346a6 6 0 0 1 6-6h228a6 6 0 0 1 6 6v48a6 6 0 0 1-6 6h-228a6 6 0 0 1-6-6z" stroke="#000" stroke-opacity="0" fill="#fff" fill-opacity="0"/><g><use xlink:href="#aa" transform="matrix(1,0,0,1,-378.18445018597413,345) translate(95.24691358024691 30.27777777777778)"/></g><path d="M-671.26-200c-9.72 0-17.6 7.88-17.6 17.6v52.76c0 9.72 7.88 17.6 17.6 17.6h124.9c9.72 0 17.6-7.88 17.6-17.6v-52.77c0-9.72-7.88-17.6-17.6-17.6z" stroke="#3a414a" fill="#fff"/><g><use xlink:href="#ab" transform="matrix(1,0,0,1,-680.8532828967101,-191.99999999997883) translate(16.444444444444457 28)"/><use xlink:href="#ac" transform="matrix(1,0,0,1,-680.8532828967101,-191.99999999997883) translate(97.55555555555556 28)"/><use xlink:href="#ad" transform="matrix(1,0,0,1,-680.8532828967101,-191.99999999997883) translate(22.58333333333333 52)"/></g><path d="M-614.22-686.4a12.53 12.53 0 0 1 10.82 0l58.07 27.8a2.87 2.87 0 0 1 0 5.17l-58.07 27.8a12.53 12.53 0 0 1-10.82 0l-58.07-27.8a2.87 2.87 0 0 1 0-5.18zM-76.43-686.4a12.53 12.53 0 0 1 10.82 0l58.06 27.8a2.87 2.87 0 0 1 0 5.17l-58.07 27.8a12.53 12.53 0 0 1-10.83 0l-58.07-27.8a2.87 2.87 0 0 1 0-5.18z" stroke="#3a414a" fill="#fff"/><path d="M-70.52-577.45h-1v-4.37h1zm0-25.7h-1v-20.25h1z" stroke="#3a414a" stroke-width=".05" fill="#3a414a"/><path d="M-71.02-623.9l.5-.02v.53h-1v-.52z" fill="#3a414a"/><path d="M-71.02-623.93l.52-.02v.6h-1.05v-.6zm-.48.52h.95v-.5l-.47.02-.48-.02z" stroke="#3a414a" stroke-width=".05" fill="#3a414a"/><path d="M-71.02-562.7l-4.64-14.25h9.27z" fill="#3a414a"/><path d="M-71.02-561.07l-5.32-16.38h10.64zm-3.95-15.38l3.95 12.14 3.95-12.15z" stroke="#3a414a" stroke-width=".05" fill="#3a414a"/><g><use xlink:href="#v" transform="matrix(1,0,0,1,-155.63781034567978,-603.1514956587047) translate(0.0049999999999954525 14.222222222222223)"/><use xlink:href="#o" transform="matrix(1,0,0,1,-155.63781034567978,-603.1514956587047) translate(65.93092592592593 14.222222222222223)"/><use xlink:href="#w" transform="matrix(1,0,0,1,-155.63781034567978,-603.1514956587047) translate(103.31364197530866 14.222222222222223)"/></g><path d="M-608.3-201h-1l.03-136.75h1zm471.16-454.52h-116.84l-.88.07-.84.2-.8.33-.73.45-.66.56-.55.65-.45.73-.33.8-.2.82-.07 216.66-.08 1-.24 1-.4.93-.52.86-.66.78-.78.66-.87.53-.94.4-1 .23-337.8.08-.87.07-.84.2-.8.34-.74.45-.66.55-.56.66-.45.74-.34.8-.2.82-.02 64.05h-1l.02-64.16.25-1 .4-.95.53-.88.66-.78.77-.66.87-.53.94-.4 1-.23 1-.08 337.7-.08.82-.2.8-.32.73-.45.66-.57.55-.66.45-.74.33-.8.2-.83.07-.88.07-216.74.25-1 .4-.95.52-.87.66-.78.78-.66.87-.54.94-.4.98-.22 1-.08h116.88z" stroke="#3a414a" stroke-width=".05" fill="#3a414a"/><path d="M-136.64-656.02l.06.5h-.57v-1h.57z" fill="#3a414a"/><path d="M-136.6-656.02l.05.52h-.63v-1.05h.63zm-.53-.48v.95h.52l-.06-.47.05-.48z" stroke="#3a414a" stroke-width=".05" fill="#3a414a"/><path d="M-608.3-200.5h-1v-.5h1z" fill="#3a414a"/><path d="M-608.3-200.47h-1.04v-.57h1.05zm-1-.52v.47h.96v-.46z" stroke="#3a414a" stroke-width=".05" fill="#3a414a"/><defs><path fill="#3a414a" d="M232-93c-1 65-40 97-104 97C67 4 28-28 28-90v-158h33c8 89-33 224 67 224 102 0 64-133 71-224h33v155" id="ae"/><path fill="#3a414a" d="M59-47c-2 24 18 29 38 22v24C64 9 27 4 27-40v-127H5v-23h24l9-43h21v43h35v23H59v120" id="af"/><path fill="#3a414a" d="M100-194c63 0 86 42 84 106H49c0 40 14 67 53 68 26 1 43-12 49-29l28 8c-11 28-37 45-77 45C44 4 14-33 15-96c1-61 26-98 85-98zm52 81c6-60-76-77-97-28-3 7-6 17-6 28h103" id="ag"/><path fill="#3a414a" d="M117-194c89-4 53 116 60 194h-32v-121c0-31-8-49-39-48C34-167 62-67 57 0H25l-1-190h30c1 10-1 24 2 32 11-22 29-35 61-36" id="ah"/><g id="a"><use transform="matrix(0.06172839506172839,0,0,0.06172839506172839,0,0)" xlink:href="#ae"/><use transform="matrix(0.06172839506172839,0,0,0.06172839506172839,15.987654320987653,0)" xlink:href="#af"/><use transform="matrix(0.06172839506172839,0,0,0.06172839506172839,22.160493827160494,0)" xlink:href="#ag"/><use transform="matrix(0.06172839506172839,0,0,0.06172839506172839,34.50617283950617,0)" xlink:href="#ah"/><use transform="matrix(0.06172839506172839,0,0,0.06172839506172839,46.85185185185185,0)" xlink:href="#af"/><use transform="matrix(0.06172839506172839,0,0,0.06172839506172839,53.02469135802469,0)" xlink:href="#ag"/></g><path fill="#3a414a" d="M205 0l-28-72H64L36 0H1l101-248h38L239 0h-34zm-38-99l-47-123c-12 45-31 82-46 123h93" id="ai"/><path fill="#3a414a" d="M84 4C-5 8 30-112 23-190h32v120c0 31 7 50 39 49 72-2 45-101 50-169h31l1 190h-30c-1-10 1-25-2-33-11 22-28 36-60 37" id="aj"/><path fill="#3a414a" d="M106-169C34-169 62-67 57 0H25v-261h32l-1 103c12-21 28-36 61-36 89 0 53 116 60 194h-32v-121c2-32-8-49-39-48" id="ak"/><path fill="#3a414a" d="M101-251c68 0 85 55 85 127S166 4 100 4C33 4 14-52 14-124c0-73 17-127 87-127zm-1 229c47 0 54-49 54-102s-4-102-53-102c-51 0-55 48-55 102 0 53 5 102 54 102" id="al"/><g id="b"><use transform="matrix(0.06172839506172839,0,0,0.06172839506172839,0,0)" xlink:href="#ai"/><use transform="matrix(0.06172839506172839,0,0,0.06172839506172839,14.814814814814813,0)" xlink:href="#aj"/><use transform="matrix(0.06172839506172839,0,0,0.06172839506172839,27.160493827160494,0)" xlink:href="#af"/><use transform="matrix(0.06172839506172839,0,0,0.06172839506172839,33.333333333333336,0)" xlink:href="#ak"/><use transform="matrix(0.06172839506172839,0,0,0.06172839506172839,45.67901234567901,0)" xlink:href="#al"/></g><path fill="#333" d="M169-182c-1-43-94-46-97-3 18 66 151 10 154 114 3 95-165 93-204 36-6-8-10-19-12-30l50-8c3 46 112 56 116 5-17-69-150-10-154-114-4-87 153-88 188-35 5 8 8 18 10 28" id="am"/><path fill="#333" d="M115-3C79 11 28 4 28-45v-112H4v-33h27l15-45h31v45h36v33H77v99c-1 23 16 31 38 25v30" id="an"/><path fill="#333" d="M133-34C117-15 103 5 69 4 32 3 11-16 11-54c-1-60 55-63 116-61 1-26-3-47-28-47-18 1-26 9-28 27l-52-2c7-38 36-58 82-57s74 22 75 68l1 82c-1 14 12 18 25 15v27c-30 8-71 5-69-32zm-48 3c29 0 43-24 42-57-32 0-66-3-65 30 0 17 8 27 23 27" id="ao"/><path fill="#333" d="M135-150c-39-12-60 13-60 57V0H25l-1-190h47c2 13-1 29 3 40 6-28 27-53 61-41v41" id="ap"/><g id="c"><use transform="matrix(0.04938271604938272,0,0,0.04938271604938272,0,0)" xlink:href="#am"/><use transform="matrix(0.04938271604938272,0,0,0.04938271604938272,11.851851851851853,0)" xlink:href="#an"/><use transform="matrix(0.04938271604938272,0,0,0.04938271604938272,17.728395061728396,0)" xlink:href="#ao"/><use transform="matrix(0.04938271604938272,0,0,0.04938271604938272,27.60493827160494,0)" xlink:href="#ap"/><use transform="matrix(0.04938271604938272,0,0,0.04938271604938272,34.51851851851852,0)" xlink:href="#an"/></g><path fill="#333" d="M20 75v-336h95v34H67V41h48v34H20" id="aq"/><path fill="#333" d="M185-48c-13 30-37 53-82 52C43 2 14-33 14-96s30-98 90-98c62 0 83 45 84 108H66c0 31 8 55 39 56 18 0 30-7 34-22zm-45-69c5-46-57-63-70-21-2 6-4 13-4 21h74" id="ar"/><path fill="#333" d="M195-6C206 82 75 100 31 46c-4-6-6-13-8-21l49-6c3 16 16 24 34 25 40 0 42-37 40-79-11 22-30 35-61 35-53 0-70-43-70-97 0-56 18-96 73-97 30 0 46 14 59 34l2-30h47zm-90-29c32 0 41-27 41-63 0-35-9-62-40-62-32 0-39 29-40 63 0 36 9 62 39 62" id="as"/><path fill="#333" d="M25-224v-37h50v37H25zM25 0v-190h50V0H25" id="at"/><path fill="#333" d="M137-138c1-29-70-34-71-4 15 46 118 7 119 86 1 83-164 76-172 9l43-7c4 19 20 25 44 25 33 8 57-30 24-41C81-84 22-81 20-136c-2-80 154-74 161-7" id="au"/><path fill="#333" d="M12 0v-35l95-120H19v-35h142v35L67-36h103V0H12" id="av"/><path fill="#333" d="M110-194c64 0 96 36 96 99 0 64-35 99-97 99-61 0-95-36-95-99 0-62 34-99 96-99zm-1 164c35 0 45-28 45-65 0-40-10-65-43-65-34 0-45 26-45 65 0 36 10 65 43 65" id="aw"/><path fill="#333" d="M135-194c87-1 58 113 63 194h-50c-7-57 23-157-34-157-59 0-34 97-39 157H25l-1-190h47c2 12-1 28 3 38 12-26 28-41 61-42" id="ax"/><g id="d"><use transform="matrix(0.04938271604938272,0,0,0.04938271604938272,0,0)" xlink:href="#aq"/><use transform="matrix(0.04938271604938272,0,0,0.04938271604938272,5.8765432098765435,0)" xlink:href="#ap"/><use transform="matrix(0.04938271604938272,0,0,0.04938271604938272,12.790123456790125,0)" xlink:href="#ar"/><use transform="matrix(0.04938271604938272,0,0,0.04938271604938272,22.666666666666668,0)" xlink:href="#as"/><use transform="matrix(0.04938271604938272,0,0,0.04938271604938272,33.48148148148148,0)" xlink:href="#at"/><use transform="matrix(0.04938271604938272,0,0,0.04938271604938272,38.41975308641975,0)" xlink:href="#au"/><use transform="matrix(0.04938271604938272,0,0,0.04938271604938272,48.2962962962963,0)" xlink:href="#an"/><use transform="matrix(0.04938271604938272,0,0,0.04938271604938272,54.17283950617284,0)" xlink:href="#ap"/><use transform="matrix(0.04938271604938272,0,0,0.04938271604938272,61.086419753086425,0)" xlink:href="#ao"/><use transform="matrix(0.04938271604938272,0,0,0.04938271604938272,70.96296296296296,0)" xlink:href="#av"/><use transform="matrix(0.04938271604938272,0,0,0.04938271604938272,79.85185185185185,0)" xlink:href="#at"/><use transform="matrix(0.04938271604938272,0,0,0.04938271604938272,84.79012345679013,0)" xlink:href="#aw"/><use transform="matrix(0.04938271604938272,0,0,0.04938271604938272,95.60493827160494,0)" xlink:href="#ax"/><use transform="matrix(0.04938271604938272,0,0,0.04938271604938272,106.41975308641975,0)" xlink:href="#ar"/></g><path fill="#333" d="M220-157c-53 9-28 100-34 157h-49v-107c1-27-5-49-29-50C55-147 81-57 75 0H25l-1-190h47c2 12-1 28 3 38 10-53 101-56 108 0 13-22 24-43 59-42 82 1 51 116 57 194h-49v-107c-1-25-5-48-29-50" id="ay"/><path fill="#333" d="M88-194c31-1 46 15 58 34l-1-101h50l1 261h-48c-2-10 0-23-3-31C134-8 116 4 84 4 32 4 16-41 15-95c0-56 19-97 73-99zm17 164c33 0 40-30 41-66 1-37-9-64-41-64s-38 30-39 65c0 43 13 65 39 65" id="az"/><g id="e"><use transform="matrix(0.04938271604938272,0,0,0.04938271604938272,0,0)" xlink:href="#ay"/><use transform="matrix(0.04938271604938272,0,0,0.04938271604938272,15.80246913580247,0)" xlink:href="#ar"/><use transform="matrix(0.04938271604938272,0,0,0.04938271604938272,25.679012345679016,0)" xlink:href="#az"/><use transform="matrix(0.04938271604938272,0,0,0.04938271604938272,36.49382716049383,0)" xlink:href="#at"/><use transform="matrix(0.04938271604938272,0,0,0.04938271604938272,41.4320987654321,0)" xlink:href="#ao"/><use transform="matrix(0.04938271604938272,0,0,0.04938271604938272,51.308641975308646,0)" xlink:href="#ax"/><use transform="matrix(0.04938271604938272,0,0,0.04938271604938272,62.12345679012346,0)" xlink:href="#an"/><use transform="matrix(0.04938271604938272,0,0,0.04938271604938272,68,0)" xlink:href="#ar"/></g><path fill="#333" d="M190-63c-7 42-38 67-86 67-59 0-84-38-90-98-12-110 154-137 174-36l-49 2c-2-19-15-32-35-32-30 0-35 28-38 64-6 74 65 87 74 30" id="aA"/><path fill="#333" d="M25 0v-261h50V0H25" id="aB"/><path fill="#333" d="M4 75V41h49v-268H4v-34h96V75H4" id="aC"/><g id="f"><use transform="matrix(0.04938271604938272,0,0,0.04938271604938272,0,0)" xlink:href="#aA"/><use transform="matrix(0.04938271604938272,0,0,0.04938271604938272,9.876543209876544,0)" xlink:href="#ap"/><use transform="matrix(0.04938271604938272,0,0,0.04938271604938272,16.790123456790127,0)" xlink:href="#ar"/><use transform="matrix(0.04938271604938272,0,0,0.04938271604938272,26.666666666666668,0)" xlink:href="#az"/><use transform="matrix(0.04938271604938272,0,0,0.04938271604938272,37.48148148148149,0)" xlink:href="#ar"/><use transform="matrix(0.04938271604938272,0,0,0.04938271604938272,47.35802469135803,0)" xlink:href="#ax"/><use transform="matrix(0.04938271604938272,0,0,0.04938271604938272,58.17283950617284,0)" xlink:href="#av"/><use transform="matrix(0.04938271604938272,0,0,0.04938271604938272,67.06172839506173,0)" xlink:href="#at"/><use transform="matrix(0.04938271604938272,0,0,0.04938271604938272,72,0)" xlink:href="#ao"/><use transform="matrix(0.04938271604938272,0,0,0.04938271604938272,81.87654320987654,0)" xlink:href="#aB"/><use transform="matrix(0.04938271604938272,0,0,0.04938271604938272,86.81481481481481,0)" xlink:href="#at"/><use transform="matrix(0.04938271604938272,0,0,0.04938271604938272,91.75308641975309,0)" xlink:href="#aC"/></g><g id="g"><use transform="matrix(0.04938271604938272,0,0,0.04938271604938272,0,0)" xlink:href="#ay"/><use transform="matrix(0.04938271604938272,0,0,0.04938271604938272,15.80246913580247,0)" xlink:href="#ar"/><use transform="matrix(0.04938271604938272,0,0,0.04938271604938272,25.679012345679016,0)" xlink:href="#az"/><use transform="matrix(0.04938271604938272,0,0,0.04938271604938272,36.49382716049383,0)" xlink:href="#at"/><use transform="matrix(0.04938271604938272,0,0,0.04938271604938272,41.4320987654321,0)" xlink:href="#ao"/><use transform="matrix(0.04938271604938272,0,0,0.04938271604938272,51.308641975308646,0)" xlink:href="#ax"/><use transform="matrix(0.04938271604938272,0,0,0.04938271604938272,62.12345679012346,0)" xlink:href="#an"/><use transform="matrix(0.04938271604938272,0,0,0.04938271604938272,68,0)" xlink:href="#ar"/></g><g id="h"><use transform="matrix(0.04938271604938272,0,0,0.04938271604938272,0,0)" xlink:href="#au"/><use transform="matrix(0.04938271604938272,0,0,0.04938271604938272,9.876543209876544,0)" xlink:href="#at"/><use transform="matrix(0.04938271604938272,0,0,0.04938271604938272,14.814814814814817,0)" xlink:href="#au"/><use transform="matrix(0.04938271604938272,0,0,0.04938271604938272,24.69135802469136,0)" xlink:href="#an"/><use transform="matrix(0.04938271604938272,0,0,0.04938271604938272,30.567901234567906,0)" xlink:href="#ar"/><use transform="matrix(0.04938271604938272,0,0,0.04938271604938272,40.44444444444445,0)" xlink:href="#ay"/><use transform="matrix(0.04938271604938272,0,0,0.04938271604938272,56.24691358024692,0)" xlink:href="#ao"/></g><g id="i"><use transform="matrix(0.04938271604938272,0,0,0.04938271604938272,0,0)" xlink:href="#ar"/><use transform="matrix(0.04938271604938272,0,0,0.04938271604938272,9.876543209876544,0)" xlink:href="#au"/><use transform="matrix(0.04938271604938272,0,0,0.04938271604938272,19.75308641975309,0)" xlink:href="#an"/><use transform="matrix(0.04938271604938272,0,0,0.04938271604938272,25.629629629629633,0)" xlink:href="#ar"/><use transform="matrix(0.04938271604938272,0,0,0.04938271604938272,35.50617283950618,0)" xlink:href="#ap"/><use transform="matrix(0.04938271604938272,0,0,0.04938271604938272,42.41975308641976,0)" xlink:href="#ax"/><use transform="matrix(0.04938271604938272,0,0,0.04938271604938272,53.23456790123457,0)" xlink:href="#aw"/><use transform="matrix(0.04938271604938272,0,0,0.04938271604938272,64.0493827160494,0)" xlink:href="#aC"/></g><g id="j"><use transform="matrix(0.04938271604938272,0,0,0.04938271604938272,0,0)" xlink:href="#aq"/><use transform="matrix(0.04938271604938272,0,0,0.04938271604938272,5.8765432098765435,0)" xlink:href="#ao"/><use transform="matrix(0.04938271604938272,0,0,0.04938271604938272,15.753086419753087,0)" xlink:href="#aA"/><use transform="matrix(0.04938271604938272,0,0,0.04938271604938272,25.629629629629633,0)" xlink:href="#aA"/><use transform="matrix(0.04938271604938272,0,0,0.04938271604938272,35.50617283950618,0)" xlink:href="#ar"/><use transform="matrix(0.04938271604938272,0,0,0.04938271604938272,45.38271604938272,0)" xlink:href="#au"/><use transform="matrix(0.04938271604938272,0,0,0.04938271604938272,55.25925925925927,0)" xlink:href="#au"/><use transform="matrix(0.04938271604938272,0,0,0.04938271604938272,65.13580246913581,0)" xlink:href="#aw"/></g><g id="k"><use transform="matrix(0.04938271604938272,0,0,0.04938271604938272,0,0)" xlink:href="#ay"/><use transform="matrix(0.04938271604938272,0,0,0.04938271604938272,15.80246913580247,0)" xlink:href="#ar"/><use transform="matrix(0.04938271604938272,0,0,0.04938271604938272,25.679012345679016,0)" xlink:href="#az"/><use transform="matrix(0.04938271604938272,0,0,0.04938271604938272,36.49382716049383,0)" xlink:href="#at"/><use transform="matrix(0.04938271604938272,0,0,0.04938271604938272,41.4320987654321,0)" xlink:href="#ao"/><use transform="matrix(0.04938271604938272,0,0,0.04938271604938272,51.308641975308646,0)" xlink:href="#ax"/><use transform="matrix(0.04938271604938272,0,0,0.04938271604938272,62.12345679012346,0)" xlink:href="#an"/><use transform="matrix(0.04938271604938272,0,0,0.04938271604938272,68,0)" xlink:href="#ar"/></g><path fill="#333" d="M128 0H69L1-190h53L99-40l48-150h52" id="aD"/><g id="l"><use transform="matrix(0.04938271604938272,0,0,0.04938271604938272,0,0)" xlink:href="#au"/><use transform="matrix(0.04938271604938272,0,0,0.04938271604938272,9.876543209876544,0)" xlink:href="#ar"/><use transform="matrix(0.04938271604938272,0,0,0.04938271604938272,19.75308641975309,0)" xlink:href="#ap"/><use transform="matrix(0.04938271604938272,0,0,0.04938271604938272,26.666666666666668,0)" xlink:href="#aD"/><use transform="matrix(0.04938271604938272,0,0,0.04938271604938272,36.543209876543216,0)" xlink:href="#at"/><use transform="matrix(0.04938271604938272,0,0,0.04938271604938272,41.48148148148149,0)" xlink:href="#av"/><use transform="matrix(0.04938271604938272,0,0,0.04938271604938272,50.37037037037038,0)" xlink:href="#at"/><use transform="matrix(0.04938271604938272,0,0,0.04938271604938272,55.30864197530866,0)" xlink:href="#aw"/></g><g id="m"><use transform="matrix(0.04938271604938272,0,0,0.04938271604938272,0,0)" xlink:href="#ar"/><use transform="matrix(0.04938271604938272,0,0,0.04938271604938272,9.876543209876544,0)" xlink:href="#au"/><use transform="matrix(0.04938271604938272,0,0,0.04938271604938272,19.75308641975309,0)" xlink:href="#an"/><use transform="matrix(0.04938271604938272,0,0,0.04938271604938272,25.629629629629633,0)" xlink:href="#ar"/><use transform="matrix(0.04938271604938272,0,0,0.04938271604938272,35.50617283950618,0)" xlink:href="#ap"/><use transform="matrix(0.04938271604938272,0,0,0.04938271604938272,42.41975308641976,0)" xlink:href="#ax"/><use transform="matrix(0.04938271604938272,0,0,0.04938271604938272,53.23456790123457,0)" xlink:href="#aw"/><use transform="matrix(0.04938271604938272,0,0,0.04938271604938272,64.0493827160494,0)" xlink:href="#aC"/></g><path fill="#333" d="M62-158H24l-5-90h48" id="aE"/><path fill="#333" d="M85 4C-2 5 27-109 22-190h50c7 57-23 150 33 157 60-5 35-97 40-157h50l1 190h-47c-2-12 1-28-3-38-12 25-28 42-61 42" id="aF"/><g id="n"><use transform="matrix(0.04938271604938272,0,0,0.04938271604938272,0,0)" xlink:href="#aq"/><use transform="matrix(0.04938271604938272,0,0,0.04938271604938272,5.8765432098765435,0)" xlink:href="#aB"/><use transform="matrix(0.04938271604938272,0,0,0.04938271604938272,10.814814814814817,0)" xlink:href="#aE"/><use transform="matrix(0.04938271604938272,0,0,0.04938271604938272,15.01234567901235,0)" xlink:href="#aF"/><use transform="matrix(0.04938271604938272,0,0,0.04938271604938272,25.82716049382716,0)" xlink:href="#an"/><use transform="matrix(0.04938271604938272,0,0,0.04938271604938272,31.703703703703713,0)" xlink:href="#ar"/><use transform="matrix(0.04938271604938272,0,0,0.04938271604938272,41.580246913580254,0)" xlink:href="#ax"/><use transform="matrix(0.04938271604938272,0,0,0.04938271604938272,52.39506172839506,0)" xlink:href="#an"/><use transform="matrix(0.04938271604938272,0,0,0.04938271604938272,58.27160493827161,0)" xlink:href="#ar"/></g><g id="o"><use transform="matrix(0.04938271604938272,0,0,0.04938271604938272,0,0)" xlink:href="#ax"/><use transform="matrix(0.04938271604938272,0,0,0.04938271604938272,10.814814814814815,0)" xlink:href="#aw"/><use transform="matrix(0.04938271604938272,0,0,0.04938271604938272,21.62962962962963,0)" xlink:href="#ax"/></g><path fill="#333" d="M114-157C55-157 80-60 75 0H25v-261h50l-1 109c12-26 28-41 61-42 86-1 58 113 63 194h-50c-7-57 23-157-34-157" id="aG"/><g id="p"><use transform="matrix(0.04938271604938272,0,0,0.04938271604938272,0,0)" xlink:href="#aG"/><use transform="matrix(0.04938271604938272,0,0,0.04938271604938272,10.814814814814815,0)" xlink:href="#ao"/></g><g id="q"><use transform="matrix(0.04938271604938272,0,0,0.04938271604938272,0,0)" xlink:href="#aF"/><use transform="matrix(0.04938271604938272,0,0,0.04938271604938272,10.814814814814815,0)" xlink:href="#ax"/></g><g id="r"><use transform="matrix(0.04938271604938272,0,0,0.04938271604938272,0,0)" xlink:href="#ao"/><use transform="matrix(0.04938271604938272,0,0,0.04938271604938272,9.876543209876544,0)" xlink:href="#aA"/><use transform="matrix(0.04938271604938272,0,0,0.04938271604938272,19.75308641975309,0)" xlink:href="#aA"/><use transform="matrix(0.04938271604938272,0,0,0.04938271604938272,29.629629629629633,0)" xlink:href="#aw"/><use transform="matrix(0.04938271604938272,0,0,0.04938271604938272,40.44444444444445,0)" xlink:href="#aF"/><use transform="matrix(0.04938271604938272,0,0,0.04938271604938272,51.25925925925927,0)" xlink:href="#ax"/><use transform="matrix(0.04938271604938272,0,0,0.04938271604938272,62.074074074074076,0)" xlink:href="#an"/><use transform="matrix(0.04938271604938272,0,0,0.04938271604938272,67.95061728395062,0)" xlink:href="#aC"/></g><g id="s"><use transform="matrix(0.04938271604938272,0,0,0.04938271604938272,0,0)" xlink:href="#aG"/><use transform="matrix(0.04938271604938272,0,0,0.04938271604938272,10.814814814814815,0)" xlink:href="#ao"/></g><path fill="#333" d="M240-174c0 40-23 61-54 70L253 0h-59l-57-94H76V0H24v-248c93 4 217-23 216 74zM76-134c48-2 112 12 112-38 0-48-66-32-112-35v73" id="aH"/><g id="t"><use transform="matrix(0.04938271604938272,0,0,0.04938271604938272,0,0)" xlink:href="#aq"/><use transform="matrix(0.04938271604938272,0,0,0.04938271604938272,5.8765432098765435,0)" xlink:href="#aH"/><use transform="matrix(0.04938271604938272,0,0,0.04938271604938272,18.666666666666668,0)" xlink:href="#at"/><use transform="matrix(0.04938271604938272,0,0,0.04938271604938272,23.60493827160494,0)" xlink:href="#au"/><use transform="matrix(0.04938271604938272,0,0,0.04938271604938272,33.48148148148148,0)" xlink:href="#aF"/><use transform="matrix(0.04938271604938272,0,0,0.04938271604938272,44.2962962962963,0)" xlink:href="#aB"/><use transform="matrix(0.04938271604938272,0,0,0.04938271604938272,49.23456790123457,0)" xlink:href="#an"/><use transform="matrix(0.04938271604938272,0,0,0.04938271604938272,55.111111111111114,0)" xlink:href="#ao"/><use transform="matrix(0.04938271604938272,0,0,0.04938271604938272,64.98765432098766,0)" xlink:href="#an"/><use transform="matrix(0.04938271604938272,0,0,0.04938271604938272,70.8641975308642,0)" xlink:href="#aw"/></g><g id="u"><use transform="matrix(0.04938271604938272,0,0,0.04938271604938272,0,0)" xlink:href="#aA"/><use transform="matrix(0.04938271604938272,0,0,0.04938271604938272,9.876543209876544,0)" xlink:href="#aw"/><use transform="matrix(0.04938271604938272,0,0,0.04938271604938272,20.69135802469136,0)" xlink:href="#ax"/><use transform="matrix(0.04938271604938272,0,0,0.04938271604938272,31.506172839506174,0)" xlink:href="#aD"/><use transform="matrix(0.04938271604938272,0,0,0.04938271604938272,41.38271604938272,0)" xlink:href="#ao"/><use transform="matrix(0.04938271604938272,0,0,0.04938271604938272,51.25925925925927,0)" xlink:href="#aB"/><use transform="matrix(0.04938271604938272,0,0,0.04938271604938272,56.19753086419754,0)" xlink:href="#at"/><use transform="matrix(0.04938271604938272,0,0,0.04938271604938272,61.13580246913581,0)" xlink:href="#az"/><use transform="matrix(0.04938271604938272,0,0,0.04938271604938272,71.95061728395062,0)" xlink:href="#ao"/><use transform="matrix(0.04938271604938272,0,0,0.04938271604938272,81.82716049382717,0)" xlink:href="#av"/><use transform="matrix(0.04938271604938272,0,0,0.04938271604938272,90.71604938271605,0)" xlink:href="#at"/><use transform="matrix(0.04938271604938272,0,0,0.04938271604938272,95.65432098765433,0)" xlink:href="#aw"/><use transform="matrix(0.04938271604938272,0,0,0.04938271604938272,106.46913580246914,0)" xlink:href="#ax"/><use transform="matrix(0.04938271604938272,0,0,0.04938271604938272,117.28395061728394,0)" xlink:href="#ar"/><use transform="matrix(0.04938271604938272,0,0,0.04938271604938272,127.16049382716051,0)" xlink:href="#aC"/></g><path fill="#333" d="M238-95c0 69-44 99-111 99C63 4 22-25 22-93v-155h51v151c-1 38 19 59 55 60 90 1 49-130 58-211h52v153" id="aI"/><g id="v"><use transform="matrix(0.04938271604938272,0,0,0.04938271604938272,0,0)" xlink:href="#aq"/><use transform="matrix(0.04938271604938272,0,0,0.04938271604938272,5.8765432098765435,0)" xlink:href="#aI"/><use transform="matrix(0.04938271604938272,0,0,0.04938271604938272,18.666666666666668,0)" xlink:href="#an"/><use transform="matrix(0.04938271604938272,0,0,0.04938271604938272,24.543209876543212,0)" xlink:href="#ar"/><use transform="matrix(0.04938271604938272,0,0,0.04938271604938272,34.41975308641976,0)" xlink:href="#ax"/><use transform="matrix(0.04938271604938272,0,0,0.04938271604938272,45.23456790123458,0)" xlink:href="#an"/><use transform="matrix(0.04938271604938272,0,0,0.04938271604938272,51.11111111111113,0)" xlink:href="#ar"/></g><g id="w"><use transform="matrix(0.04938271604938272,0,0,0.04938271604938272,0,0)" xlink:href="#an"/><use transform="matrix(0.04938271604938272,0,0,0.04938271604938272,5.8765432098765435,0)" xlink:href="#ap"/><use transform="matrix(0.04938271604938272,0,0,0.04938271604938272,12.790123456790125,0)" xlink:href="#aw"/><use transform="matrix(0.04938271604938272,0,0,0.04938271604938272,23.604938271604937,0)" xlink:href="#aD"/><use transform="matrix(0.04938271604938272,0,0,0.04938271604938272,33.48148148148148,0)" xlink:href="#ao"/><use transform="matrix(0.04938271604938272,0,0,0.04938271604938272,43.358024691358025,0)" xlink:href="#an"/><use transform="matrix(0.04938271604938272,0,0,0.04938271604938272,49.23456790123457,0)" xlink:href="#aw"/><use transform="matrix(0.04938271604938272,0,0,0.04938271604938272,60.04938271604939,0)" xlink:href="#aC"/></g><path fill="#333" d="M67-125c0 53 21 87 73 88 37 1 54-22 65-47l45 17C233-25 199 4 140 4 58 4 20-42 15-125 8-235 124-281 211-232c18 10 29 29 36 50l-46 12c-8-25-30-41-62-41-52 0-71 34-72 86" id="aJ"/><g id="x"><use transform="matrix(0.04938271604938272,0,0,0.04938271604938272,0,0)" xlink:href="#aq"/><use transform="matrix(0.04938271604938272,0,0,0.04938271604938272,5.8765432098765435,0)" xlink:href="#aJ"/><use transform="matrix(0.04938271604938272,0,0,0.04938271604938272,18.666666666666668,0)" xlink:href="#ap"/><use transform="matrix(0.04938271604938272,0,0,0.04938271604938272,25.58024691358025,0)" xlink:href="#ar"/><use transform="matrix(0.04938271604938272,0,0,0.04938271604938272,35.45679012345679,0)" xlink:href="#az"/><use transform="matrix(0.04938271604938272,0,0,0.04938271604938272,46.27160493827161,0)" xlink:href="#ar"/><use transform="matrix(0.04938271604938272,0,0,0.04938271604938272,56.14814814814815,0)" xlink:href="#ax"/><use transform="matrix(0.04938271604938272,0,0,0.04938271604938272,66.96296296296296,0)" xlink:href="#av"/><use transform="matrix(0.04938271604938272,0,0,0.04938271604938272,75.85185185185185,0)" xlink:href="#at"/><use transform="matrix(0.04938271604938272,0,0,0.04938271604938272,80.79012345679013,0)" xlink:href="#ao"/><use transform="matrix(0.04938271604938272,0,0,0.04938271604938272,90.66666666666667,0)" xlink:href="#aB"/><use transform="matrix(0.04938271604938272,0,0,0.04938271604938272,95.60493827160494,0)" xlink:href="#at"/></g><g id="y"><use transform="matrix(0.04938271604938272,0,0,0.04938271604938272,0,0)" xlink:href="#aA"/><use transform="matrix(0.04938271604938272,0,0,0.04938271604938272,9.876543209876544,0)" xlink:href="#aw"/><use transform="matrix(0.04938271604938272,0,0,0.04938271604938272,20.69135802469136,0)" xlink:href="#ap"/><use transform="matrix(0.04938271604938272,0,0,0.04938271604938272,27.604938271604947,0)" xlink:href="#ap"/><use transform="matrix(0.04938271604938272,0,0,0.04938271604938272,34.518518518518526,0)" xlink:href="#ar"/><use transform="matrix(0.04938271604938272,0,0,0.04938271604938272,44.39506172839507,0)" xlink:href="#an"/><use transform="matrix(0.04938271604938272,0,0,0.04938271604938272,50.271604938271615,0)" xlink:href="#an"/><use transform="matrix(0.04938271604938272,0,0,0.04938271604938272,56.14814814814817,0)" xlink:href="#ar"/><use transform="matrix(0.04938271604938272,0,0,0.04938271604938272,66.02469135802471,0)" xlink:href="#aC"/></g><g id="z"><use transform="matrix(0.04938271604938272,0,0,0.04938271604938272,0,0)" xlink:href="#an"/><use transform="matrix(0.04938271604938272,0,0,0.04938271604938272,5.8765432098765435,0)" xlink:href="#ap"/><use transform="matrix(0.04938271604938272,0,0,0.04938271604938272,12.790123456790125,0)" xlink:href="#aw"/><use transform="matrix(0.04938271604938272,0,0,0.04938271604938272,23.604938271604937,0)" xlink:href="#aD"/><use transform="matrix(0.04938271604938272,0,0,0.04938271604938272,33.48148148148148,0)" xlink:href="#ao"/><use transform="matrix(0.04938271604938272,0,0,0.04938271604938272,43.358024691358025,0)" xlink:href="#an"/><use transform="matrix(0.04938271604938272,0,0,0.04938271604938272,49.23456790123457,0)" xlink:href="#aw"/></g><g id="A"><use transform="matrix(0.04938271604938272,0,0,0.04938271604938272,0,0)" xlink:href="#ay"/><use transform="matrix(0.04938271604938272,0,0,0.04938271604938272,15.80246913580247,0)" xlink:href="#ao"/></g><g id="B"><use transform="matrix(0.04938271604938272,0,0,0.04938271604938272,0,0)" xlink:href="#aA"/><use transform="matrix(0.04938271604938272,0,0,0.04938271604938272,9.876543209876544,0)" xlink:href="#ap"/><use transform="matrix(0.04938271604938272,0,0,0.04938271604938272,16.790123456790127,0)" xlink:href="#ar"/><use transform="matrix(0.04938271604938272,0,0,0.04938271604938272,26.666666666666668,0)" xlink:href="#az"/><use transform="matrix(0.04938271604938272,0,0,0.04938271604938272,37.48148148148149,0)" xlink:href="#ar"/><use transform="matrix(0.04938271604938272,0,0,0.04938271604938272,47.35802469135803,0)" xlink:href="#ax"/><use transform="matrix(0.04938271604938272,0,0,0.04938271604938272,58.17283950617284,0)" xlink:href="#av"/><use transform="matrix(0.04938271604938272,0,0,0.04938271604938272,67.06172839506173,0)" xlink:href="#at"/><use transform="matrix(0.04938271604938272,0,0,0.04938271604938272,72,0)" xlink:href="#ao"/><use transform="matrix(0.04938271604938272,0,0,0.04938271604938272,81.87654320987654,0)" xlink:href="#aB"/><use transform="matrix(0.04938271604938272,0,0,0.04938271604938272,86.81481481481481,0)" xlink:href="#at"/></g><g id="C"><use transform="matrix(0.04938271604938272,0,0,0.04938271604938272,0,0)" xlink:href="#ar"/><use transform="matrix(0.04938271604938272,0,0,0.04938271604938272,9.876543209876544,0)" xlink:href="#ap"/><use transform="matrix(0.04938271604938272,0,0,0.04938271604938272,16.790123456790127,0)" xlink:href="#ap"/><use transform="matrix(0.04938271604938272,0,0,0.04938271604938272,23.70370370370371,0)" xlink:href="#ao"/><use transform="matrix(0.04938271604938272,0,0,0.04938271604938272,33.580246913580254,0)" xlink:href="#an"/><use transform="matrix(0.04938271604938272,0,0,0.04938271604938272,39.4567901234568,0)" xlink:href="#ar"/><use transform="matrix(0.04938271604938272,0,0,0.04938271604938272,49.33333333333334,0)" xlink:href="#aC"/></g><path fill="#3a414a" d="M233-177c-1 41-23 64-60 70L243 0h-38l-65-103H63V0H30v-248c88 3 205-21 203 71zM63-129c60-2 137 13 137-47 0-61-80-42-137-45v92" id="aK"/><path fill="#3a414a" d="M177-190C167-65 218 103 67 71c-23-6-38-20-44-43l32-5c15 47 100 32 89-28v-30C133-14 115 1 83 1 29 1 15-40 15-95c0-56 16-97 71-98 29-1 48 16 59 35 1-10 0-23 2-32h30zM94-22c36 0 50-32 50-73 0-42-14-75-50-75-39 0-46 34-46 75s6 73 46 73" id="aL"/><path fill="#3a414a" d="M24-231v-30h32v30H24zM24 0v-190h32V0H24" id="aM"/><path fill="#3a414a" d="M135-143c-3-34-86-38-87 0 15 53 115 12 119 90S17 21 10-45l28-5c4 36 97 45 98 0-10-56-113-15-118-90-4-57 82-63 122-42 12 7 21 19 24 35" id="aN"/><path fill="#3a414a" d="M114-163C36-179 61-72 57 0H25l-1-190h30c1 12-1 29 2 39 6-27 23-49 58-41v29" id="aO"/><path fill="#3a414a" d="M141-36C126-15 110 5 73 4 37 3 15-17 15-53c-1-64 63-63 125-63 3-35-9-54-41-54-24 1-41 7-42 31l-33-3c5-37 33-52 76-52 45 0 72 20 72 64v82c-1 20 7 32 28 27v20c-31 9-61-2-59-35zM48-53c0 20 12 33 32 33 41-3 63-29 60-74-43 2-92-5-92 41" id="aP"/><path fill="#3a414a" d="M9 0v-24l116-142H16v-24h144v24L44-24h123V0H9" id="aQ"/><path fill="#3a414a" d="M100-194c62-1 85 37 85 99 1 63-27 99-86 99S16-35 15-95c0-66 28-99 85-99zM99-20c44 1 53-31 53-75 0-43-8-75-51-75s-53 32-53 75 10 74 51 75" id="aR"/><path fill="#3a414a" d="M0 4l72-265h28L28 4H0" id="aS"/><g id="D"><use transform="matrix(0.055555555555555546,0,0,0.055555555555555546,0,0)" xlink:href="#aK"/><use transform="matrix(0.055555555555555546,0,0,0.055555555555555546,14.388888888888886,0)" xlink:href="#ag"/><use transform="matrix(0.055555555555555546,0,0,0.055555555555555546,25.499999999999993,0)" xlink:href="#aL"/><use transform="matrix(0.055555555555555546,0,0,0.055555555555555546,36.6111111111111,0)" xlink:href="#aM"/><use transform="matrix(0.055555555555555546,0,0,0.055555555555555546,40.999999999999986,0)" xlink:href="#aN"/><use transform="matrix(0.055555555555555546,0,0,0.055555555555555546,50.999999999999986,0)" xlink:href="#af"/><use transform="matrix(0.055555555555555546,0,0,0.055555555555555546,56.55555555555554,0)" xlink:href="#aO"/><use transform="matrix(0.055555555555555546,0,0,0.055555555555555546,63.16666666666666,0)" xlink:href="#aP"/><use transform="matrix(0.055555555555555546,0,0,0.055555555555555546,74.27777777777776,0)" xlink:href="#aQ"/><use transform="matrix(0.055555555555555546,0,0,0.055555555555555546,84.27777777777776,0)" xlink:href="#aM"/><use transform="matrix(0.055555555555555546,0,0,0.055555555555555546,88.66666666666664,0)" xlink:href="#aR"/><use transform="matrix(0.055555555555555546,0,0,0.055555555555555546,99.77777777777776,0)" xlink:href="#ah"/><use transform="matrix(0.055555555555555546,0,0,0.055555555555555546,110.88888888888887,0)" xlink:href="#ag"/><use transform="matrix(0.055555555555555546,0,0,0.055555555555555546,121.99999999999997,0)" xlink:href="#aS"/></g><path fill="#3a414a" d="M96-169c-40 0-48 33-48 73s9 75 48 75c24 0 41-14 43-38l32 2c-6 37-31 61-74 61-59 0-76-41-82-99-10-93 101-131 147-64 4 7 5 14 7 22l-32 3c-4-21-16-35-41-35" id="aT"/><g id="E"><use transform="matrix(0.055555555555555546,0,0,0.055555555555555546,0,0)" xlink:href="#aP"/><use transform="matrix(0.055555555555555546,0,0,0.055555555555555546,11.111111111111109,0)" xlink:href="#aT"/><use transform="matrix(0.055555555555555546,0,0,0.055555555555555546,21.111111111111107,0)" xlink:href="#aT"/><use transform="matrix(0.055555555555555546,0,0,0.055555555555555546,31.111111111111107,0)" xlink:href="#ag"/><use transform="matrix(0.055555555555555546,0,0,0.055555555555555546,42.222222222222214,0)" xlink:href="#aN"/><use transform="matrix(0.055555555555555546,0,0,0.055555555555555546,52.222222222222214,0)" xlink:href="#aN"/><use transform="matrix(0.055555555555555546,0,0,0.055555555555555546,62.222222222222214,0)" xlink:href="#aR"/></g><path fill="#3a414a" d="M24 0v-261h32V0H24" id="aU"/><g id="F"><use transform="matrix(0.055555555555555546,0,0,0.055555555555555546,0,0)" xlink:href="#aP"/><use transform="matrix(0.055555555555555546,0,0,0.055555555555555546,11.111111111111109,0)" xlink:href="#aU"/></g><g id="G"><use transform="matrix(0.055555555555555546,0,0,0.055555555555555546,0,0)" xlink:href="#aN"/><use transform="matrix(0.055555555555555546,0,0,0.055555555555555546,9.999999999999998,0)" xlink:href="#aM"/><use transform="matrix(0.055555555555555546,0,0,0.055555555555555546,14.388888888888886,0)" xlink:href="#af"/><use transform="matrix(0.055555555555555546,0,0,0.055555555555555546,19.94444444444444,0)" xlink:href="#aR"/></g><g id="H"><use transform="matrix(0.055555555555555546,0,0,0.055555555555555546,0,0)" xlink:href="#aK"/><use transform="matrix(0.055555555555555546,0,0,0.055555555555555546,14.388888888888886,0)" xlink:href="#ag"/><use transform="matrix(0.055555555555555546,0,0,0.055555555555555546,25.499999999999993,0)" xlink:href="#aL"/><use transform="matrix(0.055555555555555546,0,0,0.055555555555555546,36.6111111111111,0)" xlink:href="#aM"/><use transform="matrix(0.055555555555555546,0,0,0.055555555555555546,40.999999999999986,0)" xlink:href="#aN"/><use transform="matrix(0.055555555555555546,0,0,0.055555555555555546,50.999999999999986,0)" xlink:href="#af"/><use transform="matrix(0.055555555555555546,0,0,0.055555555555555546,56.55555555555554,0)" xlink:href="#aO"/><use transform="matrix(0.055555555555555546,0,0,0.055555555555555546,63.16666666666666,0)" xlink:href="#aP"/><use transform="matrix(0.055555555555555546,0,0,0.055555555555555546,74.27777777777776,0)" xlink:href="#aQ"/><use transform="matrix(0.055555555555555546,0,0,0.055555555555555546,84.27777777777776,0)" xlink:href="#aM"/><use transform="matrix(0.055555555555555546,0,0,0.055555555555555546,88.66666666666664,0)" xlink:href="#aR"/><use transform="matrix(0.055555555555555546,0,0,0.055555555555555546,99.77777777777776,0)" xlink:href="#ah"/><use transform="matrix(0.055555555555555546,0,0,0.055555555555555546,110.88888888888887,0)" xlink:href="#ag"/></g><g id="I"><use transform="matrix(0.055555555555555546,0,0,0.055555555555555546,0,0)" xlink:href="#aK"/><use transform="matrix(0.055555555555555546,0,0,0.055555555555555546,14.388888888888886,0)" xlink:href="#ag"/><use transform="matrix(0.055555555555555546,0,0,0.055555555555555546,25.499999999999993,0)" xlink:href="#aL"/><use transform="matrix(0.055555555555555546,0,0,0.055555555555555546,36.6111111111111,0)" xlink:href="#aM"/><use transform="matrix(0.055555555555555546,0,0,0.055555555555555546,40.999999999999986,0)" xlink:href="#aN"/><use transform="matrix(0.055555555555555546,0,0,0.055555555555555546,50.999999999999986,0)" xlink:href="#af"/><use transform="matrix(0.055555555555555546,0,0,0.055555555555555546,56.55555555555554,0)" xlink:href="#aO"/><use transform="matrix(0.055555555555555546,0,0,0.055555555555555546,63.16666666666666,0)" xlink:href="#aP"/><use transform="matrix(0.055555555555555546,0,0,0.055555555555555546,74.27777777777776,0)" xlink:href="#aQ"/><use transform="matrix(0.055555555555555546,0,0,0.055555555555555546,84.27777777777776,0)" xlink:href="#aM"/><use transform="matrix(0.055555555555555546,0,0,0.055555555555555546,88.66666666666664,0)" xlink:href="#aR"/><use transform="matrix(0.055555555555555546,0,0,0.055555555555555546,99.77777777777776,0)" xlink:href="#ah"/><use transform="matrix(0.055555555555555546,0,0,0.055555555555555546,110.88888888888887,0)" xlink:href="#ag"/></g><path fill="#3a414a" d="M210-169c-67 3-38 105-44 169h-31v-121c0-29-5-50-35-48C34-165 62-65 56 0H25l-1-190h30c1 10-1 24 2 32 10-44 99-50 107 0 11-21 27-35 58-36 85-2 47 119 55 194h-31v-121c0-29-5-49-35-48" id="aV"/><path fill="#3a414a" d="M85-194c31 0 48 13 60 33l-1-100h32l1 261h-30c-2-10 0-23-3-31C134-8 116 4 85 4 32 4 16-35 15-94c0-66 23-100 70-100zm9 24c-40 0-46 34-46 75 0 40 6 74 45 74 42 0 51-32 51-76 0-42-9-74-50-73" id="aW"/><g id="J"><use transform="matrix(0.055555555555555546,0,0,0.055555555555555546,0,0)" xlink:href="#aV"/><use transform="matrix(0.055555555555555546,0,0,0.055555555555555546,16.611111111111107,0)" xlink:href="#ag"/><use transform="matrix(0.055555555555555546,0,0,0.055555555555555546,27.722222222222214,0)" xlink:href="#aW"/><use transform="matrix(0.055555555555555546,0,0,0.055555555555555546,38.83333333333332,0)" xlink:href="#aM"/><use transform="matrix(0.055555555555555546,0,0,0.055555555555555546,43.22222222222221,0)" xlink:href="#aP"/><use transform="matrix(0.055555555555555546,0,0,0.055555555555555546,54.333333333333314,0)" xlink:href="#ah"/><use transform="matrix(0.055555555555555546,0,0,0.055555555555555546,65.44444444444443,0)" xlink:href="#af"/><use transform="matrix(0.055555555555555546,0,0,0.055555555555555546,70.99999999999999,0)" xlink:href="#ag"/></g><path fill="#3a414a" d="M143 4C61 4 22-44 18-125c-5-107 100-154 193-111 17 8 29 25 37 43l-32 9c-13-25-37-40-76-40-61 0-88 39-88 99 0 61 29 100 91 101 35 0 62-11 79-27v-45h-74v-28h105v86C228-13 192 4 143 4" id="aX"/><g id="K"><use transform="matrix(0.055555555555555546,0,0,0.055555555555555546,0,0)" xlink:href="#aX"/><use transform="matrix(0.055555555555555546,0,0,0.055555555555555546,15.555555555555554,0)" xlink:href="#aR"/><use transform="matrix(0.055555555555555546,0,0,0.055555555555555546,26.666666666666664,0)" xlink:href="#aR"/><use transform="matrix(0.055555555555555546,0,0,0.055555555555555546,37.77777777777777,0)" xlink:href="#aL"/><use transform="matrix(0.055555555555555546,0,0,0.055555555555555546,48.88888888888888,0)" xlink:href="#aU"/><use transform="matrix(0.055555555555555546,0,0,0.055555555555555546,53.277777777777764,0)" xlink:href="#ag"/></g><use transform="matrix(0.055555555555555546,0,0,0.055555555555555546,0,0)" xlink:href="#aS" id="L"/><path fill="#3a414a" d="M108 0H70L1-190h34L89-25l56-165h34" id="aY"/><g id="M"><use transform="matrix(0.055555555555555546,0,0,0.055555555555555546,0,0)" xlink:href="#aN"/><use transform="matrix(0.055555555555555546,0,0,0.055555555555555546,9.999999999999998,0)" xlink:href="#ag"/><use transform="matrix(0.055555555555555546,0,0,0.055555555555555546,21.111111111111107,0)" xlink:href="#aO"/><use transform="matrix(0.055555555555555546,0,0,0.055555555555555546,27.722222222222218,0)" xlink:href="#aY"/><use transform="matrix(0.055555555555555546,0,0,0.055555555555555546,37.722222222222214,0)" xlink:href="#aM"/><use transform="matrix(0.055555555555555546,0,0,0.055555555555555546,42.1111111111111,0)" xlink:href="#aQ"/><use transform="matrix(0.055555555555555546,0,0,0.055555555555555546,52.1111111111111,0)" xlink:href="#aM"/></g><g id="N"><use transform="matrix(0.055555555555555546,0,0,0.055555555555555546,0,0)" xlink:href="#aW"/><use transform="matrix(0.055555555555555546,0,0,0.055555555555555546,11.111111111111109,0)" xlink:href="#aM"/></g><g id="O"><use transform="matrix(0.055555555555555546,0,0,0.055555555555555546,0,0)" xlink:href="#af"/><use transform="matrix(0.055555555555555546,0,0,0.055555555555555546,5.5555555555555545,0)" xlink:href="#ag"/><use transform="matrix(0.055555555555555546,0,0,0.055555555555555546,16.666666666666664,0)" xlink:href="#aO"/><use transform="matrix(0.055555555555555546,0,0,0.055555555555555546,23.277777777777775,0)" xlink:href="#aQ"/><use transform="matrix(0.055555555555555546,0,0,0.055555555555555546,33.27777777777777,0)" xlink:href="#ag"/></g><path fill="#3a414a" d="M115-194c55 1 70 41 70 98S169 2 115 4C84 4 66-9 55-30l1 105H24l-1-265h31l2 30c10-21 28-34 59-34zm-8 174c40 0 45-34 45-75s-6-73-45-74c-42 0-51 32-51 76 0 43 10 73 51 73" id="aZ"/><g id="P"><use transform="matrix(0.055555555555555546,0,0,0.055555555555555546,0,0)" xlink:href="#aZ"/><use transform="matrix(0.055555555555555546,0,0,0.055555555555555546,11.111111111111109,0)" xlink:href="#aP"/><use transform="matrix(0.055555555555555546,0,0,0.055555555555555546,22.222222222222218,0)" xlink:href="#aO"/><use transform="matrix(0.055555555555555546,0,0,0.055555555555555546,28.83333333333333,0)" xlink:href="#af"/><use transform="matrix(0.055555555555555546,0,0,0.055555555555555546,34.388888888888886,0)" xlink:href="#aM"/></g><path fill="#3a414a" d="M33 0v-248h34V0H33" id="ba"/><g id="Q"><use transform="matrix(0.055555555555555546,0,0,0.055555555555555546,0,0)" xlink:href="#ba"/><use transform="matrix(0.055555555555555546,0,0,0.055555555555555546,5.5555555555555545,0)" xlink:href="#ah"/><use transform="matrix(0.055555555555555546,0,0,0.055555555555555546,16.666666666666664,0)" xlink:href="#aN"/><use transform="matrix(0.055555555555555546,0,0,0.055555555555555546,26.666666666666664,0)" xlink:href="#ag"/><use transform="matrix(0.055555555555555546,0,0,0.055555555555555546,37.77777777777777,0)" xlink:href="#aO"/><use transform="matrix(0.055555555555555546,0,0,0.055555555555555546,44.38888888888888,0)" xlink:href="#aM"/><use transform="matrix(0.055555555555555546,0,0,0.055555555555555546,48.777777777777764,0)" xlink:href="#aV"/><use transform="matrix(0.055555555555555546,0,0,0.055555555555555546,65.38888888888887,0)" xlink:href="#ag"/><use transform="matrix(0.055555555555555546,0,0,0.055555555555555546,76.49999999999999,0)" xlink:href="#ah"/><use transform="matrix(0.055555555555555546,0,0,0.055555555555555546,87.6111111111111,0)" xlink:href="#af"/><use transform="matrix(0.055555555555555546,0,0,0.055555555555555546,93.16666666666666,0)" xlink:href="#aR"/></g><g id="R"><use transform="matrix(0.055555555555555546,0,0,0.055555555555555546,0,0)" xlink:href="#ag"/><use transform="matrix(0.055555555555555546,0,0,0.055555555555555546,11.111111111111109,0)" xlink:href="#aV"/><use transform="matrix(0.055555555555555546,0,0,0.055555555555555546,27.722222222222214,0)" xlink:href="#aP"/><use transform="matrix(0.055555555555555546,0,0,0.055555555555555546,38.83333333333332,0)" xlink:href="#aM"/><use transform="matrix(0.055555555555555546,0,0,0.055555555555555546,43.22222222222221,0)" xlink:href="#aU"/></g><use transform="matrix(0.055555555555555546,0,0,0.055555555555555546,0,0)" xlink:href="#ag" id="S"/><path fill="#3a414a" d="M206 0h-36l-40-164L89 0H53L-1-190h32L70-26l43-164h34l41 164 42-164h31" id="bb"/><g id="T"><use transform="matrix(0.055555555555555546,0,0,0.055555555555555546,0,0)" xlink:href="#aZ"/><use transform="matrix(0.055555555555555546,0,0,0.055555555555555546,11.111111111111109,0)" xlink:href="#aP"/><use transform="matrix(0.055555555555555546,0,0,0.055555555555555546,22.222222222222218,0)" xlink:href="#aN"/><use transform="matrix(0.055555555555555546,0,0,0.055555555555555546,32.222222222222214,0)" xlink:href="#aN"/><use transform="matrix(0.055555555555555546,0,0,0.055555555555555546,42.222222222222214,0)" xlink:href="#bb"/><use transform="matrix(0.055555555555555546,0,0,0.055555555555555546,56.6111111111111,0)" xlink:href="#aR"/><use transform="matrix(0.055555555555555546,0,0,0.055555555555555546,67.72222222222221,0)" xlink:href="#aO"/><use transform="matrix(0.055555555555555546,0,0,0.055555555555555546,74.33333333333333,0)" xlink:href="#aW"/></g><path fill="#3a414a" d="M212-179c-10-28-35-45-73-45-59 0-87 40-87 99 0 60 29 101 89 101 43 0 62-24 78-52l27 14C228-24 195 4 139 4 59 4 22-46 18-125c-6-104 99-153 187-111 19 9 31 26 39 46" id="bc"/><path fill="#3a414a" d="M101-234c-31-9-42 10-38 44h38v23H63V0H32v-167H5v-23h27c-7-52 17-82 69-68v24" id="bd"/><g id="U"><use transform="matrix(0.055555555555555546,0,0,0.055555555555555546,0,0)" xlink:href="#bc"/><use transform="matrix(0.055555555555555546,0,0,0.055555555555555546,14.388888888888886,0)" xlink:href="#aR"/><use transform="matrix(0.055555555555555546,0,0,0.055555555555555546,25.499999999999993,0)" xlink:href="#ah"/><use transform="matrix(0.055555555555555546,0,0,0.055555555555555546,36.6111111111111,0)" xlink:href="#bd"/><use transform="matrix(0.055555555555555546,0,0,0.055555555555555546,42.16666666666666,0)" xlink:href="#ag"/><use transform="matrix(0.055555555555555546,0,0,0.055555555555555546,53.277777777777764,0)" xlink:href="#aO"/><use transform="matrix(0.055555555555555546,0,0,0.055555555555555546,59.888888888888864,0)" xlink:href="#aV"/><use transform="matrix(0.055555555555555546,0,0,0.055555555555555546,76.49999999999997,0)" xlink:href="#aP"/></g><g id="V"><use transform="matrix(0.055555555555555546,0,0,0.055555555555555546,0,0)" xlink:href="#bc"/><use transform="matrix(0.055555555555555546,0,0,0.055555555555555546,14.388888888888886,0)" xlink:href="#aR"/><use transform="matrix(0.055555555555555546,0,0,0.055555555555555546,25.499999999999993,0)" xlink:href="#ah"/><use transform="matrix(0.055555555555555546,0,0,0.055555555555555546,36.6111111111111,0)" xlink:href="#aY"/><use transform="matrix(0.055555555555555546,0,0,0.055555555555555546,46.6111111111111,0)" xlink:href="#aP"/><use transform="matrix(0.055555555555555546,0,0,0.055555555555555546,57.722222222222214,0)" xlink:href="#aU"/><use transform="matrix(0.055555555555555546,0,0,0.055555555555555546,62.111111111111086,0)" xlink:href="#aM"/><use transform="matrix(0.055555555555555546,0,0,0.055555555555555546,66.49999999999999,0)" xlink:href="#aW"/><use transform="matrix(0.055555555555555546,0,0,0.055555555555555546,77.6111111111111,0)" xlink:href="#aP"/></g><g id="W"><use transform="matrix(0.055555555555555546,0,0,0.055555555555555546,0,0)" xlink:href="#aP"/><use transform="matrix(0.055555555555555546,0,0,0.055555555555555546,11.111111111111109,0)" xlink:href="#aT"/><use transform="matrix(0.055555555555555546,0,0,0.055555555555555546,21.111111111111107,0)" xlink:href="#aT"/><use transform="matrix(0.055555555555555546,0,0,0.055555555555555546,31.111111111111107,0)" xlink:href="#aR"/><use transform="matrix(0.055555555555555546,0,0,0.055555555555555546,42.222222222222214,0)" xlink:href="#aj"/><use transform="matrix(0.055555555555555546,0,0,0.055555555555555546,53.33333333333332,0)" xlink:href="#ah"/><use transform="matrix(0.055555555555555546,0,0,0.055555555555555546,64.44444444444443,0)" xlink:href="#af"/></g><g id="X"><use transform="matrix(0.055555555555555546,0,0,0.055555555555555546,0,0)" xlink:href="#aX"/><use transform="matrix(0.055555555555555546,0,0,0.055555555555555546,15.555555555555554,0)" xlink:href="#aR"/><use transform="matrix(0.055555555555555546,0,0,0.055555555555555546,26.666666666666664,0)" xlink:href="#aR"/><use transform="matrix(0.055555555555555546,0,0,0.055555555555555546,37.77777777777777,0)" xlink:href="#aL"/><use transform="matrix(0.055555555555555546,0,0,0.055555555555555546,48.88888888888888,0)" xlink:href="#aU"/><use transform="matrix(0.055555555555555546,0,0,0.055555555555555546,53.277777777777764,0)" xlink:href="#ag"/></g><g id="Y"><use transform="matrix(0.055555555555555546,0,0,0.055555555555555546,0,0)" xlink:href="#aT"/><use transform="matrix(0.055555555555555546,0,0,0.055555555555555546,9.999999999999998,0)" xlink:href="#aO"/><use transform="matrix(0.055555555555555546,0,0,0.055555555555555546,16.611111111111107,0)" xlink:href="#ag"/><use transform="matrix(0.055555555555555546,0,0,0.055555555555555546,27.722222222222214,0)" xlink:href="#aW"/><use transform="matrix(0.055555555555555546,0,0,0.055555555555555546,38.83333333333332,0)" xlink:href="#ag"/><use transform="matrix(0.055555555555555546,0,0,0.055555555555555546,49.94444444444443,0)" xlink:href="#ah"/><use transform="matrix(0.055555555555555546,0,0,0.055555555555555546,61.05555555555553,0)" xlink:href="#aQ"/><use transform="matrix(0.055555555555555546,0,0,0.055555555555555546,71.05555555555553,0)" xlink:href="#aM"/><use transform="matrix(0.055555555555555546,0,0,0.055555555555555546,75.44444444444441,0)" xlink:href="#aP"/><use transform="matrix(0.055555555555555546,0,0,0.055555555555555546,86.55555555555553,0)" xlink:href="#aU"/><use transform="matrix(0.055555555555555546,0,0,0.055555555555555546,90.94444444444441,0)" xlink:href="#aM"/></g><g id="Z"><use transform="matrix(0.055555555555555546,0,0,0.055555555555555546,0,0)" xlink:href="#aV"/><use transform="matrix(0.055555555555555546,0,0,0.055555555555555546,16.611111111111107,0)" xlink:href="#ag"/><use transform="matrix(0.055555555555555546,0,0,0.055555555555555546,27.722222222222214,0)" xlink:href="#aW"/><use transform="matrix(0.055555555555555546,0,0,0.055555555555555546,38.83333333333332,0)" xlink:href="#aM"/><use transform="matrix(0.055555555555555546,0,0,0.055555555555555546,43.22222222222221,0)" xlink:href="#aP"/><use transform="matrix(0.055555555555555546,0,0,0.055555555555555546,54.333333333333314,0)" xlink:href="#ah"/><use transform="matrix(0.055555555555555546,0,0,0.055555555555555546,65.44444444444443,0)" xlink:href="#af"/><use transform="matrix(0.055555555555555546,0,0,0.055555555555555546,70.99999999999999,0)" xlink:href="#ag"/></g><path fill="#3a414a" d="M30 0v-248h187v28H63v79h144v27H63v87h162V0H30" id="be"/><g id="aa"><use transform="matrix(0.06172839506172839,0,0,0.06172839506172839,0,0)" xlink:href="#be"/><use transform="matrix(0.06172839506172839,0,0,0.06172839506172839,14.814814814814813,0)" xlink:href="#ah"/><use transform="matrix(0.06172839506172839,0,0,0.06172839506172839,27.160493827160494,0)" xlink:href="#aW"/></g><g id="ab"><use transform="matrix(0.055555555555555546,0,0,0.055555555555555546,0,0)" xlink:href="#ai"/><use transform="matrix(0.055555555555555546,0,0,0.055555555555555546,13.33333333333333,0)" xlink:href="#aT"/><use transform="matrix(0.055555555555555546,0,0,0.055555555555555546,23.33333333333333,0)" xlink:href="#aT"/><use transform="matrix(0.055555555555555546,0,0,0.055555555555555546,33.33333333333333,0)" xlink:href="#ag"/><use transform="matrix(0.055555555555555546,0,0,0.055555555555555546,44.444444444444436,0)" xlink:href="#aN"/><use transform="matrix(0.055555555555555546,0,0,0.055555555555555546,54.444444444444436,0)" xlink:href="#aN"/><use transform="matrix(0.055555555555555546,0,0,0.055555555555555546,64.44444444444443,0)" xlink:href="#aR"/></g><g id="ac"><use transform="matrix(0.055555555555555546,0,0,0.055555555555555546,0,0)" xlink:href="#aP"/><use transform="matrix(0.055555555555555546,0,0,0.055555555555555546,11.111111111111109,0)" xlink:href="#aU"/><use transform="matrix(0.055555555555555546,0,0,0.055555555555555546,15.499999999999996,0)" xlink:href="#aU"/><use transform="matrix(0.055555555555555546,0,0,0.055555555555555546,19.888888888888886,0)" xlink:href="#aP"/></g><g id="ad"><use transform="matrix(0.055555555555555546,0,0,0.055555555555555546,0,0)" xlink:href="#aZ"/><use transform="matrix(0.055555555555555546,0,0,0.055555555555555546,11.111111111111109,0)" xlink:href="#aM"/><use transform="matrix(0.055555555555555546,0,0,0.055555555555555546,15.499999999999996,0)" xlink:href="#aP"/><use transform="matrix(0.055555555555555546,0,0,0.055555555555555546,26.611111111111107,0)" xlink:href="#af"/><use transform="matrix(0.055555555555555546,0,0,0.055555555555555546,32.166666666666664,0)" xlink:href="#af"/><use transform="matrix(0.055555555555555546,0,0,0.055555555555555546,37.72222222222222,0)" xlink:href="#aP"/><use transform="matrix(0.055555555555555546,0,0,0.055555555555555546,48.83333333333333,0)" xlink:href="#bd"/><use transform="matrix(0.055555555555555546,0,0,0.055555555555555546,54.388888888888886,0)" xlink:href="#aR"/><use transform="matrix(0.055555555555555546,0,0,0.055555555555555546,65.5,0)" xlink:href="#aO"/><use transform="matrix(0.055555555555555546,0,0,0.055555555555555546,72.11111111111111,0)" xlink:href="#aV"/><use transform="matrix(0.055555555555555546,0,0,0.055555555555555546,88.72222222222223,0)" xlink:href="#aP"/></g></defs></g></svg>