<svg xmlns="http://www.w3.org/2000/svg" xmlns:xlink="http://www.w3.org/1999/xlink" xmlns:lucid="lucid" width="3706" height="2280"><g transform="translate(1505 1060)" lucid:page-tab-id="hSM6uD15Norg"><path d="M-1806.87-1258.83h5484.6v2581.66h-5484.6z" fill="#fff"/><path d="M-1200 920h-34a6 6 0 0 1-6-6V-974a6 6 0 0 1 6-6h34zM-1200-980v-34a6 6 0 0 1 6-6H40v40zM40-1020h380v40H40zM420-1020h720v40H420zM1140-1020h580v40h-580zM1720-1020h434a6 6 0 0 1 6 6v34h-440z" stroke="#3a414a" fill="#fff"/><path d="M-1200-980H40V920h-1240zM40-980h380V920H40zM420-980h720V920H420zM1140-980h580V920h-580zM2160-980V914a6 6 0 0 1-6 6h-434V-980z" stroke="#3a414a" fill="none"/><use xlink:href="#a" transform="matrix(1,0,0,1,-1200,-1020) translate(587.3148148148148 24.444444444444443)"/><use xlink:href="#b" transform="matrix(1,0,0,1,40,-1020) translate(160.98765432098764 24.444444444444443)"/><use xlink:href="#c" transform="matrix(1,0,0,1,420,-1020) translate(310.679012345679 24.444444444444443)"/><use xlink:href="#d" transform="matrix(1,0,0,1,1140,-1020) translate(261.04938271604937 24.444444444444443)"/><use xlink:href="#e" transform="matrix(1,0,0,1,1720,-1020) translate(184.84567901234567 24.444444444444443)"/><path d="M-1420-900c0 11.05-8.95 20-20 20s-20-8.95-20-20 8.95-20 20-20 20 8.95 20 20z" stroke="#3a414a"/><path d="M-1419-900h342.15" stroke="#3a414a" fill="none"/><path d="M-1419-899.5h-.56l.06-.48-.02-.52h.53z" stroke="#3a414a" stroke-width=".05" fill="#3a414a"/><path d="M-1062.08-900l-14.27 4.64v-9.28z" stroke="#3a414a" fill="#3a414a"/><path d="M-1060-954a6 6 0 0 1 6-6h148a6 6 0 0 1 6 6v108a6 6 0 0 1-6 6h-148a6 6 0 0 1-6-6z" stroke="#3a414a" fill="#fff"/><use xlink:href="#f" transform="matrix(1,0,0,1,-1048,-948) translate(5.746913580246911 38.77777777777778)"/><use xlink:href="#g" transform="matrix(1,0,0,1,-1048,-948) translate(29.111111111111114 65.44444444444446)"/><path d="M-980-839.04v160.5a6 6 0 0 0 6 6h737.8a6 6 0 0 1 6 6v144.6" stroke="#3a414a" fill="none"/><path d="M-979.5-839.02h-1v-.52h1z" stroke="#3a414a" stroke-width=".05" fill="#3a414a"/><path d="M-230.2-507.18l-4.62-14.26h9.27z" stroke="#3a414a" fill="#3a414a"/><path d="M-310.2-499.1a6 6 0 0 1 6-6h148a6 6 0 0 1 6 6v108a6 6 0 0 1-6 6h-148a6 6 0 0 1-6-6z" stroke="#3a414a" fill="#fff"/><use xlink:href="#h" transform="matrix(1,0,0,1,-298.18823771058214,-493.09581150751546) translate(0.2530864197530889 38.77777777777778)"/><use xlink:href="#i" transform="matrix(1,0,0,1,-298.18823771058214,-493.09581150751546) translate(80.31481481481481 38.77777777777778)"/><use xlink:href="#j" transform="matrix(1,0,0,1,-298.18823771058214,-493.09581150751546) translate(118.52469135802468 38.77777777777778)"/><use xlink:href="#k" transform="matrix(1,0,0,1,-298.18823771058214,-493.09581150751546) translate(37.75308641975309 65.44444444444446)"/><path d="M1039.84-306.26l1 .08 1 .23.93.4.87.53.77.66.68.78.53.87.4.93.24 1 .08 57.5h-1l-.08-57.37-.2-.82-.32-.8-.45-.73-.57-.65-.65-.56-.74-.46-.78-.33-.84-.2-.88-.06-474.78-.03v-1zm-1269.53-5.52l.08.88.2.84.33.8.46.73.56.66.66.56.74.44.8.33.8.2 731.93.04v1l-732.04-.04-1-.24-.94-.4-.87-.52-.8-.67-.65-.77-.53-.87-.4-.95-.23-1-.1-1v-72.38h1z" stroke="#3a414a" stroke-width=".05" fill="#3a414a"/><path d="M-229.7-384.12h-1v-.5h1z" fill="#3a414a"/><path d="M-229.66-384.1h-1.05v-.56h1.04zm-1-.5v.46h.95v-.47z" stroke="#3a414a" stroke-width=".05" fill="#3a414a"/><path d="M1045.82-228.5l-4.64-14.28h9.27z" fill="#3a414a"/><path d="M1045.82-226.9l-5.33-16.38h10.64zm-3.95-15.38l3.95 12.15 3.94-12.15z" stroke="#3a414a" stroke-width=".05" fill="#3a414a"/><use xlink:href="#l" transform="matrix(1,0,0,1,506.8474385146305,-316.4291448408491) translate(0.004999999999999005 14.222222222222223)"/><path d="M965.82-220.43a6 6 0 0 1 6-6h148a6 6 0 0 1 6 6v108a6 6 0 0 1-6 6h-148a6 6 0 0 1-6-6z" stroke="#3a414a" fill="#fff"/><use xlink:href="#m" transform="matrix(1,0,0,1,977.8169831161104,-214.4291448408494) translate(5.191358024691354 26.77777777777778)"/><use xlink:href="#n" transform="matrix(1,0,0,1,977.8169831161104,-214.4291448408494) translate(113.58641975308643 26.77777777777778)"/><use xlink:href="#i" transform="matrix(1,0,0,1,977.8169831161104,-214.4291448408494) translate(6.950617283950621 53.44444444444445)"/><use xlink:href="#o" transform="matrix(1,0,0,1,977.8169831161104,-214.4291448408494) translate(45.1604938271605 53.44444444444445)"/><use xlink:href="#p" transform="matrix(1,0,0,1,977.8169831161104,-214.4291448408494) translate(68.55555555555556 53.44444444444445)"/><use xlink:href="#q" transform="matrix(1,0,0,1,977.8169831161104,-214.4291448408494) translate(9.79012345679012 80.11111111111111)"/><path d="M-980-839.04v317.1" stroke="#3a414a" fill="none"/><path d="M-979.5-839.02h-1v-.52h1z" stroke="#3a414a" stroke-width=".05" fill="#3a414a"/><path d="M-980-507.18l-4.64-14.26h9.28z" stroke="#3a414a" fill="#3a414a"/><path d="M-1060-499.1a6 6 0 0 1 6-6h148a6 6 0 0 1 6 6v108a6 6 0 0 1-6 6h-148a6 6 0 0 1-6-6z" stroke="#3a414a" fill="#fff"/><use xlink:href="#r" transform="matrix(1,0,0,1,-1048,-493.09581150751546) translate(13.740740740740733 38.77777777777778)"/><use xlink:href="#s" transform="matrix(1,0,0,1,-1048,-493.09581150751546) translate(0.2839506172839492 65.44444444444446)"/><use xlink:href="#t" transform="matrix(1,0,0,1,-1048,-493.09581150751546) translate(74.11111111111111 65.44444444444446)"/><use xlink:href="#u" transform="matrix(1,0,0,1,-1048,-493.09581150751546) translate(92.62962962962963 65.44444444444446)"/><path d="M-592.7 818.5a8 8 0 0 1 9.6 0l70.4 52.8a4.5 4.5 0 0 1 0 7.2l-70.4 52.8a8 8 0 0 1-9.6 0l-70.4-52.8a4.5 4.5 0 0 1 0-7.2z" stroke="#3a414a" fill="#fff"/><path d="M-462.6 1160c0 11.05-8.94 20-20 20-11.04 0-20-8.95-20-20s8.96-20 20-20c11.06 0 20 8.95 20 20z" stroke="#3a414a"/><path d="M-587.4 1153.98l.07.88.2.84.33.8.45.73.56.66.66.55.74.45.8.33.82.2 63.3.07v1l-63.42-.07-1-.25-.95-.4-.87-.52-.78-.66-.66-.78-.54-.87-.4-.94-.22-.98-.08-1v-97.8h1zm0-119.1h-1V933.9h1z" stroke="#3a414a" stroke-width=".05" fill="#3a414a"/><path d="M-587.9 933.4l.5-.03v.55h-1v-.55z" fill="#3a414a"/><path d="M-587.9 933.38l.52-.03v.6h-1.05v-.6zm-.48.5h.95v-.48l-.47.03-.48-.03z" stroke="#3a414a" stroke-width=".05" fill="#3a414a"/><path d="M-504.7 1160l-14.27 4.64v-9.28z" fill="#3a414a"/><path d="M-503.1 1160l-16.37 5.32v-10.64zm-15.37 3.95l12.14-3.95-12.14-3.95z" stroke="#3a414a" stroke-width=".05" fill="#3a414a"/><use xlink:href="#v" transform="matrix(1,0,0,1,-617.8784099978295,1034.8765636856735) translate(0.004999999999999005 14.222222222222223)"/><path d="M-980-384.13v62.2" stroke="#3a414a" fill="none"/><path d="M-979.5-384.12h-1v-.5h1z" stroke="#3a414a" stroke-width=".05" fill="#3a414a"/><path d="M-980-307.18l-4.64-14.26h9.28z" stroke="#3a414a" fill="#3a414a"/><path d="M-1060-299.1a6 6 0 0 1 6-6h148a6 6 0 0 1 6 6v108a6 6 0 0 1-6 6h-148a6 6 0 0 1-6-6z" stroke="#3a414a" fill="#fff"/><use xlink:href="#w" transform="matrix(1,0,0,1,-1048,-293.09581150751546) translate(9.450617283950606 26.77777777777778)"/><use xlink:href="#x" transform="matrix(1,0,0,1,-1048,-293.09581150751546) translate(18.740740740740733 53.44444444444445)"/><use xlink:href="#j" transform="matrix(1,0,0,1,-1048,-293.09581150751546) translate(100.03703703703704 53.44444444444445)"/><use xlink:href="#y" transform="matrix(1,0,0,1,-1048,-293.09581150751546) translate(34.08024691358025 80.11111111111111)"/><path d="M1046.32 38.92l-.08 1-.24 1-.4.94-.52.87-.67.77-.76.66-.87.54-.94.4-1.02.23-1622.68.07-.88.07-.84.2-.8.34-.74.46-.65.56-.55.65-.45.74-.33.8-.2.82-.07 750h-1l.07-750.1.24-1.02.4-.95.54-.87.66-.77.78-.66.87-.53.94-.38.98-.24 1-.08 1622.62-.07.82-.2.8-.33.73-.45.65-.56.57-.66.45-.74.33-.8.2-.84.07-.88v-144.35h1z" stroke="#3a414a" stroke-width=".05" fill="#3a414a"/><path d="M1046.32-105.45h-1v-.52h1z" fill="#3a414a"/><path d="M1046.34-105.43h-1.05v-.56h1.04zm-1-.5v.45h.95v-.46z" stroke="#3a414a" stroke-width=".05" fill="#3a414a"/><path d="M-587.9 814.8l-4.64-14.28h9.27z" fill="#3a414a"/><path d="M-587.9 816.4l-5.33-16.38h10.65zm-3.95-15.38l3.95 12.15 3.94-12.15z" stroke="#3a414a" stroke-width=".05" fill="#3a414a"/><path d="M-870-499.1a6 6 0 0 1 6-6h148a6 6 0 0 1 6 6v108a6 6 0 0 1-6 6h-148a6 6 0 0 1-6-6z" stroke="#3a414a" fill="#fff"/><use xlink:href="#z" transform="matrix(1,0,0,1,-858,-493.09581150751546) translate(26.734567901234563 38.77777777777778)"/><use xlink:href="#A" transform="matrix(1,0,0,1,-858,-493.09581150751546) translate(18.679012345679013 65.44444444444446)"/><path d="M-680-499.1a6 6 0 0 1 6-6h148a6 6 0 0 1 6 6v108a6 6 0 0 1-6 6h-148a6 6 0 0 1-6-6z" stroke="#3a414a" fill="#fff"/><use xlink:href="#z" transform="matrix(1,0,0,1,-668,-493.09581150751546) translate(26.734567901234563 38.77777777777778)"/><use xlink:href="#B" transform="matrix(1,0,0,1,-668,-493.09581150751546) translate(20.53086419753086 65.44444444444446)"/><path d="M-495.1-499.1a6 6 0 0 1 6-6h148a6 6 0 0 1 6 6v108a6 6 0 0 1-6 6h-148a6 6 0 0 1-6-6z" stroke="#3a414a" fill="#fff"/><use xlink:href="#z" transform="matrix(1,0,0,1,-483.0941188552911,-493.09581150751546) translate(26.734567901234563 26.77777777777778)"/><use xlink:href="#C" transform="matrix(1,0,0,1,-483.0941188552911,-493.09581150751546) translate(19.296296296296305 53.44444444444445)"/><use xlink:href="#j" transform="matrix(1,0,0,1,-483.0941188552911,-493.09581150751546) translate(99.48148148148148 53.44444444444445)"/><use xlink:href="#D" transform="matrix(1,0,0,1,-483.0941188552911,-493.09581150751546) translate(12.475308641975303 80.11111111111111)"/><path d="M-980-839.04v160.5a6 6 0 0 0 6 6h368a6 6 0 0 1 6 6v144.6" stroke="#3a414a" fill="none"/><path d="M-979.5-839.02h-1v-.52h1z" stroke="#3a414a" stroke-width=".05" fill="#3a414a"/><path d="M-600-507.18l-4.64-14.26h9.28z" stroke="#3a414a" fill="#3a414a"/><path d="M-980-839.04v160.5a6 6 0 0 0 6 6h178a6 6 0 0 1 6 6v144.6" stroke="#3a414a" fill="none"/><path d="M-979.5-839.02h-1v-.52h1z" stroke="#3a414a" stroke-width=".05" fill="#3a414a"/><path d="M-790-507.18l-4.64-14.26h9.28z" stroke="#3a414a" fill="#3a414a"/><path d="M-790-384.13v62.2" stroke="#3a414a" fill="none"/><path d="M-789.5-384.12h-1v-.5h1z" stroke="#3a414a" stroke-width=".05" fill="#3a414a"/><path d="M-790-307.18l-4.64-14.26h9.28z" stroke="#3a414a" fill="#3a414a"/><path d="M-870-299.1a6 6 0 0 1 6-6h148a6 6 0 0 1 6 6v108a6 6 0 0 1-6 6h-148a6 6 0 0 1-6-6z" stroke="#3a414a" fill="#fff"/><use xlink:href="#E" transform="matrix(1,0,0,1,-858,-293.09581150751546) translate(10.067901234567898 26.77777777777778)"/><use xlink:href="#F" transform="matrix(1,0,0,1,-858,-293.09581150751546) translate(37.75308641975309 53.44444444444445)"/><use xlink:href="#A" transform="matrix(1,0,0,1,-858,-293.09581150751546) translate(18.679012345679013 80.11111111111111)"/><path d="M-600-384.13v62.2" stroke="#3a414a" fill="none"/><path d="M-599.5-384.12h-1v-.5h1z" stroke="#3a414a" stroke-width=".05" fill="#3a414a"/><path d="M-600-307.18l-4.64-14.26h9.28z" stroke="#3a414a" fill="#3a414a"/><path d="M-680-299.1a6 6 0 0 1 6-6h148a6 6 0 0 1 6 6v108a6 6 0 0 1-6 6h-148a6 6 0 0 1-6-6z" stroke="#3a414a" fill="#fff"/><use xlink:href="#E" transform="matrix(1,0,0,1,-668,-293.09581150751546) translate(10.067901234567898 26.77777777777778)"/><use xlink:href="#G" transform="matrix(1,0,0,1,-668,-293.09581150751546) translate(37.75308641975309 53.44444444444445)"/><use xlink:href="#B" transform="matrix(1,0,0,1,-668,-293.09581150751546) translate(20.53086419753086 80.11111111111111)"/><path d="M840 80.9a6 6 0 0 1 6-6h148a6 6 0 0 1 6 6v118.67a6 6 0 0 1-6 6H846a6 6 0 0 1-6-6z" stroke="#3a414a" fill="#fff"/><use xlink:href="#H" transform="matrix(1,0,0,1,852,86.90418849248469) translate(31.672839506172835 21.12152777777778)"/><use xlink:href="#I" transform="matrix(1,0,0,1,852,86.90418849248469) translate(33.52469135802469 47.78819444444444)"/><use xlink:href="#C" transform="matrix(1,0,0,1,852,86.90418849248469) translate(19.296296296296305 74.45486111111111)"/><use xlink:href="#j" transform="matrix(1,0,0,1,852,86.90418849248469) translate(99.48148148148148 74.45486111111111)"/><use xlink:href="#D" transform="matrix(1,0,0,1,852,86.90418849248469) translate(12.475308641975303 101.12152777777777)"/><path d="M-415.1-384.13v56.85" stroke="#3a414a" fill="none"/><path d="M-414.6-384.12h-1v-.5h1z" stroke="#3a414a" stroke-width=".05" fill="#3a414a"/><path d="M-415.1-312.5l-4.63-14.28h9.27z" stroke="#3a414a" fill="#3a414a"/><path d="M-495.1-304.43a6 6 0 0 1 6-6h148a6 6 0 0 1 6 6v118.67a6 6 0 0 1-6 6h-148a6 6 0 0 1-6-6z" stroke="#3a414a" fill="#fff"/><use xlink:href="#E" transform="matrix(1,0,0,1,-483.0941188552911,-298.42914484084946) translate(10.067901234567898 21.12152777777778)"/><use xlink:href="#F" transform="matrix(1,0,0,1,-483.0941188552911,-298.42914484084946) translate(37.75308641975309 47.78819444444444)"/><use xlink:href="#C" transform="matrix(1,0,0,1,-483.0941188552911,-298.42914484084946) translate(19.296296296296305 74.45486111111111)"/><use xlink:href="#j" transform="matrix(1,0,0,1,-483.0941188552911,-298.42914484084946) translate(99.48148148148148 74.45486111111111)"/><use xlink:href="#D" transform="matrix(1,0,0,1,-483.0941188552911,-298.42914484084946) translate(12.475308641975303 101.12152777777777)"/><path d="M-414.6-91.12l.08.88.2.84.33.8.46.74.56.65.65.55.74.45.8.33.83.2 1324 .07 1 .08.98.24.95.4.87.52.78.67.66.78.53.87.38.95.25 1 .07 138.16h-1l-.07-138.04-.2-.8-.33-.8-.45-.75-.56-.65-.67-.56-.73-.45-.8-.33-.84-.2-.88-.07-1324.07-.07-1-.24-.95-.4-.87-.54-.77-.66-.65-.77-.54-.87-.38-.95-.24-.98-.07-1v-87.72h1z" stroke="#3a414a" stroke-width=".05" fill="#3a414a"/><path d="M-414.6-178.8h-1v-.5h1z" fill="#3a414a"/><path d="M-414.57-178.76h-1.05v-.56h1.05zm-1-.5v.45h.95v-.47z" stroke="#3a414a" stroke-width=".05" fill="#3a414a"/><path d="M920 72.82l-4.64-14.26h9.28z" fill="#3a414a"/><path d="M920 74.44l-5.32-16.38h10.64zm-3.95-15.38L920 71.2l3.95-12.14z" stroke="#3a414a" stroke-width=".05" fill="#3a414a"/><path d="M915.2 378.5a8 8 0 0 1 9.6 0l70.4 52.8a4.5 4.5 0 0 1 0 7.2l-70.4 52.8a8 8 0 0 1-9.6 0l-70.4-52.8a4.5 4.5 0 0 1 0-7.2zM1400 380.9a6 6 0 0 1 6-6h148a6 6 0 0 1 6 6v108a6 6 0 0 1-6 6h-148a6 6 0 0 1-6-6z" stroke="#3a414a" fill="#fff"/><use xlink:href="#H" transform="matrix(1,0,0,1,1412,386.90418849248454) translate(31.672839506172835 39.111111111111114)"/><use xlink:href="#J" transform="matrix(1,0,0,1,1412,386.90418849248454) translate(-3.5123456790123413 65.77777777777777)"/><path d="M1167.5 435.4H998v-1h169.5zm215.65 0h-153.62v-1h153.62z" stroke="#3a414a" stroke-width=".05" fill="#3a414a"/><path d="M998 435.4h-.54l.04-.5-.04-.5h.55z" fill="#3a414a"/><path d="M998.04 435.43h-.6l.04-.53-.05-.52h.6zm-.56-1l.05.47-.05.48h.5v-.95z" stroke="#3a414a" stroke-width=".05" fill="#3a414a"/><path d="M1397.92 434.9l-14.27 4.64v-9.27z" fill="#3a414a"/><path d="M1399.54 434.9l-16.4 5.33v-10.65zm-15.4 3.95l12.16-3.95-12.15-3.94z" stroke="#3a414a" stroke-width=".05" fill="#3a414a"/><use xlink:href="#K" transform="matrix(1,0,0,1,1167.5070412060188,424.23752182581785) translate(0.004999999999999005 14.222222222222223)"/><path d="M920 206.53v153.5" stroke="#3a414a" fill="none"/><path d="M920.5 206.55h-1v-.52h1z" stroke="#3a414a" stroke-width=".05" fill="#3a414a"/><path d="M920 374.8l-4.64-14.28h9.28z" stroke="#3a414a" fill="#3a414a"/><path d="M1800.7 435.4l-18.5.08-.8.2-.8.33-.75.46-.65.56-.56.65-.45.74-.34.8-.2.84-.07.88-.1 87.48-.23 1-.4.96-.52.87-.67.77-.77.67-.86.53-.95.4-1 .23-1 .08-588.82-.05v-1l588.8.06.87-.06.83-.2.8-.34.74-.45.65-.56.56-.66.45-.74.33-.8.2-.82.1-87.4.06-1 .24-.98.4-.95.53-.87.66-.77.76-.66.87-.53.95-.38 1-.24 18.62-.08zm-880.2 92l.07.87.2.83.33.8.45.74.56.65.67.55.73.45.8.33.82.2 187.13.02v1L925 533.83l-1-.24-.95-.4-.87-.53-.78-.67-.66-.77-.53-.87-.38-.95-.24-.98-.08-1v-33.5h1z" stroke="#3a414a" stroke-width=".05" fill="#3a414a"/><path d="M920 493.4l.5-.03v.55h-1v-.55z" fill="#3a414a"/><path d="M920 493.38l.52-.03v.6h-1.04v-.6zm-.48.5h.96v-.48l-.48.03-.48-.03z" stroke="#3a414a" stroke-width=".05" fill="#3a414a"/><path d="M1815.47 434.9l-14.27 4.64v-9.27z" fill="#3a414a"/><path d="M1817.1 434.9l-16.4 5.33v-10.65zm-15.4 3.95l12.15-3.95-12.15-3.94z" stroke="#3a414a" stroke-width=".05" fill="#3a414a"/><use xlink:href="#L" transform="matrix(1,0,0,1,1112.2528289327606,522.7385382843512) translate(0.005000000000002558 14.222222222222223)"/><path d="M1817.55 380.9a6 6 0 0 1 6-6h148a6 6 0 0 1 6 6v108a6 6 0 0 1-6 6h-148a6 6 0 0 1-6-6z" stroke="#3a414a" fill="#fff"/><use xlink:href="#H" transform="matrix(1,0,0,1,1829.5489261685643,386.90418849248454) translate(31.672839506172835 39.111111111111114)"/><use xlink:href="#J" transform="matrix(1,0,0,1,1829.5489261685643,386.90418849248454) translate(-3.5123456790123413 65.77777777777777)"/><path d="M1892.75 578.5a8 8 0 0 1 9.6 0l70.4 52.8a4.5 4.5 0 0 1 0 7.2l-70.4 52.8a8 8 0 0 1-9.6 0l-70.4-52.8a4.5 4.5 0 0 1 0-7.2z" stroke="#3a414a" fill="#fff"/><path d="M1897.55 495.87v64.15" stroke="#3a414a" fill="none"/><path d="M1898.05 495.88h-1v-.5h1z" stroke="#3a414a" stroke-width=".05" fill="#3a414a"/><path d="M1897.55 574.8l-4.64-14.28h9.28z" stroke="#3a414a" fill="#3a414a"/><path d="M2010.05-351.32l1 .24.95.4.87.53.78.66.66.8.54.86.4.94.23 1 .08 1-.07 974.8-.25 1-.4.96-.52.87-.65.77-.78.66-.87.54-.94.4-1 .23-1 .07h-33.5v-1h33.47l.88-.07.85-.2.8-.33.73-.45.66-.56.56-.66.45-.74.33-.8.2-.82.07-974.65-.07-.88-.2-.84-.33-.8-.45-.72-.56-.66-.66-.56-.73-.45-.8-.32-.82-.2h-86.5v-1zm-223.6 0v1l-2195.52-.07-.88.08-.84.2-.8.33-.73.46-.65.56-.56.66-.45.73-.32.8-.2.83-.07 18.5h-1l.08-18.62.24-1 .4-.94.53-.87.66-.8.78-.65.87-.54.95-.38 1-.23 1-.1z" stroke="#3a414a" stroke-width=".05" fill="#3a414a"/><path d="M1975.56 635.4h-.56l.05-.5-.05-.5h.56z" fill="#3a414a"/><path d="M1975.6 635.43h-.62l.05-.53-.05-.52h.6zm-.57-1l.05.47-.05.48h.5v-.95z" stroke="#3a414a" stroke-width=".05" fill="#3a414a"/><path d="M-415.1-312.5l-4.63-14.28h9.27z" fill="#3a414a"/><path d="M-415.1-310.9l-5.32-16.38h10.65zm-3.94-15.38l3.95 12.15 3.95-12.15z" stroke="#3a414a" stroke-width=".05" fill="#3a414a"/><use xlink:href="#M" transform="matrix(1,0,0,1,1786.4400311072227,-361.5590670991091) translate(0.0049999999999954525 14.222222222222223)"/><use xlink:href="#N" transform="matrix(1,0,0,1,1786.4400311072227,-361.5590670991091) translate(73.98030864197531 14.222222222222223)"/><path d="M1185.1 715.4h-168.25v-1h168.25zm712.95-6.48l-.08 1-.24 1-.4.94-.52.87-.65.77-.78.66-.87.54-.94.4-1 .23-542.86.05v-1l542.73-.05.82-.2.8-.33.73-.45.66-.56.56-.66.45-.74.33-.8.2-.84.07-.88V693.9h1z" stroke="#3a414a" stroke-width=".05" fill="#3a414a"/><path d="M1897.55 693.4l.5-.03v.55h-1v-.55z" fill="#3a414a"/><path d="M1897.55 693.38l.52-.03v.6h-1.05v-.6zm-.48.5h.95v-.48l-.47.03-.48-.03z" stroke="#3a414a" stroke-width=".05" fill="#3a414a"/><path d="M1016.35 719.54l-14.27-4.64 14.27-4.63z" fill="#3a414a"/><path d="M1016.85 720.23l-16.4-5.33 16.4-5.32zm-13.15-5.33l12.15 3.95v-7.9z" stroke="#3a414a" stroke-width=".05" fill="#3a414a"/><use xlink:href="#M" transform="matrix(1,0,0,1,1185.1042286380864,704.2375218258179) translate(0.0049999999999954525 14.222222222222223)"/><use xlink:href="#O" transform="matrix(1,0,0,1,1185.1042286380864,704.2375218258179) translate(73.98030864197531 14.222222222222223)"/><path d="M840 660.9a6 6 0 0 1 6-6h148a6 6 0 0 1 6 6v108a6 6 0 0 1-6 6H846a6 6 0 0 1-6-6z" stroke="#3a414a" fill="#fff"/><use xlink:href="#P" transform="matrix(1,0,0,1,852,666.9041884924845) translate(-7.216049382716051 25.77777777777778)"/><use xlink:href="#Q" transform="matrix(1,0,0,1,852,666.9041884924845) translate(14.41975308641976 52.44444444444445)"/><use xlink:href="#j" transform="matrix(1,0,0,1,852,666.9041884924845) translate(104.35802469135803 52.44444444444445)"/><use xlink:href="#D" transform="matrix(1,0,0,1,852,666.9041884924845) translate(12.475308641975303 79.11111111111111)"/><path d="M839.04 714.9H-581.9a6 6 0 0 0-6 6v79.12" stroke="#3a414a" fill="none"/><path d="M839.54 715.4h-.52v-1h.52z" stroke="#3a414a" stroke-width=".05" fill="#3a414a"/><path d="M-587.9 814.8l-4.64-14.28h9.27z" stroke="#3a414a" fill="#3a414a"/><path d="M1472.66 578.5a8 8 0 0 1 9.6 0l70.4 52.8a4.5 4.5 0 0 1 0 7.2l-70.4 52.8a8 8 0 0 1-9.6 0l-70.4-52.8a4.5 4.5 0 0 1 0-7.2z" stroke="#3a414a" fill="#fff"/><path d="M1480 495.87v64.55" stroke="#3a414a" fill="none"/><path d="M1480.5 495.88h-1v-.5h1z" stroke="#3a414a" stroke-width=".05" fill="#3a414a"/><path d="M1480 575.2l-4.64-14.28h9.28z" stroke="#3a414a" fill="#3a414a"/><path d="M1185.1 715.38l-168.25.02v-1l168.25-.02zm292.86-6.46l-.07 1-.25 1-.4.94-.53.87-.66.77-.77.66-.88.54-.95.4-1 .23-122.77.02v-1l122.64-.02.82-.2.8-.33.74-.45.65-.56.56-.66.46-.74.33-.8.2-.84.06-.88V693.9h1z" stroke="#3a414a" stroke-width=".05" fill="#3a414a"/><path d="M1477.46 693.4l.5-.03v.55h-1v-.55z" fill="#3a414a"/><path d="M1477.46 693.38l.53-.03v.6h-1.06v-.6zm-.47.5h.94v-.48l-.48.03-.47-.03z" stroke="#3a414a" stroke-width=".05" fill="#3a414a"/><path d="M1016.35 719.54l-14.27-4.64 14.27-4.63z" fill="#3a414a"/><path d="M1016.85 720.23l-16.4-5.33 16.4-5.32zm-13.15-5.33l12.15 3.95v-7.9zM1589.96-351.32l1.02.24.94.4.87.53.76.66.67.8.53.86.4.94.23 1 .07 1-.08 974.8-.25 1-.4.96-.52.87-.67.77-.77.66-.88.54-.94.4-1 .23-1 .07h-33.5v-1h33.47l.88-.07.84-.2.8-.33.73-.45.65-.56.57-.66.45-.74.33-.8.2-.82.07-974.65-.07-.88-.2-.84-.33-.8-.45-.72-.57-.66-.65-.56-.74-.45-.8-.32-.8-.2-1998.93-.07-.88.08-.84.2-.8.33-.73.46-.65.56-.56.66-.45.73-.32.8-.2.83-.07 18.5h-1l.08-18.62.24-1 .4-.94.53-.87.66-.8.78-.65.87-.54.95-.38 1-.23 1-.1z" stroke="#3a414a" stroke-width=".05" fill="#3a414a"/><path d="M1555.48 635.4h-.56l.05-.5-.05-.5h.56z" fill="#3a414a"/><path d="M1555.5 635.43h-.6l.04-.53-.05-.52h.6zm-.55-1l.04.47-.05.48h.5v-.95z" stroke="#3a414a" stroke-width=".05" fill="#3a414a"/><path d="M-415.1-312.5l-4.63-14.28h9.27z" fill="#3a414a"/><path d="M-415.1-310.9l-5.32-16.38h10.65zm-3.94-15.38l3.95 12.15 3.95-12.15zM-599.5-51.12l.07.88.2.84.33.8.45.74.56.65.67.55.73.45.8.33.82.2 808.9.07 1 .08 1 .24.93.4.87.52.78.67.66.78.53.87.38.95.25 1 .07 118.16h-1l-.07-118.04-.2-.8-.33-.8-.45-.75-.56-.65-.67-.56-.73-.45-.8-.33-.84-.2-.88-.07-808.98-.07-1-.24-.95-.4-.87-.54-.78-.66-.66-.77-.53-.87-.38-.95-.24-.98-.08-1v-133.05h1z" stroke="#3a414a" stroke-width=".05" fill="#3a414a"/><path d="M-599.5-184.12h-1v-.5h1z" fill="#3a414a"/><path d="M-599.48-184.1h-1.04v-.56h1.04zm-1-.5v.46h.96v-.47z" stroke="#3a414a" stroke-width=".05" fill="#3a414a"/><path d="M220 92.82l-4.64-14.26h9.28z" fill="#3a414a"/><path d="M220 94.44l-5.32-16.38h10.64zm-3.95-15.38L220 91.2l3.95-12.14z" stroke="#3a414a" stroke-width=".05" fill="#3a414a"/><path d="M140 100.9a6 6 0 0 1 6-6h148a6 6 0 0 1 6 6v108a6 6 0 0 1-6 6H146a6 6 0 0 1-6-6z" stroke="#3a414a" fill="#fff"/><use xlink:href="#P" transform="matrix(1,0,0,1,152.00000000000045,106.90418849248454) translate(-7.216049382716051 39.111111111111114)"/><use xlink:href="#B" transform="matrix(1,0,0,1,152.00000000000045,106.90418849248454) translate(20.53086419753086 65.77777777777777)"/><path d="M-789.5-151.12l.07.88.2.84.33.8.45.74.56.65.67.55.73.45.8.33.82.2 1498.9.07 1 .08 1 .24.93.4.87.52.78.67.66.78.53.87.38.95.25 1 .07 178.16h-1l-.07-178.04-.2-.8-.33-.8-.45-.75-.56-.65-.67-.56-.73-.45-.8-.33-.84-.2-.88-.07-1498.98-.07-1-.24-.95-.4-.87-.54-.78-.66-.66-.77-.53-.87-.38-.95-.24-.98-.08-1v-33.05h1z" stroke="#3a414a" stroke-width=".05" fill="#3a414a"/><path d="M-789.5-184.12h-1v-.5h1z" fill="#3a414a"/><path d="M-789.48-184.1h-1.04v-.56h1.04zm-1-.5v.46h.96v-.47z" stroke="#3a414a" stroke-width=".05" fill="#3a414a"/><path d="M720 52.82l-4.64-14.26h9.28z" fill="#3a414a"/><path d="M720 54.44l-5.32-16.38h10.64zm-3.95-15.38L720 51.2l3.95-12.14z" stroke="#3a414a" stroke-width=".05" fill="#3a414a"/><path d="M640 60.9a6 6 0 0 1 6-6h148a6 6 0 0 1 6 6v108a6 6 0 0 1-6 6H646a6 6 0 0 1-6-6z" stroke="#3a414a" fill="#fff"/><use xlink:href="#H" transform="matrix(1,0,0,1,652,66.90418849248454) translate(31.672839506172835 38.77777777777778)"/><use xlink:href="#R" transform="matrix(1,0,0,1,652,66.90418849248454) translate(5.129629629629633 65.44444444444446)"/><use xlink:href="#S" transform="matrix(1,0,0,1,652,66.90418849248454) translate(75.37654320987654 65.44444444444446)"/><path d="M715.2 258.5a8 8 0 0 1 9.6 0l70.4 52.8a4.5 4.5 0 0 1 0 7.2l-70.4 52.8a8 8 0 0 1-9.6 0l-70.4-52.8a4.5 4.5 0 0 1 0-7.2z" stroke="#3a414a" fill="#fff"/><path d="M720.5 478.06h-1V444.6h1zm0-54.8h-1V373.9h1z" stroke="#3a414a" stroke-width=".05" fill="#3a414a"/><path d="M720 373.4l.5-.03v.55h-1v-.55z" fill="#3a414a"/><path d="M720 373.38l.52-.03v.6h-1.04v-.6zm-.48.5h.96v-.48l-.48.03-.48-.03z" stroke="#3a414a" stroke-width=".05" fill="#3a414a"/><path d="M720 492.82l-4.64-14.26h9.28z" fill="#3a414a"/><path d="M720 494.44l-5.32-16.38h10.64zm-3.95-15.38L720 491.2l3.95-12.14z" stroke="#3a414a" stroke-width=".05" fill="#3a414a"/><use xlink:href="#T" transform="matrix(1,0,0,1,689.5061728395061,423.256402259288) translate(0.004999999999999005 14.222222222222223)"/><path d="M815-120.43l1 .25.95.4.87.52.78.66.66.78.53.87.38.94.24.98.08 1-.07 423.92-.25 1-.4.96-.52.87-.66.77-.78.66-.87.54-.94.4-.98.23-1 .07H798v-1h15.98l.88-.07.84-.2.8-.33.73-.45.66-.56.55-.66.45-.74.33-.8.2-.82.07-423.76-.07-.88-.2-.84-.33-.8-.45-.73-.56-.66-.67-.55-.73-.45-.8-.33-.82-.2-654.77-.03v-1zM-695-346l1 .26.95.4.87.52.78.66.66.78.53.87.38.93.24 1 .08 1 .07 214.45.2.82.33.8.45.73.56.66.67.55.73.45.8.33.84.2.88.07 745.72.04v1l-745.76-.04-1-.08-1-.24-.93-.4-.87-.52-.78-.66-.66-.78-.53-.87-.38-.94-.25-1-.07-214.54-.07-.88-.2-.84-.33-.8-.45-.73-.56-.65-.67-.56-.73-.46-.8-.33-.82-.2-88.86-.06-.88.07-.84.2-.8.34-.73.45-.66.55-.55.66-.45.74-.33.8-.2.82-.07 18.5h-1l.07-18.62.25-1 .4-.95.52-.88.66-.78.78-.66.87-.53.94-.4.98-.23 1-.08z" stroke="#3a414a" stroke-width=".05" fill="#3a414a"/><path d="M798 315.4h-.54l.04-.5-.04-.5h.55z" fill="#3a414a"/><path d="M798.04 315.43h-.6l.04-.53-.05-.52h.6zm-.56-1l.05.47-.05.48h.5v-.95z" stroke="#3a414a" stroke-width=".05" fill="#3a414a"/><path d="M-790-307.18l-4.64-14.26h9.28z" fill="#3a414a"/><path d="M-790-305.56l-5.32-16.38h10.64zm-3.95-15.38l3.95 12.14 3.95-12.14z" stroke="#3a414a" stroke-width=".05" fill="#3a414a"/><use xlink:href="#U" transform="matrix(1,0,0,1,61.73631802199819,-130.66666666666666) translate(0.005000000000002558 14.222222222222223)"/><use xlink:href="#V" transform="matrix(1,0,0,1,61.73631802199819,-130.66666666666666) translate(45.23956790123457 14.222222222222223)"/><path d="M720 175.87v64.15" stroke="#3a414a" fill="none"/><path d="M720.5 175.88h-1v-.5h1z" stroke="#3a414a" stroke-width=".05" fill="#3a414a"/><path d="M720 254.8l-4.64-14.28h9.28z" stroke="#3a414a" fill="#3a414a"/><path d="M640 500.9a6 6 0 0 1 6-6h148a6 6 0 0 1 6 6v108a6 6 0 0 1-6 6H646a6 6 0 0 1-6-6z" stroke="#3a414a" fill="#fff"/><use xlink:href="#P" transform="matrix(1,0,0,1,652,506.90418849248454) translate(-7.216049382716051 39.111111111111114)"/><use xlink:href="#A" transform="matrix(1,0,0,1,652,506.90418849248454) translate(18.679012345679013 65.77777777777777)"/><path d="M720 615.87v94.02a6 6 0 0 1-6 6H-581.9a6 6 0 0 0-6 6V800" stroke="#3a414a" fill="none"/><path d="M720.5 615.88h-1v-.5h1z" stroke="#3a414a" stroke-width=".05" fill="#3a414a"/><path d="M-587.9 814.8l-4.64-14.28h9.27z" stroke="#3a414a" fill="#3a414a"/><path d="M220.5 509.9l-.08 1-.24 1-.4.94-.52.87-.66.78-.78.67-.87.53-.94.4-1 .23-796.88.1-.88.05-.84.2-.8.34-.74.44-.65.56-.55.65-.45.74-.33.8-.2.8-.07 279.02h-1l.07-279.13.24-1.02.4-.95.54-.87.66-.77.78-.67.87-.54.94-.4.98-.24 1-.07 796.8-.1.82-.2.8-.32.73-.45.66-.56.55-.65.45-.74.33-.8.2-.83.07-.88v-294h1z" stroke="#3a414a" stroke-width=".05" fill="#3a414a"/><path d="M220.5 215.88h-1v-.5h1z" fill="#3a414a"/><path d="M220.53 215.9h-1.06v-.56h1.06zm-1-.5v.46h.94v-.47z" stroke="#3a414a" stroke-width=".05" fill="#3a414a"/><path d="M-587.9 814.8l-4.64-14.28h9.27z" fill="#3a414a"/><path d="M-587.9 816.4l-5.33-16.38h10.65zm-3.95-15.38l3.95 12.15 3.94-12.15zM-984.98-565.52l1 .24.93.4.87.52.78.67.66.78.53.87.38.95.25 1 .07 54.04h-1l-.07-53.9-.2-.83-.33-.8-.45-.73-.56-.65-.67-.56-.73-.45-.8-.33-.84-.2-.88-.07-128.86.08-.82.2-.8.33-.73.46-.66.56-.55.65-.45.74-.33.8-.2.84-.07.88.07 1428.86.2.82.33.8.45.74.56.65.67.55.73.45.8.33.84.2.88.07h55v1h-55.04l-1-.07-1-.24-.93-.4-.87-.54-.78-.66-.66-.77-.53-.87-.38-.95-.25-1-.07-1429.02.08-1 .24-.98.4-.95.52-.87.66-.77.78-.66.87-.53.94-.38 1-.24 129.02-.08zM-665.9 874.4v1h-252.24v-1z" stroke="#3a414a" stroke-width=".05" fill="#3a414a"/><path d="M-665.4 874.9l.04.5h-.56v-1h.56z" fill="#3a414a"/><path d="M-665.38 874.9l.05.53h-.6v-1.05h.6zm-.5-.47v.95h.5l-.05-.48.04-.47z" stroke="#3a414a" stroke-width=".05" fill="#3a414a"/><path d="M-979.5-505.56h-1v-.5h1z" fill="#3a414a"/><path d="M-979.48-505.53h-1.04v-.57h1.04zm-1-.52v.47h.96v-.47z" stroke="#3a414a" stroke-width=".05" fill="#3a414a"/><g><use xlink:href="#W" transform="matrix(1,0,0,1,-1058.9839885434476,864.2375218258167) translate(0.0049999999999954525 14.222222222222223)"/><use xlink:href="#X" transform="matrix(1,0,0,1,-1058.9839885434476,864.2375218258167) translate(51.214876543209876 14.222222222222223)"/></g><path d="M-984.8 38.5a8 8 0 0 1 9.6 0l70.4 52.8a4.5 4.5 0 0 1 0 7.2l-70.4 52.8a8 8 0 0 1-9.6 0l-70.4-52.8a4.5 4.5 0 0 1 0-7.2z" stroke="#3a414a" fill="#fff"/><path d="M-980-184.13V35.9" stroke="#3a414a" fill="none"/><path d="M-979.5-184.12h-1v-.5h1zM-979.5 36.44l-.5-.04-.5.04v-.55h1zM438.47 314.4v1l-780.1-.03v-1zM-1058 95.4h-33.48l-.88.07-.84.2-.8.34-.73.46-.66.56-.55.65-.45.74-.33.8-.2.82-.07 208.86.07.88.2.84.33.8.45.74.56.65.67.55.73.45.8.33.82.2 618.66.03v1l-618.78-.03-1-.24-.95-.4-.87-.54-.78-.66-.66-.77-.54-.87-.4-.95-.22-.98-.08-1 .07-209 .24-1.02.4-.95.54-.87.66-.77.78-.66.87-.53.94-.38.98-.24 1-.08h33.52z" stroke="#3a414a" stroke-width=".05" fill="#3a414a"/><path d="M-1057.5 94.9l.04.5h-.55v-1h.54z" fill="#3a414a"/><path d="M-1057.48 94.9l.05.53h-.6v-1.05h.6zm-.5-.47v.95h.5l-.05-.48.05-.47z" stroke="#3a414a" stroke-width=".05" fill="#3a414a"/><path d="M438.97 315.4h-.5v-1h.5z" fill="#3a414a"/><path d="M439 315.43h-.57v-1.05h.56zm-.52-1v.95h.47v-.95z" stroke="#3a414a" stroke-width=".05" fill="#3a414a"/><g><use xlink:href="#Y" transform="matrix(1,0,0,1,-473.7155244483331,304.23752182581785) translate(0.0049999999999954525 14.222222222222223)"/><use xlink:href="#Z" transform="matrix(1,0,0,1,-473.7155244483331,304.23752182581785) translate(76.40006172839506 14.222222222222223)"/></g><path d="M-231.26 308.88l.07.88.2.84.34.8.45.74.55.65.65.55.74.45.8.33.82.2 665.1.07v1l-665.22-.07-1-.24-.96-.4-.87-.54-.76-.66-.66-.77-.54-.87-.4-.95-.23-.98-.06-1-.04-93.35h1zm-5.5-214.4l1 .24.95.4.86.52.77.67.67.78.53.87.4.95.23 1 .04 94.34h-1l-.04-94.22-.2-.8-.32-.8-.46-.75-.56-.65-.65-.56-.74-.45-.8-.33-.83-.2-.88-.07H-902v-1h664.26z" stroke="#3a414a" stroke-width=".05" fill="#3a414a"/><path d="M-902 95.4h-.54l.04-.5-.04-.5h.55z" fill="#3a414a"/><path d="M-901.96 95.43h-.6l.04-.53-.05-.52h.6zm-.56-1l.05.47-.05.48h.5v-.95z" stroke="#3a414a" stroke-width=".05" fill="#3a414a"/><path d="M438.97 315.4h-.5v-1h.5z" fill="#3a414a"/><path d="M439 315.43h-.57v-1.05h.56zm-.52-1v.95h.47v-.95z" stroke="#3a414a" stroke-width=".05" fill="#3a414a"/><g><use xlink:href="#aa" transform="matrix(1,0,0,1,-307.665254869784,194.23752182581788) translate(0.0049999999999954525 14.222222222222223)"/></g><path d="M439.43 260.9a6 6 0 0 1 6-6h148a6 6 0 0 1 6 6v108a6 6 0 0 1-6 6h-148a6 6 0 0 1-6-6z" stroke="#3a414a" fill="#fff"/><g><use xlink:href="#P" transform="matrix(1,0,0,1,451.4331856261724,266.90418849248454) translate(-7.216049382716051 25.77777777777778)"/><use xlink:href="#ab" transform="matrix(1,0,0,1,451.4331856261724,266.90418849248454) translate(0.8703703703703667 52.44444444444445)"/><use xlink:href="#x" transform="matrix(1,0,0,1,451.4331856261724,266.90418849248454) translate(36.61111111111111 52.44444444444445)"/><use xlink:href="#j" transform="matrix(1,0,0,1,451.4331856261724,266.90418849248454) translate(117.9074074074074 52.44444444444445)"/><use xlink:href="#y" transform="matrix(1,0,0,1,451.4331856261724,266.90418849248454) translate(34.08024691358025 79.11111111111111)"/></g><path d="M519.43 375.87v81.92a6 6 0 0 1-6 6H-587.4" stroke="#3a414a" fill="none"/><path d="M519.93 375.88h-1v-.5h1z" stroke="#3a414a" stroke-width=".05" fill="#3a414a"/><path d="M-587.4 463.8h-.5" stroke="#3a414a" fill="none"/><path d="M615.2-676.4a8 8 0 0 1 9.6 0l70.4 52.8a4.5 4.5 0 0 1 0 7.2l-70.4 52.8a8 8 0 0 1-9.6 0l-70.4-52.8a4.5 4.5 0 0 1 0-7.2z" stroke="#3a414a" fill="#fff"/><path d="M-899.04-900H614a6 6 0 0 1 6 6v199.12" stroke="#3a414a" fill="none"/><path d="M-899.02-899.5h-.52v-1h.52z" stroke="#3a414a" stroke-width=".05" fill="#3a414a"/><path d="M620-680.12l-4.64-14.26h9.28z" stroke="#3a414a" fill="#3a414a"/><path d="M99.38-619.5h-508.45l-.88.07-.84.2-.8.33-.73.45-.65.56-.56.67-.45.73-.32.8-.2.82-.07 92.94h-1l.08-93.06.24-1 .4-.95.53-.87.66-.78.78-.66.87-.53.95-.38 1-.24 1-.08H99.37zm442.62 0H270.9v-1H542z" stroke="#3a414a" stroke-width=".05" fill="#3a414a"/><path d="M542.5-620l.04.5H542v-1h.54z" fill="#3a414a"/><path d="M542.52-620l.05.52h-.6v-1.04h.6zm-.5-.48v.96h.5l-.05-.48.05-.48z" stroke="#3a414a" stroke-width=".05" fill="#3a414a"/><path d="M-415.1-507.18l-4.63-14.26h9.27z" fill="#3a414a"/><path d="M-415.1-505.56l-5.32-16.38h10.65zm-3.94-15.38l3.95 12.14 3.95-12.14z" stroke="#3a414a" stroke-width=".05" fill="#3a414a"/><g><use xlink:href="#ac" transform="matrix(1,0,0,1,99.38273618530891,-630.6666666666666) translate(0.0049999999999954525 14.222222222222223)"/><use xlink:href="#ad" transform="matrix(1,0,0,1,99.38273618530891,-630.6666666666666) translate(86.17783950617283 14.222222222222223)"/></g><path d="M732.5-943.84l1 .25.95.4.87.53.78.66.66.77.54.87.4.94.22 1 .08 1-.07 312.42-.24 1-.4.95-.54.87-.66.78-.78.66-.87.53-.94.38-.98.24-1 .08H698v-1h33.48l.88-.07.84-.2.8-.33.73-.45.66-.56.55-.67.45-.73.33-.8.2-.82.07-312.27-.07-.87-.2-.84-.33-.8-.45-.74-.56-.66-.67-.56-.73-.45-.8-.34-.82-.2-461.54-.02v-1zm-633.07-.02v1l-982.6-.05v-1z" stroke="#3a414a" stroke-width=".05" fill="#3a414a"/><path d="M698-619.5h-.54l.04-.5-.04-.5h.55z" fill="#3a414a"/><path d="M698.04-619.48h-.6l.04-.52-.05-.52h.6zm-.56-1l.05.48-.05.48h.5v-.96z" stroke="#3a414a" stroke-width=".05" fill="#3a414a"/><path d="M-883.68-938.77l-14.27-4.64 14.27-4.64z" fill="#3a414a"/><path d="M-883.18-938.1l-16.4-5.3 16.4-5.33zm-13.15-5.3l12.15 3.94v-7.9z" stroke="#3a414a" stroke-width=".05" fill="#3a414a"/><g><use xlink:href="#ac" transform="matrix(1,0,0,1,99.43211890135831,-954.0763334529516) translate(0.0049999999999954525 14.222222222222223)"/><use xlink:href="#ae" transform="matrix(1,0,0,1,99.43211890135831,-954.0763334529516) translate(86.17783950617283 14.222222222222223)"/></g><path d="M2160.5-222.04" stroke="#3a414a" fill="none"/><path stroke="#3a414a" stroke-width=".05" fill="#3a414a"/><path stroke="#3a414a" stroke-width=".05" fill="#3a414a"/><path d="M-1560-954a6 6 0 0 1 6-6h228a6 6 0 0 1 6 6v48a6 6 0 0 1-6 6h-228a6 6 0 0 1-6-6z" stroke="#000" stroke-opacity="0" fill="#fff" fill-opacity="0"/><g><use xlink:href="#af" transform="matrix(1,0,0,1,-1555,-955) translate(96.44135802469135 28.069444444444446)"/><use xlink:href="#ag" transform="matrix(1,0,0,1,-1555,-955) translate(100.76234567901234 28.069444444444446)"/></g><defs><path fill="#3a414a" d="M232-93c-1 65-40 97-104 97C67 4 28-28 28-90v-158h33c8 89-33 224 67 224 102 0 64-133 71-224h33v155" id="ah"/><path fill="#3a414a" d="M59-47c-2 24 18 29 38 22v24C64 9 27 4 27-40v-127H5v-23h24l9-43h21v43h35v23H59v120" id="ai"/><path fill="#3a414a" d="M100-194c63 0 86 42 84 106H49c0 40 14 67 53 68 26 1 43-12 49-29l28 8c-11 28-37 45-77 45C44 4 14-33 15-96c1-61 26-98 85-98zm52 81c6-60-76-77-97-28-3 7-6 17-6 28h103" id="aj"/><path fill="#3a414a" d="M117-194c89-4 53 116 60 194h-32v-121c0-31-8-49-39-48C34-167 62-67 57 0H25l-1-190h30c1 10-1 24 2 32 11-22 29-35 61-36" id="ak"/><g id="a"><use transform="matrix(0.06172839506172839,0,0,0.06172839506172839,0,0)" xlink:href="#ah"/><use transform="matrix(0.06172839506172839,0,0,0.06172839506172839,15.987654320987653,0)" xlink:href="#ai"/><use transform="matrix(0.06172839506172839,0,0,0.06172839506172839,22.160493827160494,0)" xlink:href="#aj"/><use transform="matrix(0.06172839506172839,0,0,0.06172839506172839,34.50617283950617,0)" xlink:href="#ak"/><use transform="matrix(0.06172839506172839,0,0,0.06172839506172839,46.85185185185185,0)" xlink:href="#ai"/><use transform="matrix(0.06172839506172839,0,0,0.06172839506172839,53.02469135802469,0)" xlink:href="#aj"/></g><path fill="#3a414a" d="M205 0l-28-72H64L36 0H1l101-248h38L239 0h-34zm-38-99l-47-123c-12 45-31 82-46 123h93" id="al"/><path fill="#3a414a" d="M84 4C-5 8 30-112 23-190h32v120c0 31 7 50 39 49 72-2 45-101 50-169h31l1 190h-30c-1-10 1-25-2-33-11 22-28 36-60 37" id="am"/><path fill="#3a414a" d="M106-169C34-169 62-67 57 0H25v-261h32l-1 103c12-21 28-36 61-36 89 0 53 116 60 194h-32v-121c2-32-8-49-39-48" id="an"/><path fill="#3a414a" d="M101-251c68 0 85 55 85 127S166 4 100 4C33 4 14-52 14-124c0-73 17-127 87-127zm-1 229c47 0 54-49 54-102s-4-102-53-102c-51 0-55 48-55 102 0 53 5 102 54 102" id="ao"/><g id="b"><use transform="matrix(0.06172839506172839,0,0,0.06172839506172839,0,0)" xlink:href="#al"/><use transform="matrix(0.06172839506172839,0,0,0.06172839506172839,14.814814814814813,0)" xlink:href="#am"/><use transform="matrix(0.06172839506172839,0,0,0.06172839506172839,27.160493827160494,0)" xlink:href="#ai"/><use transform="matrix(0.06172839506172839,0,0,0.06172839506172839,33.333333333333336,0)" xlink:href="#an"/><use transform="matrix(0.06172839506172839,0,0,0.06172839506172839,45.67901234567901,0)" xlink:href="#ao"/></g><path fill="#3a414a" d="M240 0l2-218c-23 76-54 145-80 218h-23L58-218 59 0H30v-248h44l77 211c21-75 51-140 76-211h43V0h-30" id="ap"/><path fill="#3a414a" d="M100-194c62-1 85 37 85 99 1 63-27 99-86 99S16-35 15-95c0-66 28-99 85-99zM99-20c44 1 53-31 53-75 0-43-8-75-51-75s-53 32-53 75 10 74 51 75" id="aq"/><path fill="#3a414a" d="M177-190C167-65 218 103 67 71c-23-6-38-20-44-43l32-5c15 47 100 32 89-28v-30C133-14 115 1 83 1 29 1 15-40 15-95c0-56 16-97 71-98 29-1 48 16 59 35 1-10 0-23 2-32h30zM94-22c36 0 50-32 50-73 0-42-14-75-50-75-39 0-46 34-46 75s6 73 46 73" id="ar"/><path fill="#3a414a" d="M30-248c118-7 216 8 213 122C240-48 200 0 122 0H30v-248zM63-27c89 8 146-16 146-99s-60-101-146-95v194" id="as"/><path fill="#3a414a" d="M160-131c35 5 61 23 61 61C221 17 115-2 30 0v-248c76 3 177-17 177 60 0 33-19 50-47 57zm-97-11c50-1 110 9 110-42 0-47-63-36-110-37v79zm0 115c55-2 124 14 124-45 0-56-70-42-124-44v89" id="at"/><g id="c"><use transform="matrix(0.06172839506172839,0,0,0.06172839506172839,0,0)" xlink:href="#ap"/><use transform="matrix(0.06172839506172839,0,0,0.06172839506172839,18.456790123456788,0)" xlink:href="#aq"/><use transform="matrix(0.06172839506172839,0,0,0.06172839506172839,30.80246913580247,0)" xlink:href="#ak"/><use transform="matrix(0.06172839506172839,0,0,0.06172839506172839,43.148148148148145,0)" xlink:href="#ar"/><use transform="matrix(0.06172839506172839,0,0,0.06172839506172839,55.49382716049382,0)" xlink:href="#aq"/><use transform="matrix(0.06172839506172839,0,0,0.06172839506172839,67.8395061728395,0)" xlink:href="#as"/><use transform="matrix(0.06172839506172839,0,0,0.06172839506172839,83.82716049382717,0)" xlink:href="#at"/></g><path fill="#3a414a" d="M185-189c-5-48-123-54-124 2 14 75 158 14 163 119 3 78-121 87-175 55-17-10-28-26-33-46l33-7c5 56 141 63 141-1 0-78-155-14-162-118-5-82 145-84 179-34 5 7 8 16 11 25" id="au"/><path fill="#3a414a" d="M114-163C36-179 61-72 57 0H25l-1-190h30c1 12-1 29 2 39 6-27 23-49 58-41v29" id="av"/><path fill="#3a414a" d="M24-231v-30h32v30H24zM24 0v-190h32V0H24" id="aw"/><path fill="#3a414a" d="M115-194c55 1 70 41 70 98S169 2 115 4C84 4 66-9 55-30l1 105H24l-1-265h31l2 30c10-21 28-34 59-34zm-8 174c40 0 45-34 45-75s-6-73-45-74c-42 0-51 32-51 76 0 43 10 73 51 73" id="ax"/><g id="d"><use transform="matrix(0.06172839506172839,0,0,0.06172839506172839,0,0)" xlink:href="#au"/><use transform="matrix(0.06172839506172839,0,0,0.06172839506172839,14.814814814814813,0)" xlink:href="#ai"/><use transform="matrix(0.06172839506172839,0,0,0.06172839506172839,20.98765432098765,0)" xlink:href="#av"/><use transform="matrix(0.06172839506172839,0,0,0.06172839506172839,28.33333333333333,0)" xlink:href="#aw"/><use transform="matrix(0.06172839506172839,0,0,0.06172839506172839,33.20987654320987,0)" xlink:href="#ax"/><use transform="matrix(0.06172839506172839,0,0,0.06172839506172839,45.55555555555555,0)" xlink:href="#aj"/></g><path fill="#3a414a" d="M30-248c87 1 191-15 191 75 0 78-77 80-158 76V0H30v-248zm33 125c57 0 124 11 124-50 0-59-68-47-124-48v98" id="ay"/><path fill="#3a414a" d="M141-36C126-15 110 5 73 4 37 3 15-17 15-53c-1-64 63-63 125-63 3-35-9-54-41-54-24 1-41 7-42 31l-33-3c5-37 33-52 76-52 45 0 72 20 72 64v82c-1 20 7 32 28 27v20c-31 9-61-2-59-35zM48-53c0 20 12 33 32 33 41-3 63-29 60-74-43 2-92-5-92 41" id="az"/><path fill="#3a414a" d="M179-190L93 31C79 59 56 82 12 73V49c39 6 53-20 64-50L1-190h34L92-34l54-156h33" id="aA"/><path fill="#3a414a" d="M24 0v-261h32V0H24" id="aB"/><g id="e"><use transform="matrix(0.06172839506172839,0,0,0.06172839506172839,0,0)" xlink:href="#ay"/><use transform="matrix(0.06172839506172839,0,0,0.06172839506172839,14.814814814814813,0)" xlink:href="#az"/><use transform="matrix(0.06172839506172839,0,0,0.06172839506172839,27.160493827160494,0)" xlink:href="#aA"/><use transform="matrix(0.06172839506172839,0,0,0.06172839506172839,38.27160493827161,0)" xlink:href="#ay"/><use transform="matrix(0.06172839506172839,0,0,0.06172839506172839,53.08641975308642,0)" xlink:href="#az"/><use transform="matrix(0.06172839506172839,0,0,0.06172839506172839,65.4320987654321,0)" xlink:href="#aB"/></g><path fill="#3a414a" d="M33 0v-248h34V0H33" id="aC"/><path fill="#3a414a" d="M210-169c-67 3-38 105-44 169h-31v-121c0-29-5-50-35-48C34-165 62-65 56 0H25l-1-190h30c1 10-1 24 2 32 10-44 99-50 107 0 11-21 27-35 58-36 85-2 47 119 55 194h-31v-121c0-29-5-49-35-48" id="aD"/><path fill="#3a414a" d="M135-143c-3-34-86-38-87 0 15 53 115 12 119 90S17 21 10-45l28-5c4 36 97 45 98 0-10-56-113-15-118-90-4-57 82-63 122-42 12 7 21 19 24 35" id="aE"/><path fill="#3a414a" d="M9 0v-24l116-142H16v-24h144v24L44-24h123V0H9" id="aF"/><g id="f"><use transform="matrix(0.06172839506172839,0,0,0.06172839506172839,0,0)" xlink:href="#aC"/><use transform="matrix(0.06172839506172839,0,0,0.06172839506172839,6.172839506172839,0)" xlink:href="#aD"/><use transform="matrix(0.06172839506172839,0,0,0.06172839506172839,24.629629629629626,0)" xlink:href="#ax"/><use transform="matrix(0.06172839506172839,0,0,0.06172839506172839,36.9753086419753,0)" xlink:href="#aq"/><use transform="matrix(0.06172839506172839,0,0,0.06172839506172839,49.32098765432098,0)" xlink:href="#aE"/><use transform="matrix(0.06172839506172839,0,0,0.06172839506172839,60.43209876543209,0)" xlink:href="#ai"/><use transform="matrix(0.06172839506172839,0,0,0.06172839506172839,66.60493827160492,0)" xlink:href="#az"/><use transform="matrix(0.06172839506172839,0,0,0.06172839506172839,78.9506172839506,0)" xlink:href="#aF"/><use transform="matrix(0.06172839506172839,0,0,0.06172839506172839,90.06172839506172,0)" xlink:href="#aw"/><use transform="matrix(0.06172839506172839,0,0,0.06172839506172839,94.93827160493827,0)" xlink:href="#aq"/><use transform="matrix(0.06172839506172839,0,0,0.06172839506172839,107.28395061728395,0)" xlink:href="#ak"/><use transform="matrix(0.06172839506172839,0,0,0.06172839506172839,119.62962962962963,0)" xlink:href="#aw"/></g><path fill="#3a414a" d="M96-169c-40 0-48 33-48 73s9 75 48 75c24 0 41-14 43-38l32 2c-6 37-31 61-74 61-59 0-76-41-82-99-10-93 101-131 147-64 4 7 5 14 7 22l-32 3c-4-21-16-35-41-35" id="aG"/><g id="g"><use transform="matrix(0.06172839506172839,0,0,0.06172839506172839,0,0)" xlink:href="#az"/><use transform="matrix(0.06172839506172839,0,0,0.06172839506172839,12.345679012345679,0)" xlink:href="#aG"/><use transform="matrix(0.06172839506172839,0,0,0.06172839506172839,23.45679012345679,0)" xlink:href="#aG"/><use transform="matrix(0.06172839506172839,0,0,0.06172839506172839,34.5679012345679,0)" xlink:href="#aq"/><use transform="matrix(0.06172839506172839,0,0,0.06172839506172839,46.913580246913575,0)" xlink:href="#am"/><use transform="matrix(0.06172839506172839,0,0,0.06172839506172839,59.25925925925925,0)" xlink:href="#ak"/><use transform="matrix(0.06172839506172839,0,0,0.06172839506172839,71.60493827160494,0)" xlink:href="#ai"/></g><g id="h"><use transform="matrix(0.06172839506172839,0,0,0.06172839506172839,0,0)" xlink:href="#aC"/><use transform="matrix(0.06172839506172839,0,0,0.06172839506172839,6.172839506172839,0)" xlink:href="#ak"/><use transform="matrix(0.06172839506172839,0,0,0.06172839506172839,18.51851851851852,0)" xlink:href="#aE"/><use transform="matrix(0.06172839506172839,0,0,0.06172839506172839,29.62962962962963,0)" xlink:href="#aj"/><use transform="matrix(0.06172839506172839,0,0,0.06172839506172839,41.97530864197531,0)" xlink:href="#av"/><use transform="matrix(0.06172839506172839,0,0,0.06172839506172839,49.32098765432099,0)" xlink:href="#aw"/><use transform="matrix(0.06172839506172839,0,0,0.06172839506172839,54.19753086419753,0)" xlink:href="#av"/><use transform="matrix(0.06172839506172839,0,0,0.06172839506172839,61.54320987654321,0)" xlink:href="#aj"/></g><g id="i"><use transform="matrix(0.06172839506172839,0,0,0.06172839506172839,0,0)" xlink:href="#aq"/><use transform="matrix(0.06172839506172839,0,0,0.06172839506172839,12.345679012345679,0)" xlink:href="#av"/><use transform="matrix(0.06172839506172839,0,0,0.06172839506172839,19.691358024691358,0)" xlink:href="#aj"/></g><path fill="#3a414a" d="M85-194c31 0 48 13 60 33l-1-100h32l1 261h-30c-2-10 0-23-3-31C134-8 116 4 85 4 32 4 16-35 15-94c0-66 23-100 70-100zm9 24c-40 0-46 34-46 75 0 40 6 74 45 74 42 0 51-32 51-76 0-42-9-74-50-73" id="aH"/><g id="j"><use transform="matrix(0.06172839506172839,0,0,0.06172839506172839,0,0)" xlink:href="#aH"/><use transform="matrix(0.06172839506172839,0,0,0.06172839506172839,12.345679012345679,0)" xlink:href="#aw"/></g><g id="k"><use transform="matrix(0.06172839506172839,0,0,0.06172839506172839,0,0)" xlink:href="#aE"/><use transform="matrix(0.06172839506172839,0,0,0.06172839506172839,11.11111111111111,0)" xlink:href="#aq"/><use transform="matrix(0.06172839506172839,0,0,0.06172839506172839,23.45679012345679,0)" xlink:href="#ak"/><use transform="matrix(0.06172839506172839,0,0,0.06172839506172839,35.80246913580247,0)" xlink:href="#ak"/><use transform="matrix(0.06172839506172839,0,0,0.06172839506172839,48.148148148148145,0)" xlink:href="#aq"/></g><path fill="#333" d="M20 75v-336h95v34H67V41h48v34H20" id="aI"/><path fill="#333" d="M169-182c-1-43-94-46-97-3 18 66 151 10 154 114 3 95-165 93-204 36-6-8-10-19-12-30l50-8c3 46 112 56 116 5-17-69-150-10-154-114-4-87 153-88 188-35 5 8 8 18 10 28" id="aJ"/><path fill="#333" d="M133-34C117-15 103 5 69 4 32 3 11-16 11-54c-1-60 55-63 116-61 1-26-3-47-28-47-18 1-26 9-28 27l-52-2c7-38 36-58 82-57s74 22 75 68l1 82c-1 14 12 18 25 15v27c-30 8-71 5-69-32zm-48 3c29 0 43-24 42-57-32 0-66-3-65 30 0 17 8 27 23 27" id="aK"/><path fill="#333" d="M25 0v-261h50V0H25" id="aL"/><path fill="#333" d="M128 0H69L1-190h53L99-40l48-150h52" id="aM"/><path fill="#333" d="M4 75V41h49v-268H4v-34h96V75H4" id="aN"/><g id="l"><use transform="matrix(0.04938271604938272,0,0,0.04938271604938272,0,0)" xlink:href="#aI"/><use transform="matrix(0.04938271604938272,0,0,0.04938271604938272,5.8765432098765435,0)" xlink:href="#aJ"/><use transform="matrix(0.04938271604938272,0,0,0.04938271604938272,17.728395061728396,0)" xlink:href="#aK"/><use transform="matrix(0.04938271604938272,0,0,0.04938271604938272,27.60493827160494,0)" xlink:href="#aL"/><use transform="matrix(0.04938271604938272,0,0,0.04938271604938272,32.543209876543216,0)" xlink:href="#aM"/><use transform="matrix(0.04938271604938272,0,0,0.04938271604938272,42.41975308641976,0)" xlink:href="#aK"/><use transform="matrix(0.04938271604938272,0,0,0.04938271604938272,52.2962962962963,0)" xlink:href="#aN"/></g><path fill="#3a414a" d="M101-234c-31-9-42 10-38 44h38v23H63V0H32v-167H5v-23h27c-7-52 17-82 69-68v24" id="aO"/><g id="m"><use transform="matrix(0.06172839506172839,0,0,0.06172839506172839,0,0)" xlink:href="#ap"/><use transform="matrix(0.06172839506172839,0,0,0.06172839506172839,18.456790123456788,0)" xlink:href="#aq"/><use transform="matrix(0.06172839506172839,0,0,0.06172839506172839,30.80246913580247,0)" xlink:href="#aH"/><use transform="matrix(0.06172839506172839,0,0,0.06172839506172839,43.148148148148145,0)" xlink:href="#aw"/><use transform="matrix(0.06172839506172839,0,0,0.06172839506172839,48.02469135802469,0)" xlink:href="#aO"/><use transform="matrix(0.06172839506172839,0,0,0.06172839506172839,54.19753086419753,0)" xlink:href="#aw"/><use transform="matrix(0.06172839506172839,0,0,0.06172839506172839,59.074074074074076,0)" xlink:href="#aG"/><use transform="matrix(0.06172839506172839,0,0,0.06172839506172839,70.18518518518519,0)" xlink:href="#az"/><use transform="matrix(0.06172839506172839,0,0,0.06172839506172839,82.53086419753087,0)" xlink:href="#av"/><use transform="matrix(0.06172839506172839,0,0,0.06172839506172839,89.87654320987656,0)" xlink:href="#aj"/></g><g id="n"><use transform="matrix(0.06172839506172839,0,0,0.06172839506172839,0,0)" xlink:href="#aB"/><use transform="matrix(0.06172839506172839,0,0,0.06172839506172839,4.876543209876543,0)" xlink:href="#aj"/></g><g id="o"><use transform="matrix(0.06172839506172839,0,0,0.06172839506172839,0,0)" xlink:href="#aH"/><use transform="matrix(0.06172839506172839,0,0,0.06172839506172839,12.345679012345679,0)" xlink:href="#aw"/></g><g id="p"><use transform="matrix(0.06172839506172839,0,0,0.06172839506172839,0,0)" xlink:href="#aE"/><use transform="matrix(0.06172839506172839,0,0,0.06172839506172839,11.11111111111111,0)" xlink:href="#aq"/><use transform="matrix(0.06172839506172839,0,0,0.06172839506172839,23.45679012345679,0)" xlink:href="#ak"/><use transform="matrix(0.06172839506172839,0,0,0.06172839506172839,35.80246913580247,0)" xlink:href="#ak"/><use transform="matrix(0.06172839506172839,0,0,0.06172839506172839,48.148148148148145,0)" xlink:href="#aq"/></g><path fill="#3a414a" d="M47-170H22l-4-78h33" id="aP"/><g id="q"><use transform="matrix(0.06172839506172839,0,0,0.06172839506172839,0,0)" xlink:href="#aH"/><use transform="matrix(0.06172839506172839,0,0,0.06172839506172839,12.345679012345679,0)" xlink:href="#aj"/><use transform="matrix(0.06172839506172839,0,0,0.06172839506172839,24.691358024691358,0)" xlink:href="#aB"/><use transform="matrix(0.06172839506172839,0,0,0.06172839506172839,29.5679012345679,0)" xlink:href="#aB"/><use transform="matrix(0.06172839506172839,0,0,0.06172839506172839,34.44444444444444,0)" xlink:href="#aP"/><use transform="matrix(0.06172839506172839,0,0,0.06172839506172839,38.641975308641975,0)" xlink:href="#az"/><use transform="matrix(0.06172839506172839,0,0,0.06172839506172839,50.98765432098765,0)" xlink:href="#aG"/><use transform="matrix(0.06172839506172839,0,0,0.06172839506172839,62.09876543209876,0)" xlink:href="#aG"/><use transform="matrix(0.06172839506172839,0,0,0.06172839506172839,73.20987654320987,0)" xlink:href="#aq"/><use transform="matrix(0.06172839506172839,0,0,0.06172839506172839,85.55555555555556,0)" xlink:href="#am"/><use transform="matrix(0.06172839506172839,0,0,0.06172839506172839,97.90123456790124,0)" xlink:href="#ak"/><use transform="matrix(0.06172839506172839,0,0,0.06172839506172839,110.24691358024693,0)" xlink:href="#ai"/></g><g id="r"><use transform="matrix(0.06172839506172839,0,0,0.06172839506172839,0,0)" xlink:href="#ay"/><use transform="matrix(0.06172839506172839,0,0,0.06172839506172839,14.814814814814813,0)" xlink:href="#av"/><use transform="matrix(0.06172839506172839,0,0,0.06172839506172839,22.160493827160494,0)" xlink:href="#aj"/><use transform="matrix(0.06172839506172839,0,0,0.06172839506172839,34.50617283950617,0)" xlink:href="#aO"/><use transform="matrix(0.06172839506172839,0,0,0.06172839506172839,40.67901234567901,0)" xlink:href="#aj"/><use transform="matrix(0.06172839506172839,0,0,0.06172839506172839,53.02469135802469,0)" xlink:href="#av"/><use transform="matrix(0.06172839506172839,0,0,0.06172839506172839,60.37037037037037,0)" xlink:href="#aj"/><use transform="matrix(0.06172839506172839,0,0,0.06172839506172839,72.71604938271605,0)" xlink:href="#ak"/><use transform="matrix(0.06172839506172839,0,0,0.06172839506172839,85.06172839506173,0)" xlink:href="#aF"/><use transform="matrix(0.06172839506172839,0,0,0.06172839506172839,96.17283950617285,0)" xlink:href="#aj"/></g><path fill="#3a414a" d="M108 0H70L1-190h34L89-25l56-165h34" id="aQ"/><g id="s"><use transform="matrix(0.06172839506172839,0,0,0.06172839506172839,0,0)" xlink:href="#aE"/><use transform="matrix(0.06172839506172839,0,0,0.06172839506172839,11.11111111111111,0)" xlink:href="#aj"/><use transform="matrix(0.06172839506172839,0,0,0.06172839506172839,23.45679012345679,0)" xlink:href="#av"/><use transform="matrix(0.06172839506172839,0,0,0.06172839506172839,30.80246913580247,0)" xlink:href="#aw"/><use transform="matrix(0.06172839506172839,0,0,0.06172839506172839,35.67901234567901,0)" xlink:href="#aQ"/><use transform="matrix(0.06172839506172839,0,0,0.06172839506172839,46.79012345679013,0)" xlink:href="#aw"/><use transform="matrix(0.06172839506172839,0,0,0.06172839506172839,51.66666666666667,0)" xlink:href="#aF"/><use transform="matrix(0.06172839506172839,0,0,0.06172839506172839,62.777777777777786,0)" xlink:href="#aw"/></g><path fill="#3a414a" d="M126-127c33 6 58 20 58 59 0 88-139 92-164 29-3-8-5-16-6-25l32-3c6 27 21 44 54 44 32 0 52-15 52-46 0-38-36-46-79-43v-28c39 1 72-4 72-42 0-27-17-43-46-43-28 0-47 15-49 41l-32-3c6-42 35-63 81-64 48-1 79 21 79 65 0 36-21 52-52 59" id="aR"/><use transform="matrix(0.06172839506172839,0,0,0.06172839506172839,0,0)" xlink:href="#aR" id="t"/><g id="u"><use transform="matrix(0.06172839506172839,0,0,0.06172839506172839,0,0)" xlink:href="#ax"/><use transform="matrix(0.06172839506172839,0,0,0.06172839506172839,12.345679012345679,0)" xlink:href="#az"/><use transform="matrix(0.06172839506172839,0,0,0.06172839506172839,24.691358024691358,0)" xlink:href="#av"/><use transform="matrix(0.06172839506172839,0,0,0.06172839506172839,32.03703703703704,0)" xlink:href="#ai"/><use transform="matrix(0.06172839506172839,0,0,0.06172839506172839,38.20987654320988,0)" xlink:href="#aw"/></g><path fill="#333" d="M76-208v77h127v40H76V0H24v-248h183v40H76" id="aS"/><path fill="#333" d="M25-224v-37h50v37H25zM25 0v-190h50V0H25" id="aT"/><path fill="#333" d="M135-194c87-1 58 113 63 194h-50c-7-57 23-157-34-157-59 0-34 97-39 157H25l-1-190h47c2 12-1 28 3 38 12-26 28-41 61-42" id="aU"/><path fill="#333" d="M115-3C79 11 28 4 28-45v-112H4v-33h27l15-45h31v45h36v33H77v99c-1 23 16 31 38 25v30" id="aV"/><path fill="#333" d="M110-194c64 0 96 36 96 99 0 64-35 99-97 99-61 0-95-36-95-99 0-62 34-99 96-99zm-1 164c35 0 45-28 45-65 0-40-10-65-43-65-34 0-45 26-45 65 0 36 10 65 43 65" id="aW"/><g id="v"><use transform="matrix(0.04938271604938272,0,0,0.04938271604938272,0,0)" xlink:href="#aI"/><use transform="matrix(0.04938271604938272,0,0,0.04938271604938272,5.8765432098765435,0)" xlink:href="#aS"/><use transform="matrix(0.04938271604938272,0,0,0.04938271604938272,16.691358024691358,0)" xlink:href="#aT"/><use transform="matrix(0.04938271604938272,0,0,0.04938271604938272,21.62962962962963,0)" xlink:href="#aU"/><use transform="matrix(0.04938271604938272,0,0,0.04938271604938272,32.44444444444444,0)" xlink:href="#aT"/><use transform="matrix(0.04938271604938272,0,0,0.04938271604938272,37.382716049382715,0)" xlink:href="#aV"/><use transform="matrix(0.04938271604938272,0,0,0.04938271604938272,43.25925925925926,0)" xlink:href="#aW"/><use transform="matrix(0.04938271604938272,0,0,0.04938271604938272,54.074074074074076,0)" xlink:href="#aN"/></g><g id="w"><use transform="matrix(0.06172839506172839,0,0,0.06172839506172839,0,0)" xlink:href="#au"/><use transform="matrix(0.06172839506172839,0,0,0.06172839506172839,14.814814814814813,0)" xlink:href="#aj"/><use transform="matrix(0.06172839506172839,0,0,0.06172839506172839,27.160493827160494,0)" xlink:href="#aB"/><use transform="matrix(0.06172839506172839,0,0,0.06172839506172839,32.03703703703704,0)" xlink:href="#aj"/><use transform="matrix(0.06172839506172839,0,0,0.06172839506172839,44.382716049382715,0)" xlink:href="#aF"/><use transform="matrix(0.06172839506172839,0,0,0.06172839506172839,55.49382716049382,0)" xlink:href="#aw"/><use transform="matrix(0.06172839506172839,0,0,0.06172839506172839,60.37037037037037,0)" xlink:href="#aq"/><use transform="matrix(0.06172839506172839,0,0,0.06172839506172839,72.71604938271605,0)" xlink:href="#ak"/><use transform="matrix(0.06172839506172839,0,0,0.06172839506172839,85.06172839506173,0)" xlink:href="#az"/><use transform="matrix(0.06172839506172839,0,0,0.06172839506172839,97.40740740740742,0)" xlink:href="#av"/><use transform="matrix(0.06172839506172839,0,0,0.06172839506172839,104.7530864197531,0)" xlink:href="#aj"/></g><g id="x"><use transform="matrix(0.06172839506172839,0,0,0.06172839506172839,0,0)" xlink:href="#aE"/><use transform="matrix(0.06172839506172839,0,0,0.06172839506172839,11.11111111111111,0)" xlink:href="#aj"/><use transform="matrix(0.06172839506172839,0,0,0.06172839506172839,23.45679012345679,0)" xlink:href="#av"/><use transform="matrix(0.06172839506172839,0,0,0.06172839506172839,30.80246913580247,0)" xlink:href="#aQ"/><use transform="matrix(0.06172839506172839,0,0,0.06172839506172839,41.91358024691358,0)" xlink:href="#aw"/><use transform="matrix(0.06172839506172839,0,0,0.06172839506172839,46.79012345679013,0)" xlink:href="#aF"/><use transform="matrix(0.06172839506172839,0,0,0.06172839506172839,57.90123456790124,0)" xlink:href="#aw"/><use transform="matrix(0.06172839506172839,0,0,0.06172839506172839,62.777777777777786,0)" xlink:href="#aq"/></g><g id="y"><use transform="matrix(0.06172839506172839,0,0,0.06172839506172839,0,0)" xlink:href="#aD"/><use transform="matrix(0.06172839506172839,0,0,0.06172839506172839,18.456790123456788,0)" xlink:href="#az"/><use transform="matrix(0.06172839506172839,0,0,0.06172839506172839,30.80246913580247,0)" xlink:href="#ax"/><use transform="matrix(0.06172839506172839,0,0,0.06172839506172839,43.148148148148145,0)" xlink:href="#ax"/><use transform="matrix(0.06172839506172839,0,0,0.06172839506172839,55.49382716049382,0)" xlink:href="#aj"/></g><g id="z"><use transform="matrix(0.06172839506172839,0,0,0.06172839506172839,0,0)" xlink:href="#ap"/><use transform="matrix(0.06172839506172839,0,0,0.06172839506172839,18.456790123456788,0)" xlink:href="#aq"/><use transform="matrix(0.06172839506172839,0,0,0.06172839506172839,30.80246913580247,0)" xlink:href="#aH"/><use transform="matrix(0.06172839506172839,0,0,0.06172839506172839,43.148148148148145,0)" xlink:href="#aw"/><use transform="matrix(0.06172839506172839,0,0,0.06172839506172839,48.02469135802469,0)" xlink:href="#aO"/><use transform="matrix(0.06172839506172839,0,0,0.06172839506172839,54.19753086419753,0)" xlink:href="#aw"/><use transform="matrix(0.06172839506172839,0,0,0.06172839506172839,59.074074074074076,0)" xlink:href="#aG"/><use transform="matrix(0.06172839506172839,0,0,0.06172839506172839,70.18518518518519,0)" xlink:href="#az"/></g><g id="A"><use transform="matrix(0.06172839506172839,0,0,0.06172839506172839,0,0)" xlink:href="#am"/><use transform="matrix(0.06172839506172839,0,0,0.06172839506172839,12.345679012345679,0)" xlink:href="#aE"/><use transform="matrix(0.06172839506172839,0,0,0.06172839506172839,23.45679012345679,0)" xlink:href="#aj"/><use transform="matrix(0.06172839506172839,0,0,0.06172839506172839,35.80246913580247,0)" xlink:href="#av"/><use transform="matrix(0.06172839506172839,0,0,0.06172839506172839,43.148148148148145,0)" xlink:href="#ak"/><use transform="matrix(0.06172839506172839,0,0,0.06172839506172839,55.49382716049382,0)" xlink:href="#az"/><use transform="matrix(0.06172839506172839,0,0,0.06172839506172839,67.8395061728395,0)" xlink:href="#aD"/><use transform="matrix(0.06172839506172839,0,0,0.06172839506172839,86.29629629629629,0)" xlink:href="#aj"/></g><path fill="#3a414a" d="M206 0h-36l-40-164L89 0H53L-1-190h32L70-26l43-164h34l41 164 42-164h31" id="aX"/><g id="B"><use transform="matrix(0.06172839506172839,0,0,0.06172839506172839,0,0)" xlink:href="#ax"/><use transform="matrix(0.06172839506172839,0,0,0.06172839506172839,12.345679012345679,0)" xlink:href="#az"/><use transform="matrix(0.06172839506172839,0,0,0.06172839506172839,24.691358024691358,0)" xlink:href="#aE"/><use transform="matrix(0.06172839506172839,0,0,0.06172839506172839,35.80246913580247,0)" xlink:href="#aE"/><use transform="matrix(0.06172839506172839,0,0,0.06172839506172839,46.91358024691358,0)" xlink:href="#aX"/><use transform="matrix(0.06172839506172839,0,0,0.06172839506172839,62.901234567901234,0)" xlink:href="#aq"/><use transform="matrix(0.06172839506172839,0,0,0.06172839506172839,75.24691358024691,0)" xlink:href="#av"/><use transform="matrix(0.06172839506172839,0,0,0.06172839506172839,82.5925925925926,0)" xlink:href="#aH"/></g><g id="C"><use transform="matrix(0.06172839506172839,0,0,0.06172839506172839,0,0)" xlink:href="#aD"/><use transform="matrix(0.06172839506172839,0,0,0.06172839506172839,18.456790123456788,0)" xlink:href="#aj"/><use transform="matrix(0.06172839506172839,0,0,0.06172839506172839,30.80246913580247,0)" xlink:href="#ai"/><use transform="matrix(0.06172839506172839,0,0,0.06172839506172839,36.97530864197531,0)" xlink:href="#aq"/><use transform="matrix(0.06172839506172839,0,0,0.06172839506172839,49.32098765432099,0)" xlink:href="#aH"/><use transform="matrix(0.06172839506172839,0,0,0.06172839506172839,61.666666666666664,0)" xlink:href="#aq"/></g><g id="D"><use transform="matrix(0.06172839506172839,0,0,0.06172839506172839,0,0)" xlink:href="#ax"/><use transform="matrix(0.06172839506172839,0,0,0.06172839506172839,12.345679012345679,0)" xlink:href="#az"/><use transform="matrix(0.06172839506172839,0,0,0.06172839506172839,24.691358024691358,0)" xlink:href="#ar"/><use transform="matrix(0.06172839506172839,0,0,0.06172839506172839,37.03703703703704,0)" xlink:href="#az"/><use transform="matrix(0.06172839506172839,0,0,0.06172839506172839,49.382716049382715,0)" xlink:href="#aD"/><use transform="matrix(0.06172839506172839,0,0,0.06172839506172839,67.8395061728395,0)" xlink:href="#aj"/><use transform="matrix(0.06172839506172839,0,0,0.06172839506172839,80.18518518518519,0)" xlink:href="#ak"/><use transform="matrix(0.06172839506172839,0,0,0.06172839506172839,92.53086419753087,0)" xlink:href="#ai"/><use transform="matrix(0.06172839506172839,0,0,0.06172839506172839,98.70370370370371,0)" xlink:href="#aq"/></g><g id="E"><use transform="matrix(0.06172839506172839,0,0,0.06172839506172839,0,0)" xlink:href="#aC"/><use transform="matrix(0.06172839506172839,0,0,0.06172839506172839,6.172839506172839,0)" xlink:href="#ak"/><use transform="matrix(0.06172839506172839,0,0,0.06172839506172839,18.51851851851852,0)" xlink:href="#aE"/><use transform="matrix(0.06172839506172839,0,0,0.06172839506172839,29.62962962962963,0)" xlink:href="#aj"/><use transform="matrix(0.06172839506172839,0,0,0.06172839506172839,41.97530864197531,0)" xlink:href="#av"/><use transform="matrix(0.06172839506172839,0,0,0.06172839506172839,49.32098765432099,0)" xlink:href="#aw"/><use transform="matrix(0.06172839506172839,0,0,0.06172839506172839,54.19753086419753,0)" xlink:href="#aD"/><use transform="matrix(0.06172839506172839,0,0,0.06172839506172839,72.65432098765432,0)" xlink:href="#aj"/><use transform="matrix(0.06172839506172839,0,0,0.06172839506172839,85,0)" xlink:href="#ak"/><use transform="matrix(0.06172839506172839,0,0,0.06172839506172839,97.34567901234568,0)" xlink:href="#ai"/><use transform="matrix(0.06172839506172839,0,0,0.06172839506172839,103.51851851851852,0)" xlink:href="#aq"/></g><g id="F"><use transform="matrix(0.06172839506172839,0,0,0.06172839506172839,0,0)" xlink:href="#ak"/><use transform="matrix(0.06172839506172839,0,0,0.06172839506172839,12.345679012345679,0)" xlink:href="#am"/><use transform="matrix(0.06172839506172839,0,0,0.06172839506172839,24.691358024691358,0)" xlink:href="#aq"/><use transform="matrix(0.06172839506172839,0,0,0.06172839506172839,37.03703703703704,0)" xlink:href="#aQ"/><use transform="matrix(0.06172839506172839,0,0,0.06172839506172839,48.14814814814815,0)" xlink:href="#aq"/></g><g id="G"><use transform="matrix(0.06172839506172839,0,0,0.06172839506172839,0,0)" xlink:href="#ak"/><use transform="matrix(0.06172839506172839,0,0,0.06172839506172839,12.345679012345679,0)" xlink:href="#am"/><use transform="matrix(0.06172839506172839,0,0,0.06172839506172839,24.691358024691358,0)" xlink:href="#aq"/><use transform="matrix(0.06172839506172839,0,0,0.06172839506172839,37.03703703703704,0)" xlink:href="#aQ"/><use transform="matrix(0.06172839506172839,0,0,0.06172839506172839,48.14814814814815,0)" xlink:href="#az"/></g><path fill="#3a414a" d="M137 0h-34L2-248h35l83 218 83-218h36" id="aY"/><g id="H"><use transform="matrix(0.06172839506172839,0,0,0.06172839506172839,0,0)" xlink:href="#aY"/><use transform="matrix(0.06172839506172839,0,0,0.06172839506172839,13.580246913580245,0)" xlink:href="#aj"/><use transform="matrix(0.06172839506172839,0,0,0.06172839506172839,25.925925925925924,0)" xlink:href="#av"/><use transform="matrix(0.06172839506172839,0,0,0.06172839506172839,33.2716049382716,0)" xlink:href="#aw"/><use transform="matrix(0.06172839506172839,0,0,0.06172839506172839,38.148148148148145,0)" xlink:href="#aO"/><use transform="matrix(0.06172839506172839,0,0,0.06172839506172839,44.32098765432099,0)" xlink:href="#aw"/><use transform="matrix(0.06172839506172839,0,0,0.06172839506172839,49.19753086419753,0)" xlink:href="#aG"/><use transform="matrix(0.06172839506172839,0,0,0.06172839506172839,60.308641975308646,0)" xlink:href="#az"/></g><path fill="#3a414a" d="M141-36C126-15 110 5 73 4 37 3 15-17 15-53c-1-64 63-63 125-63 3-35-9-54-41-54-24 1-41 7-42 31l-33-3c5-37 33-52 76-52 45 0 72 20 72 64v82c-1 20 7 32 28 27v20c-31 9-61-2-59-35zM48-53c0 20 12 33 32 33 41-3 63-29 60-74-43 2-92-5-92 41zm62-158l-58-49v-5h36c12 19 30 32 38 54h-16" id="aZ"/><g id="I"><use transform="matrix(0.06172839506172839,0,0,0.06172839506172839,0,0)" xlink:href="#aQ"/><use transform="matrix(0.06172839506172839,0,0,0.06172839506172839,11.11111111111111,0)" xlink:href="#az"/><use transform="matrix(0.06172839506172839,0,0,0.06172839506172839,23.45679012345679,0)" xlink:href="#aB"/><use transform="matrix(0.06172839506172839,0,0,0.06172839506172839,28.333333333333336,0)" xlink:href="#aw"/><use transform="matrix(0.06172839506172839,0,0,0.06172839506172839,33.20987654320988,0)" xlink:href="#aH"/><use transform="matrix(0.06172839506172839,0,0,0.06172839506172839,45.55555555555556,0)" xlink:href="#aw"/><use transform="matrix(0.06172839506172839,0,0,0.06172839506172839,50.4320987654321,0)" xlink:href="#ai"/><use transform="matrix(0.06172839506172839,0,0,0.06172839506172839,56.604938271604944,0)" xlink:href="#aZ"/></g><g id="J"><use transform="matrix(0.06172839506172839,0,0,0.06172839506172839,0,0)" xlink:href="#az"/><use transform="matrix(0.06172839506172839,0,0,0.06172839506172839,12.345679012345679,0)" xlink:href="#am"/><use transform="matrix(0.06172839506172839,0,0,0.06172839506172839,24.691358024691358,0)" xlink:href="#ai"/><use transform="matrix(0.06172839506172839,0,0,0.06172839506172839,30.864197530864196,0)" xlink:href="#aq"/><use transform="matrix(0.06172839506172839,0,0,0.06172839506172839,43.20987654320987,0)" xlink:href="#av"/><use transform="matrix(0.06172839506172839,0,0,0.06172839506172839,50.55555555555555,0)" xlink:href="#aw"/><use transform="matrix(0.06172839506172839,0,0,0.06172839506172839,55.432098765432094,0)" xlink:href="#aF"/><use transform="matrix(0.06172839506172839,0,0,0.06172839506172839,66.5432098765432,0)" xlink:href="#aF"/><use transform="matrix(0.06172839506172839,0,0,0.06172839506172839,77.65432098765432,0)" xlink:href="#az"/><use transform="matrix(0.06172839506172839,0,0,0.06172839506172839,90,0)" xlink:href="#aF"/><use transform="matrix(0.06172839506172839,0,0,0.06172839506172839,101.11111111111111,0)" xlink:href="#aw"/><use transform="matrix(0.06172839506172839,0,0,0.06172839506172839,105.98765432098766,0)" xlink:href="#aq"/><use transform="matrix(0.06172839506172839,0,0,0.06172839506172839,118.33333333333334,0)" xlink:href="#ak"/><use transform="matrix(0.06172839506172839,0,0,0.06172839506172839,130.679012345679,0)" xlink:href="#aj"/></g><path fill="#333" d="M135-150c-39-12-60 13-60 57V0H25l-1-190h47c2 13-1 29 3 40 6-28 27-53 61-41v41" id="ba"/><path fill="#333" d="M135-194c53 0 70 44 70 98 0 56-19 98-73 100-31 1-45-17-59-34 3 33 2 69 2 105H25l-1-265h48c2 10 0 23 3 31 11-24 29-35 60-35zM114-30c33 0 39-31 40-66 0-38-9-64-40-64-56 0-55 130 0 130" id="bb"/><path fill="#333" d="M185-48c-13 30-37 53-82 52C43 2 14-33 14-96s30-98 90-98c62 0 83 45 84 108H66c0 31 8 55 39 56 18 0 30-7 34-22zm-45-69c5-46-57-63-70-21-2 6-4 13-4 21h74" id="bc"/><g id="K"><use transform="matrix(0.04938271604938272,0,0,0.04938271604938272,0,0)" xlink:href="#aI"/><use transform="matrix(0.04938271604938272,0,0,0.04938271604938272,5.8765432098765435,0)" xlink:href="#aJ"/><use transform="matrix(0.04938271604938272,0,0,0.04938271604938272,17.728395061728396,0)" xlink:href="#aV"/><use transform="matrix(0.04938271604938272,0,0,0.04938271604938272,23.60493827160494,0)" xlink:href="#ba"/><use transform="matrix(0.04938271604938272,0,0,0.04938271604938272,30.518518518518523,0)" xlink:href="#aT"/><use transform="matrix(0.04938271604938272,0,0,0.04938271604938272,35.45679012345679,0)" xlink:href="#bb"/><use transform="matrix(0.04938271604938272,0,0,0.04938271604938272,46.27160493827161,0)" xlink:href="#bc"/><use transform="matrix(0.04938271604938272,0,0,0.04938271604938272,56.14814814814815,0)" xlink:href="#aN"/></g><path fill="#333" d="M24-248c93 1 206-16 204 79-1 75-69 88-152 82V0H24v-248zm52 121c47 0 100 7 100-41 0-47-54-39-100-39v80" id="bd"/><path fill="#333" d="M123 10C108 53 80 86 19 72V37c35 8 53-11 59-39L3-190h52l48 148c12-52 28-100 44-148h51" id="be"/><g id="L"><use transform="matrix(0.04938271604938272,0,0,0.04938271604938272,0,0)" xlink:href="#aI"/><use transform="matrix(0.04938271604938272,0,0,0.04938271604938272,5.8765432098765435,0)" xlink:href="#bd"/><use transform="matrix(0.04938271604938272,0,0,0.04938271604938272,17.728395061728396,0)" xlink:href="#aK"/><use transform="matrix(0.04938271604938272,0,0,0.04938271604938272,27.60493827160494,0)" xlink:href="#be"/><use transform="matrix(0.04938271604938272,0,0,0.04938271604938272,37.48148148148148,0)" xlink:href="#bd"/><use transform="matrix(0.04938271604938272,0,0,0.04938271604938272,49.333333333333336,0)" xlink:href="#aK"/><use transform="matrix(0.04938271604938272,0,0,0.04938271604938272,59.20987654320988,0)" xlink:href="#aL"/><use transform="matrix(0.04938271604938272,0,0,0.04938271604938272,64.14814814814815,0)" xlink:href="#aN"/></g><path fill="#333" d="M147 0H94L2-248h55l64 206c17-72 42-137 63-206h54" id="bf"/><path fill="#333" d="M121-226c-27-7-43 5-38 36h38v33H83V0H34v-157H6v-33h28c-9-59 32-81 87-68v32" id="bg"/><path fill="#333" d="M190-63c-7 42-38 67-86 67-59 0-84-38-90-98-12-110 154-137 174-36l-49 2c-2-19-15-32-35-32-30 0-35 28-38 64-6 74 65 87 74 30" id="bh"/><g id="M"><use transform="matrix(0.04938271604938272,0,0,0.04938271604938272,0,0)" xlink:href="#aI"/><use transform="matrix(0.04938271604938272,0,0,0.04938271604938272,5.8765432098765435,0)" xlink:href="#bf"/><use transform="matrix(0.04938271604938272,0,0,0.04938271604938272,16.74074074074074,0)" xlink:href="#bc"/><use transform="matrix(0.04938271604938272,0,0,0.04938271604938272,26.617283950617285,0)" xlink:href="#ba"/><use transform="matrix(0.04938271604938272,0,0,0.04938271604938272,33.53086419753087,0)" xlink:href="#aT"/><use transform="matrix(0.04938271604938272,0,0,0.04938271604938272,38.46913580246914,0)" xlink:href="#bg"/><use transform="matrix(0.04938271604938272,0,0,0.04938271604938272,44.345679012345684,0)" xlink:href="#aT"/><use transform="matrix(0.04938271604938272,0,0,0.04938271604938272,49.283950617283956,0)" xlink:href="#bh"/><use transform="matrix(0.04938271604938272,0,0,0.04938271604938272,59.1604938271605,0)" xlink:href="#aK"/></g><path fill="#333" d="M195-6C206 82 75 100 31 46c-4-6-6-13-8-21l49-6c3 16 16 24 34 25 40 0 42-37 40-79-11 22-30 35-61 35-53 0-70-43-70-97 0-56 18-96 73-97 30 0 46 14 59 34l2-30h47zm-90-29c32 0 41-27 41-63 0-35-9-62-40-62-32 0-39 29-40 63 0 36 9 62 39 62" id="bi"/><g id="N"><use transform="matrix(0.04938271604938272,0,0,0.04938271604938272,0,0)" xlink:href="#aU"/><use transform="matrix(0.04938271604938272,0,0,0.04938271604938272,10.814814814814815,0)" xlink:href="#bc"/><use transform="matrix(0.04938271604938272,0,0,0.04938271604938272,20.69135802469136,0)" xlink:href="#bi"/><use transform="matrix(0.04938271604938272,0,0,0.04938271604938272,31.506172839506174,0)" xlink:href="#aK"/><use transform="matrix(0.04938271604938272,0,0,0.04938271604938272,41.38271604938272,0)" xlink:href="#aV"/><use transform="matrix(0.04938271604938272,0,0,0.04938271604938272,47.25925925925927,0)" xlink:href="#aK"/><use transform="matrix(0.04938271604938272,0,0,0.04938271604938272,57.135802469135804,0)" xlink:href="#aN"/></g><g id="O"><use transform="matrix(0.04938271604938272,0,0,0.04938271604938272,0,0)" xlink:href="#aK"/><use transform="matrix(0.04938271604938272,0,0,0.04938271604938272,9.876543209876544,0)" xlink:href="#bb"/><use transform="matrix(0.04938271604938272,0,0,0.04938271604938272,20.69135802469136,0)" xlink:href="#bb"/><use transform="matrix(0.04938271604938272,0,0,0.04938271604938272,31.506172839506174,0)" xlink:href="#ba"/><use transform="matrix(0.04938271604938272,0,0,0.04938271604938272,38.41975308641976,0)" xlink:href="#aW"/><use transform="matrix(0.04938271604938272,0,0,0.04938271604938272,49.23456790123458,0)" xlink:href="#aM"/><use transform="matrix(0.04938271604938272,0,0,0.04938271604938272,59.111111111111114,0)" xlink:href="#aK"/><use transform="matrix(0.04938271604938272,0,0,0.04938271604938272,68.98765432098767,0)" xlink:href="#aV"/><use transform="matrix(0.04938271604938272,0,0,0.04938271604938272,74.86419753086422,0)" xlink:href="#aK"/><use transform="matrix(0.04938271604938272,0,0,0.04938271604938272,84.74074074074076,0)" xlink:href="#aN"/></g><g id="P"><use transform="matrix(0.06172839506172839,0,0,0.06172839506172839,0,0)" xlink:href="#al"/><use transform="matrix(0.06172839506172839,0,0,0.06172839506172839,14.814814814814813,0)" xlink:href="#ar"/><use transform="matrix(0.06172839506172839,0,0,0.06172839506172839,27.160493827160494,0)" xlink:href="#ar"/><use transform="matrix(0.06172839506172839,0,0,0.06172839506172839,39.50617283950617,0)" xlink:href="#aw"/><use transform="matrix(0.06172839506172839,0,0,0.06172839506172839,44.382716049382715,0)" xlink:href="#aq"/><use transform="matrix(0.06172839506172839,0,0,0.06172839506172839,56.72839506172839,0)" xlink:href="#av"/><use transform="matrix(0.06172839506172839,0,0,0.06172839506172839,64.07407407407408,0)" xlink:href="#ak"/><use transform="matrix(0.06172839506172839,0,0,0.06172839506172839,76.41975308641976,0)" xlink:href="#az"/><use transform="matrix(0.06172839506172839,0,0,0.06172839506172839,88.76543209876544,0)" xlink:href="#aD"/><use transform="matrix(0.06172839506172839,0,0,0.06172839506172839,107.22222222222223,0)" xlink:href="#aj"/><use transform="matrix(0.06172839506172839,0,0,0.06172839506172839,119.56790123456791,0)" xlink:href="#ak"/><use transform="matrix(0.06172839506172839,0,0,0.06172839506172839,131.9135802469136,0)" xlink:href="#ai"/><use transform="matrix(0.06172839506172839,0,0,0.06172839506172839,138.08641975308643,0)" xlink:href="#aq"/></g><g id="Q"><use transform="matrix(0.06172839506172839,0,0,0.06172839506172839,0,0)" xlink:href="#aD"/><use transform="matrix(0.06172839506172839,0,0,0.06172839506172839,18.456790123456788,0)" xlink:href="#aq"/><use transform="matrix(0.06172839506172839,0,0,0.06172839506172839,30.80246913580247,0)" xlink:href="#aH"/><use transform="matrix(0.06172839506172839,0,0,0.06172839506172839,43.148148148148145,0)" xlink:href="#az"/><use transform="matrix(0.06172839506172839,0,0,0.06172839506172839,55.49382716049382,0)" xlink:href="#aB"/><use transform="matrix(0.06172839506172839,0,0,0.06172839506172839,60.37037037037037,0)" xlink:href="#aw"/><use transform="matrix(0.06172839506172839,0,0,0.06172839506172839,65.24691358024691,0)" xlink:href="#ai"/><use transform="matrix(0.06172839506172839,0,0,0.06172839506172839,71.41975308641975,0)" xlink:href="#az"/></g><g id="R"><use transform="matrix(0.06172839506172839,0,0,0.06172839506172839,0,0)" xlink:href="#am"/><use transform="matrix(0.06172839506172839,0,0,0.06172839506172839,12.345679012345679,0)" xlink:href="#ak"/><use transform="matrix(0.06172839506172839,0,0,0.06172839506172839,24.691358024691358,0)" xlink:href="#aw"/><use transform="matrix(0.06172839506172839,0,0,0.06172839506172839,29.5679012345679,0)" xlink:href="#aG"/><use transform="matrix(0.06172839506172839,0,0,0.06172839506172839,40.67901234567901,0)" xlink:href="#aw"/><use transform="matrix(0.06172839506172839,0,0,0.06172839506172839,45.55555555555556,0)" xlink:href="#ai"/><use transform="matrix(0.06172839506172839,0,0,0.06172839506172839,51.7283950617284,0)" xlink:href="#aZ"/></g><g id="S"><use transform="matrix(0.06172839506172839,0,0,0.06172839506172839,0,0)" xlink:href="#ak"/><use transform="matrix(0.06172839506172839,0,0,0.06172839506172839,12.345679012345679,0)" xlink:href="#aq"/><use transform="matrix(0.06172839506172839,0,0,0.06172839506172839,24.691358024691358,0)" xlink:href="#aD"/><use transform="matrix(0.06172839506172839,0,0,0.06172839506172839,43.148148148148145,0)" xlink:href="#aj"/></g><path fill="#333" d="M238-95c0 69-44 99-111 99C63 4 22-25 22-93v-155h51v151c-1 38 19 59 55 60 90 1 49-130 58-211h52v153" id="bj"/><g id="T"><use transform="matrix(0.04938271604938272,0,0,0.04938271604938272,0,0)" xlink:href="#aI"/><use transform="matrix(0.04938271604938272,0,0,0.04938271604938272,5.8765432098765435,0)" xlink:href="#bj"/><use transform="matrix(0.04938271604938272,0,0,0.04938271604938272,18.666666666666668,0)" xlink:href="#aU"/><use transform="matrix(0.04938271604938272,0,0,0.04938271604938272,29.481481481481477,0)" xlink:href="#aT"/><use transform="matrix(0.04938271604938272,0,0,0.04938271604938272,34.41975308641975,0)" xlink:href="#bh"/><use transform="matrix(0.04938271604938272,0,0,0.04938271604938272,44.2962962962963,0)" xlink:href="#aW"/><use transform="matrix(0.04938271604938272,0,0,0.04938271604938272,55.111111111111114,0)" xlink:href="#aN"/></g><path fill="#333" d="M175 0L67-191c6 58 2 128 3 191H24v-248h59L193-55c-6-58-2-129-3-193h46V0h-61" id="bk"/><g id="U"><use transform="matrix(0.04938271604938272,0,0,0.04938271604938272,0,0)" xlink:href="#aI"/><use transform="matrix(0.04938271604938272,0,0,0.04938271604938272,5.8765432098765435,0)" xlink:href="#bk"/><use transform="matrix(0.04938271604938272,0,0,0.04938271604938272,18.666666666666668,0)" xlink:href="#aW"/><use transform="matrix(0.04938271604938272,0,0,0.04938271604938272,29.481481481481477,0)" xlink:href="#aU"/></g><path fill="#333" d="M85 4C-2 5 27-109 22-190h50c7 57-23 150 33 157 60-5 35-97 40-157h50l1 190h-47c-2-12 1-28-3-38-12 25-28 42-61 42" id="bl"/><g id="V"><use transform="matrix(0.04938271604938272,0,0,0.04938271604938272,0,0)" xlink:href="#bl"/><use transform="matrix(0.04938271604938272,0,0,0.04938271604938272,10.814814814814815,0)" xlink:href="#aU"/><use transform="matrix(0.04938271604938272,0,0,0.04938271604938272,21.62962962962963,0)" xlink:href="#aT"/><use transform="matrix(0.04938271604938272,0,0,0.04938271604938272,26.567901234567902,0)" xlink:href="#bh"/><use transform="matrix(0.04938271604938272,0,0,0.04938271604938272,36.44444444444444,0)" xlink:href="#aW"/><use transform="matrix(0.04938271604938272,0,0,0.04938271604938272,47.25925925925926,0)" xlink:href="#aN"/></g><path fill="#333" d="M199 0l-22-63H83L61 0H9l90-248h61L250 0h-51zm-33-102l-36-108c-10 38-24 72-36 108h72" id="bm"/><g id="W"><use transform="matrix(0.04938271604938272,0,0,0.04938271604938272,0,0)" xlink:href="#aI"/><use transform="matrix(0.04938271604938272,0,0,0.04938271604938272,5.8765432098765435,0)" xlink:href="#bm"/><use transform="matrix(0.04938271604938272,0,0,0.04938271604938272,18.666666666666668,0)" xlink:href="#aL"/><use transform="matrix(0.04938271604938272,0,0,0.04938271604938272,23.60493827160494,0)" xlink:href="#aV"/><use transform="matrix(0.04938271604938272,0,0,0.04938271604938272,29.481481481481485,0)" xlink:href="#ba"/><use transform="matrix(0.04938271604938272,0,0,0.04938271604938272,36.39506172839506,0)" xlink:href="#bc"/></g><path fill="#333" d="M220-157c-53 9-28 100-34 157h-49v-107c1-27-5-49-29-50C55-147 81-57 75 0H25l-1-190h47c2 12-1 28 3 38 10-53 101-56 108 0 13-22 24-43 59-42 82 1 51 116 57 194h-49v-107c-1-25-5-48-29-50" id="bn"/><path fill="#333" d="M88-194c31-1 46 15 58 34l-1-101h50l1 261h-48c-2-10 0-23-3-31C134-8 116 4 84 4 32 4 16-41 15-95c0-56 19-97 73-99zm17 164c33 0 40-30 41-66 1-37-9-64-41-64s-38 30-39 65c0 43 13 65 39 65" id="bo"/><path fill="#333" d="M114-157C55-157 80-60 75 0H25v-261h50l-1 109c12-26 28-41 61-42 86-1 58 113 63 194h-50c-7-57 23-157-34-157" id="bp"/><g id="X"><use transform="matrix(0.04938271604938272,0,0,0.04938271604938272,0,0)" xlink:href="#bn"/><use transform="matrix(0.04938271604938272,0,0,0.04938271604938272,15.80246913580247,0)" xlink:href="#aW"/><use transform="matrix(0.04938271604938272,0,0,0.04938271604938272,26.617283950617285,0)" xlink:href="#bo"/><use transform="matrix(0.04938271604938272,0,0,0.04938271604938272,37.4320987654321,0)" xlink:href="#aT"/><use transform="matrix(0.04938271604938272,0,0,0.04938271604938272,42.370370370370374,0)" xlink:href="#bg"/><use transform="matrix(0.04938271604938272,0,0,0.04938271604938272,48.24691358024692,0)" xlink:href="#aT"/><use transform="matrix(0.04938271604938272,0,0,0.04938271604938272,53.18518518518519,0)" xlink:href="#bh"/><use transform="matrix(0.04938271604938272,0,0,0.04938271604938272,63.061728395061735,0)" xlink:href="#bp"/><use transform="matrix(0.04938271604938272,0,0,0.04938271604938272,73.87654320987654,0)" xlink:href="#bc"/><use transform="matrix(0.04938271604938272,0,0,0.04938271604938272,83.75308641975309,0)" xlink:href="#aN"/></g><path fill="#333" d="M15-91v-56l181-69v40L49-119l147 57v40" id="bq"/><path fill="#333" d="M67-125c0 54 23 88 75 88 28 0 53-7 68-21v-34h-60v-39h108v91C232-14 192 4 140 4 58 4 20-42 15-125 8-236 126-280 215-234c19 10 29 26 37 47l-47 15c-11-23-29-39-63-39-53 1-75 33-75 86" id="br"/><g id="Y"><use transform="matrix(0.04938271604938272,0,0,0.04938271604938272,0,0)" xlink:href="#bq"/><use transform="matrix(0.04938271604938272,0,0,0.04938271604938272,10.370370370370372,0)" xlink:href="#br"/><use transform="matrix(0.04938271604938272,0,0,0.04938271604938272,24.19753086419753,0)" xlink:href="#aW"/><use transform="matrix(0.04938271604938272,0,0,0.04938271604938272,35.01234567901235,0)" xlink:href="#aW"/><use transform="matrix(0.04938271604938272,0,0,0.04938271604938272,45.827160493827165,0)" xlink:href="#bi"/><use transform="matrix(0.04938271604938272,0,0,0.04938271604938272,56.64197530864198,0)" xlink:href="#aL"/><use transform="matrix(0.04938271604938272,0,0,0.04938271604938272,61.580246913580254,0)" xlink:href="#bc"/></g><path fill="#333" d="M230 0l2-204L168 0h-37L68-204 70 0H24v-248h70l56 185 57-185h69V0h-46" id="bs"/><path fill="#333" d="M137-138c1-29-70-34-71-4 15 46 118 7 119 86 1 83-164 76-172 9l43-7c4 19 20 25 44 25 33 8 57-30 24-41C81-84 22-81 20-136c-2-80 154-74 161-7" id="bt"/><path fill="#333" d="M15-22v-40l146-57-146-57v-40l181 69v56" id="bu"/><g id="Z"><use transform="matrix(0.04938271604938272,0,0,0.04938271604938272,0,0)" xlink:href="#bs"/><use transform="matrix(0.04938271604938272,0,0,0.04938271604938272,14.765432098765434,0)" xlink:href="#aK"/><use transform="matrix(0.04938271604938272,0,0,0.04938271604938272,24.641975308641978,0)" xlink:href="#bb"/><use transform="matrix(0.04938271604938272,0,0,0.04938271604938272,35.45679012345679,0)" xlink:href="#bt"/><use transform="matrix(0.04938271604938272,0,0,0.04938271604938272,45.333333333333336,0)" xlink:href="#bu"/></g><path fill="#333" d="M140-251c80 0 125 45 125 126S219 4 139 4C58 4 15-44 15-125s44-126 125-126zm-1 214c52 0 73-35 73-88 0-50-21-86-72-86-52 0-73 35-73 86s22 88 72 88" id="bv"/><g id="aa"><use transform="matrix(0.04938271604938272,0,0,0.04938271604938272,0,0)" xlink:href="#bq"/><use transform="matrix(0.04938271604938272,0,0,0.04938271604938272,10.370370370370372,0)" xlink:href="#bv"/><use transform="matrix(0.04938271604938272,0,0,0.04938271604938272,24.19753086419753,0)" xlink:href="#bb"/><use transform="matrix(0.04938271604938272,0,0,0.04938271604938272,35.01234567901235,0)" xlink:href="#bc"/><use transform="matrix(0.04938271604938272,0,0,0.04938271604938272,44.88888888888889,0)" xlink:href="#aU"/><use transform="matrix(0.04938271604938272,0,0,0.04938271604938272,55.70370370370371,0)" xlink:href="#aJ"/><use transform="matrix(0.04938271604938272,0,0,0.04938271604938272,67.55555555555556,0)" xlink:href="#aV"/><use transform="matrix(0.04938271604938272,0,0,0.04938271604938272,73.4320987654321,0)" xlink:href="#ba"/><use transform="matrix(0.04938271604938272,0,0,0.04938271604938272,80.34567901234568,0)" xlink:href="#bc"/><use transform="matrix(0.04938271604938272,0,0,0.04938271604938272,90.22222222222223,0)" xlink:href="#bc"/><use transform="matrix(0.04938271604938272,0,0,0.04938271604938272,100.09876543209877,0)" xlink:href="#aV"/><use transform="matrix(0.04938271604938272,0,0,0.04938271604938272,105.97530864197532,0)" xlink:href="#bs"/><use transform="matrix(0.04938271604938272,0,0,0.04938271604938272,120.74074074074075,0)" xlink:href="#aK"/><use transform="matrix(0.04938271604938272,0,0,0.04938271604938272,130.6172839506173,0)" xlink:href="#bb"/><use transform="matrix(0.04938271604938272,0,0,0.04938271604938272,141.4320987654321,0)" xlink:href="#bu"/></g><g id="ab"><use transform="matrix(0.06172839506172839,0,0,0.06172839506172839,0,0)" xlink:href="#aH"/><use transform="matrix(0.06172839506172839,0,0,0.06172839506172839,12.345679012345679,0)" xlink:href="#aj"/><use transform="matrix(0.06172839506172839,0,0,0.06172839506172839,24.691358024691358,0)" xlink:href="#aB"/></g><g id="ac"><use transform="matrix(0.04938271604938272,0,0,0.04938271604938272,0,0)" xlink:href="#bq"/><use transform="matrix(0.04938271604938272,0,0,0.04938271604938272,10.370370370370372,0)" xlink:href="#bm"/><use transform="matrix(0.04938271604938272,0,0,0.04938271604938272,23.160493827160497,0)" xlink:href="#bh"/><use transform="matrix(0.04938271604938272,0,0,0.04938271604938272,33.03703703703704,0)" xlink:href="#bh"/><use transform="matrix(0.04938271604938272,0,0,0.04938271604938272,42.91358024691358,0)" xlink:href="#aW"/><use transform="matrix(0.04938271604938272,0,0,0.04938271604938272,53.7283950617284,0)" xlink:href="#bl"/><use transform="matrix(0.04938271604938272,0,0,0.04938271604938272,64.54320987654322,0)" xlink:href="#aU"/><use transform="matrix(0.04938271604938272,0,0,0.04938271604938272,75.35802469135803,0)" xlink:href="#aV"/></g><g id="ad"><use transform="matrix(0.04938271604938272,0,0,0.04938271604938272,0,0)" xlink:href="#bb"/><use transform="matrix(0.04938271604938272,0,0,0.04938271604938272,10.814814814814815,0)" xlink:href="#ba"/><use transform="matrix(0.04938271604938272,0,0,0.04938271604938272,17.728395061728396,0)" xlink:href="#bc"/><use transform="matrix(0.04938271604938272,0,0,0.04938271604938272,27.60493827160494,0)" xlink:href="#bn"/><use transform="matrix(0.04938271604938272,0,0,0.04938271604938272,43.40740740740741,0)" xlink:href="#aT"/><use transform="matrix(0.04938271604938272,0,0,0.04938271604938272,48.345679012345684,0)" xlink:href="#bl"/><use transform="matrix(0.04938271604938272,0,0,0.04938271604938272,59.1604938271605,0)" xlink:href="#bn"/><use transform="matrix(0.04938271604938272,0,0,0.04938271604938272,74.96296296296298,0)" xlink:href="#bu"/></g><g id="ae"><use transform="matrix(0.04938271604938272,0,0,0.04938271604938272,0,0)" xlink:href="#bt"/><use transform="matrix(0.04938271604938272,0,0,0.04938271604938272,9.876543209876544,0)" xlink:href="#aV"/><use transform="matrix(0.04938271604938272,0,0,0.04938271604938272,15.753086419753087,0)" xlink:href="#aK"/><use transform="matrix(0.04938271604938272,0,0,0.04938271604938272,25.629629629629633,0)" xlink:href="#aU"/><use transform="matrix(0.04938271604938272,0,0,0.04938271604938272,36.44444444444445,0)" xlink:href="#bo"/><use transform="matrix(0.04938271604938272,0,0,0.04938271604938272,47.25925925925927,0)" xlink:href="#aK"/><use transform="matrix(0.04938271604938272,0,0,0.04938271604938272,57.135802469135804,0)" xlink:href="#ba"/><use transform="matrix(0.04938271604938272,0,0,0.04938271604938272,64.0493827160494,0)" xlink:href="#bo"/><use transform="matrix(0.04938271604938272,0,0,0.04938271604938272,74.8641975308642,0)" xlink:href="#bu"/></g><g id="ag"><use transform="matrix(0.04320987654320988,0,0,0.04320987654320988,0,0)" xlink:href="#au"/><use transform="matrix(0.04320987654320988,0,0,0.04320987654320988,10.370370370370372,0)" xlink:href="#ai"/><use transform="matrix(0.04320987654320988,0,0,0.04320987654320988,14.691358024691363,0)" xlink:href="#az"/><use transform="matrix(0.04320987654320988,0,0,0.04320987654320988,23.333333333333336,0)" xlink:href="#av"/><use transform="matrix(0.04320987654320988,0,0,0.04320987654320988,28.47530864197531,0)" xlink:href="#ai"/></g></defs></g></svg>