<svg xmlns="http://www.w3.org/2000/svg" xmlns:xlink="http://www.w3.org/1999/xlink" xmlns:lucid="lucid" width="2277" height="1342"><g transform="translate(1700 -480)" lucid:page-tab-id="HnGg5VDiHqJ2"><path d="M525.1 626l1.06.25 1.02.42.94.58.83.7.72.85.57.93.42 1.02.26 1.07.08 1.05v1123.5l-.08 1.05-.26 1.07-.42 1-.57.94-.72.84-.83.7-.94.58-1.02.42-1.06.26-1.06.08H-634.04l-1.06-.08-1.06-.26-1.02-.42-.94-.57-.83-.72-.72-.84-.57-.94-.42-1-.26-1.08-.08-1.06v-33.87h2v33.78l.07.83.18.77.3.72.4.66.52.6.6.5.66.42.73.3.76.18.82.06H523.96l.82-.06.76-.18.73-.3.67-.4.6-.52.5-.6.4-.67.3-.73.2-.76.06-.82V632.95l-.07-.82-.18-.76-.3-.73-.4-.66-.52-.6-.6-.5-.66-.42-.73-.3-.76-.18-.82-.07H-332.3v-2h856.34z" stroke="#5e5e5e" stroke-width=".05" fill="#5e5e5e"/><path d="M-639 1722.52h-2v-1.03h2z" fill="#5e5e5e"/><path d="M-638.98 1722.54H-641v-1.07h2.04zm-2-1.02v.97h1.96v-.98z" stroke="#5e5e5e" stroke-width=".05" fill="#5e5e5e"/><path d="M-332.28 627.9h-1.02v-2h1.02z" fill="#5e5e5e"/><path d="M-332.25 627.94h-1.08v-2.05h1.08zm-1.03-2v1.95h.98v-1.96z" stroke="#5e5e5e" stroke-width=".05" fill="#5e5e5e"/><use xlink:href="#a" transform="matrix(1,0,0,1,-657.8765432098764,1725.7650054707544) translate(0 14.222222222222223)"/><path d="M-1096.87 1324.04l-.08 1.06-.26 1.06-.43 1.02-.57.94-.7.83-.85.72-.94.57-1 .42-1.07.26-1.06.08h-250.13l-.82.07-.76.18-.73.3-.67.4-.6.52-.5.6-.4.66-.3.73-.2.76-.06.82v194.92l.07.82.18.76.3.73.4.67.52.6.6.5.66.4.73.3.76.2.82.06h71.46v2h-71.54l-1.06-.08-1.06-.26-1.02-.42-.94-.57-.83-.72-.72-.83-.57-.94-.42-1.02-.26-1.06-.08-1.06v-195.08l.08-1.06.26-1.06.42-1.02.57-.94.72-.83.83-.72.94-.57 1.02-.42 1.06-.26 1.06-.08h250.13l.82-.07.76-.18.72-.3.67-.4.6-.52.5-.6.42-.66.3-.73.17-.76.06-.82v-27.83h2zm0-70.58h-2v-35.7h2z" stroke="#5e5e5e" stroke-width=".05" fill="#5e5e5e"/><path d="M-1281.5 1538h-1.03v-2h1.03z" fill="#5e5e5e"/><path d="M-1281.47 1538.03h-1.08v-2.06h1.08zm-1.03-2v1.94h.97v-1.94z" stroke="#5e5e5e" stroke-width=".05" fill="#5e5e5e"/><path d="M-1096.87 1217.78h-2v-1.02h2z" fill="#5e5e5e"/><path d="M-1096.84 1217.8h-2.05v-1.07h2.06zm-2-1.02v.98h1.95v-.98z" stroke="#5e5e5e" stroke-width=".05" fill="#5e5e5e"/><use xlink:href="#b" transform="matrix(1,0,0,1,-1134.8291033709675,1253.4628474422045) translate(0 14.222222222222223)"/><use xlink:href="#c" transform="matrix(1,0,0,1,-1134.8291033709675,1253.4628474422045) translate(40.44444444444445 14.222222222222223)"/><use xlink:href="#d" transform="matrix(1,0,0,1,-1134.8291033709675,1253.4628474422045) translate(0 35.55555555555556)"/><use xlink:href="#e" transform="matrix(1,0,0,1,-1115.742683617881,1217.3333333333333) translate(0 14.222222222222223)"/><path d="M-768.53 1304.04l-.1 1.06-.24 1.06-.42 1.02-.57.94-.7.83-.85.72-.93.57-1.02.42-1.07.26-1.05.08h-118.46l-.82.07-.76.18-.73.3-.67.4-.6.52-.5.6-.4.66-.3.73-.2.76-.06.82v207.33l-.08 1.06-.26 1.07-.42 1-.57.95-.72.84-.83.7-.94.57-1.02.42-1.06.25-1.06.08h-71.54v-2h71.46l.82-.06.76-.18.73-.3.67-.42.6-.5.5-.6.4-.68.3-.72.2-.77.06-.8v-207.34l.08-1.06.26-1.06.42-1.02.57-.94.72-.83.83-.72.94-.57 1.02-.42 1.06-.26 1.06-.08h118.47l.82-.07.76-.18.74-.3.66-.4.6-.52.5-.6.42-.66.3-.73.18-.76.07-.82v-34.63h2zm0-56.04h-2v-30.24h2z" stroke="#5e5e5e" stroke-width=".05" fill="#5e5e5e"/><path d="M-977.47 1530.33h-1.03v-2h1.03z" fill="#5e5e5e"/><path d="M-977.45 1530.36h-1.07v-2.05h1.07zm-1.02-2v1.95h.97v-1.94z" stroke="#5e5e5e" stroke-width=".05" fill="#5e5e5e"/><path d="M-768.53 1217.78h-2v-1.02h2z" fill="#5e5e5e"/><path d="M-768.5 1217.8h-2.06v-1.07h2.05zm-2-1.02v.98h1.94v-.98z" stroke="#5e5e5e" stroke-width=".05" fill="#5e5e5e"/><use xlink:href="#f" transform="matrix(1,0,0,1,-822.7179938624178,1248) translate(0 14.222222222222223)"/><use xlink:href="#g" transform="matrix(1,0,0,1,-822.7179938624178,1248) translate(40.44444444444445 14.222222222222223)"/><use xlink:href="#e" transform="matrix(1,0,0,1,-787.409351887109,1219.721141836185) translate(0 14.222222222222223)"/><path d="M-52.53 1344.04l-.1 1.06-.24 1.06-.42 1.02-.57.94-.7.83-.85.72-.93.57-1.02.42-1.07.26-1.05.08h-814.46l-.82.07-.76.18-.73.3-.67.4-.6.52-.5.6-.4.66-.3.73-.2.76-.06.82v217.3l-.08 1.06-.26 1.06-.42 1.02-.57.94-.72.83-.83.72-.94.57-1.02.42-1.06.26-1.06.08h-91.54v-2h91.46l.82-.06.76-.2.73-.3.67-.4.6-.5.5-.6.4-.67.3-.72.2-.77.06-.82v-217.3l.08-1.06.26-1.06.42-1.02.57-.94.72-.83.83-.72.94-.57 1.02-.42 1.06-.26 1.06-.08h814.47l.82-.07.76-.18.74-.3.66-.4.6-.52.5-.6.42-.66.3-.73.18-.76.07-.82v-14.24h2zm0-57h-2v-69.3h2z" stroke="#5e5e5e" stroke-width=".05" fill="#5e5e5e"/><path d="M-977.47 1580.3h-1.03v-2h1.03z" fill="#5e5e5e"/><path d="M-977.45 1580.33h-1.07v-2.05h1.07zm-1.02-2v1.95h.97v-1.95z" stroke="#5e5e5e" stroke-width=".05" fill="#5e5e5e"/><path d="M-52.53 1217.78h-2v-1.03h2z" fill="#5e5e5e"/><path d="M-52.5 1217.8h-2.06v-1.07h2.05zm-2-1.02v.98h1.94v-.98z" stroke="#5e5e5e" stroke-width=".05" fill="#5e5e5e"/><use xlink:href="#h" transform="matrix(1,0,0,1,-108.24885677790553,1287.0522737442532) translate(0 14.222222222222223)"/><use xlink:href="#i" transform="matrix(1,0,0,1,-108.24885677790553,1287.0522737442532) translate(40.44444444444445 14.222222222222223)"/><use xlink:href="#j" transform="matrix(1,0,0,1,-108.24885677790553,1287.0522737442532) translate(0 35.55555555555556)"/><use xlink:href="#a" transform="matrix(1,0,0,1,-71.40935060506604,1225.2139445527157) translate(0 14.222222222222223)"/><path d="M-1282.5 1644H-1438" stroke="#5e5e5e" stroke-width="2" fill="none"/><path d="M-1281.5 1645h-1.03v-2h1.03zM-1437.97 1645h-1.03v-2h1.03z" stroke="#5e5e5e" stroke-width=".05" fill="#5e5e5e"/><use xlink:href="#e" transform="matrix(1,0,0,1,-1422.5155284073182,1618.6666666666665) translate(0 14.222222222222223)"/><path d="M-977.5 1640.5H-752" stroke="#5e5e5e" stroke-width="2" fill="none"/><path d="M-977.47 1641.5h-1.03v-2h1.03zM-751 1641.5h-1.03v-2h1.03z" stroke="#5e5e5e" stroke-width=".05" fill="#5e5e5e"/><use xlink:href="#e" transform="matrix(1,0,0,1,-786.3180868872174,1615.159817302053) translate(0 14.222222222222223)"/><path d="M81.07 1649H258" stroke="#5e5e5e" stroke-width="2" fill="none"/><path d="M81.1 1650h-1.03v-2h1.02zM259 1650h-1.03v-2H259z" stroke="#5e5e5e" stroke-width=".05" fill="#5e5e5e"/><use xlink:href="#e" transform="matrix(1,0,0,1,229.63548529354247,1623.6565013544396) translate(0 14.222222222222223)"/><path d="M-203.93 1641.32h-38.6a.4.4 0 0 1-.4-.4.4.4 0 0 0-.42-.43H-528" stroke="#5e5e5e" stroke-width="2" fill="none"/><path d="M-202.93 1642.32h-1.03v-2h1.03zM-527.97 1641.5H-529v-2h1.03z" stroke="#5e5e5e" stroke-width=".05" fill="#5e5e5e"/><use xlink:href="#e" transform="matrix(1,0,0,1,-524.6077748210225,1615.159817302053) translate(0 14.222222222222223)"/><path d="M-1500 1039.76a6 6 0 0 1 6-6h208a6 6 0 0 1 6 6v170a6 6 0 0 1-6 6h-208a6 6 0 0 1-6-6z" stroke="#5e5e5e" stroke-width="2" fill="#fff"/><path d="M-1500 1071.36h220" stroke="#5e5e5e" stroke-width="2" fill="none"/><use xlink:href="#k" transform="matrix(1,0,0,1,-1492,1041.7545272570633) translate(89 14.6)"/><use xlink:href="#l" transform="matrix(1,0,0,1,-1488,1079.3545272570632) translate(0 57.388888888888886)"/><use xlink:href="#m" transform="matrix(1,0,0,1,-1488,1079.3545272570632) translate(0 78.72222222222223)"/><path d="M-1160 1039.76a6 6 0 0 1 6-6h208a6 6 0 0 1 6 6v170a6 6 0 0 1-6 6h-208a6 6 0 0 1-6-6z" stroke="#5e5e5e" stroke-width="2" fill="#fff"/><path d="M-1160 1071.36h220" stroke="#5e5e5e" stroke-width="2" fill="none"/><use xlink:href="#n" transform="matrix(1,0,0,1,-1152,1041.7545272570633) translate(37.599999999999994 14.6)"/><use xlink:href="#o" transform="matrix(1,0,0,1,-1152,1041.7545272570633) translate(79.55 14.6)"/><use xlink:href="#l" transform="matrix(1,0,0,1,-1148,1079.3545272570632) translate(0 57.388888888888886)"/><use xlink:href="#m" transform="matrix(1,0,0,1,-1148,1079.3545272570632) translate(0 78.72222222222223)"/><path d="M-480 1039.76a6 6 0 0 1 6-6h208a6 6 0 0 1 6 6v170a6 6 0 0 1-6 6h-208a6 6 0 0 1-6-6z" stroke="#5e5e5e" stroke-width="2" fill="#fff"/><path d="M-480 1092.95h220" stroke="#5e5e5e" stroke-width="2" fill="none"/><use xlink:href="#p" transform="matrix(1,0,0,1,-472,1041.7545272570633) translate(18.650000000000006 14.799999999999999)"/><use xlink:href="#q" transform="matrix(1,0,0,1,-472,1041.7545272570633) translate(111.80000000000001 14.799999999999999)"/><use xlink:href="#r" transform="matrix(1,0,0,1,-472,1041.7545272570633) translate(69.57499999999999 36.4)"/><use xlink:href="#l" transform="matrix(1,0,0,1,-468,1100.9545272570633) translate(0 46.888888888888886)"/><use xlink:href="#m" transform="matrix(1,0,0,1,-468,1100.9545272570633) translate(0 68.22222222222223)"/><path d="M-140 1060.76a6 6 0 0 1 6-6H74a6 6 0 0 1 6 6v149a6 6 0 0 1-6 6h-208a6 6 0 0 1-6-6z" stroke="#5e5e5e" stroke-width="2" fill="#fff"/><path d="M-140 1092.36H80" stroke="#5e5e5e" stroke-width="2" fill="none"/><use xlink:href="#s" transform="matrix(1,0,0,1,-132.00000000000023,1062.7545272570633) translate(15.849999999999994 14.6)"/><use xlink:href="#t" transform="matrix(1,0,0,1,-132.00000000000023,1062.7545272570633) translate(58.4 14.6)"/><use xlink:href="#l" transform="matrix(1,0,0,1,-128.00000000000023,1100.3545272570632) translate(0 46.888888888888886)"/><use xlink:href="#m" transform="matrix(1,0,0,1,-128.00000000000023,1100.3545272570632) translate(0 68.22222222222223)"/><path d="M-820 1039.76a6 6 0 0 1 6-6h208a6 6 0 0 1 6 6v170a6 6 0 0 1-6 6h-208a6 6 0 0 1-6-6z" stroke="#5e5e5e" stroke-width="2" fill="#fff"/><path d="M-820 1071.36h220" stroke="#5e5e5e" stroke-width="2" fill="none"/><use xlink:href="#u" transform="matrix(1,0,0,1,-812,1041.7545272570633) translate(57.12499999999999 14.6)"/><use xlink:href="#l" transform="matrix(1,0,0,1,-808,1079.3545272570632) translate(0 57.388888888888886)"/><use xlink:href="#m" transform="matrix(1,0,0,1,-808,1079.3545272570632) translate(0 78.72222222222223)"/><path d="M-1325.33 553.37c-13.26 0-24 10.75-24 24v72c0 13.26 10.74 24 24 24h232c13.25 0 24-10.74 24-24v-72c0-13.25-10.75-24-24-24z" stroke="#000" stroke-width="3" fill="#fff"/><path d="M-1349.33 597.37h280" stroke="#000" stroke-width="3" fill="none"/><use xlink:href="#v" transform="matrix(1,0,0,1,-1293.333333333333,553.3740157480316) translate(16.419753086419774 14.888888888888886)"/><use xlink:href="#w" transform="matrix(1,0,0,1,-1293.333333333333,553.3740157480316) translate(87.38271604938271 14.888888888888886)"/><use xlink:href="#x" transform="matrix(1,0,0,1,-1293.333333333333,553.3740157480316) translate(29.777777777777793 36.222222222222214)"/><path d="M-1457.9 1031.76h-2V978.9h2zm139.1-243.6l-.07 1.06-.26 1.07-.42 1-.57.94-.7.84-.85.7-.94.58-1.02.42-1.07.26-1.05.08h-127.12l-.82.07-.75.17-.73.3-.66.4-.6.52-.5.6-.42.65-.3.73-.18.76-.07.82v157.42h-2v-157.5l.08-1.05.25-1.07.42-1 .58-.95.7-.83.85-.7.93-.6 1.03-.4 1.07-.26 1.05-.08h127.13l.82-.06.76-.18.72-.3.67-.4.6-.52.5-.6.42-.67.3-.73.18-.76.06-.8V675.86h2z" stroke="#5e5e5e" stroke-width=".05" fill="#5e5e5e"/><path d="M-1457.9 1032.76h-2v-1.03h2z" fill="#5e5e5e"/><path d="M-1457.88 1032.78h-2.05v-1.08h2.05zm-2-1.03v.98h1.95v-.98z" stroke="#5e5e5e" stroke-width=".05" fill="#5e5e5e"/><path d="M-1318.8 675.9h-2v-1.03h2z" fill="#5e5e5e"/><path d="M-1318.76 675.92h-2.05v-1.07h2.04zm-2-1.02v.98h1.95v-.98z" stroke="#5e5e5e" stroke-width=".05" fill="#5e5e5e"/><use xlink:href="#e" transform="matrix(1,0,0,1,-1476.7844006759888,1012.2242089849957) translate(0 14.222222222222223)"/><use xlink:href="#y" transform="matrix(1,0,0,1,-1492.438721663643,957.5811205002909) translate(0 14.222222222222223)"/><use xlink:href="#z" transform="matrix(1,0,0,1,-1492.438721663643,957.5811205002909) translate(40.44444444444445 14.222222222222223)"/><path d="M-115.26 1052.76h-2v-79.4h2zm-971.77-204.42l.06.82.18.76.32.72.4.67.5.6.6.52.68.4.72.3.76.2.83.05h959.77l1.06.1 1.07.24 1.02.43.93.58.84.72.7.84.58.94.42 1 .25 1.08.1 1.06v70.37h-2v-70.3l-.08-.8-.18-.77-.3-.73-.42-.66-.5-.6-.6-.5-.68-.42-.72-.3-.76-.18-.82-.07h-959.77l-1.06-.08-1.07-.27-1-.42-.95-.56-.83-.7-.72-.85-.57-.95-.42-1-.25-1.08-.08-1.06V675.34h2z" stroke="#5e5e5e" stroke-width=".05" fill="#5e5e5e"/><path d="M-115.26 1053.76h-2v-1.03h2z" fill="#5e5e5e"/><path d="M-115.24 1053.78h-2.05v-1.08h2.06zm-2-1.03v.98h1.95v-.98z" stroke="#5e5e5e" stroke-width=".05" fill="#5e5e5e"/><path d="M-1087.03 675.36h-2v-.93l1-.1 1-.32z" fill="#5e5e5e"/><path d="M-1087 675.38h-2.06v-.97l1.02-.1 1.03-.33zm-1.03-1.02l-.98.1v.87h1.94v-1.3z" stroke="#5e5e5e" stroke-width=".05" fill="#5e5e5e"/><use xlink:href="#e" transform="matrix(1,0,0,1,-134.140410570195,1030.4611877595935) translate(0 14.222222222222223)"/><use xlink:href="#A" transform="matrix(1,0,0,1,-170.9799167430345,930.7073490813652) translate(0 14.222222222222223)"/><use xlink:href="#B" transform="matrix(1,0,0,1,-170.9799167430345,930.7073490813652) translate(40.44444444444445 14.222222222222223)"/><use xlink:href="#C" transform="matrix(1,0,0,1,-170.9799167430345,930.7073490813652) translate(0 35.55555555555556)"/><path d="M-1137.27 1031.76h-2v-20.14h2zm-122.97-124.42l.07.82.18.76.3.72.42.67.5.6.6.52.67.4.72.3.76.2.82.05h110.97l1.05.1 1.07.24 1 .43.94.58.84.72.7.84.6.94.4 1 .26 1.08.1 1.06v49.6h-2v-49.53l-.08-.8-.18-.77-.3-.73-.4-.66-.52-.6-.6-.5-.66-.42-.73-.3-.76-.18-.8-.07h-110.98l-1.05-.08-1.07-.27-1.02-.42-.93-.56-.84-.7-.7-.85-.58-.95-.42-1-.25-1.08-.1-1.06V675.88h2z" stroke="#5e5e5e" stroke-width=".05" fill="#5e5e5e"/><path d="M-1137.27 1032.76h-2v-1.03h2z" fill="#5e5e5e"/><path d="M-1137.25 1032.78h-2.05v-1.08h2.05zm-2-1.03v.98h1.95v-.98z" stroke="#5e5e5e" stroke-width=".05" fill="#5e5e5e"/><path d="M-1260.24 675.9h-2v-1.03h2z" fill="#5e5e5e"/><path d="M-1260.2 675.92h-2.06v-1.07h2.05zm-2-1.02v.98h1.94v-.98z" stroke="#5e5e5e" stroke-width=".05" fill="#5e5e5e"/><use xlink:href="#e" transform="matrix(1,0,0,1,-1156.148375396343,1011.5409901146096) translate(0 14.222222222222223)"/><use xlink:href="#b" transform="matrix(1,0,0,1,-1175.2347951494294,968.9517921363462) translate(0 14.222222222222223)"/><use xlink:href="#c" transform="matrix(1,0,0,1,-1175.2347951494294,968.9517921363462) translate(40.44444444444445 14.222222222222223)"/><use xlink:href="#d" transform="matrix(1,0,0,1,-1175.2347951494294,968.9517921363462) translate(0 35.55555555555556)"/><path d="M-456.93 1031.76h-2v-26.24h2zm-670.44-164.42l.06.82.18.76.3.72.4.67.52.6.6.52.66.4.73.3.75.2.82.05h658.44l1.07.1 1.07.24 1 .43.95.58.82.72.72.84.57.94.43 1 .26 1.08.07 1.06v83.5h-2v-83.43l-.06-.8-.17-.77-.3-.73-.4-.66-.52-.6-.6-.5-.66-.42-.72-.3-.76-.18-.83-.07h-658.44l-1.07-.08-1.06-.27-1.02-.42-.94-.56-.82-.7-.72-.85-.57-.95-.43-1-.26-1.08-.07-1.06V675.88h2z" stroke="#5e5e5e" stroke-width=".05" fill="#5e5e5e"/><path d="M-456.93 1032.76h-2v-1.03h2z" fill="#5e5e5e"/><path d="M-456.9 1032.78h-2.05v-1.08h2.05zm-2-1.03v.98h1.95v-.98z" stroke="#5e5e5e" stroke-width=".05" fill="#5e5e5e"/><path d="M-1127.37 675.9h-2v-1.03h2z" fill="#5e5e5e"/><path d="M-1127.35 675.92h-2.05v-1.07h2.06zm-2-1.02v.98h1.95v-.98z" stroke="#5e5e5e" stroke-width=".05" fill="#5e5e5e"/><use xlink:href="#e" transform="matrix(1,0,0,1,-475.8030942681864,1012.0340270856832) translate(0 14.222222222222223)"/><use xlink:href="#D" transform="matrix(1,0,0,1,-510.17346463855677,962.8546265576834) translate(0 14.222222222222223)"/><use xlink:href="#E" transform="matrix(1,0,0,1,-510.17346463855677,962.8546265576834) translate(40.44444444444445 14.222222222222223)"/><use xlink:href="#F" transform="matrix(1,0,0,1,-510.17346463855677,962.8546265576834) translate(0 35.55555555555556)"/><use xlink:href="#G" transform="matrix(1,0,0,1,-510.17346463855677,962.8546265576834) translate(60.246913580246925 35.55555555555556)"/><path d="M-972 633.37h-94.83" stroke="#5e5e5e" stroke-width="2" fill="none"/><path d="M-971 634.37h-1.03v-2h1.03zM-1066.8 634.37h-1.03v-2h1.02z" stroke="#5e5e5e" stroke-width=".05" fill="#5e5e5e"/><use xlink:href="#e" transform="matrix(1,0,0,1,-988.3268995367855,608.0406824146984) translate(0 14.222222222222223)"/><path d="M-1029.33 629.04a6 6 0 0 0-6-6h-51a5 5 0 0 1-5-5 1.92 1.92 0 0 0-3.35-1.28l-10.64 11.82a6.67 6.67 0 0 0 0 8.92l10.64 11.82a1.92 1.92 0 0 0 3.35-1.28 5 5 0 0 1 5-5h51a6 6 0 0 0 6-6zM-1093.33 653.37a6 6 0 0 0-6 6v51a5 5 0 0 1-5 5 1.92 1.92 0 0 0-1.3 3.35l11.84 10.64a6.67 6.67 0 0 0 8.93 0l11.82-10.64a1.92 1.92 0 0 0-1.28-3.35 5 5 0 0 1-5-5v-51a6 6 0 0 0-6-6zM-1133.33 653.37a6 6 0 0 0-6 6v51a5 5 0 0 1-5 5 1.92 1.92 0 0 0-1.3 3.35l11.84 10.64a6.67 6.67 0 0 0 8.93 0l11.82-10.64a1.92 1.92 0 0 0-1.28-3.35 5 5 0 0 1-5-5v-51a6 6 0 0 0-6-6z" stroke="#5e5e5e" stroke-width="3"/><path d="M-794.92 1031.76h-2v-22.44h2zm-373.6-144.42l.05.82.18.76.32.72.4.67.5.6.6.52.68.4.72.3.77.2.8.05h361.6l1.07.1 1.07.24 1 .43.95.58.83.72.7.84.6.94.4 1 .26 1.08.08 1.06v67.3h-2v-67.23l-.07-.8-.17-.77-.3-.73-.4-.66-.52-.6-.6-.5-.66-.42-.72-.3-.76-.18-.82-.07h-361.6l-1.07-.08-1.07-.27-1-.42-.95-.56-.83-.7-.72-.85-.57-.95-.42-1-.25-1.08-.08-1.06V675.88h2z" stroke="#5e5e5e" stroke-width=".05" fill="#5e5e5e"/><path d="M-1168.53 675.9h-2v-1.03h2z" fill="#5e5e5e"/><path d="M-1168.5 675.92h-2.06v-1.07h2.05zm-2-1.02v.98h1.94v-.98z" stroke="#5e5e5e" stroke-width=".05" fill="#5e5e5e"/><path d="M-794.92 1032.76h-2v-1.03h2z" fill="#5e5e5e"/><path d="M-794.9 1032.78h-2.05v-1.08h2.05zm-2-1.03v.98h1.95v-.98z" stroke="#5e5e5e" stroke-width=".05" fill="#5e5e5e"/><use xlink:href="#e" transform="matrix(1,0,0,1,-813.8016670319021,1012.3168252424852) translate(0 14.222222222222223)"/><use xlink:href="#H" transform="matrix(1,0,0,1,-828.8880867849886,966.64818188426) translate(0 14.222222222222223)"/><use xlink:href="#I" transform="matrix(1,0,0,1,-828.8880867849886,966.64818188426) translate(0 35.55555555555556)"/><path d="M-1173.33 653.37a6 6 0 0 0-6 6v51a5 5 0 0 1-5 5 1.92 1.92 0 0 0-1.3 3.35l11.84 10.64a6.67 6.67 0 0 0 8.93 0l11.82-10.64a1.92 1.92 0 0 0-1.28-3.35 5 5 0 0 1-5-5v-51a6 6 0 0 0-6-6zM-1264 653.37a6 6 0 0 0-6 6v51a5 5 0 0 1-5 5 1.92 1.92 0 0 0-1.28 3.35l11.82 10.64a6.67 6.67 0 0 0 8.92 0l11.82-10.64a1.92 1.92 0 0 0-1.28-3.35 5 5 0 0 1-5-5v-51a6 6 0 0 0-6-6zM-1324 653.24a6 6 0 0 0-5.95 6.05l.42 51a5 5 0 0 1-4.95 5.03 1.92 1.92 0 0 0-1.26 3.36l11.9 10.53a6.67 6.67 0 0 0 8.93-.07l11.73-10.74a1.92 1.92 0 0 0-1.3-3.34 5 5 0 0 1-5.06-4.95l-.42-51a6 6 0 0 0-6.05-5.96z" stroke="#5e5e5e" stroke-width="3"/><path d="M-750 1566.5a6 6 0 0 1 6-6h208a6 6 0 0 1 6 6v148a6 6 0 0 1-6 6h-208a6 6 0 0 1-6-6z" stroke="#5e5e5e" stroke-width="2" fill="#fff"/><path d="M-750 1598.1h220" stroke="#5e5e5e" stroke-width="2" fill="none"/><use xlink:href="#J" transform="matrix(1,0,0,1,-742,1568.4931506353864) translate(30.549999999999997 14.6)"/><use xlink:href="#K" transform="matrix(1,0,0,1,-738,1606.0931506353863) translate(0 35.22222222222222)"/><use xlink:href="#L" transform="matrix(1,0,0,1,-738,1606.0931506353863) translate(65.0864197530864 35.22222222222222)"/><use xlink:href="#M" transform="matrix(1,0,0,1,-738,1606.0931506353863) translate(0 56.55555555555555)"/><use xlink:href="#N" transform="matrix(1,0,0,1,-738,1606.0931506353863) translate(0 77.88888888888889)"/><path d="M-590.8 566.9c-13.26 0-24 10.76-24 24v72c0 13.27 10.74 24 24 24h232c13.25 0 24-10.73 24-24v-72c0-13.24-10.75-24-24-24z" stroke="#000" stroke-width="3" fill="#fff"/><path d="M-614.8 610.9h280" stroke="#000" stroke-width="3" fill="none"/><use xlink:href="#O" transform="matrix(1,0,0,1,-558.8024871442722,566.9124772864931) translate(30.22222222222223 14.888888888888886)"/><use xlink:href="#w" transform="matrix(1,0,0,1,-558.8024871442722,566.9124772864931) translate(73.58024691358025 14.888888888888886)"/><use xlink:href="#P" transform="matrix(1,0,0,1,-558.8024871442722,566.9124772864931) translate(23.33333333333335 36.222222222222214)"/><path d="M-1320.14 1031.76h-2v-24.25h2zm727.6-224.35l-.1 1.07-.25 1.07-.4 1-.58.95-.72.83-.83.7-.94.58-1.02.43-1.06.26-1.05.07h-484.38l-.36-2.18-1.46-2-2.4-.8-1.12.18-2 1.46-1.1 3.33h-31.9l-.35-2.18-1.47-2-2.4-.8-1.12.18-2 1.46-1.1 3.33h-32.72l-.36-2.18-1.46-2-2.4-.8-1.12.18-2 1.46-1.1 3.33h-83.27l-.34-2.18-1.46-2-2.42-.8-1.1.18-2 1.46-1.1 3.33h-49.6l-.8.07-.77.18-.7.3-.68.4-.6.52-.5.6-.42.66-.3.73-.18.76-.07.8V986.2h-2V819.34l.1-1.06.24-1.07.4-1 .6-.94.7-.84.84-.7.93-.6 1.02-.4 1.06-.26 1.06-.1h48.22l.84-2.56 2.9-2.12 2.06-.33 3.5 1.14 2.12 2.9.15.97h80.14l.84-2.57 2.9-2.12 2.07-.33 3.5 1.14 2.1 2.9.17.97h29.6l.82-2.57 2.9-2.12 2.07-.33 3.5 1.14 2.12 2.9.16.97h28.76l.84-2.57 2.9-2.12 2.07-.33 3.5 1.14 2.1 2.9.17.97h482.6l.8-.06.77-.17.72-.3.67-.4.58-.52.5-.6.42-.66.3-.72.18-.76.07-.82V689.25h2z" stroke="#5e5e5e" stroke-width=".05" fill="#5e5e5e"/><path d="M-1320.14 1032.76h-2v-1.03h2z" fill="#5e5e5e"/><path d="M-1320.12 1032.78h-2.05v-1.08h2.05zm-2-1.03v.98h1.95v-.98z" stroke="#5e5e5e" stroke-width=".05" fill="#5e5e5e"/><path d="M-593.73 688.25l1.18.07v.97h-2v-1.23z" fill="#5e5e5e"/><path d="M-593.73 688.23l1.2.06v1h-2.05v-1.26zm-.8 1.03h1.95v-.92l-1.15-.07-.8-.17z" stroke="#5e5e5e" stroke-width=".05" fill="#5e5e5e"/><use xlink:href="#y" transform="matrix(1,0,0,1,-1354.6762056909731,986.1821329203973) translate(0 14.222222222222223)"/><use xlink:href="#z" transform="matrix(1,0,0,1,-1354.6762056909731,986.1821329203973) translate(40.44444444444445 14.222222222222223)"/><use xlink:href="#e" transform="matrix(1,0,0,1,-1313.1453414934422,1009.5422519864217) translate(0 14.222222222222223)"/><path d="M-276.86 1031.76h-2v-20.33h2zM-414 850.23l-2.2.35-2 1.46-.78 2.4.18 1.12 1.46 2 3.34 1.1v48.68l.06.82.2.76.3.72.4.67.5.6.6.52.67.4.72.3.77.2.82.05h125.14l1.05.1 1.07.24 1.02.43.93.58.84.72.7.84.58.94.42 1 .25 1.08.1 1.06v49.42h-2V919.4l-.08-.8-.18-.77-.3-.73-.42-.66-.5-.6-.6-.5-.68-.42-.72-.3-.76-.18-.82-.07h-125.14l-1.06-.08-1.07-.27-1-.42-.95-.56-.83-.7-.72-.85-.57-.95-.42-1-.26-1.08-.08-1.06v-47.3l-2.57-.84-2.13-2.9-.33-2.07 1.14-3.5 2.92-2.12.98-.16v-159.1h2z" stroke="#5e5e5e" stroke-width=".05" fill="#5e5e5e"/><path d="M-276.86 1032.76h-2v-1.03h2z" fill="#5e5e5e"/><path d="M-276.84 1032.78h-2.05v-1.08h2.06zm-2-1.03v.98h1.95v-.98z" stroke="#5e5e5e" stroke-width=".05" fill="#5e5e5e"/><path d="M-414 689.44h-2v-1.03h2z" fill="#5e5e5e"/><path d="M-413.98 689.46h-2.05v-1.07h2.05zm-2-1.02v.97h1.95v-.96z" stroke="#5e5e5e" stroke-width=".05" fill="#5e5e5e"/><use xlink:href="#D" transform="matrix(1,0,0,1,-330.11013395258095,968.7593405739358) translate(0 14.222222222222223)"/><use xlink:href="#E" transform="matrix(1,0,0,1,-330.11013395258095,968.7593405739358) translate(40.44444444444445 14.222222222222223)"/><use xlink:href="#F" transform="matrix(1,0,0,1,-330.11013395258095,968.7593405739358) translate(0 35.55555555555556)"/><use xlink:href="#G" transform="matrix(1,0,0,1,-330.11013395258095,968.7593405739358) translate(60.246913580246925 35.55555555555556)"/><use xlink:href="#e" transform="matrix(1,0,0,1,-269.863220372334,1011.9856051235614) translate(0 14.222222222222223)"/><path d="M-1049 1031.76h-2v-27.8h2zm512.33-204.35l-.08 1.07-.26 1.07-.43 1-.57.95-.72.83-.83.7-.94.58-1 .43-1.07.26-1.06.07h-500.33l-.82.07-.76.18-.73.3-.67.4-.6.52-.5.6-.4.66-.3.73-.2.76-.06.8v10.83l-2.18.35-2 1.46-.8 2.4.18 1.12 1.46 2 3.34 1.1v10.57l-2.18.35-2 1.46-.8 2.4.18 1.12 1.46 2 3.34 1.1v11.57l-2.18.35-2 1.46-.8 2.4.18 1.12 1.46 2 3.34 1.1v63.63h-2v-62.2l-2.57-.84-2.12-2.9-.33-2.07 1.14-3.5 2.92-2.12.98-.16v-8.42l-2.57-.84-2.12-2.9-.33-2.07 1.14-3.5 2.92-2.12.98-.16v-7.42l-2.57-.84-2.12-2.9-.33-2.07 1.14-3.5 2.92-2.12.98-.16v-9.18l.08-1.06.26-1.07.42-1 .57-.94.72-.84.83-.7.94-.6 1.02-.4 1.06-.26 1.06-.1h500.33l.8-.05.78-.17.72-.3.67-.4.6-.52.5-.6.4-.66.3-.72.2-.76.06-.82V689.4h2z" stroke="#5e5e5e" stroke-width=".05" fill="#5e5e5e"/><path d="M-1049 1032.76h-2v-1.03h2z" fill="#5e5e5e"/><path d="M-1048.97 1032.78h-2.06v-1.08h2.06zm-2-1.03v.98h1.94v-.98z" stroke="#5e5e5e" stroke-width=".05" fill="#5e5e5e"/><path d="M-536.67 689.44h-2v-1.03h2z" fill="#5e5e5e"/><path d="M-536.64 689.46h-2.05v-1.07h2.06zm-2-1.02v.97h1.95v-.96z" stroke="#5e5e5e" stroke-width=".05" fill="#5e5e5e"/><use xlink:href="#b" transform="matrix(1,0,0,1,-1086.962962962963,961.2883829686704) translate(0 14.222222222222223)"/><use xlink:href="#c" transform="matrix(1,0,0,1,-1086.962962962963,961.2883829686704) translate(40.44444444444445 14.222222222222223)"/><use xlink:href="#d" transform="matrix(1,0,0,1,-1086.962962962963,961.2883829686704) translate(0 35.55555555555556)"/><use xlink:href="#e" transform="matrix(1,0,0,1,-1042,1011.9150345158953) translate(0 14.222222222222223)"/><path d="M59.14 1052.76h-2v-83.4h2zm-412.17-215.42l.07.82.18.76.3.72.4.67.52.6.6.52.66.4.73.3.76.2.8.05H52.2l1.06.1 1.07.24 1.02.43.94.58.83.72.7.84.58.94.42 1 .26 1.08.08 1.06v77.37h-2v-77.3l-.06-.8-.18-.77-.3-.73-.4-.66-.52-.6-.6-.5-.67-.42-.7-.3-.78-.18-.82-.07h-400.17l-1.05-.08-1.07-.27-1-.42-.94-.56-.84-.7-.7-.85-.6-.95-.4-1-.26-1.08-.1-1.06V688.93h2z" stroke="#5e5e5e" stroke-width=".05" fill="#5e5e5e"/><path d="M59.14 1053.76h-2v-1.03h2z" fill="#5e5e5e"/><path d="M59.17 1053.78h-2.05v-1.08h2.05zm-2-1.03v.98h1.95v-.98z" stroke="#5e5e5e" stroke-width=".05" fill="#5e5e5e"/><path d="M-353.03 688.95h-2v-.92l1.53-.16.47-.15z" fill="#5e5e5e"/><path d="M-353 688.97h-2.05V688l1.54-.16.5-.16zm-.5-1.08l-1.5.15v.87h1.95v-1.17z" stroke="#5e5e5e" stroke-width=".05" fill="#5e5e5e"/><use xlink:href="#A" transform="matrix(1,0,0,1,3.4264875602115694,926.7073490813652) translate(0 14.222222222222223)"/><use xlink:href="#B" transform="matrix(1,0,0,1,3.4264875602115694,926.7073490813652) translate(40.44444444444445 14.222222222222223)"/><use xlink:href="#C" transform="matrix(1,0,0,1,3.4264875602115694,926.7073490813652) translate(0 35.55555555555556)"/><use xlink:href="#e" transform="matrix(1,0,0,1,66.14253694292762,1032.8458225911522) translate(0 14.222222222222223)"/><path d="M-617.86 1031.76h-2v-22.14h2zm144.06-181.53l-2.2.35-2 1.46-.78 2.4.18 1.12 1.46 2 3.34 1.1v10.57l-2.2.35-2 1.46-.78 2.4.18 1.12 1.46 2 3.34 1.1v9.75l-.1 1.07-.24 1.07-.42 1-.58.95-.7.83-.85.7-.92.58-1.02.43-1.07.26-1.06.07h-132.06l-.82.07-.76.18-.72.3-.67.4-.6.52-.5.6-.4.66-.3.73-.2.76-.06.8v67.55h-2v-67.62l.1-1.05.24-1.07.42-1 .58-.94.7-.84.85-.7.94-.6 1-.4 1.08-.26 1.06-.1h132.06l.82-.05.76-.17.73-.3.66-.4.6-.52.5-.6.42-.66.3-.72.18-.76.07-.82v-8.24l-2.57-.84-2.13-2.9-.33-2.07 1.14-3.5 2.92-2.12.98-.16v-7.42l-2.57-.84-2.13-2.9-.33-2.07 1.14-3.5 2.92-2.12.98-.16v-159.1h2z" stroke="#5e5e5e" stroke-width=".05" fill="#5e5e5e"/><path d="M-617.86 1032.76h-2v-1.03h2z" fill="#5e5e5e"/><path d="M-617.83 1032.78h-2.05v-1.08h2.05zm-2-1.03v.98h1.95v-.98z" stroke="#5e5e5e" stroke-width=".05" fill="#5e5e5e"/><path d="M-473.8 689.44h-2v-1.03h2z" fill="#5e5e5e"/><path d="M-473.78 689.46h-2.05v-1.07h2.05zm-2-1.02v.97h1.95v-.96z" stroke="#5e5e5e" stroke-width=".05" fill="#5e5e5e"/><use xlink:href="#H" transform="matrix(1,0,0,1,-651.8186836990805,966.9490876729723) translate(0 14.222222222222223)"/><use xlink:href="#I" transform="matrix(1,0,0,1,-651.8186836990805,966.9490876729723) translate(0 35.55555555555556)"/><use xlink:href="#e" transform="matrix(1,0,0,1,-610.8557207361174,1012.0813602719749) translate(0 14.222222222222223)"/><path d="M-598.8 654.8a6 6 0 0 0-6 6v51a5 5 0 0 1-5 5 1.92 1.92 0 0 0-1.3 3.34l11.84 10.64a6.67 6.67 0 0 0 8.92 0l11.82-10.64a1.92 1.92 0 0 0-1.28-3.35 5 5 0 0 1-5-5v-51a6 6 0 0 0-6-6zM-280 622.9a6 6 0 0 0-6-6h-51a5 5 0 0 1-5-5 1.92 1.92 0 0 0-3.35-1.27L-356 622.45a6.67 6.67 0 0 0 0 8.92l10.65 11.83a1.92 1.92 0 0 0 3.35-1.3 5 5 0 0 1 5-5h51a6 6 0 0 0 6-6zM-538.8 655.64a6 6 0 0 0-6 6v51a5 5 0 0 1-5 5 1.92 1.92 0 0 0-1.3 3.34l11.84 10.65a6.67 6.67 0 0 0 8.92 0l11.82-10.65a1.92 1.92 0 0 0-1.28-3.34 5 5 0 0 1-5-5v-51a6 6 0 0 0-6-6zM-478.8 655.64a6 6 0 0 0-6 6v51a5 5 0 0 1-5 5 1.92 1.92 0 0 0-1.3 3.34l11.84 10.65a6.67 6.67 0 0 0 8.92 0l11.82-10.65a1.92 1.92 0 0 0-1.28-3.34 5 5 0 0 1-5-5v-51a6 6 0 0 0-6-6zM-418.8 655.64a6 6 0 0 0-6 6v51a5 5 0 0 1-5 5 1.92 1.92 0 0 0-1.3 3.34l11.84 10.65a6.67 6.67 0 0 0 8.92 0l11.82-10.65a1.92 1.92 0 0 0-1.28-3.34 5 5 0 0 1-5-5v-51a6 6 0 0 0-6-6zM-358.8 655.64a6 6 0 0 0-6 6v51a5 5 0 0 1-5 5 1.92 1.92 0 0 0-1.3 3.34l11.84 10.65a6.67 6.67 0 0 0 8.92 0l11.82-10.65a1.92 1.92 0 0 0-1.28-3.34 5 5 0 0 1-5-5v-51a6 6 0 0 0-6-6z" stroke="#5e5e5e" stroke-width="3"/><path d="M-153.84 1467c-26.28 0-47.6 21.3-47.6 47.6v142.78c0 26.3 21.32 47.6 47.6 47.6h184.8c26.3 0 47.6-21.3 47.6-47.6v-142.8c0-26.28-21.3-47.6-47.6-47.6z" stroke="#000" stroke-width="3" fill="#fff"/><path d="M-201.43 1511h280" stroke="#000" stroke-width="3" fill="none"/><use xlink:href="#Q" transform="matrix(1,0,0,1,-145.43330223746477,1466.9865868072732) translate(22.839506172839513 14.888888888888886)"/><use xlink:href="#R" transform="matrix(1,0,0,1,-145.43330223746477,1466.9865868072732) translate(56.41975308641975 14.888888888888886)"/><use xlink:href="#S" transform="matrix(1,0,0,1,-145.43330223746477,1466.9865868072732) translate(92.8641975308642 14.888888888888886)"/><use xlink:href="#T" transform="matrix(1,0,0,1,-145.43330223746477,1466.9865868072732) translate(-14.172839506172807 36.222222222222214)"/><path d="M-955.93 1323.96l.06.82.2.76.3.73.4.67.5.6.6.5.67.4.72.3.77.2.8.06h45.17l.84-2.57 2.92-2.12 2.06-.33 3.5 1.14 2.1 2.92.17.98h538.4l1.04.08 1.06.26 1.02.42.93.57.85.72.7.83.6.94.4 1.02.26 1.06.1 1.06v9.76l-3.34 1.1-1.46 2-.18 1.1.8 2.42 2 1.46 2.18.35v225.8l.06.82.18.76.3.72.4.67.52.6.6.5.67.42.72.3.77.18.82.06h139.83v2h-139.9l-1.07-.08-1.07-.26-1-.42-.95-.57-.83-.72-.72-.83-.57-.94-.42-1-.26-1.08-.08-1.06v-224.17l-.98-.16-2.9-2.13-1.15-3.5.33-2.05 2.13-2.9 2.57-.84v-8.24l-.07-.82-.18-.76-.3-.73-.4-.67-.52-.6-.6-.5-.67-.4-.72-.3-.76-.2-.82-.06h-540l-.36-2.18-1.46-2-2.42-.8-1.1.18-2 1.46-1.1 3.34h-46.7l-1.05-.08-1.07-.26-1-.42-.95-.57-.83-.72-.72-.83-.57-.94-.42-1.02-.25-1.06-.08-1.06v-21.9h2zm0-64.5h-2v-41.7h2z" stroke="#5e5e5e" stroke-width=".05" fill="#5e5e5e"/><path d="M-955.93 1217.78h-2v-1.03h2z" fill="#5e5e5e"/><path d="M-955.9 1217.8h-2.06v-1.07h2.05zm-2-1.02v.98h1.94v-.98z" stroke="#5e5e5e" stroke-width=".05" fill="#5e5e5e"/><path d="M-202.93 1586.98h-1.03v-2h1.03z" fill="#5e5e5e"/><path d="M-202.9 1587H-204v-2.04h1.07zm-1.03-2v1.96h.97V1585z" stroke="#5e5e5e" stroke-width=".05" fill="#5e5e5e"/><g><use xlink:href="#e" transform="matrix(1,0,0,1,-948.931562751612,1215.805265529812) translate(0 14.222222222222223)"/></g><g><use xlink:href="#b" transform="matrix(1,0,0,1,-993.8945257145748,1259.4727079541094) translate(0 14.222222222222223)"/><use xlink:href="#c" transform="matrix(1,0,0,1,-993.8945257145748,1259.4727079541094) translate(40.44444444444445 14.222222222222223)"/><use xlink:href="#d" transform="matrix(1,0,0,1,-993.8945257145748,1259.4727079541094) translate(0 35.55555555555556)"/></g><path d="M81.07 1291.33l.06.82.18.76.3.73.42.67.5.6.6.5.68.42.72.3.77.18.8.06h58.14l1.05.1 1.06.24 1.02.42.93.58.85.7.7.85.6.93.4 1.02.26 1.07.1 1.06v236.2l-.1 1.04-.24 1.07-.42 1.02-.58.93-.7.83-.85.7-.92.6-1.02.4-1.07.26-1.06.08H81.07v-2h63.1l.8-.07.77-.17.72-.3.67-.4.6-.52.5-.6.42-.66.3-.72.18-.76.07-.82V1303.4l-.07-.82-.18-.76-.3-.72-.4-.67-.52-.6-.6-.5-.66-.42-.73-.3-.76-.17-.82-.07H86.03l-1.06-.08-1.07-.26-1-.42-.95-.57-.84-.7-.7-.85-.57-.94-.42-1-.25-1.08-.08-1.06v-18.07h2zm-2.93-60.66h-2V1217h2z" stroke="#5e5e5e" stroke-width=".05" fill="#5e5e5e"/><path d="M78.14 1217.04h-2v-.62l1.04-.43.94-.58z" fill="#5e5e5e"/><path d="M78.17 1217.06h-2.05v-.66l1.05-.43.97-.6zm-.98-1.04l-1.03.42v.57h1.95l-.03-1.54z" stroke="#5e5e5e" stroke-width=".05" fill="#5e5e5e"/><path d="M81.1 1546.48h-1.03v-2h1.02z" fill="#5e5e5e"/><path d="M81.12 1546.5h-1.08v-2.05h1.08zm-1.03-2v1.95h.97v-1.95z" stroke="#5e5e5e" stroke-width=".05" fill="#5e5e5e"/><g><use xlink:href="#e" transform="matrix(1,0,0,1,85.14095813823019,1208.5435569746417) translate(0 14.222222222222223)"/></g><g><use xlink:href="#A" transform="matrix(1,0,0,1,22.42490875551414,1230.6666666666667) translate(0 14.222222222222223)"/><use xlink:href="#B" transform="matrix(1,0,0,1,22.42490875551414,1230.6666666666667) translate(40.44444444444445 14.222222222222223)"/><use xlink:href="#C" transform="matrix(1,0,0,1,22.42490875551414,1230.6666666666667) translate(0 35.55555555555556)"/></g><path d="M-180 1636.5a6 6 0 0 0-6-6h-51a5 5 0 0 1-5-5 1.92 1.92 0 0 0-3.34-1.3l-10.65 11.83a6.67 6.67 0 0 0 0 8.92l10.66 11.83a1.92 1.92 0 0 0 3.34-1.3 5 5 0 0 1 5-5h51a6 6 0 0 0 6-6z" stroke="#5e5e5e" stroke-width="3"/><path d="M260 1586.32a6 6 0 0 1 6-6h208a6 6 0 0 1 6 6v126a6 6 0 0 1-6 6H266a6 6 0 0 1-6-6z" stroke="#000" stroke-width="2" fill="#fff"/><path d="M260 1617.92h220" stroke="#000" stroke-width="2" fill="none"/><g><use xlink:href="#U" transform="matrix(1,0,0,1,268.0000000000001,1588.3231680211063) translate(30.549999999999997 14.6)"/></g><g><use xlink:href="#V" transform="matrix(1,0,0,1,272.0000000000001,1625.9231680211062) translate(0 35.388888888888886)"/><use xlink:href="#W" transform="matrix(1,0,0,1,272.0000000000001,1625.9231680211062) translate(65.0864197530864 35.388888888888886)"/><use xlink:href="#X" transform="matrix(1,0,0,1,272.0000000000001,1625.9231680211062) translate(0 56.72222222222222)"/></g><path d="M134.8 1645.32a6 6 0 0 0-6-6h-51a5 5 0 0 1-5-5 1.92 1.92 0 0 0-3.34-1.28l-10.64 11.82a6.67 6.67 0 0 0 0 8.92l10.64 11.83a1.92 1.92 0 0 0 3.34-1.28 5 5 0 0 1 5-5h51a6 6 0 0 0 6-6z" stroke="#5e5e5e" stroke-width="3"/><path d="M-616.8 1303.96l.07.82.18.76.3.73.4.67.52.6.6.5.66.4.73.3.76.2.82.06h276l1.05.08 1.06.26 1.02.42.93.57.85.72.7.83.6.94.4 1.02.26 1.06.1 1.06v29.76l-3.34 1.1-1.46 2-.18 1.1.8 2.42 2 1.46 2.18.35v186.83l.06.82.18.76.3.73.4.66.52.6.6.5.67.4.72.3.77.2.82.06h119.83v2h-119.9l-1.07-.08-1.07-.26-1-.42-.95-.57-.83-.73-.72-.83-.57-.94-.42-1.02-.26-1.06-.08-1.06v-185.2l-.98-.17-2.9-2.13-1.15-3.5.33-2.05 2.13-2.9 2.57-.84v-28.24l-.07-.82-.18-.76-.3-.73-.4-.67-.52-.6-.6-.5-.67-.4-.72-.3-.76-.2-.82-.06h-276l-1.05-.08-1.06-.26-1-.42-.95-.57-.85-.72-.7-.83-.6-.94-.4-1.02-.26-1.06-.1-1.06v-43.56h2zm0-64.8h-2v-21.4h2z" stroke="#5e5e5e" stroke-width=".05" fill="#5e5e5e"/><path d="M-616.8 1217.78h-2v-1.03h2z" fill="#5e5e5e"/><path d="M-616.77 1217.8h-2.05v-1.07h2.05zm-2-1.02v.98h1.95v-.98z" stroke="#5e5e5e" stroke-width=".05" fill="#5e5e5e"/><path d="M-202.93 1548.02h-1.03v-2h1.03z" fill="#5e5e5e"/><path d="M-202.9 1548.05H-204V1546h1.07zm-1.03-2v1.94h.97v-1.95z" stroke="#5e5e5e" stroke-width=".05" fill="#5e5e5e"/><g><use xlink:href="#e" transform="matrix(1,0,0,1,-609.7960183774001,1216.1009879626542) translate(0 14.222222222222223)"/></g><g><use xlink:href="#f" transform="matrix(1,0,0,1,-670.9812035625852,1239.1501275667256) translate(0 14.222222222222223)"/><use xlink:href="#g" transform="matrix(1,0,0,1,-670.9812035625852,1239.1501275667256) translate(40.44444444444445 14.222222222222223)"/></g><path d="M-182.38 1541.98a6 6 0 0 0-6-6h-51a5 5 0 0 1-5-5 1.92 1.92 0 0 0-3.34-1.28l-10.64 11.82a6.67 6.67 0 0 0 0 8.92l10.64 11.83a1.92 1.92 0 0 0 3.34-1.3 5 5 0 0 1 5-5h51a6 6 0 0 0 6-6z" stroke="#5e5e5e" stroke-width="3"/><g><path d="M-181 1581.98a6 6 0 0 0-5.85-6.14l-49.7-1.24a5 5 0 0 1-4.9-5.13 1.92 1.92 0 0 0-3.3-1.36l-10.93 11.56a6.67 6.67 0 0 0-.22 8.92l10.34 12.08a1.92 1.92 0 0 0 3.38-1.2 5 5 0 0 1 5.12-4.87l49.7 1.23a6 6 0 0 0 6.16-5.85z" stroke="#5e5e5e" stroke-width="3"/></g><g><path d="M60 1548.03a6 6 0 0 0 6 6h51a5 5 0 0 1 5 5 1.92 1.92 0 0 0 3.35 1.28l10.64-11.8a6.67 6.67 0 0 0 0-8.93l-10.65-11.83a1.92 1.92 0 0 0-3.35 1.3 5 5 0 0 1-5 5H66a6 6 0 0 0-6 6z" stroke="#5e5e5e" stroke-width="3"/></g><path d="M-970 559.37a6 6 0 0 1 6-6h208a6 6 0 0 1 6 6v148a6 6 0 0 1-6 6h-208a6 6 0 0 1-6-6z" stroke="#5e5e5e" stroke-width="2" fill="#fff"/><path d="M-970 590.97h220" stroke="#5e5e5e" stroke-width="2" fill="none"/><g><use xlink:href="#J" transform="matrix(1,0,0,1,-962,561.3740157480316) translate(30.549999999999997 14.6)"/></g><g><use xlink:href="#K" transform="matrix(1,0,0,1,-958,598.9740157480317) translate(0 46.388888888888886)"/><use xlink:href="#L" transform="matrix(1,0,0,1,-958,598.9740157480317) translate(65.0864197530864 46.388888888888886)"/><use xlink:href="#N" transform="matrix(1,0,0,1,-958,598.9740157480317) translate(0 67.72222222222223)"/></g><path d="M-1233.4 1462.84c-25.74 0-46.6 20.85-46.6 46.58v139.76c0 25.73 20.86 46.6 46.6 46.6h206.8c25.74 0 46.6-20.87 46.6-46.6v-139.76c0-25.73-20.86-46.58-46.6-46.58z" stroke="#000" stroke-width="3" fill="#fff"/><path d="M-1280 1506.84h300" stroke="#000" stroke-width="3" fill="none"/><g><use xlink:href="#Q" transform="matrix(1,0,0,1,-1220,1462.837178879457) translate(2.740740740740762 14.888888888888886)"/><use xlink:href="#R" transform="matrix(1,0,0,1,-1220,1462.837178879457) translate(36.320987654321 14.888888888888886)"/><use xlink:href="#Y" transform="matrix(1,0,0,1,-1220,1462.837178879457) translate(72.76543209876544 14.888888888888886)"/><use xlink:href="#Z" transform="matrix(1,0,0,1,-1220,1462.837178879457) translate(-1.1604938271604652 36.222222222222214)"/></g><g><path d="M-1011.5 1532.62a6 6 0 0 0 6 6h51a5 5 0 0 1 5 5 1.92 1.92 0 0 0 3.33 1.28l10.64-11.82a6.67 6.67 0 0 0 0-8.92l-10.64-11.82a1.92 1.92 0 0 0-3.34 1.28 5 5 0 0 1-5 5h-51a6 6 0 0 0-6 6z" stroke="#5e5e5e" stroke-width="3"/></g><path d="M-1660 1578.5a6 6 0 0 1 6-6h208a6 6 0 0 1 6 6v126a6 6 0 0 1-6 6h-208a6 6 0 0 1-6-6z" stroke="#000" stroke-width="2" fill="#fff"/><path d="M-1660 1610.1h220" stroke="#000" stroke-width="2" fill="none"/><g><use xlink:href="#U" transform="matrix(1,0,0,1,-1652,1580.4901586329843) translate(30.549999999999997 14.6)"/></g><g><use xlink:href="#aa" transform="matrix(1,0,0,1,-1648,1618.0901586329842) translate(0 35.388888888888886)"/><use xlink:href="#W" transform="matrix(1,0,0,1,-1648,1618.0901586329842) translate(58.07407407407406 35.388888888888886)"/><use xlink:href="#X" transform="matrix(1,0,0,1,-1648,1618.0901586329842) translate(0 56.72222222222222)"/></g><g><path d="M-1320 1650.44a6 6 0 0 0 6 6h51a5 5 0 0 1 5 5 1.92 1.92 0 0 0 3.34 1.3l10.65-11.84a6.67 6.67 0 0 0 0-8.92l-10.66-11.82a1.92 1.92 0 0 0-3.34 1.28 5 5 0 0 1-5 5h-51a6 6 0 0 0-6 6z" stroke="#5e5e5e" stroke-width="3"/></g><g><path d="M-1011.5 1583.3a6 6 0 0 0 6 6h51a5 5 0 0 1 5 5 1.92 1.92 0 0 0 3.33 1.28l10.64-11.82a6.67 6.67 0 0 0 0-8.92l-10.64-11.82a1.92 1.92 0 0 0-3.34 1.28 5 5 0 0 1-5 5h-51a6 6 0 0 0-6 6z" stroke="#5e5e5e" stroke-width="3"/></g><g><path d="M-1011.5 1644.5a6 6 0 0 0 6 6h51a5 5 0 0 1 5 5 1.92 1.92 0 0 0 3.33 1.28l10.64-11.83a6.67 6.67 0 0 0 0-8.92l-10.64-11.82a1.92 1.92 0 0 0-3.34 1.3 5 5 0 0 1-5 5h-51a6 6 0 0 0-6 6z" stroke="#5e5e5e" stroke-width="3"/></g><path d="M-1240 1535.3a6 6 0 0 0-6-6h-51a5 5 0 0 1-5-5 1.92 1.92 0 0 0-3.35-1.28l-10.64 11.82a6.67 6.67 0 0 0 0 8.92l10.65 11.82a1.92 1.92 0 0 0 3.35-1.28 5 5 0 0 1 5-5h51a6 6 0 0 0 6-6z" stroke="#5e5e5e" stroke-width="3"/><defs><path fill="#333" d="M23 0v-37h61v-169l-59 37v-38l62-41h46v211h57V0H23" id="ab"/><use transform="matrix(0.04938271604938272,0,0,0.04938271604938272,0,0)" xlink:href="#ab" id="a"/><path fill="#333" d="M165-50V0h-47v-50H5v-38l105-160h55v161h33v37h-33zm-47-37l2-116L46-87h72" id="ac"/><path fill="#333" d="M101-251c68 0 84 54 84 127C185-50 166 4 99 4S15-52 14-124c-1-75 17-127 87-127zm-1 216c37-5 36-46 36-89s4-89-36-89c-39 0-36 45-36 89 0 43-3 85 36 89" id="ad"/><path fill="#333" d="M14-72v-43h91v43H14" id="ae"/><g id="b"><use transform="matrix(0.04938271604938272,0,0,0.04938271604938272,0,0)" xlink:href="#ac"/><use transform="matrix(0.04938271604938272,0,0,0.04938271604938272,9.876543209876544,0)" xlink:href="#ad"/><use transform="matrix(0.04938271604938272,0,0,0.04938271604938272,19.75308641975309,0)" xlink:href="#ad"/><use transform="matrix(0.04938271604938272,0,0,0.04938271604938272,29.629629629629633,0)" xlink:href="#ae"/></g><path fill="#333" d="M182-130c37 4 62 22 62 59C244 23 116-4 24 0v-248c84 5 203-23 205 63 0 31-19 50-47 55zM76-148c40-3 101 13 101-30 0-44-60-28-101-31v61zm0 110c48-3 116 14 116-37 0-48-69-32-116-35v72" id="af"/><path fill="#333" d="M133-34C117-15 103 5 69 4 32 3 11-16 11-54c-1-60 55-63 116-61 1-26-3-47-28-47-18 1-26 9-28 27l-52-2c7-38 36-58 82-57s74 22 75 68l1 82c-1 14 12 18 25 15v27c-30 8-71 5-69-32zm-48 3c29 0 43-24 42-57-32 0-66-3-65 30 0 17 8 27 23 27" id="ag"/><path fill="#333" d="M88-194c31-1 46 15 58 34l-1-101h50l1 261h-48c-2-10 0-23-3-31C134-8 116 4 84 4 32 4 16-41 15-95c0-56 19-97 73-99zm17 164c33 0 40-30 41-66 1-37-9-64-41-64s-38 30-39 65c0 43 13 65 39 65" id="ah"/><g id="c"><use transform="matrix(0.04938271604938272,0,0,0.04938271604938272,0,0)" xlink:href="#af"/><use transform="matrix(0.04938271604938272,0,0,0.04938271604938272,12.790123456790125,0)" xlink:href="#ag"/><use transform="matrix(0.04938271604938272,0,0,0.04938271604938272,22.66666666666667,0)" xlink:href="#ah"/></g><path fill="#333" d="M240-174c0 40-23 61-54 70L253 0h-59l-57-94H76V0H24v-248c93 4 217-23 216 74zM76-134c48-2 112 12 112-38 0-48-66-32-112-35v73" id="ai"/><path fill="#333" d="M185-48c-13 30-37 53-82 52C43 2 14-33 14-96s30-98 90-98c62 0 83 45 84 108H66c0 31 8 55 39 56 18 0 30-7 34-22zm-45-69c5-46-57-63-70-21-2 6-4 13-4 21h74" id="aj"/><path fill="#333" d="M84 4C32 4 15-41 15-95c0-55 18-99 73-99 29 0 47 12 58 34l2-30h48l-1 265h-49V-32C136-9 114 4 84 4zm21-34c32 0 41-29 41-66 0-36-9-64-40-64-33 0-39 30-40 65 0 43 13 65 39 65" id="ak"/><path fill="#333" d="M85 4C-2 5 27-109 22-190h50c7 57-23 150 33 157 60-5 35-97 40-157h50l1 190h-47c-2-12 1-28-3-38-12 25-28 42-61 42" id="al"/><path fill="#333" d="M137-138c1-29-70-34-71-4 15 46 118 7 119 86 1 83-164 76-172 9l43-7c4 19 20 25 44 25 33 8 57-30 24-41C81-84 22-81 20-136c-2-80 154-74 161-7" id="am"/><path fill="#333" d="M115-3C79 11 28 4 28-45v-112H4v-33h27l15-45h31v45h36v33H77v99c-1 23 16 31 38 25v30" id="an"/><g id="d"><use transform="matrix(0.04938271604938272,0,0,0.04938271604938272,0,0)" xlink:href="#ai"/><use transform="matrix(0.04938271604938272,0,0,0.04938271604938272,12.790123456790125,0)" xlink:href="#aj"/><use transform="matrix(0.04938271604938272,0,0,0.04938271604938272,22.66666666666667,0)" xlink:href="#ak"/><use transform="matrix(0.04938271604938272,0,0,0.04938271604938272,33.48148148148149,0)" xlink:href="#al"/><use transform="matrix(0.04938271604938272,0,0,0.04938271604938272,44.296296296296305,0)" xlink:href="#aj"/><use transform="matrix(0.04938271604938272,0,0,0.04938271604938272,54.17283950617284,0)" xlink:href="#am"/><use transform="matrix(0.04938271604938272,0,0,0.04938271604938272,64.0493827160494,0)" xlink:href="#an"/></g><use transform="matrix(0.04938271604938272,0,0,0.04938271604938272,0,0)" xlink:href="#ab" id="e"/><path fill="#333" d="M99-251c69 0 84 53 88 123 5 99-61 162-144 118-15-8-21-25-26-45l46-6c4 31 50 33 63 7 7-15 12-36 12-60-9 18-29 28-54 28-48 0-72-32-72-82 0-55 31-83 87-83zm-1 128c24 0 37-16 37-39 0-27-10-51-37-51-25 0-35 19-35 45 0 25 10 45 35 45" id="ao"/><g id="f"><use transform="matrix(0.04938271604938272,0,0,0.04938271604938272,0,0)" xlink:href="#ac"/><use transform="matrix(0.04938271604938272,0,0,0.04938271604938272,9.876543209876544,0)" xlink:href="#ad"/><use transform="matrix(0.04938271604938272,0,0,0.04938271604938272,19.75308641975309,0)" xlink:href="#ao"/><use transform="matrix(0.04938271604938272,0,0,0.04938271604938272,29.629629629629633,0)" xlink:href="#ae"/></g><path fill="#333" d="M67-125c0 53 21 87 73 88 37 1 54-22 65-47l45 17C233-25 199 4 140 4 58 4 20-42 15-125 8-235 124-281 211-232c18 10 29 29 36 50l-46 12c-8-25-30-41-62-41-52 0-71 34-72 86" id="ap"/><path fill="#333" d="M110-194c64 0 96 36 96 99 0 64-35 99-97 99-61 0-95-36-95-99 0-62 34-99 96-99zm-1 164c35 0 45-28 45-65 0-40-10-65-43-65-34 0-45 26-45 65 0 36 10 65 43 65" id="aq"/><path fill="#333" d="M135-194c87-1 58 113 63 194h-50c-7-57 23-157-34-157-59 0-34 97-39 157H25l-1-190h47c2 12-1 28 3 38 12-26 28-41 61-42" id="ar"/><path fill="#333" d="M121-226c-27-7-43 5-38 36h38v33H83V0H34v-157H6v-33h28c-9-59 32-81 87-68v32" id="as"/><path fill="#333" d="M25 0v-261h50V0H25" id="at"/><path fill="#333" d="M25-224v-37h50v37H25zM25 0v-190h50V0H25" id="au"/><path fill="#333" d="M190-63c-7 42-38 67-86 67-59 0-84-38-90-98-12-110 154-137 174-36l-49 2c-2-19-15-32-35-32-30 0-35 28-38 64-6 74 65 87 74 30" id="av"/><g id="g"><use transform="matrix(0.04938271604938272,0,0,0.04938271604938272,0,0)" xlink:href="#ap"/><use transform="matrix(0.04938271604938272,0,0,0.04938271604938272,12.790123456790125,0)" xlink:href="#aq"/><use transform="matrix(0.04938271604938272,0,0,0.04938271604938272,23.60493827160494,0)" xlink:href="#ar"/><use transform="matrix(0.04938271604938272,0,0,0.04938271604938272,34.41975308641975,0)" xlink:href="#as"/><use transform="matrix(0.04938271604938272,0,0,0.04938271604938272,40.2962962962963,0)" xlink:href="#at"/><use transform="matrix(0.04938271604938272,0,0,0.04938271604938272,45.23456790123457,0)" xlink:href="#au"/><use transform="matrix(0.04938271604938272,0,0,0.04938271604938272,50.17283950617284,0)" xlink:href="#av"/><use transform="matrix(0.04938271604938272,0,0,0.04938271604938272,60.04938271604939,0)" xlink:href="#an"/></g><path fill="#333" d="M139-81c0-46-55-55-73-27H18l9-140h149v37H72l-4 63c44-38 133-4 122 66C201 21 21 35 11-62l49-4c5 18 15 30 39 30 26 0 40-18 40-45" id="aw"/><g id="h"><use transform="matrix(0.04938271604938272,0,0,0.04938271604938272,0,0)" xlink:href="#aw"/><use transform="matrix(0.04938271604938272,0,0,0.04938271604938272,9.876543209876544,0)" xlink:href="#ad"/><use transform="matrix(0.04938271604938272,0,0,0.04938271604938272,19.75308641975309,0)" xlink:href="#ab"/><use transform="matrix(0.04938271604938272,0,0,0.04938271604938272,29.629629629629633,0)" xlink:href="#ae"/></g><path fill="#333" d="M175 0L67-191c6 58 2 128 3 191H24v-248h59L193-55c-6-58-2-129-3-193h46V0h-61" id="ax"/><g id="i"><use transform="matrix(0.04938271604938272,0,0,0.04938271604938272,0,0)" xlink:href="#ax"/><use transform="matrix(0.04938271604938272,0,0,0.04938271604938272,12.790123456790125,0)" xlink:href="#aq"/><use transform="matrix(0.04938271604938272,0,0,0.04938271604938272,23.60493827160494,0)" xlink:href="#an"/></g><path fill="#333" d="M24 0v-248h52V0H24" id="ay"/><path fill="#333" d="M220-157c-53 9-28 100-34 157h-49v-107c1-27-5-49-29-50C55-147 81-57 75 0H25l-1-190h47c2 12-1 28 3 38 10-53 101-56 108 0 13-22 24-43 59-42 82 1 51 116 57 194h-49v-107c-1-25-5-48-29-50" id="az"/><path fill="#333" d="M135-194c53 0 70 44 70 98 0 56-19 98-73 100-31 1-45-17-59-34 3 33 2 69 2 105H25l-1-265h48c2 10 0 23 3 31 11-24 29-35 60-35zM114-30c33 0 39-31 40-66 0-38-9-64-40-64-56 0-55 130 0 130" id="aA"/><g id="j"><use transform="matrix(0.04938271604938272,0,0,0.04938271604938272,0,0)" xlink:href="#ay"/><use transform="matrix(0.04938271604938272,0,0,0.04938271604938272,4.938271604938272,0)" xlink:href="#az"/><use transform="matrix(0.04938271604938272,0,0,0.04938271604938272,20.74074074074074,0)" xlink:href="#aA"/><use transform="matrix(0.04938271604938272,0,0,0.04938271604938272,31.555555555555557,0)" xlink:href="#at"/><use transform="matrix(0.04938271604938272,0,0,0.04938271604938272,36.49382716049383,0)" xlink:href="#aj"/><use transform="matrix(0.04938271604938272,0,0,0.04938271604938272,46.370370370370374,0)" xlink:href="#az"/><use transform="matrix(0.04938271604938272,0,0,0.04938271604938272,62.17283950617284,0)" xlink:href="#aj"/><use transform="matrix(0.04938271604938272,0,0,0.04938271604938272,72.0493827160494,0)" xlink:href="#ar"/><use transform="matrix(0.04938271604938272,0,0,0.04938271604938272,82.8641975308642,0)" xlink:href="#an"/><use transform="matrix(0.04938271604938272,0,0,0.04938271604938272,88.74074074074075,0)" xlink:href="#aj"/><use transform="matrix(0.04938271604938272,0,0,0.04938271604938272,98.61728395061729,0)" xlink:href="#ah"/></g><path d="M140-251c81 0 123 46 123 126C263-46 219 4 140 4 59 4 17-45 17-125s42-126 123-126zm0 227c63 0 89-41 89-101s-29-99-89-99c-61 0-89 39-89 99S79-25 140-24" id="aB"/><path d="M194 0L95-120 63-95V0H30v-248h33v124l119-124h40L117-140 236 0h-42" id="aC"/><g id="k"><use transform="matrix(0.05,0,0,0.05,0,0)" xlink:href="#aB"/><use transform="matrix(0.05,0,0,0.05,14,0)" xlink:href="#aC"/></g><path fill="#333" d="M16-82v-28h88v28H16" id="aD"/><path fill="#333" d="M96-169c-40 0-48 33-48 73s9 75 48 75c24 0 41-14 43-38l32 2c-6 37-31 61-74 61-59 0-76-41-82-99-10-93 101-131 147-64 4 7 5 14 7 22l-32 3c-4-21-16-35-41-35" id="aE"/><path fill="#333" d="M100-194c62-1 85 37 85 99 1 63-27 99-86 99S16-35 15-95c0-66 28-99 85-99zM99-20c44 1 53-31 53-75 0-43-8-75-51-75s-53 32-53 75 10 74 51 75" id="aF"/><path fill="#333" d="M85-194c31 0 48 13 60 33l-1-100h32l1 261h-30c-2-10 0-23-3-31C134-8 116 4 85 4 32 4 16-35 15-94c0-66 23-100 70-100zm9 24c-40 0-46 34-46 75 0 40 6 74 45 74 42 0 51-32 51-76 0-42-9-74-50-73" id="aG"/><path fill="#333" d="M100-194c63 0 86 42 84 106H49c0 40 14 67 53 68 26 1 43-12 49-29l28 8c-11 28-37 45-77 45C44 4 14-33 15-96c1-61 26-98 85-98zm52 81c6-60-76-77-97-28-3 7-6 17-6 28h103" id="aH"/><path fill="#333" d="M33-154v-36h34v36H33zM33 0v-36h34V0H33" id="aI"/><path fill="#333" d="M24-231v-30h32v30H24zM24 0v-190h32V0H24" id="aJ"/><path fill="#333" d="M117-194c89-4 53 116 60 194h-32v-121c0-31-8-49-39-48C34-167 62-67 57 0H25l-1-190h30c1 10-1 24 2 32 11-22 29-35 61-36" id="aK"/><path fill="#333" d="M59-47c-2 24 18 29 38 22v24C64 9 27 4 27-40v-127H5v-23h24l9-43h21v43h35v23H59v120" id="aL"/><g id="l"><use transform="matrix(0.049382716049382706,0,0,0.049382716049382706,0,0)" xlink:href="#aD"/><use transform="matrix(0.049382716049382706,0,0,0.049382716049382706,5.876543209876542,0)" xlink:href="#aE"/><use transform="matrix(0.049382716049382706,0,0,0.049382716049382706,14.765432098765428,0)" xlink:href="#aF"/><use transform="matrix(0.049382716049382706,0,0,0.049382716049382706,24.64197530864197,0)" xlink:href="#aG"/><use transform="matrix(0.049382716049382706,0,0,0.049382716049382706,34.51851851851851,0)" xlink:href="#aH"/><use transform="matrix(0.049382716049382706,0,0,0.049382716049382706,44.39506172839505,0)" xlink:href="#aI"/><use transform="matrix(0.049382716049382706,0,0,0.049382716049382706,49.33333333333332,0)" xlink:href="#aJ"/><use transform="matrix(0.049382716049382706,0,0,0.049382716049382706,53.234567901234556,0)" xlink:href="#aK"/><use transform="matrix(0.049382716049382706,0,0,0.049382716049382706,63.1111111111111,0)" xlink:href="#aL"/></g><path fill="#333" d="M210-169c-67 3-38 105-44 169h-31v-121c0-29-5-50-35-48C34-165 62-65 56 0H25l-1-190h30c1 10-1 24 2 32 10-44 99-50 107 0 11-21 27-35 58-36 85-2 47 119 55 194h-31v-121c0-29-5-49-35-48" id="aM"/><path fill="#333" d="M135-143c-3-34-86-38-87 0 15 53 115 12 119 90S17 21 10-45l28-5c4 36 97 45 98 0-10-56-113-15-118-90-4-57 82-63 122-42 12 7 21 19 24 35" id="aN"/><path fill="#333" d="M141-36C126-15 110 5 73 4 37 3 15-17 15-53c-1-64 63-63 125-63 3-35-9-54-41-54-24 1-41 7-42 31l-33-3c5-37 33-52 76-52 45 0 72 20 72 64v82c-1 20 7 32 28 27v20c-31 9-61-2-59-35zM48-53c0 20 12 33 32 33 41-3 63-29 60-74-43 2-92-5-92 41" id="aO"/><path fill="#333" d="M177-190C167-65 218 103 67 71c-23-6-38-20-44-43l32-5c15 47 100 32 89-28v-30C133-14 115 1 83 1 29 1 15-40 15-95c0-56 16-97 71-98 29-1 48 16 59 35 1-10 0-23 2-32h30zM94-22c36 0 50-32 50-73 0-42-14-75-50-75-39 0-46 34-46 75s6 73 46 73" id="aP"/><path fill="#333" d="M114-163C36-179 61-72 57 0H25l-1-190h30c1 12-1 29 2 39 6-27 23-49 58-41v29" id="aQ"/><g id="m"><use transform="matrix(0.049382716049382706,0,0,0.049382716049382706,0,0)" xlink:href="#aD"/><use transform="matrix(0.049382716049382706,0,0,0.049382716049382706,5.876543209876542,0)" xlink:href="#aM"/><use transform="matrix(0.049382716049382706,0,0,0.049382716049382706,20.64197530864197,0)" xlink:href="#aH"/><use transform="matrix(0.049382716049382706,0,0,0.049382716049382706,30.518518518518512,0)" xlink:href="#aN"/><use transform="matrix(0.049382716049382706,0,0,0.049382716049382706,39.4074074074074,0)" xlink:href="#aN"/><use transform="matrix(0.049382716049382706,0,0,0.049382716049382706,48.29629629629628,0)" xlink:href="#aO"/><use transform="matrix(0.049382716049382706,0,0,0.049382716049382706,58.172839506172814,0)" xlink:href="#aP"/><use transform="matrix(0.049382716049382706,0,0,0.049382716049382706,68.04938271604937,0)" xlink:href="#aH"/><use transform="matrix(0.049382716049382706,0,0,0.049382716049382706,77.92592592592591,0)" xlink:href="#aI"/><use transform="matrix(0.049382716049382706,0,0,0.049382716049382706,82.86419753086417,0)" xlink:href="#aN"/><use transform="matrix(0.049382716049382706,0,0,0.049382716049382706,91.75308641975306,0)" xlink:href="#aL"/><use transform="matrix(0.049382716049382706,0,0,0.049382716049382706,96.69135802469133,0)" xlink:href="#aQ"/><use transform="matrix(0.049382716049382706,0,0,0.049382716049382706,102.56790123456788,0)" xlink:href="#aJ"/><use transform="matrix(0.049382716049382706,0,0,0.049382716049382706,106.4691358024691,0)" xlink:href="#aK"/><use transform="matrix(0.049382716049382706,0,0,0.049382716049382706,116.34567901234563,0)" xlink:href="#aP"/></g><path d="M160-131c35 5 61 23 61 61C221 17 115-2 30 0v-248c76 3 177-17 177 60 0 33-19 50-47 57zm-97-11c50-1 110 9 110-42 0-47-63-36-110-37v79zm0 115c55-2 124 14 124-45 0-56-70-42-124-44v89" id="aR"/><path d="M205 0l-28-72H64L36 0H1l101-248h38L239 0h-34zm-38-99l-47-123c-12 45-31 82-46 123h93" id="aS"/><path d="M30-248c118-7 216 8 213 122C240-48 200 0 122 0H30v-248zM63-27c89 8 146-16 146-99s-60-101-146-95v194" id="aT"/><g id="n"><use transform="matrix(0.05,0,0,0.05,0,0)" xlink:href="#aR"/><use transform="matrix(0.05,0,0,0.05,12,0)" xlink:href="#aS"/><use transform="matrix(0.05,0,0,0.05,24,0)" xlink:href="#aT"/></g><path d="M233-177c-1 41-23 64-60 70L243 0h-38l-65-103H63V0H30v-248c88 3 205-21 203 71zM63-129c60-2 137 13 137-47 0-61-80-42-137-45v92" id="aU"/><path d="M30 0v-248h187v28H63v79h144v27H63v87h162V0H30" id="aV"/><path d="M140-251c81 0 123 46 123 126C263-53 228-8 163 1c7 30 30 48 69 40v23c-55 16-95-15-103-61C56-3 17-48 17-125c0-80 42-126 123-126zm0 227c63 0 89-41 89-101s-29-99-89-99c-61 0-89 39-89 99S79-25 140-24" id="aW"/><path d="M232-93c-1 65-40 97-104 97C67 4 28-28 28-90v-158h33c8 89-33 224 67 224 102 0 64-133 71-224h33v155" id="aX"/><path d="M185-189c-5-48-123-54-124 2 14 75 158 14 163 119 3 78-121 87-175 55-17-10-28-26-33-46l33-7c5 56 141 63 141-1 0-78-155-14-162-118-5-82 145-84 179-34 5 7 8 16 11 25" id="aY"/><path d="M127-220V0H93v-220H8v-28h204v28h-85" id="aZ"/><g id="o"><use transform="matrix(0.05,0,0,0.05,0,0)" xlink:href="#aU"/><use transform="matrix(0.05,0,0,0.05,12.950000000000001,0)" xlink:href="#aV"/><use transform="matrix(0.05,0,0,0.05,24.950000000000003,0)" xlink:href="#aW"/><use transform="matrix(0.05,0,0,0.05,38.95,0)" xlink:href="#aX"/><use transform="matrix(0.05,0,0,0.05,51.900000000000006,0)" xlink:href="#aV"/><use transform="matrix(0.05,0,0,0.05,63.900000000000006,0)" xlink:href="#aY"/><use transform="matrix(0.05,0,0,0.05,75.9,0)" xlink:href="#aZ"/></g><path d="M33 0v-248h34V0H33" id="ba"/><path d="M190 0L58-211 59 0H30v-248h39L202-35l-2-213h31V0h-41" id="bb"/><path d="M30 0v-248h33v221h125V0H30" id="bc"/><g id="p"><use transform="matrix(0.05,0,0,0.05,0,0)" xlink:href="#ba"/><use transform="matrix(0.05,0,0,0.05,5,0)" xlink:href="#bb"/><use transform="matrix(0.05,0,0,0.05,17.950000000000003,0)" xlink:href="#aZ"/><use transform="matrix(0.05,0,0,0.05,28.900000000000006,0)" xlink:href="#aV"/><use transform="matrix(0.05,0,0,0.05,40.900000000000006,0)" xlink:href="#aU"/><use transform="matrix(0.05,0,0,0.05,53.85,0)" xlink:href="#bb"/><use transform="matrix(0.05,0,0,0.05,66.80000000000001,0)" xlink:href="#aS"/><use transform="matrix(0.05,0,0,0.05,78.80000000000001,0)" xlink:href="#bc"/></g><path d="M137 0h-34L2-248h35l83 218 83-218h36" id="bd"/><g id="q"><use transform="matrix(0.05,0,0,0.05,0,0)" xlink:href="#aY"/><use transform="matrix(0.05,0,0,0.05,12,0)" xlink:href="#aV"/><use transform="matrix(0.05,0,0,0.05,24,0)" xlink:href="#aU"/><use transform="matrix(0.05,0,0,0.05,36.6,0)" xlink:href="#bd"/><use transform="matrix(0.05,0,0,0.05,48.6,0)" xlink:href="#aV"/><use transform="matrix(0.05,0,0,0.05,60.6,0)" xlink:href="#aU"/></g><g id="r"><use transform="matrix(0.05,0,0,0.05,0,0)" xlink:href="#aV"/><use transform="matrix(0.05,0,0,0.05,12,0)" xlink:href="#aU"/><use transform="matrix(0.05,0,0,0.05,24.950000000000003,0)" xlink:href="#aU"/><use transform="matrix(0.05,0,0,0.05,37.900000000000006,0)" xlink:href="#aB"/><use transform="matrix(0.05,0,0,0.05,51.900000000000006,0)" xlink:href="#aU"/></g><g id="s"><use transform="matrix(0.05,0,0,0.05,0,0)" xlink:href="#bb"/><use transform="matrix(0.05,0,0,0.05,12.950000000000001,0)" xlink:href="#aB"/><use transform="matrix(0.05,0,0,0.05,26.950000000000003,0)" xlink:href="#aZ"/></g><path d="M240 0l2-218c-23 76-54 145-80 218h-23L58-218 59 0H30v-248h44l77 211c21-75 51-140 76-211h43V0h-30" id="be"/><path d="M30-248c87 1 191-15 191 75 0 78-77 80-158 76V0H30v-248zm33 125c57 0 124 11 124-50 0-59-68-47-124-48v98" id="bf"/><g id="t"><use transform="matrix(0.05,0,0,0.05,0,0)" xlink:href="#ba"/><use transform="matrix(0.05,0,0,0.05,5,0)" xlink:href="#be"/><use transform="matrix(0.05,0,0,0.05,19.950000000000003,0)" xlink:href="#bf"/><use transform="matrix(0.05,0,0,0.05,31.950000000000003,0)" xlink:href="#bc"/><use transform="matrix(0.05,0,0,0.05,41.95,0)" xlink:href="#aV"/><use transform="matrix(0.05,0,0,0.05,53.95,0)" xlink:href="#be"/><use transform="matrix(0.05,0,0,0.05,68.9,0)" xlink:href="#aV"/><use transform="matrix(0.05,0,0,0.05,80.9,0)" xlink:href="#bb"/><use transform="matrix(0.05,0,0,0.05,93.85000000000001,0)" xlink:href="#aZ"/><use transform="matrix(0.05,0,0,0.05,104.80000000000001,0)" xlink:href="#aV"/><use transform="matrix(0.05,0,0,0.05,116.80000000000001,0)" xlink:href="#aT"/></g><path d="M212-179c-10-28-35-45-73-45-59 0-87 40-87 99 0 60 29 101 89 101 43 0 62-24 78-52l27 14C228-24 195 4 139 4 59 4 22-46 18-125c-6-104 99-153 187-111 19 9 31 26 39 46" id="bg"/><path d="M63-220v92h138v28H63V0H30v-248h175v28H63" id="bh"/><g id="u"><use transform="matrix(0.05,0,0,0.05,0,0)" xlink:href="#bg"/><use transform="matrix(0.05,0,0,0.05,12.950000000000001,0)" xlink:href="#aB"/><use transform="matrix(0.05,0,0,0.05,26.950000000000003,0)" xlink:href="#bb"/><use transform="matrix(0.05,0,0,0.05,39.900000000000006,0)" xlink:href="#bh"/><use transform="matrix(0.05,0,0,0.05,50.85000000000001,0)" xlink:href="#bc"/><use transform="matrix(0.05,0,0,0.05,60.85,0)" xlink:href="#ba"/><use transform="matrix(0.05,0,0,0.05,65.85000000000001,0)" xlink:href="#bg"/><use transform="matrix(0.05,0,0,0.05,78.80000000000001,0)" xlink:href="#aZ"/></g><path fill="#333" d="M240 0l2-218c-23 76-54 145-80 218h-23L58-218 59 0H30v-248h44l77 211c21-75 51-140 76-211h43V0h-30" id="bi"/><path fill="#333" d="M101-234c-31-9-42 10-38 44h38v23H63V0H32v-167H5v-23h27c-7-52 17-82 69-68v24" id="bj"/><g id="v"><use transform="matrix(0.049382716049382706,0,0,0.049382716049382706,0,0)" xlink:href="#bi"/><use transform="matrix(0.049382716049382706,0,0,0.049382716049382706,14.765432098765428,0)" xlink:href="#aF"/><use transform="matrix(0.049382716049382706,0,0,0.049382716049382706,24.641975308641968,0)" xlink:href="#aG"/><use transform="matrix(0.049382716049382706,0,0,0.049382716049382706,34.518518518518505,0)" xlink:href="#aJ"/><use transform="matrix(0.049382716049382706,0,0,0.049382716049382706,38.41975308641974,0)" xlink:href="#bj"/><use transform="matrix(0.049382716049382706,0,0,0.049382716049382706,43.35802469135801,0)" xlink:href="#aJ"/><use transform="matrix(0.049382716049382706,0,0,0.049382716049382706,47.259259259259245,0)" xlink:href="#aE"/><use transform="matrix(0.049382716049382706,0,0,0.049382716049382706,56.148148148148124,0)" xlink:href="#aO"/></g><path fill="#333" d="M205 0l-28-72H64L36 0H1l101-248h38L239 0h-34zm-38-99l-47-123c-12 45-31 82-46 123h93" id="bk"/><path fill="#333" d="M84 4C-5 8 30-112 23-190h32v120c0 31 7 50 39 49 72-2 45-101 50-169h31l1 190h-30c-1-10 1-25-2-33-11 22-28 36-60 37" id="bl"/><g id="w"><use transform="matrix(0.049382716049382706,0,0,0.049382716049382706,0,0)" xlink:href="#bk"/><use transform="matrix(0.049382716049382706,0,0,0.049382716049382706,11.85185185185185,0)" xlink:href="#aE"/><use transform="matrix(0.049382716049382706,0,0,0.049382716049382706,20.740740740740737,0)" xlink:href="#aE"/><use transform="matrix(0.049382716049382706,0,0,0.049382716049382706,29.629629629629623,0)" xlink:href="#aF"/><use transform="matrix(0.049382716049382706,0,0,0.049382716049382706,39.50617283950616,0)" xlink:href="#bl"/><use transform="matrix(0.049382716049382706,0,0,0.049382716049382706,49.38271604938271,0)" xlink:href="#aK"/><use transform="matrix(0.049382716049382706,0,0,0.049382716049382706,59.259259259259245,0)" xlink:href="#aL"/></g><path fill="#333" d="M30-248c87 1 191-15 191 75 0 78-77 80-158 76V0H30v-248zm33 125c57 0 124 11 124-50 0-59-68-47-124-48v98" id="bm"/><path fill="#333" d="M232-93c-1 65-40 97-104 97C67 4 28-28 28-90v-158h33c8 89-33 224 67 224 102 0 64-133 71-224h33v155" id="bn"/><path fill="#333" d="M127-220V0H93v-220H8v-28h204v28h-85" id="bo"/><path fill="#333" d="M0 4l72-265h28L28 4H0" id="bp"/><path fill="#333" d="M115-194c55 1 70 41 70 98S169 2 115 4C84 4 66-9 55-30l1 105H24l-1-265h31l2 30c10-21 28-34 59-34zm-8 174c40 0 45-34 45-75s-6-73-45-74c-42 0-51 32-51 76 0 43 10 73 51 73" id="bq"/><g id="x"><use transform="matrix(0.049382716049382706,0,0,0.049382716049382706,0,0)" xlink:href="#bm"/><use transform="matrix(0.049382716049382706,0,0,0.049382716049382706,11.85185185185185,0)" xlink:href="#bn"/><use transform="matrix(0.049382716049382706,0,0,0.049382716049382706,24.64197530864197,0)" xlink:href="#bo"/><use transform="matrix(0.049382716049382706,0,0,0.049382716049382706,35.456790123456784,0)" xlink:href="#bp"/><use transform="matrix(0.049382716049382706,0,0,0.049382716049382706,40.395061728395056,0)" xlink:href="#aO"/><use transform="matrix(0.049382716049382706,0,0,0.049382716049382706,50.271604938271594,0)" xlink:href="#bq"/><use transform="matrix(0.049382716049382706,0,0,0.049382716049382706,60.14814814814814,0)" xlink:href="#aJ"/><use transform="matrix(0.049382716049382706,0,0,0.049382716049382706,64.04938271604937,0)" xlink:href="#bp"/><use transform="matrix(0.049382716049382706,0,0,0.049382716049382706,68.98765432098763,0)" xlink:href="#bl"/><use transform="matrix(0.049382716049382706,0,0,0.049382716049382706,78.86419753086417,0)" xlink:href="#aN"/><use transform="matrix(0.049382716049382706,0,0,0.049382716049382706,87.75308641975306,0)" xlink:href="#aH"/><use transform="matrix(0.049382716049382706,0,0,0.049382716049382706,97.6296296296296,0)" xlink:href="#aQ"/><use transform="matrix(0.049382716049382706,0,0,0.049382716049382706,103.50617283950615,0)" xlink:href="#bp"/></g><path fill="#333" d="M182-182c0 78-84 86-111 141h115V0H12c-6-101 99-100 120-180 1-22-12-31-33-32-23 0-32 14-35 34l-49-3c5-45 32-70 84-70 51 0 83 22 83 69" id="br"/><g id="y"><use transform="matrix(0.04938271604938272,0,0,0.04938271604938272,0,0)" xlink:href="#br"/><use transform="matrix(0.04938271604938272,0,0,0.04938271604938272,9.876543209876544,0)" xlink:href="#ad"/><use transform="matrix(0.04938271604938272,0,0,0.04938271604938272,19.75308641975309,0)" xlink:href="#ad"/><use transform="matrix(0.04938271604938272,0,0,0.04938271604938272,29.629629629629633,0)" xlink:href="#ae"/></g><path fill="#333" d="M140-251c80 0 125 45 125 126S219 4 139 4C58 4 15-44 15-125s44-126 125-126zm-1 214c52 0 73-35 73-88 0-50-21-86-72-86-52 0-73 35-73 86s22 88 72 88" id="bs"/><path fill="#333" d="M195 0l-88-114-31 24V0H24v-248h52v113l112-113h60L142-143 257 0h-62" id="bt"/><g id="z"><use transform="matrix(0.04938271604938272,0,0,0.04938271604938272,0,0)" xlink:href="#bs"/><use transform="matrix(0.04938271604938272,0,0,0.04938271604938272,13.827160493827162,0)" xlink:href="#bt"/></g><g id="A"><use transform="matrix(0.04938271604938272,0,0,0.04938271604938272,0,0)" xlink:href="#aw"/><use transform="matrix(0.04938271604938272,0,0,0.04938271604938272,9.876543209876544,0)" xlink:href="#ad"/><use transform="matrix(0.04938271604938272,0,0,0.04938271604938272,19.75308641975309,0)" xlink:href="#ab"/><use transform="matrix(0.04938271604938272,0,0,0.04938271604938272,29.629629629629633,0)" xlink:href="#ae"/></g><g id="B"><use transform="matrix(0.04938271604938272,0,0,0.04938271604938272,0,0)" xlink:href="#ax"/><use transform="matrix(0.04938271604938272,0,0,0.04938271604938272,12.790123456790125,0)" xlink:href="#aq"/><use transform="matrix(0.04938271604938272,0,0,0.04938271604938272,23.60493827160494,0)" xlink:href="#an"/></g><g id="C"><use transform="matrix(0.04938271604938272,0,0,0.04938271604938272,0,0)" xlink:href="#ay"/><use transform="matrix(0.04938271604938272,0,0,0.04938271604938272,4.938271604938272,0)" xlink:href="#az"/><use transform="matrix(0.04938271604938272,0,0,0.04938271604938272,20.74074074074074,0)" xlink:href="#aA"/><use transform="matrix(0.04938271604938272,0,0,0.04938271604938272,31.555555555555557,0)" xlink:href="#at"/><use transform="matrix(0.04938271604938272,0,0,0.04938271604938272,36.49382716049383,0)" xlink:href="#aj"/><use transform="matrix(0.04938271604938272,0,0,0.04938271604938272,46.370370370370374,0)" xlink:href="#az"/><use transform="matrix(0.04938271604938272,0,0,0.04938271604938272,62.17283950617284,0)" xlink:href="#aj"/><use transform="matrix(0.04938271604938272,0,0,0.04938271604938272,72.0493827160494,0)" xlink:href="#ar"/><use transform="matrix(0.04938271604938272,0,0,0.04938271604938272,82.8641975308642,0)" xlink:href="#an"/><use transform="matrix(0.04938271604938272,0,0,0.04938271604938272,88.74074074074075,0)" xlink:href="#aj"/><use transform="matrix(0.04938271604938272,0,0,0.04938271604938272,98.61728395061729,0)" xlink:href="#ah"/></g><g id="D"><use transform="matrix(0.04938271604938272,0,0,0.04938271604938272,0,0)" xlink:href="#aw"/><use transform="matrix(0.04938271604938272,0,0,0.04938271604938272,9.876543209876544,0)" xlink:href="#ad"/><use transform="matrix(0.04938271604938272,0,0,0.04938271604938272,19.75308641975309,0)" xlink:href="#ad"/><use transform="matrix(0.04938271604938272,0,0,0.04938271604938272,29.629629629629633,0)" xlink:href="#ae"/></g><path fill="#333" d="M135-150c-39-12-60 13-60 57V0H25l-1-190h47c2 13-1 29 3 40 6-28 27-53 61-41v41" id="bu"/><g id="E"><use transform="matrix(0.04938271604938272,0,0,0.04938271604938272,0,0)" xlink:href="#ay"/><use transform="matrix(0.04938271604938272,0,0,0.04938271604938272,4.938271604938272,0)" xlink:href="#ar"/><use transform="matrix(0.04938271604938272,0,0,0.04938271604938272,15.753086419753087,0)" xlink:href="#an"/><use transform="matrix(0.04938271604938272,0,0,0.04938271604938272,21.62962962962963,0)" xlink:href="#aj"/><use transform="matrix(0.04938271604938272,0,0,0.04938271604938272,31.506172839506174,0)" xlink:href="#bu"/><use transform="matrix(0.04938271604938272,0,0,0.04938271604938272,38.41975308641975,0)" xlink:href="#ar"/><use transform="matrix(0.04938271604938272,0,0,0.04938271604938272,49.23456790123457,0)" xlink:href="#ag"/><use transform="matrix(0.04938271604938272,0,0,0.04938271604938272,59.111111111111114,0)" xlink:href="#at"/></g><path fill="#333" d="M169-182c-1-43-94-46-97-3 18 66 151 10 154 114 3 95-165 93-204 36-6-8-10-19-12-30l50-8c3 46 112 56 116 5-17-69-150-10-154-114-4-87 153-88 188-35 5 8 8 18 10 28" id="bv"/><path fill="#333" d="M128 0H69L1-190h53L99-40l48-150h52" id="bw"/><g id="F"><use transform="matrix(0.04938271604938272,0,0,0.04938271604938272,0,0)" xlink:href="#bv"/><use transform="matrix(0.04938271604938272,0,0,0.04938271604938272,11.851851851851853,0)" xlink:href="#aj"/><use transform="matrix(0.04938271604938272,0,0,0.04938271604938272,21.7283950617284,0)" xlink:href="#bu"/><use transform="matrix(0.04938271604938272,0,0,0.04938271604938272,28.64197530864198,0)" xlink:href="#bw"/><use transform="matrix(0.04938271604938272,0,0,0.04938271604938272,38.518518518518526,0)" xlink:href="#aj"/><use transform="matrix(0.04938271604938272,0,0,0.04938271604938272,48.39506172839507,0)" xlink:href="#bu"/></g><path fill="#333" d="M24 0v-248h195v40H76v63h132v40H76v65h150V0H24" id="bx"/><g id="G"><use transform="matrix(0.04938271604938272,0,0,0.04938271604938272,0,0)" xlink:href="#bx"/><use transform="matrix(0.04938271604938272,0,0,0.04938271604938272,11.851851851851853,0)" xlink:href="#bu"/><use transform="matrix(0.04938271604938272,0,0,0.04938271604938272,18.765432098765434,0)" xlink:href="#bu"/><use transform="matrix(0.04938271604938272,0,0,0.04938271604938272,25.679012345679016,0)" xlink:href="#aq"/><use transform="matrix(0.04938271604938272,0,0,0.04938271604938272,36.49382716049383,0)" xlink:href="#bu"/></g><g id="H"><use transform="matrix(0.04938271604938272,0,0,0.04938271604938272,0,0)" xlink:href="#ac"/><use transform="matrix(0.04938271604938272,0,0,0.04938271604938272,9.876543209876544,0)" xlink:href="#ad"/><use transform="matrix(0.04938271604938272,0,0,0.04938271604938272,19.75308641975309,0)" xlink:href="#ao"/><use transform="matrix(0.04938271604938272,0,0,0.04938271604938272,29.629629629629633,0)" xlink:href="#ae"/></g><g id="I"><use transform="matrix(0.04938271604938272,0,0,0.04938271604938272,0,0)" xlink:href="#ap"/><use transform="matrix(0.04938271604938272,0,0,0.04938271604938272,12.790123456790125,0)" xlink:href="#aq"/><use transform="matrix(0.04938271604938272,0,0,0.04938271604938272,23.60493827160494,0)" xlink:href="#ar"/><use transform="matrix(0.04938271604938272,0,0,0.04938271604938272,34.41975308641975,0)" xlink:href="#as"/><use transform="matrix(0.04938271604938272,0,0,0.04938271604938272,40.2962962962963,0)" xlink:href="#at"/><use transform="matrix(0.04938271604938272,0,0,0.04938271604938272,45.23456790123457,0)" xlink:href="#au"/><use transform="matrix(0.04938271604938272,0,0,0.04938271604938272,50.17283950617284,0)" xlink:href="#av"/><use transform="matrix(0.04938271604938272,0,0,0.04938271604938272,60.04938271604939,0)" xlink:href="#an"/></g><path d="M59-47c-2 24 18 29 38 22v24C64 9 27 4 27-40v-127H5v-23h24l9-43h21v43h35v23H59v120" id="by"/><path d="M100-194c63 0 86 42 84 106H49c0 40 14 67 53 68 26 1 43-12 49-29l28 8c-11 28-37 45-77 45C44 4 14-33 15-96c1-61 26-98 85-98zm52 81c6-60-76-77-97-28-3 7-6 17-6 28h103" id="bz"/><path d="M117-194c89-4 53 116 60 194h-32v-121c0-31-8-49-39-48C34-167 62-67 57 0H25l-1-190h30c1 10-1 24 2 32 11-22 29-35 61-36" id="bA"/><path d="M84 4C-5 8 30-112 23-190h32v120c0 31 7 50 39 49 72-2 45-101 50-169h31l1 190h-30c-1-10 1-25-2-33-11 22-28 36-60 37" id="bB"/><path d="M24-231v-30h32v30H24zM24 0v-190h32V0H24" id="bC"/><path d="M96-169c-40 0-48 33-48 73s9 75 48 75c24 0 41-14 43-38l32 2c-6 37-31 61-74 61-59 0-76-41-82-99-10-93 101-131 147-64 4 7 5 14 7 22l-32 3c-4-21-16-35-41-35" id="bD"/><path d="M141-36C126-15 110 5 73 4 37 3 15-17 15-53c-1-64 63-63 125-63 3-35-9-54-41-54-24 1-41 7-42 31l-33-3c5-37 33-52 76-52 45 0 72 20 72 64v82c-1 20 7 32 28 27v20c-31 9-61-2-59-35zM48-53c0 20 12 33 32 33 41-3 63-29 60-74-43 2-92-5-92 41" id="bE"/><path d="M100-194c62-1 85 37 85 99 1 63-27 99-86 99S16-35 15-95c0-66 28-99 85-99zM99-20c44 1 53-31 53-75 0-43-8-75-51-75s-53 32-53 75 10 74 51 75" id="bF"/><g id="J"><use transform="matrix(0.05,0,0,0.05,0,0)" xlink:href="#aX"/><use transform="matrix(0.05,0,0,0.05,12.950000000000001,0)" xlink:href="#by"/><use transform="matrix(0.05,0,0,0.05,17.950000000000003,0)" xlink:href="#bz"/><use transform="matrix(0.05,0,0,0.05,27.950000000000003,0)" xlink:href="#bA"/><use transform="matrix(0.05,0,0,0.05,37.95,0)" xlink:href="#by"/><use transform="matrix(0.05,0,0,0.05,42.95,0)" xlink:href="#bz"/><use transform="matrix(0.05,0,0,0.05,52.95,0)" xlink:href="#aS"/><use transform="matrix(0.05,0,0,0.05,64.95,0)" xlink:href="#bB"/><use transform="matrix(0.05,0,0,0.05,74.95,0)" xlink:href="#by"/><use transform="matrix(0.05,0,0,0.05,79.95,0)" xlink:href="#bz"/><use transform="matrix(0.05,0,0,0.05,89.95,0)" xlink:href="#bA"/><use transform="matrix(0.05,0,0,0.05,99.95,0)" xlink:href="#by"/><use transform="matrix(0.05,0,0,0.05,104.95,0)" xlink:href="#bC"/><use transform="matrix(0.05,0,0,0.05,108.9,0)" xlink:href="#bD"/><use transform="matrix(0.05,0,0,0.05,117.9,0)" xlink:href="#bE"/><use transform="matrix(0.05,0,0,0.05,127.9,0)" xlink:href="#by"/><use transform="matrix(0.05,0,0,0.05,132.9,0)" xlink:href="#bF"/></g><path fill="#333" d="M33 0v-248h34V0H33" id="bG"/><g id="K"><use transform="matrix(0.049382716049382706,0,0,0.049382716049382706,0,0)" xlink:href="#aD"/><use transform="matrix(0.049382716049382706,0,0,0.049382716049382706,5.876543209876542,0)" xlink:href="#bl"/><use transform="matrix(0.049382716049382706,0,0,0.049382716049382706,15.75308641975308,0)" xlink:href="#aN"/><use transform="matrix(0.049382716049382706,0,0,0.049382716049382706,24.641975308641968,0)" xlink:href="#aH"/><use transform="matrix(0.049382716049382706,0,0,0.049382716049382706,34.518518518518505,0)" xlink:href="#aQ"/><use transform="matrix(0.049382716049382706,0,0,0.049382716049382706,40.39506172839505,0)" xlink:href="#bG"/><use transform="matrix(0.049382716049382706,0,0,0.049382716049382706,45.33333333333332,0)" xlink:href="#aG"/><use transform="matrix(0.049382716049382706,0,0,0.049382716049382706,55.20987654320985,0)" xlink:href="#aI"/></g><g id="L"><use transform="matrix(0.049382716049382706,0,0,0.049382716049382706,0,0)" xlink:href="#aN"/><use transform="matrix(0.049382716049382706,0,0,0.049382716049382706,8.888888888888888,0)" xlink:href="#aL"/><use transform="matrix(0.049382716049382706,0,0,0.049382716049382706,13.827160493827158,0)" xlink:href="#aQ"/><use transform="matrix(0.049382716049382706,0,0,0.049382716049382706,19.7037037037037,0)" xlink:href="#aJ"/><use transform="matrix(0.049382716049382706,0,0,0.049382716049382706,23.604938271604933,0)" xlink:href="#aK"/><use transform="matrix(0.049382716049382706,0,0,0.049382716049382706,33.481481481481474,0)" xlink:href="#aP"/></g><path fill="#333" d="M24 0v-261h32V0H24" id="bH"/><g id="M"><use transform="matrix(0.049382716049382706,0,0,0.049382716049382706,0,0)" xlink:href="#aD"/><use transform="matrix(0.049382716049382706,0,0,0.049382716049382706,5.876543209876542,0)" xlink:href="#aH"/><use transform="matrix(0.049382716049382706,0,0,0.049382716049382706,15.75308641975308,0)" xlink:href="#aM"/><use transform="matrix(0.049382716049382706,0,0,0.049382716049382706,30.518518518518512,0)" xlink:href="#aO"/><use transform="matrix(0.049382716049382706,0,0,0.049382716049382706,40.39506172839505,0)" xlink:href="#aJ"/><use transform="matrix(0.049382716049382706,0,0,0.049382716049382706,44.29629629629628,0)" xlink:href="#bH"/><use transform="matrix(0.049382716049382706,0,0,0.049382716049382706,48.19753086419752,0)" xlink:href="#aI"/><use transform="matrix(0.049382716049382706,0,0,0.049382716049382706,53.13580246913579,0)" xlink:href="#aN"/><use transform="matrix(0.049382716049382706,0,0,0.049382716049382706,62.02469135802468,0)" xlink:href="#aL"/><use transform="matrix(0.049382716049382706,0,0,0.049382716049382706,66.96296296296295,0)" xlink:href="#aQ"/><use transform="matrix(0.049382716049382706,0,0,0.049382716049382706,72.83950617283949,0)" xlink:href="#aJ"/><use transform="matrix(0.049382716049382706,0,0,0.049382716049382706,76.74074074074072,0)" xlink:href="#aK"/><use transform="matrix(0.049382716049382706,0,0,0.049382716049382706,86.61728395061726,0)" xlink:href="#aP"/></g><g id="N"><use transform="matrix(0.049382716049382706,0,0,0.049382716049382706,0,0)" xlink:href="#aD"/><use transform="matrix(0.049382716049382706,0,0,0.049382716049382706,5.876543209876542,0)" xlink:href="#bl"/><use transform="matrix(0.049382716049382706,0,0,0.049382716049382706,15.75308641975308,0)" xlink:href="#aN"/><use transform="matrix(0.049382716049382706,0,0,0.049382716049382706,24.641975308641968,0)" xlink:href="#aH"/><use transform="matrix(0.049382716049382706,0,0,0.049382716049382706,34.518518518518505,0)" xlink:href="#aQ"/><use transform="matrix(0.049382716049382706,0,0,0.049382716049382706,40.39506172839505,0)" xlink:href="#aK"/><use transform="matrix(0.049382716049382706,0,0,0.049382716049382706,50.271604938271594,0)" xlink:href="#aO"/><use transform="matrix(0.049382716049382706,0,0,0.049382716049382706,60.14814814814814,0)" xlink:href="#aM"/><use transform="matrix(0.049382716049382706,0,0,0.049382716049382706,74.91358024691357,0)" xlink:href="#aH"/><use transform="matrix(0.049382716049382706,0,0,0.049382716049382706,84.79012345679011,0)" xlink:href="#aI"/><use transform="matrix(0.049382716049382706,0,0,0.049382716049382706,89.72839506172838,0)" xlink:href="#aN"/><use transform="matrix(0.049382716049382706,0,0,0.049382716049382706,98.61728395061726,0)" xlink:href="#aL"/><use transform="matrix(0.049382716049382706,0,0,0.049382716049382706,103.55555555555553,0)" xlink:href="#aQ"/><use transform="matrix(0.049382716049382706,0,0,0.049382716049382706,109.43209876543207,0)" xlink:href="#aJ"/><use transform="matrix(0.049382716049382706,0,0,0.049382716049382706,113.33333333333331,0)" xlink:href="#aK"/><use transform="matrix(0.049382716049382706,0,0,0.049382716049382706,123.20987654320986,0)" xlink:href="#aP"/></g><path fill="#333" d="M212-179c-10-28-35-45-73-45-59 0-87 40-87 99 0 60 29 101 89 101 43 0 62-24 78-52l27 14C228-24 195 4 139 4 59 4 22-46 18-125c-6-104 99-153 187-111 19 9 31 26 39 46" id="bI"/><g id="O"><use transform="matrix(0.049382716049382706,0,0,0.049382716049382706,0,0)" xlink:href="#bI"/><use transform="matrix(0.049382716049382706,0,0,0.049382716049382706,12.790123456790122,0)" xlink:href="#aQ"/><use transform="matrix(0.049382716049382706,0,0,0.049382716049382706,18.666666666666664,0)" xlink:href="#aH"/><use transform="matrix(0.049382716049382706,0,0,0.049382716049382706,28.543209876543205,0)" xlink:href="#aO"/></g><path fill="#333" d="M140-251c81 0 123 46 123 126C263-46 219 4 140 4 59 4 17-45 17-125s42-126 123-126zm0 227c63 0 89-41 89-101s-29-99-89-99c-61 0-89 39-89 99S79-25 140-24" id="bJ"/><path fill="#333" d="M185-189c-5-48-123-54-124 2 14 75 158 14 163 119 3 78-121 87-175 55-17-10-28-26-33-46l33-7c5 56 141 63 141-1 0-78-155-14-162-118-5-82 145-84 179-34 5 7 8 16 11 25" id="bK"/><g id="P"><use transform="matrix(0.049382716049382706,0,0,0.049382716049382706,0,0)" xlink:href="#bm"/><use transform="matrix(0.049382716049382706,0,0,0.049382716049382706,11.85185185185185,0)" xlink:href="#bJ"/><use transform="matrix(0.049382716049382706,0,0,0.049382716049382706,25.679012345679006,0)" xlink:href="#bK"/><use transform="matrix(0.049382716049382706,0,0,0.049382716049382706,37.53086419753085,0)" xlink:href="#bo"/><use transform="matrix(0.049382716049382706,0,0,0.049382716049382706,48.34567901234567,0)" xlink:href="#bp"/><use transform="matrix(0.049382716049382706,0,0,0.049382716049382706,53.28395061728394,0)" xlink:href="#aO"/><use transform="matrix(0.049382716049382706,0,0,0.049382716049382706,63.16049382716048,0)" xlink:href="#bq"/><use transform="matrix(0.049382716049382706,0,0,0.049382716049382706,73.03703703703702,0)" xlink:href="#aJ"/><use transform="matrix(0.049382716049382706,0,0,0.049382716049382706,76.93827160493825,0)" xlink:href="#bp"/><use transform="matrix(0.049382716049382706,0,0,0.049382716049382706,81.87654320987652,0)" xlink:href="#bl"/><use transform="matrix(0.049382716049382706,0,0,0.049382716049382706,91.75308641975306,0)" xlink:href="#aN"/><use transform="matrix(0.049382716049382706,0,0,0.049382716049382706,100.64197530864195,0)" xlink:href="#aH"/><use transform="matrix(0.049382716049382706,0,0,0.049382716049382706,110.51851851851849,0)" xlink:href="#aQ"/><use transform="matrix(0.049382716049382706,0,0,0.049382716049382706,116.39506172839504,0)" xlink:href="#bp"/></g><path fill="#333" d="M143 4C61 4 22-44 18-125c-5-107 100-154 193-111 17 8 29 25 37 43l-32 9c-13-25-37-40-76-40-61 0-88 39-88 99 0 61 29 100 91 101 35 0 62-11 79-27v-45h-74v-28h105v86C228-13 192 4 143 4" id="bL"/><g id="Q"><use transform="matrix(0.049382716049382706,0,0,0.049382716049382706,0,0)" xlink:href="#bL"/><use transform="matrix(0.049382716049382706,0,0,0.049382716049382706,13.827160493827158,0)" xlink:href="#aH"/><use transform="matrix(0.049382716049382706,0,0,0.049382716049382706,23.7037037037037,0)" xlink:href="#aL"/></g><path fill="#333" d="M30-248c118-7 216 8 213 122C240-48 200 0 122 0H30v-248zM63-27c89 8 146-16 146-99s-60-101-146-95v194" id="bM"/><g id="R"><use transform="matrix(0.049382716049382706,0,0,0.049382716049382706,0,0)" xlink:href="#bM"/><use transform="matrix(0.049382716049382706,0,0,0.049382716049382706,12.790123456790122,0)" xlink:href="#aO"/><use transform="matrix(0.049382716049382706,0,0,0.049382716049382706,22.666666666666664,0)" xlink:href="#aL"/><use transform="matrix(0.049382716049382706,0,0,0.049382716049382706,27.60493827160494,0)" xlink:href="#aJ"/></g><g id="S"><use transform="matrix(0.049382716049382706,0,0,0.049382716049382706,0,0)" xlink:href="#bn"/><use transform="matrix(0.049382716049382706,0,0,0.049382716049382706,12.790123456790122,0)" xlink:href="#aL"/><use transform="matrix(0.049382716049382706,0,0,0.049382716049382706,17.728395061728392,0)" xlink:href="#aH"/><use transform="matrix(0.049382716049382706,0,0,0.049382716049382706,27.604938271604933,0)" xlink:href="#aK"/><use transform="matrix(0.049382716049382706,0,0,0.049382716049382706,37.481481481481474,0)" xlink:href="#aL"/><use transform="matrix(0.049382716049382706,0,0,0.049382716049382706,42.419753086419746,0)" xlink:href="#aH"/></g><path fill="#333" d="M30 0v-248h187v28H63v79h144v27H63v87h162V0H30" id="bN"/><path fill="#333" d="M39-94c74 12-11 154 75 146v23c-44 4-70-10-70-52C44-23 55-84 6-82v-22c81 4-7-162 84-157h24v23c-82-15-2 131-75 144" id="bO"/><path fill="#333" d="M76-40C78 24 84 88 6 75V52C86 64 9-79 80-94c-40-6-34-59-34-106 1-29-11-41-40-38v-23c44-4 70 10 70 52 0 47-12 108 38 105v22c-26 1-39 14-38 42" id="bP"/><g id="T"><use transform="matrix(0.049382716049382706,0,0,0.049382716049382706,0,0)" xlink:href="#bL"/><use transform="matrix(0.049382716049382706,0,0,0.049382716049382706,13.827160493827158,0)" xlink:href="#bN"/><use transform="matrix(0.049382716049382706,0,0,0.049382716049382706,25.679012345679006,0)" xlink:href="#bo"/><use transform="matrix(0.049382716049382706,0,0,0.049382716049382706,36.49382716049382,0)" xlink:href="#bp"/><use transform="matrix(0.049382716049382706,0,0,0.049382716049382706,41.432098765432094,0)" xlink:href="#bl"/><use transform="matrix(0.049382716049382706,0,0,0.049382716049382706,51.30864197530863,0)" xlink:href="#aN"/><use transform="matrix(0.049382716049382706,0,0,0.049382716049382706,60.19753086419752,0)" xlink:href="#aH"/><use transform="matrix(0.049382716049382706,0,0,0.049382716049382706,70.07407407407406,0)" xlink:href="#aQ"/><use transform="matrix(0.049382716049382706,0,0,0.049382716049382706,75.9506172839506,0)" xlink:href="#bp"/><use transform="matrix(0.049382716049382706,0,0,0.049382716049382706,80.88888888888887,0)" xlink:href="#bl"/><use transform="matrix(0.049382716049382706,0,0,0.049382716049382706,90.76543209876542,0)" xlink:href="#aN"/><use transform="matrix(0.049382716049382706,0,0,0.049382716049382706,99.6543209876543,0)" xlink:href="#aH"/><use transform="matrix(0.049382716049382706,0,0,0.049382716049382706,109.53086419753085,0)" xlink:href="#aQ"/><use transform="matrix(0.049382716049382706,0,0,0.049382716049382706,115.40740740740739,0)" xlink:href="#bG"/><use transform="matrix(0.049382716049382706,0,0,0.049382716049382706,120.34567901234566,0)" xlink:href="#aG"/><use transform="matrix(0.049382716049382706,0,0,0.049382716049382706,130.2222222222222,0)" xlink:href="#bp"/><use transform="matrix(0.049382716049382706,0,0,0.049382716049382706,135.16049382716048,0)" xlink:href="#bO"/><use transform="matrix(0.049382716049382706,0,0,0.049382716049382706,141.0864197530864,0)" xlink:href="#bl"/><use transform="matrix(0.049382716049382706,0,0,0.049382716049382706,150.96296296296293,0)" xlink:href="#aN"/><use transform="matrix(0.049382716049382706,0,0,0.049382716049382706,159.85185185185182,0)" xlink:href="#aH"/><use transform="matrix(0.049382716049382706,0,0,0.049382716049382706,169.72839506172835,0)" xlink:href="#aQ"/><use transform="matrix(0.049382716049382706,0,0,0.049382716049382706,175.60493827160488,0)" xlink:href="#bG"/><use transform="matrix(0.049382716049382706,0,0,0.049382716049382706,180.54320987654316,0)" xlink:href="#aG"/><use transform="matrix(0.049382716049382706,0,0,0.049382716049382706,190.4197530864197,0)" xlink:href="#bP"/></g><g id="U"><use transform="matrix(0.05,0,0,0.05,0,0)" xlink:href="#aX"/><use transform="matrix(0.05,0,0,0.05,12.950000000000001,0)" xlink:href="#by"/><use transform="matrix(0.05,0,0,0.05,17.950000000000003,0)" xlink:href="#bz"/><use transform="matrix(0.05,0,0,0.05,27.950000000000003,0)" xlink:href="#bA"/><use transform="matrix(0.05,0,0,0.05,37.95,0)" xlink:href="#by"/><use transform="matrix(0.05,0,0,0.05,42.95,0)" xlink:href="#bz"/><use transform="matrix(0.05,0,0,0.05,52.95,0)" xlink:href="#aS"/><use transform="matrix(0.05,0,0,0.05,64.95,0)" xlink:href="#bB"/><use transform="matrix(0.05,0,0,0.05,74.95,0)" xlink:href="#by"/><use transform="matrix(0.05,0,0,0.05,79.95,0)" xlink:href="#bz"/><use transform="matrix(0.05,0,0,0.05,89.95,0)" xlink:href="#bA"/><use transform="matrix(0.05,0,0,0.05,99.95,0)" xlink:href="#by"/><use transform="matrix(0.05,0,0,0.05,104.95,0)" xlink:href="#bC"/><use transform="matrix(0.05,0,0,0.05,108.9,0)" xlink:href="#bD"/><use transform="matrix(0.05,0,0,0.05,117.9,0)" xlink:href="#bE"/><use transform="matrix(0.05,0,0,0.05,127.9,0)" xlink:href="#by"/><use transform="matrix(0.05,0,0,0.05,132.9,0)" xlink:href="#bF"/></g><path d="M16-82v-28h88v28H16" id="bQ"/><path d="M135-143c-3-34-86-38-87 0 15 53 115 12 119 90S17 21 10-45l28-5c4 36 97 45 98 0-10-56-113-15-118-90-4-57 82-63 122-42 12 7 21 19 24 35" id="bR"/><path d="M114-163C36-179 61-72 57 0H25l-1-190h30c1 12-1 29 2 39 6-27 23-49 58-41v29" id="bS"/><path d="M85-194c31 0 48 13 60 33l-1-100h32l1 261h-30c-2-10 0-23-3-31C134-8 116 4 85 4 32 4 16-35 15-94c0-66 23-100 70-100zm9 24c-40 0-46 34-46 75 0 40 6 74 45 74 42 0 51-32 51-76 0-42-9-74-50-73" id="bT"/><path d="M33-154v-36h34v36H33zM33 0v-36h34V0H33" id="bU"/><g id="V"><use transform="matrix(0.049382716049382706,0,0,0.049382716049382706,0,0)" xlink:href="#bQ"/><use transform="matrix(0.049382716049382706,0,0,0.049382716049382706,5.876543209876542,0)" xlink:href="#bB"/><use transform="matrix(0.049382716049382706,0,0,0.049382716049382706,15.75308641975308,0)" xlink:href="#bR"/><use transform="matrix(0.049382716049382706,0,0,0.049382716049382706,24.641975308641968,0)" xlink:href="#bz"/><use transform="matrix(0.049382716049382706,0,0,0.049382716049382706,34.518518518518505,0)" xlink:href="#bS"/><use transform="matrix(0.049382716049382706,0,0,0.049382716049382706,40.39506172839505,0)" xlink:href="#ba"/><use transform="matrix(0.049382716049382706,0,0,0.049382716049382706,45.33333333333332,0)" xlink:href="#bT"/><use transform="matrix(0.049382716049382706,0,0,0.049382716049382706,55.20987654320985,0)" xlink:href="#bU"/></g><path d="M177-190C167-65 218 103 67 71c-23-6-38-20-44-43l32-5c15 47 100 32 89-28v-30C133-14 115 1 83 1 29 1 15-40 15-95c0-56 16-97 71-98 29-1 48 16 59 35 1-10 0-23 2-32h30zM94-22c36 0 50-32 50-73 0-42-14-75-50-75-39 0-46 34-46 75s6 73 46 73" id="bV"/><g id="W"><use transform="matrix(0.049382716049382706,0,0,0.049382716049382706,0,0)" xlink:href="#bR"/><use transform="matrix(0.049382716049382706,0,0,0.049382716049382706,8.888888888888888,0)" xlink:href="#by"/><use transform="matrix(0.049382716049382706,0,0,0.049382716049382706,13.827160493827158,0)" xlink:href="#bS"/><use transform="matrix(0.049382716049382706,0,0,0.049382716049382706,19.7037037037037,0)" xlink:href="#bC"/><use transform="matrix(0.049382716049382706,0,0,0.049382716049382706,23.604938271604933,0)" xlink:href="#bA"/><use transform="matrix(0.049382716049382706,0,0,0.049382716049382706,33.481481481481474,0)" xlink:href="#bV"/></g><path fill="#333" d="M-5 72V49h209v23H-5" id="bW"/><g id="Y"><use transform="matrix(0.049382716049382706,0,0,0.049382716049382706,0,0)" xlink:href="#bn"/><use transform="matrix(0.049382716049382706,0,0,0.049382716049382706,12.790123456790122,0)" xlink:href="#aL"/><use transform="matrix(0.049382716049382706,0,0,0.049382716049382706,17.728395061728392,0)" xlink:href="#aH"/><use transform="matrix(0.049382716049382706,0,0,0.049382716049382706,27.604938271604933,0)" xlink:href="#aK"/><use transform="matrix(0.049382716049382706,0,0,0.049382716049382706,37.481481481481474,0)" xlink:href="#aL"/><use transform="matrix(0.049382716049382706,0,0,0.049382716049382706,42.419753086419746,0)" xlink:href="#aH"/><use transform="matrix(0.049382716049382706,0,0,0.049382716049382706,52.29629629629628,0)" xlink:href="#bW"/><use transform="matrix(0.049382716049382706,0,0,0.049382716049382706,62.17283950617284,0)" xlink:href="#aH"/><use transform="matrix(0.049382716049382706,0,0,0.049382716049382706,72.04938271604938,0)" xlink:href="#aM"/><use transform="matrix(0.049382716049382706,0,0,0.049382716049382706,86.81481481481481,0)" xlink:href="#aO"/><use transform="matrix(0.049382716049382706,0,0,0.049382716049382706,96.69135802469135,0)" xlink:href="#aJ"/><use transform="matrix(0.049382716049382706,0,0,0.049382716049382706,100.59259259259258,0)" xlink:href="#bH"/></g><g id="Z"><use transform="matrix(0.049382716049382706,0,0,0.049382716049382706,0,0)" xlink:href="#bL"/><use transform="matrix(0.049382716049382706,0,0,0.049382716049382706,13.827160493827158,0)" xlink:href="#bN"/><use transform="matrix(0.049382716049382706,0,0,0.049382716049382706,25.679012345679006,0)" xlink:href="#bo"/><use transform="matrix(0.049382716049382706,0,0,0.049382716049382706,36.49382716049382,0)" xlink:href="#bp"/><use transform="matrix(0.049382716049382706,0,0,0.049382716049382706,41.432098765432094,0)" xlink:href="#bl"/><use transform="matrix(0.049382716049382706,0,0,0.049382716049382706,51.30864197530863,0)" xlink:href="#aN"/><use transform="matrix(0.049382716049382706,0,0,0.049382716049382706,60.19753086419752,0)" xlink:href="#aH"/><use transform="matrix(0.049382716049382706,0,0,0.049382716049382706,70.07407407407406,0)" xlink:href="#aQ"/><use transform="matrix(0.049382716049382706,0,0,0.049382716049382706,75.9506172839506,0)" xlink:href="#bp"/><use transform="matrix(0.049382716049382706,0,0,0.049382716049382706,80.88888888888887,0)" xlink:href="#aH"/><use transform="matrix(0.049382716049382706,0,0,0.049382716049382706,90.76543209876542,0)" xlink:href="#aM"/><use transform="matrix(0.049382716049382706,0,0,0.049382716049382706,105.53086419753085,0)" xlink:href="#aO"/><use transform="matrix(0.049382716049382706,0,0,0.049382716049382706,115.40740740740739,0)" xlink:href="#aJ"/><use transform="matrix(0.049382716049382706,0,0,0.049382716049382706,119.30864197530862,0)" xlink:href="#bH"/><use transform="matrix(0.049382716049382706,0,0,0.049382716049382706,123.20987654320986,0)" xlink:href="#bp"/><use transform="matrix(0.049382716049382706,0,0,0.049382716049382706,128.14814814814812,0)" xlink:href="#bO"/><use transform="matrix(0.049382716049382706,0,0,0.049382716049382706,134.07407407407405,0)" xlink:href="#aH"/><use transform="matrix(0.049382716049382706,0,0,0.049382716049382706,143.95061728395058,0)" xlink:href="#aM"/><use transform="matrix(0.049382716049382706,0,0,0.049382716049382706,158.716049382716,0)" xlink:href="#aO"/><use transform="matrix(0.049382716049382706,0,0,0.049382716049382706,168.59259259259252,0)" xlink:href="#aJ"/><use transform="matrix(0.049382716049382706,0,0,0.049382716049382706,172.49382716049377,0)" xlink:href="#bH"/><use transform="matrix(0.049382716049382706,0,0,0.049382716049382706,176.395061728395,0)" xlink:href="#bP"/></g><path d="M210-169c-67 3-38 105-44 169h-31v-121c0-29-5-50-35-48C34-165 62-65 56 0H25l-1-190h30c1 10-1 24 2 32 10-44 99-50 107 0 11-21 27-35 58-36 85-2 47 119 55 194h-31v-121c0-29-5-49-35-48" id="bX"/><path d="M24 0v-261h32V0H24" id="bY"/><g id="aa"><use transform="matrix(0.049382716049382706,0,0,0.049382716049382706,0,0)" xlink:href="#bQ"/><use transform="matrix(0.049382716049382706,0,0,0.049382716049382706,5.876543209876542,0)" xlink:href="#bz"/><use transform="matrix(0.049382716049382706,0,0,0.049382716049382706,15.75308641975308,0)" xlink:href="#bX"/><use transform="matrix(0.049382716049382706,0,0,0.049382716049382706,30.518518518518512,0)" xlink:href="#bE"/><use transform="matrix(0.049382716049382706,0,0,0.049382716049382706,40.39506172839505,0)" xlink:href="#bC"/><use transform="matrix(0.049382716049382706,0,0,0.049382716049382706,44.29629629629628,0)" xlink:href="#bY"/><use transform="matrix(0.049382716049382706,0,0,0.049382716049382706,48.19753086419752,0)" xlink:href="#bU"/></g></defs></g></svg>